<?xml version="1.0" encoding="UTF-8"?>
<!DOCTYPE svg PUBLIC "-//W3C//DTD SVG 1.1//EN" "http://www.w3.org/Graphics/SVG/1.1/DTD/svg11.dtd">
<!-- Creator: CorelDRAW X7 -->
<svg xmlns="http://www.w3.org/2000/svg" xml:space="preserve" width="4.4026mm" height="4.4026mm" version="1.1" style="shape-rendering:geometricPrecision; text-rendering:geometricPrecision; image-rendering:optimizeQuality; fill-rule:evenodd; clip-rule:evenodd"
viewBox="0 0 440 440"
 xmlns:xlink="http://www.w3.org/1999/xlink">
 <defs>
  <style type="text/css">
   <![CDATA[
    .fil0 {fill:#F96332}
   ]]>
  </style>
 </defs>
 <g id="Слой_x0020_1">
  <metadata id="CorelCorpID_0Corel-Layer"/>
  <path class="fil0" d="M220 162c-32,0 -58,26 -58,58 0,33 26,59 58,59 33,0 59,-26 59,-59 0,-32 -26,-58 -59,-58zm0 96c-21,0 -38,-17 -38,-38 0,-21 17,-38 38,-38 21,0 38,17 38,38 0,21 -17,38 -38,38zm75 -99c0,8 -6,14 -14,14 -7,0 -14,-6 -14,-14 0,-7 7,-14 14,-14 8,0 14,7 14,14zm39 14c-1,-18 -5,-35 -19,-48 -13,-13 -29,-17 -48,-18 -19,-1 -75,-1 -94,0 -18,1 -34,5 -48,18 -13,13 -17,30 -18,48 -1,19 -1,75 0,94 1,19 5,35 18,48 14,14 30,18 48,19 19,1 75,1 94,0 19,-1 35,-5 48,-19 14,-13 18,-29 19,-48 1,-19 1,-75 0,-94l0 0zm-25 115c-4,9 -11,17 -21,21 -16,6 -51,5 -68,5 -16,0 -52,1 -67,-5 -10,-4 -18,-11 -22,-21 -6,-16 -5,-51 -5,-68 0,-16 -1,-52 5,-67 4,-10 12,-18 22,-22 15,-6 51,-5 67,-5 17,0 53,-1 68,5 10,4 17,12 21,22 6,15 5,51 5,67 0,17 1,53 -5,68z"/>
 </g>
</svg>
