<?xml version="1.0" encoding="UTF-8"?>
<!DOCTYPE svg PUBLIC "-//W3C//DTD SVG 1.1//EN" "http://www.w3.org/Graphics/SVG/1.1/DTD/svg11.dtd">
<!-- Creator: CorelDRAW X7 -->
<svg xmlns="http://www.w3.org/2000/svg" xml:space="preserve" width="4.4026mm" height="4.4026mm" version="1.1" style="shape-rendering:geometricPrecision; text-rendering:geometricPrecision; image-rendering:optimizeQuality; fill-rule:evenodd; clip-rule:evenodd"
viewBox="0 0 440 440"
 xmlns:xlink="http://www.w3.org/1999/xlink">
 <defs>
  <style type="text/css">
   <![CDATA[
    .fil0 {fill:#F96332}
   ]]>
  </style>
 </defs>
 <g id="Слой_x0020_1">
  <metadata id="CorelCorpID_0Corel-Layer"/>
  <path class="fil0" d="M319 200c0,0 0,0 0,0 -20,0 -39,-7 -55,-18l0 80c0,40 -32,72 -72,72 -40,0 -73,-32 -73,-72 0,-40 33,-73 73,-73 3,0 6,0 10,1l0 40c-3,-1 -7,-1 -10,-1 -19,0 -34,14 -34,33 0,18 15,33 34,33 18,0 33,-15 33,-33 0,0 0,0 0,0l0 -156 39 0c0,0 0,0 0,0 0,3 1,7 1,10l0 0c3,14 12,27 24,36 9,5 20,9 30,9 0,0 0,0 0,0l0 39z"/>
 </g>
</svg>
