<?xml version="1.0" encoding="UTF-8"?>
<!DOCTYPE svg PUBLIC "-//W3C//DTD SVG 1.1//EN" "http://www.w3.org/Graphics/SVG/1.1/DTD/svg11.dtd">
<!-- Creator: CorelDRAW X7 -->
<svg xmlns="http://www.w3.org/2000/svg" xml:space="preserve" width="4.4026mm" height="4.4026mm" version="1.1" style="shape-rendering:geometricPrecision; text-rendering:geometricPrecision; image-rendering:optimizeQuality; fill-rule:evenodd; clip-rule:evenodd"
viewBox="0 0 440 440"
 xmlns:xlink="http://www.w3.org/1999/xlink">
 <defs>
  <style type="text/css">
   <![CDATA[
    .fil0 {fill:#F96332}
   ]]>
  </style>
 </defs>
 <g id="Слой_x0020_1">
  <metadata id="CorelCorpID_0Corel-Layer"/>
  <path class="fil0" d="M306 128c-5,-5 -28,-22 -80,-22 0,0 -60,-4 -89,23 -17,17 -22,41 -23,70 -1,30 -1,86 52,101l0 0 0 23c0,0 0,9 6,11 7,2 12,-5 19,-12 4,-5 9,-11 13,-15 37,3 65,-4 68,-5 8,-3 50,-8 56,-64 7,-57 -3,-94 -22,-110l0 0zm6 106c-5,46 -39,49 -46,51 -2,1 -27,7 -58,5 0,0 -23,28 -31,36 -2,2 -5,2 -5,-3 0,-3 1,-38 1,-38 0,0 0,0 0,0 -46,-13 -43,-60 -43,-85 1,-25 6,-45 19,-59 25,-22 76,-19 76,-19 44,0 64,13 69,18 16,13 24,46 18,94l0 0zm-62 -36c1,4 -5,4 -5,0 -1,-10 -5,-14 -15,-15 -4,0 -3,-6 0,-6 13,1 20,8 20,21l0 0zm9 5c1,-19 -11,-34 -33,-35 -4,-1 -4,-7 0,-6 26,2 40,19 39,41 0,4 -6,4 -6,0zm21 6c0,4 -5,4 -5,0 -1,-36 -25,-56 -54,-56 -4,-1 -4,-6 0,-6 33,0 59,23 59,62l0 0zm-5 44l0 0c-4,8 -13,18 -23,15l0 0c-9,-3 -31,-15 -45,-26 -8,-5 -14,-12 -19,-19 -5,-5 -10,-12 -14,-20 -10,-18 -12,-25 -12,-25 -3,-10 7,-19 15,-23l0 0c4,-3 8,-2 11,1 0,0 5,7 8,10 2,3 5,8 7,11 2,5 1,10 -2,12l-5 4c-3,2 -3,6 -3,6 0,0 8,30 38,38 0,0 4,0 6,-3l4 -5c2,-3 7,-4 12,-2 7,4 15,10 21,15 3,3 3,7 1,11l0 0z"/>
 </g>
</svg>
