<?xml version="1.0" encoding="UTF-8"?>
<!DOCTYPE svg PUBLIC "-//W3C//DTD SVG 1.1//EN" "http://www.w3.org/Graphics/SVG/1.1/DTD/svg11.dtd">
<!-- Creator: CorelDRAW X7 -->
<svg xmlns="http://www.w3.org/2000/svg" xml:space="preserve" width="4.4026mm" height="4.4026mm" version="1.1" style="shape-rendering:geometricPrecision; text-rendering:geometricPrecision; image-rendering:optimizeQuality; fill-rule:evenodd; clip-rule:evenodd"
viewBox="0 0 440 440"
 xmlns:xlink="http://www.w3.org/1999/xlink">
 <defs>
  <style type="text/css">
   <![CDATA[
    .fil0 {fill:#F96332}
   ]]>
  </style>
 </defs>
 <g id="Слой_x0020_1">
  <metadata id="CorelCorpID_0Corel-Layer"/>
  <path class="fil0" d="M342 155c-3,-11 -12,-20 -23,-23 -19,-5 -99,-5 -99,-5 0,0 -79,0 -99,5 -11,3 -20,12 -23,23 -5,20 -5,61 -5,61 0,0 0,42 5,62 3,11 12,19 23,22 20,5 99,5 99,5 0,0 80,0 99,-5 11,-3 20,-11 23,-22 5,-20 5,-62 5,-62 0,0 0,-41 -5,-61l0 0zm-148 99l0 -75 67 37 -67 38 0 0z"/>
 </g>
</svg>
