<?xml version="1.0" encoding="UTF-8"?>
<!DOCTYPE svg PUBLIC "-//W3C//DTD SVG 1.1//EN" "http://www.w3.org/Graphics/SVG/1.1/DTD/svg11.dtd">
<!-- Creator: CorelDRAW X7 -->
<svg xmlns="http://www.w3.org/2000/svg" xml:space="preserve" width="43px" height="37px" version="1.1" style="shape-rendering:geometricPrecision; text-rendering:geometricPrecision; image-rendering:optimizeQuality; fill-rule:evenodd; clip-rule:evenodd"
viewBox="0 0 43 37"
 xmlns:xlink="http://www.w3.org/1999/xlink">
 <defs>
  <style type="text/css">
   <![CDATA[
    .fil0 {fill:#E46228}
    .fil1 {fill:white;fill-rule:nonzero}
   ]]>
  </style>
 </defs>
 <g id="Слой_x0020_1">
  <metadata id="CorelCorpID_0Corel-Layer"/>
  <g id="_2031990461232">
   <polygon class="fil0" points="32,0 43,18 32,37 11,37 0,18 11,0 "/>
   <path class="fil1" d="M14 25l1 -1c1,1 1,2 0,3 0,0 0,1 -1,2 -1,0 -2,0 -3,0 -1,0 -2,-1 -3,-2 0,-1 -1,-2 -1,-3 0,0 0,-1 1,-2 0,0 1,-1 1,-1 1,-1 2,-1 3,-1 0,0 1,1 2,1l-1 1c-1,0 -1,0 -2,-1 0,0 -1,0 -1,1 -1,0 -1,1 -1,1 0,1 0,2 0,3 1,1 2,2 2,2 1,0 2,0 2,0 1,-1 1,-1 1,-2 0,0 0,-1 0,-1zm-1 -6l6 -4 1 1 -3 2 4 6 -1 1 -4 -7 -2 2 -1 -1zm9 0c-1,-2 -1,-3 -1,-4 1,-1 1,-2 2,-2 1,-1 2,-1 3,-1 1,1 2,1 3,3 0,1 1,1 1,2 0,1 0,1 -1,2 0,1 -1,1 -1,2 -1,0 -2,0 -4,0 -1,0 -1,-1 -2,-2zm1 -1c1,1 1,2 2,2 1,0 1,0 2,0 1,-1 1,-1 1,-2 0,-1 0,-2 0,-3 -1,-1 -2,-1 -2,-1 -1,-1 -2,-1 -2,0 -1,0 -1,1 -1,1 -1,1 0,2 0,3zm5 -8l1 -1 2 4c1,-1 1,-1 1,-1 0,0 0,-1 0,-2 0,-1 0,-1 0,-2 0,0 0,0 0,0 0,0 1,-1 1,-1l0 0 1 1 0 0c-1,0 -1,1 -1,1 0,0 0,0 0,1 0,1 0,1 0,1 0,1 0,1 0,1 0,0 1,0 2,1l3 1 -1 1 -3 -1c-1,-1 -1,-1 -1,-1 -1,0 -1,0 -1,0l2 4 -1 1 -5 -8z"/>
  </g>
 </g>
</svg>
