<?xml version="1.0" encoding="utf-8"?>
<!-- Generator: Adobe Illustrator 26.5.0, SVG Export Plug-In . SVG Version: 6.00 Build 0)  -->
<svg version="1.1" id="Шар_1" xmlns="http://www.w3.org/2000/svg" xmlns:xlink="http://www.w3.org/1999/xlink" x="0px" y="0px"
	 viewBox="0 0 640 640" style="enable-background:new 0 0 640 640;" xml:space="preserve">
<style type="text/css">
	.st0{fill:#FFFFFF;}
	.st1{fill:#238B00;}
	.st2{fill:#E46228;}
	.st3{fill:none;stroke:#FFFFFF;stroke-miterlimit:10;}
	.st4{fill:none;stroke:#FFFFFF;stroke-width:0.25;stroke-miterlimit:10;}
	.st5{fill:none;stroke:#E46228;stroke-miterlimit:10;}
	.st6{fill:#E46228;stroke:#E46228;stroke-miterlimit:10;}
	.st7{fill:#FEFEFE;}
	.st8{fill:#FCFCFC;}
	.st9{fill:#3B3B3B;}
	.st10{fill:#228000;}
	.st11{fill:#020202;}
	.st12{fill:#010101;}
	.st13{fill:#0F0F0F;}
	.st14{fill:#FEFEFD;}
	.st15{fill:#E0ECDB;}
	.st16{fill:#FDFDFC;}
	.st17{fill:#DF6232;}
	.st18{fill:#E06331;}
	.st19{fill-rule:evenodd;clip-rule:evenodd;fill:#238035;}
	.st20{fill-rule:evenodd;clip-rule:evenodd;fill:#E46228;}
	.st21{fill:#238035;}
	.st22{fill:none;stroke:#E46228;stroke-width:12;stroke-miterlimit:10;}
	.st23{fill:#E77440;}
	.st24{fill:#8E24AA;}
</style>
<g>
	<polygon class="st0" points="564.9,463.3 564.9,176.8 320,33.5 75.2,176.8 75.2,463.3 320,606.5 	"/>
</g>
<g>
	<polygon class="st1" points="539.8,448.1 539.8,190.9 320,62.3 100.2,190.9 100.2,448.1 320,576.7 	"/>
</g>
<g>
	<polygon class="st2" points="242,393.6 320.1,551.9 469,190.8 316.4,471.5 	"/>
</g>
<g>
	<path class="st0" d="M318.9,223h-26.6v-86h27.8c9,0,15.4,1.8,19.4,5.5c4,3.6,5.9,9,5.9,16.2c0,10.6-5.4,17.2-16.2,19.5v0.2
		c5.5,0.3,9.9,2.4,13.3,6.1c3.4,3.8,5.1,8.1,5.1,13C347.7,214.5,338.1,223,318.9,223z M303.3,147.3v26.8h11.6
		c13.1,0,19.6-4.6,19.6-13.8c0-5-1.2-8.4-3.6-10.3c-2.4-1.8-6.5-2.8-12.4-2.8H303.3z M303.3,183.4v29.2h14.9c6.1,0,10.6-1,13.5-3.1
		c2.9-2,4.3-5.7,4.3-10.9c0-5.3-1.7-9.2-5-11.6c-3.3-2.4-8.4-3.6-15.3-3.6H303.3z"/>
</g>
<g>
	<path class="st0" d="M171.4,282.7V369h-9.7v-39.9h-19.2V369H133v-86.3h9.5v37.2h19.2v-37.2H171.4z"/>
	<path class="st0" d="M216.4,307.1v62h-9v-10.8h-0.2c-2.3,7.8-6.7,11.7-13.2,11.7c-9.8,0-14.7-8.5-14.7-25.6
		c0-9.1,1.6-15.7,4.7-19.8c3.1-4.1,8.4-6.1,15.7-6.1c2.3,0,4.7,0.1,7.2,0.3v-11.5c0-6.2-0.8-10.5-2.3-12.8c-1.6-2.3-4.2-3.5-8-3.5
		c-4.8,0-9.2,1-13.2,3v-9c4.6-2.1,9.6-3.2,15-3.2c6.9,0,11.6,1.9,14.2,5.8C215.1,291.4,216.4,297.9,216.4,307.1z M206.8,340.1v-12.9
		c-2.5-0.2-4.2-0.3-5.3-0.3c-4.9,0-8.2,1.2-9.9,3.6c-1.7,2.4-2.6,6.8-2.6,13.2c0,6.4,0.7,10.9,2.1,13.4c1.4,2.5,3.5,3.7,6.3,3.7
		C203.7,360.7,206.8,353.8,206.8,340.1z"/>
	<path class="st0" d="M243.8,335h-0.5l-9.4,34h-10.4l10.7-36.2c-6.1-3.6-9.2-11.5-9.2-23.7c0-9.6,1.6-16.4,4.8-20.4
		c3.2-4,8-6,14.6-6h17V369H252v-34H243.8z M246.1,325.8h5.8v-34h-5.8c-3.9,0-6.7,1.3-8.4,4c-1.7,2.7-2.6,7.1-2.6,13.5
		c0,6.7,0.9,11.1,2.6,13.3C239.4,324.7,242.2,325.8,246.1,325.8z"/>
	<path class="st0" d="M287.4,369h-15.7v-86.3H289c6.1,0,10.6,1.7,13.4,5c2.8,3.3,4.2,8.9,4.2,16.8c0,10.3-2.7,16.6-8.2,19.1v0.5
		c6.7,1.6,10,8.5,10,20.8c0,9-1.6,15.3-4.8,18.8C300.5,367.3,295,369,287.4,369z M281.2,291.8v28.1h7.7c5.6,0,8.4-4.6,8.4-13.9
		c0-4.9-0.7-8.4-2-10.7c-1.3-2.3-3.9-3.5-7.7-3.5H281.2z M281.2,328.4v31.5h6.8c6.9,0,10.4-5.2,10.4-15.7c0-6.1-0.8-10.2-2.3-12.4
		c-1.6-2.2-4-3.3-7.2-3.3H281.2z"/>
	<path class="st0" d="M354.9,282.7V369h-9.7v-39.9H326V369h-9.5v-86.3h9.5v37.2h19.2v-37.2H354.9z"/>
	<path class="st0" d="M384.6,369.9c-7,0-12.4-3.2-16-9.7c-3.7-6.5-5.5-18.1-5.5-34.8c0-11.4,0.9-20.4,2.8-26.9
		c1.8-6.5,4.2-10.9,7.2-13.2c2.9-2.3,6.8-3.4,11.6-3.4c5,0,9,1.2,11.9,3.5c2.9,2.3,5.3,6.7,7,13.2c1.7,6.5,2.6,15.4,2.6,26.8
		c0,8.8-0.5,16.2-1.5,22.2c-1,6-2.5,10.6-4.5,13.7c-2,3.2-4.2,5.4-6.7,6.7C391,369.2,388,369.9,384.6,369.9z M384.6,360.7
		c2.7,0,4.8-0.8,6.3-2.4c1.6-1.6,2.8-5,3.8-10.4c1-5.4,1.5-12.9,1.5-22.6c0-13.5-0.9-22.7-2.8-27.3c-1.9-4.7-4.8-7-8.9-7
		c-4,0-7,2.4-8.9,7.1c-1.9,4.7-2.8,13.8-2.8,27.3c0,9.7,0.5,17.2,1.6,22.6c1.1,5.4,2.4,8.8,3.9,10.4
		C380,359.9,382,360.7,384.6,360.7z"/>
	<path class="st0" d="M447.7,358.5v8.8c-3.1,1.7-6.7,2.5-10.9,2.5c-8.5,0-14.6-3.3-18.5-9.8c-3.9-6.5-5.8-18.2-5.8-34.9
		c0-16.2,1.8-27.5,5.5-33.9c3.7-6.3,9.6-9.5,17.9-9.5c5,0,8.7,0.7,11.2,2v9.1c-2.7-1.4-5.9-2-9.7-2c-5.2,0-9,2.3-11.4,6.9
		c-2.4,4.6-3.6,13.3-3.6,26.3c0,9.9,0.7,17.7,2,23.2c1.3,5.5,3.1,9.1,5.3,10.8c2.2,1.7,5,2.5,8.6,2.5
		C441.9,360.7,445.1,360,447.7,358.5z"/>
	<path class="st0" d="M476,291.8V369h-9.5v-77.2h-14.4v-9.1h38.3v9.1H476z"/>
	<path class="st0" d="M507,256.1c0,4.7-2,7.1-6,7.1c-3.9,0-5.8-2.4-5.8-7.1c0-4.7,1.9-7.1,5.8-7.1C505,249,507,251.4,507,256.1z
		 M505.9,282.7V369h-9.5v-86.3H505.9z"/>
</g>
</svg>
