<?xml version="1.0" encoding="utf-8"?>
<!-- Generator: Adobe Illustrator 26.5.0, SVG Export Plug-In . SVG Version: 6.00 Build 0)  -->
<svg version="1.1" id="Шар_1" xmlns="http://www.w3.org/2000/svg" xmlns:xlink="http://www.w3.org/1999/xlink" x="0px" y="0px"
	 viewBox="0 0 640 640" style="enable-background:new 0 0 640 640;" xml:space="preserve">
<style type="text/css">
	.st0{fill:#FFFFFF;}
	.st1{fill:#238B00;}
	.st2{fill:#E46228;}
	.st3{fill:none;stroke:#FFFFFF;stroke-miterlimit:10;}
	.st4{fill:none;stroke:#FFFFFF;stroke-width:0.25;stroke-miterlimit:10;}
	.st5{fill:none;stroke:#E46228;stroke-miterlimit:10;}
	.st6{fill:#E46228;stroke:#E46228;stroke-miterlimit:10;}
	.st7{fill:#FEFEFE;}
	.st8{fill:#FCFCFC;}
	.st9{fill:#3B3B3B;}
	.st10{fill:#228000;}
	.st11{fill:#020202;}
	.st12{fill:#010101;}
	.st13{fill:#0F0F0F;}
	.st14{fill:#FEFEFD;}
	.st15{fill:#E0ECDB;}
	.st16{fill:#FDFDFC;}
	.st17{fill:#DF6232;}
	.st18{fill:#E06331;}
	.st19{fill-rule:evenodd;clip-rule:evenodd;fill:#238035;}
	.st20{fill-rule:evenodd;clip-rule:evenodd;fill:#E46228;}
	.st21{fill:#238035;}
	.st22{fill:none;stroke:#E46228;stroke-width:12;stroke-miterlimit:10;}
	.st23{fill:#E77440;}
	.st24{fill:#8E24AA;}
</style>
<g>
	<g>
		<g>
			<polygon class="st1" points="535.1,444.2 535.1,195.8 320,71.7 104.9,195.8 104.9,444.2 320,568.4 			"/>
			<path class="st0" d="M320,574.5L99.7,447.2V192.8L320,65.6l220.4,127.2v254.4L320,574.5z M110.2,441.2L320,562.3l209.8-121.1
				V198.9L320,77.8L110.2,198.9V441.2z"/>
		</g>
	</g>
	<g>
		<path class="st0" d="M172,309.5h-21.1v-50.1h21.7c10.7,0,16,4.2,16,12.7c0,6.1-3.3,9.8-9.8,11.2v0.1c3.5,0.2,6.3,1.3,8.2,3.5
			c1.9,2.1,2.9,4.7,2.9,7.7c0,4.5-1.4,8.1-4.2,10.8C183,308.2,178.4,309.5,172,309.5z M162.7,269.1V280h5.7c3.1,0,5.3-0.5,6.6-1.4
			c1.3-0.9,2-2.3,2-4.3c0-2-0.6-3.4-1.7-4.1c-1.1-0.8-3.1-1.1-5.8-1.1H162.7z M162.7,288.2V300h6.4c3.1,0,5.3-0.4,6.6-1.2
			c1.3-0.8,2-2.3,2-4.5c0-2.2-0.7-3.8-2.1-4.7c-1.4-0.9-3.6-1.3-6.8-1.3H162.7z"/>
		<path class="st0" d="M239.4,259.5v50.1h-11.8v-39.5h-12.9c0,4.1-0.1,7.5-0.2,10.2c-0.1,2.7-0.3,5.6-0.6,8.7
			c-0.3,3.1-0.7,5.6-1.1,7.5c-0.5,1.9-1.1,3.9-1.9,5.8c-0.8,1.9-1.8,3.4-2.9,4.5c-1.1,1-2.5,1.9-4.2,2.5c-1.6,0.6-3.5,1-5.7,1
			c-1.3,0-2.5-0.2-3.4-0.5v-11c0.7,0.1,1.2,0.2,1.7,0.2c1.4,0,2.5-0.4,3.3-1.2c0.8-0.8,1.5-2.3,2.1-4.7c0.5-2.3,0.9-5.3,1.1-9
			c0.2-3.6,0.4-8.6,0.5-14.8l0.1-9.8H239.4z"/>
		<path class="st0" d="M281.1,309.5l-3.2-10.4h-18.7l-3.2,10.4h-11.7l16.6-50.1h15.9l16.4,50.1H281.1z M268.6,268.5l-6.2,20.4h12.4
			L268.6,268.5z"/>
		<path class="st0" d="M333.5,297.2v11c-3.2,1.5-7.5,2.2-13,2.2c-17,0-25.5-8.4-25.5-25.3c0-17.7,8.8-26.6,26.5-26.6
			c3.6,0,7.6,0.6,12,1.9v10.9c-3.4-1.2-6.8-1.9-10.2-1.9c-5.4,0-9.4,1.2-11.9,3.5c-2.5,2.3-3.8,6.2-3.8,11.6c0,5.2,1.3,8.9,3.9,11.4
			c2.6,2.4,6.5,3.6,11.9,3.6C326.7,299.5,330.1,298.8,333.5,297.2z"/>
		<path class="st0" d="M384.2,259.5v50.1h-11.8v-20.4h-19.6v20.4H341v-50.1h11.8v19.2h19.6v-19.2H384.2z"/>
		<path class="st0" d="M436.7,259.5v50.1h-11.8V276l-19.2,33.6h-12.5v-50.1H405v33.5l19.2-33.5H436.7z"/>
		<path class="st0" d="M489.1,259.5v50.1h-11.8V276l-19.2,33.6h-12.5v-50.1h11.8v33.5l19.2-33.5H489.1z M473.2,243.7l9.2,0.9
			c-0.2,3.8-1.7,6.6-4.4,8.4c-2.7,1.9-6.3,2.8-10.7,2.8c-4.4,0-8-0.9-10.8-2.8c-2.8-1.9-4.3-4.7-4.5-8.4l9.2-0.9
			c0.4,1.7,1.1,2.9,2,3.5c1,0.7,2.3,1,4,1C470.7,248.3,472.6,246.8,473.2,243.7z"/>
		<path class="st0" d="M197,345.3v50.1h-11.8v-50.1H197z"/>
		<path class="st0" d="M262.4,345.3v50.1h-11.4v-37l-11.2,37h-11.1l-11.2-36.7v36.7H206v-50.1h17.7l10.7,36.4l10.7-36.4H262.4z"/>
		<path class="st0" d="M312.9,345.3v50.1h-11.8v-39.5h-18v39.5h-11.8v-50.1H312.9z"/>
		<path class="st0" d="M345,396.3c-8,0-14.1-2.2-18.4-6.7c-4.2-4.4-6.4-10.9-6.4-19.3c0-8.3,2.1-14.8,6.4-19.2
			c4.3-4.5,10.3-6.7,18-6.7c8.3,0,14.5,2.3,18.6,6.8c4.1,4.5,6.2,10.9,6.2,19.2c0,8.7-2.1,15.2-6.4,19.5
			C358.8,394.2,352.8,396.3,345,396.3z M345.3,385.9c7.8,0,11.7-5.2,11.7-15.6c0-5.3-1-9.3-3-11.8c-2-2.6-5.1-3.8-9.3-3.8
			c-7.9,0-11.9,5.2-11.9,15.7C332.8,380.7,336.9,385.9,345.3,385.9z"/>
		<path class="st0" d="M388.6,380.4v15h-11.8v-50.1h18.3c13.2,0,19.7,5.7,19.7,17c0,12.1-6.9,18.1-20.7,18.1H388.6z M388.3,355.6
			v14.5h5.8c3,0,5.2-0.6,6.5-1.8c1.4-1.2,2-3,2-5.5c0-2.6-0.7-4.5-2-5.6c-1.3-1.1-3.6-1.6-6.7-1.6H388.3z"/>
		<path class="st0" d="M444.1,356.2v39.2h-11.8v-39.2h-14.1v-10.9h39.9v10.9H444.1z"/>
	</g>
</g>
</svg>
