<?xml version="1.0" encoding="utf-8"?>
<!-- Generator: Adobe Illustrator 26.5.0, SVG Export Plug-In . SVG Version: 6.00 Build 0)  -->
<svg version="1.1" id="Шар_1" xmlns="http://www.w3.org/2000/svg" xmlns:xlink="http://www.w3.org/1999/xlink" x="0px" y="0px"
	 viewBox="0 0 640 640" style="enable-background:new 0 0 640 640;" xml:space="preserve">
<style type="text/css">
	.st0{fill:#FFFFFF;}
	.st1{fill:#238B00;}
	.st2{fill:#E46228;}
	.st3{fill:none;stroke:#FFFFFF;stroke-miterlimit:10;}
	.st4{fill:none;stroke:#FFFFFF;stroke-width:0.25;stroke-miterlimit:10;}
	.st5{fill:none;stroke:#E46228;stroke-miterlimit:10;}
	.st6{fill:#E46228;stroke:#E46228;stroke-miterlimit:10;}
	.st7{fill:#FEFEFE;}
	.st8{fill:#FCFCFC;}
	.st9{fill:#3B3B3B;}
	.st10{fill:#228000;}
	.st11{fill:#020202;}
	.st12{fill:#010101;}
	.st13{fill:#0F0F0F;}
	.st14{fill:#FEFEFD;}
	.st15{fill:#E0ECDB;}
	.st16{fill:#FDFDFC;}
	.st17{fill:#DF6232;}
	.st18{fill:#E06331;}
	.st19{fill-rule:evenodd;clip-rule:evenodd;fill:#238035;}
	.st20{fill-rule:evenodd;clip-rule:evenodd;fill:#E46228;}
	.st21{fill:#238035;}
	.st22{fill:none;stroke:#E46228;stroke-width:12;stroke-miterlimit:10;}
	.st23{fill:#E77440;}
	.st24{fill:#8E24AA;}
	.st25{fill:#594543;}
	.st26{font-family:'Fact-Bold';}
	.st27{font-size:28.7496px;}
</style>
<g>
	<path class="st24" d="M342,386.9c-0.8,0.1-1.7,0.1-2.7,0.1C340.3,387,341.2,386.9,342,386.9z M337.2,253c1.5,0,2.9,0.1,4.2,0.1
		C340.2,253.1,338.8,253,337.2,253z"/>
	<path class="st24" d="M426.9,278.3c0-12-10.6-20.2-22-17.2c-1.5,0.4-3.3,1.3-5.7,2.6c-11.5,6.8-22,12.9-31.5,18.4c0,0,0,0-0.1,0
		c-0.2,0.1-0.3,0.1-0.3-0.2c0.2-8.4-2.5-15.3-8-20.9c-4.1-4-8.8-6.6-14.2-7.5c-0.6-0.1-1.3-0.2-2.1-0.3c-0.2,0-0.5,0-0.7-0.1
		c-0.3,0-0.6,0-0.9-0.1c0,0,0,0-0.1,0c-1.3-0.1-2.7-0.1-4.2-0.1c-0.6,0-1.2,0-1.8,0c-24.5,0-47.7,0.1-69.6,0c-5.4,0-10.7,0-15.9,0
		h-1.4c-1.5,0-3,0-4.5,0c-3.9,0-6.9,0.2-9,0.7c-12.8,3-21.4,13.9-21.4,27.1c0,25.4,0,51.3,0,77.7c0,2.8,0.2,5.2,0.7,7.2
		c2.9,12.7,14,21.3,26.9,21.3c22.7,0,45.3,0,67.9,0c9.3,0,18.5,0,27.8,0c0.4,0,0.9,0,1.3,0c0.4,0,0.8,0,1.1,0c0.9,0,1.8-0.1,2.7-0.1
		c0,0,0.1,0,0.2,0c0.2,0,0.5,0,0.7-0.1c1.2-0.1,2.2-0.3,3-0.4c5.3-1.1,9.9-3.7,13.8-7.7c5.4-5.5,7.9-12.6,7.7-20.5
		c0-0.2,0.1-0.3,0.3-0.2c0,0,0,0,0,0c10.4,6,20.8,12.1,31.3,18.3c2.5,1.5,4.6,2.4,6.2,2.8c11.4,2.8,21.7-5.6,21.7-17.4
		C426.9,333.2,426.9,305.4,426.9,278.3z M412,362.2c0,2.3-2.3,3.1-4,2c-13.5-7.9-26.9-15.8-40.3-23.5c0,0-0.1,0-0.1,0
		c-0.1,0-0.1-0.1-0.1-0.2v-40.8c0-0.1,0.1-0.3,0.2-0.3c0,0,0,0,0,0c13.4-7.8,26.9-15.7,40.5-23.7c1.7-1,3.8,0.1,3.8,2.1
		C412,306,412,334.2,412,362.2z"/>
	<path class="st24" d="M243.5,253c1.7,0,3.3,0,5,0c-1.5,0-3,0-4.5,0c-3.9,0-6.9,0.2-9,0.7c-12.8,3-21.4,13.9-21.4,27.1
		c0,25.4,0,51.3,0,77.7c0,2.8,0.2,5.2,0.7,7.2c2.9,12.7,14,21.3,26.9,21.3h-0.4c-13,0-24.1-8.6-27-21.3c-0.5-2-0.7-4.4-0.7-7.2
		c0-26.4,0-52.3,0-77.7c0-13.2,8.6-24.1,21.4-27.1C236.6,253.2,239.6,253,243.5,253z"/>
	<path class="st24" d="M249.9,320c5.2,0,10.5,0,15.9,0C260.4,320,255.2,320,249.9,320z"/>
	<path class="st24" d="M337,320c0.4,0,0.9,0,1.3,0c-0.6,0-1.1,0-1.7,0c-9.1,0-18.2,0-27.3,0C318.4,320,327.7,320,337,320z"/>
	<path class="st24" d="M367.7,305.8c0.2,8-2.3,15-7.7,20.5c-3.9,4-8.5,6.6-13.8,7.7c-0.9,0.2-2,0.3-3.3,0.4c1.2-0.1,2.2-0.3,3-0.4
		c5.3-1.1,9.9-3.7,13.8-7.7c5.4-5.5,7.9-12.6,7.7-20.5c0-0.2,0.1-0.3,0.3-0.2c0,0,0,0,0,0V305.8z"/>
	<path class="st24" d="M367.7,299.3C367.7,299.3,367.7,299.3,367.7,299.3c0,12.4,0,29,0,41.4c0,0-0.1,0-0.1,0
		c-0.1,0-0.1-0.1-0.1-0.2v-40.8C367.5,299.5,367.5,299.4,367.7,299.3z"/>
	<path class="st24" d="M367.7,334.3v0.1c0,0,0,0-0.1,0c-0.2,0.1-0.3,0.1-0.3-0.2c0.2-8.4-2.5-15.3-8-20.9c-4.1-4-8.8-6.6-14.2-7.5
		c-0.6-0.1-1.3-0.2-2.1-0.3c1,0.1,1.8,0.2,2.4,0.3c5.4,1,10.2,3.5,14.2,7.5C365.2,318.9,367.9,325.9,367.7,334.3z"/>
	<g>
		<path class="st0" d="M285.7,265.8h8.1c1.1,0.1,2.1,0.2,3.2,0.2c4.7,0.3,9.2,1,13.7,2c4.7,1.1,9.2,2.6,13.3,5
			c3.8,2.1,6.8,5.2,9.2,9c2.4,4,4,8.6,4.9,13.1c0.9,4,1.4,8.3,1.6,12.9c0.3,6.9-0.1,14-1.1,21.5c-1.4,10.8-6.3,20.5-16.2,25.7
			c-1.9,1-4.1,1.9-6.7,2.6c-3.2,0.9-6.1,1.6-8.8,2.1c-8.3,1.4-16.7,1.8-25,1c-0.1,0-0.1,0-0.2,0.1c-2.1,2.6-4.2,5.1-6.3,7.5
			c-1,1.2-2,2.3-3.1,3.4c-1,1-2.1,1.9-3.5,2.3h-1.1c-1.1-0.2-1.8-0.7-2.3-1.4c-0.7-1-1-2.4-1-4c0-3.3,0-7,0-10.9
			c0-0.1,0-0.1-0.1-0.2c-8.9-2.6-15.3-7.9-19.2-16c-2.8-5.7-4.1-12.3-4.5-18.7c-0.4-5.6-0.4-11.7,0-18.1c0.2-4,0.8-7.8,1.7-11.5
			c1.6-6.8,5-14.2,10.8-18.5c5.1-3.7,11.2-5.9,17.5-7.3C275.5,266.6,280.6,266,285.7,265.8z M267.3,350.8c0,5.6-0.1,11.6-0.1,18.1
			c0,0.4,0.1,0.8,0.2,1.2c0.3,1.1,1.4,0.7,2,0.1c1.3-1.3,2.5-2.8,3.8-4.3c3.5-4.2,6.9-8.3,10.2-12.5c0,0,0.1-0.1,0.2-0.1
			c7.5,0.5,14.9,0,22.3-1.3c1.3-0.3,2.7-0.6,4.2-0.9c2.1-0.5,3.6-0.9,4.4-1.2c10.7-3.3,15.8-12.5,17-23.1c1-8.5,1.2-17.7,0-26
			c-0.7-4.7-1.9-9.5-4.2-13.7c-2.1-3.9-5.2-6.8-9.3-8.6c-4.5-2-9.5-3.3-14.4-4.1c-7.5-1.2-15-1.4-22.5-0.7c-5,0.5-9.5,1.4-13.6,2.8
			c-4.5,1.5-9.2,3.9-12.1,7.6c-5.3,6.6-6.9,15.3-7.3,23.7c-0.1,3.7-0.2,7.1-0.2,10.3c0.1,11.2,2.4,23.3,12.7,29.6
			c2,1.3,4.3,2.2,6.7,2.9C267.2,350.7,267.3,350.8,267.3,350.8z"/>
		<path class="st0" d="M310,299.2c-4.4-7.3-12-11.1-20.5-11.2c-0.5,0-0.8-0.1-1.1-0.3c-0.7-0.5-0.6-1.7,0-2.2
			c0.3-0.2,0.6-0.3,1.1-0.3c2.9,0.1,5.5,0.5,7.8,1.2c7.1,2.1,12.3,6.5,15.7,13c2.4,4.6,3.4,9.7,3.5,15.2c0.1,2-2.6,2.1-2.7,0
			C314,309.1,312.8,303.7,310,299.2z"/>
		<path class="st0" d="M277.8,307.1c-1,0.8-1.4,2.4-1,3.6c1.2,3.5,2.9,6.6,5.1,9.3c3,3.7,6.8,6.3,11.3,7.8c0.6,0.2,1.2,0.2,1.7,0.1
			c0.8-0.2,1.5-0.5,1.9-1.1c0.6-0.8,1.2-1.6,1.9-2.4c1.3-1.7,3.7-2,5.6-0.9c3.1,1.8,6,3.9,8.6,6.2c0.9,0.8,1.5,1.5,1.8,2
			c0.8,1.6,0.1,3.3-0.8,4.7c-1.8,2.9-4.8,6.3-8.4,6.3c-0.7,0-1.5-0.2-2.6-0.6c-2.1-0.8-4.3-1.8-6.8-3.1c-4.5-2.4-8.5-4.9-11.9-7.5
			c-8.9-6.8-15.1-16.1-19.4-26.5c-0.6-1.5-1.3-3-2-4.5c-0.4-0.8-0.5-1.5-0.6-2.1c-0.3-4.1,3.7-7.7,6.9-9.6c1.7-1,3.6-0.9,5,0.7
			c2.7,3.2,5,6.5,6.9,10.1c0.9,1.8,0.6,4.1-1,5.5C279.3,305.8,278.6,306.5,277.8,307.1z"/>
		<path class="st0" d="M298.9,294c4.9,2.2,8.2,5.8,9.9,11c0.6,1.8,0.9,4,0.9,6.6c0,1-0.6,1.8-1.7,1.5c-0.8-0.2-1-0.9-1-1.6
			c0.1-5.5-2.1-10.7-6.8-13.7c-2.4-1.6-5.2-2.5-8.5-2.7c-0.4,0-0.7-0.1-0.9-0.3c-0.8-0.5-0.8-1.9,0.1-2.4c0.3-0.1,0.6-0.2,1.1-0.1
			C294.7,292.6,297,293.2,298.9,294z"/>
		<path class="st0" d="M293.8,299.7c3.5,0.3,6.5,1.7,8,5c0.7,1.6,1.1,3.3,1.1,5c0,0.7-0.4,1.1-1.1,1.3c-1,0.1-1.5-0.6-1.5-1.5
			c-0.2-3.4-1.6-6-5-6.8c-0.4-0.1-0.9-0.1-1.3-0.2c-0.9,0-1.6-0.4-1.6-1.5C292.4,300.1,293,299.6,293.8,299.7z"/>
	</g>
</g>
<g>
	<polygon class="st22" points="518.6,434.6 518.6,205.4 320,90.8 121.5,205.4 121.5,434.6 320,549.3 	"/>
</g>
<text transform="matrix(1 0 0 1 244.3385 183.7986)"><tspan x="0" y="0" class="st25 st26 st27">КУПЛЯЙТЕ</tspan><tspan x="-31.9" y="29.9" class="st25 st26 st27">ТА ОГЛЯДАЙТЕ</tspan></text>
<text transform="matrix(1 0 0 1 188.9674 447.075)" class="st25 st26 st27">ПО ВIДЕОДЗВIНКУ</text>
<g>
	<g>
		<g>
			<g>
				<path class="st23" d="M468.9,232.8c0.2,0,0.3,0,0.3,0C468.5,232.8,468.9,232.8,468.9,232.8z"/>
				<polygon class="st23" points="461.6,232.7 461.8,232.6 460.7,232.7 				"/>
				<path class="st23" d="M454.8,232.5c0.6,0.2,2.5,0,3.7,0.1l0.2,0l0.5-0.1C457.8,232.5,455.9,232.6,454.8,232.5z"/>
				<path class="st23" d="M451.2,232c0.2,0.1-0.8,0,0.8,0.1c-0.1,0-0.1,0-0.2,0C451.8,232,451.6,232,451.2,232z"/>
				<path class="st23" d="M451.9,232.1C452.6,232.1,451.4,232,451.9,232.1L451.9,232.1z"/>
				<path class="st23" d="M448.6,232l0.9,0c-0.2-0.1-1-0.1-0.7-0.1C447.9,231.8,448.1,231.9,448.6,232z"/>
				<path class="st23" d="M447.7,232.1l0.5,0C448.1,232.1,448,232.1,447.7,232.1z"/>
				<path class="st23" d="M449.2,232.1l-1,0c0.1,0,0.2,0.1,0.5,0C448.6,232.1,448.8,232.1,449.2,232.1z"/>
				<path class="st23" d="M449.8,232.1c0.5,0.1,1.2,0.1,0.3,0.2C451.9,232.3,451.6,232.1,449.8,232.1z"/>
				<path class="st23" d="M454.5,232.7l0.7,0.1l0.6,0C455.5,232.7,454.5,232.6,454.5,232.7z"/>
				<path class="st23" d="M442.7,231.6c-0.1,0.1,0.3,0.2,0.4,0.2l0.7,0C443.4,231.8,442.8,231.7,442.7,231.6z"/>
				<path class="st23" d="M443.1,231.9l-1,0.1C443,232,443.2,231.9,443.1,231.9z"/>
				<polygon class="st23" points="447.5,232.4 449.3,232.2 447.2,232.4 				"/>
				<polygon class="st23" points="438.7,231.5 439.3,231.4 438.3,231.5 				"/>
				<path class="st23" d="M436.1,231.4c0.4-0.1-0.6-0.2-0.1-0.3c-0.7,0-1.3,0.1-1.9,0.2C434.7,231.2,435.3,231.3,436.1,231.4z"/>
				<path class="st23" d="M433.2,231.4c0.3,0,0.6-0.1,0.9-0.1C433.8,231.3,433.5,231.3,433.2,231.4z"/>
				<path class="st23" d="M440.3,231.9c-0.1,0-0.2-0.1-0.8-0.2l0.4,0.2C440,231.9,440.1,231.9,440.3,231.9z"/>
				<path class="st23" d="M439.9,231.9L439.9,231.9c-0.5,0-0.8,0-0.9,0C439.1,231.8,439.4,231.8,439.9,231.9z"/>
				<path class="st23" d="M440.4,231.9c0,0-0.1,0-0.1,0C440.3,231.9,440.4,231.9,440.4,231.9z"/>
				<path class="st23" d="M444.8,232.2c-0.6,0.1-1.9,0.1-0.7,0.3C444.6,232.4,443.9,232.3,444.8,232.2z"/>
				<path class="st23" d="M440.9,232.1l1.1,0.1c0,0-0.2-0.1,0.1-0.1L440.9,232.1z"/>
				<polygon class="st23" points="440.4,232.1 440.9,232.1 440.5,232.1 				"/>
				<path class="st23" d="M435,231.7c-0.5,0.1-1,0.1-1.6,0.1c0.6,0.1,1.3,0.1,1.9,0.1C435.5,231.8,435.7,231.7,435,231.7z"/>
				<path class="st23" d="M437.4,231.8c0,0-0.1,0-0.1,0C437.4,231.8,437.4,231.8,437.4,231.8z"/>
				<polygon class="st23" points="427.6,231.6 427.7,231.6 427.7,231.6 				"/>
				<path class="st23" d="M435.5,231.9c0.5,0,0.8,0,1,0c-0.4,0-0.7,0-1.1,0C435.3,231.9,435.3,231.9,435.5,231.9z"/>
				<path class="st23" d="M431.5,231.5c0.2,0.1,0.5,0.1,0.8,0.1C432.1,231.5,431.6,231.4,431.5,231.5z"/>
				<path class="st23" d="M437.1,231.7L437.1,231.7C437.1,231.7,437.1,231.7,437.1,231.7z"/>
				<path class="st23" d="M437.1,231.7c-0.2,0-0.4,0.1-0.6,0.1c0.3,0,0.6,0,0.8,0C437.2,231.8,437.2,231.7,437.1,231.7z"/>
				<path class="st23" d="M425.9,233.1c0.1-0.2,1.3-0.4,2.4-0.2c1.1-0.2,0.4-0.8-0.6-1.2c0,0.1,0,0.2-1.1,0.3
					c0.4,0.1,2.4,0.3,1.5,0.5c-1.5,0.1-1.2-0.1-1.9-0.2c0.6,0.3-1.8,0.4-1.5,0.8l1.3-0.1C426,232.9,425.5,233,425.9,233.1z"/>
				<path class="st23" d="M429.8,231.7l0.5,0c-0.5,0-0.9-0.1-1.6-0.3c-0.7,0.1-0.9,0.2-1,0.2l2.2,0.1L429.8,231.7z"/>
				<path class="st23" d="M432.3,231.7c-0.4,0.2-1.4,0.3-0.8,0.5c1.3,0,0.9-0.2,1.7-0.2C431.1,232,433.8,231.9,432.3,231.7
					c0.4,0,0.8,0,1.2,0c-0.4,0-0.8-0.1-1.1-0.1c0,0,0,0,0,0l0,0l0,0c0.1,0,0.1,0,0,0C432.4,231.6,432.4,231.6,432.3,231.7
					C432.4,231.7,432.3,231.7,432.3,231.7C431.7,231.7,432.2,231.7,432.3,231.7c0.1-0.1,0.1-0.1,0.1-0.1l0,0l-2.1,0.1
					C430.7,231.7,431.3,231.7,432.3,231.7z"/>
				<path class="st23" d="M443,232.8C442.9,232.8,442.9,232.8,443,232.8C442.8,232.8,442.8,232.8,443,232.8z"/>
				<path class="st23" d="M442.1,232.7c0.2,0,0.3-0.1,0.8-0.1c0.4,0.1,0,0.1,0,0.1c0.3,0,1.1-0.1,0.1-0.2l-0.2,0
					c-0.9-0.1-2-0.3-1.8-0.3C441.3,232.4,441.6,232.5,442.1,232.7z"/>
				<path class="st23" d="M437.1,232.3l-1.8,0.1l0.9,0.2l0-0.1C437.2,232.5,437,232.4,437.1,232.3z"/>
				<polygon class="st23" points="427.4,231.5 427.7,231.2 426.6,231.5 				"/>
				<polygon class="st23" points="425.1,231.4 425.2,231.2 424.6,231.3 				"/>
				<path class="st23" d="M294.6,235.2l-0.5,0.1C294.3,235.2,294.5,235.2,294.6,235.2z"/>
				<path class="st23" d="M298.4,235.2l0.1-0.2C298.3,235.1,298.3,235.2,298.4,235.2z"/>
				<path class="st23" d="M368.3,230.6c-0.8-0.3-1.6-0.9-1.5-0.5l0.2,0.4C367.6,230.4,368,230.5,368.3,230.6z"/>
				<path class="st23" d="M329.4,232.9c0.1,0,0.1,0.1,0.2,0.1c0.2-0.1,0.4-0.3,0.5-0.4C329.9,232.8,329.7,232.8,329.4,232.9z"/>
				<path class="st23" d="M328.9,234.7l-1-0.3C328.1,234.6,328.4,234.7,328.9,234.7z"/>
				<path class="st23" d="M273.9,235.5l-0.6,0.4C274.3,235.9,273.9,235.7,273.9,235.5z"/>
				<path class="st23" d="M401.4,231.1c-0.7-0.1-1.2-0.2-1.6-0.2C400.6,231.1,401.2,231.3,401.4,231.1z"/>
				<path class="st23" d="M296.1,230.7c-0.3,0.1-0.5,0.2-0.4,0.3C296,230.9,296.2,230.8,296.1,230.7z"/>
				<path class="st23" d="M397.9,230.8c0.1,0,0.2,0.1,0.3,0.1c0.5,0,1-0.1,1.6-0.1C399.2,230.7,398.5,230.6,397.9,230.8z"/>
				<path class="st23" d="M199,233.8c-0.1,0-0.1,0-0.2,0C198.8,233.8,198.9,233.8,199,233.8z"/>
				<path class="st23" d="M177.1,232.6c0.2,0,0.6,0,0.9,0C177.9,232.6,177.6,232.6,177.1,232.6z"/>
				<path class="st23" d="M415.8,231.1C416.3,231.1,415.9,231.1,415.8,231.1L415.8,231.1z"/>
				<path class="st23" d="M418.2,232.2c-0.1,0-0.2,0.1-0.2,0.1C418,232.3,418.1,232.2,418.2,232.2z"/>
				<path class="st23" d="M393,232.9C393,232.9,393,232.9,393,232.9C393.1,233,393.1,233,393,232.9z"/>
				<path class="st23" d="M416.6,231.3c-0.2,0-0.4-0.1-0.6-0.1C416,231.2,416.2,231.2,416.6,231.3z"/>
				<path class="st23" d="M416.5,231.1c0.2,0,0.3,0,0.4,0C416.9,231.1,416.9,231.1,416.5,231.1z"/>
				<path class="st23" d="M415.1,231.1c0.3,0,0.5,0,0.8,0c-0.1,0-0.1,0-0.1,0C415.7,231.1,415.5,231.1,415.1,231.1z"/>
				<path class="st23" d="M239.1,233.8c0,0-0.1,0-0.1,0C238.5,233.9,238.8,233.9,239.1,233.8z"/>
				<path class="st23" d="M355.6,234.8C355.6,234.8,355.6,234.8,355.6,234.8C355.6,234.7,355.6,234.7,355.6,234.8L355.6,234.8z"/>
				<path class="st23" d="M353.8,235.1c0.8-0.5,1.2-0.5,1.7-0.4l-0.6-1.2L353.8,235.1z"/>
				<path class="st23" d="M285.6,235.2l1.2,0.4c-1.5,0.6-2.6,0.4-1.4,0.9c0.2-1.3,4.8-0.1,5-1.4l0.8,0.3c-0.2,0-0.3,0.1-0.5,0
					c1.6,0.6,1.2-0.9,3.2-0.8c0.7,0.1,1.2,0.3,0.7,0.5l1.6-0.3c0.5,0,0.3,0.3-0.1,0.2l2.4-0.1l0,0c0.3-0.2,1.1-0.5,1.5-0.7
					c0.6,0.2-0.3,0.1-0.2,0.3l1.3-0.3c0.5,0.3-0.6,0.7-1.5,0.6c1.3,1.3,1.1-0.3,3.8,0.5l-1.3,0.2c0.8,0.8,1.8,0.5,3.2,1
					c-0.3-0.3-2.9-1.2-1.4-1.5c0.4,0.1,0.9,0.2,1.7-0.1c0,0.5,0.8,0.4,1.7,0.3l-0.1,0.6c1-0.2,1-0.5,1.6-0.8c1.2,0.1,1.4,0.6,1.7,1
					c1.8,0.1-1.3-0.8,0.9-0.9c1.5,0.2,2.6,0,4.5-0.4c1.1,0.2-0.2,0.4,0.2,0.6l1-0.5c0.2,0,0.2,0.2,0.1,0.2c0.8-0.2,0.1-0.6,1.3-0.8
					c0.3-0.7,2.6,1,4.2,0.2c0.4,0.2-0.2,0.4-0.1,0.6c2.1-0.5,1.8-0.4,3.6-1.1l1.5,0.4c-1.1-0.5,0.3-1,1.5-1.5
					c-0.4-0.2-0.7-0.4-1-0.5l2-0.3c0.2,0.1,0,0.3-0.3,0.6c0.1-0.1,0.3-0.1,0.4-0.2c0.7,0.2,0.3,0.6-0.2,1c-0.2-0.1-0.5-0.3-0.7-0.4
					c-0.5,0.4-0.9,0.8-0.8,1.2c0.1-0.1,0.4-0.1,0.6-0.2c-0.1,0.1-0.2,0.2-0.1,0.3c0.1,0.1,0.3-0.1,0.6-0.2l0.4,0.7l0.1-0.3l2.6,0.4
					c1.8-0.7,3.4-1.8,6.4-2.1c-0.7,0.5-0.2,0.8-0.2,1.5c-0.8-0.6-2.3,0.3-3.8,0.2c0.8,0.1,0.6,0.4,0.4,0.5l2.7-0.6
					c-0.1,0.5,0.6,0.4,1.3,0.6c-0.5-1,2-0.7,3.1-1c0.1,0.3-0.2,0.7-1.5,0.6c1.5,0.7,1.9-1.2,3.4-0.5c-0.3,0-0.5,0-0.6,0.1
					c0.8-0.3,2.6-0.1,2.2,0.2l-0.3,0c2.2,0.1,6.6,0,7-0.8c0,0.1-0.3,1-0.4,1.2l3.9-2.7c-0.3,0.7,1,2.3-0.8,2.7
					c0.5,0.1,1.2,0.2,2.3,0c-0.4-0.1-0.9-1-0.4-1.1c1.3,0.8,0.9,0.4,2.6,1.1c-0.5-0.1,0.1-1.2,0.9-1.2c-0.1,0.2,0.1,1.1-0.2,1.2
					l2.1-1.1c-0.5,0.2-0.1,0.9,0.4,1.2c-0.2-0.2,1.8,0,2.4-0.1l-0.9-0.2c2.4,0.1,2.3-1.5,4.7-1.4c-0.3,0.2-0.7,1.3,0.5,1.4
					c0.5-0.5,2.4-2.5,4.5-2.9l0.4,0.3l1.6-0.3c-1,0.8-3.8,2.4-5.3,3c0.9,0.2,0.2,0.3,1.6,0.3c0.5,0.3-0.7,0.4-1.1,0.4l3.1,0.1
					c-0.1-0.6,2.4-0.6,2.2-1.1l-3.3,0.6c-0.1-0.6,1.9-1.7,4.1-1.6c0.6,0.2-0.4,1.1-0.4,1.2c0.3-0.2,2.1-0.4,2.3-0.3l-0.9,0.3
					c1.2,0.2,2-0.8,3.4-0.2c0.5,0,1.5,0.7,1.6,0.4c-0.8-0.6-1-2.7-0.4-3.2c0.2,0,2.6,0.6,3.2,1c0.8,0.5-1.2,1.2-0.5,1.6
					c0-0.2,0.5-0.3,0.7-0.4c0.5,0.1-0.2,0.5,0.9,0.4c0.2-0.6,2.3,0,0.5-0.5c1.1-0.2,1.2,0.1,2.5,0.1c-0.4-0.4,1.2-1.2,2.3-1.4
					c-0.1,0.1,0.2,0.3,0.3,0.4c2.3,0,3.5,0.3,5.7,0.3c0.2,0.1,1.2,0.3,0.8,0.5c0.3-0.1,0.6-0.3,1.3-0.3c1.3,0.4-1.5,0.1-0.5,0.6
					c0.1-0.3,1.7-0.4,2.7-0.6c-0.3-0.4-2.2-0.1-3.1,0.1c0-0.6,1.6-1.3,3.9-1.6c1.8-0.1,0.8,0.4,1.1,0.3c3.3,0.1,2.9-1,5.6-0.6
					c1.1,0.4,0,0.7,0.3,1c-1.5,0.1-2.2-0.2-3.2-0.2l1.2,0.2c-0.5,0.1-1.4,0.2-2,0.1c0.9,0.3,5.7,0.1,8.2,0.4
					c0.5-0.1,1.3-0.2,0.9-0.4l-0.8,0c-0.8-0.3,1.5-0.4,0.5-0.5c1.1-0.2,2.3-0.5,3.9-0.3l0.3,0.4c0-0.1-1-0.2-1.4-0.1
					c0.6-0.2,2.4,0.5,3.1,0l-1.1-0.3c1.1-0.2,2.5-0.5,3.8-0.4c-0.6-0.4-0.3,0-1.3-0.4c0.8,0.5-3.5-0.1-2.1,0.5c-1-0.5-1.7-0.2-3-0.7
					c0,0.1,0.5,0.3-0.7,0.2c-0.1,0-0.2,0.1-0.3,0.1c0,0,0,0-0.1,0c0,0,0,0,0.1,0c0,0-0.1,0,0,0c0.3,0.1,0.5,0.1,0.6,0.2
					c-0.6,0.3-2.4,0.2-3,0.4c-0.7-0.1,0.3-0.1-0.1-0.3l-0.9,0.2c-0.1-0.3-1.8-0.5-0.2-0.7l-1.4,0c-0.9-0.2-2-0.3-2.7-0.2
					c-0.7-0.1-1.7,0.3-1.1,0.1l-2.3,0.2l0-0.1c-2.2-0.1-4.6,0.5-7.2-0.2c-0.8,0.1-1.5,0.2-2.8,0.1l-0.2-0.3c-1,0.1-2.9-0.4-3.3,0
					c-1-0.9-4.7-0.3-6.4-0.4l-0.1,0.4c-1.2,0-2.3,0.1-3.7,0.2l0.1,0.4c-1.3,0.3-3.2-0.3-5.2-0.3c0.1-0.1,0.6-0.1,1,0
					c-2.4-0.9-5,0.6-7.1-0.1c-0.5,0.1-0.9,0.1-1.3,0c0,0,0.1,0,0.1,0c-0.1,0-0.1,0-0.2,0c-0.2-0.1-0.5-0.2-0.7-0.2
					c0.2,0.1,0.4,0.2,0.6,0.2c-0.4,0-1,0.1-1.7,0.1l-0.3-0.4c-0.1,0-0.1,0-0.1,0c-0.6-0.2-0.5,0.2-0.2,0.5c-0.3,0.1-0.6,0.2-0.8,0.3
					c-0.5-0.7-1.6,0.2-2.3-0.5c-0.4,0.4-3.1,0.3-3.4,1.1c0-0.1-0.2-0.2,0.1-0.2c-0.7-0.1-1.4-0.2-2,0l-0.3-0.6l-1.5,0.8
					c-0.9-0.4-1.3-0.6-0.4-1c-2.2,0.7-1.8,0.3-3.6,0.9l0.1-0.4c-0.7,0-1.7,0.5-2.1,0.2c-1.5-0.7-7.3-0.1-11.1-0.8
					c0.7,1.2-1.8-0.5-1.9,0.4c-0.2-0.3-0.7-0.4-0.1-0.7c-1.9,0.3-2.9-0.4-4.2,0.3c-0.2-0.3,0.4-0.4,0.2-0.6
					c-0.2,0.1-0.6,0.2-0.8,0.1c-0.2-0.2,0.3-0.2,0.6-0.3c-2,0-2.2,0.9-2.3,1.7c-1-0.4-1.5-0.3-2.2,0.2c-0.3-0.3-0.9-0.5,0.3-0.6
					c-0.7,0-4.2-0.4-4.3,0.3c-0.2-0.2-1,0-1.1,0c-1.6,0-1.7-0.1-3.2,0l0.4,0.1c-0.6,0.8-1.3,0.2-2.5,0.3l0-0.1
					c-2.8-0.6-1.2,0.3-4-0.4l0.2,0.5c-0.3,1-2.5-0.6-4.1-0.2l0.6,0.3c-0.9,0.4-2.5-1.4-3.3-1.5c-0.2-0.1,0.3-0.1,0.6-0.2
					c-2.3-0.6-0.3,0.6-2,0.8c-0.3-0.3,0.4-0.9-0.8-0.9c-0.6-0.3-3.4,1.1-5,0.5c0.3,0.3,0.7,0.5-0.1,0.7c-1.2,0.1-3.3-1-4.4-0.1
					c-0.2-0.1-0.2-0.1-0.2-0.2c-0.9,0.2-3.1,0.4-3.6,0.8c-0.9-1.6-5.8,0.8-5.8-0.7l-2.9,0.1l0.1-0.1c-1.8-0.1-2.5,0.3-3.1,0.6
					c-0.4-0.1-0.1-0.2-0.1-0.3c-2.7-0.3-3-0.2-5.2,0.5l-0.2-0.5c-0.6,0.3-3.9-0.7-6.5-0.1c0-0.1,0.1-0.1,0.3-0.2
					c-3,0.5-7.1-1.1-8.2,0.4l-2,0.4c2.5,0.1-0.4,0.7,0.7,0.9c-1,0.1-2.6-0.5-1.4-0.5l0.2,0.1c0.5-0.8-3.2-0.3-3.1-0.8
					c-5,0.1-9.9-0.3-14.6-0.2l0.5,0.5l-1.6,0c-0.4-0.1-0.6-0.4,0.6-0.4c-0.6-0.3-2,0.3-2,0.4c-2.3-0.2,0.9-0.6,0.2-0.6l-1,0.1
					l0.2,0.1c-0.8,0.2-0.8,0.5-2.2,0.4c-0.9-0.1-0.5-0.3-0.8-0.3c0,0-0.1-0.1-0.5,0l-2.1,0l0.8,0.4c-0.9,0.2-1.9,0-1,0.4
					c-1.4-0.7-7.7-0.2-8.5-0.4c-1.3,0.3-2.5,0.3-4.1,0.3c0.4,0.1,0.6,0.5-0.7,0.4c0.5-0.8-2.5-0.3-3.6-0.8c1,0.3-3.8,0.2-2.3,0.6
					c-1.1,0-0.1-0.3-0.9-0.4c-2.7,0.3-5.9-0.1-9.2,0.1c-0.1,0.1,0.5,0.2-0.2,0.3l-1.7-0.3c-0.7,0.1-0.6,0.4-1.8,0.2
					c0.2,0.1,0.4,0.1,0,0.2c-3.2-0.1-6.5,0-9.9,0.1c-3.3,0.1-6.7,0.1-9.9,0.1c0.9,0,0.3,0-0.4,0.1c0.4,0,0,0.1,0.1,0.1l-2.8,0
					c-0.5,0.1-3,0.1-3.2,0.1l0.9,0c-1.2,0,1.6,0.1,1.5,0.1c1.3-0.1,3.4,0.2,5.6,0.1c0.5,0-0.4,0-0.1,0.1c0.5,0,1.2-0.1,2.4,0l-0.1,0
					c3.4,0.1,4.9,0.2,8.7,0.4l-0.3-0.1c0.8,0,1,0.1,1.4,0.1c0.9-0.2-2.3-0.1-1.4-0.3c1.1,0.3,5.8,0.1,6.5,0.5c1.3,0-0.4-0.2,0.9-0.2
					l0.3,0.1l0.3-0.1c0.8,0,1.2,0.2,1.3,0.3c-0.2,0-0.6,0-0.8,0c1.1,0.2,3,0,3.4,0.1l-1.2-0.1c3.4,0,7.6,0.2,11,0l-0.3-0.1
					c2.5-0.2,2,0.2,4.8,0.1l-0.1,0c0.6-0.1,1.3-0.2,2.1-0.2c-0.7,0.1,1.3,0.3,0.4,0.5c2.8-0.2,1.4-0.2,3.2-0.7l0.4,0.2
					c0.6-0.2,0.7-0.3,2.1-0.4c-1.1,0.2,0.9,0.4-0.4,0.6c2.9,0.6,4.3-0.5,5.7,0.3c1.3-0.7-2.5-0.4-1.8-0.6c-0.6-0.2,1.1-0.5,2-0.4
					c0.9,0,1.6,0.9,3.9,0.9c-0.2,0-0.2,0-0.5,0c0.9,0.2,1.7-0.2,2.8,0.1c0.6-0.4,1.4,0,1.6-0.5l-2.2,0.1c1.2-0.1,2.4-0.8,4.4-0.5
					c-0.2,0.1-0.8,0.3-1.2,0.4c0.6,0.2,1.1-0.1,1.7,0.1c-0.2,0.6-2.6,0.1-3.9,0.5c0.6,0.3,2.5-0.4,1.8,0.2c0.9-0.8,2.3,0.1,3.9-0.5
					l-0.1,0.4c0.3-0.1,0.8-0.2,1.2-0.2l-0.8,0.5c1.3-0.4,2.5,0.4,3.7,0.2c-2.6,0-0.6-0.5-1.7-0.7c3.2-0.5,1.8,1,5.4,0.9
					c-0.5,0-1.8-0.3-1.1-0.4c0.7,0.1,1.6,0.2,2,0.5c2.4,0-0.4-0.4,0.6-0.6c0.8,0.5,1.2-0.2,2.2-0.3l0,0.4c2.7,0.3,0.7-0.8,3.1-0.5
					l-1,0.6l1.3-0.1l-0.3,0.5c1.4-0.3,1.8-0.2,3.2-0.1c-0.3-0.3,0.2-0.8,1.4-0.8c0.8,0.3-0.5,0.4,1.2,0.4c-0.4,0.3-0.8,0.6-1.5,0.2
					c-0.1,0.1-0.4,0.3-0.5,0.4c0.9,0.3,2.2,0.1,2.8,0.1c-0.2,0-0.5,0-0.7-0.1l2.5-0.6c0.4,0.2,0.1,0.3-0.2,0.4
					c0.5,0,0.8-0.2,1.6-0.3c-0.2,0.3-0.1,0.7-1.2,0.9l2.3-0.4c0.2,0.2,1.2,0.4,0.9,0.6c1.3,0.2,3.2-0.7,4.9-0.4
					c0.1-0.1,0.3-0.1,0.6-0.2c1.6,0.1,3,0.6,5,0.1l1.1,0.7c1.5-0.1-1.5-0.8,1-1.1c1.8-0.2,0.7,0.6,1.3,0.8c0.9-0.3,2.4-1,4-0.5
					C286.5,235.3,286.1,235.2,285.6,235.2z M304,235c-0.4,0.1-1.1,0.4-1.3,0.1C303.1,234.6,303.4,234.9,304,235z M332.1,233.9
					c-0.3,0.2-0.7,0.1-1.1-0.1C331.3,233.7,331.7,233.7,332.1,233.9z M410.4,231.3C410.4,231.3,410.4,231.3,410.4,231.3
					C409.6,231.1,409.9,231.2,410.4,231.3z M412.1,231.4c0.2,0,0.2-0.1,0.1-0.1c-0.1,0.1-0.5,0.1-0.9,0
					C411.4,231.4,411.6,231.5,412.1,231.4z M233.9,231.5l0.3,0.1C233.5,231.7,233.7,231.6,233.9,231.5z"/>
				<path class="st23" d="M329,234.5c-0.1-0.1-0.1-0.2-0.2-0.3C328.7,234.4,328.7,234.4,329,234.5z"/>
				<path class="st23" d="M274.1,235.4L274.1,235.4c-0.1,0-0.1,0-0.1,0.1L274.1,235.4z"/>
				<path class="st23" d="M386.4,234.5c-0.3-0.1-0.5-0.1-0.7-0.2C385.7,234.4,385.9,234.5,386.4,234.5z"/>
				<path class="st23" d="M420.9,231.1l-1.1,0c0.5,0,0.7,0.1,1,0.1C420.8,231.2,420.6,231.1,420.9,231.1z"/>
				<path class="st23" d="M430.1,232.9c0.2,0,0.3,0,0.5,0l0-0.1C429.9,232.7,429.4,232.8,430.1,232.9z"/>
				<path class="st23" d="M421.9,232.1c0.1,0.2,0.8,0.2,1.5,0.1l-0.1,0C423.5,231.9,422.7,232,421.9,232.1z"/>
				<path class="st23" d="M423.5,232.2c0.2,0,0.5,0,0.7,0C424.3,232.1,424,232.2,423.5,232.2z"/>
				<path class="st23" d="M414.2,231.3c0.4,0.1,0.2-0.3,0.4-0.2C415,230.7,412.3,231.4,414.2,231.3z"/>
				<polygon class="st23" points="422.5,232.8 422.2,232.6 421.8,232.8 				"/>
				<path class="st23" d="M416.6,232.6l1.2,0.1c0-0.1,0.1-0.1,0.3-0.1C417.4,232.6,416.6,232.5,416.6,232.6z"/>
				<path class="st23" d="M418.1,232.6c0.4,0,0.7,0,1,0C418.9,232.6,418.4,232.6,418.1,232.6z"/>
				<polygon class="st23" points="420.9,232.9 420.5,232.9 419.7,232.9 				"/>
				<path class="st23" d="M403.8,232.5l-1.3,0.1c-0.1,0.1,0.2,0.2,0.7,0.2C403.5,232.7,404,232.6,403.8,232.5z"/>
				<path class="st23" d="M407.7,233.5c-0.4-0.1-0.4-0.1-0.6-0.3l0,0.4L407.7,233.5z"/>
				<path class="st23" d="M403.9,233.6c-0.1,0.1-1.9,0.4-0.2,0.3C403.8,233.8,405.1,233.7,403.9,233.6z"/>
				<polygon class="st23" points="384.4,233.1 384.7,233.1 384.7,232.2 				"/>
				<path class="st23" d="M367.1,235.3c1.5,0.2,0.4-0.6,1.8-0.3c0.4-0.2-1.1-0.2-0.8-0.4C367.2,234.8,366.7,234.7,367.1,235.3z"/>
				<path class="st23" d="M368.1,234.6c0.1,0,0.3-0.1,0.5-0.1C368.3,234.5,368.2,234.6,368.1,234.6z"/>
				<polygon class="st23" points="173.5,232.7 172.5,232.8 173.1,232.8 				"/>
				<path class="st23" d="M171.6,232.8l-0.2,0l-0.6,0C171,232.8,171.4,232.8,171.6,232.8z"/>
				<path class="st23" d="M306.8,236.3l0.1-0.2c-0.2-0.2-0.4-0.2-0.8-0.2L306.8,236.3z"/>
				<polygon class="st23" points="293.4,235.8 293.6,235.8 293.2,235.2 				"/>
				<path class="st23" d="M282.1,236.4c0.5,0,1-0.1,1.5-0.1C282.6,236.4,282,235.7,282.1,236.4z"/>
			</g>
		</g>
	</g>
</g>
<g>
	<g>
		<g>
			<g>
				<path class="st23" d="M468.9,410.8c0.2,0,0.3,0,0.3,0C468.5,410.8,468.9,410.8,468.9,410.8z"/>
				<polygon class="st23" points="461.6,410.7 461.8,410.6 460.7,410.7 				"/>
				<path class="st23" d="M454.8,410.5c0.6,0.2,2.5,0,3.7,0.1l0.2,0l0.5-0.1C457.8,410.5,455.9,410.6,454.8,410.5z"/>
				<path class="st23" d="M451.2,410c0.2,0.1-0.8,0,0.8,0.1c-0.1,0-0.1,0-0.2,0C451.8,410,451.6,410,451.2,410z"/>
				<path class="st23" d="M451.9,410.1C452.6,410.1,451.4,410,451.9,410.1L451.9,410.1z"/>
				<path class="st23" d="M448.6,410l0.9,0c-0.2-0.1-1-0.1-0.7-0.1C447.9,409.8,448.1,409.9,448.6,410z"/>
				<path class="st23" d="M447.7,410.1l0.5,0C448.1,410.1,448,410.1,447.7,410.1z"/>
				<path class="st23" d="M449.2,410.1l-1,0c0.1,0,0.2,0.1,0.5,0C448.6,410.1,448.8,410.1,449.2,410.1z"/>
				<path class="st23" d="M449.8,410.1c0.5,0.1,1.2,0.1,0.3,0.2C451.9,410.3,451.6,410.1,449.8,410.1z"/>
				<path class="st23" d="M454.5,410.7l0.7,0.1l0.6,0C455.5,410.7,454.5,410.6,454.5,410.7z"/>
				<path class="st23" d="M442.7,409.6c-0.1,0.1,0.3,0.2,0.4,0.2l0.7,0C443.4,409.8,442.8,409.7,442.7,409.6z"/>
				<path class="st23" d="M443.1,409.9l-1,0.1C443,410,443.2,409.9,443.1,409.9z"/>
				<polygon class="st23" points="447.5,410.4 449.3,410.2 447.2,410.4 				"/>
				<polygon class="st23" points="438.7,409.5 439.3,409.4 438.3,409.5 				"/>
				<path class="st23" d="M436.1,409.4c0.4-0.1-0.6-0.2-0.1-0.3c-0.7,0-1.3,0.1-1.9,0.2C434.7,409.2,435.3,409.3,436.1,409.4z"/>
				<path class="st23" d="M433.2,409.4c0.3,0,0.6-0.1,0.9-0.1C433.8,409.3,433.5,409.3,433.2,409.4z"/>
				<path class="st23" d="M440.3,409.9c-0.1,0-0.2-0.1-0.8-0.2l0.4,0.2C440,409.9,440.1,409.9,440.3,409.9z"/>
				<path class="st23" d="M439.9,409.9L439.9,409.9c-0.5,0-0.8,0-0.9,0C439.1,409.8,439.4,409.8,439.9,409.9z"/>
				<path class="st23" d="M440.4,409.9c0,0-0.1,0-0.1,0C440.3,409.9,440.4,409.9,440.4,409.9z"/>
				<path class="st23" d="M444.8,410.2c-0.6,0.1-1.9,0.1-0.7,0.3C444.6,410.4,443.9,410.3,444.8,410.2z"/>
				<path class="st23" d="M440.9,410.1l1.1,0.1c0,0-0.2-0.1,0.1-0.1L440.9,410.1z"/>
				<polygon class="st23" points="440.4,410.1 440.9,410.1 440.5,410.1 				"/>
				<path class="st23" d="M435,409.7c-0.5,0.1-1,0.1-1.6,0.1c0.6,0.1,1.3,0.1,1.9,0.1C435.5,409.8,435.7,409.7,435,409.7z"/>
				<path class="st23" d="M437.4,409.8c0,0-0.1,0-0.1,0C437.4,409.8,437.4,409.8,437.4,409.8z"/>
				<polygon class="st23" points="427.6,409.6 427.7,409.6 427.7,409.6 				"/>
				<path class="st23" d="M435.5,409.9c0.5,0,0.8,0,1,0c-0.4,0-0.7,0-1.1,0C435.3,409.9,435.3,409.9,435.5,409.9z"/>
				<path class="st23" d="M431.5,409.5c0.2,0.1,0.5,0.1,0.8,0.1C432.1,409.5,431.6,409.4,431.5,409.5z"/>
				<path class="st23" d="M437.1,409.7L437.1,409.7C437.1,409.7,437.1,409.7,437.1,409.7z"/>
				<path class="st23" d="M437.1,409.7c-0.2,0-0.4,0.1-0.6,0.1c0.3,0,0.6,0,0.8,0C437.2,409.8,437.2,409.7,437.1,409.7z"/>
				<path class="st23" d="M425.9,411.1c0.1-0.2,1.3-0.4,2.4-0.2c1.1-0.2,0.4-0.8-0.6-1.2c0,0.1,0,0.2-1.1,0.3
					c0.4,0.1,2.4,0.3,1.5,0.5c-1.5,0.1-1.2-0.1-1.9-0.2c0.6,0.3-1.8,0.4-1.5,0.8l1.3-0.1C426,410.9,425.5,411,425.9,411.1z"/>
				<path class="st23" d="M429.8,409.7l0.5,0c-0.5,0-0.9-0.1-1.6-0.3c-0.7,0.1-0.9,0.2-1,0.2l2.2,0.1L429.8,409.7z"/>
				<path class="st23" d="M432.3,409.7c-0.4,0.2-1.4,0.3-0.8,0.5c1.3,0,0.9-0.2,1.7-0.2C431.1,410,433.8,409.9,432.3,409.7
					c0.4,0,0.8,0,1.2,0c-0.4,0-0.8-0.1-1.1-0.1c0,0,0,0,0,0l0,0l0,0c0.1,0,0.1,0,0,0C432.4,409.6,432.4,409.6,432.3,409.7
					C432.4,409.7,432.3,409.7,432.3,409.7C431.7,409.7,432.2,409.7,432.3,409.7c0.1-0.1,0.1-0.1,0.1-0.1l0,0l-2.1,0.1
					C430.7,409.7,431.3,409.7,432.3,409.7z"/>
				<path class="st23" d="M443,410.8C442.9,410.8,442.9,410.8,443,410.8C442.8,410.8,442.8,410.8,443,410.8z"/>
				<path class="st23" d="M442.1,410.7c0.2,0,0.3-0.1,0.8-0.1c0.4,0.1,0,0.1,0,0.1c0.3,0,1.1-0.1,0.1-0.2l-0.2,0
					c-0.9-0.1-2-0.3-1.8-0.3C441.3,410.4,441.6,410.5,442.1,410.7z"/>
				<path class="st23" d="M437.1,410.3l-1.8,0.1l0.9,0.2l0-0.1C437.2,410.5,437,410.4,437.1,410.3z"/>
				<polygon class="st23" points="427.4,409.5 427.7,409.2 426.6,409.5 				"/>
				<polygon class="st23" points="425.1,409.4 425.2,409.2 424.6,409.3 				"/>
				<path class="st23" d="M294.6,413.2l-0.5,0.1C294.3,413.2,294.5,413.2,294.6,413.2z"/>
				<path class="st23" d="M298.4,413.2l0.1-0.2C298.3,413.1,298.3,413.2,298.4,413.2z"/>
				<path class="st23" d="M368.3,408.6c-0.8-0.3-1.6-0.9-1.5-0.5l0.2,0.4C367.6,408.4,368,408.5,368.3,408.6z"/>
				<path class="st23" d="M329.4,410.9c0.1,0,0.1,0.1,0.2,0.1c0.2-0.1,0.4-0.3,0.5-0.4C329.9,410.8,329.7,410.8,329.4,410.9z"/>
				<path class="st23" d="M328.9,412.7l-1-0.3C328.1,412.6,328.4,412.7,328.9,412.7z"/>
				<path class="st23" d="M273.9,413.5l-0.6,0.4C274.3,413.9,273.9,413.7,273.9,413.5z"/>
				<path class="st23" d="M401.4,409.1c-0.7-0.1-1.2-0.2-1.6-0.2C400.6,409.1,401.2,409.3,401.4,409.1z"/>
				<path class="st23" d="M296.1,408.7c-0.3,0.1-0.5,0.2-0.4,0.3C296,408.9,296.2,408.8,296.1,408.7z"/>
				<path class="st23" d="M397.9,408.8c0.1,0,0.2,0.1,0.3,0.1c0.5,0,1-0.1,1.6-0.1C399.2,408.7,398.5,408.6,397.9,408.8z"/>
				<path class="st23" d="M199,411.8c-0.1,0-0.1,0-0.2,0C198.8,411.8,198.9,411.8,199,411.8z"/>
				<path class="st23" d="M177.1,410.6c0.2,0,0.6,0,0.9,0C177.9,410.6,177.6,410.6,177.1,410.6z"/>
				<path class="st23" d="M415.8,409.1C416.3,409.1,415.9,409.1,415.8,409.1L415.8,409.1z"/>
				<path class="st23" d="M418.2,410.2c-0.1,0-0.2,0.1-0.2,0.1C418,410.3,418.1,410.2,418.2,410.2z"/>
				<path class="st23" d="M393,410.9C393,410.9,393,410.9,393,410.9C393.1,411,393.1,411,393,410.9z"/>
				<path class="st23" d="M416.6,409.3c-0.2,0-0.4-0.1-0.6-0.1C416,409.2,416.2,409.2,416.6,409.3z"/>
				<path class="st23" d="M416.5,409.1c0.2,0,0.3,0,0.4,0C416.9,409.1,416.9,409.1,416.5,409.1z"/>
				<path class="st23" d="M415.1,409.1c0.3,0,0.5,0,0.8,0c-0.1,0-0.1,0-0.1,0C415.7,409.1,415.5,409.1,415.1,409.1z"/>
				<path class="st23" d="M239.1,411.8c0,0-0.1,0-0.1,0C238.5,411.9,238.8,411.9,239.1,411.8z"/>
				<path class="st23" d="M355.6,412.8C355.6,412.8,355.6,412.8,355.6,412.8C355.6,412.7,355.6,412.7,355.6,412.8L355.6,412.8z"/>
				<path class="st23" d="M353.8,413.1c0.8-0.5,1.2-0.5,1.7-0.4l-0.6-1.2L353.8,413.1z"/>
				<path class="st23" d="M285.6,413.2l1.2,0.4c-1.5,0.6-2.6,0.4-1.4,0.9c0.2-1.3,4.8-0.1,5-1.4l0.8,0.3c-0.2,0-0.3,0.1-0.5,0
					c1.6,0.6,1.2-0.9,3.2-0.8c0.7,0.1,1.2,0.3,0.7,0.5l1.6-0.3c0.5,0,0.3,0.3-0.1,0.2l2.4-0.1l0,0c0.3-0.2,1.1-0.5,1.5-0.7
					c0.6,0.2-0.3,0.1-0.2,0.3l1.3-0.3c0.5,0.3-0.6,0.7-1.5,0.6c1.3,1.3,1.1-0.3,3.8,0.5l-1.3,0.2c0.8,0.8,1.8,0.5,3.2,1
					c-0.3-0.3-2.9-1.2-1.4-1.5c0.4,0.1,0.9,0.2,1.7-0.1c0,0.5,0.8,0.4,1.7,0.3l-0.1,0.6c1-0.2,1-0.5,1.6-0.8c1.2,0.1,1.4,0.6,1.7,1
					c1.8,0.1-1.3-0.8,0.9-0.9c1.5,0.2,2.6,0,4.5-0.4c1.1,0.2-0.2,0.4,0.2,0.6l1-0.5c0.2,0,0.2,0.2,0.1,0.2c0.8-0.2,0.1-0.6,1.3-0.8
					c0.3-0.7,2.6,1,4.2,0.2c0.4,0.2-0.2,0.4-0.1,0.6c2.1-0.5,1.8-0.4,3.6-1.1l1.5,0.4c-1.1-0.5,0.3-1,1.5-1.5
					c-0.4-0.2-0.7-0.4-1-0.5l2-0.3c0.2,0.1,0,0.3-0.3,0.6c0.1-0.1,0.3-0.1,0.4-0.2c0.7,0.2,0.3,0.6-0.2,1c-0.2-0.1-0.5-0.3-0.7-0.4
					c-0.5,0.4-0.9,0.8-0.8,1.2c0.1-0.1,0.4-0.1,0.6-0.2c-0.1,0.1-0.2,0.2-0.1,0.3c0.1,0.1,0.3-0.1,0.6-0.2l0.4,0.7l0.1-0.3l2.6,0.4
					c1.8-0.7,3.4-1.8,6.4-2.1c-0.7,0.5-0.2,0.8-0.2,1.5c-0.8-0.6-2.3,0.3-3.8,0.2c0.8,0.1,0.6,0.4,0.4,0.5l2.7-0.6
					c-0.1,0.5,0.6,0.4,1.3,0.6c-0.5-1,2-0.7,3.1-1c0.1,0.3-0.2,0.7-1.5,0.6c1.5,0.7,1.9-1.2,3.4-0.5c-0.3,0-0.5,0-0.6,0.1
					c0.8-0.3,2.6-0.1,2.2,0.2l-0.3,0c2.2,0.1,6.6,0,7-0.8c0,0.1-0.3,1-0.4,1.2l3.9-2.7c-0.3,0.7,1,2.3-0.8,2.7
					c0.5,0.1,1.2,0.2,2.3,0c-0.4-0.1-0.9-1-0.4-1.1c1.3,0.8,0.9,0.4,2.6,1.1c-0.5-0.1,0.1-1.2,0.9-1.2c-0.1,0.2,0.1,1.1-0.2,1.2
					l2.1-1.1c-0.5,0.2-0.1,0.9,0.4,1.2c-0.2-0.2,1.8,0,2.4-0.1l-0.9-0.2c2.4,0.1,2.3-1.5,4.7-1.4c-0.3,0.2-0.7,1.3,0.5,1.4
					c0.5-0.5,2.4-2.5,4.5-2.9l0.4,0.3l1.6-0.3c-1,0.8-3.8,2.4-5.3,3c0.9,0.2,0.2,0.3,1.6,0.3c0.5,0.3-0.7,0.4-1.1,0.4l3.1,0.1
					c-0.1-0.6,2.4-0.6,2.2-1.1l-3.3,0.6c-0.1-0.6,1.9-1.7,4.1-1.6c0.6,0.2-0.4,1.1-0.4,1.2c0.3-0.2,2.1-0.4,2.3-0.3l-0.9,0.3
					c1.2,0.2,2-0.8,3.4-0.2c0.5,0,1.5,0.7,1.6,0.4c-0.8-0.6-1-2.7-0.4-3.2c0.2,0,2.6,0.6,3.2,1c0.8,0.5-1.2,1.2-0.5,1.6
					c0-0.2,0.5-0.3,0.7-0.4c0.5,0.1-0.2,0.5,0.9,0.4c0.2-0.6,2.3,0,0.5-0.5c1.1-0.2,1.2,0.1,2.5,0.1c-0.4-0.4,1.2-1.2,2.3-1.4
					c-0.1,0.1,0.2,0.3,0.3,0.4c2.3,0,3.5,0.3,5.7,0.3c0.2,0.1,1.2,0.3,0.8,0.5c0.3-0.1,0.6-0.3,1.3-0.3c1.3,0.4-1.5,0.1-0.5,0.6
					c0.1-0.3,1.7-0.4,2.7-0.6c-0.3-0.4-2.2-0.1-3.1,0.1c0-0.6,1.6-1.3,3.9-1.6c1.8-0.1,0.8,0.4,1.1,0.3c3.3,0.1,2.9-1,5.6-0.6
					c1.1,0.4,0,0.7,0.3,1c-1.5,0.1-2.2-0.2-3.2-0.2l1.2,0.2c-0.5,0.1-1.4,0.2-2,0.1c0.9,0.3,5.7,0.1,8.2,0.4
					c0.5-0.1,1.3-0.2,0.9-0.4l-0.8,0c-0.8-0.3,1.5-0.4,0.5-0.5c1.1-0.2,2.3-0.5,3.9-0.3l0.3,0.4c0-0.1-1-0.2-1.4-0.1
					c0.6-0.2,2.4,0.5,3.1,0l-1.1-0.3c1.1-0.2,2.5-0.5,3.8-0.4c-0.6-0.4-0.3,0-1.3-0.4c0.8,0.5-3.5-0.1-2.1,0.5c-1-0.5-1.7-0.2-3-0.7
					c0,0.1,0.5,0.3-0.7,0.2c-0.1,0-0.2,0.1-0.3,0.1c0,0,0,0-0.1,0c0,0,0,0,0.1,0c0,0-0.1,0,0,0c0.3,0.1,0.5,0.1,0.6,0.2
					c-0.6,0.3-2.4,0.2-3,0.4c-0.7-0.1,0.3-0.1-0.1-0.3l-0.9,0.2c-0.1-0.3-1.8-0.5-0.2-0.7l-1.4,0c-0.9-0.2-2-0.3-2.7-0.2
					c-0.7-0.1-1.7,0.3-1.1,0.1l-2.3,0.2l0-0.1c-2.2-0.1-4.6,0.5-7.2-0.2c-0.8,0.1-1.5,0.2-2.8,0.1l-0.2-0.3c-1,0.1-2.9-0.4-3.3,0
					c-1-0.9-4.7-0.3-6.4-0.4l-0.1,0.4c-1.2,0-2.3,0.1-3.7,0.2l0.1,0.4c-1.3,0.3-3.2-0.3-5.2-0.3c0.1-0.1,0.6-0.1,1,0
					c-2.4-0.9-5,0.6-7.1-0.1c-0.5,0.1-0.9,0.1-1.3,0c0,0,0.1,0,0.1,0c-0.1,0-0.1,0-0.2,0c-0.2-0.1-0.5-0.2-0.7-0.2
					c0.2,0.1,0.4,0.2,0.6,0.2c-0.4,0-1,0.1-1.7,0.1l-0.3-0.4c-0.1,0-0.1,0-0.1,0c-0.6-0.2-0.5,0.2-0.2,0.5c-0.3,0.1-0.6,0.2-0.8,0.3
					c-0.5-0.7-1.6,0.2-2.3-0.5c-0.4,0.4-3.1,0.3-3.4,1.1c0-0.1-0.2-0.2,0.1-0.2c-0.7-0.1-1.4-0.2-2,0l-0.3-0.6l-1.5,0.8
					c-0.9-0.4-1.3-0.6-0.4-1c-2.2,0.7-1.8,0.3-3.6,0.9l0.1-0.4c-0.7,0-1.7,0.5-2.1,0.2c-1.5-0.7-7.3-0.1-11.1-0.8
					c0.7,1.2-1.8-0.5-1.9,0.4c-0.2-0.3-0.7-0.4-0.1-0.7c-1.9,0.3-2.9-0.4-4.2,0.3c-0.2-0.3,0.4-0.4,0.2-0.6
					c-0.2,0.1-0.6,0.2-0.8,0.1c-0.2-0.2,0.3-0.2,0.6-0.3c-2,0-2.2,0.9-2.3,1.7c-1-0.4-1.5-0.3-2.2,0.2c-0.3-0.3-0.9-0.5,0.3-0.6
					c-0.7,0-4.2-0.4-4.3,0.3c-0.2-0.2-1,0-1.1,0c-1.6,0-1.7-0.1-3.2,0l0.4,0.1c-0.6,0.8-1.3,0.2-2.5,0.3l0-0.1
					c-2.8-0.6-1.2,0.3-4-0.4l0.2,0.5c-0.3,1-2.5-0.6-4.1-0.2l0.6,0.3c-0.9,0.4-2.5-1.4-3.3-1.5c-0.2-0.1,0.3-0.1,0.6-0.2
					c-2.3-0.6-0.3,0.6-2,0.8c-0.3-0.3,0.4-0.9-0.8-0.9c-0.6-0.3-3.4,1.1-5,0.5c0.3,0.3,0.7,0.5-0.1,0.7c-1.2,0.1-3.3-1-4.4-0.1
					c-0.2-0.1-0.2-0.1-0.2-0.2c-0.9,0.2-3.1,0.4-3.6,0.8c-0.9-1.6-5.8,0.8-5.8-0.7l-2.9,0.1l0.1-0.1c-1.8-0.1-2.5,0.3-3.1,0.6
					c-0.4-0.1-0.1-0.2-0.1-0.3c-2.7-0.3-3-0.2-5.2,0.5l-0.2-0.5c-0.6,0.3-3.9-0.7-6.5-0.1c0-0.1,0.1-0.1,0.3-0.2
					c-3,0.5-7.1-1.1-8.2,0.4l-2,0.4c2.5,0.1-0.4,0.7,0.7,0.9c-1,0.1-2.6-0.5-1.4-0.5l0.2,0.1c0.5-0.8-3.2-0.3-3.1-0.8
					c-5,0.1-9.9-0.3-14.6-0.2l0.5,0.5l-1.6,0c-0.4-0.1-0.6-0.4,0.6-0.4c-0.6-0.3-2,0.3-2,0.4c-2.3-0.2,0.9-0.6,0.2-0.6l-1,0.1
					l0.2,0.1c-0.8,0.2-0.8,0.5-2.2,0.4c-0.9-0.1-0.5-0.3-0.8-0.3c0,0-0.1-0.1-0.5,0l-2.1,0l0.8,0.4c-0.9,0.2-1.9,0-1,0.4
					c-1.4-0.7-7.7-0.2-8.5-0.4c-1.3,0.3-2.5,0.3-4.1,0.3c0.4,0.1,0.6,0.5-0.7,0.4c0.5-0.8-2.5-0.3-3.6-0.8c1,0.3-3.8,0.2-2.3,0.6
					c-1.1,0-0.1-0.3-0.9-0.4c-2.7,0.3-5.9-0.1-9.2,0.1c-0.1,0.1,0.5,0.2-0.2,0.3l-1.7-0.3c-0.7,0.1-0.6,0.4-1.8,0.2
					c0.2,0.1,0.4,0.1,0,0.2c-3.2-0.1-6.5,0-9.9,0.1c-3.3,0.1-6.7,0.1-9.9,0.1c0.9,0,0.3,0-0.4,0.1c0.4,0,0,0.1,0.1,0.1l-2.8,0
					c-0.5,0.1-3,0.1-3.2,0.1l0.9,0c-1.2,0,1.6,0.1,1.5,0.1c1.3-0.1,3.4,0.2,5.6,0.1c0.5,0-0.4,0-0.1,0.1c0.5,0,1.2-0.1,2.4,0l-0.1,0
					c3.4,0.1,4.9,0.2,8.7,0.4l-0.3-0.1c0.8,0,1,0.1,1.4,0.1c0.9-0.2-2.3-0.1-1.4-0.3c1.1,0.3,5.8,0.1,6.5,0.5c1.3,0-0.4-0.2,0.9-0.2
					l0.3,0.1l0.3-0.1c0.8,0,1.2,0.2,1.3,0.3c-0.2,0-0.6,0-0.8,0c1.1,0.2,3,0,3.4,0.1l-1.2-0.1c3.4,0,7.6,0.2,11,0l-0.3-0.1
					c2.5-0.2,2,0.2,4.8,0.1l-0.1,0c0.6-0.1,1.3-0.2,2.1-0.2c-0.7,0.1,1.3,0.3,0.4,0.5c2.8-0.2,1.4-0.2,3.2-0.7l0.4,0.2
					c0.6-0.2,0.7-0.3,2.1-0.4c-1.1,0.2,0.9,0.4-0.4,0.6c2.9,0.6,4.3-0.5,5.7,0.3c1.3-0.7-2.5-0.4-1.8-0.6c-0.6-0.2,1.1-0.5,2-0.4
					c0.9,0,1.6,0.9,3.9,0.9c-0.2,0-0.2,0-0.5,0c0.9,0.2,1.7-0.2,2.8,0.1c0.6-0.4,1.4,0,1.6-0.5l-2.2,0.1c1.2-0.1,2.4-0.8,4.4-0.5
					c-0.2,0.1-0.8,0.3-1.2,0.4c0.6,0.2,1.1-0.1,1.7,0.1c-0.2,0.6-2.6,0.1-3.9,0.5c0.6,0.3,2.5-0.4,1.8,0.2c0.9-0.8,2.3,0.1,3.9-0.5
					l-0.1,0.4c0.3-0.1,0.8-0.2,1.2-0.2l-0.8,0.5c1.3-0.4,2.5,0.4,3.7,0.2c-2.6,0-0.6-0.5-1.7-0.7c3.2-0.5,1.8,1,5.4,0.9
					c-0.5,0-1.8-0.3-1.1-0.4c0.7,0.1,1.6,0.2,2,0.5c2.4,0-0.4-0.4,0.6-0.6c0.8,0.5,1.2-0.2,2.2-0.3l0,0.4c2.7,0.3,0.7-0.8,3.1-0.5
					l-1,0.6l1.3-0.1l-0.3,0.5c1.4-0.3,1.8-0.2,3.2-0.1c-0.3-0.3,0.2-0.8,1.4-0.8c0.8,0.3-0.5,0.4,1.2,0.4c-0.4,0.3-0.8,0.6-1.5,0.2
					c-0.1,0.1-0.4,0.3-0.5,0.4c0.9,0.3,2.2,0.1,2.8,0.1c-0.2,0-0.5,0-0.7-0.1l2.5-0.6c0.4,0.2,0.1,0.3-0.2,0.4
					c0.5,0,0.8-0.2,1.6-0.3c-0.2,0.3-0.1,0.7-1.2,0.9l2.3-0.4c0.2,0.2,1.2,0.4,0.9,0.6c1.3,0.2,3.2-0.7,4.9-0.4
					c0.1-0.1,0.3-0.1,0.6-0.2c1.6,0.1,3,0.6,5,0.1l1.1,0.7c1.5-0.1-1.5-0.8,1-1.1c1.8-0.2,0.7,0.6,1.3,0.8c0.9-0.3,2.4-1,4-0.5
					C286.5,413.3,286.1,413.2,285.6,413.2z M304,413c-0.4,0.1-1.1,0.4-1.3,0.1C303.1,412.6,303.4,412.9,304,413z M332.1,411.9
					c-0.3,0.2-0.7,0.1-1.1-0.1C331.3,411.7,331.7,411.7,332.1,411.9z M410.4,409.3C410.4,409.3,410.4,409.3,410.4,409.3
					C409.6,409.1,409.9,409.2,410.4,409.3z M412.1,409.4c0.2,0,0.2-0.1,0.1-0.1c-0.1,0.1-0.5,0.1-0.9,0
					C411.4,409.4,411.6,409.5,412.1,409.4z M233.9,409.5l0.3,0.1C233.5,409.7,233.7,409.6,233.9,409.5z"/>
				<path class="st23" d="M329,412.5c-0.1-0.1-0.1-0.2-0.2-0.3C328.7,412.4,328.7,412.4,329,412.5z"/>
				<path class="st23" d="M274.1,413.4L274.1,413.4c-0.1,0-0.1,0-0.1,0.1L274.1,413.4z"/>
				<path class="st23" d="M386.4,412.5c-0.3-0.1-0.5-0.1-0.7-0.2C385.7,412.4,385.9,412.5,386.4,412.5z"/>
				<path class="st23" d="M420.9,409.1l-1.1,0c0.5,0,0.7,0.1,1,0.1C420.8,409.2,420.6,409.1,420.9,409.1z"/>
				<path class="st23" d="M430.1,410.9c0.2,0,0.3,0,0.5,0l0-0.1C429.9,410.7,429.4,410.8,430.1,410.9z"/>
				<path class="st23" d="M421.9,410.1c0.1,0.2,0.8,0.2,1.5,0.1l-0.1,0C423.5,409.9,422.7,410,421.9,410.1z"/>
				<path class="st23" d="M423.5,410.2c0.2,0,0.5,0,0.7,0C424.3,410.1,424,410.2,423.5,410.2z"/>
				<path class="st23" d="M414.2,409.3c0.4,0.1,0.2-0.3,0.4-0.2C415,408.7,412.3,409.4,414.2,409.3z"/>
				<polygon class="st23" points="422.5,410.8 422.2,410.6 421.8,410.8 				"/>
				<path class="st23" d="M416.6,410.6l1.2,0.1c0-0.1,0.1-0.1,0.3-0.1C417.4,410.6,416.6,410.5,416.6,410.6z"/>
				<path class="st23" d="M418.1,410.6c0.4,0,0.7,0,1,0C418.9,410.6,418.4,410.6,418.1,410.6z"/>
				<polygon class="st23" points="420.9,410.9 420.5,410.9 419.7,410.9 				"/>
				<path class="st23" d="M403.8,410.5l-1.3,0.1c-0.1,0.1,0.2,0.2,0.7,0.2C403.5,410.7,404,410.6,403.8,410.5z"/>
				<path class="st23" d="M407.7,411.5c-0.4-0.1-0.4-0.1-0.6-0.3l0,0.4L407.7,411.5z"/>
				<path class="st23" d="M403.9,411.6c-0.1,0.1-1.9,0.4-0.2,0.3C403.8,411.8,405.1,411.7,403.9,411.6z"/>
				<polygon class="st23" points="384.4,411.1 384.7,411.1 384.7,410.2 				"/>
				<path class="st23" d="M367.1,413.3c1.5,0.2,0.4-0.6,1.8-0.3c0.4-0.2-1.1-0.2-0.8-0.4C367.2,412.8,366.7,412.7,367.1,413.3z"/>
				<path class="st23" d="M368.1,412.6c0.1,0,0.3-0.1,0.5-0.1C368.3,412.5,368.2,412.6,368.1,412.6z"/>
				<polygon class="st23" points="173.5,410.7 172.5,410.8 173.1,410.8 				"/>
				<path class="st23" d="M171.6,410.8l-0.2,0l-0.6,0C171,410.8,171.4,410.8,171.6,410.8z"/>
				<path class="st23" d="M306.8,414.3l0.1-0.2c-0.2-0.2-0.4-0.2-0.8-0.2L306.8,414.3z"/>
				<polygon class="st23" points="293.4,413.8 293.6,413.8 293.2,413.2 				"/>
				<path class="st23" d="M282.1,414.4c0.5,0,1-0.1,1.5-0.1C282.6,414.4,282,413.7,282.1,414.4z"/>
			</g>
		</g>
	</g>
</g>
</svg>
