<?xml version="1.0" encoding="utf-8"?>
<!-- Generator: Adobe Illustrator 26.5.0, SVG Export Plug-In . SVG Version: 6.00 Build 0)  -->
<svg version="1.1" id="Шар_1" xmlns="http://www.w3.org/2000/svg" xmlns:xlink="http://www.w3.org/1999/xlink" x="0px" y="0px"
	 viewBox="0 0 640 640" style="enable-background:new 0 0 640 640;" xml:space="preserve">
<style type="text/css">
	.st0{fill:#FFFFFF;}
	.st1{fill:#238B00;}
	.st2{fill:#E46228;}
	.st3{fill:none;stroke:#FFFFFF;stroke-miterlimit:10;}
	.st4{fill:none;stroke:#FFFFFF;stroke-width:0.25;stroke-miterlimit:10;}
	.st5{fill:none;stroke:#E46228;stroke-miterlimit:10;}
	.st6{fill:#E46228;stroke:#E46228;stroke-miterlimit:10;}
	.st7{fill:#FEFEFE;}
	.st8{fill:#FCFCFC;}
	.st9{fill:#3B3B3B;}
	.st10{fill:#228000;}
	.st11{fill:#020202;}
	.st12{fill:#010101;}
	.st13{fill:#0F0F0F;}
	.st14{fill:#FEFEFD;}
	.st15{fill:#E0ECDB;}
	.st16{fill:#FDFDFC;}
	.st17{fill:#DF6232;}
	.st18{fill:#E06331;}
	.st19{fill-rule:evenodd;clip-rule:evenodd;fill:#238035;}
	.st20{fill-rule:evenodd;clip-rule:evenodd;fill:#E46228;}
	.st21{fill:#238035;}
	.st22{fill:none;stroke:#E46228;stroke-width:12;stroke-miterlimit:10;}
	.st23{fill:#E77440;}
	.st24{fill:#8E24AA;}
</style>
<g>
	<g>
		<g>
			<path class="st1" d="M457.3,82.3H182.8L45.5,320l137.3,237.7h274.5L594.5,320L457.3,82.3z M117.4,420.4L59.5,320l57.9-100.3
				h405.3L580.6,320l-57.9,100.3H117.4z"/>
		</g>
		<g>
			<polygon class="st0" points="580.6,320 522.7,420.4 117.4,420.4 59.5,320 117.4,219.7 522.7,219.7 			"/>
		</g>
	</g>
	<g>
		<path class="st0" d="M227.9,452.6v5.3h6.9v19.2h5.8v-19.2h6.9v-5.3H227.9z"/>
		<path class="st0" d="M269.6,455.4c-2-2.2-5.1-3.3-9.1-3.3c-3.8,0-6.7,1.1-8.8,3.3c-2.1,2.2-3.1,5.3-3.1,9.4c0,4.1,1,7.3,3.1,9.4
			c2.1,2.2,5.1,3.3,9,3.3c3.8,0,6.8-1.1,8.8-3.1c2.1-2.1,3.1-5.3,3.1-9.6C272.7,460.8,271.7,457.6,269.6,455.4z M260.9,472.4
			c-4.1,0-6.1-2.5-6.1-7.6c0-5.1,1.9-7.7,5.8-7.7c2,0,3.6,0.6,4.5,1.9c1,1.3,1.5,3.2,1.5,5.8C266.6,469.9,264.7,472.4,260.9,472.4z"
			/>
		<path class="st0" d="M294,466c-0.9-1-2.3-1.6-4-1.7v-0.1c3.2-0.7,4.8-2.5,4.8-5.5c0-4.1-2.6-6.2-7.8-6.2h-10.6v24.5h10.3
			c3.1,0,5.3-0.7,6.7-2c1.4-1.3,2-3.1,2-5.3C295.4,468.3,294.9,467.1,294,466z M282.1,457.2h3.3c1.3,0,2.3,0.2,2.9,0.6
			c0.5,0.4,0.8,1.1,0.8,2c0,0.9-0.3,1.6-1,2.1c-0.6,0.5-1.7,0.7-3.2,0.7h-2.8V457.2z M288.5,471.8c-0.6,0.4-1.7,0.6-3.2,0.6h-3.1
			v-5.7h3c1.5,0,2.6,0.2,3.3,0.6c0.7,0.4,1,1.2,1,2.3C289.4,470.6,289.1,471.4,288.5,471.8z"/>
		<path class="st0" d="M312.6,452.6h-7.8l-8.1,24.5h5.7l1.6-5.1h9.2l1.6,5.1h5.9L312.6,452.6z M305.6,466.9l3-10l3,10H305.6z"/>
		<path class="st0" d="M332,452.6h-9v24.5h5.8v-7.3h2.7c6.8,0,10.2-3,10.2-8.9C341.6,455.3,338.4,452.6,332,452.6z M334.7,463.8
			c-0.7,0.6-1.7,0.9-3.2,0.9h-2.8v-7.1h2.8c1.5,0,2.6,0.3,3.3,0.8c0.6,0.5,1,1.4,1,2.7C335.7,462.3,335.4,463.2,334.7,463.8z"/>
		<path class="st0" d="M353,452.6v24.5h5.8v-19.3h8.8v19.3h5.8v-24.5H353z"/>
		<path class="st0" d="M397.9,455.4c-2-2.2-5.1-3.3-9.1-3.3c-3.8,0-6.7,1.1-8.8,3.3c-2.1,2.2-3.1,5.3-3.1,9.4c0,4.1,1,7.3,3.1,9.4
			c2.1,2.2,5.1,3.3,9,3.3c3.8,0,6.7-1.1,8.8-3.1c2.1-2.1,3.1-5.3,3.1-9.6C401,460.8,400,457.6,397.9,455.4z M389.1,472.4
			c-4.1,0-6.1-2.5-6.1-7.6c0-5.1,1.9-7.7,5.8-7.7c2.1,0,3.6,0.6,4.6,1.9c1,1.3,1.5,3.2,1.5,5.8C394.9,469.9,393,472.4,389.1,472.4z"
			/>
		<path class="st0" d="M210.3,514.9c-0.9-1-2.3-1.6-4-1.7v-0.1c3.2-0.7,4.8-2.5,4.8-5.5c0-4.2-2.6-6.2-7.8-6.2h-10.6v24.5H203
			c3.1,0,5.3-0.7,6.7-2c1.4-1.3,2-3.1,2-5.3C211.8,517.2,211.3,515.9,210.3,514.9z M198.5,506.1h3.3c1.3,0,2.3,0.2,2.8,0.6
			c0.6,0.4,0.8,1.1,0.8,2c0,0.9-0.3,1.6-1,2.1c-0.6,0.4-1.7,0.7-3.2,0.7h-2.8V506.1z M204.8,520.6c-0.6,0.4-1.7,0.6-3.2,0.6h-3.1
			v-5.7h3c1.5,0,2.6,0.2,3.3,0.6c0.7,0.4,1,1.2,1,2.3C205.8,519.5,205.5,520.2,204.8,520.6z"/>
		<path class="st0" d="M215.1,501.4v24.5h5.8v-24.5H215.1z"/>
		<path class="st0" d="M246,520.7v-19.3h-17l-0.1,2.7c-0.1,4.2-0.3,7.5-0.7,10.1c-0.4,2.6-1.1,4.7-2.2,6.5h-2.3v10.6h5.4v-5.5h14.5
			v5.5h5.4v-10.6H246z M240.2,520.7h-8.4c1.3-3,2.1-7.3,2.4-12.9c0-0.5,0-0.9,0.1-1.3h5.9V520.7z"/>
		<path class="st0" d="M268.1,506.4v-5h-16.2v24.5h16.2v-5h-10.4v-5.1h9.1v-4.6h-9.1v-4.7H268.1z"/>
		<path class="st0" d="M292,504.3c-2-2.2-5.1-3.3-9.1-3.3c-3.8,0-6.7,1.1-8.8,3.3c-2.1,2.2-3.1,5.3-3.1,9.4c0,4.1,1,7.3,3.1,9.4
			c2.1,2.2,5.1,3.3,9,3.3c3.8,0,6.7-1,8.8-3.1c2.1-2.1,3.1-5.3,3.1-9.6C295.1,509.6,294,506.5,292,504.3z M283.2,521.3
			c-4.1,0-6.1-2.5-6.1-7.6c0-5.1,1.9-7.7,5.8-7.7c2.1,0,3.6,0.6,4.6,1.9c1,1.3,1.5,3.2,1.5,5.8C288.9,518.7,287,521.3,283.2,521.3z"
			/>
		<path class="st0" d="M318.8,520.7v-19.3h-17l-0.1,2.7c-0.1,4.2-0.3,7.5-0.7,10.1c-0.4,2.6-1.1,4.7-2.2,6.5h-2.3v10.6h5.4v-5.5
			h14.5v5.5h5.4v-10.6H318.8z M313,520.7h-8.4c1.3-3,2.1-7.3,2.4-12.9c0-0.5,0-0.9,0.1-1.3h5.9V520.7z"/>
		<path class="st0" d="M340.3,515.2c-0.9-1-2.2-1.6-3.9-1.9v-0.1c1.5-0.4,2.6-1,3.4-2c0.8-1,1.2-2.2,1.2-3.7c0-2-0.7-3.5-2-4.7
			c-1.4-1.2-3.6-1.8-6.8-1.8c-2.8,0-5.4,0.3-7.7,1v5.3c1.9-0.8,4.1-1.2,6.5-1.2c2.8,0,4.1,0.9,4.1,2.6c0,1.8-1.5,2.7-4.3,2.7h-3v4.3
			h3.6c2.8,0,4.2,0.9,4.2,2.8c0,1-0.4,1.7-1.1,2.2c-0.8,0.5-2.1,0.7-3.9,0.7c-2.4,0-4.5-0.5-6.4-1.4v5.2c2,0.9,4.3,1.3,7.1,1.3
			c6.9,0,10.4-2.5,10.4-7.5C341.7,517.4,341.2,516.2,340.3,515.2z"/>
		<path class="st0" d="M362.7,514.9c-0.9-1-2.3-1.6-4-1.7v-0.1c3.2-0.7,4.8-2.5,4.8-5.5c0-4.2-2.6-6.2-7.8-6.2H345v24.5h10.3
			c3.1,0,5.3-0.7,6.7-2c1.4-1.3,2-3.1,2-5.3C364.1,517.2,363.6,515.9,362.7,514.9z M350.8,506.1h3.3c1.4,0,2.3,0.2,2.9,0.6
			c0.6,0.4,0.8,1.1,0.8,2c0,0.9-0.3,1.6-1,2.1c-0.6,0.4-1.7,0.7-3.2,0.7h-2.8V506.1z M357.2,520.6c-0.6,0.4-1.7,0.6-3.2,0.6h-3.1
			v-5.7h3c1.5,0,2.6,0.2,3.3,0.6c0.7,0.4,1,1.2,1,2.3C358.1,519.5,357.8,520.2,357.2,520.6z"/>
		<path class="st0" d="M367.5,501.4v24.5h5.8v-24.5H367.5z"/>
		<path class="st0" d="M393,501.4v9.4h-9.6v-9.4h-5.8v24.5h5.8v-10h9.6v10h5.8v-24.5H393z"/>
		<path class="st0" d="M414.8,512.8l9-11.4h-6.6l-8.3,11.3v-11.3h-5.8v24.5h5.8v-12.1l8.6,12.1h6.9L414.8,512.8z"/>
		<path class="st0" d="M441.4,501.4l-4.3,12.2l-5.7-12.2h-6.7l9.3,17.8c-0.1,0.2-0.1,0.3-0.1,0.3c-0.5,1.1-1.4,1.7-2.7,1.7
			c-0.7,0-1.4-0.1-2-0.4l-0.1,4.8c1,0.4,2,0.6,3.2,0.6c1.8,0,3.3-0.5,4.5-1.4c1.2-0.9,2.2-2.5,3.1-4.6l7.7-18.9H441.4z"/>
	</g>
	<g>
		<path class="st0" d="M237.7,129.1l9-11.4H240l-8.3,11.3v-11.3H226v24.5h5.8v-12.1l8.6,12.1h6.9L237.7,129.1z"/>
		<path class="st0" d="M264.3,117.7l-4.3,12.2l-5.7-12.2h-6.7l9.3,17.8c-0.1,0.2-0.1,0.3-0.1,0.3c-0.5,1.1-1.4,1.7-2.7,1.7
			c-0.7,0-1.4-0.1-2-0.4l-0.1,4.8c1,0.4,2,0.6,3.2,0.6c1.8,0,3.3-0.5,4.5-1.4c1.2-0.9,2.2-2.4,3.1-4.6l7.7-18.9H264.3z"/>
		<path class="st0" d="M272.5,117.7v24.5h5.8v-19.3h8.8v19.3h5.8v-24.5H272.5z"/>
		<path class="st0" d="M300.3,117.7l0,4.8c0,3.1-0.1,5.5-0.2,7.3c-0.1,1.8-0.3,3.3-0.6,4.4c-0.3,1.1-0.6,1.9-1,2.3
			c-0.4,0.4-0.9,0.6-1.6,0.6c-0.2,0-0.5,0-0.8-0.1v5.4c0.5,0.2,1,0.2,1.7,0.2c1.1,0,2-0.2,2.8-0.5c0.8-0.3,1.5-0.7,2-1.2
			c0.6-0.5,1-1.2,1.4-2.2c0.4-0.9,0.7-1.9,0.9-2.8c0.2-0.9,0.4-2.2,0.6-3.7c0.1-1.5,0.2-2.9,0.3-4.2c0-1.3,0.1-3,0.1-5h6.3v19.3h5.8
			v-24.5H300.3z"/>
		<path class="st0" d="M331.8,117.7c-6.6,0-9.9,2.7-9.9,8.2c0,3.3,1.5,5.6,4.3,7.1l-5.5,9.1h6.2l4.5-7.9h3.5v7.9h5.8v-24.5H331.8z
			 M335.1,129.6h-2.9c-1.4,0-2.4-0.3-3.2-0.9c-0.8-0.6-1.2-1.4-1.2-2.6c0-2.3,1.3-3.4,4-3.4h3.3V129.6z"/>
		<path class="st0" d="M358.6,110c-0.3,1.5-1.2,2.2-2.9,2.2c-0.8,0-1.5-0.2-1.9-0.5c-0.5-0.3-0.8-0.9-1-1.7l-4.5,0.4
			c0.1,1.8,0.8,3.2,2.2,4.1c1.4,0.9,3.1,1.4,5.3,1.4c2.1,0,3.9-0.5,5.2-1.4c1.3-0.9,2.1-2.3,2.2-4.1L358.6,110z M360.3,117.7
			l-9.4,16.4v-16.4h-5.8v24.5h6.1l9.4-16.4v16.4h5.8v-24.5H360.3z"/>
		<path class="st0" d="M369.1,117.7v5.3h6.9v19.2h5.8V123h6.9v-5.3H369.1z"/>
		<path class="st0" d="M407.6,122.7v-5h-16.2v24.5h16.2v-5h-10.4v-5.1h9.1v-4.7h-9.1v-4.7H407.6z"/>
		<path class="st0" d="M191.6,166.5v5.3h6.9V191h5.8v-19.2h6.9v-5.3H191.6z"/>
		<path class="st0" d="M225.2,166.5h-7.8l-8.1,24.5h5.7l1.6-5.1h9.2l1.6,5.1h5.9L225.2,166.5z M218.2,180.9l3-10l3,10H218.2z"/>
		<path class="st0" d="M264,169.4c-2-2.2-5.1-3.3-9.1-3.3c-3.8,0-6.7,1.1-8.8,3.3c-2.1,2.2-3.1,5.3-3.1,9.4c0,4.1,1,7.3,3.1,9.4
			c2.1,2.2,5.1,3.3,9,3.3c3.8,0,6.7-1,8.8-3.1c2.1-2.1,3.1-5.3,3.1-9.6C267.1,174.8,266.1,171.6,264,169.4z M255.2,186.4
			c-4.1,0-6.1-2.5-6.1-7.6c0-5.1,1.9-7.7,5.8-7.7c2.1,0,3.6,0.6,4.6,1.9c1,1.3,1.5,3.2,1.5,5.8C261,183.9,259,186.4,255.2,186.4z"/>
		<path class="st0" d="M270.7,166.5V191h5.8v-19.3h9.7v-5.2H270.7z"/>
		<path class="st0" d="M289.3,166.5l0,4.8c0,3.1-0.1,5.5-0.2,7.3c-0.1,1.8-0.3,3.2-0.6,4.4c-0.3,1.1-0.6,1.9-1,2.3
			c-0.4,0.4-0.9,0.6-1.6,0.6c-0.2,0-0.5,0-0.8-0.1v5.4c0.5,0.2,1,0.2,1.7,0.2c1.1,0,2-0.2,2.8-0.5c0.8-0.3,1.5-0.7,2-1.2
			c0.6-0.5,1-1.2,1.4-2.2c0.4-0.9,0.7-1.9,0.9-2.8c0.2-0.9,0.4-2.2,0.6-3.7c0.1-1.5,0.2-2.9,0.3-4.3c0-1.3,0.1-3,0.1-5h6.3V191h5.8
			v-24.5H289.3z"/>
		<path class="st0" d="M320.8,166.5c-6.6,0-9.9,2.7-9.9,8.2c0,3.3,1.4,5.6,4.3,7.1l-5.5,9.1h6.2l4.5-7.9h3.5v7.9h5.8v-24.5H320.8z
			 M324.1,178.4h-2.9c-1.4,0-2.4-0.3-3.2-0.9c-0.8-0.6-1.2-1.4-1.2-2.6c0-2.3,1.3-3.4,4-3.4h3.3V178.4z"/>
		<path class="st0" d="M354.8,185.9v-19.3h-17l-0.1,2.7c-0.1,4.2-0.4,7.5-0.8,10.1c-0.4,2.6-1.1,4.7-2.2,6.5h-2.3v10.6h5.4V191h14.5
			v5.5h5.4v-10.6H354.8z M349.1,185.9h-8.4c1.3-3,2.1-7.3,2.4-12.9c0-0.5,0-0.9,0.1-1.3h5.9V185.9z"/>
		<path class="st0" d="M375.6,166.5h-7.8l-8.1,24.5h5.7l1.6-5.1h9.2l1.6,5.1h5.9L375.6,166.5z M368.5,180.9l3-10l3,10H368.5z"/>
		<path class="st0" d="M399.5,158.8c-0.3,1.5-1.2,2.2-2.9,2.2c-0.8,0-1.5-0.2-1.9-0.5c-0.5-0.3-0.8-0.9-1-1.7l-4.5,0.4
			c0.1,1.8,0.8,3.2,2.2,4.1s3.1,1.4,5.3,1.4c2.1,0,3.9-0.5,5.2-1.4c1.3-0.9,2.1-2.3,2.2-4.1L399.5,158.8z M401.1,166.5l-9.4,16.4
			v-16.4H386V191h6.1l9.4-16.4V191h5.8v-24.5H401.1z"/>
		<path class="st0" d="M410,166.5v5.3h6.9V191h5.8v-19.2h6.9v-5.3H410z"/>
		<path class="st0" d="M448.4,171.6v-5h-16.2V191h16.2v-5H438v-5.1h9.1v-4.6H438v-4.7H448.4z"/>
	</g>
	<g>
		<path class="st24" d="M346.3,402.9c-1,0.1-2.1,0.1-3.2,0.2C344.3,403,345.3,403,346.3,402.9z M340.6,243c1.8,0,3.5,0.1,5,0.1
			C344.1,243.1,342.4,243,340.6,243z"/>
		<path class="st24" d="M447.7,273.2c0-14.3-12.7-24.1-26.3-20.6c-1.7,0.4-4,1.5-6.8,3.1c-13.8,8.1-26.3,15.4-37.6,22c0,0,0,0-0.1,0
			c-0.2,0.1-0.3,0.1-0.3-0.2c0.3-10-2.9-18.3-9.6-25c-4.8-4.8-10.5-7.8-17-9c-0.7-0.1-1.5-0.2-2.5-0.3c-0.3,0-0.5,0-0.8-0.1
			c-0.3,0-0.7,0-1-0.1c0,0,0,0-0.1,0c-1.5-0.1-3.2-0.1-5-0.1c-0.7,0-1.4,0-2.1,0c-29.3,0.1-57,0.1-83.1,0c-6.4,0-12.7,0-19,0h-1.7
			c-1.8,0-3.6,0-5.4,0c-4.7,0-8.3,0.3-10.7,0.8c-15.3,3.6-25.6,16.6-25.6,32.4c0,30.3,0,61.2,0,92.8c0,3.3,0.3,6.2,0.8,8.6
			c3.5,15.1,16.7,25.5,32.2,25.5c27.1,0,54.2,0,81.1,0c11.1,0,22.2,0,33.2,0c0.5,0,1,0,1.5,0c0.5,0,0.9,0,1.4,0
			c1.1,0,2.2-0.1,3.2-0.2c0.1,0,0.1,0,0.2,0c0.3,0,0.6,0,0.9-0.1c1.4-0.1,2.6-0.3,3.6-0.5c6.3-1.4,11.8-4.4,16.4-9.2
			c6.4-6.6,9.4-15,9.2-24.5c0-0.3,0.1-0.4,0.4-0.2c0,0,0,0,0,0c12.4,7.2,24.8,14.5,37.4,21.9c3,1.8,5.5,2.9,7.4,3.4
			c13.7,3.3,26-6.6,26-20.7C447.6,338.8,447.6,305.6,447.7,273.2z M429.9,373.4c0,2.7-2.7,3.7-4.8,2.4
			c-16.1-9.5-32.2-18.8-48.1-28.1c0,0-0.1,0-0.1-0.1c-0.1,0-0.1-0.1-0.1-0.2v-48.7c0-0.2,0.1-0.3,0.2-0.4c0,0,0,0,0,0
			c16-9.3,32.1-18.7,48.4-28.2c2-1.2,4.5,0.1,4.5,2.5C429.9,306.3,429.9,340,429.9,373.4z"/>
		<path class="st24" d="M228.6,243c2,0,4,0,6,0c-1.8,0-3.6,0-5.4,0c-4.7,0-8.3,0.3-10.7,0.8c-15.3,3.6-25.6,16.6-25.6,32.4
			c0,30.3,0,61.2,0,92.8c0,3.3,0.3,6.2,0.8,8.6c3.5,15.1,16.7,25.5,32.2,25.5h-0.5c-15.5,0-28.7-10.3-32.2-25.5
			c-0.6-2.4-0.8-5.3-0.8-8.6c0-31.5,0.1-62.4,0-92.8c0-15.8,10.3-28.8,25.6-32.4C220.4,243.3,224,243,228.6,243z"/>
		<path class="st24" d="M236.3,323c6.2,0,12.6,0,19,0C248.9,323,242.6,323,236.3,323z"/>
		<path class="st24" d="M340.2,323c0.5,0,1,0,1.5,0c-0.7,0-1.4,0-2.1,0c-10.9,0-21.8,0-32.7,0C318.1,323,329.2,323,340.2,323z"/>
		<path class="st24" d="M376.9,306c0.3,9.5-2.7,17.9-9.1,24.5c-4.7,4.8-10.2,7.8-16.5,9.2c-1,0.2-2.4,0.4-4,0.5
			c1.4-0.1,2.6-0.3,3.6-0.5c6.3-1.4,11.8-4.4,16.4-9.2c6.4-6.6,9.4-15,9.2-24.5c0-0.3,0.1-0.4,0.4-0.2c0,0,0,0,0,0V306z"/>
		<path class="st24" d="M376.9,298.3C376.9,298.3,376.9,298.3,376.9,298.3c0,14.8,0,34.6,0,49.4c0,0-0.1,0-0.1-0.1
			c-0.1,0-0.1-0.1-0.1-0.2v-48.7C376.7,298.5,376.8,298.4,376.9,298.3z"/>
		<path class="st24" d="M377,340v0.1c0,0,0,0-0.1,0c-0.2,0.1-0.3,0.1-0.3-0.2c0.3-10-2.9-18.3-9.6-25c-4.8-4.8-10.5-7.8-17-9
			c-0.7-0.1-1.5-0.2-2.5-0.3c1.2,0.1,2.1,0.2,2.9,0.3c6.5,1.2,12.2,4.2,17,9C374,321.7,377.2,330,377,340z"/>
		<g>
			<path class="st0" d="M279,258.2h9.6c1.3,0.1,2.5,0.2,3.8,0.3c5.6,0.4,11,1.2,16.4,2.4c5.6,1.3,11,3.2,15.9,5.9
				c4.5,2.6,8.2,6.2,11,10.8c2.9,4.8,4.8,10.3,5.9,15.7c1,4.8,1.6,9.9,1.9,15.4c0.3,8.2-0.1,16.8-1.3,25.7
				c-1.7,12.9-7.5,24.5-19.3,30.7c-2.3,1.2-5,2.2-8,3.1c-3.8,1.1-7.3,1.9-10.5,2.5c-10,1.7-19.9,2.1-29.9,1.3c-0.1,0-0.2,0-0.2,0.1
				c-2.5,3.1-5.1,6.1-7.6,9c-1.2,1.4-2.4,2.7-3.7,4c-1.2,1.2-2.5,2.3-4.1,2.7h-1.4c-1.3-0.2-2.2-0.8-2.8-1.7
				c-0.8-1.2-1.2-2.8-1.2-4.8c0-4,0-8.3,0-13.1c0-0.1,0-0.2-0.1-0.2c-10.6-3.1-18.2-9.5-22.9-19.1c-3.3-6.8-4.9-14.7-5.4-22.4
				c-0.4-6.7-0.4-13.9,0-21.6c0.3-4.8,1-9.3,2-13.7c1.9-8.2,6-16.9,12.9-22c6.1-4.4,13.4-7.1,20.9-8.7
				C266.9,259.2,272.9,258.5,279,258.2z M257,359.8c0,6.6-0.1,13.8-0.1,21.6c0,0.5,0.1,0.9,0.2,1.4c0.4,1.3,1.7,0.8,2.4,0.1
				c1.5-1.6,3-3.3,4.5-5.1c4.2-5,8.2-10,12.2-14.9c0-0.1,0.1-0.1,0.2-0.1c9,0.6,17.8,0,26.6-1.6c1.6-0.3,3.3-0.7,5-1.1
				c2.5-0.6,4.3-1.1,5.3-1.5c12.8-4,18.8-14.9,20.3-27.5c1.2-10.2,1.4-21.1,0-31.1c-0.8-5.7-2.3-11.3-5-16.4
				c-2.5-4.7-6.2-8.1-11.1-10.3c-5.4-2.4-11.3-3.9-17.2-4.9c-9-1.4-18-1.7-26.9-0.8c-5.9,0.6-11.3,1.7-16.3,3.4
				c-5.4,1.8-10.9,4.6-14.5,9c-6.4,7.9-8.3,18.3-8.7,28.3c-0.2,4.4-0.2,8.5-0.2,12.3c0.1,13.4,2.9,27.8,15.1,35.4
				c2.4,1.5,5.1,2.7,8,3.5C257,359.7,257,359.7,257,359.8z"/>
			<path class="st0" d="M308.1,298.1c-5.3-8.7-14.3-13.2-24.5-13.4c-0.6,0-1-0.1-1.3-0.4c-0.8-0.6-0.8-2,0-2.6
				c0.3-0.2,0.7-0.3,1.3-0.3c3.5,0.1,6.6,0.6,9.4,1.4c8.4,2.5,14.7,7.7,18.8,15.5c2.9,5.5,4,11.6,4.2,18.1c0.1,2.3-3.2,2.5-3.2,0
				C312.8,310,311.4,303.6,308.1,298.1z"/>
			<path class="st0" d="M269.6,307.6c-1.2,1-1.7,2.9-1.2,4.3c1.4,4.2,3.4,7.9,6,11.1c3.6,4.5,8.1,7.6,13.5,9.3
				c0.7,0.2,1.4,0.3,2.1,0.2c1-0.2,1.7-0.6,2.3-1.3c0.8-1,1.5-1.9,2.2-2.9c1.6-2.1,4.4-2.3,6.6-1c3.7,2.2,7.1,4.7,10.2,7.4
				c1.1,1,1.8,1.8,2.1,2.4c0.9,1.9,0.2,3.9-0.9,5.7c-2.2,3.4-5.7,7.5-10,7.6c-0.8,0-1.8-0.2-3-0.7c-2.5-0.9-5.2-2.2-8.1-3.7
				c-5.4-2.9-10.2-5.9-14.2-9c-10.6-8.1-18.1-19.2-23.2-31.6c-0.7-1.8-1.5-3.6-2.3-5.4c-0.4-0.9-0.7-1.7-0.7-2.5
				c-0.3-4.9,4.4-9.2,8.3-11.5c2.1-1.2,4.3-1.1,5.9,0.8c3.2,3.8,6,7.7,8.3,12c1.1,2.1,0.7,4.9-1.2,6.6
				C271.4,306.1,270.5,306.8,269.6,307.6z"/>
			<path class="st0" d="M294.8,292c5.9,2.6,9.8,7,11.8,13.2c0.7,2.2,1.1,4.8,1.1,7.9c0,1.2-0.7,2.2-2,1.9c-1-0.2-1.2-1.1-1.2-2
				c0.1-6.6-2.5-12.8-8.1-16.4c-2.9-1.9-6.2-3-10.1-3.3c-0.4,0-0.8-0.1-1.1-0.3c-1-0.6-1-2.3,0.1-2.8c0.3-0.2,0.8-0.2,1.3-0.1
				C289.8,290.3,292.5,291,294.8,292z"/>
			<path class="st0" d="M288.7,298.7c4.2,0.3,7.8,2,9.6,5.9c0.9,1.9,1.3,3.9,1.3,5.9c0,0.9-0.5,1.4-1.4,1.5
				c-1.2,0.2-1.7-0.7-1.8-1.8c-0.2-4.1-1.9-7.2-6-8.1c-0.5-0.1-1-0.2-1.5-0.2c-1.1,0-2-0.5-1.9-1.7
				C287,299.3,287.7,298.7,288.7,298.7z"/>
		</g>
	</g>
</g>
</svg>
