<?xml version="1.0" encoding="utf-8"?>
<!-- Generator: Adobe Illustrator 26.5.0, SVG Export Plug-In . SVG Version: 6.00 Build 0)  -->
<svg version="1.1" id="Шар_1" xmlns="http://www.w3.org/2000/svg" xmlns:xlink="http://www.w3.org/1999/xlink" x="0px" y="0px"
	 viewBox="0 0 640 640" style="enable-background:new 0 0 640 640;" xml:space="preserve">
<style type="text/css">
	.st0{fill:#FFFFFF;}
	.st1{fill:#238B00;}
	.st2{fill:#E46228;}
	.st3{fill:none;stroke:#FFFFFF;stroke-miterlimit:10;}
	.st4{fill:none;stroke:#FFFFFF;stroke-width:0.25;stroke-miterlimit:10;}
	.st5{fill:none;stroke:#E46228;stroke-miterlimit:10;}
	.st6{fill:#E46228;stroke:#E46228;stroke-miterlimit:10;}
	.st7{fill:#FEFEFE;}
	.st8{fill:#FCFCFC;}
	.st9{fill:#3B3B3B;}
	.st10{fill:#228000;}
	.st11{fill:#020202;}
	.st12{fill:#010101;}
	.st13{fill:#0F0F0F;}
	.st14{fill:#FEFEFD;}
	.st15{fill:#E0ECDB;}
	.st16{fill:#FDFDFC;}
	.st17{fill:#DF6232;}
	.st18{fill:#E06331;}
	.st19{fill-rule:evenodd;clip-rule:evenodd;fill:#238035;}
	.st20{fill-rule:evenodd;clip-rule:evenodd;fill:#E46228;}
	.st21{fill:#238035;}
	.st22{fill:none;stroke:#E46228;stroke-width:12;stroke-miterlimit:10;}
	.st23{fill:#E77440;}
	.st24{fill:#594543;}
	.st25{font-family:'Fact-Bold';}
	.st26{font-size:109.7459px;}
	.st27{font-size:54.7526px;}
	.st28{fill:#8E24AA;}
</style>
<text transform="matrix(1 0 0 1 159.0753 320.7399)" class="st24 st25 st26">КРАМ</text>
<text transform="matrix(1 0 0 1 153.3253 402.1354)" class="st24 st25 st27">НАТХНЕННЯ</text>
<g>
	<polygon class="st22" points="518.5,436.2 518.5,206.9 319.9,92.3 121.4,206.9 121.4,436.2 319.9,550.8 	"/>
</g>
<g>
	<g>
		<g>
			<g>
				<g>
					<path class="st23" d="M431.3,200.5c0.1,0.1,0.2,0.2,0.2,0.2C431,200.2,431.3,200.5,431.3,200.5z"/>
					<polygon class="st23" points="426,197 426.1,197 425.3,196.6 					"/>
					<path class="st23" d="M421,193.8c0.3,0.6,1.8,1.1,2.7,1.8l0.1,0.1l0.5,0.1C423.2,195.1,421.7,194.3,421,193.8z"/>
					<path class="st23" d="M418.7,191.3c0.1,0.2-0.6-0.3,0.6,0.5c0-0.1-0.1-0.1-0.1-0.1C419.1,191.6,419,191.5,418.7,191.3z"/>
					<path class="st23" d="M419.2,191.7C419.7,192,419,191.3,419.2,191.7L419.2,191.7z"/>
					<path class="st23" d="M416.8,190.1l0.8,0.3c-0.1-0.2-0.7-0.6-0.4-0.5C416.4,189.5,416.5,189.7,416.8,190.1z"/>
					<path class="st23" d="M416,189.9l0.4,0.2C416.3,190.1,416.3,190,416,189.9z"/>
					<path class="st23" d="M417.2,190.5l-0.8-0.4c0.1,0.1,0,0.3,0.4,0.2C416.6,190.4,416.8,190.4,417.2,190.5z"/>
					<path class="st23" d="M417.6,190.9c0.3,0.3,0.8,0.7,0,0.4C419,192.1,418.9,191.7,417.6,190.9z"/>
					<path class="st23" d="M420.6,193.9l0.5,0.4l0.5,0.2C421.3,194.4,420.6,193.8,420.6,193.9z"/>
					<path class="st23" d="M412.7,187c-0.1,0.1,0.1,0.4,0.1,0.6l0.6,0.2C413.1,187.5,412.7,187.1,412.7,187z"/>
					<path class="st23" d="M412.8,187.5l-0.9-0.3C412.6,187.7,412.7,187.7,412.8,187.5z"/>
					<path class="st23" d="M415.6,190.3l1.4,0.5c-0.6-0.2-1.1-0.5-1.7-0.7L415.6,190.3z"/>
					<polygon class="st23" points="409.8,185 410.4,185 409.4,184.9 					"/>
					<path class="st23" d="M407.9,183.7c0.4,0-0.2-0.7,0.2-0.6c-0.5-0.3-1.1-0.4-1.6-0.5C407,182.8,407.4,183.1,407.9,183.7z"/>
					<path class="st23" d="M405.7,182.4c0.2,0.1,0.5,0.1,0.8,0.2C406.3,182.5,406,182.4,405.7,182.4z"/>
					<path class="st23" d="M410.6,186.3c0-0.1,0-0.3-0.4-0.7l0.1,0.5C410.4,186.1,410.5,186.2,410.6,186.3z"/>
					<path class="st23" d="M410.3,186.1L410.3,186.1c-0.3-0.2-0.5-0.4-0.6-0.5C409.8,185.7,410,185.8,410.3,186.1z"/>
					<path class="st23" d="M410.7,186.3C410.7,186.3,410.7,186.3,410.7,186.3C410.6,186.3,410.7,186.4,410.7,186.3z"/>
					<path class="st23" d="M413.7,188.8c-0.5-0.2-1.6-0.6-0.8,0.2C413.4,189,412.9,188.6,413.7,188.8z"/>
					<path class="st23" d="M410.9,187l0.8,0.6c0-0.1-0.1-0.3,0.2-0.2L410.9,187z"/>
					<polygon class="st23" points="410.4,186.8 410.9,187 410.6,186.7 					"/>
					<path class="st23" d="M406.9,183.6c-0.4-0.1-0.8-0.3-1.3-0.6c0.4,0.4,0.9,0.7,1.3,1C407.1,184,407.4,183.9,406.9,183.6z"/>
					<path class="st23" d="M408.6,184.9C408.5,184.9,408.5,184.8,408.6,184.9C408.5,184.9,408.5,184.9,408.6,184.9z"/>
					<polygon class="st23" points="401.4,180.3 401.4,180.4 401.4,180.3 					"/>
					<path class="st23" d="M407,184.2c0.3,0.3,0.6,0.3,0.8,0.4c-0.3-0.1-0.6-0.3-0.9-0.5C406.9,184.1,406.9,184.1,407,184.2z"/>
					<path class="st23" d="M404.4,181.8c0.1,0.2,0.3,0.4,0.5,0.6C404.8,182.1,404.5,181.7,404.4,181.8z"/>
					<path class="st23" d="M408.4,184.7L408.4,184.7C408.4,184.5,408.4,184.6,408.4,184.7z"/>
					<path class="st23" d="M408.4,184.7c-0.2-0.1-0.4-0.1-0.6-0.1c0.2,0.1,0.4,0.2,0.6,0.3C408.4,184.8,408.4,184.7,408.4,184.7z"/>
					<path class="st23" d="M398.6,182.1c0.3-0.3,1.4-0.1,2,0.7c1,0.2,1.1-1.3,0.8-2.4c-0.1,0.1-0.2,0.3-1.1,0
						c0.2,0.4,1.5,1.6,0.7,1.5c-1.2-0.5-0.8-0.7-1.2-1.2c0.2,0.7-1.8-0.1-1.9,0.7l1.1,0.3C398.8,181.8,398.3,181.8,398.6,182.1z"/>
					<path class="st23" d="M402.9,181.4l0.4,0.2c-0.3-0.3-0.5-0.6-0.9-1.2c-0.6-0.2-0.8-0.1-0.9,0l1.6,1.1L402.9,181.4z"/>
					<path class="st23" d="M404.7,182.5c-0.5,0.2-1.4-0.1-1.1,0.6c1,0.6,0.9,0.1,1.5,0.3C403.5,182.5,405.7,183.5,404.7,182.5
						c0.3,0.2,0.6,0.3,0.9,0.5c-0.3-0.2-0.5-0.5-0.7-0.7c0,0,0,0,0,0l0,0l0,0c0,0.1,0,0.1,0,0.1c0,0,0,0,0,0
						C404.8,182.5,404.8,182.5,404.7,182.5c-0.4-0.4,0-0.1,0.2-0.1c0,0,0,0,0.1,0l0,0l-1.7-0.8C403.5,181.9,404,182.1,404.7,182.5z"
						/>
					<path class="st23" d="M411.8,189.1C411.7,189,411.7,189,411.8,189.1C411.6,189,411.6,189,411.8,189.1z"/>
					<path class="st23" d="M411.2,188.5c0.1,0,0.3,0,0.7,0.2c0.3,0.3-0.1,0.1-0.1,0.2c0.3,0.1,0.9,0.3,0.3-0.3l-0.1,0
						c-0.6-0.5-1.2-1.4-1.1-1.3C410.9,187.7,410.9,188,411.2,188.5z"/>
					<path class="st23" d="M407.8,185.7l-1.4-0.7l0.5,0.7l0.1-0.2C407.7,186.1,407.7,185.7,407.8,185.7z"/>
					<polygon class="st23" points="401.3,180 401.7,179.7 400.6,179.8 					"/>
					<polygon class="st23" points="399.6,178.9 399.9,178.6 399.3,178.5 					"/>
					<path class="st23" d="M301.9,150.6l-0.3,0.4C301.7,150.9,301.8,150.7,301.9,150.6z"/>
					<path class="st23" d="M304.8,149l-0.1-0.4C304.6,148.9,304.7,149.1,304.8,149z"/>
					<path class="st23" d="M357.5,152.6c-0.2-0.9-0.3-2.2-0.7-1.5l-0.2,0.8C357.1,152.1,357.4,152.3,357.5,152.6z"/>
					<path class="st23" d="M325.8,139.8c0,0.1,0,0.2,0,0.3c0.3-0.2,0.6-0.3,0.8-0.5C326.4,139.7,326.1,139.7,325.8,139.8z"/>
					<path class="st23" d="M323.6,142.7l-0.5-0.9C323.2,142,323.3,142.3,323.6,142.7z"/>
					<path class="st23" d="M286.5,160.1l-0.1,1C287.2,160.7,286.7,160.5,286.5,160.1z"/>
					<path class="st23" d="M382.1,168c-0.4-0.5-0.7-0.9-1-1.1C381.4,167.6,381.6,168.3,382.1,168z"/>
					<path class="st23" d="M298.5,142.2c-0.2,0.3-0.2,0.5-0.1,0.6C298.6,142.5,298.7,142.3,298.5,142.2z"/>
					<path class="st23" d="M379.6,166c0.1,0.1,0.1,0.2,0.2,0.3c0.4,0.1,0.8,0.3,1.2,0.6C380.7,166.4,380.3,165.9,379.6,166z"/>
					<path class="st23" d="M228.2,190c-0.1,0-0.1,0-0.2,0C228.1,190.1,228.2,190.1,228.2,190z"/>
					<path class="st23" d="M210.6,197.5c0.2-0.1,0.4-0.3,0.6-0.4C211.1,197.1,210.9,197.3,210.6,197.5z"/>
					<path class="st23" d="M392.9,174.3C393.3,174.5,393,174.3,392.9,174.3L392.9,174.3z"/>
					<path class="st23" d="M393.6,177.3c-0.1,0-0.2,0-0.3,0.1C393.4,177.3,393.5,177.3,393.6,177.3z"/>
					<path class="st23" d="M373.9,167.5C373.9,167.4,373.8,167.4,373.9,167.5C373.9,167.6,373.9,167.6,373.9,167.5z"/>
					<path class="st23" d="M393.3,174.9c-0.1-0.1-0.2-0.3-0.4-0.4C393,174.5,393.1,174.6,393.3,174.9z"/>
					<path class="st23" d="M393.4,174.6c0.1,0.1,0.2,0.2,0.3,0.2C393.7,174.8,393.7,174.7,393.4,174.6z"/>
					<path class="st23" d="M392.4,174c0.2,0.1,0.4,0.3,0.6,0.4c-0.1-0.1-0.1-0.1,0-0.1C392.8,174.2,392.6,174.1,392.4,174z"/>
					<path class="st23" d="M258.6,172.5c0,0-0.1,0-0.1,0C258.3,172.9,258.4,172.8,258.6,172.5z"/>
					<path class="st23" d="M343.7,154.4C343.7,154.4,343.7,154.3,343.7,154.4C343.7,154.3,343.7,154.3,343.7,154.4L343.7,154.4z"/>
					<path class="st23" d="M342,154.1c1.1-0.6,1.3-0.3,1.7,0.1l0.8-2.3L342,154.1z"/>
					<path class="st23" d="M295.1,154.7l1.3,0.1c-0.5,1.7-1.6,1.8-0.2,2.2c-1.2-2.3,3.5-2.3,2.4-4.6l0.9,0.1
						c-0.2,0.1-0.1,0.2-0.3,0.3c1.8,0.4-0.1-2.2,1.7-2.7c0.6-0.1,1.2,0,1,0.5l0.9-1.3c0.4-0.2,0.5,0.3,0.1,0.4l1.7-1.2l0,0.1
						c0.1-0.5,0.3-1.4,0.5-1.8c0.7,0.1-0.1,0.4,0.2,0.6l0.7-1.1c0.8,0.4,0.3,1.4-0.5,1.7c2.3,1.8,0.5-1.1,3.3-0.9l-0.8,0.8
						c1.4,1,1.9,0.1,3.4,0.3c-0.5-0.3-3.4-0.8-2.6-2.1c0.4,0,0.9-0.2,1.2-1c0.5,0.8,0.9,0.3,1.6-0.2l0.6,1.1
						c0.6-0.8,0.2-1.3,0.4-2.1c0.9-0.4,1.6,0.4,2.2,1c1.5-0.6-1.8-0.8-0.2-2c0.7-0.1,1.2-0.4,1.6-0.9c0.2-0.2,0.4-0.5,0.6-0.8
						c0-0.1,0.1-0.2,0.1-0.2l0-0.2c0-0.1,0.1-0.3,0.1-0.4c0.5,0.1,0.2,0.8,0.5,1c-0.1-0.4-0.1-0.8-0.1-1.2c0.1,0,0.1,0.3,0.2,0.4
						c0.2-0.6-0.3-1.2,0.2-1.9c0-0.4,0.1-0.5,0.3-0.5c0.1,0,0.2,0.1,0.3,0.1c0,0,0.1,0.1,0.1,0.1c0,0.1,0.1,0.2,0.1,0.3
						c0.4,0.8,0.6,1.4,1.1,0.8c0,0.5-0.3,0.7-0.4,1.2c1-0.5,0.7-0.3,2.8-0.8l0.7,1.4c-0.4-1.3,1.3-1.7,2.7-1.9
						c-0.1-0.6-0.1-1.1-0.2-1.3l1.8,0.3c0.1,0.3-0.3,0.6-0.8,0.9c0.2,0,0.3-0.1,0.4-0.1c0.3,0.7-0.3,1.2-1.1,1.6
						c-0.1-0.3-0.1-0.7-0.1-1c-0.8,0.5-1.5,1-1.8,1.7c0.2-0.1,0.4-0.1,0.7,0c-0.2,0.1-0.4,0.3-0.4,0.4c0,0.1,0.3,0,0.7-0.2l-0.4,1.4
						l0.4-0.4l1.5,1.9c2.1-0.4,4.4-1.6,6.9-0.8c-1.1,0.6-1,1.4-1.6,2.4c0-1.5-2-0.5-3-1.4c0.5,0.5,0.1,0.9-0.1,1l2.6,0.1
						c-0.5,0.8,0.1,0.9,0.4,1.6c0.6-1.9,2.2-0.3,3.3-0.3c-0.3,0.6-0.8,1.1-1.8,0.4c0.4,1.9,2.6-1.2,3.1,0.5
						c-0.3-0.1-0.3-0.3-0.6-0.1c0.9-0.2,2.1,1,1.4,1.3l-0.3-0.1c1.5,1.1,5,2.9,6.1,1.6c-0.1,0.2-1.2,1.6-1.5,1.8l5.7-3.1
						c-1,1.1-1.6,4.5-3.4,4.4c0.3,0.4,0.7,0.9,1.7,0.9c-0.2-0.3,0.3-2.1,0.8-2c0.2,1.9,0.3,1.1,0.9,2.9c-0.3-0.5,1.3-2.1,1.9-1.7
						c-0.3,0.2-1,1.9-1.4,1.9l2.6-0.9c-0.6,0.1-1,1.5-0.9,2.2c0-0.4,1.4,0.8,1.9,0.9l-0.4-0.8c1.6,1.3,3.2-1.5,4.9-0.4
						c-0.4,0.2-1.8,2-1.1,2.7c0.9-0.7,4.3-3.3,6.3-3.1l0,0.7l1.5,0.1c-1.5,0.9-5.2,2.5-7,3c0.4,0.8-0.2,0.7,0.9,1.2
						c0.1,0.7-1,0.4-1.3,0.3l2.2,1.6c0.5-1.1,2.4-0.1,2.8-1l-3.2-0.3c0.5-1.1,3.2-2.1,4.7-1c0.2,0.6-1.4,1.6-1.5,2
						c0.4-0.2,2,0.2,2,0.5l-1,0.2c0.7,0.9,2.3-0.5,2.8,1.1c0.3,0.3,0.4,1.9,0.8,1.4c0-1.5,1.9-5.1,2.8-5.7c0.1,0.2,1.4,2.3,1.5,3
						c0.1,1.2-2.1,1.5-2,2.6c0.2-0.3,0.7-0.4,0.9-0.4c0.3,0.4-0.6,0.7,0.3,1.1c0.7-0.9,1.7,1.1,0.9-0.6c1,0.2,0.8,0.7,1.8,1.2
						c0-0.8,2.1-1.6,3.1-1.4c-0.2,0.2-0.2,0.6-0.2,0.8c1.7,1.1,2.4,2,4,3c0,0.3,0.7,1,0.1,1.2c0.3,0,0.7-0.2,1.2,0.1
						c0.5,1.3-1.2-0.5-1,0.8c0.4-0.5,1.7,0,2.6,0.1c0.2-0.9-1.6-1.1-2.5-1.2c0.6-1.1,2.5-1.5,4.5-1c1.5,0.5,0.2,1,0.5,1
						c2.4,1.7,3.2-0.5,4.8,1.5c0.5,1.1-0.7,1.3-0.8,1.8c-1.2-0.4-1.4-1.4-2.2-1.8l0.7,0.8c-0.5,0-1.3-0.2-1.6-0.7
						c0.4,1,4.2,2.6,5.9,4.2c0.5,0,1.2,0.1,1-0.3l-0.7-0.3c-0.3-0.8,1.5,0,0.9-0.7c1,0.2,2.2,0.2,3.2,1.2l-0.2,0.8
						c0.1-0.2-0.5-0.8-1-0.8c0.6,0,1.3,1.9,2.3,1.4l-0.6-0.9c1,0.2,2.4,0.2,3.3,1c-0.1-0.9-0.3-0.1-0.6-1.2c0.1,1.3-2.5-1.7-2.1-0.1
						c-0.2-1.3-1.1-1.2-1.6-2.5c-0.1,0.2,0.1,0.6-0.7,0c-0.1,0-0.2,0.1-0.3,0.1c0,0,0,0,0-0.1l0,0.1c-0.1,0-0.1,0,0,0
						c0.1,0.2,0.2,0.4,0.2,0.6c-0.7,0.2-2.1-0.6-2.7-0.6c-0.4-0.4,0.4-0.1,0.2-0.5l-0.9,0c0.2-0.5-0.8-1.7,0.5-1.2l-1-0.7
						c-0.5-0.7-1.2-1.4-1.9-1.5c-0.4-0.4-1.6-0.2-0.9-0.4l-1.9-0.7l0.1-0.1c-1.6-1.1-4-1.2-5.2-3.4c-0.6-0.2-1.3-0.4-2.2-1.1
						l0.1-0.6c-0.8-0.3-1.8-1.9-2.5-1.5c0.1-1.9-3.3-2.5-4.4-3.6l-0.5,0.7c-0.8-0.6-1.8-0.9-3.1-1.2l-0.3,0.7
						c-1.3,0-2.1-1.9-3.6-2.8c0.3-0.2,0.6,0.1,0.8,0.4c-0.9-2.6-4.4-1.1-5.3-3.2c-0.5,0-0.8-0.2-1-0.6c0,0,0.1,0,0.1,0
						c0,0-0.1-0.1-0.2-0.1c-0.1-0.2-0.2-0.5-0.3-0.7c0.1,0.3,0.1,0.5,0.2,0.7c-0.3-0.2-0.8-0.4-1.4-0.5l0.2-0.9c0,0-0.1,0-0.1,0
						c-0.3-0.6-0.6,0.1-0.7,0.9c-0.3,0-0.6,0-0.9,0.1c0.4-1.5-1.4-0.3-1.2-1.9c-0.7,0.5-2.6-0.9-3.6,0.4c0.1-0.2,0-0.4,0.3-0.2
						c-0.4-0.5-0.8-0.9-1.5-0.8l0.4-1.1l-1.9,0.7c-0.3-1-0.4-1.5,0.7-1.9c-2.3,0.2-1.6-0.3-3.7,0l0.4-0.6c-0.5-0.3-1.8,0.2-1.8-0.6
						c-0.4-1.9-5.4-3.4-7.6-6.3c-0.6,2.3-0.8-1.7-1.8-0.2c0.1-0.6-0.1-1.1,0.6-1.2c-1.7-0.4-1.8-2-3.5-1.3c0.1-0.6,0.7-0.5,0.7-0.9
						c-0.2,0-0.7,0.1-0.7-0.2c0-0.4,0.4-0.3,0.8-0.3c-1.5-0.8-2.5,0.6-3.4,1.9c-0.4-1.1-0.8-1.2-1.9-0.6c0-0.6-0.2-1.3,0.9-1
						c-0.2-0.2-0.9-0.8-1.7-1.3c-0.4-0.2-0.7-0.4-1.1-0.5c-0.3,0-0.7-0.1-0.9,0.2c-0.1-0.4-1-0.7-1.2-0.6c-1.6-1-1.7-1.3-3.3-2.1
						l0.4,0.5c-0.2,0.3-0.3,0.5-0.5,0.5c-0.1,0-0.2,0-0.2,0c-0.1,0.1-0.2,0.1-0.3,0.1c-0.4,0.1-0.8,0.1-1.4,0.6l0-0.2
						c-1.5,0.3-1.8,0.6-2.1,0.9c-0.1,0.1-0.3,0.3-0.6,0.4c-0.2,0.1-0.3,0.1-0.6,0.2c-0.2,0-0.5,0.1-0.8,0.1l0.6,0.8
						c0.8,1.9-2.5,0-3.3,1.4l0.7,0.2c-0.3,1-3.3-1.3-4-1.2c-0.2-0.1,0.1-0.4,0.2-0.6c-2.3,0,0.4,1.2-0.8,2.2
						c-0.6-0.4-0.5-1.7-1.5-1.3c-0.7-0.2-1.4,3.4-3.3,3c0.5,0.3,1,0.6,0.6,1.3c-0.8,0.7-3.5-0.2-3.5,1.7c-0.2-0.1-0.3-0.1-0.4-0.2
						c-0.5,0.8-2,1.9-1.9,2.9c-2.3-2.4-3.6,3.9-5.1,1.4l-2.1,1.4l-0.1-0.3c-1.5,0.7-1.6,1.5-1.8,2.4c-0.4,0-0.3-0.4-0.4-0.5
						c-2.3,0.7-2.4,0.9-3.4,3.2l-0.6-0.7c-0.2,0.7-3.6,0.5-5.1,2.6c0-0.1-0.1-0.3,0-0.5c-1.7,2.2-6.5,1.1-5.8,4.4l-1.1,1.5
						c2-0.9,0.4,1.3,1.4,1.3c-0.7,0.6-2.4,0.3-1.6-0.3l0.2,0c-0.5-1.6-2.7,0.9-3.1,0c-3.7,2.3-7.8,3.8-11.2,5.9l1,0.7l-1.3,0.7
						c-0.4,0-0.9-0.5,0-1c-0.8-0.3-1.2,1.3-1.1,1.6c-1.9,0.7,0-1.5-0.5-1.2l-0.7,0.5l0.2,0c-0.4,0.7-0.2,1.2-1.2,1.8
						c-0.8,0.2-0.7-0.3-0.9-0.2c0-0.1-0.1,0-0.4,0.2l-1.6,0.9l1,0.3c-0.5,0.8-1.5,0.8-0.3,1.2c-1.7-0.6-6,3.1-6.8,3.1
						c-0.7,1-1.6,1.6-2.8,2.3c0.4-0.1,0.9,0.5-0.1,1c-0.4-1.6-2.2,0.5-3.5,0.1c1.1,0.2-2.7,1.9-1.1,2.1c-0.9,0.4-0.3-0.4-1.1-0.3
						c-1.7,1.7-4.5,2.5-6.8,4.2c0,0.2,0.6,0.1,0.1,0.6c-0.6,0.1-1.1,0.1-1.6,0.2c-0.4,0.4,0,1-1.2,1.1c0.2,0,0.5,0.1,0.2,0.3
						c-2.6,1.2-4.9,2.9-7.3,4.5c-2.4,1.6-4.9,3.1-7.4,4.6c0.7-0.4,0.3-0.1-0.2,0.3c0.3-0.2,0,0.1,0.1,0.1c-0.7,0.4-1.4,0.8-2.1,1.2
						c-0.3,0.3-2.1,1.4-2.3,1.6l0.6-0.4c-0.8,0.6,1.3-0.6,1.2-0.4c0.5-0.3,1.2-0.6,1.9-1c0.8-0.3,1.6-0.7,2.4-1.3
						c0.4-0.1-0.3,0.2,0,0.2c0.4-0.3,0.8-0.6,1.8-1l-0.1,0.1c2.6-1.4,3.8-1.8,6.9-3.2l-0.4-0.1c0.7-0.3,0.8-0.3,1.2-0.4
						c0.5-0.8-1.8,0.9-1.4,0.1c1.1,0.1,4.5-2.4,5.4-2c1-0.5-0.5-0.2,0.5-0.7l0.4,0.1l0.1-0.4c0.7-0.3,1.1-0.2,1.3,0
						c-0.2,0.1-0.4,0.3-0.6,0.4c1-0.2,2.3-1.3,2.7-1.3l-1,0.3c2.6-1.6,6-2.9,8.3-4.8l-0.3-0.1c1.7-1.4,1.7-0.6,3.7-1.9l0,0.1
						c0.3-0.4,0.8-0.9,1.4-1.2c-0.4,0.6,1.3,0,0.8,0.7c1.9-1.6,0.8-0.9,1.7-2.6l0.6,0.2c0.3-0.6,0.2-0.8,1.2-1.5
						c-0.7,0.8,1,0.3,0.3,1.3c2.8-0.3,2.8-2.7,4.6-1.9c0.3-1.8-2.3,0.4-1.9-0.2c-0.7-0.1,0.3-1.4,1.1-1.6c0.7-0.4,2.1,0.9,3.9-0.1
						c-0.2,0.1-0.1,0.2-0.3,0.3c0.9,0,1.1-1.2,2.2-1.1c0-1,1.1-0.5,0.7-1.6l-1.5,1.1c0.8-0.8,1-2.4,2.8-2.7c0,0.3-0.3,0.8-0.5,1.1
						c0.6,0.1,0.7-0.7,1.4-0.6c0.5,1.1-1.9,1.3-2.4,2.6c0.7,0.2,1.5-1.8,1.6-0.4c-0.1-1.8,1.9-0.8,2.5-2.5l0.3,0.7
						c0.1-0.2,0.4-0.7,0.7-0.9l-0.2,1.2c0.6-1.2,2.3-0.4,3-1.3c-2,1.1-0.9-0.5-2-0.6c1.9-2.2,2.4,0.9,5-0.8
						c-0.3,0.3-1.6,0.3-1.2-0.3c0.6-0.1,1.4-0.3,2-0.1c1.7-1.1-0.7-0.5-0.1-1.4c1.1,0.5,0.7-0.8,1.3-1.5l0.4,0.7
						c2.3-0.7-0.3-1.8,1.9-2.2l-0.2,1.4l0.8-0.8l0.3,0.9c0.7-1.2,1.1-1.2,2.3-1.5c-0.5-0.4-0.6-1.4,0.3-1.9c0.9,0.1,0.1,0.9,1.3,0.1
						c0,0.6,0,1.4-1,1c0.1,0.3,0,0.6,0,0.9c1,0.1,1.8-0.8,2.2-1.1c-0.2,0.1-0.4,0.1-0.6,0.1l1.3-2.1c0.5,0.1,0.4,0.5,0.2,0.8
						c0.3-0.3,0.4-0.8,0.9-1.1c0.2,0.7,0.6,1.3,0,2l1.4-1.6c0.3,0.2,1.3,0.2,1.2,0.6c1.2-0.2,1.7-2.5,3.3-2.8c0-0.2,0.1-0.3,0.3-0.6
						c1.3-0.5,2.9-0.4,3.8-2l1.5,0.7c1-0.9-2-0.8-0.3-2.3c1.1-1.1,1.1,0.7,1.7,0.8c0.3-1,0.8-2.8,2.6-2.5
						C295.9,154.4,295.4,154.4,295.1,154.7z M308.9,146.2c-0.2,0.3-0.4,1.2-0.9,0.8C307.7,145.9,308.2,146.2,308.9,146.2z
						 M326.9,142.6c-0.4,0.2-0.6-0.2-0.8-0.7C326.4,142,326.7,142.2,326.9,142.6z M388.7,172.2C388.7,172.2,388.6,172.2,388.7,172.2
						C388.2,171.6,388.3,171.9,388.7,172.2z M389.8,173.2c0.2,0,0.2-0.1,0.2-0.2c-0.2,0.1-0.4-0.1-0.7-0.3
						C389.2,172.9,389.3,173.1,389.8,173.2z M252.3,170.7l0.3,0C252.2,171.2,252.3,171,252.3,170.7z"/>
					<path class="st23" d="M323.8,142.3c0-0.2,0.1-0.4,0.1-0.5C323.8,141.9,323.7,142.1,323.8,142.3z"/>
					<path class="st23" d="M286.6,160C286.5,160,286.5,160,286.6,160c0,0.1,0,0.1,0,0.2L286.6,160z"/>
					<path class="st23" d="M367.3,167.3c-0.2-0.2-0.3-0.5-0.3-0.6C366.9,166.8,366.9,167.1,367.3,167.3z"/>
					<path class="st23" d="M396.7,176.5l-0.9-0.4c0.4,0.2,0.5,0.4,0.6,0.6C396.5,176.6,396.5,176.3,396.7,176.5z"/>
					<path class="st23" d="M401.9,183.6c0.1,0,0.3,0.1,0.4,0.2l0.1-0.2C401.9,183.2,401.5,183.2,401.9,183.6z"/>
					<path class="st23" d="M396.5,178.6c-0.2,0.5,0.4,0.6,1,0.9c0,0-0.1,0-0.1-0.1C397.9,178.9,397.2,178.8,396.5,178.6z"/>
					<path class="st23" d="M397.7,179.5c0.2,0.1,0.4,0.2,0.5,0.3C398.4,179.7,398,179.7,397.7,179.5z"/>
					<path class="st23" d="M391.5,173.9c0.2,0.3,0.5-0.5,0.5-0.2C392.7,173.3,389.9,173.3,391.5,173.9z"/>
					<polygon class="st23" points="396.2,180.2 396.3,179.6 395.7,179.8 					"/>
					<path class="st23" d="M392,177.2l0.8,0.7c0-0.1,0.2-0.1,0.3,0C392.6,177.5,392.1,177.1,392,177.2z"/>
					<path class="st23" d="M393.1,177.9c0.3,0.2,0.6,0.3,0.8,0.3C393.7,178.1,393.4,178,393.1,177.9z"/>
					<polygon class="st23" points="394.9,179.7 394.7,179.4 394.1,179 					"/>
					<path class="st23" d="M382.4,171.5l-1.1-0.4c-0.2,0.2,0,0.5,0.4,0.6C382,171.7,382.5,171.8,382.4,171.5z"/>
					<path class="st23" d="M384.4,174.9c-0.2-0.3-0.1-0.4-0.2-0.7l-0.5,0.7L384.4,174.9z"/>
					<path class="st23" d="M381.4,173.5c-0.2,0.2-1.8-0.2-0.5,0.5C381.1,173.8,382.2,174.1,381.4,173.5z"/>
					<polygon class="st23" points="367.2,164 367.4,164.1 368.3,162.6 					"/>
					<path class="st23" d="M351.9,160.4c1,1,0.9-0.8,1.6,0.2c0.5-0.2-0.6-0.9-0.2-1C352.4,159.6,352.2,159.1,351.9,160.4z"/>
					<path class="st23" d="M353.4,159.6c0.1,0,0.3,0,0.5,0C353.6,159.5,353.5,159.5,353.4,159.6z"/>
					<polygon class="st23" points="207.9,199.2 207.2,199.7 207.7,199.4 					"/>
					<path class="st23" d="M206.6,200.2l-0.2,0.1l-0.4,0.3C206.1,200.5,206.4,200.3,206.6,200.2z"/>
					<path class="st23" d="M312.2,147.3l-0.1-0.3c-0.3-0.2-0.5-0.1-0.9,0L312.2,147.3z"/>
					<polygon class="st23" points="301.6,152.2 301.7,152.1 300.8,151.3 					"/>
					<path class="st23" d="M293.7,158.2c0.4-0.2,0.7-0.6,1-0.7C294,158.1,292.9,157.1,293.7,158.2z"/>
				</g>
			</g>
		</g>
	</g>
</g>
<g>
	<g>
		<g>
			<g>
				<g>
					<path class="st23" d="M206.2,440.3c-0.1-0.1-0.2-0.2-0.2-0.2C206.5,440.5,206.2,440.3,206.2,440.3z"/>
					<polygon class="st23" points="211.5,443.8 211.4,443.8 212.3,444.2 					"/>
					<path class="st23" d="M216.5,447c-0.3-0.6-1.8-1.1-2.7-1.8l-0.1-0.1l-0.5-0.1C214.3,445.7,215.8,446.5,216.5,447z"/>
					<path class="st23" d="M218.8,449.4c-0.1-0.2,0.6,0.3-0.6-0.5c0,0.1,0.1,0.1,0.1,0.1C218.4,449.2,218.5,449.3,218.8,449.4z"/>
					<path class="st23" d="M218.3,449.1C217.8,448.7,218.6,449.4,218.3,449.1L218.3,449.1z"/>
					<path class="st23" d="M220.7,450.7l-0.8-0.3c0.1,0.2,0.7,0.6,0.4,0.5C221.1,451.3,221,451.1,220.7,450.7z"/>
					<path class="st23" d="M221.5,450.8l-0.4-0.2C221.2,450.7,221.3,450.8,221.5,450.8z"/>
					<path class="st23" d="M220.3,450.3l0.8,0.4c-0.1-0.1,0-0.3-0.4-0.2C220.9,450.4,220.7,450.4,220.3,450.3z"/>
					<path class="st23" d="M219.9,449.9c-0.3-0.3-0.8-0.7,0-0.4C218.5,448.7,218.6,449.1,219.9,449.9z"/>
					<path class="st23" d="M217,446.9l-0.5-0.4l-0.5-0.2C216.2,446.4,216.9,447,217,446.9z"/>
					<path class="st23" d="M224.8,453.8c0.1-0.1-0.1-0.4-0.1-0.6l-0.6-0.2C224.4,453.3,224.9,453.7,224.8,453.8z"/>
					<path class="st23" d="M224.8,453.2l0.9,0.3C224.9,453.1,224.8,453.1,224.8,453.2z"/>
					<path class="st23" d="M221.9,450.5l-1.4-0.5c0.6,0.2,1.1,0.5,1.7,0.7L221.9,450.5z"/>
					<polygon class="st23" points="227.7,455.8 227.1,455.8 228.1,455.9 					"/>
					<path class="st23" d="M229.6,457.1c-0.4,0,0.2,0.7-0.2,0.6c0.5,0.3,1.1,0.4,1.6,0.5C230.5,458,230.1,457.7,229.6,457.1z"/>
					<path class="st23" d="M231.8,458.4c-0.2-0.1-0.5-0.1-0.8-0.2C231.3,458.3,231.5,458.4,231.8,458.4z"/>
					<path class="st23" d="M226.9,454.5c0,0.1,0,0.3,0.4,0.7l-0.1-0.5C227.1,454.6,227,454.6,226.9,454.5z"/>
					<path class="st23" d="M227.2,454.7L227.2,454.7c0.3,0.2,0.5,0.4,0.6,0.5C227.7,455.1,227.5,454.9,227.2,454.7z"/>
					<path class="st23" d="M226.8,454.4C226.8,454.5,226.9,454.5,226.8,454.4C226.9,454.4,226.9,454.4,226.8,454.4z"/>
					<path class="st23" d="M223.8,452c0.5,0.2,1.6,0.6,0.8-0.2C224.1,451.7,224.6,452.2,223.8,452z"/>
					<path class="st23" d="M226.6,453.8l-0.8-0.6c0,0.1,0.1,0.3-0.2,0.2L226.6,453.8z"/>
					<polygon class="st23" points="227.1,454 226.6,453.8 226.9,454 					"/>
					<path class="st23" d="M230.6,457.1c0.4,0.1,0.8,0.3,1.3,0.6c-0.4-0.4-0.9-0.7-1.3-1C230.4,456.8,230.1,456.8,230.6,457.1z"/>
					<path class="st23" d="M229,455.9C229,455.9,229,455.9,229,455.9C229,455.9,229,455.9,229,455.9z"/>
					<polygon class="st23" points="236.2,460.5 236.1,460.4 236.1,460.4 					"/>
					<path class="st23" d="M230.5,456.6c-0.3-0.3-0.6-0.3-0.8-0.4c0.3,0.1,0.6,0.3,0.9,0.5C230.6,456.7,230.6,456.7,230.5,456.6z"/>
					<path class="st23" d="M233.1,459c-0.1-0.2-0.3-0.4-0.5-0.6C232.7,458.7,233,459.1,233.1,459z"/>
					<path class="st23" d="M229.1,456.1L229.1,456.1C229.1,456.2,229.1,456.2,229.1,456.1z"/>
					<path class="st23" d="M229.1,456.1c0.2,0.1,0.4,0.1,0.6,0.1c-0.2-0.1-0.4-0.2-0.6-0.3C229.1,456,229.1,456.1,229.1,456.1z"/>
					<path class="st23" d="M239,458.7c-0.3,0.3-1.4,0.1-2-0.7c-1-0.2-1.1,1.3-0.8,2.4c0.1-0.1,0.2-0.3,1.1,0
						c-0.2-0.4-1.5-1.6-0.7-1.5c1.2,0.5,0.8,0.7,1.2,1.2c-0.2-0.7,1.8,0.1,1.9-0.7l-1.1-0.3C238.7,459,239.2,459,239,458.7z"/>
					<path class="st23" d="M234.6,459.4l-0.4-0.2c0.3,0.3,0.5,0.6,0.9,1.2c0.6,0.2,0.8,0.1,0.9,0l-1.6-1.1L234.6,459.4z"/>
					<path class="st23" d="M232.8,458.2c0.5-0.2,1.4,0.1,1.1-0.6c-1-0.6-0.9-0.1-1.5-0.3C234,458.2,231.8,457.2,232.8,458.2
						c-0.3-0.2-0.6-0.3-0.9-0.5c0.3,0.2,0.5,0.5,0.7,0.7c0,0,0,0,0,0l0,0l0,0c0-0.1,0-0.1,0-0.1c0,0,0,0,0,0
						C232.7,458.3,232.7,458.3,232.8,458.2c0.4,0.4,0,0.1-0.2,0.1c0,0,0,0-0.1,0l0,0l1.7,0.8C234,458.9,233.5,458.7,232.8,458.2z"/>
					<path class="st23" d="M225.8,451.7C225.8,451.7,225.8,451.8,225.8,451.7C225.9,451.8,225.9,451.8,225.8,451.7z"/>
					<path class="st23" d="M226.3,452.3c-0.1,0-0.3,0-0.7-0.2c-0.3-0.3,0.1-0.1,0.1-0.2c-0.3-0.1-0.9-0.3-0.3,0.3l0.1,0
						c0.6,0.5,1.2,1.4,1.1,1.3C226.7,453,226.6,452.8,226.3,452.3z"/>
					<path class="st23" d="M229.7,455.1l1.4,0.7l-0.5-0.7l-0.1,0.2C229.8,454.7,229.9,455,229.7,455.1z"/>
					<polygon class="st23" points="236.2,460.8 235.8,461.1 236.9,461 					"/>
					<polygon class="st23" points="237.9,461.9 237.6,462.2 238.2,462.3 					"/>
					<path class="st23" d="M335.6,490.2l0.3-0.4C335.8,489.9,335.7,490.1,335.6,490.2z"/>
					<path class="st23" d="M332.7,491.7l0.1,0.4C332.9,491.9,332.9,491.7,332.7,491.7z"/>
					<path class="st23" d="M280,488.1c0.2,0.9,0.3,2.2,0.7,1.5l0.2-0.8C280.4,488.7,280.2,488.4,280,488.1z"/>
					<path class="st23" d="M311.7,501c0-0.1,0-0.2,0-0.3c-0.3,0.2-0.6,0.3-0.8,0.5C311.2,501.1,311.4,501,311.7,501z"/>
					<path class="st23" d="M313.9,498.1l0.5,0.9C314.4,498.8,314.2,498.5,313.9,498.1z"/>
					<path class="st23" d="M351,480.6l0.1-1C350.3,480.1,350.8,480.3,351,480.6z"/>
					<path class="st23" d="M255.5,472.8c0.4,0.5,0.7,0.9,1,1.1C256.1,473.2,255.9,472.4,255.5,472.8z"/>
					<path class="st23" d="M339,498.6c0.2-0.3,0.2-0.5,0.1-0.6C338.9,498.2,338.9,498.5,339,498.6z"/>
					<path class="st23" d="M257.9,474.8c-0.1-0.1-0.1-0.2-0.2-0.3c-0.4-0.1-0.8-0.3-1.2-0.6C256.8,474.4,257.2,474.9,257.9,474.8z"
						/>
					<path class="st23" d="M409.3,450.8c0.1,0,0.1,0,0.2,0C409.4,450.7,409.4,450.7,409.3,450.8z"/>
					<path class="st23" d="M427,443.3c-0.2,0.1-0.4,0.3-0.6,0.4C426.4,443.6,426.6,443.5,427,443.3z"/>
					<path class="st23" d="M244.6,466.5C244.2,466.3,244.5,466.5,244.6,466.5L244.6,466.5z"/>
					<path class="st23" d="M243.9,463.5c0.1,0,0.2,0,0.3-0.1C244.1,463.5,244,463.5,243.9,463.5z"/>
					<path class="st23" d="M263.6,473.3C263.7,473.3,263.7,473.3,263.6,473.3C263.6,473.2,263.6,473.2,263.6,473.3z"/>
					<path class="st23" d="M244.2,465.9c0.1,0.1,0.2,0.3,0.4,0.4C244.5,466.3,244.4,466.1,244.2,465.9z"/>
					<path class="st23" d="M244.2,466.2c-0.1-0.1-0.2-0.2-0.3-0.2C243.8,466,243.8,466.1,244.2,466.2z"/>
					<path class="st23" d="M245.1,466.8c-0.2-0.1-0.4-0.3-0.6-0.4c0.1,0.1,0.1,0.1,0,0.1C244.7,466.5,244.9,466.6,245.1,466.8z"/>
					<path class="st23" d="M378.9,468.3c0,0,0.1,0,0.1,0C379.3,467.8,379.1,468,378.9,468.3z"/>
					<path class="st23" d="M293.8,486.4C293.8,486.4,293.8,486.4,293.8,486.4C293.8,486.5,293.8,486.5,293.8,486.4L293.8,486.4z"/>
					<path class="st23" d="M295.5,486.6c-1.1,0.6-1.3,0.3-1.7-0.1l-0.8,2.3L295.5,486.6z"/>
					<path class="st23" d="M342.4,486.1l-1.3-0.1c0.5-1.7,1.6-1.8,0.2-2.2c1.2,2.3-3.5,2.3-2.4,4.6l-0.9-0.1
						c0.2-0.1,0.1-0.2,0.3-0.3c-1.8-0.4,0.1,2.2-1.7,2.7c-0.6,0.1-1.2,0-1-0.5l-0.9,1.3c-0.4,0.2-0.5-0.3-0.1-0.4l-1.7,1.2l0-0.1
						c-0.1,0.5-0.3,1.4-0.5,1.8c-0.7-0.1,0.1-0.4-0.2-0.6l-0.7,1.1c-0.8-0.4-0.3-1.4,0.5-1.7c-2.3-1.8-0.5,1.1-3.3,0.9l0.8-0.8
						c-1.4-1-1.9-0.1-3.4-0.3c0.5,0.3,3.4,0.8,2.6,2.1c-0.4,0-0.9,0.2-1.2,1c-0.5-0.8-0.9-0.3-1.6,0.2l-0.6-1.1
						c-0.6,0.8-0.2,1.3-0.4,2.1c-0.9,0.4-1.6-0.4-2.2-1c-1.5,0.6,1.8,0.8,0.2,2c-0.7,0.1-1.2,0.4-1.6,0.9c-0.2,0.2-0.4,0.5-0.6,0.8
						c0,0.1-0.1,0.2-0.1,0.2l0,0.2c0,0.1-0.1,0.3-0.1,0.4c-0.5-0.1-0.2-0.8-0.5-1c0.1,0.4,0.1,0.8,0.1,1.2c-0.1,0-0.1-0.3-0.2-0.4
						c-0.2,0.6,0.3,1.2-0.2,1.9c0,0.4-0.1,0.5-0.3,0.5c-0.1,0-0.2-0.1-0.3-0.1c0,0-0.1-0.1-0.1-0.1c0-0.1-0.1-0.2-0.1-0.3
						c-0.4-0.8-0.6-1.4-1.1-0.8c0-0.5,0.3-0.7,0.4-1.2c-1,0.5-0.7,0.3-2.8,0.8l-0.7-1.4c0.4,1.3-1.3,1.7-2.7,1.9
						c0.1,0.6,0.1,1.1,0.2,1.3l-1.8-0.3c-0.1-0.3,0.3-0.6,0.8-0.9c-0.2,0-0.3,0.1-0.4,0.1c-0.3-0.7,0.3-1.2,1.1-1.6
						c0.1,0.3,0.1,0.7,0.1,1c0.8-0.5,1.5-1,1.8-1.7c-0.2,0.1-0.4,0.1-0.7,0c0.2-0.1,0.4-0.3,0.4-0.4c0-0.1-0.3,0-0.7,0.2l0.4-1.4
						l-0.4,0.4l-1.5-1.9c-2.1,0.4-4.4,1.6-6.9,0.8c1.1-0.6,1-1.4,1.6-2.4c0,1.5,2,0.5,3,1.4c-0.5-0.5-0.1-0.9,0.1-1l-2.6-0.1
						c0.5-0.8-0.1-0.9-0.4-1.6c-0.6,1.9-2.2,0.3-3.3,0.3c0.3-0.6,0.8-1.1,1.8-0.4c-0.4-1.9-2.6,1.2-3.1-0.5c0.3,0.1,0.3,0.3,0.6,0.1
						c-0.9,0.2-2.1-1-1.4-1.3l0.3,0.1c-1.5-1.1-5-2.9-6.1-1.6c0.1-0.2,1.2-1.6,1.5-1.8l-5.7,3.1c1-1.1,1.6-4.5,3.4-4.4
						c-0.3-0.4-0.7-0.9-1.7-0.9c0.2,0.3-0.3,2.1-0.8,2c-0.2-1.9-0.3-1.1-0.9-2.9c0.3,0.5-1.3,2.1-1.9,1.7c0.3-0.2,1-1.9,1.4-1.9
						l-2.6,0.9c0.6-0.1,1-1.5,0.9-2.2c0,0.4-1.4-0.8-1.9-0.9l0.4,0.8c-1.6-1.3-3.2,1.5-4.9,0.4c0.4-0.2,1.8-2,1.1-2.7
						c-0.9,0.7-4.3,3.3-6.3,3.1l0-0.7L275,483c1.5-0.9,5.2-2.5,7-3c-0.4-0.8,0.2-0.7-0.9-1.2c-0.1-0.7,1-0.4,1.3-0.3l-2.2-1.6
						c-0.5,1.1-2.4,0.1-2.8,1l3.2,0.3c-0.5,1.1-3.2,2.1-4.7,1c-0.2-0.6,1.4-1.6,1.5-2c-0.4,0.2-2-0.2-2-0.5l1-0.2
						c-0.7-0.9-2.3,0.5-2.8-1.1c-0.3-0.3-0.4-1.9-0.8-1.4c0,1.5-1.9,5.1-2.8,5.7c-0.1-0.2-1.4-2.3-1.5-3c-0.1-1.2,2.1-1.5,2-2.6
						c-0.2,0.3-0.7,0.4-0.9,0.4c-0.3-0.4,0.6-0.7-0.3-1.1c-0.7,0.9-1.7-1.1-0.9,0.6c-1-0.2-0.8-0.7-1.8-1.2c0,0.8-2.1,1.6-3.1,1.4
						c0.2-0.2,0.2-0.6,0.2-0.8c-1.7-1.1-2.4-2-4-3c0-0.3-0.7-1-0.1-1.2c-0.3,0-0.7,0.2-1.2-0.1c-0.5-1.3,1.2,0.5,1-0.8
						c-0.4,0.5-1.7,0-2.6-0.1c-0.2,0.9,1.6,1.1,2.5,1.2c-0.6,1.1-2.5,1.5-4.5,1c-1.5-0.5-0.2-1-0.5-1c-2.4-1.7-3.2,0.5-4.8-1.5
						c-0.5-1.1,0.7-1.3,0.8-1.8c1.2,0.4,1.4,1.4,2.2,1.8l-0.7-0.8c0.5,0,1.3,0.2,1.6,0.7c-0.4-1-4.2-2.6-5.9-4.2
						c-0.5,0-1.2-0.1-1,0.3l0.7,0.3c0.3,0.8-1.5,0-0.9,0.7c-1-0.2-2.2-0.2-3.2-1.2l0.2-0.8c-0.1,0.2,0.5,0.8,1,0.8
						c-0.6,0-1.3-1.9-2.3-1.4l0.6,0.9c-1-0.2-2.4-0.2-3.3-1c0.1,0.9,0.3,0.1,0.6,1.2c-0.1-1.3,2.5,1.7,2.1,0.1
						c0.2,1.3,1.1,1.2,1.6,2.5c0.1-0.2-0.1-0.6,0.7,0c0.1,0,0.2-0.1,0.3-0.1c0,0,0,0,0,0.1l0-0.1c0.1,0,0.1,0,0,0
						c-0.1-0.2-0.2-0.4-0.2-0.6c0.7-0.2,2.1,0.6,2.7,0.6c0.4,0.4-0.4,0.1-0.2,0.5l0.9,0c-0.2,0.5,0.8,1.7-0.5,1.2l1,0.7
						c0.5,0.7,1.2,1.4,1.9,1.5c0.4,0.4,1.6,0.2,0.9,0.4l1.9,0.7l-0.1,0.1c1.6,1.1,4,1.2,5.2,3.4c0.6,0.2,1.3,0.4,2.2,1.1l-0.1,0.6
						c0.8,0.3,1.8,1.9,2.5,1.5c-0.1,1.9,3.3,2.5,4.4,3.6l0.5-0.7c0.8,0.6,1.8,0.9,3.1,1.2l0.3-0.7c1.3,0,2.1,1.9,3.6,2.8
						c-0.3,0.2-0.6-0.1-0.8-0.4c0.9,2.6,4.4,1.1,5.3,3.2c0.5,0,0.8,0.2,1,0.6c0,0-0.1,0-0.1,0c0,0,0.1,0.1,0.2,0.1
						c0.1,0.2,0.2,0.5,0.3,0.7c-0.1-0.3-0.1-0.5-0.2-0.7c0.3,0.2,0.8,0.4,1.4,0.5l-0.2,0.9c0,0,0.1,0,0.1,0c0.3,0.6,0.6-0.1,0.7-0.9
						c0.3,0,0.6,0,0.9-0.1c-0.4,1.5,1.4,0.3,1.2,1.9c0.7-0.5,2.6,0.9,3.6-0.4c-0.1,0.2,0,0.4-0.3,0.2c0.4,0.5,0.8,0.9,1.5,0.8
						l-0.4,1.1l1.9-0.7c0.3,1,0.4,1.5-0.7,1.9c2.3-0.2,1.6,0.3,3.7,0l-0.4,0.6c0.5,0.3,1.8-0.2,1.8,0.6c0.4,1.9,5.4,3.4,7.6,6.3
						c0.6-2.3,0.8,1.7,1.8,0.2c-0.1,0.6,0.1,1.1-0.6,1.2c1.7,0.4,1.8,2,3.5,1.3c-0.1,0.6-0.7,0.5-0.7,0.9c0.2,0,0.7-0.1,0.7,0.2
						c0,0.4-0.4,0.3-0.8,0.3c1.5,0.8,2.5-0.6,3.4-1.9c0.4,1.1,0.8,1.2,1.9,0.6c0,0.6,0.2,1.3-0.9,1c0.2,0.2,0.9,0.8,1.7,1.3
						c0.4,0.2,0.7,0.4,1.1,0.5c0.3,0,0.7,0.1,0.9-0.2c0.1,0.4,1,0.7,1.2,0.6c1.6,1,1.7,1.3,3.3,2.1l-0.4-0.5
						c0.2-0.3,0.3-0.5,0.5-0.5c0.1,0,0.2,0,0.2,0c0.1-0.1,0.2-0.1,0.3-0.1c0.4-0.1,0.8-0.1,1.4-0.6l0,0.2c1.5-0.3,1.8-0.6,2.1-0.9
						c0.1-0.1,0.3-0.3,0.6-0.4c0.2-0.1,0.3-0.1,0.6-0.2c0.2,0,0.5-0.1,0.8-0.1l-0.6-0.8c-0.8-1.9,2.5,0,3.3-1.4l-0.7-0.2
						c0.3-1,3.3,1.3,4,1.2c0.2,0.1-0.1,0.4-0.2,0.6c2.3,0-0.4-1.2,0.8-2.2c0.6,0.4,0.5,1.7,1.5,1.3c0.7,0.2,1.4-3.4,3.3-3
						c-0.5-0.3-1-0.6-0.6-1.3c0.8-0.7,3.5,0.2,3.5-1.7c0.2,0.1,0.3,0.1,0.4,0.2c0.5-0.8,1.9-1.9,1.9-2.9c2.3,2.4,3.6-3.9,5.1-1.4
						l2.1-1.4l0.1,0.3c1.5-0.7,1.6-1.5,1.8-2.4c0.4,0,0.3,0.4,0.4,0.5c2.3-0.7,2.4-0.9,3.4-3.2l0.6,0.7c0.2-0.7,3.6-0.5,5.1-2.6
						c0,0.1,0.1,0.3,0,0.5c1.7-2.2,6.5-1.1,5.8-4.4l1.1-1.5c-2,0.9-0.4-1.3-1.4-1.3c0.7-0.6,2.4-0.3,1.6,0.3l-0.2,0
						c0.5,1.6,2.7-0.9,3.1,0c3.7-2.3,7.8-3.8,11.2-5.9l-1-0.7l1.3-0.7c0.4,0,0.9,0.5,0,1c0.8,0.3,1.2-1.3,1.1-1.6
						c1.9-0.7,0,1.5,0.5,1.2l0.7-0.5l-0.2,0c0.4-0.7,0.2-1.2,1.2-1.8c0.8-0.2,0.7,0.3,0.9,0.2c0,0.1,0.1,0,0.4-0.2l1.6-0.9l-1-0.3
						c0.5-0.8,1.5-0.8,0.3-1.2c1.7,0.6,6-3.1,6.8-3.1c0.7-1,1.6-1.6,2.8-2.3c-0.4,0.1-0.9-0.5,0.1-1c0.4,1.6,2.2-0.5,3.5-0.1
						c-1.1-0.2,2.7-1.9,1.1-2.1c0.9-0.4,0.3,0.4,1.1,0.3c1.7-1.7,4.5-2.5,6.8-4.2c0-0.2-0.6-0.1-0.1-0.6c0.6-0.1,1.1-0.1,1.6-0.2
						c0.4-0.4,0-1,1.2-1.1c-0.2,0-0.5-0.1-0.2-0.3c2.6-1.2,4.9-2.9,7.3-4.5c2.4-1.6,4.9-3.1,7.4-4.6c-0.7,0.4-0.3,0.1,0.2-0.3
						c-0.3,0.2,0-0.1-0.1-0.1c0.7-0.4,1.4-0.8,2.1-1.2c0.3-0.3,2.1-1.4,2.3-1.6l-0.6,0.4c0.8-0.6-1.3,0.6-1.2,0.4
						c-0.5,0.3-1.2,0.6-1.9,1c-0.8,0.3-1.6,0.7-2.4,1.3c-0.4,0.1,0.3-0.2,0-0.2c-0.4,0.3-0.8,0.6-1.8,1l0.1-0.1
						c-2.6,1.4-3.8,1.8-6.9,3.2l0.4,0.1c-0.7,0.3-0.8,0.3-1.2,0.4c-0.5,0.8,1.8-0.9,1.4-0.1c-1.1-0.1-4.5,2.4-5.4,2
						c-1,0.5,0.5,0.2-0.5,0.7l-0.4-0.1l-0.1,0.4c-0.7,0.3-1.1,0.2-1.3,0c0.2-0.1,0.4-0.3,0.6-0.4c-1,0.2-2.3,1.3-2.7,1.3l1-0.3
						c-2.6,1.6-6,2.9-8.3,4.8l0.3,0.1c-1.7,1.4-1.7,0.6-3.7,1.9l0-0.1c-0.3,0.4-0.8,0.9-1.4,1.2c0.4-0.6-1.3,0-0.8-0.7
						c-1.9,1.6-0.8,0.9-1.7,2.6l-0.6-0.2c-0.3,0.6-0.2,0.8-1.2,1.5c0.7-0.8-1-0.3-0.3-1.3c-2.8,0.3-2.8,2.7-4.6,1.9
						c-0.3,1.8,2.3-0.4,1.9,0.2c0.7,0.1-0.3,1.4-1.1,1.6c-0.7,0.4-2.1-0.9-3.9,0.1c0.2-0.1,0.1-0.2,0.3-0.3c-0.9,0-1.1,1.2-2.2,1.1
						c0,1-1.1,0.5-0.7,1.6l1.5-1.1c-0.8,0.8-1,2.4-2.8,2.7c0-0.3,0.3-0.8,0.5-1.1c-0.6-0.1-0.7,0.7-1.4,0.6
						c-0.5-1.1,1.9-1.3,2.4-2.6c-0.7-0.2-1.5,1.8-1.6,0.4c0.1,1.8-1.9,0.8-2.5,2.5l-0.3-0.7c-0.1,0.2-0.4,0.7-0.7,0.9l0.2-1.2
						c-0.6,1.2-2.3,0.4-3,1.3c2-1.1,0.9,0.5,2,0.6c-1.9,2.2-2.4-0.9-5,0.8c0.3-0.3,1.6-0.3,1.2,0.3c-0.6,0.1-1.4,0.3-2,0.1
						c-1.7,1.1,0.7,0.5,0.1,1.4c-1.1-0.5-0.7,0.8-1.3,1.5l-0.4-0.7c-2.3,0.7,0.3,1.8-1.9,2.2l0.2-1.4l-0.8,0.8l-0.3-0.9
						c-0.7,1.2-1.1,1.2-2.3,1.5c0.5,0.4,0.6,1.4-0.3,1.9c-0.9-0.1-0.1-0.9-1.3-0.1c0-0.6,0-1.4,1-1c-0.1-0.3,0-0.6,0-0.9
						c-1-0.1-1.8,0.8-2.2,1.1c0.2-0.1,0.4-0.1,0.6-0.1l-1.3,2.1c-0.5-0.1-0.4-0.5-0.2-0.8c-0.3,0.3-0.4,0.8-0.9,1.1
						c-0.2-0.7-0.6-1.3,0-2l-1.4,1.6c-0.3-0.2-1.3-0.2-1.2-0.6c-1.2,0.2-1.7,2.5-3.3,2.8c0,0.2-0.1,0.3-0.3,0.6
						c-1.3,0.5-2.9,0.4-3.8,2l-1.5-0.7c-1,0.9,2,0.8,0.3,2.3c-1.1,1.1-1.1-0.7-1.7-0.8c-0.3,1-0.8,2.8-2.6,2.5
						C341.7,486.4,342.1,486.4,342.4,486.1z M328.7,494.5c0.2-0.3,0.4-1.2,0.9-0.8C329.8,494.9,329.3,494.5,328.7,494.5z
						 M310.6,498.2c0.4-0.2,0.6,0.2,0.8,0.7C311.1,498.8,310.8,498.6,310.6,498.2z M248.8,468.6
						C248.9,468.6,248.9,468.6,248.8,468.6C249.3,469.1,249.2,468.9,248.8,468.6z M247.8,467.5c-0.2,0-0.2,0.1-0.2,0.2
						c0.2-0.1,0.4,0.1,0.7,0.3C248.3,467.8,248.2,467.6,247.8,467.5z M385.2,470.1l-0.3,0C385.3,469.5,385.3,469.8,385.2,470.1z"/>
					<path class="st23" d="M313.7,498.4c0,0.2-0.1,0.4-0.1,0.5C313.7,498.9,313.8,498.7,313.7,498.4z"/>
					<path class="st23" d="M351,480.8C351,480.8,351,480.8,351,480.8c0-0.1,0-0.1,0-0.2L351,480.8z"/>
					<path class="st23" d="M270.2,473.5c0.2,0.2,0.3,0.5,0.3,0.6C270.6,473.9,270.6,473.7,270.2,473.5z"/>
					<path class="st23" d="M240.8,464.3l0.9,0.4c-0.4-0.2-0.5-0.4-0.6-0.6C241,464.2,241,464.4,240.8,464.3z"/>
					<path class="st23" d="M235.6,457.2c-0.1,0-0.3-0.1-0.4-0.2l-0.1,0.2C235.6,457.5,236,457.6,235.6,457.2z"/>
					<path class="st23" d="M241,462.2c0.2-0.5-0.4-0.6-1-0.9c0,0,0.1,0,0.1,0.1C239.6,461.8,240.3,462,241,462.2z"/>
					<path class="st23" d="M239.9,461.2c-0.2-0.1-0.4-0.2-0.5-0.3C239.1,461.1,239.5,461.1,239.9,461.2z"/>
					<path class="st23" d="M246,466.9c-0.2-0.3-0.5,0.5-0.5,0.2C244.9,467.5,247.6,467.5,246,466.9z"/>
					<polygon class="st23" points="241.3,460.6 241.2,461.2 241.8,461 					"/>
					<path class="st23" d="M245.5,463.5l-0.8-0.7c0,0.1-0.2,0.1-0.3,0C244.9,463.2,245.5,463.7,245.5,463.5z"/>
					<path class="st23" d="M244.4,462.9c-0.3-0.2-0.6-0.3-0.8-0.3C243.8,462.6,244.1,462.8,244.4,462.9z"/>
					<polygon class="st23" points="242.6,461.1 242.9,461.4 243.5,461.8 					"/>
					<path class="st23" d="M255.1,469.3l1.1,0.4c0.2-0.2,0-0.5-0.4-0.6C255.5,469.1,255.1,469,255.1,469.3z"/>
					<path class="st23" d="M253.1,465.9c0.2,0.3,0.1,0.4,0.2,0.7l0.5-0.7L253.1,465.9z"/>
					<path class="st23" d="M256.1,467.3c0.2-0.2,1.8,0.2,0.5-0.5C256.4,467,255.3,466.6,256.1,467.3z"/>
					<polygon class="st23" points="270.3,476.8 270.1,476.7 269.3,478.2 					"/>
					<path class="st23" d="M285.6,480.4c-1-1-0.9,0.8-1.6-0.2c-0.5,0.2,0.6,0.9,0.2,1C285.1,481.2,285.3,481.7,285.6,480.4z"/>
					<path class="st23" d="M284.2,481.2c-0.1,0-0.3,0-0.5,0C283.9,481.3,284.1,481.3,284.2,481.2z"/>
					<polygon class="st23" points="429.6,441.5 430.3,441 429.9,441.3 					"/>
					<path class="st23" d="M431,440.5l0.2-0.1l0.4-0.3C431.4,440.2,431.1,440.4,431,440.5z"/>
					<path class="st23" d="M325.3,493.5l0.1,0.3c0.3,0.2,0.5,0.1,0.9,0L325.3,493.5z"/>
					<polygon class="st23" points="336,488.6 335.8,488.6 336.7,489.4 					"/>
					<path class="st23" d="M343.9,482.6c-0.4,0.2-0.7,0.6-1,0.7C343.5,482.7,344.6,483.7,343.9,482.6z"/>
				</g>
			</g>
		</g>
	</g>
</g>
</svg>
