<?xml version="1.0" encoding="utf-8"?>
<!-- Generator: Adobe Illustrator 26.5.0, SVG Export Plug-In . SVG Version: 6.00 Build 0)  -->
<svg version="1.1" id="Шар_1" xmlns="http://www.w3.org/2000/svg" xmlns:xlink="http://www.w3.org/1999/xlink" x="0px" y="0px"
	 viewBox="0 0 640 640" style="enable-background:new 0 0 640 640;" xml:space="preserve">
<style type="text/css">
	.st0{fill:#FFFFFF;}
	.st1{fill:#238B00;}
	.st2{fill:#E46228;}
	.st3{fill:none;stroke:#FFFFFF;stroke-miterlimit:10;}
	.st4{fill:none;stroke:#FFFFFF;stroke-width:0.25;stroke-miterlimit:10;}
	.st5{fill:none;stroke:#E46228;stroke-miterlimit:10;}
	.st6{fill:#E46228;stroke:#E46228;stroke-miterlimit:10;}
	.st7{fill:#FEFEFE;}
	.st8{fill:#FCFCFC;}
	.st9{fill:#3B3B3B;}
	.st10{fill:#228000;}
	.st11{fill:#020202;}
	.st12{fill:#010101;}
	.st13{fill:#0F0F0F;}
	.st14{fill:#FEFEFD;}
	.st15{fill:#E0ECDB;}
	.st16{fill:#FDFDFC;}
	.st17{fill:#DF6232;}
	.st18{fill:#E06331;}
	.st19{fill-rule:evenodd;clip-rule:evenodd;fill:#238035;}
	.st20{fill-rule:evenodd;clip-rule:evenodd;fill:#E46228;}
	.st21{fill:#238035;}
	.st22{fill:none;stroke:#E46228;stroke-width:12;stroke-miterlimit:10;}
	.st23{fill:#E77440;}
	.st24{fill:#8E24AA;}
</style>
<g>
	<g>
		<path class="st2" d="M614.8,322.5c-48.2,83.3-96.4,166.7-144.5,250.1c-1.5,2.6-3.1,3.7-6.2,3.7c-96.1-0.1-192.2-0.1-288.3,0
			c-2.7,0-4.2-0.7-5.7-3.2c-48.2-83.7-96.6-167.3-144.9-250.8c-1-1.6-1-2.8,0-4.4c48.5-83.8,97-167.7,145.4-251.6
			c1.1-1.9,2.3-2.4,4.3-2.4c48.4,0.1,96.9,0,145.3,0c48.1,0,96.3,0,144.4-0.1c2.5,0,3.9,0.6,5.2,2.9
			c48.2,83.7,96.6,167.3,144.9,250.9C615.8,319.3,615.9,320.6,614.8,322.5z"/>
		<path d="M71.3,384.3c-3.1-5.5-6.7-10.6-9.2-16.4c1.3-0.8,2.6-0.2,3.9,0.2c5.2,1.4,10.4,2.9,15.7,4.2c3,0.8,3.1,0.8,3.2-2.3
			c0.5-12.2,4.2-23.3,11.7-33c3.9-5,8.4-9.3,13.5-13.1c-11.1,0.3-18.5,6.2-23.7,15.4c-1.4,2.5-2.9,5-4.2,7.6c-1.1,2.1-2.2,2.1-3.3,0
			c-1.9-3.7-4.3-7.1-5.7-11.1c-3.2-8.8,0-17.7,8.1-22.4c1.6-0.9,2.5-2.3,3.5-3.8c8.8-13.1,20.4-22.2,35.8-26.4
			c2.3-0.6,4.7-1,7.1-1.5c3.3-0.7,3.3-0.6,1.7-3.8c-3.2-6.2-6.2-12.4-8-19.2c-1.2-4.6-1.8-9.3-1-14c0.6-3.6,2.1-6.8,5.2-9
			c2.5-1.8,3.7-1.4,4.8,1.5c1.5,4,3.3,7.8,5.7,11.3c4.5,6.6,12.3,9.2,19.9,6.7c0.9-0.3,1.5-0.7,1.9-1.6c1.6-5.2-0.1-9.7-5.1-12
			c-10.6-5-21.2-9.8-31.9-14.7c-7.9-3.6-15.8-7.3-23.7-10.9c-0.8-0.4-1.6-0.8-1.9-1.7c3.6-7.4,8-14.3,12.1-21.4
			c22.7-39.4,45.5-78.7,68.2-118.1c1.1-1.8,2.2-2.5,4.3-2.5c93.4,0.1,186.8,0.1,280.2,0c2.3,0,3.4,0.7,4.5,2.6
			c20.1,34.9,40.2,69.7,60.4,104.5c0.4,0.7,0.8,1.5,1.1,2.3c-0.5,3.5-2.8,6-4.5,8.9c-7.6,12.7-16,24.8-24.9,36.6
			c-1.2,1.7-2.5,3.4-3.6,5.6c2.1-0.3,2.9-1.4,3.7-2.6c8.9-14.1,18.5-27.8,27.4-42c0.9-1.5,1.4-3.4,3.4-4.1
			c5.9,10.1,11.8,20.1,17.7,30.2c19.9,34.4,39.8,68.8,59.7,103.2c0.8,1.4,1.1,2.5,0.2,4.1c-18.2,31.4-36.4,62.8-54.5,94.2
			c-0.6,1-1.2,1.9-1.9,2.9c-0.6,0.5-1.3,0.8-2.1,0.8c-3.7,0-6.1,2.1-7.9,5c-1.1,1.7-2.3,3.4-3.5,5c-2.5,3.1-4.4,6.4-5,10.6
			c-0.4,3.2-2.1,6-3.9,8.7c-1.7,2.5-4.1,4.1-7.3,3.9c-2.8-0.2-4.7,1.2-6.2,3.5c-2.1,3.4-4,6.8-5.8,10.3c-1.1,2-2.4,3-4.8,3
			c-20.1,0-40.2,0.4-60.3-0.2c-11.6-0.3-23.2-0.1-34.8-0.4c-0.9,0-1.7,0-2.6,0c-2.7-0.2-3.3-0.9-2.5-3.5c1.6-5.3,3.7-10.4,5.8-15.4
			c5.9-14.1,13.3-27.4,22-40.1c2-2.9,1.9-3-1.3-4.7c-2.7-1.5-5.7-2.5-8.4-3.9c-1.6-0.8-2.6-0.5-3.5,1.1
			c-8.4,15.5-16.1,31.3-21.9,47.9c-1.7,5-3.7,10-5.6,14.9c-1.3,3.3-1.6,3.7-5.3,3.7c-14.7,0-29.4,0.5-44.1-0.1
			c-23.7-0.9-47.4-0.1-71-0.5c-0.6,0-1.2-0.1-1.7,0c-3.1,0.3-4.8-1-5.9-3.9c-7-18.4-14.2-36.8-21.3-55.1c-1.5-3.9-1.5-3.9-5.4-2.3
			c-5.7,2.4-5.6,2.3-3,7.8c7.3,15.3,13.2,31.1,17.8,47.4c0.2,0.8,0.5,1.7,0.6,2.5c0.4,2.6-0.2,3.4-2.8,3.5c-3.6,0.2-7.2,0.3-10.7,0
			c-8.9-0.9-17.8-0.3-26.7-0.5c-1.7,0-4,0.7-4.8-1.1c-0.7-1.7,1.2-3.1,2.4-4.3c8-8,15.5-16.5,23.4-24.5c1.9-1.9,2.5-4,1.6-6.6
			c-1.6-4.5-3.4-8.8-5.9-12.9c-1.6-2.6-3.9-3.9-7-3.9c-3.2,0-6.4,0.1-9.5,0.3c-7.9,0.7-15-1-20.1-7.8c-3.2-4.2-3.8-9-3-14.1
			c0.4-2.2-0.3-2.3-2.1-1.7c-6.5,2.2-13,4.4-19.7,6.1c-4,1-5.7,3.7-5.1,7.8c0.3,2.5,0.4,5,0.4,7.5c-0.1,16.2,1,32.4,0.6,48.6
			c0,1.1,0,2.1,0,3.2c0,2.1-1.1,3.2-3.2,3.2c-2.3,0-4.6,0-7,0c-1.8,0-2.9-0.8-3-2.8c-0.2-3.5-0.8-6.9-0.6-10.4
			c0.4-13.2-0.9-26.4-0.6-39.7c0.1-2.4-0.4-4.8-0.7-7.2c-0.5-4.3-3.8-5.9-7.6-3.9c-4.9,2.6-8.4,6.8-11.8,10.9
			c-2.2,2.7-4.7,5.1-6,8.5c-0.6,1.6-2,2.1-3.5,1.1c-2.8-1.7-5.2-3.7-6.1-7c-1.9-6.8-2.7-13.8-3.9-20.8c-0.1-0.7-0.2-1.4,0.2-1.8
			c-1.3,4.2-3.5,8.4-5.2,12.8c-0.3,0.8-0.6,1.6-1.1,2.4c-1.2,1.9-2.1,2-3.5,0.2c-0.9-1.2-1.4-2.5-2.1-3.8c-2.3-4.5-4.3-9.1-7.3-13.1
			c-3.6-4.7-7.9-8.2-14.2-8.3C72.6,385.1,71.9,384.8,71.3,384.3z"/>
		<path class="st7" d="M71.3,384.3c7.2-0.7,12.5,2.6,16.6,8c3.7,4.8,6,10.5,8.9,15.8c0.6,1.2,1.3,2.3,2.2,3.8
			c2.7-6.2,5.2-12.1,7.9-18.5c1.6,8.2,2.5,15.8,4.2,23.3c0.9,4.1,4,5.7,6.8,7.7c1.2,0.9,1.2-0.5,1.4-1c3.6-7.2,9.2-12.7,15.1-18.1
			c0.4-0.4,0.9-0.7,1.4-1c2.4-1.6,4.9-3.1,7.8-1.6c2.8,1.4,3,4.2,3.1,7c0.7,16.4,1,32.8,1.2,49.2c0,2.2,0.3,4.4,0.3,6.6
			c0,1.4,0.7,1.5,1.8,1.5c2.7,0,5.4,0,8.1,0.1c1.5,0.1,1.9-0.4,1.9-1.9c0-14.1,0-28.2-0.5-42.3c-0.2-6.3-0.1-12.5-0.5-18.8
			c-0.3-4.5,1.4-6.6,5.6-7.5c8-1.7,15.6-4.7,23.6-7.2c0,2.2-1,4.2-1.1,6.4c-0.1,9.2,5.6,16.1,14.7,18c5.2,1.1,10.2,0,15.3-0.2
			c5.9-0.3,9.5,2.2,11.7,7.4c1.5,3.7,3.4,7.3,4.5,11.2c0.6,2.3,0.2,4-1.5,5.7c-8.9,9.3-17.7,18.6-26.5,28c-0.2,0.3-0.5,0.5-1.2,1.4
			c3.4,0,6.2,0,8.9,0c11.3,0.1,22.6,0.1,33.9,0.2c2.2,0,2.8-0.3,2.1-2.7c-4.9-18.4-11.8-36.1-20.1-53.2c-0.9-1.8-1.1-2.7,1.1-3.4
			c3-1,6.1-4.3,8.5-3.2c2,0.9,2.5,5.3,3.6,8.1c6.7,17.3,13.5,34.7,20.1,52.1c0.7,1.7,1.4,2.5,3.5,2.5c22.7,0,45.4,0.1,68.1,0.2
			c17,0.1,34,0.2,51,0.3c1.8,0,2.6-0.5,3.2-2.3c5.6-14.6,10.4-29.5,17.3-43.6c3.7-7.4,7.7-14.6,11.4-22c0.6-1.3,1.2-1.1,2.2-0.6
			c3.9,2,7.7,4,11.7,5.7c2.1,0.9,2.2,1.5,0.9,3.4c-9.2,12.9-16.8,26.7-23,41.2c-2.3,5.4-4.4,10.9-6.3,16.4c-0.6,1.6-0.1,1.8,1.3,1.8
			c4,0,7.9,0.1,11.9,0.2c28.9,0.1,57.8,0.2,86.7,0.4c2,0,3.1-0.5,4-2.4c1.8-3.7,3.9-7.3,6-10.8c1.5-2.5,3.5-4.2,6.8-3.8
			c3.2,0.4,5.4-1.3,6.9-3.8c2-3.3,3.6-6.8,4-10.7c0.2-1.7,0.8-3.1,1.8-4.4c2.1-2.8,4.2-5.5,6-8.5c2.6-4.2,6-6.5,11-5.7
			c-3.1,5.5-6.2,11.1-9.4,16.6c-7.1,12.4-14.3,24.7-21.4,37.1c-0.8,1.5-1.7,2.2-3.6,2.1c-24.5-0.1-48.9-0.1-73.4-0.2
			c-34.1-0.2-68.2-0.4-102.3-0.6c-34.4-0.2-68.8-0.4-103.2-0.6c-34-0.2-68-0.4-102.1-0.6c-1.5,0-3.1-0.4-4.6-0.1
			c-4.8,0.8-7.2-1.3-9.6-5.5c-15.3-26.9-30.9-53.7-46.4-80.5C72.2,386,71.8,385.2,71.3,384.3z"/>
		<path class="st7" d="M95.4,214.4c18.8,8.7,37.7,17.3,56.5,26c1.2,0.6,2.4,1.2,3.6,1.8c2.3,1.2,3.5,3,3.4,5.6
			c-0.1,2.6,1,6.4-0.7,7.4c-3.2,1.9-7.4,2-11.3,1.4c-4.6-0.7-8.2-3.2-10.9-7c-2.8-3.8-4.9-8.1-6.3-12.6c-0.8-2.6-1.9-2.3-3.5-1
			c-4.6,3.5-5.7,8.5-5.4,13.9c0.5,10.8,5.1,20.2,10.3,29.4c1.2,2,1,2.7-1.3,3c-19.4,2.5-34.1,12.2-44.7,28.5
			c-0.8,1.3-1.6,2.5-3.1,3.3c-6.8,3.3-10.6,11.4-8.9,18.8c0.6,2.8,5.5,12.7,7.6,15.4c2-3.6,3.9-7.3,6-10.8
			c5.6-9.6,13.9-14.6,25.5-14.5c-4.2,3.7-8.4,7-12,11c-9.6,10.6-14.5,23-14.4,37.3c0,2.3-0.3,2.9-2.8,2.2c-6.9-2-13.9-3.7-20.9-5.5
			c-2-2.1-3.1-4.8-4.6-7.3c-7.5-12.9-15-25.9-22.5-38.8c-0.7-1.2-1-2.1-0.2-3.4c19.8-34.2,39.6-68.5,59.4-102.7
			C94.6,215.3,95,214.9,95.4,214.4z"/>
		<path class="st8" d="M527.4,184.3c-8.8,14.5-18.6,28.3-27.6,42.6c-0.9,1.5-1.9,2.9-2.8,4.4c-1.1,2-2.7,2.8-5.9,2.5
			c12.5-17.1,24.6-33.9,34.9-51.9C526.9,182.5,527.1,183.5,527.4,184.3z"/>
		<path class="st7" d="M236.9,304.9c-4.2,5.4-6.2,11.6-7.4,18.2c-1.1,6.1-0.9,12.3,0.4,18.4c0.2,1.1-0.1,1.8-1,2.4
			c-1,0.6-1.3,0.1-1.8-0.5c-12.5-14.2-22.1-30-27.8-48.1c-6.6-20.6-8.3-41.6-7.1-63c0.9-15.2,3-30.2,7.1-44.9
			c2.6-9.2,6.2-17.9,9.7-26.8c0.4-0.9,1.1-1.9,0.7-3.2c-1.4,1.3-2,3-2.8,4.5c-7.9,15.1-12.6,31.3-15.2,48.1c-2.5,16.3-3,32.7-2.1,49
			c1.8,31.4,12,59.7,31.5,84.5c0.4,0.5,0.7,0.9,1,1.4c0.1,0.1,0.1,0.3,0.3,1c-9.7-3.5-19.1-6.9-28.5-10.3c4.3,5.5,10.2,8.2,16.6,10
			c4.8,1.4,9.8,2,14.7,2.9c5,0.9,9,3.3,11.5,7.9c1.5,2.9,4,5,6.3,7.1c1.7,1.5,1.9,2.4-0.2,3.5c-0.9,0.5-1.9,1-2.4,2.3
			c5.6-1.9,11-3.8,16.5-5.4c17.7-5.4,35.8-8.9,54.3-10.3c38.1-2.8,74.9,3.1,110.8,15.6c1.5,0.5,3.1,1,4.6,1.6c0.9,0.3,1.6,0.7,2-0.6
			c0.4-1.2-0.5-1.2-1.1-1.5c-5.1-2.3-10.1-4.6-15.5-7c3.6-4.2,7.2-8.3,10.6-12.4c0.9-1.1,1.7-0.5,2.5-0.2c4,1.5,8,2.5,12.3,3
			c9.1,1.1,16.9-1.6,23.7-7.6c7.9-6.9,13.1-15.8,18.2-24.8c2.7-4.7,6.8-8.3,10.1-12.6c0.7-0.9,1.3-0.3,1.9,0.3
			c2.1,1.9,4.3,3.8,6.5,5.8c9.3,8.4,9.7,19,6.9,30.1c-3.1,12.3-9.9,21.7-21.6,27.4c-5.7,2.8-11.3,5.7-16.8,8.9
			c-2.1,1.2-3.4,0.4-4.8-0.8c-1.5-1.3-2.6-2.8-1.8-5.1c0.6-1.8,1.9-3.1,3.3-4.3c9.7-7.6,19.5-15.1,29.3-22.7
			c0.2-0.2,0.5-0.2,0.9-0.4c0.6,2.1,1.2,4.1,1.9,6.4c4.3-8.4,1-22.7-6.6-29.3c-1.7,1.1-1.7,2.6-0.7,4.2c0.4,0.6,0.7,1.4,1,2.1
			c4.7,9.4,4.3,11.7-4.1,18.3c-10.3,8-20.6,16-30.9,23.9c-1.7,1.3-1.7,2-0.4,3.5c4.7,5.2,9.6,10.3,13.7,16.1c1.1,1.6,2.1,3.2,2.9,5
			c1.8,4,0.7,6.7-3.5,8.2c-5.6,2-11.5,2-17.4,1.6c-13.1-0.9-24.1-7.2-35.4-13.1c-16.5-8.7-34.2-13.8-52.7-15.6
			c-26.8-2.7-52.8,1.6-78.3,9.6c-21.8,6.9-43.4,14.3-65.1,21.3c-11.4,3.7-16.6,1.7-24.4-7c-1.1-1.3-1.5-2.5-1-4.2
			c0.8-2.8,1.9-5.4,3.6-7.8c2.1-3.1,4.1-6.3,5.2-9.9c1.4-4.7,0.1-8.7-3-12.3c-4.7-5.5-10.8-9.3-16.4-13.8c-3.2-2.6-6.5-5.2-9.3-8.2
			c-5.9-6.5-6.7-12.5-2.6-20.3c0.9-1.7,1.9-3.3,3-5.3c-5.1,0.4-7.9,3.5-10.3,7.1c-4.5,6.7-5.5,17.6-2.7,22c0.9-2.7,1.7-5.3,2.7-8.2
			c3,2.7,5.7,5.3,8.5,7.8c8.4,7.7,16.7,15.5,25.1,23.2c0.6,0.6,2.2,1,1.3,2.3c-0.7,1.2-1.6,1.5-3.2,0.9c-7.9-2.9-16-5.3-23.8-8.8
			c-11-4.9-17.9-13.1-19.3-25.3c-0.8-6.5,0.8-12.6,3.3-18.5c1.6-3.9,3.4-7.8,6-11.1c3.7-4.6,7.9-4.8,12-0.4c2.7,2.8,4.4,6.3,6.2,9.7
			c2.9,5.5,6.8,10,12.3,13.1c0.6-0.7-0.1-1.2-0.4-1.6c-4.4-6.7-8.9-13.3-13.3-20c-4.1-6.2-9.4-9.3-16.9-7.2c-0.2,0-0.4,0-0.6,0
			c-0.2,0-0.3-0.1-0.7-0.3c3.9-4.6,7.8-9.2,12.2-14.4c-3,0.6-5.1,1.2-6.7,3.1c-7.5,9.4-13.5,19.7-15.7,31.7
			c-1.4,7.6-1.6,15.4,0.4,22.9c2.9,10.7,10.7,16.8,20.3,21.1c7.3,3.3,14.9,5.7,22.3,8.5c1.4,0.5,2.3,1,2.5,2.7
			c0.2,1.8-1.1,2-2.1,2.5c-8.8,4.2-17.5,8.9-27.2,11c-7.6,1.6-15.4,2.3-23,4.3c-11.6,3.1-20.4,9.3-24.5,21.1c-4.9-4-7-12.9-4.8-20.2
			c2.2-7.1,7-12.5,12.2-17.7c-7.2-0.8-12.7,3.2-27.5,19.9c-7.8-14.5-10.8-29.4-5.3-45.3c5.4-15.7,16.9-26,30.9-34.8
			c-7.1-1.9-13.5-1.4-19.9,0.4c-5.9,1.6-11.3,4.2-16.5,7.5c-1.8,1.1-2,0.7-2.1-1.1c-0.3-10,3.9-17.9,10.9-24.5
			c10.3-9.8,23.1-14.7,36.9-16.9c2.6-0.4,5.2-0.5,7.8-0.7c0.6,0,1.3,0.1,1.6-0.5c0.5-0.8-0.4-1.2-0.8-1.6
			c-3.4-4.2-7.1-8.1-10.1-12.7c-5.2-7.9-7.9-16.4-5.7-26c0.1-0.4,0.3-0.9,0.6-1.7c2.6,3,5,5.6,7.3,8.4c4.6,5.7,10.7,8.2,17.8,9.1
			c1.5,0.2,3.1,0.4,4.6,0.6c4.6,0.5,4.6,0.5,5.6,4.9c2.2-28.6,4.3-57.2,17.1-83.7c1.1,1,0.7,2.5,2,3.4c3-9.3,6-18.4,8.9-27.6
			c8.4-26.5,22.6-49.6,40.3-70.7c6.5-7.7,14.9-12.6,25.2-12.9c12.1-0.4,21.2,5.3,28.5,14.4c6,7.5,9.4,16.5,13.9,24.9
			c1.3,2.3,2.5,4.7,4.1,7.6c0.3-2.2-0.5-3.4-0.9-4.7c-2.2-6.6-4.5-13.3-6.8-19.9c-0.2-0.6-0.9-1.3,0-1.7c0.9-0.5,1,0.6,1.4,1
			c5.9,7.5,11.8,15,17.6,22.6c0.6,0.8,1.3,1.5,1.8,2.3c0.4,0.7,0.8,0.7,1.4,0.3c0.7-0.4,0.1-0.9-0.1-1.2c-0.4-0.8-1-1.6-1.5-2.4
			c-3.9-6.2-7.9-12.3-12-18.7c19.5-6.4,38.9-7.1,59-2.3c-3.7,4.3-7.2,8.5-10.7,12.7c0.2,0.2,0.4,0.5,0.6,0.7
			c6.5-5.5,13-11,19.6-16.5c0.5,1.3-0.4,2.1-0.8,2.9c-7,14.1-14.1,28.2-21.2,42.3c-0.5,1.1-1.4,1.9,0.5,2.9c1.8,0.9,2-0.5,2.4-1.3
			c1.9-4.9,3.5-10,5.5-14.8c7.7-18.7,19.3-34.3,35.8-46.2c11.2-8,22.6-8.1,34.2-0.8c17.3,10.7,28.4,26.3,35.4,45
			c6,16.1,9.8,32.7,12.3,49.7c1.5,10.2,2,20.5,2.1,30.8c0,1.8,0,1.9,1.3,4.5c0.5-3.1,0.9-5.7,1.4-8.7c3.6,4.2,5.1,8.9,6.1,13.7
			c2.6,12.9,2.4,25.9,2.3,38.9c0,4.4,0,8.9,0,13.3c0.3,0.1,0.5,0,0.6-0.3c2.6-5.9,2.6-5.7,9.3-4.8c7.7,1.1,15.4,1,22.6-2.5
			c4.4-2.1,8-5.3,11.1-9.2c1.2,7.2-3.7,15.3-19.4,32.3c10.3-1.3,20-0.6,29.1,3.9c9.1,4.5,15.6,11.8,21.2,20.6
			c-4.7-0.3-8.7-1.7-12.9-2.2c-6.1-0.8-12.1-0.7-17.4,3.5c17.8,5,26.4,18,31.2,34.3c4.4,15,2.6,29.7-2.4,44.2
			c-0.1,0.2-0.4,0.4-0.7,0.8c-8.2-11.6-18-20.4-34-20c12.2,14.9,15.8,30.7,6.8,48.6c-1.6-5.1-3.5-9.7-6.5-13.7
			c-5.8-7.8-14.2-11.6-23.1-14.4c-8.7-2.8-17.6-4.6-26.1-8.5c0.8-1.2,2.1-1.3,3.2-1.8c17.1-7.4,26-20.6,28.6-38.9
			c1.8-13.1-1-25-6.8-36.5c-0.4-0.8-0.7-1.2-1.6-0.8c-1.1,0.4-0.9,0.9-0.5,1.7c1.2,2.4,2.3,4.9,3.4,7.3c0.3,0.6,0.6,1.3-0.2,1.8
			c-0.7,0.4-1-0.3-1.5-0.6c-2.1-1.7-3.9-3.7-6.3-5.1c-4.8-2.9-9.2-2.2-12.9,2c-2.9,3.3-4.7,7.3-6.9,11c-4.9,8.3-10,16.5-16.4,23.7
			c-6.5,7.4-15.8,9.9-24.9,6.9c-1.6-0.5-1.9-1-0.7-2.4c17.4-20.9,27.3-45,31.1-71.8c4.8-33.6,1.7-66.4-9.5-98.4
			c-0.1-0.1-0.3-0.3-0.4-0.2c-0.3,0.2-0.2,0.5-0.1,0.8c1.6,8.1,3.2,16.2,4.8,24.3c2.2,11.2,3.5,22.4,4.1,33.8
			c1.2,21-1.1,41.5-7.1,61.6c-3.8,12.6-9.2,24.4-15.9,35.7c-3.1,5.2-7.7,9.1-11.6,13.6c-0.7,0.8-1.2,0.5-2,0.1
			c-1.1-0.6-1.4-1.4-1.2-2.6c0.5-3.6,1-7.2,1.5-10.9c0.1-0.8,0.7-1.9-0.6-2.1c-1.1-0.2-0.8,1-1,1.7c-2.9,9.4-8.7,17.1-14.8,24.5
			c-2.4,2.9-6.2,3.1-9.7,2.5c-10.4-1.8-20.7-4.2-30.9-6.8c-4.4-1.1-7.2-3.7-8.6-8.1c-2.9-9.3-2.3-18.4,1.1-27.4
			c0.3-0.9,0.7-1.8,1-2.7c0.8-4.4,3.7-7.6,6.6-10.6c4.9-5.2,10.6-9.1,17.8-10.5c2.7-0.5,5.4-0.6,8.1-0.7c1.3,0,2.8-0.3,3.4-1.7
			c0.7-1.5-0.1-2.8-1-4c-0.9-1.2-2-2.1-3.2-2.9c-1.4-1.1-2.5-2.4-3.4-3.9c-1.7-2.7-1.6-5.2,0.2-7.8c1.3-1.9,3-3.5,3.9-5.7
			c0.7-1.8,0.5-3.1-1.4-4c-2.4-1.2-4.8-2.5-7.3-3.5c-4.5-1.8-8.3,1.2-7.6,6.1c0.7,5,2.4,9.7,3.9,14.5c0.9,2.9,1.7,5.7,2.6,8.6
			c0.4,1.1,0.7,2.2,0,3.3c-6,4.3-12.5,7.7-18.7,11.6c-1.9,1.2-3.2,0.2-3.8-1.6c-0.9-2.4-1.7-4.9-2.3-7.5
			c-2.9-11.6-4.4-23.3-4.5-35.2c0-10.7-0.2-21.4,0.6-32.1c1.1-14,3.7-27.7,7.6-41.2c2.1-7.2,4.5-14.4,7.2-21.4
			c0.3-0.8,0.9-1.5,0.3-2.6c-0.8,0.3-1,1.1-1.2,1.7c-5.6,18.4-11.8,36.6-14.3,55.8c-1.9,14.8-1.9,29.6-1,44.5
			c0.5,8.2,1.7,16.3,2.9,24.4c0.7,4.4,2.3,8.6,3.4,12.9c1.2,4.5,1.6,9.1,1.2,13.8c-4.6-1.6-8.9-4-13.6-5.4
			c-14.5-4.3-28.4-2.3-41.9,3.8c-1,0.5-2.1,1-3.1,1.4c-0.1,0-0.2,0-0.6,0c1-6,2.1-12,3.1-18c1.8-10.2,3.3-20.5,3.9-30.9
			c0.7-12.1,0.9-24.1,0.4-36.2c-1.2-29.7-7-58.3-20.3-85.2c-7.5-15.2-19.1-25.9-35.5-30.9c-0.1,0-0.3-0.2-0.4-0.3
			c0-0.8,0.7-1.1,1-1.7c0.3-0.6,1.4-1,1-1.8c-0.5-0.8-1.5-0.8-2.4-0.6c-10.1,2.8-17.4,9.3-23.3,17.5c2.5-0.6,4.1-2.6,6.6-3.9
			c2.2,5.4,4.4,10.7,6.6,16.1c1.3,3.1,1.2,3.1,3.8,1c2.1-1.8,4.3-4.8,6.5-4.9c2.2-0.1,4.6,2.8,6.9,4.3c2,1.3,3.9,4,5.9,3.5
			c1.7-0.4,2.7-3.5,3.9-5.4c1.2-1.8,2.5-3.7,3.6-5.6c0.9-1.6,1.5-1.4,2.7-0.2c8.5,8.5,14.5,18.5,17.7,30c4.2,15.1,6.9,30.5,9.4,46
			c2.6,15.8,3.5,31.6,2.8,47.5c-0.5,10.9-1.8,21.7-2.6,32.5c-0.6,7.1-1.3,14.2-3.9,21.1c-3.4-3.1-5.7-7.2-9.2-10.2
			c-4.3-2.4-5.1-4.6-3.3-9c1.5-3.6,3.2-7.3,4.2-11.1c2.2-8.6-0.4-16.6-3.7-24.5c-2-4.8-5-9.1-8.3-13.2c-1.5-1.9-3-3.8-4.4-5.8
			c-3.2-4.4-5.2-9.1-4.9-14.8c0.3-6.3,0.1-12.6,0.1-18.8c0-1-0.2-2.4,0.8-2.9c1.1-0.6,1.9,0.5,2.8,1.1c4,2.7,5.9,6.3,4.4,11.2
			c-0.4,1.2-0.6,2.4-0.6,3.7c0.5,7.3,4.8,9.9,11.9,9c2.8-0.4,3.3-3.1,3.6-5.3c0.6-4.3,0-8.4-1.8-12.5c-2.8-6.6-7.4-11.7-12.9-16.1
			c-4.4-3.5-8.2-7.4-8.7-13.4c-0.1-1.6-1.1-3-2.3-4.4c-1.8,2.1-2.6,4.4-3.1,6.7c-0.4,1.9-1.5,2.8-3.5,2.8c-2,0-4.1,0-6.1,0
			c-2.1,0-3.2-1-3.7-2.9c-0.7-2.9-1.3-5.8-2-8.8c-0.2-0.6-0.2-1.5-1-1.6c-1,0-1.1,1-1.2,1.7c-0.3,1.6-0.6,3.2-0.8,4.9
			c-0.3,1.6-1.1,2.5-2.8,2.2c-2.1-0.3-3.5,0.7-4.8,2.1c-3.6,3.8-7.5,7.2-11.7,10.3c-6.3,4.8-8.7,12.3-6.4,19.9
			c1.7,5.6,4.1,10.7,8.5,14.9c6.4,6.2,8.4,14.3,7.9,22.8c-0.4,6.9-1.2,13.8-1,20.8c0,0.4,0,0.8,0,1.2c-0.1,1.1,0,2.5-1.2,3.1
			c-1.3,0.6-2.2-0.4-3.1-1c-0.8-0.6-1.4-1.3-2.1-2c-3.7-3.7-4.2-6.4-1.7-10.9c1.3-2.3,1.5-4.5,1.3-7c-0.6-5.9-6.2-8.8-11.2-5.6
			c-5.8,3.7-8.5,10.1-4.1,16.6c5.5,8,11.4,15.6,17.7,22.9c3.8,4.4,5.8,9.5,5.5,15.4C238.9,301.5,238.8,303.6,236.9,304.9z"/>
		<path class="st1" d="M236.9,304.9c3-7.9,0.6-14.6-4.5-20.6c-6.1-7-11.8-14.3-17.1-21.9c-4.7-6.8-3.3-13.6,3.6-18.2
			c5.3-3.6,11.9-0.8,12.9,5.5c0.4,2.7,0.4,5.3-1.2,7.8c-2.9,4.5-2.4,7.1,1.7,10.6c1.3,1.1,2.7,2.2,4,3.3c0.7-0.9,0.7-1.8,0.7-2.6
			c0-8.5,0.8-17,1-25.4c0.1-8-2.7-14.8-8.5-20.5c-4.9-4.7-7.3-10.9-8.4-17.4c-1.2-7.1,1.7-13,7.2-17.3c4.6-3.7,9-7.6,13.2-11.7
			c1.2-1.2,2.4-1.6,3.9-1c1.7,0.7,2-0.2,2.2-1.5c0.3-2.2,0.8-4.4,1.1-6.6c0.1-1.1,0.6-1.5,1.6-1.6c1.2-0.1,1.4,0.6,1.6,1.6
			c0.7,3.4,1.5,6.8,2.2,10.1c0.3,1.5,0.9,2.5,2.6,2.2c0.2,0,0.4,0.1,0.6,0.1c2.3,0.1,4.7,0.6,6.9,0.1c2.8-0.6,1.4-3.9,2.7-5.6
			c1.1-1.3,1.7-3,2.6-4.8c1.8,2.1,3.2,4.1,3.4,6.6c0.4,5.1,3.1,8.6,7,11.5c6,4.6,11.2,9.8,14.2,16.9c2.2,5.2,3.3,10.4,1.5,16
			c-0.8,2.5-2.5,3.6-5.2,3.7c-8.8,0.1-13.1-4.7-10.9-13.3c1.6-6.3-1.2-9.7-6.1-12.5c-0.8,0.3-0.3,1.1-0.3,1.7
			c0,6.8,0.1,13.5-0.1,20.3c-0.1,4.8,1.3,8.9,4,12.7c3.3,4.4,6.7,8.8,9.7,13.3c4.7,6.9,7.3,14.6,8.3,22.9c0.6,4.5-0.3,8.8-1.9,13
			c-0.6,1.6-1.1,3.3-2,4.8c-2.6,4.2-2.6,8,1.6,11.2c-0.9,0.4-1.9,0.9-2.8,1.3c-0.6,0.4-1.1,0.3-1.6-0.1c-4.8-3.3-8.8-7.2-9.5-13.5
			c-0.7-6.4-1.3-12.9-1.2-19.3c0-1.9,0-3.7-0.6-5.6c-0.1,7.5-0.1,15-0.1,22.5c0,5.5-0.2,5.7-5.7,6.6c-4,0.6-8,1.1-12,1.9
			c-6.6,1.4-11.9,4.9-16.2,9.9c-1.3,1.5-2.1,3.6-4.4,3.9C237.9,305.4,237.4,305.1,236.9,304.9z"/>
		<path class="st7" d="M238.4,305.6c2.5-2.5,4.4-5.5,7.1-7.9c5.5-5,12.1-6.9,19.2-7.8c3-0.4,5.9-0.9,8.9-1.2
			c1.8-0.2,2.5-0.9,2.5-2.9c-0.1-8.4-0.1-16.8,0-25.1c0-0.9-0.7-2.5,1-2.4c1.4,0,0.9,1.5,0.9,2.3c0.5,7.7,0.6,15.4,1.3,23.1
			c0.5,5.5,2.4,10,7.2,13.1c1.2,0.8,1.9,2.2,3.4,2.5c5.7,5.8,10.3,12.2,11.9,20.3c2.2,11.2-0.8,21.1-8,29.8c-2.3,2.7-5.4,4.5-8.9,5
			c-9.1,1.5-17.9,4.5-26.7,7c-7.4,2.1-13.2,0-17.9-5.8c-7-8.5-9.3-18.3-8.5-29.1C232.2,319,234.6,312.1,238.4,305.6z"/>
		<path class="st7" d="M358.3,331.9c0,4.9-0.1,9.8,0,14.8c0,1.8-0.3,2.5-2.3,2.5c-11.4-0.1-22.8-0.2-34.1,0.4
			c-6.3,0.4-12.7,0.7-19,1.2c-1.8,0.1-2.3-0.3-2-2.1c1.7-9.2,3.3-18.3,4.9-27.5c0.5-3.1,2.6-5,5.2-6.1c15-6.7,30.2-7.8,45.5-0.8
			c1.5,0.7,1.9,1.5,1.9,3C358.2,322.1,358.3,327,358.3,331.9z"/>
		<path class="st7" d="M318.1,382.1c7.7-0.4,15-0.8,22.8-1.3c-3.8,7.4-7.3,14.4-11,21.7C325.8,395.7,322.1,389.1,318.1,382.1z"/>
		<path class="st9" d="M454.6,177c-0.7-0.7-0.7-1.5-0.3-2.4c0.7,0.4,0.6,1.1,0.8,1.7C454.9,176.5,454.7,176.7,454.6,177z"/>
		<path class="st1" d="M432,248.2c-2.3,14.7-0.4,29.5-0.7,44.2c-0.2,8.3,0.6,16.6-0.4,24.9c-0.1,1.1-0.1,2.4-1.9,2.2
			c-1.9-0.2-1.1-1.6-1.1-2.4c0-21.1,0-42.1,0-63.2c0-0.7,0-1.4,0-2c0-0.8-0.2-1.3-1.1-1.3c-0.9,0-1.2,0.4-1.2,1.2c0,0.8,0,1.5,0,2.3
			c0,20.2,0,40.4,0,61.1c-2.8-2.4-4-5.1-3.9-8.2c0.1-5.6,0.6-11.2,0.7-16.7c0.2-11.8-0.4-23.5-3.2-35c-0.1-0.5-0.4-1-0.7-1.9
			c-0.9,4.7,0.3,9.2-1.8,13.5c-1.4-1.3-1-3-2.3-3.7c-0.7,0.1-0.7,0.7-0.7,1.1c0.1,8.4,0.1,16.8,0.2,25.2c0,0.9-0.2,2,0.6,2.4
			c4.4,2.4,3.8,7,5.1,11.4c-5.1-2.9-9.9-5.2-14-8.6c-1.8-1.5-2.8-3.8-1.8-6.3c3.6-8.5,2.9-17.3,2-26.2c-0.7-6.6-3.1-11.7-8-16.3
			c-5.8-5.3-11-11.3-16.2-17.3c-8.9-10.4-5.9-24.1,0.3-31c0.9,1.7,1.7,3.3,2.9,5.6c0.6-3.2,1-5.7,1.4-8.3c0.2-1.1-0.3-2.7,1.8-2.5
			c2.1,0.2,1.5,1.7,1.6,2.8c0.3,2.1,0,4.2,1,6.6c0.3-2.3,0.6-4.2,0.7-6.1c0.3-3.9,1.9-6.9,5.8-8.1c1.3-0.4,1.8-1.3,1.8-2.6
			c0.1-2.9,0.4-5.8,0.4-8.7c0-1.4,0.5-2.1,1.9-2.3c0.1,0,0.2-0.1,0.3-0.1c1.9-0.4,4.1-1.7,5.5-1.1c1.7,0.7,0.7,3.4,1.1,5.2
			c0.5,2.1,1.5,3.6,5,6.6c2-1.7,3.9-3.4,5.5-5.5c1.5-2,3.1-3.9,5.8-5c0.5,4.7,1,9.1,1.5,13.6c0.5,4.5,0.9,9,1.9,13.5
			c0.2-2.7,0.5-5.4,0.6-8.1c0.1-1.2,0-2,1.6-2c1.6,0,1.6,1,1.6,2.1c0,6.9,0,13.7,0,20.6c0,1-0.6,2.4,1.4,2.5
			c2.1,0.1,1.6-1.4,1.6-2.6c0-4.5,0-9.1,0-13.6c0-1.1,0-2,1.6-2.1c1.7-0.2,1.6,1,1.8,1.9c0.7,4.4,1.2,8.7,1.9,13.1
			c0.3,0,0.6,0,0.8,0c0.6-3.3,1.1-6.7,1.7-10.4c3.4,5.9,6.9,11.3,9.2,17.3c0.9,2.4,0.8,4.9,0.5,7.4c-0.3,2.1-1.6,3.5-3.8,3.7
			c-5.4,0.6-10.6,0.4-14.9-3.5c-1.1,0.6-0.6,1.7-0.6,2.6c-0.1,5,0,9.9,0,14.9C432.9,246.4,433.1,247.5,432,248.2z"/>
		<path d="M420.5,148.7c-2.3-4.7-4.4-9.1-6.8-13.9c-3.4,3.5-6.6,6.9-10,10.4c-2.6-5.9-3.3-12.2-6.7-17.8c-3.8,4.6-7.5,9.1-11.2,13.5
			c1-5,3.2-9.5,5.9-13.7c4-6,9-11.1,14.3-15.9c1.1-1,2.2-0.9,3.5-0.7c7.8,1.4,13.8,5.9,18.9,11.5c9,9.7,15.2,21,18.9,33.7
			c0.2,0.9,0.4,1.7,0.2,2.7c-3.5-6-7-11.9-10.5-17.8c-0.6-1.1-1.3-2.2-2.1-3.1c-3.2-3.5-4.6-3.3-7,0.6
			C425.8,142,423.2,145.1,420.5,148.7z"/>
		<path d="M363.7,314.3c-1.3-4.1-0.5-8.4-1.8-12.5c-7.1-22.5-8-45.6-7-68.9c0.8-19,5.4-37.4,11.1-55.5c1.7-5.3,3.4-10.6,4.9-15.9
			c0.4-1.4,0.6-2.1,2.4-1.5c2.1,0.7,0.6,1.8,0.4,2.4c-5.2,13.5-9.4,27.2-12.2,41.3c-2.6,13.1-3.6,26.3-3.9,39.6
			c-0.2,11-0.2,22,1.2,32.9c1.1,8.6,2.9,17,5.6,25.3c0.6,1.8,1.2,1.7,2.6,0.9c6.3-3.9,12.7-7.6,19.1-11.4c1.7,0.3,1.9,1.5,1.7,2.9
			c-10.5,2.7-17.8,9.3-23.1,18.5C364.4,313,364,313.6,363.7,314.3C363.6,314.3,363.7,314.3,363.7,314.3z"/>
		<path class="st10" d="M387.9,293.8c-0.6-1-1.1-1.9-1.7-2.9c-2.2-7.8-4.5-15.7-6.6-23.6c-0.4-1.5-1.1-3.1-0.5-4.8
			c1.7-5.2,3.9-6.3,8.9-4.3c2.9,1.2,5.5,2.7,8.3,4.1c1.3,0.7,1.6,1.4,1.1,2.7c-0.8,2.1-1.6,4.1-3.2,5.7c-3.7,4.1-3.6,7.4,0.5,11.2
			c1.5,1.5,3.3,2.7,4.7,4.3c1.2,1.3,2,3,1.2,4.8c-0.8,1.7-2.5,1.9-4.2,2C393.4,293.4,390.6,293.6,387.9,293.8z"/>
		<path class="st1" d="M432,248.2c1.2-5.7,0.3-11.5,0.6-17.2c0.1-1.1-0.6-2.4,0.9-3.1c-1.2,2.3-0.3,4.7-0.6,7.1
			c-0.9,7.1,1,13.1,5.7,18.8c5.9,7,8.7,15.6,10,24.6c0.9,6.1-1.1,10.8-5.6,13.5c-1.8,1.1-2.9,1.4-2.9-1.4c0-2.3-0.6-4.6-0.9-6.9
			c-0.3-2.3-0.6-4.5-0.9-7c-1.3,1.2,0.1,4.2-2.6,4c-2.1-0.2-1.7-2.7-2.5-4.1c-0.8-1.4-0.7-3-0.7-4.5c0-7,0.1-14.1,0.1-21.1
			C432.6,249.9,433.1,248.9,432,248.2z"/>
		<path class="st11" d="M347.9,250.4c0-13,0-26.1,0-39.1c0-0.8-0.1-1.5,1.1-1.5c1.2,0.1,1.1,0.8,1.1,1.6c0,3.1,0,6.2,0.6,9.3
			c0.8-4.1,1.6-8.2,2.4-12.2c0.1-0.7,0.3-1.3,0.4-2c0.1-0.5,0.2-1,0.9-0.9c0.6,0.1,0.8,0.5,0.7,1c-0.4,5.3,0.4,10.6-0.8,15.9
			c-0.3,1.5-0.8,3-1.7,4.2c-2.7,3.8-3.7,8-3.6,12.5C349,243,349.2,246.8,347.9,250.4z"/>
		<path class="st12" d="M469.2,225c4.9,13.4,4.8,32.8,0,42.6C469.2,253.3,469.2,239.1,469.2,225z"/>
		<path class="st13" d="M316.7,234.5c0,7.5,0,15.1,0,22.6c0,0.7,0.6,2-0.8,2c-1.3,0-0.9-1.2-0.9-2c0-15.1,0-30.1,0-45.2
			c0-0.7-0.4-1.8,0.8-1.8c1.4-0.1,1,1.2,1,1.9C316.7,219.5,316.7,227,316.7,234.5z"/>
		<path class="st7" d="M248,244.8c11.5,5.9,18.7,21.8,15.2,33.3c-1.4,4.5-5,6-9.2,3.8c-3.7-1.9-6-4.6-6-9.1
			C248.1,263.5,248,254.3,248,244.8z"/>
		<path class="st14" d="M254,191.8c6.3,2.2,7.2,7.3,7.6,12.8c0.3,4.4,0.9,8.8,1.3,13.2C248.7,213.9,246.8,202.9,254,191.8z"/>
		<path class="st15" d="M286.2,273.3c0,3.5,0,6.9,0,10.4c0,0.9,0.2,2-1.3,2c-1.4,0-1.2-1.1-1.2-1.9c0.1-6.8,0.2-13.7,0.2-20.5
			c0-1,0.3-1.8,1.4-1.8c1.4,0,0.8,1.3,0.9,2C286.2,266.8,286.2,270.1,286.2,273.3z"/>
		<path class="st7" d="M421.6,233.7c-4.6-1.7-6.7-5.1-8-9c-2.9-9.1-2-18.5-0.7-27.7c0.3-1.8,1.4-0.7,2.1-0.3
			c3.6,2.4,4.6,6.2,5.4,10.1C422,215.6,421.5,224.5,421.6,233.7z"/>
		<path class="st16" d="M402.4,219.1c-3.1-2.7-5.7-5.2-7.4-8.3c-2-3.6,1.1-9.6,5.1-10.2c1.4-0.2,1,0.9,1.1,1.5
			C401.5,207.6,401.9,213.1,402.4,219.1z"/>
	</g>
	<g>
		<path class="st7" d="M187.4,513.7v19.3h-3.5v-8.3h-8.6v8.3h-3.5v-19.3h3.5v7.8h8.6v-7.8H187.4z"/>
		<path class="st7" d="M204,532.9l-1.5-4.6h-7.8l-1.5,4.6h-3.5l6.9-19.3h4.3l6.8,19.3H204z M198.7,516.7l-2.9,8.6h5.7L198.7,516.7z"
			/>
		<path class="st7" d="M219.9,516.9v16.1h-3.5v-19.3h11.2v3.2H219.9z"/>
		<path class="st7" d="M233.6,526.5v6.4h-3.5v-19.3h6.4c2.4,0,4.2,0.5,5.3,1.5c1.2,1,1.8,2.6,1.8,4.7c0,4.4-2.5,6.5-7.4,6.5H233.6z
			 M233.6,516.8v6.5h2.6c1.3,0,2.3-0.3,2.9-0.8c0.6-0.5,0.9-1.4,0.9-2.5c0-1.2-0.3-2-0.9-2.5c-0.6-0.5-1.5-0.8-2.9-0.8H233.6z"/>
		<path class="st7" d="M262.2,513.7v19.3h-3.5v-14.3l-8.4,14.3h-3.8v-19.3h3.5v14.2l8.4-14.2H262.2z"/>
		<path class="st7" d="M273.5,532.9h-7.1v-19.3h7.3c4,0,5.9,1.6,5.9,4.9c0,2.4-1.2,3.8-3.7,4.3v0.1c1.3,0.1,2.3,0.5,3.1,1.3
			c0.8,0.8,1.1,1.8,1.1,2.9C280.2,531,278,532.9,273.5,532.9z M270,516.7v5.1h2.4c2.6,0,3.9-0.9,3.9-2.6c0-1-0.2-1.6-0.7-2
			c-0.5-0.3-1.3-0.5-2.5-0.5H270z M270,524.4v5.5h2.9c1.3,0,2.2-0.2,2.8-0.6s0.9-1.1,0.9-2.1c0-1-0.3-1.8-1-2.2
			c-0.6-0.4-1.7-0.7-3.1-0.7H270z"/>
		<path class="st7" d="M299.2,513.7v19.3h-3.5v-8.3H287v8.3h-3.5v-19.3h3.5v7.8h8.6v-7.8H299.2z"/>
		<path class="st7" d="M318.5,533.2c-2.6,0-4.7-0.7-6.2-2.2c-1.5-1.5-2.3-3.6-2.5-6.4h-3v8.3h-3.5v-19.3h3.5v7.8h3.1
			c0.3-2.5,1.2-4.5,2.7-5.9c1.5-1.4,3.5-2.1,5.8-2.1c6,0,8.9,3.3,8.9,9.9c0,3.3-0.8,5.8-2.3,7.5
			C323.5,532.4,321.3,533.2,318.5,533.2z M318.7,530.1c1.7,0,2.9-0.6,3.8-1.7c0.8-1.1,1.2-2.8,1.2-5.1c0-2.4-0.4-4.2-1.3-5.2
			c-0.9-1.1-2.2-1.6-3.9-1.6c-1.6,0-2.8,0.6-3.7,1.7c-0.9,1.2-1.4,2.8-1.4,5C313.3,527.8,315.1,530.1,318.7,530.1z"/>
		<path class="st7" d="M354.5,529.7v7.5h-3.4v-4.3h-12.1v4.3h-3.4v-7.5h1.9c0.9-1.6,1.5-3.5,1.9-5.7c0.3-2.2,0.6-5,0.6-8.4l0.1-2
			h12.2v16.1H354.5z M341.1,529.7h7.7v-12.9h-5.4c0,0.1,0,0.3,0,0.6c0,0.3,0,0.5,0,0.6C343,523.4,342.3,527.3,341.1,529.7z"/>
		<path class="st7" d="M369.1,529.8v3.1h-11.8v-19.3h11.8v3.1h-8.3v4.7h7.4v3h-7.4v5.3H369.1z"/>
		<path class="st7" d="M394.2,513.7v19.3h-21.5v-19.3h3.5v16.1h5.5v-16.1h3.5v16.1h5.5v-16.1H394.2z"/>
		<path class="st7" d="M410.2,529.8v3.1h-11.8v-19.3h11.8v3.1h-8.3v4.7h7.4v3h-7.4v5.3H410.2z"/>
		<path class="st7" d="M420.8,532.9h-7.1v-19.3h7.3c4,0,5.9,1.6,5.9,4.9c0,2.4-1.2,3.8-3.7,4.3v0.1c1.3,0.1,2.3,0.5,3.1,1.3
			c0.8,0.8,1.1,1.8,1.1,2.9C427.5,531,425.3,532.9,420.8,532.9z M417.2,516.7v5.1h2.4c2.6,0,3.9-0.9,3.9-2.6c0-1-0.2-1.6-0.7-2
			c-0.5-0.3-1.3-0.5-2.5-0.5H417.2z M417.2,524.4v5.5h2.9c1.3,0,2.2-0.2,2.8-0.6s0.9-1.1,0.9-2.1c0-1-0.3-1.8-1-2.2
			c-0.6-0.4-1.7-0.7-3.1-0.7H417.2z"/>
		<path class="st7" d="M452.3,513.7v19.3h-21.5v-19.3h3.5v16.1h5.5v-16.1h3.5v16.1h5.5v-16.1H452.3z"/>
		<path class="st7" d="M468.3,529.8v3.1h-11.8v-19.3h11.8v3.1H460v4.7h7.4v3H460v5.3H468.3z"/>
	</g>
</g>
</svg>
