<?xml version="1.0" encoding="UTF-8"?>
<!DOCTYPE svg PUBLIC "-//W3C//DTD SVG 1.1//EN" "http://www.w3.org/Graphics/SVG/1.1/DTD/svg11.dtd">
<!-- Creator: CorelDRAW X7 -->
<svg xmlns="http://www.w3.org/2000/svg" xml:space="preserve" width="400px" height="400px" version="1.1" style="shape-rendering:geometricPrecision; text-rendering:geometricPrecision; image-rendering:optimizeQuality; fill-rule:evenodd; clip-rule:evenodd"
viewBox="0 0 400 400"
 xmlns:xlink="http://www.w3.org/1999/xlink">
 <defs>
  <style type="text/css">
   <![CDATA[
    .fil0 {fill:#F96332}
   ]]>
  </style>
 </defs>
 <g id="Слой_x0020_1">
  <metadata id="CorelCorpID_0Corel-Layer"/>
  <path class="fil0" d="M305 137l49 0c28,43 28,46 20,70 -3,8 -9,21 -16,37 -28,0 -55,0 -83,0l30 -107zm-194 143c18,0 32,13 32,29 0,19 -14,33 -32,33 -16,0 -30,-14 -30,-33 0,-16 14,-29 30,-29zm210 0c19,0 33,13 33,29 0,19 -14,33 -33,33 -16,0 -29,-14 -29,-33 0,-16 13,-29 29,-29zm-309 -98c0,0 34,0 65,0 1,-4 2,-8 3,-13l-23 0c-1,0 -1,0 -1,0 -5,-1 -10,-6 -10,-11 0,-6 5,-11 10,-12 0,0 0,0 1,0 0,0 13,0 28,0 1,-4 2,-8 3,-13 -25,0 -47,0 -47,0 -1,0 -1,0 -2,0 -5,-1 -10,-6 -10,-11 0,-6 5,-11 11,-12 0,0 0,0 1,0 0,0 25,0 52,0 2,-9 5,-19 7,-30 5,-23 20,-21 43,-21 29,0 137,-1 153,0 12,2 21,8 22,21 1,11 -6,24 -7,35 71,1 48,-12 85,50 14,24 -13,82 -23,101 -96,0 0,0 -103,0 -89,0 18,0 -179,0 -9,0 -20,2 -26,-7 -3,-4 -1,-18 7,-54 -30,0 -60,0 -60,0 -1,0 -1,0 -1,0 -6,-1 -11,-6 -11,-11 0,-6 5,-11 11,-12 0,0 1,0 1,0zm88 0c14,0 24,0 24,0 6,1 11,6 11,12 0,5 -5,10 -11,11 0,0 -13,0 -30,0l-9 39c184,0 -18,0 166,0l45 -162 -173 0 -7 28c20,0 37,0 37,0 6,1 10,6 10,12 0,6 -4,10 -10,11 0,0 -20,0 -42,0l-3 13c14,0 26,0 26,0 5,1 9,6 9,12 0,6 -4,10 -9,11 0,0 -15,0 -31,0l-3 13z"/>
 </g>
</svg>
