<?xml version="1.0" encoding="UTF-8"?>
<!DOCTYPE svg PUBLIC "-//W3C//DTD SVG 1.1//EN" "http://www.w3.org/Graphics/SVG/1.1/DTD/svg11.dtd">
<!-- Creator: CorelDRAW X7 -->
<svg xmlns="http://www.w3.org/2000/svg" xml:space="preserve" width="200px" height="200px" version="1.1" style="shape-rendering:geometricPrecision; text-rendering:geometricPrecision; image-rendering:optimizeQuality; fill-rule:evenodd; clip-rule:evenodd"
viewBox="0 0 200 200"
 xmlns:xlink="http://www.w3.org/1999/xlink">
 <defs>
  <style type="text/css">
   <![CDATA[
    .fil0 {fill:#E6E6E6}
   ]]>
  </style>
 </defs>
 <g id="Слой_x0020_1">
  <metadata id="CorelCorpID_0Corel-Layer"/>
  <g id="_2418396382016">
   <path class="fil0" d="M98 37c1,0 3,0 4,0l53 25c2,1 3,2 3,4l0 61c0,2 -1,4 -3,5l-52 30c-2,1 -4,1 -6,0l-52 -30c-2,-1 -3,-3 -3,-5l0 -61c0,-2 1,-3 3,-4l53 -25zm-45 38l42 21 0 53 -42 -25 0 -49zm52 74l42 -25 0 -49 -42 21 0 53zm-5 -62l41 -20 -41 -19 -41 19 41 20z"/>
   <path class="fil0" d="M0 5c0,-3 2,-5 5,-5l32 0c3,0 5,2 5,5 0,3 -2,6 -5,6l-26 0 0 26c0,3 -3,5 -6,5 -3,0 -5,-2 -5,-5l0 -32z"/>
   <path class="fil0" d="M195 0c3,0 5,2 5,5l0 32c0,3 -2,5 -5,5 -3,0 -6,-2 -6,-5l0 -26 -26 0c-3,0 -5,-3 -5,-6 0,-3 2,-5 5,-5l32 0z"/>
   <path class="fil0" d="M5 200c-3,0 -5,-2 -5,-5l0 -32c0,-3 2,-5 5,-5 3,0 6,2 6,5l0 26 26 0c3,0 5,3 5,6 0,3 -2,5 -5,5l-32 0z"/>
   <path class="fil0" d="M200 195c0,3 -2,5 -5,5l-32 0c-3,0 -5,-2 -5,-5 0,-3 2,-6 5,-6l26 0 0 -26c0,-3 3,-5 6,-5 3,0 5,2 5,5l0 32z"/>
  </g>
 </g>
</svg>
