<?xml version="1.0" encoding="UTF-8"?>
<!DOCTYPE svg PUBLIC "-//W3C//DTD SVG 1.1//EN" "http://www.w3.org/Graphics/SVG/1.1/DTD/svg11.dtd">
<!-- Creator: CorelDRAW X7 -->
<svg xmlns="http://www.w3.org/2000/svg" xml:space="preserve" width="98px" height="83px" version="1.1" style="shape-rendering:geometricPrecision; text-rendering:geometricPrecision; image-rendering:optimizeQuality; fill-rule:evenodd; clip-rule:evenodd"
viewBox="0 0 35 30"
 xmlns:xlink="http://www.w3.org/1999/xlink">
 <defs>
  <style type="text/css">
   <![CDATA[
    .fil0 {fill:white}
   ]]>
  </style>
 </defs>
 <g id="Слой_x0020_1">
  <metadata id="CorelCorpID_0Corel-Layer"/>
  <g id="_1915122770544">
   <polygon class="fil0" points="17,10 9,5 17,0 26,5 "/>
   <polygon class="fil0" points="16,12 7,7 8,17 16,22 "/>
   <polygon class="fil0" points="19,12 27,7 27,17 18,22 "/>
   <path class="fil0" d="M5 13c0,1 0,2 0,3 0,0 0,0 -1,0 0,0 0,1 0,1 -1,0 -1,0 -1,1 0,0 -1,0 -1,1 0,0 0,1 0,1 0,0 1,1 1,1 0,1 1,1 1,1 1,1 1,1 2,1 1,1 1,1 2,1 0,0 1,0 1,0 0,-1 0,-2 1,-2 2,1 3,3 5,5 -2,1 -5,2 -7,3 0,-1 0,-2 0,-3 0,-1 -1,-1 -2,-1 -1,-1 -2,-1 -3,-2 -1,0 -2,-1 -2,-2 -1,0 -1,-1 -1,-1 0,-1 0,-1 0,-2 0,0 0,-1 0,-1 1,-1 1,-1 1,-2 1,0 1,-1 2,-1 0,0 0,0 1,-1 0,0 0,0 1,0 0,0 0,0 0,-1z"/>
   <path class="fil0" d="M29 13c0,1 0,2 0,3 1,0 1,0 1,0 0,0 1,0 1,1 0,0 1,0 1,0 0,1 0,1 1,2 0,0 0,1 -1,1 0,1 -1,2 -1,2 -1,1 -2,1 -2,1 -1,1 -2,1 -2,1 0,0 -1,0 -2,0 0,1 -1,1 -2,1 -1,0 -1,0 -2,0 0,0 0,0 -1,0 0,0 0,0 0,0 0,0 0,0 0,0 0,1 0,1 0,1 -1,0 -1,0 -1,0 0,0 0,0 0,0 0,0 0,0 0,0 0,0 0,1 0,1 0,0 0,0 0,0 0,0 1,0 1,0 0,0 0,0 0,1 0,0 0,0 0,0 0,0 0,0 0,0 1,0 1,0 1,0 0,0 1,0 1,0 0,-1 1,-1 1,-1 1,0 1,0 2,0 1,0 2,-1 3,-1 0,0 1,0 2,-1 0,0 1,0 2,-1 1,-1 1,-1 2,-2 0,0 0,-1 1,-1 0,-1 0,-2 0,-2 0,0 0,-1 -1,-1 0,-1 0,-1 0,-1 -1,-1 -1,-1 -1,-1 -1,-1 -1,-1 -2,-2 0,0 -1,0 -1,0 0,0 0,0 -1,-1z"/>
  </g>
 </g>
</svg>
