<?xml version="1.0" encoding="utf-8"?>
<!-- Generator: Adobe Illustrator 26.5.0, SVG Export Plug-In . SVG Version: 6.00 Build 0)  -->
<svg version="1.1" id="Шар_1" xmlns="http://www.w3.org/2000/svg" xmlns:xlink="http://www.w3.org/1999/xlink" x="0px" y="0px"
	 viewBox="0 0 75.9 86.8" style="enable-background:new 0 0 75.9 86.8;" xml:space="preserve">
<style type="text/css">
	.st0{fill:#F96332;}
	.st1{fill:#238C00;}
	.st2{fill:none;stroke:#000000;stroke-miterlimit:10;}
	.st3{fill:#FFFFFF;}
	.st4{fill:#1E1E1E;}
	.st5{opacity:0.65;clip-path:url(#SVGID_00000096031760553824905590000016520035640205181106_);fill:#1E1E1E;}
	.st6{fill:#E45310;stroke:#FFFFFF;stroke-width:0.75;stroke-miterlimit:10;}
	.st7{fill:#E45310;}
	.st8{fill:none;stroke:#FFFFFF;stroke-width:0.5;stroke-miterlimit:10;}
	.st9{fill:none;stroke:#FFFFFF;stroke-width:0.75;stroke-miterlimit:10;}
	.st10{clip-path:url(#SVGID_00000137117833014966028730000013914690331151091095_);fill:#1E1E1E;}
	.st11{clip-path:url(#SVGID_00000137117833014966028730000013914690331151091095_);fill:#E45310;}
	.st12{clip-path:url(#SVGID_00000137117833014966028730000013914690331151091095_);fill:#FFFFFF;}
	.st13{clip-path:url(#SVGID_00000067922436310945406000000008993771950192544690_);}
	.st14{fill:#E45310;stroke:#FFFFFF;stroke-width:0.5;stroke-miterlimit:10;}
	.st15{fill:#1E1E1E;stroke:#FFFFFF;stroke-width:0.5;stroke-miterlimit:10;}
	.st16{clip-path:url(#SVGID_00000000926571895547745570000013812761417761778362_);}
	.st17{fill:#C14210;}
	.st18{opacity:0.8;clip-path:url(#SVGID_00000176024147471798168970000011660600183792108468_);fill:#1E1E1E;}
	.st19{clip-path:url(#SVGID_00000114033745962528024630000014668465201052929188_);}
	.st20{clip-path:url(#SVGID_00000102538889907934996100000014254012894821409189_);}
	.st21{fill-rule:evenodd;clip-rule:evenodd;fill:#E45310;}
	.st22{fill-rule:evenodd;clip-rule:evenodd;fill:#FFFFFF;}
	.st23{fill:none;stroke:#1E1E1E;stroke-miterlimit:10;}
	.st24{opacity:0.8;fill:#1E1E1E;}
	.st25{fill:#F7F7F7;}
	.st26{clip-path:url(#SVGID_00000070076937329037537270000015912631039476415157_);}
	.st27{clip-path:url(#SVGID_00000092420816259980587390000000343513893264031108_);}
	.st28{clip-path:url(#SVGID_00000084498790871836929620000007833777043818392712_);fill:#1E1E1E;}
	.st29{clip-path:url(#SVGID_00000084498790871836929620000007833777043818392712_);fill:#E45310;}
	.st30{clip-path:url(#SVGID_00000084498790871836929620000007833777043818392712_);fill:#238C00;}
	.st31{clip-path:url(#SVGID_00000084498790871836929620000007833777043818392712_);fill:#FFFFFF;}
	.st32{fill:none;}
	.st33{clip-path:url(#SVGID_00000088099933165201068380000002548209082303038375_);fill:none;}
	.st34{fill:#FBE9E7;}
	.st35{fill:#D64500;}
	.st36{fill:#238C00;stroke:#1E1E1E;stroke-miterlimit:10;}
	.st37{fill:none;stroke:#1D1D1B;stroke-width:3;stroke-linecap:round;stroke-miterlimit:10;}
	.st38{fill:none;stroke:#1D1D1B;stroke-width:3;stroke-miterlimit:10;}
	.st39{fill:none;stroke:#F96332;stroke-width:2;stroke-linecap:round;stroke-linejoin:round;stroke-miterlimit:10;}
	.st40{fill:none;stroke:#F96332;stroke-width:2;stroke-miterlimit:10;}
	.st41{fill:none;stroke:#F96332;stroke-width:2;stroke-linecap:round;stroke-miterlimit:10;}
</style>
<path class="st0" d="M75.9,63.7V23.1c0-1-0.5-1.9-1.4-2.5L39.4,0.4c-0.9-0.5-2-0.5-2.8,0L1.4,20.7C0.5,21.2,0,22.1,0,23.1v40.6
	c0,1,0.5,1.9,1.4,2.5l35.1,20.3c0.9,0.5,2,0.5,2.8,0l35.1-20.3C75.4,65.6,75.9,64.7,75.9,63.7z"/>
<g>
	<g>
		<path class="st3" d="M62.4,22.2l-3.6,3.6c-0.1,0.1-0.3,0.2-0.4,0.2H13.9c-0.3,0-0.6-0.3-0.6-0.6v-3.6c0-0.3,0.3-0.6,0.6-0.6H62
			c0.3,0,0.5,0.1,0.6,0.4C62.7,21.8,62.6,22,62.4,22.2z"/>
	</g>
	<g>
		<path class="st3" d="M62.4,65.3c-0.1,0.2-0.3,0.4-0.6,0.4H13.9c-0.3,0-0.6-0.3-0.6-0.6v-3.6c0-0.3,0.3-0.6,0.6-0.6h44.5
			c0.2,0,0.3,0.1,0.5,0.2l3.4,3.6C62.4,64.8,62.5,65.1,62.4,65.3z"/>
	</g>
	<g>
		<path class="st3" d="M41.9,56.9c-0.1,0.2-0.3,0.4-0.6,0.4h-5.1c-0.2,0-0.3-0.1-0.5-0.2L25.1,45.4v11.2c0,0.3-0.3,0.6-0.6,0.6h-3.6
			c-0.3,0-0.6-0.3-0.6-0.6V30.2c0-0.3,0.3-0.6,0.6-0.6h3.6c0.3,0,0.6,0.3,0.6,0.6v10l10.5-10.5c0.1-0.1,0.3-0.2,0.4-0.2h4.9
			c0.3,0,0.5,0.1,0.6,0.4c0.1,0.2,0,0.5-0.1,0.7l-12.1,12l12.6,13.6C41.9,56.4,42,56.7,41.9,56.9z"/>
	</g>
	<g>
		<path class="st3" d="M54.6,56.9c-0.1,0.2-0.3,0.4-0.6,0.4H49c-0.2,0-0.3-0.1-0.5-0.2L35.7,43.1c-0.2-0.2-0.2-0.6,0-0.9l12.6-12.6
			c0.1-0.1,0.3-0.2,0.4-0.2h4.9c0.3,0,0.5,0.1,0.6,0.4c0.1,0.2,0,0.5-0.1,0.7l-12.1,12l12.6,13.6C54.7,56.4,54.7,56.7,54.6,56.9z"/>
	</g>
</g>
</svg>
