<?xml version="1.0" encoding="utf-8"?>
<!-- Generator: Adobe Illustrator 26.5.0, SVG Export Plug-In . SVG Version: 6.00 Build 0)  -->
<svg version="1.1" id="Шар_1" xmlns="http://www.w3.org/2000/svg" xmlns:xlink="http://www.w3.org/1999/xlink" x="0px" y="0px"
	 viewBox="0 0 283.5 96.5" style="enable-background:new 0 0 283.5 96.5;" xml:space="preserve">
<style type="text/css">
	.st0{fill:#F96332;}
	.st1{fill:#238C00;}
	.st2{fill:none;stroke:#000000;stroke-miterlimit:10;}
	.st3{fill:#FFFFFF;}
	.st4{fill:#1E1E1E;}
	.st5{opacity:0.65;clip-path:url(#SVGID_00000101070385482680209210000008925745961286082746_);fill:#1E1E1E;}
	.st6{fill:#E45310;stroke:#FFFFFF;stroke-width:0.75;stroke-miterlimit:10;}
	.st7{fill:#E45310;}
	.st8{fill:none;stroke:#FFFFFF;stroke-width:0.5;stroke-miterlimit:10;}
	.st9{fill:none;stroke:#FFFFFF;stroke-width:0.75;stroke-miterlimit:10;}
	.st10{clip-path:url(#SVGID_00000183211987972471566280000014994255605286896283_);fill:#1E1E1E;}
	.st11{clip-path:url(#SVGID_00000183211987972471566280000014994255605286896283_);fill:#E45310;}
	.st12{clip-path:url(#SVGID_00000183211987972471566280000014994255605286896283_);fill:#FFFFFF;}
	.st13{clip-path:url(#SVGID_00000006683137965039773120000014644599610593840528_);}
	.st14{fill:#E45310;stroke:#FFFFFF;stroke-width:0.5;stroke-miterlimit:10;}
	.st15{fill:#1E1E1E;stroke:#FFFFFF;stroke-width:0.5;stroke-miterlimit:10;}
	.st16{clip-path:url(#SVGID_00000170958867802284610580000010857788891653487237_);}
	.st17{fill:#C14210;}
	.st18{opacity:0.8;clip-path:url(#SVGID_00000012461428548776297720000006375097475242541184_);fill:#1E1E1E;}
	.st19{clip-path:url(#SVGID_00000078743270874417791210000002290407054943765655_);}
	.st20{clip-path:url(#SVGID_00000005969971511566260820000013868707848712939649_);}
	.st21{fill-rule:evenodd;clip-rule:evenodd;fill:#E45310;}
	.st22{fill-rule:evenodd;clip-rule:evenodd;fill:#FFFFFF;}
	.st23{fill:none;stroke:#1E1E1E;stroke-miterlimit:10;}
	.st24{opacity:0.8;fill:#1E1E1E;}
	.st25{fill:#F7F7F7;}
	.st26{clip-path:url(#SVGID_00000049927195265115070490000017226950826842876812_);}
	.st27{clip-path:url(#SVGID_00000088091105885682957730000004365127164808566719_);}
	.st28{clip-path:url(#SVGID_00000150797611116789220430000000384150666033633967_);fill:#1E1E1E;}
	.st29{clip-path:url(#SVGID_00000150797611116789220430000000384150666033633967_);fill:#E45310;}
	.st30{clip-path:url(#SVGID_00000150797611116789220430000000384150666033633967_);fill:#238C00;}
	.st31{clip-path:url(#SVGID_00000150797611116789220430000000384150666033633967_);fill:#FFFFFF;}
	.st32{fill:none;}
	.st33{clip-path:url(#SVGID_00000122710459150233228540000018421190423941396631_);fill:none;}
	.st34{fill:#FBE9E7;}
	.st35{fill:#D64500;}
	.st36{fill:#238C00;stroke:#1E1E1E;stroke-miterlimit:10;}
	.st37{fill:none;stroke:#1D1D1B;stroke-width:3;stroke-linecap:round;stroke-miterlimit:10;}
	.st38{fill:none;stroke:#1D1D1B;stroke-width:3;stroke-miterlimit:10;}
	.st39{fill:none;stroke:#F96332;stroke-width:2;stroke-linecap:round;stroke-linejoin:round;stroke-miterlimit:10;}
	.st40{fill:none;stroke:#F96332;stroke-width:2;stroke-miterlimit:10;}
	.st41{fill:none;stroke:#F96332;stroke-width:2;stroke-linecap:round;stroke-miterlimit:10;}
</style>
<g>
	<path class="st0" d="M80.4,68.5V28c0-1-0.5-1.9-1.4-2.5L43.9,5.2c-0.9-0.5-2-0.5-2.8,0L5.9,25.5C5,26,4.5,26.9,4.5,28v40.6
		c0,1,0.5,1.9,1.4,2.5L41,91.3c0.9,0.5,2,0.5,2.8,0L79,71C79.9,70.5,80.4,69.5,80.4,68.5z"/>
	<path class="st0" d="M278.6,49.7l-11.2,19.4c-0.4,0.6-1,1.1-1.7,1.3c-0.2,0.1-0.3,0.1-0.5,0.1c-0.1,0-0.2,0-0.3,0H88.4
		c-1.6,0-2.8-1.3-2.8-2.8V28.8c0-1.6,1.3-2.8,2.8-2.8H265c0.1,0,0.2,0,0.3,0c0.2,0,0.4,0.1,0.5,0.1c0.7,0.2,1.3,0.7,1.7,1.3
		l11.2,19.4C279.1,47.7,279.1,48.8,278.6,49.7z"/>
	<g>
		<g>
			<path class="st3" d="M66.9,27l-3.6,3.6c-0.1,0.1-0.3,0.2-0.4,0.2H18.4c-0.3,0-0.6-0.3-0.6-0.6v-3.6c0-0.3,0.3-0.6,0.6-0.6h48.1
				c0.3,0,0.5,0.1,0.6,0.4C67.2,26.6,67.1,26.9,66.9,27z"/>
		</g>
		<g>
			<path class="st3" d="M66.9,70.1c-0.1,0.2-0.3,0.4-0.6,0.4H18.4c-0.3,0-0.6-0.3-0.6-0.6v-3.6c0-0.3,0.3-0.6,0.6-0.6h44.5
				c0.2,0,0.3,0.1,0.5,0.2l3.4,3.6C66.9,69.6,67,69.9,66.9,70.1z"/>
		</g>
		<g>
			<path class="st3" d="M46.4,61.7c-0.1,0.2-0.3,0.4-0.6,0.4h-5.1c-0.2,0-0.3-0.1-0.5-0.2L29.6,50.3v11.2c0,0.3-0.3,0.6-0.6,0.6
				h-3.6c-0.3,0-0.6-0.3-0.6-0.6V35c0-0.3,0.3-0.6,0.6-0.6H29c0.3,0,0.6,0.3,0.6,0.6v10l10.5-10.5c0.1-0.1,0.3-0.2,0.4-0.2h4.9
				c0.3,0,0.5,0.1,0.6,0.4c0.1,0.2,0,0.5-0.1,0.7l-12.1,12l12.6,13.6C46.4,61.2,46.5,61.5,46.4,61.7z"/>
		</g>
		<g>
			<path class="st3" d="M59.1,61.7c-0.1,0.2-0.3,0.4-0.6,0.4h-5.1c-0.2,0-0.3-0.1-0.5-0.2L40.2,48c-0.2-0.2-0.2-0.6,0-0.9l12.6-12.6
				c0.1-0.1,0.3-0.2,0.4-0.2h4.9c0.3,0,0.5,0.1,0.6,0.4c0.1,0.2,0,0.5-0.1,0.7l-12.1,12L59,61.1C59.2,61.2,59.2,61.5,59.1,61.7z"/>
		</g>
	</g>
	<g>
		<path class="st3" d="M112.6,38.5c0.3,0,0.5-0.2,0.5-0.5v-0.1v-3v-0.1c0-0.3-0.2-0.5-0.5-0.5h-0.1H93.2h-0.1
			c-0.3,0-0.5,0.2-0.5,0.5v0.1v3V38c0,0.3,0.2,0.5,0.5,0.5h0.1h7.1c0.3,0,0.5,0.2,0.5,0.5v22.6v0.1c0,0.3,0.2,0.5,0.5,0.5h0.1h3.2
			h0.1c0.3,0,0.5-0.2,0.5-0.5v-0.1V38.9c0-0.3,0.2-0.5,0.5-0.5H112.6L112.6,38.5z"/>
		<path class="st3" d="M119.9,42.6c-2.7,0-4.8,0.9-6.4,2.7c-1.5,1.8-2.3,4.2-2.3,7.1c0,3.2,0.8,5.6,2.5,7.4c1.6,1.7,4.2,2.6,7.4,2.6
			c2.6,0,4.4-0.4,5.7-1.3c0,0,0.1-0.1,0.2-0.2c0.1-0.1,0.1-0.3,0.1-0.3v-2.8v-0.2c0-0.4-0.4-0.6-0.7-0.4l-0.1,0.1
			c-1.3,0.8-2.9,1.2-4.8,1.2c-2,0-3.4-0.4-4.3-1.3c-0.7-0.7-1.2-1.7-1.5-3c-0.1-0.3,0.2-0.5,0.4-0.5h11.8h0.1c0.3,0,0.5-0.2,0.5-0.5
			v-0.1v-1c0-2.9-0.7-5.2-2-7C125,43.5,122.8,42.6,119.9,42.6 M116.1,50.2c-0.3,0-0.5-0.3-0.4-0.6c0.6-2.2,2-3.2,4.4-3.2
			c1.4,0,2.4,0.4,3.1,1.2c0.5,0.6,0.8,1.3,0.9,2.1c0,0.3-0.2,0.5-0.5,0.5H116.1z"/>
		<path class="st3" d="M141.2,42.6c-1.9,0-3.5,0.5-4.8,1.4c-0.3,0.2-0.7,0-0.7-0.4v-0.2v-0.1c0-0.3-0.2-0.5-0.5-0.5h-0.1h-2.8h-0.1
			c-0.3,0-0.5,0.2-0.5,0.5v0.1v24.3v0.1c0,0.3,0.2,0.5,0.5,0.5h0.1h3h0.1c0.3,0,0.5-0.2,0.5-0.5v-0.1v-6.3c0-0.4,0.4-0.6,0.7-0.4
			c1.2,0.8,2.9,1.3,4.8,1.3c2.7,0,4.8-1,6.2-2.9c1.4-1.9,2.1-4.3,2.1-7.2c0-3.2-0.7-5.6-2.1-7.3C146.2,43.4,144,42.6,141.2,42.6
			 M140.6,46.4c1.7,0,3,0.5,3.7,1.4c0.7,1,1.1,2.5,1.1,4.5c0,4.3-1.5,6.3-4.7,6.3c-1.6,0-2.8-0.5-3.6-1.5c-0.9-1.1-1.3-2.6-1.3-4.5
			c0-1.9,0.4-3.4,1.3-4.5C137.9,46.9,139.1,46.4,140.6,46.4"/>
		<path class="st3" d="M153.8,34.4L153.8,34.4c-0.3,0-0.5,0.2-0.5,0.5v0.1v26.6v0.1c0,0.3,0.2,0.5,0.5,0.5h0.1h3h0.1
			c0.3,0,0.5-0.2,0.5-0.5v-0.1V34.9v-0.1c0-0.3-0.2-0.5-0.5-0.5h-0.1H153.8z"/>
		<path class="st3" d="M176.7,45.1c-1.5-1.7-3.8-2.5-6.8-2.5c-2.9,0-5.2,0.9-6.7,2.6c-1.6,1.7-2.3,4.2-2.3,7.3
			c0,3.2,0.8,5.6,2.3,7.3c1.5,1.7,3.8,2.6,6.8,2.6c2.8,0,5.1-0.9,6.7-2.6c1.6-1.7,2.4-4.2,2.4-7.2C178.9,49.3,178.2,46.8,176.7,45.1
			 M169.9,58.6c-1.5,0-2.7-0.5-3.5-1.5c-0.8-1-1.3-2.5-1.3-4.6c0-4.1,1.6-6.1,4.8-6.1c1.7,0,2.9,0.5,3.6,1.4c0.7,1,1.1,2.5,1.1,4.7
			C174.6,56.6,173.1,58.6,169.9,58.6"/>
		<path class="st3" d="M191.1,48.7c-0.2-0.2-0.2-0.5,0-0.6l12.4-12.7l0.2-0.2c0.3-0.3,0.1-0.8-0.3-0.8h-0.2h-3.8
			c-0.3,0-0.6,0.1-0.8,0.3l-10.7,11.2c-0.3,0.3-0.8,0.1-0.8-0.3V34.9v-0.1c0-0.3-0.2-0.5-0.5-0.5h-0.1h-3.2h-0.1
			c-0.3,0-0.5,0.2-0.5,0.5v0.1v26.6v0.1c0,0.3,0.2,0.5,0.5,0.5h0.1h3.2h0.1c0.3,0,0.5-0.2,0.5-0.5v-0.1v-10c0-0.4,0.5-0.6,0.8-0.3
			l9.5,10.6c0.2,0.2,0.4,0.3,0.6,0.3h4.2h0.2c0.4,0,0.6-0.5,0.3-0.8l-0.1-0.2L191.1,48.7z"/>
		<path class="st3" d="M212.9,42.6c-1.4,0-2.6,0.4-3.6,1.2c-0.3,0.2-0.7,0-0.7-0.4v-0.1c0-0.3-0.2-0.5-0.5-0.5H208h-2.8h-0.1
			c-0.3,0-0.5,0.2-0.5,0.5v0.1v18.1v0.1c0,0.3,0.2,0.5,0.5,0.5h0.1h3h0.1c0.3,0,0.5-0.2,0.5-0.5v-0.1v-8.2c0-2.4,0.3-4.2,1-5.3
			c0.6-1,1.7-1.5,3.4-1.5c0.6,0,1.1,0.1,1.7,0.3l0.1,0c0.3,0.1,0.6-0.1,0.6-0.4v-0.1v-2.8v-0.1c0-0.2-0.1-0.4-0.4-0.4l-0.1,0
			C214.3,42.7,213.6,42.6,212.9,42.6"/>
		<path class="st3" d="M224,42.6c-2.1,0-4.1,0.4-5.9,1.2l-0.1,0c-0.2,0.1-0.3,0.2-0.3,0.4v0.1v2.7v0.2c0,0.3,0.4,0.6,0.7,0.4
			l0.1-0.1c1.5-0.8,3.2-1.1,5.1-1.1c1.5,0,2.5,0.3,3.2,0.8c0.6,0.5,0.9,1.4,0.9,2.6c0,0,0,0.3-0.1,0.5c-0.2,0.2-0.9,0-1.2,0
			c-0.5,0-1,0-1.6,0c-3,0-5.1,0.5-6.5,1.4c-1.5,1-2.2,2.6-2.2,4.6c0,1.9,0.6,3.4,1.8,4.5c1.2,1.1,2.8,1.6,4.8,1.6
			c1.9,0,3.5-0.5,4.7-1.4c0.3-0.2,0.7,0,0.7,0.4v0.2v0.1c0,0.3,0.2,0.5,0.5,0.5h0.1h2.6h0.1c0.3,0,0.5-0.2,0.5-0.5v-0.1v-11
			c0-2.8-0.6-4.8-1.7-6.1C228.9,43.2,226.9,42.6,224,42.6 M223.4,58.6c-1,0-1.8-0.2-2.3-0.7c-0.5-0.5-0.7-1.1-0.7-1.8
			c0-0.8,0.3-1.3,0.9-1.7c0.5-0.3,1.5-0.7,3.7-0.7c0.9,0,1.6,0,2.3,0.1c0.2,0,0.4,0.2,0.4,0.5v0.3c0,1.3-0.4,2.3-1.1,3
			C225.9,58.2,224.8,58.6,223.4,58.6"/>
		<path class="st3" d="M261,34.4h-5.3h-0.1c-0.2,0-0.4,0.1-0.4,0.3l0,0.1L249.5,53c-0.1,0.4-0.7,0.4-0.9,0l-5.7-18.3l0-0.1
			c-0.1-0.2-0.2-0.3-0.4-0.3h-0.1h-5.3H237c-0.3,0-0.5,0.2-0.5,0.5v0.1v26.6v0.1c0,0.3,0.2,0.5,0.5,0.5h0.1h3.2h0.1
			c0.3,0,0.5-0.2,0.5-0.5v-0.1V44.2c0-0.5,0.7-0.6,0.9-0.1l5.1,15.9l0,0.1c0.1,0.2,0.2,0.3,0.4,0.3h0.1h3.3h0.1
			c0.2,0,0.4-0.1,0.4-0.3l0-0.1l5.1-15.9c0.2-0.5,0.9-0.4,0.9,0.1v17.7v0.1c0,0.3,0.2,0.5,0.5,0.5h0.1h3.2h0.1
			c0.3,0,0.5-0.2,0.5-0.5v-0.1V34.9v-0.1C261.5,34.6,261.3,34.4,261,34.4L261,34.4z"/>
	</g>
</g>
</svg>
