<?xml version="1.0" encoding="UTF-8"?>
<svg id="_Шар_1" data-name="Шар_1" xmlns="http://www.w3.org/2000/svg" version="1.1" viewBox="0 0 182 124">
  <!-- Generator: Adobe Illustrator 30.5.1, SVG Export Plug-In . SVG Version: 2.1.4 Build 3)  -->
  <defs>
    <style>
      .st0 {
        fill: #fff;
      }
    </style>
  </defs>
  <rect x="56.87" y="29.06" width="68.26" height="65.88"/>
  <g>
    <rect class="st0" x="79.47" y="39.59" width="1" height="42.77"/>
    <path class="st0" d="M110.33,76.42c.08-.08.03-.42-.06-.48-.09-.05-.22-.05-.41-.05,0,0-2.36-.21-2.98-.05-.18.05-.59.24-.74.36-.9.69-1.04,2.05-.4,2.93-.19.28-.42.62-.5.88-.16.59.1,1.01.59,1.34-.71.49-1.07,1.36-.67,2.1.66,1.2,3.45,1.24,4.52.3.64-.57.85-1.52.28-2.22-.34-.42-.96-.57-1.49-.61l-1.76-.11c-.3-.02-.69-.17-.81-.45-.09-.21.11-.74.3-.76,1.05.54,2.26.43,2.98-.32.58-.61.69-1.81.11-2.7l.58-.04c.15,0,.36-.05.43-.13ZM106.61,81.58c1.07-.11,2.45-.09,2.85.57.12.2.05.72-.12.93-.79.96-2.95.77-3.46.07-.35-.48.15-1.52.73-1.58ZM108.45,78.98c-.4.37-1.15.38-1.58.18-.65-.3-.81-.98-.69-1.62.13-.73.69-1.16,1.45-1.1.4.03.87.17,1.07.55.32.61.31,1.46-.25,1.98Z"/>
    <path class="st0" d="M89.14,76.17c-.41-1.4-1.59-2.46-3.08-2.49h-2.7c-.13,0-.23.1-.23.23l.03,7.94c0,.13.1.23.23.23h1.6c.43,0,.85-.02,1.28-.07,2.72-.34,3.6-3.38,2.88-5.85ZM86.01,81.34h-2.09s0-6.95,0-6.95h1.95c1.09.03,1.99.77,2.36,1.82.77,2.16-.05,5.09-2.22,5.13Z"/>
    <path class="st0" d="M101.07,80.39c-.06.86-.36,1.77-2.16,1.77-.56,0-1.12-.16-1.61-.45-.12-.07-.48-.22-.28-.61.14-.27.39-.13.47-.08.46.26.94.46,1.45.46,1.06,0,1.3-.45,1.33-.86.05-.62-.15-.9-.59-1.09l-1.51-.66c-.62-.27-.94-.94-.89-1.54.11-1.34,1.44-1.53,1.96-1.53.41,0,.82.09,1.17.25.25.11.44.22.36.56-.07.3-.32.19-.41.14-.37-.2-.76-.3-1.12-.3-.61-.01-1.11.24-1.19.73-.08.44.08.89.51,1.08l1.35.6c.61.27,1.19.74,1.14,1.53Z"/>
    <path class="st0" d="M77.3,66.95s-4.89-13.9-5.83-15.82c-.14-.29-.53-.45-.96-.45-.51,0-.95.12-1.12.58l-5.77,15.7c-.2.54.51.53.51.53.36,0,.98-.02,1.08-.2l1.59-4.58h7.27s1.66,4.65,1.66,4.65c.04.13.56.13,1.06.13.66,0,.52-.53.52-.53ZM70.38,52.48l3.12,8.68h-6.16l3.04-8.68Z"/>
    <path class="st0" d="M118.04,58.37c-.79-2.28-2.93-3.26-5.3-2.96-1.79.23-3.26,1.29-3.96,2.98-.84,2-.84,4.27-.14,6.33,1.22,3.57,5.5,3.84,8.82,2.45.31-.13.53-.46.55-.71.02-.32-.07-.63-.36-.81-.51-.23-1.79,1.16-4.64.9-2.5-.23-3.27-2.32-3.18-4.7h7.84c.3,0,.7-.22.72-.55.06-1.01-.03-2-.36-2.94ZM110.5,58.25c.94-1.49,2.78-1.95,4.42-1.31,2.14.85,1.92,3.39,1.92,3.39h-7.01c.07-.73.27-1.45.67-2.08Z"/>
    <path class="st0" d="M95.65,77.31c-.4-1.15-1.48-1.65-2.68-1.5-.9.12-1.65.65-2,1.51-.42,1.01-.42,2.16-.07,3.2.61,1.81,2.78,1.94,4.46,1.24.16-.07.27-.23.28-.36.01-.16-.04-.32-.18-.41-.26-.12-.9.59-2.34.45-1.26-.12-1.65-1.17-1.61-2.37h3.96c.15,0,.35-.11.36-.28.03-.51-.02-1.01-.18-1.49ZM91.84,77.25c.48-.75,1.41-.99,2.23-.66,1.08.43.97,1.71.97,1.71h-3.54c.03-.37.13-.73.34-1.05Z"/>
    <path class="st0" d="M106.58,55.74c-2.04-.96-3.48-.09-4.77,1.78v-1.7c0-.18-.15-.33-.33-.33h-.85c-.18,0-.33.15-.33.33v11.66c0,.18.15.33.33.33h.85c.18,0,.33-.15.33-.33v-7.85c.71-1.19,1.81-2.81,2.95-2.82.63,0,1.15.2,1.75.4.3-.35.34-1.08.07-1.47Z"/>
    <path class="st0" d="M91.1,52.23v-.85c0-.18-.15-.33-.33-.33h-7.71c-.18,0-.33.15-.33.33v16.09c0,.18.15.33.33.33h.85c.18,0,.33-.15.33-.33v-7.29h6.19c.18,0,.33-.15.33-.33v-.85c0-.18-.15-.33-.33-.33h-6.19v-6.11h6.54c.18,0,.33-.15.33-.33Z"/>
    <g>
      <rect class="st0" x="94.52" y="55.48" width="1.51" height="12.32" rx=".5" ry=".5"/>
      <circle class="st0" cx="95.28" cy="51.93" r="1.08"/>
    </g>
    <rect class="st0" x="102.73" y="75.83" width=".77" height="6.25" rx=".26" ry=".26"/>
    <circle class="st0" cx="103.11" cy="74.03" r=".55"/>
    <rect class="st0" x="79.47" y="39.59" width="1" height="42.77"/>
    <path class="st0" d="M116.03,76.16c-.94-.76-2.43-.4-3.38.6v-.7c0-.13-.1-.23-.23-.23h-.3c-.13,0-.23.1-.23.23v5.79c0,.13.1.23.23.23h.3c.13,0,.23-.1.23-.23v-4.17c.55-.72,1.26-1.26,1.96-1.25.94.02,1.26.66,1.26,1.01v4.41c0,.13.1.23.23.23h.3c.13,0,.23-.1.23-.23v-4.48c0-.43-.1-.81-.61-1.21Z"/>
  </g>
</svg>