<?xml version="1.0" encoding="UTF-8"?>
<svg id="_Шар_1" data-name="Шар_1" xmlns="http://www.w3.org/2000/svg" version="1.1" viewBox="0 0 182 124">
  <!-- Generator: Adobe Illustrator 29.0.0, SVG Export Plug-In . SVG Version: 2.1.0 Build 186)  -->
  <defs>
    <style>
      .st0 {
        fill: #020202;
      }

      .st1 {
        fill: #cd020c;
      }
    </style>
  </defs>
  <path class="st1" d="M2,76.19l7.2-.02,1.92-5.83h8.89l1.71,5.83h7.53l-9.79-28.53-7.86.04-9.59,28.52ZM18.37,65.24h-5.74l2.97-9.18,2.78,9.18Z"/>
  <path class="st1" d="M30.24,76.17h6.49v-28.49h-6.49v28.49Z"/>
  <path class="st1" d="M45.99,54.23c-3.71,1.11-6.12,3.57-7.09,7.23-.19.63-.32,2.27-.32,3.61,0,3.64.74,5.77,2.73,7.9,1.71,1.83,3.96,2.83,7.27,3.2,2.59.3,5.05.02,7.32-.83l1.67-.6v-6.02s-3.15,2.71-6.6,2.71c-2.08,0-3.36-.51-4.29-1.67-1.9-2.41-1.81-7.25.16-9.57,1.02-1.18,1.77-1.76,3.36-1.76,4.36,0,7.37,2.71,7.37,2.71v-5.84l-1.04-.44c-3.03-1.3-7.39-1.55-10.54-.63Z"/>
  <path class="st1" d="M63.9,54.04c-.81.16-1.76.51-2.15.72l-.69.42v5.89s7.58-5.52,10.84-.73c.35.51.57,1.16.57,1.16,0,0-1.27.22-2.52.33-7.78.79-10.42,2.57-10.7,7.18,0,4.35,2.57,7.36,6.86,7.36,2.15.02,3.59-.64,5.21-1.84l1.32-.91.02,2.55h6.72s.15-16.95-.41-18.15c-.72-1.58-2.49-2.97-4.32-3.64-1.23-.44-2.02-.75-5.37-.8-2.78-.05-4.36.24-5.37.48ZM72.63,67.92c0,2.13-.02,2.2-.69,2.76-.95.81-2.85,1.2-4.1.88-1.27-.35-1.92-1.18-1.92-2.48,0-2.08,1.88-3.2,5.63-3.31l1.09-.02v2.18Z"/>
  <path class="st0" d="M140.28,54.02c-3.96,1.07-6.07,5.03-4.42,8.57.9,1.95,2.04,2.59,6.27,3.73,1.64.44,3.29.97,3.61,1.2,1.27.83,1.64,3.13.72,4.47-.9,1.37-1.83,1.74-4.22,1.74-2.41-.02-4.03-.53-5.75-1.85-.58-.44-1.22-1.06-1.22-1.06v3.95l1.08.47c3.08,1.3,7.55,1.51,9.82.44,2.48-1.18,4.06-3.27,4.06-6.03,0-2.22-1.21-4.08-3.04-5.01-.46-.25-2.13-.59-3.71-.99-3.31-.83-4.45-1.46-4.84-2.69-.86-2.59,1.07-4.73,4.31-4.73,1.63,0,3.76.63,4.99,1.47.56.37,1.34.81,1.34.81v-3.41s-1.21-.44-1.21-.44c-2.55-.95-5.72-1.23-7.81-.65Z"/>
  <path class="st0" d="M87.46,76.17h2.78v-8.29l2.76-.09c2.53-.09,2.87-.16,4.26-.83,1.76-.88,2.86-1.97,3.51-3.73,1.27-3.41-.21-7.04-3.36-8.46-1.11-.49-1.65-.56-5.59-.63h-4.36v22.03ZM96.42,57.45c2.36,1.58,2.18,5.63-.35,7.18-.72.44-1.25.53-3.34.63l-2.5.07v-8.66l2.62.07c2.39.09,2.71.14,3.57.72Z"/>
  <path class="st0" d="M104.03,76.17h14.9l2.05-6.25,8.33-.03,1.89,6.28h3.32l-7.44-22.01-3.79-.02-6.42,19.2-9.84.03v-19.23h-3.02l.02,22.03ZM128.27,67.33h-6.37l3.27-9.94,3.1,9.94Z"/>
  <path class="st0" d="M150.93,56.71h7.18v19.46h3.01v-19.46s7.18,0,7.18,0v-2.55h-17.37v2.55Z"/>
  <g>
    <path class="st0" d="M176.34,52.12c-2.02,0-3.66,1.64-3.66,3.66s1.64,3.66,3.66,3.66,3.66-1.64,3.66-3.66-1.64-3.66-3.66-3.66ZM176.34,58.95c-1.75,0-3.17-1.42-3.17-3.17s1.42-3.17,3.17-3.17,3.17,1.42,3.17,3.17-1.42,3.17-3.17,3.17Z"/>
    <path class="st0" d="M177.73,55.66c.16-.18.24-.41.24-.68,0-.33-.11-.58-.34-.77-.22-.18-.54-.28-.95-.28h-1.72v3.65h.49v-1.51h1.14l.95,1.51h.57l-1.03-1.57c.28-.05.49-.16.65-.35ZM175.46,55.68v-1.35h1.17c.27,0,.48.05.62.17s.22.27.22.49-.07.39-.21.51c-.14.12-.34.18-.6.18h-1.19Z"/>
  </g>
</svg>