<?xml version="1.0" encoding="UTF-8"?>
<svg id="_Шар_1" data-name="Шар_1" xmlns="http://www.w3.org/2000/svg" version="1.1" viewBox="0 0 182 124">
  <!-- Generator: Adobe Illustrator 30.5.1, SVG Export Plug-In . SVG Version: 2.1.4 Build 3)  -->
  <defs>
    <style>
      .st0 {
        fill: #fff;
      }

      .st1 {
        fill: #f38700;
      }
    </style>
  </defs>
  <circle class="st1" cx="91" cy="62" r="32.94"/>
  <path class="st0" d="M84.52,66.48c-.77.42-1.28.8-1.91,1.5-.97,1.08-3.04,2.12-4.38,1.05l-3.25-2.6-.05,6.84h-2.61s-.01-9.69-.01-9.69l3.44-.02,3.97,3.15,3.95-3.1,3.44-.08.02,9.74-2.57.02-.03-6.82Z"/>
  <path class="st0" d="M105.05,50.14v2.34c3.3-.68,7.62-1.77,7.94.53-4.12.34-9.03.58-8.84,3.96.18,3.01,4.89,3.25,8.43,1.72l.59.72,2.49.02v-6.11c0-4.51-5.83-4.07-10.63-3.17ZM106.83,56.76c-.37-1.23,3.23-1.74,6.03-1.77,1.17,2.33-5.57,3.32-6.03,1.77Z"/>
  <path class="st0" d="M77.72,52.71c-.05-3.56-6.39-3.62-10.48-2.57l-.03,2.3c3.19-.48,7.21-1.88,7.99.57-3.9.61-8.86.32-8.92,3.7-.05,3.28,4.88,3.54,8.57,1.93l.56.8,2.39-.08-.09-6.65ZM68.95,56.74c-.59-1.02,3.19-1.82,6.14-1.74.94,2.29-5.2,3.35-6.14,1.74Z"/>
  <path class="st0" d="M111.55,73.22l-3.07.08-2.96-3.24-2.89,3.2-3.22-.03,4.49-4.94-4.25-4.55c.7-.17,2.57-.45,3.18.07.95.87,1.7,1.73,2.65,2.73l2.76-2.8c.66-.37,2.32-.1,3.07.03l-4.18,4.49,4.41,4.97Z"/>
  <path class="st0" d="M102.35,53.44v2.12s-7.23.02-7.23.02l-.02,3.82h-2.62s0-6.69,0-6.69c0-3.92,5.69-2.93,10.23-3.02v2.12s-6.39.03-6.39.03c-.78,0-1.4.73-1.2,1.61h7.24Z"/>
  <path class="st0" d="M90.39,57.24l.04,2.19c-4.18,0-9.66.78-9.68-2.85l-.02-6.87h2.69s-.07,5.62-.07,5.62c-.01,1,.71,1.93,1.73,1.93h5.31Z"/>
  <rect class="st0" x="92.51" y="63.64" width="2.63" height="9.6"/>
</svg>