<?xml version="1.0" encoding="UTF-8"?>
<svg id="_Шар_1" data-name="Шар_1" xmlns="http://www.w3.org/2000/svg" version="1.1" viewBox="0 0 182 124">
  <!-- Generator: Adobe Illustrator 30.5.1, SVG Export Plug-In . SVG Version: 2.1.4 Build 3)  -->
  <defs>
    <style>
      .st0 {
        fill: #00acec;
        stroke: #00acec;
      }

      .st0, .st1, .st2 {
        fill-rule: evenodd;
      }

      .st0, .st2 {
        stroke-linecap: round;
        stroke-linejoin: round;
        stroke-width: .38px;
      }

      .st1 {
        fill: #2a3e89;
      }

      .st2 {
        fill: #cc203c;
        stroke: #cc203c;
      }
    </style>
  </defs>
  <path class="st1" d="M178.49,70.57c-.89,0-1.58.69-1.58,1.55s.69,1.58,1.55,1.58,1.55-.72,1.55-1.58-.69-1.55-1.51-1.55h0ZM175.43,73.34v-4.33c0-2.93-2.03-5.07-4.84-5.07s-4.92,2.15-4.92,4.88,2.03,4.84,4.57,4.84c.7,0,1.17-.2,1.72-.59v-2.85l-.2.12c-.47.31-.74.43-1.21.43-1.05,0-1.87-.86-1.87-1.99s.86-1.95,1.91-1.95c.59,0,1.17.27,1.52.7.31.43.47.94.47,1.76v4.06h2.85ZM163.29,70.43c-.89,0-1.58.69-1.58,1.55s.73,1.58,1.55,1.58c.89,0,1.58-.73,1.58-1.58s-.69-1.55-1.55-1.55ZM153.7,73.34h3.63c1.33,0,1.72-.08,2.26-.43.66-.43,1.05-1.25,1.05-2.07,0-1.17-.74-2.11-2.22-2.73l-.51-.24c-1.33-.51-1.44-.59-1.44-.86,0-.31.24-.39,1.52-.39h2.22v-2.42h-3.47c-1.05,0-1.68.16-2.19.59-.62.47-.9,1.13-.9,1.91,0,1.21.51,1.8,2.22,2.58l.51.2c1.29.54,1.48.7,1.48.98,0,.39-.39.47-1.72.47h-2.46v2.42h0ZM136.15,67.59c.57.26,1.2.66,1.97,1.11,1.53.92,2.64.83,3.65.44v4.22h-5.62v-5.77ZM141.76,61.02c-.94.37-1.92.48-3.06-.2-.98-.61-1.81-1.11-2.56-1.42v-.44c0-1.09-.13-1.7-.44-2.25-.48-.79-1.4-1.27-2.43-1.27-.87,0-1.68.35-2.14,1.05-.39.59-.55,1.24-.55,2.51v14.35h-5.64v-14.05c0-2.58.48-4.35,1.57-5.85,1.57-2.12,4.02-3.3,6.86-3.3,2.53,0,4.7.92,6.23,2.56,1.51,1.64,2.14,3.58,2.14,6.36v1.94h0ZM118.04,73.36v-5.98c0-2.05.2-3.12.72-3.93.68-1.03,1.94-1.64,3.36-1.64.15,0,.39,0,.66.02v-4.74h-.5c-1.99,0-3.26.74-4.43,2.66v-2.29h-4.83v15.9h5.02ZM104.66,57.46v8.04c0,1.16-.11,1.73-.37,2.23-.43.69-1.18,1.1-1.99,1.09-1.51,0-2.31-1.09-2.31-3.08v-8.28h-5.03v8.85c0,2.16.48,3.85,1.49,5.03,1.33,1.57,3.52,2.51,5.94,2.51,4.52,0,7.3-2.82,7.3-7.41v-8.98h-5.03ZM87.97,65.91h4.02v-4.37h-4.02v-4.08h-5.03v9.5c0,2.71.55,4.13,2.05,5.24,1.22.9,2.25,1.16,5.05,1.16h1.94v-4.37h-1.29c-1.92,0-2.62-.48-2.73-2.05v-1.03h0ZM80.28,73.36v-7.56c0-5.16-3.54-8.89-8.46-8.89s-8.65,3.76-8.65,8.54,3.58,8.39,8.04,8.39c1.18,0,2.03-.28,2.99-.96v-5.03l-.35.24c-.81.55-1.33.72-2.12.72-1.84,0-3.3-1.49-3.3-3.43s1.51-3.45,3.34-3.45c1.05,0,2.05.48,2.66,1.25.57.76.83,1.62.83,3.1v7.08h5s0,0,0,0ZM60.9,73.36v-9.79c0-4.13-2.51-6.66-6.58-6.66-2.21,0-3.74.7-4.94,2.23-1.18-1.46-2.86-2.23-5-2.23-1.94,0-3.74.65-4.96,1.86-1.27,1.22-1.7,2.51-1.7,4.98v9.61h5.03v-8.89c0-1.01.07-1.38.31-1.77.33-.63.96-.96,1.75-.96.61,0,1.16.24,1.53.68s.48.85.48,1.92v9.02h5v-8.76c0-1.2.04-1.51.31-1.94.35-.59,1-.92,1.73-.92,1.36,0,1.97.81,1.97,2.53v9.09h5.09ZM31.3,73.36v-5.98c0-2.05.2-3.12.7-3.93.7-1.03,1.97-1.64,3.39-1.64.15,0,.39,0,.65.02v-4.74h-.5c-1.99,0-3.26.74-4.46,2.66v-2.29h-4.81v15.9h5.02ZM6.2,61.02c.94.37,1.92.48,3.06-.2,1-.61,1.84-1.11,2.58-1.42v-.44c0-1.09.13-1.7.44-2.25.48-.79,1.4-1.27,2.42-1.27.9,0,1.68.35,2.16,1.05.39.59.52,1.24.52,2.51v14.35h5.64v-14.05c0-2.58-.46-4.35-1.55-5.85-1.57-2.12-4.04-3.3-6.88-3.3-2.51,0-4.7.92-6.25,2.56-1.49,1.64-2.14,3.58-2.14,6.36v1.94ZM11.84,67.59c-.57.26-1.22.66-1.97,1.11-1.55.92-2.64.83-3.67.44v4.22h5.64v-5.77Z"/>
  <path class="st2" d="M15.53,61.9c-1.89-2.05-3.14-1.26-5.69.28-3.51,2.13-4.81-1.07-7.84-1.22v-1.58c2.58,0,4.47,3.08,7.26,1.38,2.76-1.62,4.23-2.56,6.27-.59v1.74h0Z"/>
  <path class="st0" d="M132.45,61.9c1.89-2.05,3.14-1.26,5.69.28,3.51,2.13,4.81-1.07,7.84-1.22v-1.58c-2.58,0-4.47,3.08-7.26,1.38-2.76-1.62-4.23-2.56-6.27-.59v1.74h0Z"/>
  <path class="st2" d="M15.53,65.13c-1.89-2.05-3.14-1.26-5.69.28-3.51,2.13-4.81-1.06-7.84-1.22v-1.58c2.58,0,4.47,3.08,7.26,1.38,2.76-1.62,4.23-2.56,6.27-.59v1.74h0Z"/>
  <path class="st0" d="M132.45,65.13c1.89-2.05,3.14-1.26,5.69.28,3.51,2.13,4.81-1.06,7.84-1.22v-1.58c-2.58,0-4.47,3.08-7.26,1.38-2.76-1.62-4.23-2.56-6.27-.59v1.74h0Z"/>
  <path class="st2" d="M15.53,68.4c-1.89-2.05-3.14-1.26-5.69.28-3.51,2.13-4.81-1.07-7.84-1.22v-1.58c2.58,0,4.47,3.08,7.26,1.38,2.76-1.62,4.23-2.56,6.27-.59v1.74h0Z"/>
  <path class="st0" d="M132.45,68.4c1.89-2.05,3.14-1.26,5.69.28,3.51,2.13,4.81-1.07,7.84-1.22v-1.58c-2.58,0-4.47,3.08-7.26,1.38-2.76-1.62-4.23-2.56-6.27-.59v1.74h0Z"/>
</svg>