<?xml version="1.0" encoding="UTF-8"?>
<svg id="_Шар_1" data-name="Шар_1" xmlns="http://www.w3.org/2000/svg" version="1.1" viewBox="0 0 182 124">
  <!-- Generator: Adobe Illustrator 30.5.1, SVG Export Plug-In . SVG Version: 2.1.4 Build 3)  -->
  <defs>
    <style>
      .st0 {
        fill: #fff;
      }

      .st0, .st1, .st2, .st3, .st4 {
        fill-rule: evenodd;
      }

      .st1 {
        fill: #0090df;
      }

      .st2, .st5 {
        fill: #002a5f;
      }

      .st3 {
        fill: #d9000d;
      }

      .st6, .st7, .st8 {
        stroke-miterlimit: 22.93;
      }

      .st6, .st7, .st8, .st9 {
        fill: none;
        stroke: #fff;
      }

      .st6, .st9 {
        stroke-width: 1.28px;
      }

      .st7 {
        stroke-width: 1.27px;
      }

      .st8 {
        stroke-width: 1.45px;
      }

      .st9 {
        stroke-linecap: square;
        stroke-miterlimit: 22.93;
      }

      .st4 {
        fill: #161615;
      }
    </style>
  </defs>
  <path class="st4" d="M83.91,38.51l.23.28.47-.39,1.06,1.31.33-.26-1.06-1.31.47-.38-.22-.3-1.28,1.05Z"/>
  <path class="st2" d="M85.43,31.43l-.62,4.09c-1.01.59-1.93,1.32-2.73,2.17-.56.63-1.05,1.31-1.48,2.03l-39.86,1.88-4.3,3.47,4.3,3.51,29.66,1.4,1.25,2.17h10.14c.48.58,1.02,1.1,1.61,1.56,1.85,1.45,4.11,2.27,6.46,2.34.75.02,1.5-.04,2.24-.17,2.53-.44,4.82-1.76,6.47-3.74h10.13l1.26-2.17,29.6-1.39,4.33-3.51-4.33-3.47-39.79-1.86c-.99-1.77-2.46-3.24-4.23-4.23l-.63-4.08-3.68-.82v-1.55h-2.09v1.54l-3.68.83Z"/>
  <path class="st6" d="M85.75,36.2l.61-3.9,3.8-.85,3.8.85.61,3.9"/>
  <path class="st9" d="M90.17,34.96v-4.86"/>
  <path class="st8" d="M99.19,49.44l39.98-1.89,3.04-2.48-3.04-2.44-39.99-1.88M81.12,49.44l-39.98-1.89-3.04-2.48,3.04-2.44,39.99-1.88"/>
  <path class="st6" d="M71.03,48.97l1.23,2.15h9.97M109.31,48.97l-1.22,2.15h-9.97"/>
  <path class="st0" d="M140.21,43.47l-8.5,2.41v-2.67l-8.73,2.83v-2.87s-9.1,2.93-9.1,2.93v-3.56l-13.77,2.41-.12,1.84,12.56-2.59v3.57s9.39-3.34,9.39-3.34v2.87s9.03-3.17,9.03-3.17v2.66s9.67-2.99,9.67-2.99l-.44-.34ZM97.13,41.91c-.13.04-.25.13-.34.23-.15.24-.16.54-.04.79.05.19.16.35.31.47.16.12.37.15.55.08.28-.1.34-.3.35-.57l.02-.69c0-.08.04-.15.11-.19.12-.05.27.06.33.26.09.16.03.35-.13.44-.01,0-.03.01-.04.02l.13.39c.35-.12.54-.51.41-.86-.01-.04-.03-.07-.05-.1-.07-.36-.41-.6-.77-.53-.02,0-.04,0-.06.01-.23.08-.37.3-.35.55l-.02.66c0,.13-.04.2-.11.22-.14.05-.28-.06-.35-.27-.1-.19-.04-.43.15-.53,0,0,.01,0,.02,0l-.12-.38ZM94.02,38.08c-.35.42-.29,1.03.13,1.38.02.02.05.04.08.06.46.31,1.08.19,1.38-.27.02-.02.03-.05.04-.07.34-.4.29-1.01-.12-1.35-.03-.02-.06-.05-.09-.07-.43-.32-1.04-.22-1.36.21-.03.04-.05.07-.07.11M94.39,38.29c.26-.34.57-.42.83-.23.28.19.3.52.06.87s-.59.46-.87.26c-.34-.23-.23-.61-.03-.9h0ZM88.89,36.1l.03,2.05h.41l-.03-1.69.41,1.68h.41s.35-1.71.35-1.71l.03,1.69h.4s-.03-2.06-.03-2.06h-.64s-.25,1.19-.25,1.19c-.02.13-.05.26-.07.39-.02-.13-.05-.26-.09-.39l-.27-1.17h-.65ZM83.91,38.51l.23.29.48-.39,1.06,1.31.33-.27-1.06-1.3.47-.38-.23-.29-1.28,1.04ZM83.24,43.71l.14-.42-.36-.27.24-.71h.45s.16-.42.16-.42l-2.18.02-.16.44,1.71,1.36ZM82.73,42.79l-.68-.51.84.02-.16.48ZM95.58,50.07h-.18s-.14.15-.14.15l.35.04.15-.18-.09-.34-.13.15.03.17ZM95.83,50.66l.18-.21c.13-.15.21-.17.31-.08s.1.18-.03.33l-.18.21-.28-.24ZM95.45,50.71l1.08.93.19-.22-.43-.37.18-.21c.17-.2.24-.1.41.04.05.05.12.09.19.12l.22-.25c-.16.02-.35-.29-.54-.31-.05,0-.09.01-.13.04.04-.14,0-.29-.12-.38-.09-.09-.22-.12-.34-.1-.12.04-.23.12-.3.23l-.41.47ZM94.1,52.7l-.12-.58.43.4-.31.18ZM93.95,53.41l.27-.15-.07-.31.45-.26.23.21.28-.16-1.15-.99-.28.17.27,1.49ZM90.87,52.74l.25,1.4.29-.05-.08-.47.12-.16.56.53.38-.07-.76-.71.48-.68-.37.06-.46.71-.11-.61-.29.06ZM88.08,53.96l.27.05.17-.98.41,1.08.27.05.25-1.41-.27-.04-.17.98-.4-1.08-.29-.05-.25,1.4ZM85.91,52.54l.44-.4-.13.57-.31-.18ZM85.22,52.77l.27.15.23-.21.45.26-.07.31.28.16.27-1.49-.28-.16-1.16.99ZM84.56,51.06c.21-.22.2-.57-.01-.78-.24-.28-.65-.31-.93-.07-.03.02-.05.04-.07.07-.3.2-.38.6-.19.89.02.03.04.05.06.08.12.15.31.23.51.21.1,0,.2-.04.29-.1l-.19-.23c-.13.09-.3.06-.4-.05-.15-.17-.1-.38.12-.58.24-.21.46-.23.62-.05.1.11.1.27,0,.38l.19.23Z"/>
  <path class="st7" d="M90.17,35.17c5.49,0,9.93,4.45,9.93,9.94,0,5.49-4.45,9.93-9.94,9.93-5.48,0-9.93-4.45-9.93-9.93.01-5.48,4.46-9.92,9.94-9.93Z"/>
  <path class="st0" d="M90.17,38.87c3.44,0,6.23,2.79,6.23,6.23,0,3.44-2.79,6.23-6.23,6.23-3.44,0-6.23-2.79-6.23-6.22,0-3.44,2.79-6.22,6.23-6.23Z"/>
  <path class="st7" d="M90.17,38.87c3.44,0,6.23,2.79,6.23,6.23,0,3.44-2.79,6.23-6.23,6.23-3.44,0-6.23-2.79-6.23-6.22,0-3.44,2.79-6.22,6.23-6.23Z"/>
  <path class="st0" d="M40.1,43.47l8.5,2.41v-2.66l8.73,2.84v-2.87l9.09,2.93v-3.57l13.77,2.42.12,1.84-12.56-2.59-.02,3.57-9.39-3.34.02,2.87-9.04-3.16v2.65l-9.66-2.99.44-.34ZM92.97,33.24c-.04-.42-.41-.73-.83-.69-.57.06-.98.58-.92,1.15.05.48.43.86.91.92.27,0,.52-.13.68-.34.09-.12.14-.26.15-.4h-.41c-.08.25-.2.38-.43.38-.3,0-.49-.25-.49-.66s.19-.69.51-.69c.21-.01.38.14.4.34h.41ZM87.51,33.82v.08c-.02.17.02.34.11.49.13.16.33.24.54.23.56,0,.6-.43.6-.87v-1.16h-.41v1.24c0,.34-.04.42-.23.42-.16,0-.22-.09-.22-.33v-.1h-.39Z"/>
  <path class="st1" d="M92.06,50.75c1.71-.59,3.08-1.91,3.72-3.61.45-1.23.48-2.57.09-3.82-.1-.35-.24-.69-.41-1.01-1.68.97-3.36,1.95-5.04,2.92v5.81c.55-.04,1.1-.14,1.63-.3M94.7,48.83c1.15-1.4,1.59-3.25,1.2-5.03-.11-.47-.27-.92-.48-1.35-1.63.95-3.26,1.9-4.9,2.84v5.66c1.62-.14,3.11-.9,4.18-2.13h0ZM94.14,40.62c-1.37-1.19-3.2-1.71-4.99-1.42-1.29.23-2.47.87-3.35,1.83-.25.26-.47.55-.67.85l5.05,2.9,5.04-2.9c-.32-.45-.68-.88-1.08-1.26"/>
  <path class="st3" d="M84.32,43.89c-.34,1.78.12,3.62,1.27,5.03.84,1,1.98,1.7,3.26,1.99.35.08.71.14,1.08.16l-.02-5.82-5.03-2.91c-.24.5-.43,1.03-.56,1.57"/>
  <path class="st5" d="M49.03,79.04h6.07l-9.17-17.53h-8.31l-9.28,17.53h6.1l1.5-2.97h11.6l1.5,2.97ZM45.66,72.23h-7.84l3.39-6.65h1.05l3.39,6.65ZM52.37,61.51v4.47h7.81v13.06h5.6v-13.06h7.81v-4.47h-21.22ZM74.83,61.51v17.53h5.26l-.13-13.12h.95l6.6,13.11h4.44l6.6-13.11h.89l-.13,13.11h5.26v-17.53h-9.63l-5.23,11.38-5.21-11.38h-9.68ZM118.69,61.25c-7.34,0-8.97.18-10.31,1.21s-1.74,2.81-1.74,7.7c0,5.15.37,6.89,1.74,7.94,1.34,1.02,2.97,1.21,10.36,1.21s8.91-.18,10.26-1.21,1.74-2.79,1.74-7.83-.39-6.78-1.74-7.81-2.97-1.21-10.31-1.21ZM118.69,65.8c4.89,0,5.47.08,6.07.79.47.58.63,1.58.63,4.18,0,2.13-.18,2.89-.79,3.36-.71.53-1.58.63-5.86.63s-5.26-.08-5.97-.63c-.63-.5-.79-1.21-.79-3.39s.11-3.23.42-3.83c.53-1.03,1.02-1.1,6.28-1.1h0ZM132.2,73.23v.84c0,2.42.39,3.44,1.6,4.2,1.24.79,3.37,1.02,8.81,1.02s7.44-.13,8.5-.53c1.81-.68,2.55-2.18,2.55-5.23,0-2.44-.45-3.63-1.65-4.41-1.13-.71-2.26-.84-8.04-1.02-1.88.02-3.76-.08-5.63-.32-.55-.13-.79-.47-.79-1.13,0-1.29.37-1.39,4.89-1.39,3.79,0,4.44.05,4.89.32.39.24.47.47.53,1.45h5.15c.03-.34.03-.71.03-.81,0-2.08-.42-3.18-1.47-3.89-1.24-.84-3.08-1.08-8.18-1.08-2.55-.08-5.11.02-7.65.32-2.43.52-3.37,2.02-3.37,5.36,0,3.86,1.21,4.97,5.55,5.1l1.42.05,2.84.13,4.21.16c1.71.03,2.11.29,2.11,1.34q0,1.55-5.73,1.55c-3.76,0-4.34-.05-4.84-.37-.42-.26-.53-.6-.53-1.65h-5.18ZM115.79,93.33v-1.45c.18-.29.43-.54.72-.72.68-.41,1.47-.61,2.27-.58.52,0,.77.03.77.1,0,.02-.02.03-.05.03-.08,0-.18,0-.32-.02s-.25-.02-.33-.02c-.7-.03-1.4.18-1.97.59-.49.34-.78.89-.77,1.49-.02.41.17.81.5,1.06.4.28.89.41,1.38.39,1.19-.03,2.32-.49,3.2-1.29.89-.6,1.47-1.57,1.56-2.64.02-.49-.19-.97-.58-1.28-.44-.34-.99-.51-1.55-.48-.49.01-.97.11-1.42.28-.63.76-1.06,1.13-1.3,1.13-.08,0-.11-.03-.11-.08,0-.22.44-.58,1.32-1.05,1.06-1.32,1.58-2.46,1.58-3.4,0-.08,0-.15-.02-.23-.01-.03-.02-.06-.02-.08,0-.05.03-.1.08-.11,0,0,.02,0,.03,0,.08,0,.12.09.12.28-.01.23-.05.47-.12.69.26-.5.78-.82,1.35-.83.59.09,1.17.24,1.73.45.24.08.5.13.75.15.18,0,.36-.07.49-.19.13-.11.21-.27.21-.44,0-.05-.01-.11-.04-.16-.02-.04-.03-.08-.04-.12,0-.07.03-.1.09-.1.08,0,.12.07.12.22-.01.38-.21.73-.52.94-.34.27-.75.41-1.18.41-.37,0-.73-.07-1.07-.19-.41-.15-.83-.25-1.27-.29-.35,0-.66.24-.76.58-.33.84-.77,1.62-1.32,2.33.48-.21.99-.32,1.51-.33.73-.03,1.44.2,2.02.64.51.38.81.97.81,1.61,0,.95-.57,1.8-1.7,2.56-1.13.76-2.47,1.16-3.83,1.14-.65.03-1.29-.14-1.84-.48-.21-.13-.39-.31-.52-.52h0ZM115.79,87.47c.13-.26.2-.55.19-.84,0-.25-.06-.5-.19-.72v1.56ZM115.79,85.91v1.56c-.44.86-1.61,1.45-3.51,1.76,1.45.31,2.18,1,2.18,2.07-.07.93-.64,1.74-1.48,2.13-1.04.62-2.23.94-3.44.92-.71.03-1.41-.13-2.03-.46-.18-.1-.34-.23-.48-.38v-1.65c.14-.16.3-.31.48-.42.57-.37,1.23-.55,1.9-.53.56,0,.85.03.85.1,0,.03-.02.05-.05.05h-.08c-.18-.03-.37-.05-.56-.05-.6-.02-1.18.17-1.66.53-.42.29-.67.77-.68,1.28,0,.41.2.79.54,1.02.41.28.89.42,1.38.4,1.1,0,2.17-.39,3.03-1.09.81-.54,1.33-1.43,1.38-2.41,0-.72-.47-1.2-1.42-1.43-.42.07-.84.1-1.27.11-.31,0-.47-.04-.47-.11,0-.11.22-.17.67-.17.36,0,.72.03,1.07.08.82-.23,1.56-.65,2.18-1.24.5-.45.79-1.08.81-1.76,0-.71-.49-1.07-1.46-1.07-.9.02-1.78.3-2.52.81-.84.54-1.26,1.08-1.26,1.63,0,.5.35.75,1.04.75.5-.03.98-.19,1.4-.46.48-.28.9-.66,1.23-1.11.03-.06.07-.08.11-.08.02,0,.04.02.04.03,0,.06-.11.21-.34.44-.2.21-.41.4-.64.57-.52.43-1.16.67-1.83.7-.32.01-.62-.09-.87-.29-.22-.18-.34-.46-.33-.74,0-.56.43-1.1,1.28-1.61.82-.5,1.76-.76,2.72-.76.59-.03,1.18.12,1.68.43.17.12.32.27.43.44h0ZM115.79,91.89c-.13.22-.2.48-.19.74,0,.25.06.49.19.71v-1.45h0ZM107.02,88.7c.2-.44.3-.92.31-1.41.01-.44-.1-.88-.31-1.26v2.67ZM107.02,86.03v2.67c-.27.61-.63,1.17-1.07,1.68-.73.85-1.56,1.61-2.48,2.25v-.83c1.05-1,1.93-2.18,2.59-3.47-.58.81-1.32,1.5-2.17,2.03-.14.09-.28.17-.42.25v-.14l.08-.04c.73-.4,1.39-.92,1.94-1.53.63-.61,1.01-1.44,1.06-2.32,0-.95-.44-1.43-1.32-1.43-.63.03-1.25.24-1.76.61v-.31c.55-.23,1.15-.37,1.75-.39.57-.02,1.13.21,1.53.62.11.11.2.24.28.37h0ZM107.02,91.84c-.2.24-.31.54-.31.85,0,.3.11.58.31.8v-1.66ZM103.47,85.43v.31c-.49.32-.94.7-1.35,1.12-1.15,1.15-1.73,2.18-1.73,3.1,0,.72.41,1.08,1.23,1.08.66-.04,1.29-.24,1.85-.58v.14c-.59.34-1.26.54-1.94.56-.51.03-1-.15-1.38-.49-.35-.34-.54-.82-.52-1.31,0-1,.61-1.95,1.84-2.85.6-.44,1.25-.8,1.94-1.07,0,0,.05-.02.05-.02ZM103.47,91.8v.83c-.39.28-.81.55-1.26.81-.71.42-1.45.77-2.22,1.06-.55.23-1.13.38-1.72.44v-.2h.14c1.09,0,2.44-.68,4.06-2.03.35-.3.69-.6,1-.91h0ZM98.27,85.79v-.23c.05-.06.11-.11.18-.15.02,0,.04,0,.04.03-.06.12-.13.23-.21.34h0ZM98.27,85.56v.23c-.3.45-.91,1.35-1.83,2.68-1.09,1.58-1.85,2.74-2.26,3.49-.4.72-.72,1.48-.94,2.27-.18-.04-.37-.06-.56-.07-.33.01-.65.05-.97.1.41-1.12,1.65-2.85,3.74-5.2.9-.98,1.75-2.01,2.55-3.09-1.41,1.59-2.98,3.02-4.7,4.27-.54.46-1.16.83-1.83,1.08-.05,0-.08-.02-.08-.05s.04-.08.11-.1c1.52-.64,3.74-2.47,6.63-5.48l.12-.12.02-.02h0ZM98.27,94.74v.2h-.06c-.1,0-.15-.03-.15-.08,0-.08.07-.12.21-.12h0ZM83.36,93.85v-.15c.8-.59,1.5-1.29,2.09-2.08.07-.09.13-.13.18-.13.02,0,.04.03.04.05-.04.08-.1.15-.16.22l-.39.45c-.51.62-1.1,1.17-1.76,1.63h0ZM83.36,91.7c.41-.11.82-.25,1.2-.43.56-.28.85-.63.85-1.03,0-.18-.09-.34-.23-.44-.16-.12-.35-.19-.55-.18-.44.02-.87.12-1.27.3v.41c.34-.32.77-.53,1.23-.6.21,0,.31.09.32.27,0,.34-.3.69-.9,1.07-.21.13-.42.25-.65.35v.28ZM83.36,89.91v.41l-.02.02c-.57.47-1.09,1.01-1.53,1.6.53-.12,1.05-.3,1.55-.53v.28c-.46.12-1,.25-1.62.36-.34.41-.55.91-.61,1.45,0,.48.28.72.84.72.51-.03.99-.21,1.39-.51v.14c-.42.31-.92.49-1.44.52-.4,0-.78-.14-1.06-.42-.03-.03-.05-.06-.08-.08v-1.88c.14-.13.26-.28.35-.44,0-.02-.01-.05-.04-.05-.04,0-.09.04-.17.13-.05.06-.09.12-.14.17v-.05c.49-.67,1.15-1.2,1.91-1.53.24-.12.46-.23.67-.31h0ZM80.78,91.75v.05c-1.35,1.63-2.43,2.45-3.23,2.45-.38.06-.74-.21-.79-.59,0-.07,0-.13,0-.2.11-.87.49-1.69,1.09-2.33.73-.93,1.34-1.39,1.84-1.39.29,0,.44.13.44.38,0,.32-.21.58-.64.77-.55.25-.83.53-.83.83,0,.25.14.38.41.38s.55-.19.83-.58c.26-.33.41-.74.42-1.16,0-.49-.22-.74-.67-.74-.5.04-.99.2-1.42.47-.63.32-1.19.76-1.65,1.3-.1.12-.18.24-.26.37v.1l.2-.27c.03-.06.06-.08.09-.08s.05.02.05.05c-.08.2-.2.37-.35.53v1.75s.07.08.1.11c.28.29.67.46,1.08.45.65,0,1.44-.47,2.36-1.41.4-.41.71-.74.92-.97v1.88c-.23-.27-.36-.62-.35-.98,0-.41.12-.8.35-1.14h0ZM69.18,88.45c.08-.11.13-.25.13-.39.01-.11-.04-.23-.13-.3v.69h0ZM76.31,91.75v.1c-1.2,1.6-2.06,2.4-2.56,2.4-.25,0-.37-.12-.37-.35.17-.56.46-1.07.85-1.51.43-.49.71-1.09.83-1.72,0-.28-.09-.54-.27-.75-.17-.19-.41-.3-.67-.3-.4.03-.78.21-1.06.51-.6.58-1.14,1.21-1.63,1.88.36-.43.6-.94.68-1.5,0-.23-.07-.45-.22-.62-.12-.16-.32-.26-.53-.26-.32,0-.94.58-1.86,1.73l-.17.21s-.03.04-.04.07c0,.03.02.05.05.05s.08-.04.13-.12c.9-1.21,1.51-1.81,1.81-1.81.15,0,.23.08.23.25-.25.81-.66,1.57-1.2,2.23l-1.15,1.69v.36c.11,0,.22-.01.34-.01.06,0,.24.01.53.03,1.82-3.04,3.17-4.56,4.05-4.56.26,0,.39.12.39.35-.15.48-.4.91-.73,1.29-.32.41-.61.84-.87,1.28-.11.22-.17.46-.17.7,0,.27.09.53.28.72.17.19.42.3.68.29.41,0,.97-.4,1.68-1.2.42-.47.74-.84.96-1.11v1.75c-.23-.27-.35-.61-.35-.96.01-.39.13-.77.35-1.1h0ZM69.18,91.89v-.17l.12-.15c.03-.06.06-.08.09-.08s.05.02.05.05c-.03.05-.06.09-.09.13l-.17.22ZM68.92,87.7c-.22,0-.43.1-.58.26-.17.13-.27.32-.28.53,0,.25.14.38.41.38.22,0,.43-.1.58-.26.05-.05.1-.1.14-.16v-.69c-.08-.05-.17-.07-.26-.07h0ZM69.18,91.73v.17l-.22.28c-1.13,1.47-1.99,2.2-2.59,2.2-.26,0-.52-.09-.71-.28-.19-.18-.29-.44-.28-.7.08-.54.3-1.05.62-1.48l1.4-2.23c.14.03.29.05.44.06.23,0,.46-.03.68-.06l-2.04,3.14c-.24.31-.39.67-.44,1.05,0,.25.14.38.42.38.52,0,1.42-.84,2.71-2.52h0ZM69.18,93.91l-.26.38c.09,0,.17-.02.26-.02v-.36ZM61,92.29c.26-.08.49-.22.68-.41.21-.18.38-.42.48-.68.15-.35.07-.76-.2-1.03-.34-.31-.79-.47-1.25-.43-.73.02-1.44.27-2.03.71-.61.39-1.09.97-1.36,1.64-.27.58-.16,1.27.29,1.73.59.5,1.36.75,2.13.68,1.17,0,2.31-.37,3.26-1.05.97-.63,1.72-1.56,2.12-2.64.28-.59.3-1.28.05-1.88-.4-.62-1-1.09-1.69-1.34l-.42-.19c-1.51-.67-2.14-1.36-1.87-2.09.15-.4.42-.76.77-1.01.3-.26.68-.41,1.07-.43.37.07.72.23,1,.48.35.29.79.46,1.25.48.43-.02.85-.12,1.25-.29.58-.24,1.14-.53,1.67-.86l-.03-.14c-.38.25-.78.47-1.19.65-.28.13-.57.2-.88.22-.39-.05-.75-.2-1.07-.42-.36-.25-.78-.4-1.22-.42-.68,0-1.34.22-1.89.61-.56.36-.98.89-1.21,1.51-.23.49-.23,1.07,0,1.56.42.57,1,1.01,1.66,1.27.77.28,1.44.77,1.94,1.41.23.53.22,1.12-.03,1.64-.3.78-.84,1.44-1.55,1.88-.69.5-1.52.77-2.37.78-.72.06-1.43-.25-1.89-.81-.41-.55-.49-1.28-.21-1.91.16-.44.44-.82.81-1.09.34-.27.77-.42,1.2-.43.59-.06,1.11.37,1.17.96.02.19-.01.39-.1.57-.06.18-.16.34-.29.48-.15.16-.32.3-.5.42l.41-.1Z"/>
</svg>