<?xml version="1.0" encoding="UTF-8"?>
<svg id="_Шар_1" data-name="Шар_1" xmlns="http://www.w3.org/2000/svg" version="1.1" viewBox="0 0 182 124">
  <!-- Generator: Adobe Illustrator 30.5.1, SVG Export Plug-In . SVG Version: 2.1.4 Build 3)  -->
  <defs>
    <style>
      .st0 {
        fill: #0674c1;
      }
    </style>
  </defs>
  <path class="st0" d="M154.88,44.63c-7.85-6.63-20.14-10.24-29.97-12.21-7.24-1.46-14.52-2.34-21.84-2.78-.56-.17-1.07.09-1.55-.15h-19.9l-1.54.16c-5.13.23-10.18.79-15.29,1.56-11.62,1.75-28.34,5.81-37.31,13.95-2.75,2.5-5.02,5.86-4.96,9.81.06,3.47,2.08,6.45,4.42,8.75,3.67,3.62,8.76,6.21,13.46,8.11,8.84,3.59,18.4,5.61,27.8,6.85,19.44,2.57,42.4,1.97,61.52-2.74,8.17-2.02,19.02-5.71,25.44-11.4,2.66-2.36,5.1-5.57,5.27-9.34.18-4.32-2.46-7.96-5.55-10.58ZM133.06,36.46c4.38,1.22,8.64,2.71,12.74,4.7,2.18,1.06,4.19,2.24,6.14,3.67,2.31,1.69,4.42,3.75,5.63,6.45,2.01,4.53-.22,8.65-3.55,11.68-2.81,2.54-6.28,4.48-9.69,6.01-3.59,1.6-7.24,2.86-11.01,3.92l-7.12,1.76c-19.36,4.15-42.19,4.47-61.72,1.4-7.62-1.2-15.77-3.05-22.97-5.88-4.38-1.72-9.08-4.05-12.62-7.26-3.19-2.9-5.41-6.9-3.63-11.28,1.27-3.15,3.79-5.43,6.45-7.3,4.69-3.29,10.67-5.61,16.1-7.26,5.59-1.69,11.26-2.87,17.03-3.75,21.15-3.19,47.52-2.58,68.23,3.15Z"/>
  <path class="st0" d="M141.89,62.12c-1.32.62-2.78.9-4.28.7-.73-.1-1.19-1.06-1.27-1.91,1.89-.53,4.11-1.83,4.33-3.79.11-1-.54-1.87-1.48-2.19-2.69-.96-5.15.45-7.14,2.51l.91-3.85,1.48-5.27c.57-2.04,1.72-5.61,3.58-6.42.78-.34,1.7.11,1.83.96.22,1.5-1.31,3.05-2.48,4.01-.14.11-.18.32-.13.47.13.34.83.24,1.34-.1,1.45-.96,2.96-2.3,3.4-3.99.32-1.19-.32-2.26-1.51-2.62-1.37-.41-2.85-.08-4.03.79-1.19.88-2.06,2.03-2.78,3.32-.9,1.61-1.54,3.55-2.09,5.33l-2,7.48c-.57,1.88-1.25,3.63-1.98,5.44l-.76,2.18h2.12c.95-1.86,2.05-4.19,3.26-5.89,1.24-1.76,3.28-3.55,5.22-2.65.39.17.68.52.75.81.38,1.33-1.05,2.31-2.48,2.46-.61-.85-1.69-1.12-2.5-.58-.37.24-.55.83-.35,1.19l1.66,3.31c1.11,1.89,3.77,1.73,5.54.69.75-.45,1.79-1.39,2.34-2.12.1-.13-.3-.34-.47-.25Z"/>
  <path class="st0" d="M127.32,62.2c-.55-.11-1.27.64-3.45.65-2.12.01-4.16.09-6.29-.14-.39-.04-.93-.33-.88-.68.13-1.1.81-1.98,1.53-2.78,1.54-1.73,3.73-2.62,6.05-2.46,1.03.07-.23,2.41-.78,3.59-.1.22.18.46.35.5.19.06.41-.01.56-.17,1.2-1.32,2.08-3.13,2.56-4.84.13-.48-.03-.89-.5-1.09-.42-.17-.9-.25-1.41-.23-2.22.09-4.38.73-6.22,1.99-1.24.85-2.19,2.01-2.88,3.32-.42.79-.58,1.63-.49,2.5.17,1.61,1.72,2.37,3.27,2.68,2.81.57,5.08-.07,6.19-.62.96-.47,1.75-1.22,2.55-1.91.02-.18-.1-.27-.17-.29Z"/>
  <path class="st0" d="M95.7,49.33l.58-1.27c-.69-.37-1.39-.09-1.92.4-1.73,1.76-2.65,4.34-3.49,6.65h-7.74l1.25-3.95c.34-1.06.78-2.01,1.28-3-.36-.55-1.39-.23-1.94.33-1.66,1.68-2.69,4.32-3.46,6.62h-8.59l1.35-4.74c.48-1.67,1.31-3.87,2.26-5.33.82-1.36,1.92-2.4,3.28-3.2.16-.09.3-.35.16-.5l-3.28.1c-2.03.06-3.96.53-5.87,1.21-2.05.72-3.77,1.89-5.21,3.5-1.02,1.14-2.04,2.99-2.78,4.35l-1.97,3.64c-5.82-.58-11.63-.4-17.36.62-3.61.64-7.46,1.64-10.16,4.1-1.13,1.03-1.98,2.45-.98,3.53.68.73,1.53,1.21,2.49,1.51,1.14.35,2.25.57,3.47.7,4.44.47,10.08.36,14.3-1.08,1.37-.47,2.55-1.25,3.69-2.14,2.06-1.59,3.67-3.58,5.04-5.81l3.13.37c1.73.2,3.42.47,5.21.57-.64,3.22-1.65,6.31-3.23,9.18l-.82,1.49c-.06.25.32.47.51.52,1.67.46,4.28-5.21,4.96-7.16.52-1.37.98-2.67,1.39-4.06h8.53c-.76,2.85-1.73,5.59-2.96,8.35l5.85-.02c.88,0,1.66-.3,2.39-.74.81-.55,1.54-1.16,2.15-1.93.08-.1-.17-.33-.28-.34-.3-.04-1.67,1.05-4.09,1.04h-3.4c1.62-1.95,2.57-4.08,3.27-6.36h7.69l-1.9,5.67-1.11,2.68h5.64c1.3-.01,2.44-.5,3.39-1.34l1.17-1.05c.17-.16.23-.37.08-.54-.12-.14-.33-.16-.52.02-1.09.6-2.3.91-3.57.91h-3.56c.91-1.07,1.66-2.08,2.14-3.31l1.17-3.03,5.04-.02.31-1.36h-4.94c.58-1.99,1.18-3.89,1.93-5.77ZM51.42,61.61c-1.34.4-2.61.6-4.01.74-4.09.42-8.17.41-12.3-.09-.98-.11-1.48-.38-2.25-.81-.87-.48.08-1.37.9-2.09.73-.65,1.18-1.16,2.1-1.56,2.02-.87,4.08-1.47,6.26-1.88,3.72-.69,7.41-.99,11.2-.92,1.88.04,3.6.21,5.53.38-1.69,2.99-4.14,5.23-7.42,6.22ZM70.23,50.06c-.64,1.62-1.14,3.22-1.54,5.04-2.59-.18-5.09-.43-7.73-.83,2.48-4.05,5.23-8.02,9.43-10.24,1.46-.78,2.95-1.29,4.65-1.44-1.08,1.05-2,2.07-2.76,3.31-.73,1.13-1.5,2.92-2.04,4.16Z"/>
  <path class="st0" d="M111.86,63.05h-1.88s1.56-3.15,1.56-3.15c.42-.86.68-1.77.79-2.75.32-2.92-6.78-3.85-11.46,1.04-1.28,1.33-2.6,3.15-2.15,4.99.52,2.19,3.75,2.34,5.57,1.49l3.54-2.06c.09.81.29,1.6.93,2.02.99.65,2.28.61,3.41.16,1-.39,1.7-1.07,2.46-1.75.17-.15.37-.33.25-.54-.48-.76-.61.56-3.01.55ZM109.92,56.97c-.38,1.81-1.27,3.51-2.69,4.72-1.45,1.23-3.4,1.66-5.2,1.28-1.61-.35-.78-2.98.41-4.47,1.63-2.03,4.25-3.04,6.77-2.62.27.04.49.22.59.35.14.18.18.48.12.74Z"/>
  <g>
    <path class="st0" d="M156.2,29.04c-2.41,0-4.37,1.96-4.37,4.37s1.96,4.37,4.37,4.37,4.37-1.96,4.37-4.37-1.96-4.37-4.37-4.37ZM159.73,33.41c0,1.95-1.59,3.54-3.54,3.54s-3.54-1.59-3.54-3.54,1.59-3.54,3.54-3.54,3.54,1.59,3.54,3.54Z"/>
    <path class="st0" d="M157.9,33.37h0c.2-.24.31-.53.31-.88,0-.42-.15-.75-.44-.99-.28-.23-.68-.35-1.19-.35h-2.12v4.5h.85v-1.75h1.1l1.1,1.75h.99l-1.23-1.87c.26-.08.47-.21.64-.4ZM157.36,32.5c0,.21-.07.37-.2.49-.14.12-.35.18-.61.18h-1.24v-1.28h1.22c.28,0,.5.06.64.16.13.1.2.25.2.45Z"/>
  </g>
  <path class="st0" d="M72.51,88.16c-1.38-.02-2.44,1.44-2.79,3.16-.16.81-.45,3.64,1.54,3.64.97,0,2.29-.8,2.78-3.35.1-.54.54-3.43-1.54-3.45ZM71.51,93.58c-1.1-.01-1.06-1.98-.4-3.39.28-.6.77-.92,1.22-.88.44.04.75.41.78,1.02.07,1.48-.57,3.24-1.6,3.24Z"/>
  <path class="st0" d="M82.28,88.16c-1.38-.02-2.44,1.44-2.79,3.16-.16.81-.45,3.64,1.54,3.64.97,0,2.29-.8,2.78-3.35.1-.54.54-3.43-1.54-3.45ZM81.28,93.58c-1.1-.01-1.06-1.98-.4-3.39.28-.6.77-.92,1.22-.88.44.04.75.41.78,1.02.07,1.48-.57,3.24-1.6,3.24Z"/>
  <path class="st0" d="M57.57,90.49c0-1.02-.26-2.33-1.66-2.34-1.38-.01-2.46,1.44-2.81,3.16-.16.81-.45,3.64,1.56,3.64.84,0,1.94-.58,2.55-2.35h-1.11c-.28.58-.69.98-1.18.98-1.12-.01-1.08-1.98-.41-3.38.28-.6.78-.92,1.23-.88.44.04.76.41.79,1.02,0,.05,0,.1,0,.15h1.05Z"/>
  <polygon class="st0" points="25.31 88.45 24.74 91.02 22.62 91.02 23.2 88.45 21.89 88.45 20.54 94.51 21.85 94.51 22.37 92.18 24.48 92.18 23.96 94.51 25.26 94.51 26.61 88.45 25.31 88.45"/>
  <polygon class="st0" points="62.34 88.45 61.77 91.02 59.66 91.02 60.23 88.45 58.92 88.45 57.57 94.51 58.88 94.51 59.4 92.18 61.51 92.18 60.99 94.51 62.29 94.51 63.65 88.45 62.34 88.45"/>
  <polygon class="st0" points="92.4 90.87 91.63 88.45 90.25 88.45 91.42 92.18 90.92 94.51 90.98 94.51 90.98 94.51 92.18 94.51 92.19 94.51 92.22 94.51 92.74 92.18 95.59 88.44 94.21 88.44 92.4 90.87"/>
  <polygon class="st0" points="101.95 88.44 100.03 92.54 99.9 88.44 98.11 88.44 98.1 88.45 97.99 88.45 96.64 94.51 96.8 94.51 96.79 94.51 97.91 94.51 97.91 94.51 97.95 94.51 98.89 90.28 98.93 94.51 100.22 94.51 101.89 90.88 101.08 94.51 101.24 94.51 101.24 94.51 102.35 94.51 102.35 94.51 102.38 94.51 103.73 88.45 101.95 88.44"/>
  <path class="st0" d="M159.96,88.45h-2.88l-1.35,6.06h1.31l.52-2.34h.46l.58,2.34h1.45l-.59-2.37c.91-.14,1.75-.91,1.96-1.83.23-1.02-.42-1.86-1.45-1.86ZM159.91,90.32c-.09.38-.47.7-.86.7h-1.23l.31-1.41h1.23c.38,0,.63.31.55.7Z"/>
  <path class="st0" d="M150.87,90.31c.23-1.02-.42-1.86-1.45-1.86h-2.88l-1.35,6.06h1.31l.52-2.34h.46l.58,2.34h1.45l-.59-2.37c.91-.14,1.75-.91,1.96-1.83ZM149.36,90.32c-.09.38-.47.7-.86.7h-1.23l.31-1.41h1.23c.38,0,.63.31.55.7Z"/>
  <polygon class="st0" points="66.9 92.09 65.99 88.45 64.69 88.45 63.34 94.51 64.64 94.51 65.39 91.15 66.22 94.51 67.66 94.51 69.01 88.45 67.71 88.45 66.9 92.09"/>
  <polygon class="st0" points="112.57 92.09 111.67 88.45 110.36 88.45 109.01 94.51 110.32 94.51 111.07 91.15 111.89 94.51 113.34 94.51 114.69 88.45 113.38 88.45 112.57 92.09"/>
  <path class="st0" d="M115.06,91.56c0-.05.01-.11.02-.15l-.03.15h.01Z"/>
  <path class="st0" d="M119.28,88.56s0-.01-.02-.01l-.53,3.01c-.21,1.09-.75,2.02-1.51,2.02-.77-.01-.99-.97-.82-2.02l.55-3.11h-1.02l-.53,2.95s-.02.1-.02.15c-.16,1.02-.24,3.39,1.58,3.39.97,0,2.3-.79,2.79-3.34l.56-3.16h-1.02l-.02.11Z"/>
  <path class="st0" d="M144.17,88.45l-.02.11s0-.01-.02-.01l-.53,3.01c-.21,1.09-.75,2.02-1.51,2.02-.77-.01-.99-.97-.82-2.02l.55-3.11h-1.02l-.53,2.95s-.02.1-.02.15c-.16,1.02-.24,3.39,1.58,3.39.97,0,2.3-.79,2.79-3.34l.56-3.16h-1.02Z"/>
  <path class="st0" d="M87.62,89.32c.42.04.73.38.78.96h1.04c-.04-.98-.35-2.11-1.64-2.12-1.38-.01-2.44,1.44-2.79,3.16-.17.81-.44,3.64,1.54,3.64.97,0,2.3-.79,2.79-3.34.01-.08.03-.19.05-.33h-2.11l-.21,1.16h.96c-.28.66-.7,1.13-1.24,1.13-1.1-.01-1.07-1.98-.4-3.38.27-.6.77-.92,1.22-.88Z"/>
  <polygon class="st0" points="76.46 92.17 76.72 91.02 77.03 89.6 77.04 89.6 77.29 88.45 75.98 88.45 74.63 94.51 78.39 94.51 78.64 93.36 76.19 93.36 76.46 92.17"/>
  <path class="st0" d="M35.34,88.45h-1.37l-3.29,6.06h1.37l.63-1.15h0s1.97,0,1.97,0h0s.12,1.16.12,1.16h1.37l-.59-6.06h-.21ZM34.54,92.07h-1.16,0s.98-1.8.98-1.8l.18,1.8h0Z"/>
  <path class="st0" d="M107.54,88.45h-1.21l-2.91,6.06h1.21l.56-1.15h0s1.74,0,1.74,0h0s.1,1.16.1,1.16h1.21l-.53-6.06h-.18ZM106.82,92.07h-1.03,0s.87-1.8.87-1.8l.16,1.8h0Z"/>
  <path class="st0" d="M128.85,88.45h-1.37l-3.29,6.06h1.37l.63-1.15h0s1.97,0,1.97,0h0s.12,1.16.12,1.16h1.37l-.59-6.06h-.21ZM128.04,92.07h-1.16,0s.98-1.8.98-1.8l.18,1.8h0Z"/>
  <polygon class="st0" points="39.06 88.45 37.63 88.45 37.38 89.6 38.8 89.6 37.71 94.51 39.01 94.51 40.1 89.6 41.53 89.6 41.78 88.45 40.36 88.45 39.06 88.45"/>
  <polygon class="st0" points="48.56 88.45 47.14 88.45 45.83 88.45 44.41 88.45 44.15 89.6 45.57 89.6 44.48 94.51 45.79 94.51 46.88 89.6 48.3 89.6 48.56 88.45"/>
  <polygon class="st0" points="137.1 88.45 135.68 88.45 135.42 89.6 136.85 89.6 135.75 94.51 137.06 94.51 138.15 89.6 139.58 89.6 139.83 88.45 138.41 88.45 137.1 88.45"/>
  <polygon class="st0" points="30.47 92.17 30.73 91.02 28.28 91.02 28.59 89.6 31.05 89.6 31.3 88.45 27.54 88.45 26.19 94.51 29.95 94.51 30.2 93.36 27.75 93.36 28.02 92.17 30.47 92.17"/>
  <polygon class="st0" points="47.88 94.51 51.63 94.51 51.89 93.36 49.44 93.36 49.7 92.17 52.15 92.17 52.41 91.02 49.96 91.02 50.27 89.6 52.73 89.6 52.98 88.45 49.23 88.45 47.88 94.51"/>
  <path class="st0" d="M135,90.49c0-1.02-.26-2.33-1.66-2.34-1.38-.01-2.46,1.44-2.81,3.16-.16.81-.45,3.64,1.56,3.64.84,0,1.94-.58,2.55-2.35h-1.11c-.28.58-.69.98-1.18.98-1.12-.01-1.08-1.98-.41-3.38.28-.6.78-.92,1.23-.88.44.04.76.41.79,1.02,0,.05,0,.1,0,.15h1.05Z"/>
  <polygon class="st0" points="155.48 89.6 155.73 88.45 151.98 88.45 150.63 94.51 154.38 94.51 154.64 93.36 152.19 93.36 152.45 92.17 154.9 92.17 155.16 91.02 152.71 91.02 153.02 89.6 155.48 89.6"/>
  <polygon class="st0" points="124.96 91.02 122.51 91.02 122.82 89.6 125.28 89.6 125.53 88.45 121.78 88.45 120.43 94.51 121.74 94.51 122.25 92.17 124.7 92.17 124.96 91.02"/>
</svg>