<?xml version="1.0" encoding="UTF-8"?>
<svg id="_Шар_1" data-name="Шар_1" xmlns="http://www.w3.org/2000/svg" version="1.1" xmlns:xlink="http://www.w3.org/1999/xlink" viewBox="0 0 182 124">
  <!-- Generator: Adobe Illustrator 29.0.0, SVG Export Plug-In . SVG Version: 2.1.0 Build 186)  -->
  <defs>
    <style>
      .st0 {
        fill: #101211;
      }

      .st1 {
        fill: #db031b;
      }

      .st2 {
        fill: url(#_Градієнт_без_назви_39);
        opacity: .87;
      }
    </style>
    <linearGradient id="_Градієнт_без_назви_39" data-name="Градієнт без назви 39" x1="110.16" y1="71.92" x2="111.35" y2="71.92" gradientTransform="translate(38.84 182.68) rotate(-90)" gradientUnits="userSpaceOnUse">
      <stop offset="0" stop-color="#ff6211"/>
      <stop offset="1" stop-color="#ff710f"/>
    </linearGradient>
  </defs>
  <path class="st0" d="M112.14,54.92c-.03-.14-.06-.27-.1-.41-.15-.55-.35-1.08-.6-1.58-.13-.36-.28-.7-.43-1.02-1.33-2.21-3.52-3.59-6.16-4.22h-.1s-.03-.01-.04,0c-.81-.21-1.68-.35-2.62-.39-.06-.01-.11-.01-.15-.01-.14-.01-.28-.03-.42-.03h-.43c-.25,0-.52.01-.77.04-.2.01-.39.01-.59.04-.35.04-.69.09-1.02.15-2.02.32-3.77,1.07-5.17,2.14-.31.22-.62.48-.88.73-.52.49-.87.81-1.3,1.33v-4.3c-.67-.2-1.64-.15-2.58.03-1.69.34-2.9,1.9-3.25,2.49v-2.23h-5.18v15.11s-.41.01-.62.01c-1.11-.01-3.77.04-4.69-.6-.64-.43-.87-.95-.87-1.23v-9.29h5.03v-4.01h-5.01v-7.1h-5.18v7.1h-17.27c-2.47,0-4.73,2.48-4.73,5.11,0,2.31.46,3.59,1.75,4.82,2.7,2.61,6.92.6,10.18,1.53,1.46.42,2.44,2.34,1.32,3.66h-14.09v-15.11h-5.18v15.11h-5.42c-.22,0-1.04-.08-1.62-.53-.6-.46-.81-1.33-.81-1.47v-13.11h-5.2v12.89s-6.02-14.02-8.47-19.99h-6.61l-10.83,26.36h6.46l2.79-5.92,10.43.03,2.13,5.9h6.46l-.28-1.15s.85.6,1.23.77c.88.38,1.61.38,1.61.38,9.76,0,18.57.08,28.1,0,4.1,0,5.21-3.81,5.18-6.34-.01-2.17-1.34-4.13-3.81-4.85-1.51-.43-5.43-.35-8.22-.35-1.61,0-1.92-1.62-1.76-2.47.15-.85.57-1.25.57-1.25h16.11v10.97c.04.7.43,2.07,1.41,3.05.67.69,1.97,1.23,3.39,1.23h11.72v-14.93l5.74-.03c-.43.7-.77,1.47-1.01,2.28-.04.06-.06.13-.07.18-.07.21-.13.43-.15.66-.1.32-.15.66-.18,1.01-.01.07-.01.15-.01.22-.03.18-.04.35-.06.52-.03.17-.03.35-.03.52v.11c-.01,2.07.5,4.15,1.62,5.8.67.99,1.61,1.82,2.72,2.46.25.15.5.31.77.42,1.44.74,3.19,1.2,5.25,1.3.29.03.59.04.9.04h.08c.27,0,.53,0,.78-.01.14,0,.28-.01.41-.03,3.77-.2,6.3-1.37,7.9-3.18.59-.6,1.08-1.27,1.43-2.04.66-1.41.9-3.05.83-4.69v-.18c0-.85-.1-1.68-.29-2.47ZM12.83,56.43s1.37-4.03,2.16-6.05c.07-.2,1.15-2.69,1.15-2.69l3.31,8.74h-6.61ZM100.59,51.42c.21-.03.42-.04.64-.04.11,0,.24,0,.35.01.87.08,1.72.35,2.51.84.14.08.27.17.39.27,1.46,1.09,2.41,2.91,2.41,4.97,0,1.29-.38,2.49-1.02,3.47h0c-1.02,1.6-2.72,2.62-4.64,2.62-1.18,0-2.27-.39-3.17-1.05-.29-.2-.57-.45-.81-.73-.91-1.01-1.53-2.35-1.67-3.81-.03-.17-.03-.34-.03-.5,0-.21.01-.42.03-.63,0-.2.03-.41.08-.6.49-2.55,2.47-4.52,4.92-4.82Z"/>
  <path class="st1" d="M119.94,47.69h5.34v4.01h-5.34v15.25h-5.18v-15.25h-3.89c.03.07-1.48-1.86-2.57-2.57-1.02-.66-2.19-1.14-3.46-1.44,3.35,0,9.92-.01,9.92-.01,0,0-.21-4.64,1.39-6.08.34-.27,1.29-1.01,2.23-1.01h6.9v3.99h-3.18c-.06,0-.59.01-.97.22-1.16.66-1.19,1.72-1.19,2.89Z"/>
  <path class="st1" d="M161.74,53.12l-4.15-5.42h-6.45l7.45,9.73-4.71,5.9-11.38.05c-3.62.04-3.86-3.82-3.86-3.82h11.31l.22-.22v-3.63h-11.23c-.12-.95.23-1.97.54-2.34.63-.76,1.71-1.36,2.59-1.36h8.1v-4.3h-9.56c-1.22,0-2.47.65-3.16,1.07-7.8,4.68-5.92,18.2,3.61,18.2h16.52l4.15-4.89,3.66,4.89h6.94s-7.45-9.53-7.45-9.53l7.45-9.73h-6.45c-1.37,1.66-4.15,5.42-4.15,5.42Z"/>
  <rect class="st1" x="126.32" y="40.6" width="5.19" height="26.36"/>
  <path class="st0" d="M63.63,76.07c.71-.78,1.26-1.01,1.26-2.42,0-2.32-2.23-2.32-2.23-2.32h-5.35v9.27h1.19v-4.01h3.73c1.43,0,1.19,2.81,1.22,4.01h1.43s.1-2.18-.18-3.63c-.13-.65-.54-.82-1.07-.9ZM62.38,75.4h-3.88v-2.88s4.09-.02,4.15,0c.59.2.85.75.84,1.26,0,.74-.44,1.61-1.11,1.61Z"/>
  <path class="st0" d="M162.26,73.59c-.95.01-1.48.38-2.08,1.07-.46-.7-.83-1.11-1.71-1.11-1.06,0-1.56.36-2.21.96v-.75h-1.19v6.83h1.19v-3.67c0-.8.54-2.26,1.81-2.26,1.19,0,1.16,1.04,1.16,1.11v4.82h1.19s0-2.88,0-4.21c0-1.09.92-1.75,1.54-1.76.85,0,1.27.43,1.27,1.16v4.82h1.19s0-5.41,0-5.41c0-.35-.29-1.61-2.15-1.59Z"/>
  <path class="st0" d="M116,73.57c-2.68,0-3.24,1.95-3.24,3.57,0,1.21.2,2.42,1,3.05.51.39,1.13.68,2.11.68,2.55,0,3.14-2.51,3.14-2.51h-1.18s-.49,1.43-1.87,1.43c-1.3,0-1.99-.92-2-2.17h5.12s.22-4.06-3.06-4.06ZM113.95,76.59s.45-1.95,1.92-1.95c1.74,0,1.88,1.95,1.88,1.95h-3.8Z"/>
  <path class="st0" d="M150.88,73.57c-2.68,0-3.24,1.95-3.24,3.57,0,1.21.2,2.42,1,3.05.51.39,1.13.68,2.11.68,2.55,0,3.14-2.51,3.14-2.51h-1.18s-.49,1.43-1.87,1.43c-1.3,0-1.99-.92-2-2.17h5.12s.22-4.06-3.06-4.06ZM148.83,76.59s.45-1.95,1.92-1.95c1.74,0,1.88,1.95,1.88,1.95h-3.8Z"/>
  <path class="st0" d="M169.08,73.57c-2.68,0-3.24,1.95-3.24,3.57,0,1.21.2,2.42,1,3.05.51.39,1.13.68,2.11.68,2.55,0,3.14-2.51,3.14-2.51h-1.18s-.49,1.43-1.87,1.43c-1.3,0-1.99-.92-2-2.17h5.12s.22-4.06-3.06-4.06ZM167.03,76.59s.45-1.95,1.92-1.95c1.74,0,1.88,1.95,1.88,1.95h-3.8Z"/>
  <path class="st0" d="M77.08,73.59c-1.16.03-1.49.25-2.18.82v-3.08s-1.19,0-1.19,0v9.26h1.19s0-2.1,0-3.88c0-1.19.84-2.05,1.94-2.06.85,0,1.39.54,1.39,1.03v4.9h1.19v-5.06c0-1.17-.77-1.98-2.34-1.95Z"/>
  <path class="st0" d="M136.82,73.76h-1.45l-1.71,5.24-1.71-5.24h-1.45l2.29,6.39s.07.4.08.54,0,1.16-.59,1.55c-.19.13-.7.08-1.23.08v1.09c.53,0,1.17-.01,1.59-.03.49-.02.72-.44,1.06-1.07.9-1.71,3.11-8.55,3.11-8.55Z"/>
  <path class="st0" d="M97.08,76.77c-.47-.17-2.57-.41-2.58-1.23,0-.54.34-.9,1.17-.91.49,0,1.41,0,1.61,1.05h1.19c.02-1.36-.92-2.12-2.68-2.12-1.65,0-2.64.7-2.64,2-.01,2.83,4.26,1.59,4.26,3.11,0,.97-.93,1.17-1.82,1.17-1.16,0-1.55-1.48-1.55-1.48h-1.07s-.03,1.01.51,1.63c1.27,1.44,5.19,1.04,5.19-1.29,0-1.21-.66-1.59-1.6-1.94Z"/>
  <path class="st0" d="M128.34,76.77c-.47-.17-2.57-.41-2.58-1.23,0-.54.34-.9,1.17-.91.49,0,1.41,0,1.61,1.05h1.19c.02-1.36-.92-2.12-2.68-2.12-1.65,0-2.64.7-2.64,2-.01,2.83,4.26,1.59,4.26,3.11,0,.97-.93,1.17-1.82,1.17-1.16,0-1.55-1.48-1.55-1.48h-1.07s-.03,1.01.51,1.63c1.27,1.44,5.19,1.04,5.19-1.29,0-1.21-.66-1.59-1.6-1.94Z"/>
  <path class="st0" d="M141.48,76.77c-.47-.17-2.57-.41-2.58-1.23,0-.54.34-.9,1.17-.91.49,0,1.41,0,1.61,1.05h1.19c.02-1.36-.92-2.12-2.68-2.12-1.65,0-2.64.7-2.64,2-.01,2.83,4.26,1.59,4.26,3.11,0,.97-.93,1.17-1.82,1.17-1.16,0-1.55-1.48-1.55-1.48h-1.07s-.03,1.01.51,1.63c1.27,1.44,5.19,1.04,5.19-1.29,0-1.21-.66-1.59-1.6-1.94Z"/>
  <path class="st0" d="M145.8,79.15c0-.52,0-4.36,0-4.36h1.04v-1.04h-1.04v-1.91s-1.19,0-1.19,0v1.91h-1.03v1.03h1.03s0,2.83,0,4.61c0,.75.31,1.38,1.1,1.4.27,0,1.12.01,1.12.01v-1.14s-1.04.14-1.04-.52Z"/>
  <path class="st0" d="M83.27,73.78c-.53.26-.81.85-.81.85v-.87h-1.19v6.83h1.19s0-3.32,0-4.24c0-.45.26-.87.45-1.05.59-.57,1.68-.47,1.68-.47v-1.23s-.86-.04-1.31.18Z"/>
  <path class="st0" d="M122.53,73.78c-.53.26-.81.85-.81.85v-.87h-1.19v6.83h1.19s0-3.32,0-4.24c0-.45.26-.87.45-1.05.59-.57,1.68-.47,1.68-.47v-1.23s-.86-.04-1.31.18Z"/>
  <g>
    <path class="st0" d="M176.41,40.99c-1.98,0-3.59,1.61-3.59,3.59s1.61,3.59,3.59,3.59,3.59-1.61,3.59-3.59-1.61-3.59-3.59-3.59ZM176.41,47.68c-1.72,0-3.11-1.4-3.11-3.11s1.4-3.11,3.11-3.11,3.11,1.4,3.11,3.11-1.4,3.11-3.11,3.11Z"/>
    <path class="st0" d="M177.77,44.46c.15-.18.23-.4.23-.67,0-.32-.11-.57-.33-.75-.22-.18-.53-.27-.93-.27h-1.68v3.58h.49v-1.48h1.11l.93,1.48h.56l-1.01-1.54c.27-.05.49-.16.64-.34ZM175.54,44.48v-1.32h1.15c.27,0,.47.05.61.16s.21.27.21.48-.07.38-.21.5c-.14.12-.34.18-.59.18h-1.17Z"/>
  </g>
  <path class="st0" d="M69.31,73.51c-1.78,0-3.21,1.64-3.21,3.67s1.43,3.66,3.21,3.66,3.19-1.64,3.19-3.66-1.43-3.67-3.19-3.67ZM69.31,79.82c-1.12,0-2.03-1.19-2.03-2.65s.91-2.66,2.03-2.66,2.02,1.19,2.02,2.66-.91,2.65-2.02,2.65Z"/>
  <path class="st0" d="M102.75,73.49c-1.78,0-3.21,1.64-3.21,3.67s1.43,3.66,3.21,3.66,3.19-1.64,3.19-3.66-1.43-3.67-3.19-3.67ZM102.75,79.81c-1.12,0-2.03-1.19-2.03-2.65s.91-2.66,2.03-2.66,2.02,1.19,2.02,2.66-.91,2.65-2.02,2.65Z"/>
  <rect class="st0" x="85.14" y="76.44" width="3.27" height="1.19"/>
  <rect class="st0" x="86.05" y="75.36" width="9.27" height="1.19" transform="translate(166.65 -14.73) rotate(90)"/>
  <rect class="st0" x="103.26" y="75.36" width="9.27" height="1.19" transform="translate(183.86 -31.94) rotate(90)"/>
  <rect class="st0" x="107.34" y="76.58" width="6.83" height="1.19" transform="translate(187.94 -33.58) rotate(90)"/>
  <rect class="st2" x="110.16" y="71.33" width="1.19" height="1.19" transform="translate(182.68 -38.84) rotate(90)"/>
</svg>