<?xml version="1.0" encoding="UTF-8"?>
<svg id="_Шар_1" data-name="Шар_1" xmlns="http://www.w3.org/2000/svg" version="1.1" viewBox="0 0 182 124">
  <!-- Generator: Adobe Illustrator 30.5.1, SVG Export Plug-In . SVG Version: 2.1.4 Build 3)  -->
  <path d="M94.19,59.36l-1.15,1.83-.63.96,1.8-.13c.57-.04,1.15.04,1.63.37l1.76,1.19.89-1.04c.69-.81,1.84-1.21,2.9-1.15,1.46.09,2.56,1.18,2.81,2.56.07.37.34.54.69.54h1.14c.94.12,1.73.69,2.24,1.46.48.71.74,1.5,1.03,2.31l.47,1.34c1.25.03,2.16.86,2.45,2.03.19.74.28,1.43.02,2.17-.06.18-.3.53-.52.5-.54-.07-.99-.62-.94-1.14.03-.28.43-.36.68-.4.3-1.12-.83-2.58-1.52-2.1-.1.07-.39.14-.5.1-.13-.05-.33-.25-.36-.4l-.33-1.65c-.13-.67-.32-1.31-.7-1.86-.53-.77-1.27-1.3-2.2-1.43l-1.69-.23-.7-1.47c-.35-.73-.9-1.18-1.71-1.27-1.09-.11-2.08.34-2.87,1.08l-.83.77c-.14.13-.36.25-.56.15-.41-.22-.79-.47-1.12-.77-.84-.75-1.88-1.1-3-.89l-1.1.28c-.43.11-.75.54-.93.95l-1.46,3.43c1-.45,2.04-1.62,2.89-1.91l3.78-1.29c.22.14.45.35.55.59l.67,1.53.85,2.11.88,2.39c.22.59-.23,1.22.46,1.49.47.19.79.48,1.1.88.54.69,1.23,1.31,1.44,2.18l.21.85c.02.08.19.22.27.23.29.05.74-.59,2.14-.6.53,0,1.01.13,1.41.5.55.51,1.49,1.74,1.23,2.07-.3.37-.73-.7-1.53-1.09-1.84-.87-3.22.03-4.04-.13-.3-.06-.47-.42-.5-.71-.12-1.15-.68-2.12-1.72-2.68-1.51-.82-3.85-.97-5.12.11-.41.35-.92.51-1.41.21l-.87-.55c-.7-.44-1.45-.75-2.3-.65-.75.09-1.46.37-2.1.77-.7.44-.67,1.29-1.29,1.51-.35.12-.79.04-1.14-.09-1.63-.64-3.36-.19-4.47,1.16-.32.39-.45.83-.54,1.36-.14.78-2.14.79-3.23.81l.46-.54c-.86-.68-2.62.18-3.81.57-.55-.33-.5-1.18-1.39-1.2l-2.08-.06c-.03-1.22,1.44-1.16,1.43-3.08,0-1.34-1.18-.98-1.86-1.89.11-.39.36-.76.39-1.14.05-.68-.12-1.34-.15-2.06.57-.07,1.07.3,1.14.87.08.75,0,1.45-.21,2.22l1.09.94c.29-.46.5-.86.68-1.34.33-.88.73-1.68,1.2-2.5.73-1.26,1.74-2.9,3.12-3.24.61-.15,1.28-.11,1.88.09l3.09,1.08v-3.33c-1.21-.37-2.47-.26-3.54.4l-1.87,1.14,2.11-2.57c-.65-1.09-1.54-2.12-2.65-1.38-.6.4-1.23.4-1.86.07-1-.53-2.48-.9-3.41-.33-1.1.66-1.03,1.52-2.51,1.19l-1.57-.35v-.96s2.02.57,2.02.57c.5-.44.92-.92,1.5-1.25,1.07-.62,2.42-.64,3.5-.06l1.23.66,1.48-.46-.38-1,1.09-.9.19.9-.15.38c.35-.2.54-.55.64-.95.36-1.44.14-3.53-.37-4.93-.15-.41-.42-.71-.81-.93l-.06,2.04c-.03.99-.2,1.99-.58,2.9l-.74,1.35c-.14-.03-.33-.13-.45-.24l.84-2.88c.15-.52.13-1.08.11-1.62l-.56,1.77c-.33,1.07-.96,2.61-2.04,2.59l-1.34-1.69c.59-.57,1.47-.27,1.84.4l.94-1.76.24-2.67c-.48.27-.86.53-1.25.85-.94.78-1.86,1.44-2.96,2.11l-.29-4.99-.66.19c-.07-.87.72-1.12,1-1.78-.01-1.31.55-2.93.46-3.84-.09-.96-.5-1.83-.6-2.78l-.34-3.46-.8-.66.8-.05c-.06-.51-.06-.91,0-1.37l.19-1.48c.1-.74.44-1.42.68-2.08,0,.31-.08.62.05.77.11.14.31.34.3.49l-.29,2.68.67.46-.76.7,1.15.04-1.28.62.73,5.14.96-.55c.03.42-.21.65-.4.96-.22.37-.37.86-.43,1.3l-.34,2.48.9-.57c.04.93-1.22,1.09-1.24,2.44l-.05,3.98c1.91-.82,3.71-2.54,5.29-3.38l2.27-1.19.26.33c.06.07.14.17.19.21.14.11.69-.34.86-.66.19-.36.36-.42.7-.56.46-.19.85-.64,1.28-.89l1.05-.62c.73-.43,1.39-.82,2.17-1.17,1.21-.55,2.27-1.3,3.3-2.14l3.59-2.92c.92-.75,1.82-1.31,3.02-1.79l-2.49-1.52-1.36.26c.16-.33.26-.42.5-.71-.16-.06-.56-.05-.68.07l-.59.55.26-1.15c-.63-.33-1.27-.41-1.93-.59l-2.66-.74c-.07-.02-.24-.12-.2-.17l.15-.19,2.04.43c-.77-.73-1.86-.25-2.55-.9l-1.2.49c-.13-.58.16-.91.51-1.44l-1.07.31.25-.71-1.21-.77c-1.01-.64-2.04-1.18-3.1-1.74l-2.58-1.36c.66-.08,1.21.17,1.79.43,1.89.84,3.62,1.92,5.39,3.01l1.42-.56-.68,1.21,1.09-.11-.23.74c.53.35,1.16.63,1.79.83,1.16.36,2.26.72,3.34,1.31l1.91-.27c.02.52-.63.45-.62.88l1.13-.45-.41.79,1.46,1.07c.55.41,1.31.58,1.99.72l4.39.9c-.16.98-.62,1.91-1.39,2.57l-1.61,1.2-.96.98c.42.63,1.01.96,1.45,1.49l.97,1.7c.62-1.57-.5-2.58-1.95-3.42.66-.16,1.37.02,1.88.52,1.04,1,.65,1.9.95,2.23.07.08.36.06.46,0l.84-.44c.43.55-.88,1.34-1.65,1.69-.21.1-.57.36-.57.61.13.95.84,1.68,1.69,2.05.33.14.56.39.78.68l.75.18c-.02.52.15.97.62,1.25.72.44,1.5.74,2.32,1.02l.34-.9.69.16c.08.47,0,1.02-.45,1.27s-1.35-.28-2.11-.2c.41.51,1.19.41,1.78.92-.48.61-1.6.43-2.41.12-.27-.11-.69-.27-.97-.16s-.33.58-.33.85c.03,1-.12,2.46-.85,2.85-.06.03-.21-.02-.24-.07-.04-.06-.09-.27-.06-.37l.52-1.58c.09-.29.09-.53.04-.84l-.22.15c.03.95-.42,1.7-1.02,2.37l-.73,1.01c-.13.18-.48.36-.66.24-.32-1.25,1.1-1.97,1.46-2.83.41-.97.37-2.2-.13-3.12-.25-.47-.59-.82-.93-1.22.31,1.17,1.25,1.95.91,3.2-.28,1-.8,1.97-1.57,2.65-.44.39-.95.52-1.54.44-.45-.06-.9-.39-1.17-.86-.16-.27-.39-.29-.65-.2l-1.38.42h-.07ZM94.23,59.28c.51-.28,1.11-.49,1.49-.93l.74-.85c.31-.35.77-.54,1.23-.38.31.11.61.48.41.82-.34.56-1.22.65-1.02,1.1.04.08.16.19.28.25.21.1.59-.01.76-.2l1.25-1.4c.52-.59.51-1.53.33-2.27-.15-.61-.41-1.12-.67-1.67-.15-.31-.38-.56-.71-.79.44-.21.72.19,1.03.38l.56.36,1.18,1c.79-.65,1.18.23,2.02.66l-.93-1.51c-.37-.59-.83-1.15-1.42-1.52-.63-.4-1.43-.38-2.08-.03l-1.67.89c.17-.95.8-1.59,1.23-2.43-.4.2-.72.45-1.03.75-.82.69-1.78,1.22-2.76,1.44-1.25-.56-2.27.71-3.54.59-.53-.05-1.01-.54-.89-1.06.17-.75,1.05-1.12,1.71-.76-.13.39-.66.08-.98.82.83.52,1.96-.43,2.5-1.28.41-.65.71-1.37.88-2.13s.52-1.38,1.17-1.85c.07.58-.21.94-.42,1.39-.74,1.59-.25,3.06-2.55,4.08.89-.16,1.6-.66,2.28-1.17l1.62-1.22c-.15.42-.37.62-.63.98l.8-.34-1.26,1.48c.71-.31,1.33-.72,1.81-1.27.31-.35.52-.71.96-.94.57-.31.9-.92.79-1.56-.05-.27-.13-.68-.32-.87l-1.47-1.49.42-.14-.64-.44c-.08-1.33,1.44-1.82,2-2.38.75-.74,1.34-1.6,2.03-2.43l-3.99-.16.25.39-2.19,1.26-1.73.85-2.47,1.58.78,1.6.69-1.24c.19-.34.37-.8.66-1.06.68-.59,2.29-1.75,2.99-1.43l-1.56,1.03c-.58.38-1.01.86-1.32,1.48-.48.97-1.04,1.2-.73,1.73.09.15.36.31.56.27.63-.14.59-1.36,1.21-1.86.88-.73,3.1-1.87,3.16-1.25,0,.1-.07.35-.17.38l-1.17.42c-.22.08-.5.24-.55.43l.32.32c.07.07-.04.35-.09.45-.77.85-1.73,1.51-2.84,1.85-.53,0-.86.36-.86.89v1.49c-.41-.25-.34-.61-.37-.98-.02-.32-.16-.62-.28-.93-.38-1.08-.06-1.68-1.06-2.73-.12-.12-.26-.28-.41-.38-.81.25-1.5.67-2.22,1.08l-2.21,1.29-.79.48c-.56.24-1.04.53-1.52.9-.57.45-1.15.81-1.78,1.18-.28.16-.49.47-.67.78l2.55,1.4-3.78.19-.43-1.58-.79.37.27.24c.49.44.33,1.72,1.27,2.21l3.49.29-1.23.55.49,2.62c.22,1.14.56,2.23.63,3.4l.39,6.78c.49.38,1.04.63,1.37,1.22l-4.43-1.62c-1.24-.45-2.41-.59-3.34.37-1.9,1.95-3.13,5.08-4.15,7.65l-.55,1.38c.9.14,1.69.47,2.4,1l1-.36c.98-.35,1.96-.26,2.9.16.44.05.97-.02,1.43-.06.13-.77.5-1.34,1.04-1.86,1.31-1.26,3.58-1.58,5.33-.98.4-.51.71-1.05,1.21-1.42.73-.55,1.66-.82,2.56-1,.72-.14,1.43,0,2.06.31l1.58.78c1,.49,2.25-1.04,4.56-1.13.17,0,.42-.13.49-.25s.14-.44.09-.6c-.47-1.42-1.11-2.72-1.77-4.05l-.99-2c-1.36-.08-2.7.8-3.87,1.52l-1.7,1.04c-.2.12-.51.15-.75.15l-.73,1.6c-.32-.59-.23-1.19,0-1.73l.86-2.02c.52-1.24,1.19-2.36,2.02-3.44l2.24-2.93h.12ZM80.69,52.31c.19-.25.04-.57-.08-.72-.17-.23-.42-.27-.69-.21,0,.45.31.94.77.93ZM76.34,52.59c.31-.12.53-.22.62-.49-.41.15-.69.45-.94.79l.23.87.09-1.17ZM80.06,62.6c.53-.06.9-.06,1.35.04l.93-.23-1.39-7.43-2.16-.4.49,1.51c.15.56.14,1.17-.05,1.74l-.92,2.78,1.75,1.99Z"/>
  <path d="M110.75,90.02c-.45.51-.89,1.03-1.55,1.02l-1.12-.02.21,1.03c.15.75.29,1.57.76,2.19l.47.62-6.42-.06,1.21-3.13v-9.39c-.06-.45-.07-.95-.34-1.29-.3-.38-.63-.69-.87-1.14l7.46-.03h3.41s1.39.16,1.39.16l-.7.92c-.5.38-1.05.67-1.41,1.17l-.82,1.1,4.68,10.41.7,1.28h-6.37s.39-1.26.39-1.26c.08-.25.02-.68-.05-.95l-.53-1.91c-.07-.26-.25-.53-.51-.72ZM109.93,81.23l-.67-1.09c-1.29,1.18-1.08,2.8-1.02,4.49.57-.82,1.94-3,1.69-3.4ZM106.88,82.65c0,.19.02.41.12.52.13.13.44.21.6.14l.1-1.19c.05-.61.36-1.17.58-1.75h-4.04c.35.6.54,1.04.61,1.64.26.05.65.13.92.09l1.2-.18.44.66-.53.08ZM111.32,85.06c-.39.09-.14.68-.4.74l-1.09.24,1.26,3.05,1.2,3.55c.75-.25,1.6-.21,2.29.22l.38.45-.49.05.73.48c.09.06.14.29.17.47h1.14s-1.15-2.08-1.15-2.08l-1.05-2.46c-.11.02-.13.06,0,.09l-.07.64-2.18.35c.17-.44.25-.68.33-1.08l1.84-.15-2.26-6.01c-.14-.37-.17-.64.11-.96l1.22-1.41c-.33-.12-.52.15-.65.41l-1.73.11.54-.33-.08-.31.6-.28-.38-.2.51-.26h-1.99c.14.3.42.61.42.92,0,.52-.25,1.04-.52,1.48l-2.36,3.85-.04-2.45-1.14-.2-.96.07c-.23.02-.36.05-.63.02l.04,6.95c0,.53.04,1.02-.12,1.52l-.55,1.72h2.18s1.88,0,1.88,0l-.52-1.87-.12-1.34-.38.03.08.58-2.19.45c.17-.43.2-.6.22-1.06l1-.11,1.21-.07.05-.75c.68.4,1.44.46,2.14.07.49-.55.66-1.18.23-1.68s-1.16-.23-1.46-.54c-.34-.36.47-1.33.96-1.93l-.7.11.33-1.09c.24-.19.81-.37,1.13-.29l1.02.26ZM113.65,80.89l.66-.52h-1.84c.36.46,1.01.02,1.18.52ZM105.65,83.24l-.25-.28s.08-.14.18-.21l-.66-.25v1.02s.74-.28.74-.28ZM112.95,93.69l.59-.24-.68-.14c0-.14-.1-.35-.2-.33-.15.03-.25.13-.27.25l-.15,1.07,2.04-.03c-.32-.16-.76-.27-1.1-.31-.07,0-.31.09-.3.03l.07-.29Z"/>
  <path d="M84.81,89.89c-.1-.51-.39-.88-.67-1.26-.51-.71-.89-.03-1.49-.58l.37-.29-1.21-.45v5.09c.02.58.26,1.17.61,1.58.25.29.48.52.64.89h-5.81c-.02-.22-.05-.51.02-.66l.52-1.08c.3-1.09.25-2.25.01-3.38-.69.36-1.53.3-1.99-.26-.75-.93-.54-2.18.31-2.96.52-.49,1.11-.77,1.81-1.1v-3.22c.01-.5-.17-.97-.46-1.35l-.74-.99h6.32s-.76,1.33-.76,1.33c-.26.46-.46.93-.49,1.46v2.04s3.11.61,3.11.61v-3.4c0-.41-.3-.82-.52-1.13-.26-.29-.47-.55-.66-.9h6.27s-.75,1.1-.75,1.1c-.28.41-.46.97-.46,1.51v9.7c0,.85.38,1.55.88,2.15.14.16.23.34.33.55h-6.27s.99-1.48.99-1.48c.35-1.12.33-2.31.11-3.48ZM87.95,91.81c-.31.01-.3.3-.94.41l-.93.17s-.19-.07-.23-.1c-.02-.02.04-.09.07-.11l.13-.07.27-.14s-.04-.2-.07-.28l.56-.3-.32-.15c.17-.15.57-.38.8-.35.33.17.57.28.95.27v-7.17s-.93-.31-.93-.31l-.54.12-.71-1.6c.14-.55,1.01-.45,1.6-.07l-.31.41.87.55c.1-.69.21-1.34.5-1.95l.29-.61c-.39-.37-.82-.2-1.25-.2l-2.89.02.48,1.07c.16.36.16.86.16,1.27l.04,2.42-.04,1.13-.36-.13c.11.25.23.38.46.6l-.8.15.19.08s.03.02.02.04l-.11.14.44.31c.07.05.31.02.33.1l.1.31.51.44-.87-.06-1.03-.13c1.1.99,1.11,2.05,1.14,3.37.02.99-.13,1.84-.69,2.79l3.18-.04.91-.07-.57-.93c-.23-.37,0-1.46-.41-1.45ZM78.5,86.77l.04,1.72c0,.28.05.44,0,.73-.13.66-.07,1.38-.02,2.06.85-.42,1.81-.33,2.74.11v-4.77s1.51.35,1.51.35l.9.45-.11-.27s.12-.15.13-.15l-.64-.28.28-.18-.5-.15c.56-.26,1.41-.03,2.33-.28-1.08-.86-2.5-.92-3.88-.88v-2.2c-.01-.95.22-1.78.67-2.65h-4.03s.4.65.4.65c.99-.03,2.33-.11,2.49.63-.04.09-.28.08-.48.06l.82.69c.09.09.03.45-.08.51l-2.05-.53c-.08.05-.24.12-.24.07l-.02-.29.49-.3-.59-.12c.02-.09.07-.22.02-.24l-.17-.07s-.12.11-.13.15l.14,2.95c.42,1.88-1.47,1.61-2.41,3.02-.31.47-.36,1.22.14,1.58.41.3,1.06.06,1.38-.28.19-.2.2-.49.11-.72s-.31-.3-.65-.38l.96-.55c.15-.09.3-.25.47-.42ZM79.85,92.5c-.11.01-.3.1-.32.03l-.08-.29.55-.31-.62-.11.04-.29h-.92s-.19,1.78-.19,1.78l-.41.98h4.02c-.29-.51-.42-.88-.59-1.37-.32-.31-1.01-.49-1.47-.43Z"/>
  <path d="M61.59,87.05c.59,1.61.6,3.3.21,4.89l-.37,1.54c-.19.78-.88,1.26-1.68,1.3l-2.73.16-4.89-.05-2.34-.06.79-.99c.33-.42.49-1.05.49-1.62v-9.99c0-.41-.11-.96-.34-1.24l-.92-1.15h10.99s0,5.43,0,5.43c-.68-.43-1.09-.95-1.53-1.47-.26-.25-.49-.28-.81-.29l-1.82-.02h-1.66s0,2.21,0,2.21l1.21-.48c.85-.33,1.74-.29,2.65-.18,1.17.14,2.3.81,2.73,1.99ZM54.92,93.58h-.49s-.03-.21-.04-.28.16-.15.24-.18l1.13-.44c.56-.22,1.16-.08,1.71.29l-.97.17.06.32-.7.13.47.21c.07.03.19.15.19.23,0,.06-.08.21-.14.19l-.27-.08c-.2-.06-.58.08-.77.22l1.08.08,2.02-.08c1.28-.05,1.97,0,2.53-1.26.44-1.04.55-2.12.43-3.26.04-.11-.26-.38-.34-.29l-.52.67c.05-.43-.85-.54-1.4-.24.11-.37.15-.68.17-.98.23-.4.88-.4,1.29-.33l.77.13c.18-1.47-.7-2.79-2.16-3.13-.98-.23-1.94-.15-2.91.11l-1.86,1.19.02-4.07,4.31.05c-.02-.39-.57-.34-.92-.91.5-.08.79-.14,1.11-.44l.85.26-.32.19c.34.07.47.21.72.55v-2.23s-9.21,0-9.21,0l.58,1.45.2-.13s-.18-.52.11-.68c.23-.13.63-.29.86-.24l1.34.24c-.35.16-.37.42-.35.78l-2.1.39.04,7.15c-.04.08.28.06.28-.01v-.27c.44-.05.77-.44.98-.82l-.83.03.36-.74,1.22.06.97-.05.17.02s.02.14-.01.16l-.15.06-.13.05s-.01.03,0,.05l.14.14-.63.29c.05.05.16.15.13.2l-.16.28,1.13.5-.5.34c.34.35.86.46,1.32.32.38-.12.69-.46.84-.89.25-.69-.03-1.5-.81-1.67-.2-.04-.58.08-.83.13.04-1.03,1.66-1.22,2.6-.67.43.25.66.75.7,1.26.1,1.01.06,2.04.02,3.06-.02.59-.43.89-.99.88l-3.12-.11v-2.33c-.7-.09-1.36-.04-2.04.15l-.71.19-.03,2.26c0,.71-.41,1.34-.62,2.12l3.01.03.92-.73ZM60.2,83.9v-.84s-1.24-.14-1.24-.14c.6.23.85.4,1.24.97ZM57.89,91.36c.32-1.68.58-4.59-1.3-4.34.28.37.59.62.75.99.29.67.07,1.44-.4,1.93-.5.52-1.22.7-1.95.5l-.02.99,2.92-.07Z"/>
  <path d="M124.99,94.84l-6.49.02.65-1.35.8-2.22.59-1.84c.03-.09-.01-.31-.06-.37-.83.13-1.78-.14-2.19-.91-.55-1.05.23-2.45,1.53-2.91.54-.19,1.1-.11,1.66-.07l.37-1.6c.23-.99,0-1.92-.56-2.75l-.66-.99h7.18s.31,2.81.31,2.81c.53,3.24,1.2,6.4,2.07,9.57.23.83.6,1.48,1.32,1.95.26.17.5.39.67.68h-7.03s.94-1.57.94-1.57c.24-.61-.1-1.33-.21-1.93-.31.22-.6.35-.94.22l-.97-.36-.24,1.95c-.04.32.01.59.3.75.32.28.6.43.95.92ZM123.18,92.37l.41-2.07c.74.47,1.49.84,2.23.42.12-.06.3-.12.38-.07.37.21.54,1.67.45,2.04l-.41,1.58h3.54s.87,0,.87,0c-.24-.32-.45-.56-.57-.86l-.39-.94c-.09.22-.17.29-.35.32l-1.91.32.29-1.06,1.83-.18-1.34-6.04c-.78.61-1.39.59-2.42.55l.5-.34-.05-.27.57-.3-.35-.22.83-.29.79.26-.8-4.86h-5.45c.46.87.75,1.66.69,2.58l-.67,2.91c-.5-.07-.94-.17-1.42-.14-.71.05-1.33.53-1.63,1.15-.32.65-.05,1.42.62,1.68.35.14.73.02.98-.18.28-.23.42-.56.39-.94-.04-.46-.36-.71-.86-.71,0-.14.14-.34.26-.39.11-.04.41-.04.5.04l.58.48.94.06,1.26-.18c.07.31.22.5.42.68-.28.09-.49.17-.69.4l.88.41c.01.09.04.3.1.36l.42.37c-.32.13-.58.1-.87.01-.54-.17-1.03-.11-1.59-.1l-.83.02-.79,3.57c1.04-.05,2.01-.05,2.47.8l-.5-.03.62.5.06-1.34ZM122.08,88.1c-.19-.25-.23-.32-.18-.57l-.37-.04-.13.85.68-.24ZM121.05,93.95s-.15-.3-.09-.33l.61-.29-.7-.1.06-.25c-.27-.15-.62-.07-.79.22l-.66,1.08,3.19-.03-.79-.36c-.25-.11-.51-.07-.81.05Z"/>
  <path d="M69.75,94.85h-7.09s.9-.83.9-.83c.63-.58,1.03-1.26,1.23-2.1l.47-1.95c.08-.34.12-.67.08-1.02-.56.44-1.05.44-1.56.12-.71-.45-1.09-1.26-.84-2.11.41-1.37,1.76-2.09,3.24-1.75l.44-3.09c.12-.81-.87-1.52-.95-2.26l6.88-.02.11,2.04,2.01,9.09c.18.79.35,1.51.65,2.26.23.57,1.05.88.75,1.63h-6.14c.26-.56.68-.97.89-1.52.21-.57-.04-1.25-.15-1.81l-2-.25-.21,2.28.82.77c.16.15.3.28.48.52ZM67.96,92.63c.03-.79.1-2.23.4-2.26.35-.03,1.17.81,2.45.2l.6,1.99c.18.59-.17,1.11-.44,1.73h4.44s-.64-1-.64-1l-.36-.9-.15.34c-.02.06-.2.07-.27.08l-1.85.3.35-1.07,1.77-.18-1.29-6.01-.9.47c-.67.02-1.69.31-1.5.06.04-.05.11-.11.18-.16l.25-.17s0-.18-.03-.27l.53-.3-.28-.17.72-.38.85.28-.8-4.86h-5.44s.56,1.29.56,1.29c.19,1.42,0,2.85-.51,4.2l-1.4-.13c-.94.03-1.78.83-1.81,1.74-.02.63.5,1.09,1,1.11.57.02,1.04-.34,1.11-.94.03-.22-.03-.53-.19-.68-.16-.15-.36-.2-.69-.27.02-.06.1-.25.15-.32.16-.24.76-.02,1.16.45.74.1,1.54.05,2.24-.09.09.27.17.38.39.65l-.46.06-.12.39.81.35-.02.3.53.44-1.56-.13c-.75-.06-1.24.18-1.72.07l-.82,3.61,1.36.03c.29,0,.77.24,1.04.34.09.03.14.39.05.38l-.43-.02.68.52.04-1.1ZM66.79,88.07c-.13-.17-.22-.27-.19-.31l.12-.17-.46-.17-.15.93.69-.28ZM66.09,93.51l.2-.16-.7-.12.06-.25s-.58-.2-.81.27c-.17.36-.38.65-.66,1.03l3.21-.02c-.26-.17-.42-.31-.48-.59l-.82-.16Z"/>
  <path d="M102.96,87.77v4.99c0,.98-.72,1.71-1.61,1.95-.76.2-1.5.23-2.3.22l-7.9-.09.4-.62c.39-.61.83-1.19.83-1.98v-9.96c0-.34-.1-.84-.27-1.08l-.98-1.36h6.38s-1.25,2.38-1.25,2.38c-.08.76-.09,1.47-.05,2.25l-.1,1.04c0,.06.06.26.11.23l.21-.13c1.83-1.14,4.28-1.14,5.81.36.44.43.72,1.14.72,1.8ZM94.79,81.97l.06.33c.06.34.58.24.9.52l.61-2.44h-4.1s.53.94.53.94c.78.09,1.48.01,2.2-.11.15.36.53.69.3.71l-.51.05ZM93.38,82.23l.14-.17-.68-.2.09.95.67-.24-.23-.34ZM93.18,94.39l1.86-.07,1.39.03h3.38s1.39-.18,1.39-.18c.57-.08,1.01-.57,1.13-1.13s.12-1.11.14-1.68l.04-1.56c.04-1.67.02-3.62-1.76-4.06-1-.25-2.04-.21-3.05.02-.81.19-1.4.61-1.97,1.26v-3.45c-.62-.32-1.29-.32-1.97-.24l-.83.1v4.93c.18-.18.2-.49.28-.74.14-.49,1.51-.38,2.32-.16-.17.09-.27.14-.29.21l-.16.6-1.69.32.13.53-.25-.07s0,.1,0,.13l.04.17-.45-.17-.02,3.53c0,.5-.25.93-.44,1.39.1.26.49.33.8.32Z"/>
  <path d="M73.5,31.66l.81,2.07-1.41-1.19.68,1.52c-1.31,0-1.77-1.63-1.77-2.86l.56.41.54-.41.14.6.45-.13Z"/>
  <path d="M74.94,44.67c-.85-.19-.56-1.34-.18-2.21.11-.26.41-.35.66-.25l-.48,2.46Z"/>
  <path d="M78.26,35.7c.3.22.54.47.51.87-.86-.08-1.68-.55-1.96-1.44.55.12.99.32,1.45.57Z"/>
  <path d="M77.16,31.61c-.69-.37-.64-1.63-.57-2.55l.51.45c.11.69.18,1.31.07,2.1Z"/>
  <path d="M82.22,37.89c-.21.2-.4.27-.65.3-.09-.17-.29-.55-.24-.74.13-.55.38-1.12.59-1.6.04-.1.3-.17.38-.15l-.53,1.83.45.35Z"/>
  <path d="M81.15,44.88c-.74-.42-1.67-1.08-1.11-1.49l.97.64c.22.21.35.44.14.84Z"/>
  <path d="M88.51,41.2c-.7.09-1.44-.39-1.43-1.22.67.06,1.12.54,1.43,1.22Z"/>
  <path d="M82.98,37.89c-.44-.13-.62-.62-.41-1.03.16-.32.44-.53.84-.57l-.43,1.6Z"/>
  <path d="M79.07,45.01c-.21.11-.49.04-.63-.11-.3-.3-.38-1.26.12-1.33l.51,1.44Z"/>
  <path d="M76.22,45.33c-.34-.07-.72-.41-.64-.83l.15-.72c.5.33.2.85.49,1.55Z"/>
  <path d="M84.74,54.25l-.39-1.11c-.09-.25-.12-.55-.11-.84.57.09.67.55.81,1,.13.4.15.77-.3.96Z"/>
  <path d="M97.67,42.5c-.4.13-.9.04-1.36-.08.26-.24.57-.4.92-.46.27-.04.56.2.44.54Z"/>
  <path d="M96.29,45.84c-.14.55-.55,1.26-.93,1.11.13-.51.34-.94.93-1.11Z"/>
  <path d="M125.04,89.09l-.95-1.29c-.11-.15-.05-.56,0-.77l.71-3.89,1.24,6.28c-.34.12-.74.01-.99-.33ZM125.3,88.44l-.44-2.34c-.27,1.02-.42,1.6.44,2.34Z"/>
  <path d="M123.96,82.34c-.13-.04-.38.1-.57.17l-.09-.4.45-.27-.54-.12v-.32s-.92.02-.92.02c.28-.45.66-.42,1.03-.48.61-.11,1.15.07,1.71.33l.28.13c.07.03.05.26,0,.34l-.46-.05.65.55c.1.08.21.17.26.25.06.08-.07.37-.16.42l-1.66-.56Z"/>
  <path d="M69.73,89.04l-.85-1.14c-.07-.1-.11-.35-.13-.48l.74-4.28,1.27,6.27c-.36.13-.77-.01-1.03-.37ZM70.03,88.44l-.42-2.28c-.33,1-.43,1.57.42,2.28Z"/>
  <path d="M68.59,82.31l-.46.19c-.05-.02-.13-.34-.05-.39l.38-.26-.54-.13.08-.34-1,.03c.32-.55,1.59-.6,2.16-.38l.8.31c.07.03.15.24.11.3-.04.08-.16.09-.4.12l.61.5c.1.08.2.18.23.27.03.1-.12.38-.22.34l-1.7-.56Z"/>
  <path d="M100.36,92.75l.78.35v.31s.58.3.58.3c-.29.67-.96-.25-2.52.08-.45.1-.84.11-1.21-.26.13-.1.29-.22.39-.26l.74-.28-.2-.24s0-.14.11-.26l-.6-.26.16-.2-2.89-.11v-2.46c.65.56,1.45.73,2.06.15.46-.44.47-1.22.13-1.71-.52-.75-1.36-.05-1.48-.46-.16-.58,1.11-1.24,2.14-.9.64.15,1.09.65,1.01,1.33l.07.19s.14,0,.13-.04l-.04-.23c-.02-.15.23-.33.46-.42l-.3-.12.57-.25c.24-.1.34-.02.57.11.21.12.58.13.9.16l-.04.41-.82.23-.08.3-1.19.2-.02,2.48c0,.25-.14.58-.22.85l.93-.08c.1.31.19.4.45.68l-.59.1v.32ZM99.11,91.41c.1-.31.18-.55.18-.8l-.02-2.27c0-.9-.91-1.59-1.78-1.3.52.2.94.51,1.13.9.26.53.12,1.02-.09,1.52-.37.88-1.31,1.27-2.27,1v.98s2.86-.02,2.86-.02Z"/>
  <path d="M94.68,94.04l-1.53.08.6-.32c-.03-.11-.07-.26-.04-.32s.15-.15.21-.19l.13-.09s-.08-.1-.16-.17l.84-.36c.4.57,1.14.24,1.14.39l-.02.41-.84.25c-.05.19-.18.31-.33.32Z"/>
</svg>