<?xml version="1.0" encoding="UTF-8"?>
<svg id="_Шар_1" data-name="Шар_1" xmlns="http://www.w3.org/2000/svg" version="1.1" viewBox="0 0 182 124">
  <!-- Generator: Adobe Illustrator 30.4.0, SVG Export Plug-In . SVG Version: 2.1.4 Build 226)  -->
  <defs>
    <style>
      .st0 {
        fill: #f5ee31;
      }

      .st1 {
        fill: #f7941e;
      }

      .st2 {
        fill: #ef4036;
      }

      .st3 {
        fill: #322f31;
      }
    </style>
  </defs>
  <path class="st3" d="M42.78,80.45c-4.6,0-12.43-1.51-16.01-11.42-2.37-6.54-.83-13.37,3.89-18.2l4.42,4.34c-1.96,2.04-2.82,4.54-3,7.29-.42,6.3,4.27,11.33,10.42,11.66s11.26-4.57,11.35-10.82c.05-3.08-.99-5.91-3.11-8.09l4.45-4.33c2.95,2.9,4.58,6.58,4.94,10.74,1.37,15.72-12.33,18.84-17.35,18.84Z"/>
  <polygon class="st3" points="180 46.56 180 52.77 168.41 52.77 168.41 58.58 180 58.58 180 64.8 168.41 64.8 168.41 73.12 180 73.12 180 79.34 162.12 79.34 162.12 46.56 180 46.56"/>
  <polygon class="st3" points="91.52 79.34 85.45 79.33 71.25 58.09 71.25 79.34 64.96 79.34 64.96 46.56 71 46.56 85.24 68 85.24 46.56 91.52 46.57 91.52 79.34"/>
  <path class="st3" d="M16.87,61.22c1.6,1.06,3.02,1.83,4.02,3.21,2.12,2.92,2.19,6.83.41,10.03-1.61,2.89-4.79,4.88-8.48,4.88H2v-32.78h5.79c3.91,0,7.65.44,10.16,3.05,3.25,3.39,2.93,8.72-1.07,11.61ZM13.96,56.46c.2-1.42-.34-2.96-1.87-3.51-1.19-.43-2.39-.43-3.81-.42v6.93c3.01.1,5.3-.37,5.67-3ZM16.32,69.49c-.25-4.17-3.88-4.56-8.04-4.51v8.48c4.12.03,7.98.01,8.04-3.97Z"/>
  <path class="st3" d="M156.98,79.34h-6.87l-8.09-14.54v14.54h-6.28v-32.78h11.11c5.02,0,8.39,4.07,8.61,8.99.19,4.19-1.83,7.93-6.28,9.26l7.8,14.54ZM147.8,58.79c1.53-.62,1.68-2.46,1.38-3.66-.33-1.34-1.61-2.31-3.14-2.36h-4.02s0,6.57,0,6.57c1.97,0,3.98.18,5.77-.55Z"/>
  <polygon class="st3" points="115.65 58.58 115.65 64.8 105.46 64.8 105.46 79.34 99.18 79.34 99.18 46.56 115.65 46.56 115.65 52.77 105.46 52.77 105.46 58.58 115.65 58.58"/>
  <polygon class="st3" points="121.96 46.56 128.23 46.56 128.23 79.34 121.95 79.34 121.96 46.56"/>
  <path class="st1" d="M43.83,71.88c2.58-4.26,3.62-9.34,1.08-13.67-2.98-5.08-5.78-9.1-2.15-14.65.7,2.54,1.74,4.52,3.09,6.56,1.99,3,3.79,6.02,5,9.37,1.14,3.34.43,6.67-2.13,9.05-1.43,1.31-2.95,2.41-4.88,3.35Z"/>
  <path class="st2" d="M44.71,62.97c.53,3.23.07,6.34-1.97,8.97-.49-3.08-1.48-6-3.14-8.73-2.29-3.77-3.01-8.25-1-12.22,2.01,4.31,5.12,7.44,6.11,11.98Z"/>
  <path class="st0" d="M41.47,71.95c-3.39-2.1-6.13-4.05-6.7-8.03-.37-2.61.62-5.31.62-5.31.95,1.79,1.61,3.34,2.65,4.84,1.78,2.57,3.19,5.15,3.43,8.5Z"/>
</svg>