<?xml version="1.0" encoding="UTF-8"?>
<svg id="_Шар_1" data-name="Шар_1" xmlns="http://www.w3.org/2000/svg" version="1.1" viewBox="0 0 182 124">
  <!-- Generator: Adobe Illustrator 30.5.1, SVG Export Plug-In . SVG Version: 2.1.4 Build 3)  -->
  <defs>
    <style>
      .st0 {
        fill-rule: evenodd;
      }

      .st0, .st1 {
        fill: #ca2627;
      }
    </style>
  </defs>
  <path class="st0" d="M156.26,46.64c-12.77,0-12.15,0-24.92,0,.92-1.8,7.31-1.27,5.93-2.96-11.05-14.63-41.42-13.83-54.64.07-1.66,1.56,6.17,1.06,6.48,2.89h-19.67c.09-1.28,4.5-1.65,6.79-2.72,1.2-.56,2.07-1.21,3.04-2.02.63.38.69.6,1.31.98,10.7-9.47,22.38-13.9,33.65-13.82h.2c12.05.14,23.63,5.45,33.03,15.31,2.02,1.27,6.4.48,8.81,2.27Z"/>
  <path class="st0" d="M155.51,75.6c-1.08,1.61-6.82.63-8.71,3.09-21.71,21.11-48.76,22.07-68.79.38-1.71-1.85-2.76-2.49-3.67-2.83-1.98-.73-2.09.41-2.51-1.02h20.98c-.11,1.75-9.38.63-6.7,3.14,12.2,15.29,42.2,17.57,57.18.59-.74-.75-2.1-1.65-3.93-1.81-5.96-.52-6.53-.63-7.36-1.51l23.52-.03Z"/>
  <path class="st0" d="M103.06,39.25c1.05-.9,2.69-1.32,3.98-1.45,1.21-.1,2.47.45,3.5,1.24,1.84-1.56,4.53-1.26,6.64-.4.43.18,1.34.59.7.79-2.97-.16-5.83,1.61-7.27,1.56-1.23-.23-3.56-2.18-5.82-1.46-.53.13-2.32.53-1.73-.28Z"/>
  <path class="st0" d="M39.22,47.58c-.22-.32-.65-.45-.94-.29-.29.16-.35.55-.13.87.23.32.65.45.95.29.29-.16.35-.54.12-.87Z"/>
  <path class="st0" d="M37.37,49.49l-.75,1.43,3.53-1.15-2.79-.28Z"/>
  <path class="st0" d="M39.59,54.41c-.18-.22-1.04-.84-1.81-.64-.04.02-.18.08-.18.08-.3,0-.59.16-.72.23,0,.09-.12.25-.04.37l.16.07c.35.1,2.14.34,2.24.36.19,0,.31-.17.38-.32.04-.06.03-.09-.04-.16Z"/>
  <path class="st0" d="M44.05,54.03c-.07-.1-.52-.29-.72-.32-.26-.04-1.56,0-1.71.36,0,.19.08.27.08.28.78,0,1.5.43,2.32.43.09.02.14-.03.14-.07,0-.12-.02-.6-.11-.67Z"/>
  <path class="st0" d="M27.52,68.51l-1.79,1.81,3.41-.05c1.43-.75,2.61-.91,4.42-1.08-2.18-.57-3.83-.81-6.04-.68Z"/>
  <path class="st0" d="M69.37,51.24h7.06l-.58,2.4c1.64-1.86,3.76-2.76,6.58-2.76,1.58,0,3.02.44,4,1.19l-3.54,6.42c-.83-.47-2.14-.79-3.43-.79-2.31,0-4.31,1.46-5.39,3.32l-2.65,10.89h-7.06l4.99-20.68ZM53.67,54.56l1.03-4.61h1.07c1.02.02,2.28,1.15,1.97,2.53l-.1.38c-.15.65-1,1.72-2.27,1.72-.73,0-.9-.02-1.7-.02ZM56.91,62.89c-.29,1.27-.75,2.46-1.5,2.93-1.44.93-2.77.8-4.38.8l1.52-6.88c1.38,0,2.97-.29,4.02.67.5.45.61,1.28.34,2.49ZM59.51,45.35h-18.59c-.32,0-2.06.2-2.27.48.57.41,3.43.08,3.49.59-.17.08-1.93.74-1.89,1.33.03.54,3.65,0,3.7.41.35.29.45,1.57.42,1.98.06.64-6.58.94-6.26,1.79.45,1.2,4.3.67,5.7.64-.5,1.02-.02.98.38.95.26.52.94-.07.92,1.17-1.73.65-2.04,1.93-3.45,2.93-2.01.5-4.59-1.04-6.73,1.65-.13.85,2.73-.49,4.74.39,1.39-.27,1.43-.21,2.15-.62,1.23.68-1.46.52,2.34,2.18-.03.47-1.91.5-1.42,1.37,4.4.93.79,2.06-.92,1.89-3.13,2.48-5.25-.29-5.81,1.28-.23.81,3.52.61,4.75,1.1.36.17.68.24-.1.48-3.28.68-1.79,1.59-1.71,2.52-.55-.08-2.34.04-4.46-.07,5.05,1.67-1.57,1.2-3.37,1.1l.93,1.28h20.79c5.9,0,9.86-1.69,11.28-7,1.09-4.07.87-7.02-1.54-8.98,1.16-.89,2.04-2.13,2.47-3.58l.07-.22c1.05-3.52-1.74-7.01-5.59-7.01ZM29.39,62.81c-.36.05-.62-.02-.98.03-.03.91,6.04,1.54,5.97.69.8-1.65-3.39-1.95-4.99-.72ZM39.4,61.2c-.17-.04-.25-.05-.5,0-.16.07-.73.93-.7,1.22,0,.15.9.08,1.34-.04.55-.34,2.07-.8,1.99-.95-.03-.13-1.43-.17-2.14-.24ZM32.85,65.48c-.18-.04-.28-.06-.55,0-.19.08-.61.96-.59,1.29,0,.17,1.03.33,1.51.2.64-.37,1.97-1,1.89-1.17-.04-.16-1.47-.21-2.26-.31ZM34.9,59.92c-.18-.03-.28-.05-.55,0-.18.09-.83,1.06-.8,1.39,0,.17,1.03.09,1.51-.05.28-.21,2.22-.84,2.25-1.07-.04-.15-1.61-.18-2.42-.28ZM40.95,56.23c-.08-.1-.52-.29-.72-.32-.27-.04-1.57,0-1.72.36,0,.19.08.27.08.28.79,0,1.5.43,2.32.43.09.02.14-.03.15-.07,0-.12-.03-.6-.11-.67ZM40.58,64.48c-.18-.21-1.04-.84-1.81-.63-.04,0-.18.07-.18.07-.3,0-.59.16-.72.23,0,.09-.12.25-.04.37l.17.07c.34.1,2.13.34,2.23.36.19,0,.31-.17.38-.31.04-.06.03-.1-.04-.17ZM92.23,66.42c-1.6,0-1.39-2.43-.97-4.67.31-1.64.95-3.95,2.38-4.05,1.51-.11,1.44,2.13,1.15,4.28-.14,1.01-1.21,4.44-2.56,4.44ZM97.62,51.25l-.46,2.04c-1.7-1.75-2.55-2.36-4.19-2.36-3.61,0-7.5,3.84-8.65,9.66-.82,4.15-1.51,12.19,3.45,12.18,2.46,0,3.72-.54,5.59-2.57l-.44,1.94h7.35l4.7-20.89h-7.35ZM139.21,62.23c-.45,2.23-1.7,4.46-2.8,4.46s-1.63-2.24-1.19-4.46c.45-2.23,1.7-4.45,2.8-4.45s1.63,2.23,1.19,4.45ZM138.54,50.7c-5.47,0-10.5,4.96-11.18,11.04-.69,6.07,3.21,11.04,8.68,11.04s10.5-4.96,11.19-11.04c.69-6.08-3.2-11.04-8.68-11.04Z"/>
  <path class="st1" d="M129.97,51.27l-12.88,20.89h-8.22l-3.01-20.89h7.17l1.24,14.82,8.33-14.82h7.38Z"/>
</svg>