<?xml version="1.0" encoding="UTF-8"?>
<svg id="_Шар_1" data-name="Шар_1" xmlns="http://www.w3.org/2000/svg" version="1.1" viewBox="0 0 182 124">
  <!-- Generator: Adobe Illustrator 30.5.1, SVG Export Plug-In . SVG Version: 2.1.4 Build 3)  -->
  <defs>
    <style>
      .st0 {
        fill: #a8c70a;
      }

      .st1 {
        fill: #282828;
      }

      .st2 {
        fill: #f57a1d;
      }
    </style>
  </defs>
  <g>
    <path class="st1" d="M133.36,82.05c7.64,0,13.84-6.19,13.84-13.84s-6.19-13.84-13.84-13.84-13.84,6.19-13.84,13.84,6.19,13.84,13.84,13.84ZM133.34,61.28c4.05-.11,6.29,3.55,6.29,6.93,0,4.31-2.43,6.96-6.29,6.96-2.83,0-6.41-1.27-6.33-6.93.07-5.19,3.55-6.89,6.33-6.96Z"/>
    <path class="st1" d="M58.05,77.83h8.89l1.32,3.78h7.79l-9.97-26.73h-7.32l-9.55,26.73h7.77l1.06-3.78ZM62.59,63.75l2.4,7.43-5.1-.08,2.7-7.36Z"/>
    <path class="st2" d="M175.74,94.94c-2.37,0-62.32-5.14-83.19-5.14-34.29,0-83.45,5.27-86.29,5.14,0,0,40.81-10.44,86.02-10.44,20.62,0,43.07,2.93,59.76,5.76,2.18.36,4.28.74,6.25,1.09,8.31,1.52,14.54,2.88,17.45,3.59Z"/>
    <path class="st1" d="M34.29,81.27c5.39,2.07,11.29,1.09,14.83-3.86l-3.29-5.24c-2.78,2.58-5.62,4.1-9.05,2.15-2.44-1.39-3.26-4.55-3.05-7.05.17-1.99,1.52-4.81,3.74-5.62,3.2-1.17,5.59.21,8.5,2.61l3.22-5.74c-4.29-4.42-10.12-5.52-15.35-3.17-4.68,2.1-7.47,7.29-7.5,12.84-.03,5.82,2.92,11.14,7.95,13.07Z"/>
    <polygon class="st1" points="96.66 75.33 85.58 75.33 85.58 54.88 77.97 54.89 77.97 81.62 96.66 81.62 96.66 75.33"/>
    <path class="st1" d="M117.18,81.62l1.03-6.29h-10.76c-.63,0-.7-.75-.7-1.25v-2.27c0-.39.32-.7.7-.7l8.96.07.56-6.39-9.6.02c-.48,0-.62-.4-.62-.67v-2.59c0-.51.38-.56.69-.56l10.38.03-1.03-6.12h-10.04s-7.62-.01-7.62-.01v26.74h18.05Z"/>
  </g>
  <path class="st0" d="M170.76,51.75l-12.47-4.38v43.97c-1.96-.35-4.06-.73-6.25-1.09v-45.07l-24.26-8.51-42.98,15.08,42.98-22.69,24.26,12.81v-7.24h6.25v10.54l12.47,6.58Z"/>
</svg>