<?xml version="1.0" encoding="UTF-8"?>
<svg id="_Шар_1" data-name="Шар_1" xmlns="http://www.w3.org/2000/svg" version="1.1" viewBox="0 0 182 124">
  <!-- Generator: Adobe Illustrator 30.5.1, SVG Export Plug-In . SVG Version: 2.1.4 Build 3)  -->
  <path d="M15.29,42.44c-2.84.37-5.82,1-8.32,1.74l-2.29.66-.55,1.9c-1.45,4.92-2.13,9.9-2.13,15.33,0,5.82.63,10.48,2.13,15.54l.55,1.9,1.95.58c5.37,1.58,6.48,1.71,15.38,1.71s10.01-.13,15.38-1.71l1.95-.58.82-2.95c1.45-5.29,1.71-7.56,1.71-14.51,0-5.4-.08-6.77-.58-9.35-.45-2.5-1.76-7.58-1.97-7.82-.24-.21-5.29-1.5-7.66-1.95-3.34-.63-13.11-.92-16.35-.47ZM28.88,45.41c3.32.45,7.4,1.37,7.95,1.82.21.18.66,1.42.97,2.79,1.69,7.37,1.76,15.96.21,23.2-.87,4.13-.76,4-3.79,4.71-7.48,1.71-15.98,1.82-23.28.24-4.11-.87-4-.79-4.69-3.66-1.82-7.53-1.82-16.83-.05-24.38.32-1.32.71-2.58.87-2.79.47-.58,5-1.61,9.53-2.13,2.16-.24,9.8-.11,12.27.21Z"/>
  <path d="M18.32,52.29v3.82h7.37v-7.64h-7.37v3.82Z"/>
  <path d="M12.16,58.74c-2.26.16-3.48.37-3.63.58-.11.18-.18,1.58-.16,3.11l.08,2.76,4.4.08c5.79.08,5.48-.26,5.48,6v4.58h7.37v-4.58c0-4.21.05-4.61.55-5.27l.53-.68h8.66v-6.27l-1.5-.16c-2.74-.26-18.3-.39-21.78-.16Z"/>
  <path d="M53.34,55.71v1.18h4.42c3.08,0,4.53.11,4.74.32.24.24.32,2,.32,6.32v6h5v-5.9c0-5.03.05-5.98.42-6.32.34-.34,1.16-.42,4.74-.42h4.32v-2.37h-23.96v1.18Z"/>
  <path d="M82.31,54.81c-2,.79-2.48,2.48-2.32,8.11.11,4.19.32,4.98,1.61,5.92.71.53,1.08.55,9.95.63l9.19.08v-2.92h-7.58c-5.56,0-7.66-.08-7.9-.32-.18-.18-.32-1-.32-1.84v-1.53h10.27v-2.37h-10.27v-1.42c0-2.32-.21-2.26,7.53-2.26h6.69v-2.37l-8.08.03c-4.74,0-8.37.11-8.77.26Z"/>
  <path d="M104.43,62.03v7.5h4.74v-2.32c0-1.26.13-2.48.26-2.69.18-.32,1.03-.42,4.13-.47,5.48-.13,5.64-.05,7.32,3.03l1.32,2.45h2.19c1.18,0,2.16-.08,2.16-.16,0-.29-2.16-4.16-2.84-5.08-.63-.84-.63-.9-.18-1.16,2.42-1.34,2.9-4.85.95-6.79-1.66-1.66-2.63-1.82-11.93-1.82h-8.11v7.5ZM120.49,57.42c.39.39.53.87.53,1.97s-.13,1.58-.53,1.97c-.5.5-.87.53-5.92.53h-5.4v-5h5.4c5.06,0,5.42.03,5.92.53Z"/>
  <path d="M159.62,54.87c-1.29.39-2.03,1.37-2.29,3-.11.68-.21,3.61-.21,6.45l-.03,5.21h5v-4.74h13.17v4.74h1c.53,0,1.61.08,2.37.16l1.37.18v-6.24c0-6.98-.13-7.69-1.63-8.51-.79-.42-1.71-.47-9.3-.53-5.95-.03-8.72.05-9.45.26ZM174.9,57.53c.24.34.37,1.24.37,2.71v2.19h-13.17v-2.34c0-3.34-.26-3.24,6.79-3.13,5.21.08,5.66.11,6,.58Z"/>
  <path d="M129.71,62.16v7.37h4.48v-5.11c0-3.13.11-5.19.26-5.29.21-.13,4.08,2.45,7,4.63.16.13,1.71-.82,3.74-2.29,1.9-1.37,3.58-2.45,3.74-2.34s.26,2.11.26,5.29v5.11h4.48v-14.75h-4l-3.74,2.69c-2.03,1.45-3.84,2.76-3.98,2.87-.16.11-2.03-1.08-4.21-2.66l-3.95-2.87-2.03-.03h-2.05v7.37Z"/>
</svg>