<?xml version="1.0" encoding="UTF-8"?>
<svg id="_Шар_1" data-name="Шар_1" xmlns="http://www.w3.org/2000/svg" version="1.1" viewBox="0 0 182 124">
  <!-- Generator: Adobe Illustrator 29.0.0, SVG Export Plug-In . SVG Version: 2.1.0 Build 186)  -->
  <defs>
    <style>
      .st0 {
        fill: #168767;
      }

      .st1 {
        fill: #1d447e;
      }
    </style>
  </defs>
  <g id="Layer_1">
    <g>
      <path class="st0" d="M2,59.75c0-5.04,3.74-8.48,8.4-8.48,3.22,0,5.23,1.55,6.5,3.46l-2.09,1.11c-.86-1.38-2.48-2.39-4.42-2.39-3.32,0-5.87,2.6-5.87,6.29s2.56,6.29,5.87,6.29c1.94,0,3.56-1.01,4.42-2.39l2.09,1.11c-1.31,1.91-3.29,3.46-6.5,3.46-4.67,0-8.4-3.44-8.4-8.48Z"/>
      <path class="st0" d="M18.11,61.99c0-3.42,2.31-6.22,5.99-6.22s5.99,2.8,5.99,6.22-2.29,6.25-5.99,6.25-5.99-2.8-5.99-6.25ZM27.77,61.99c0-2.24-1.3-4.25-3.68-4.25s-3.68,2.01-3.68,4.25,1.32,4.28,3.68,4.28,3.68-2.01,3.68-4.28Z"/>
      <path class="st0" d="M40.42,67.94v-7.6c0-1.97-1.01-2.6-2.53-2.6-1.38,0-2.63.83-3.26,1.72v8.48h-2.21v-11.87h2.21v1.67c.79-.96,2.36-1.97,4.2-1.97,2.5,0,3.81,1.32,3.81,3.84v8.33h-2.21Z"/>
      <path class="st0" d="M50.88,55.77c3.56,0,5.77,2.78,5.77,6.42v.54h-9.38c.17,2.01,1.64,3.69,4.03,3.69,1.25,0,2.63-.49,3.51-1.41l1.03,1.45c-1.18,1.15-2.85,1.77-4.76,1.77-3.54,0-6.14-2.51-6.14-6.25,0-3.44,2.48-6.22,5.94-6.22ZM47.24,61.13h7.25c-.05-1.57-1.11-3.54-3.61-3.54-2.39,0-3.51,1.91-3.64,3.54Z"/>
      <path class="st0" d="M65.66,67.94l-3.32-4.63-3.34,4.63h-2.5l4.44-6.09-4.17-5.78h2.5l3.07,4.28,3.05-4.28h2.5l-4.2,5.78,4.47,6.09s-2.5,0-2.5,0Z"/>
    </g>
    <g>
      <path class="st1" d="M74.15,67.94v-16.4h7.68c2.92,0,4.62,1.8,4.62,4.18,0,2.07-1.35,3.45-2.85,3.76,1.74.27,3.16,2.04,3.16,4.04,0,2.58-1.72,4.43-4.74,4.43h-7.87ZM76.61,58.5h4.76c1.64,0,2.56-1.03,2.56-2.39s-.91-2.41-2.56-2.41h-4.76v4.8ZM76.61,65.78h4.89c1.72,0,2.75-.98,2.75-2.58,0-1.35-.93-2.53-2.75-2.53h-4.89v5.11Z"/>
      <path class="st1" d="M96.61,67.94v-1.31c-.93,1.03-2.29,1.6-3.88,1.6-1.97,0-4.13-1.32-4.13-3.94s2.14-3.88,4.13-3.88c1.6,0,2.97.52,3.88,1.57v-1.97c0-1.48-1.21-2.36-2.89-2.36-1.35,0-2.5.52-3.56,1.57l-.96-1.52c1.32-1.31,2.95-1.94,4.86-1.94,2.58,0,4.76,1.13,4.76,4.15v8.02h-2.2ZM90.23,52.75c0-.72.59-1.28,1.3-1.28s1.28.56,1.28,1.28-.56,1.31-1.28,1.31-1.3-.6-1.3-1.31ZM96.61,63.31c-.66-.89-1.81-1.35-3.05-1.35-1.6,0-2.73.96-2.73,2.36s1.13,2.36,2.73,2.36c1.22,0,2.39-.47,3.05-1.35v-2.01ZM95.33,52.75c0-.72.59-1.28,1.31-1.28s1.31.56,1.31,1.28-.62,1.31-1.31,1.31-1.31-.6-1.31-1.31Z"/>
      <path class="st1" d="M109.9,67.94v-7.6c0-1.97-1.01-2.6-2.53-2.6-1.38,0-2.63.83-3.26,1.72v8.48h-2.21v-11.87h2.21v1.67c.79-.96,2.36-1.97,4.2-1.97,2.5,0,3.81,1.32,3.81,3.84v8.33h-2.21Z"/>
      <path class="st1" d="M123.16,67.94v-7.6c0-1.97-1.01-2.6-2.53-2.6-1.38,0-2.63.83-3.26,1.72v8.48h-2.21v-11.87h2.21v1.67c.79-.96,2.36-1.97,4.2-1.97,2.5,0,3.81,1.32,3.81,3.84v8.33h-2.21Z"/>
      <path class="st1" d="M128.06,52.68c0-.79.66-1.42,1.42-1.42s1.42.63,1.42,1.42-.63,1.41-1.42,1.41c-.76,0-1.42-.63-1.42-1.41ZM128.41,67.94v-11.87h2.21v11.87h-2.21Z"/>
      <path class="st1" d="M141.67,67.94v-7.6c0-1.97-1.01-2.6-2.53-2.6-1.38,0-2.63.83-3.26,1.72v8.48h-2.21v-11.87h2.21v1.67c.79-.96,2.36-1.97,4.2-1.97,2.5,0,3.81,1.32,3.81,3.84v8.33h-2.21Z"/>
      <path class="st1" d="M147.88,69.36c.98,1.13,2.19,1.57,3.81,1.57,1.84,0,3.68-.89,3.68-3.39v-1.55c-.91,1.18-2.31,2.04-3.91,2.04-3.07,0-5.28-2.26-5.28-6.15s2.21-6.12,5.28-6.12c1.55,0,2.95.73,3.91,2.01v-1.72h2.21v11.41c0,4.08-2.97,5.29-5.89,5.29-1.99,0-3.44-.42-4.86-1.77l1.05-1.61ZM155.37,59.49c-.62-.96-1.97-1.74-3.29-1.74-2.21,0-3.58,1.72-3.58,4.15s1.38,4.18,3.58,4.18c1.32,0,2.68-.81,3.29-1.77v-4.82Z"/>
      <path class="st1" d="M165.83,55.77c3.56,0,5.77,2.78,5.77,6.42v.54h-9.38c.17,2.01,1.64,3.69,4.03,3.69,1.25,0,2.63-.49,3.51-1.41l1.03,1.45c-1.18,1.15-2.85,1.77-4.76,1.77-3.54,0-6.14-2.51-6.14-6.25,0-3.44,2.48-6.22,5.94-6.22ZM162.2,61.13h7.25c-.05-1.57-1.11-3.54-3.61-3.54-2.39,0-3.52,1.91-3.64,3.54Z"/>
      <path class="st1" d="M173.91,67.94v-11.87h2.21v1.82c.91-1.18,2.31-2.09,3.88-2.09v2.24c-.22-.05-.46-.07-.76-.07-1.11,0-2.6.83-3.12,1.72v8.26h-2.21v-.02Z"/>
    </g>
  </g>
</svg>