<?xml version="1.0" encoding="UTF-8"?>
<svg id="_Шар_1" data-name="Шар_1" xmlns="http://www.w3.org/2000/svg" version="1.1" viewBox="0 0 182 124">
  <!-- Generator: Adobe Illustrator 29.0.0, SVG Export Plug-In . SVG Version: 2.1.0 Build 186)  -->
  <defs>
    <style>
      .st0 {
        fill: #1d1d1b;
      }
    </style>
  </defs>
  <path class="st0" d="M76.08,45.28v33.44h-9.03v-3.42c-2.44,2.44-5.74,4.27-10.31,4.27-9.64,0-16.48-7.81-16.48-17.76s7.02-17.39,16.48-17.39c4.52,0,7.87,1.89,10.31,4.39v-3.54s9.03,0,9.03,0ZM67.05,61.94c0-4.76-3.6-8.79-8.67-8.79s-8.54,4.03-8.54,8.79,3.54,8.91,8.54,8.91,8.67-4.09,8.67-8.91"/>
  <path class="st0" d="M83.46,45.28h9.15v4.33c2.2-3.6,5.37-5.25,9.09-5.25,1.22,0,2.75.3,4.15.79l-.79,9.15c-1.4-.49-2.87-.73-4.21-.73-4.39,0-7.81,2.62-7.81,9.89v15.26h-9.58v-33.44h0Z"/>
  <path class="st0" d="M107.14,61.94c0-10.19,7.32-17.51,17.94-17.51,6.71,0,12.88,3.23,15.74,9.52l-7.63,4.09c-1.77-2.87-4.58-4.76-7.93-4.76-5,0-8.6,3.78-8.6,8.67s3.6,8.73,8.48,8.73c3.36,0,6.53-1.95,7.87-4.7l7.75,4.58c-2.87,5.43-8.79,8.91-15.87,8.91-10.5,0-17.76-7.32-17.76-17.51"/>
  <path class="st0" d="M143.87,62c0-9.7,7.2-17.64,18-17.64s18.12,7.93,18.12,17.64-7.26,17.64-18.12,17.64-18-7.93-18-17.64M170.42,61.94c0-4.82-3.72-8.67-8.54-8.67s-8.48,3.84-8.48,8.67,3.72,8.79,8.48,8.79,8.54-3.84,8.54-8.79"/>
  <path class="st0" d="M20.14,44.89l-1.58-.03H2v34.29h16.56l1.58-.03c10.17-.33,16.93-7.89,16.93-17.11s-6.76-16.78-16.93-17.11M20.09,70.21h-8.15v-16.42h8.14c4.45.06,7.93,3.64,7.93,8.15s-3.41,8.21-7.93,8.27"/>
</svg>