<?xml version="1.0" encoding="UTF-8"?>
<svg id="_Шар_1" data-name="Шар_1" xmlns="http://www.w3.org/2000/svg" version="1.1" viewBox="0 0 182 124">
  <!-- Generator: Adobe Illustrator 30.4.0, SVG Export Plug-In . SVG Version: 2.1.4 Build 226)  -->
  <defs>
    <style>
      .st0 {
        fill: #fff343;
      }

      .st0, .st1 {
        fill-rule: evenodd;
      }
    </style>
  </defs>
  <g>
    <path d="M176.56,31.11c-1.9,0-3.44,1.54-3.44,3.44s1.54,3.44,3.44,3.44,3.44-1.54,3.44-3.44-1.54-3.44-3.44-3.44ZM176.56,37.53c-1.65,0-2.98-1.34-2.98-2.98s1.34-2.98,2.98-2.98,2.98,1.34,2.98,2.98-1.34,2.98-2.98,2.98Z"/>
    <path d="M177.86,34.44c.15-.17.22-.39.22-.64,0-.31-.11-.55-.32-.72-.21-.17-.51-.26-.89-.26h-1.61v3.43h.47v-1.42h1.07l.89,1.42h.53l-.97-1.48c.26-.05.47-.15.61-.33ZM175.73,34.45v-1.27h1.1c.25,0,.45.05.59.16s.2.26.2.46-.07.37-.2.48c-.13.11-.32.17-.57.17h-1.12Z"/>
  </g>
  <g>
    <path class="st0" d="M2,70.91v11.06h87.71v11.06h82.43v-22.11H2Z"/>
    <path class="st1" d="M2,70.91v-6.76h170.14v6.76H2Z"/>
    <path class="st1" d="M44.14,55.06h-8.48c-1.72,0-2.95-.12-3.93-.37-1.23-.37-2.46-.86-3.56-1.72-2.46-1.97-3.69-5.04-3.69-9.34s.86-7.25,2.7-9.34c1.84-1.97,4.67-3.07,8.48-3.07h8.35v4.05h-8.23c-2.09,0-3.56.61-4.42,1.97-.86,1.35-1.35,3.44-1.35,6.51,0,2.7.49,4.55,1.35,5.53.86,1.11,2.33,1.6,4.55,1.6h8.23v4.18Z"/>
    <path class="st1" d="M21.65,55.06h-8.35c-1.72,0-2.95-.12-3.93-.37-1.23-.37-2.46-.86-3.56-1.72-2.46-1.97-3.69-5.04-3.69-9.34s.86-7.25,2.7-9.34c1.84-1.97,4.67-3.07,8.48-3.07h8.35v4.18h-8.23c-3.81,0-5.65,1.84-5.65,5.53h13.88v4.18H7.77c0,2.09.49,3.69,1.35,4.55.86.86,2.33,1.35,4.3,1.35h8.23v4.05Z"/>
    <path class="st1" d="M109,45.23h-14.25v9.7h-5.04v-10.93c0-2.7.12-4.79.49-6.39.25-1.47.98-2.83,1.97-3.81,1.84-1.84,4.91-2.7,9.34-2.7h7.62v4.18h-8.11c-2.21,0-3.81.49-4.79,1.35-.98.86-1.47,2.33-1.47,4.42h14.37v4.18h-.12ZM128.16,55.06h-6.39c-1.97,0-3.44-.12-4.42-.37-1.35-.37-2.46-1.11-3.44-2.09-.86-.86-1.47-1.84-1.72-2.95-.25-1.11-.49-2.46-.49-4.18v-14.25h5.04v14c0,1.23,0,2.09.12,2.7.12.61.37,1.11.74,1.6.49.61,1.11.98,1.84,1.23.74.25,1.6.37,2.83.37h5.9v3.93ZM148.8,55.06h-8.48c-1.72,0-2.95-.12-3.93-.37-1.23-.37-2.46-.86-3.56-1.72-2.46-1.97-3.68-5.04-3.68-9.34s.86-7.25,2.7-9.34c1.84-1.97,4.67-3.07,8.48-3.07h8.35v4.18h-8.23c-3.81,0-5.65,1.84-5.65,5.53h13.88v4.18h-13.88c0,2.09.49,3.69,1.35,4.55.86.86,2.33,1.35,4.3,1.35h8.23v4.05h.12ZM172.51,55.06h-6.02l-5.04-8.23-5.28,8.23h-5.9l8.35-11.92-8.11-11.92h5.9l4.91,7.49,4.91-7.49h5.77l-7.62,11.55,8.11,12.28Z"/>
    <path class="st1" d="M64.53,43.14c0-5.53-2.09-8.23-6.39-8.23s-6.39,2.7-6.39,8.11c0,2.95.49,5.04,1.47,6.39.98,1.35,2.7,2.09,4.91,2.09s3.81-.61,4.91-1.97c.98-1.47,1.47-3.56,1.47-6.39ZM70.05,43.14c0,4.18-.98,7.37-2.95,9.34-1.97,1.97-4.91,3.07-8.97,3.07s-7.12-.98-8.97-3.07c-1.97-2.09-2.95-5.28-2.95-9.58,0-8.11,4.05-12.16,11.92-12.16,4.05,0,7,.98,8.97,3.07,1.97,1.97,2.95,5.04,2.95,9.34Z"/>
    <path class="st1" d="M87.38,41.79c-1.97,0-3.56.12-4.55.49-1.47.37-2.83,1.23-3.93,2.33-.98.98-1.6,2.21-1.97,3.44-.37,1.23-.37,2.7-1.23,3.69-.61.74-1.23,1.23-2.09,1.35-.74.25-2.95.37-4.05.37-.37.74-1.23,1.35-2.46,1.97h3.81c2.21,0,3.93-.12,5.04-.49,1.47-.37,2.83-1.23,3.93-2.33.98-.98,1.6-2.21,1.97-3.44.37-1.23.37-2.7,1.23-3.69.61-.74,1.23-1.23,2.09-1.35.61-.12,1.35-.25,2.21-.37v-1.97Z"/>
    <path d="M84.55,91.05c0,.74-.25,1.23-.61,1.47-.37.37-.98.49-1.72.49h-3.69v-1.11h3.44c.37,0,.61,0,.86-.12.12-.12.25-.25.25-.61,0-.25-.12-.49-.25-.61-.12-.12-.37-.12-.74-.12h-1.6c-.74,0-1.35-.12-1.6-.49-.37-.25-.49-.74-.49-1.47s.25-1.23.61-1.47c.37-.37.98-.49,1.72-.49h3.56v1.11h-3.44c-.74,0-1.11.25-1.11.86,0,.49.25.74.86.74h1.84c.74,0,1.23.12,1.6.37.37.37.49.86.49,1.47ZM75.83,93.02h-2.33c-.49,0-.86,0-1.11-.12-.37-.12-.61-.25-.98-.49-.61-.49-.98-1.35-.98-2.58,0-1.11.25-1.97.74-2.58.49-.49,1.23-.86,2.33-.86h2.33v1.11h-2.21c-.98,0-1.6.49-1.6,1.47h3.81v1.11h-3.81c0,.61.12.98.37,1.23.25.25.61.37,1.23.37h2.21v1.35ZM68.09,91.05c0,.74-.25,1.23-.61,1.47-.37.37-.98.49-1.72.49h-3.69v-1.11h3.44c.37,0,.61,0,.86-.12.12-.12.25-.25.25-.61,0-.25-.12-.49-.25-.61-.12-.12-.37-.12-.74-.12h-1.6c-.74,0-1.35-.12-1.6-.49-.37-.25-.49-.74-.49-1.47s.25-1.23.61-1.47c.37-.37.98-.49,1.72-.49h3.56v1.11h-3.44c-.74,0-1.11.25-1.11.86,0,.49.25.74.86.74h1.84c.74,0,1.23.12,1.6.37.37.37.49.86.49,1.47ZM58.14,89.82c0-1.47-.61-2.21-1.72-2.21-1.23,0-1.72.74-1.72,2.21,0,.74.12,1.35.37,1.72.25.37.74.61,1.35.61s1.11-.25,1.35-.61c.25-.37.37-.98.37-1.72ZM59.61,89.82c0,1.11-.25,1.97-.74,2.58-.49.61-1.35.86-2.46.86s-1.97-.25-2.46-.86c-.49-.61-.74-1.47-.74-2.58,0-2.21,1.11-3.32,3.19-3.32,1.11,0,1.97.25,2.46.86.49.37.74,1.23.74,2.46ZM50.52,93.02h-1.35v-2.7h-2.46v2.7h-1.35v-6.51h1.35v2.58h2.46v-2.58h1.35v6.51Z"/>
    <path d="M39.34,93.02h-1.72c-.49,0-.98,0-1.23-.12-.37-.12-.74-.25-.98-.61-.25-.25-.37-.49-.49-.86-.12-.25-.12-.74-.12-1.11v-3.93h1.35v4.55c0,.12.12.37.25.49.12.12.25.25.49.37.25,0,.49.12.74.12h1.6v1.11h.12ZM30.25,90.32l-.98-2.46-.98,2.46h1.97ZM32.83,93.02h-1.47l-.61-1.6h-2.83l-.61,1.6h-1.47l2.7-6.51h1.47l2.83,6.51ZM25.22,87.61h-2.09v5.41h-1.47v-5.41h-2.09v-1.11h5.65v1.11ZM17.36,93.02h-2.33c-.49,0-.86,0-1.11-.12-.37-.12-.61-.25-.98-.49-.61-.49-.98-1.35-.98-2.58,0-1.11.25-1.97.74-2.58.49-.49,1.23-.86,2.33-.86h2.33v1.11h-2.21c-.98,0-1.6.49-1.6,1.47h3.81v1.11h-3.81c0,.61.12.98.37,1.23.25.25.61.37,1.23.37h2.21v1.35ZM9.37,93.02h-1.35l.12-5.04-1.72,5.04h-1.47l-1.72-5.16.12,5.16h-1.35v-6.51h1.97l1.72,5.04,1.72-5.04h1.97v6.51Z"/>
  </g>
</svg>