<?xml version="1.0" encoding="UTF-8"?>
<svg id="_Шар_1" data-name="Шар_1" xmlns="http://www.w3.org/2000/svg" version="1.1" viewBox="0 0 182 124">
  <!-- Generator: Adobe Illustrator 29.0.0, SVG Export Plug-In . SVG Version: 2.1.0 Build 186)  -->
  <defs>
    <style>
      .st0 {
        fill: #ff161f;
      }
    </style>
  </defs>
  <path class="st0" d="M10.51,44.47c-1.47,8.02-7.62,17.25-7.62,17.25,0,0,12.07-11.99,12.07-19.69,0-6.7-5.16-9.08-5.17-9.08,0,0,2.82,4.3.72,11.53Z"/>
  <path class="st0" d="M16.41,36.85s3.01,6.02,2.93,10.87c0,7.89-6.59,14.6-6.27,14.44,1.01-.22,10.17-8.58,10.17-15.39.04-7.03-6.83-9.92-6.83-9.92Z"/>
  <path d="M16.11,39.93c.2.81.13,3.88-.13,4.97-.59,2.44-2.46,5.71-5.41,9.46-5.07,6.45-6.34,8.12-7.44,11-1.95,5.05-1.43,10.05,1.98,15.15,1.3,1.95,3.95,4.68,5.8,6.02,1.65,1.18,4.96,2.75,6.84,3.26,3.78,1.04,4.51,1.31,17.82,1.27,6.82-.02,18.33-.14,25.35-.26,13.86-.22,57.92-.49,88.22-.57,23.4-.07,30.63-.17,30.63-.17v-.38h-64.55c-62.93.02-71.46-.07-82.24-.62-6.67-.35-10.62-.82-12.66-1.51l-.99-.34v-6.34l14.36-.03v-4.47h-14.36s0-1.94,0-1.94c0-.67.54-1.22,1.22-1.23l13.14-.09v-4.74l-16.75.02c-1.34,0-2.43,1.08-2.45,2.42l.03,13.88-.82-.65c-.96-.83-3.19-3.93-3.91-5.55-.88-1.89-1.26-3.77-1.26-5.84,0-4.25,1.45-7.41,5.6-14.33,2.03-3.34,3.07-5.62,3.58-7.43.87-3.05.17-6.97-1.33-10.09-.31-.67-.33-1.11-.27-.85Z"/>
  <path class="st0" d="M93.67,59.48c-1.49.18-3.34.61-4.9,1.42-3.46,1.79-6.31,5.57-7.08,9.4-.29,1.47-.4,4.07-.04,5.71.28,1.32,1.61,4.48,2.36,5.4,1.55,1.99,4.23,3.86,7.01,4.79,1.34.45,1.86.53,10.39.53h9.38v-14.81h-7.08v7.69s-3.3.04-5.72,0c-4.26,0-4.66.15-5.7-.34-1.46-.69-3.54-1.98-3.54-6.15,0-3.23,1.88-6.44,5.95-6.44h16.09v-7.19h-17.11Z"/>
  <path d="M38.51,68.37c-1.35,0-2.45,1.1-2.45,2.45v13.44c0,1.36,1.1,2.46,2.45,2.45,2.17,0,5.41,0,8.22,0h8.59v-4.58h-14.45v-2.54h14.45v-3.66h-14.45v-2.75h14.45v-4.82h-16.82Z"/>
  <path d="M57.78,69.6v17.12h4.82v-6.3h4.91c5.89.01,5.89-.45,5.91,3.51l-.02,2.79h4.82v-3.53c0-3.82-.29-4.2-1.18-4.91l-.53-.41.74-.8c.71-.91.97-1.86.97-3.22,0-2.34-1.96-5.48-5.64-5.48h-13.56c-.68,0-1.23.55-1.23,1.23ZM73.4,74.84c0,1.1-1.08,1.51-2.56,1.51h-8.24v-3.16h8.1c1.6,0,2.69.46,2.69,1.65Z"/>
  <path d="M114.32,75.55c0,6.76-.15,7.28.24,8.3.47,1.32,1.33,2.17,2.81,2.64.9.28,2.12.23,7.9.23,6.41,0,6.73-.04,7.48-.45,1-.53,1.75-1.32,2.2-2.32.31-.71.43-1.65.43-8.25v-7.33h-4.94v6.47s.12,4.42.12,6.34c0,1.55-1.45,1.2-5.81,1.2-2.64,0-4.56.08-5.04-.25-.69-.37-.57-1.43-.57-7.66v-6.09h-4.82v7.18Z"/>
  <path d="M144.02,68.37c-4.71,0-6.61,2.99-6.61,5.59,0,1.72.51,4.46,4.28,5.41,1.45.36,5.8.23,8.4.23s2.84.62,2.84,1.33c0,1.47-.86,1.49-7.44,1.49h-7.7s.01,4.3.01,4.3l16.28-.06s3.99-1.16,3.99-5.41c0-1.45-.61-4.19-3.81-5.09-.9-.26-2.11-.22-6.15-.22h-4.24c-.78,0-1.42-.65-1.42-1.35,0-.66.42-1.41,1.51-1.41h13.43v-4.82h-13.36Z"/>
  <path d="M165.95,68.37c-4.71,0-6.61,2.99-6.61,5.59,0,1.72.51,4.46,4.28,5.41,1.45.36,5.8.23,8.4.23s2.84.62,2.84,1.33c0,1.47-.86,1.49-7.44,1.49h-7.7s.01,4.3.01,4.3l16.28-.06s3.99-1.16,3.99-5.41c0-1.45-.61-4.19-3.81-5.09-.9-.26-2.11-.22-6.15-.22h-4.24c-.78,0-1.42-.65-1.42-1.35,0-.66.42-1.41,1.51-1.41h13.43v-4.82h-13.36Z"/>
</svg>