<?xml version="1.0" encoding="UTF-8"?>
<svg id="_Шар_1" data-name="Шар_1" xmlns="http://www.w3.org/2000/svg" version="1.1" viewBox="0 0 182 124">
  <!-- Generator: Adobe Illustrator 29.0.0, SVG Export Plug-In . SVG Version: 2.1.0 Build 186)  -->
  <defs>
    <style>
      .st0 {
        fill: #dd042b;
      }

      .st1 {
        fill: none;
      }

      .st2 {
        opacity: .36;
      }
    </style>
  </defs>
  <path class="st0" d="M36.24,67.43l-14-14c-1.42-1.42-3.76-1.42-5.18,0l-2.88,2.88,11.49,11.49h0l1.46,1.46c.42.42.42,1.04,0,1.46l-6.77,6.77c-.42.42-1.04.42-1.46,0l-6.77-6.73c-.42-.42-.42-1.04,0-1.46l2.05-2.05-5.47-5.47-5.64,5.64c-1.42,1.42-1.42,3.76,0,5.18l14.04,14.04c1.42,1.42,3.76,1.42,5.18,0l13.95-14.04c1.46-1.42,1.46-3.72,0-5.18Z"/>
  <path class="st1" d="M36.7,56.53l-5.68,5.68-1.16-1.15-.99-.99-1.17-1.17-.97-.97-1.19-1.19,2.05-2.05c.42-.42.42-1.05,0-1.46l-.46-.46-1.16-1.16-1.17-1.17-1.17-1.17-2.81-2.81c-.42-.42-1.04-.42-1.46,0l-6.77,6.81c-.42.42-.42,1.04,0,1.46l.44.44,1.02,1.02.15.15,1.18,1.18,1.17,1.17,1.17,1.17,1.17,1.17,2.37,2.37.97.97,1.17,1.17.99.99,1.17,1.17.02.02-2.88,2.89c-.11.11-.23.22-.36.31-.87.67-1.98.89-3.01.67-.48-.1-.95-.3-1.36-.6-.16-.11-.31-.24-.45-.38l-.76-.76-.97-.97-1.17-1.17-1.2-1.2-1.17-1.17-1.17-1.17-1.17-1.17-1.18-1.18-1.17-1.17-2.35-2.35-.99-.99-.74-.74c-.15-.15-.28-.3-.4-.47-.3-.43-.5-.92-.59-1.42-.23-1.16.1-2.4.99-3.29l14.04-14.04c.09-.09.18-.17.28-.25l.03-.02c.87-.7,2-.94,3.05-.71.48.09.94.29,1.35.58.17.12.32.25.47.4l6.42,6.42,1.17,1.17,1.17,1.17,3.55,3.55.96.96.73.73c.15.15.28.3.4.47.3.43.5.91.59,1.41h0c.23,1.17-.1,2.41-.99,3.3Z"/>
  <path class="st0" d="M17.83,37.08l-.03.02-8.43,8.4-5.89,5.89c-.89.89-1.22,2.13-.99,3.29l18.39-18.31c-1.05-.23-2.18.01-3.05.71ZM22.7,37.35c-.15-.15-.3-.28-.47-.4L3.08,56.1c.12.17.25.32.4.47l.74.74,19.22-19.22-.74-.74ZM24.4,39.05L5.21,58.3l1.17,1.17,19.19-19.25-1.17-1.17ZM14.05,56.19l-1.02-1.02-5.47,5.48,1.17,1.17,5.47-5.48-.15-.15ZM26.78,41.43l-5.5,5.49,1.17,1.17,5.5-5.49-1.17-1.17ZM15.38,57.52l-5.47,5.48,1.17,1.17,5.47-5.48-1.17-1.17ZM29.12,43.77l-5.49,5.5,1.17,1.17,5.49-5.5-1.17-1.17ZM17.72,59.86l-5.47,5.48,1.17,1.17c.98-.99,3.04-3.05,5.47-5.48l-1.17-1.17ZM31.46,46.11l-5.49,5.5,1.16,1.16c2.45-2.45,4.52-4.52,5.5-5.49l-1.17-1.17ZM33.84,48.49l-8.28,8.27,1.17,1.17,8.28-8.27-1.17-1.17ZM14.62,67.71l1.17,1.17,5.47-5.48-1.17-1.17-5.47,5.48ZM36.7,51.35l-.73-.73-8.27,8.28,1.17,1.17,8.23-8.25c-.12-.17-.25-.32-.4-.47ZM16.76,69.85l.76.76c.14.14.29.27.45.38l5.43-5.45-1.17-1.17-5.47,5.48ZM24.39,66.53l-5.06,5.06c1.03.22,2.14,0,3.01-.67l3.22-3.22-1.17-1.17ZM37.69,53.24l-7.83,7.82,1.16,1.15,5.68-5.68c.89-.89,1.22-2.13.99-3.29Z"/>
  <g>
    <path class="st0" d="M50.07,60.37h-2.51v-4.68h2.51v-1.34c0-1.17.13-2.17.42-3.01s.71-1.5,1.25-2.09c1.09-1.09,2.67-1.63,4.76-1.63.92,0,1.71.04,2.38.17.67.08,1.25.25,1.8.42v4.72c-.46-.17-.88-.25-1.3-.33s-.92-.13-1.42-.13c-.71,0-1.3.21-1.67.58s-.58,1-.58,1.8v.92h4.93v4.64h-4.89v15.96h-5.64l-.04-16h0ZM64.15,47.88h5.64v28.45h-5.64v-28.45h0Z"/>
    <path class="st0" d="M81.78,76.75c-.96,0-1.92-.13-2.8-.42-.88-.29-1.67-.71-2.3-1.25-.67-.54-1.17-1.21-1.55-2.05-.38-.79-.58-1.71-.58-2.76h0c0-1.13.21-2.09.63-2.92s1-1.55,1.75-2.09,1.63-.96,2.67-1.21,2.17-.38,3.43-.38c1.09,0,2.05.08,2.88.21.79.17,1.59.33,2.34.58v-.38c0-1.3-.38-2.26-1.17-2.92-.79-.67-1.92-1-3.47-1-1.13,0-2.13.13-3.05.33s-1.84.5-2.76.84l-1.46-4.35c1.13-.5,2.34-.92,3.59-1.21,1.25-.33,2.72-.46,4.47-.46,1.59,0,2.97.21,4.14.63,1.17.42,2.13,1,2.88,1.71.75.79,1.34,1.71,1.71,2.84.38,1.13.54,2.38.54,3.76v12.16h-5.51v-2.38c-.71.79-1.59,1.46-2.63,1.96-1,.5-2.26.75-3.76.75h0ZM83.49,72.78c1.42,0,2.59-.33,3.47-1.09.88-.71,1.34-1.63,1.34-2.76v-1.13c-.54-.21-1.13-.42-1.8-.54-.67-.17-1.38-.21-2.17-.21-1.34,0-2.38.25-3.09.79-.75.54-1.13,1.25-1.13,2.21v.08c0,.84.33,1.5.96,1.96.58.46,1.42.67,2.42.67h0Z"/>
    <path class="st0" d="M99.2,55.52h5.68v3.01c.33-.46.71-.88,1.09-1.3.42-.42.88-.75,1.38-1.09s1.04-.54,1.67-.75c.63-.17,1.3-.29,2.05-.29,1.38,0,2.59.29,3.59.88,1,.58,1.75,1.42,2.34,2.51.92-1.09,1.92-1.92,3.05-2.51,1.13-.58,2.42-.88,3.84-.88,2.21,0,3.97.67,5.22,1.96s1.88,3.22,1.88,5.77v13.49h-5.68v-11.66c0-1.46-.29-2.55-.92-3.3s-1.5-1.13-2.67-1.13-2.05.38-2.76,1.13c-.67.75-1,1.84-1,3.3v11.66h-5.68v-11.66c0-1.46-.33-2.55-.92-3.3-.63-.75-1.5-1.13-2.67-1.13s-2.05.38-2.76,1.13c-.67.75-1,1.84-1,3.3v11.66h-5.68l-.04-20.81h0Z"/>
    <path class="st0" d="M146.37,76.79c-1.59,0-3.01-.29-4.35-.84-1.34-.54-2.46-1.34-3.43-2.3-.96-.96-1.71-2.09-2.26-3.43-.54-1.3-.79-2.72-.79-4.18v-.08c0-1.46.25-2.88.79-4.18s1.3-2.46,2.26-3.47,2.09-1.75,3.47-2.34c1.34-.58,2.8-.88,4.39-.88,1.96,0,3.59.33,4.89.92,1.3.63,2.46,1.5,3.43,2.59l-3.51,3.76c-.67-.71-1.38-1.3-2.13-1.71-.75-.42-1.63-.63-2.72-.63-.79,0-1.46.17-2.13.46-.63.33-1.17.71-1.67,1.25-.46.54-.84,1.13-1.09,1.84-.25.71-.38,1.46-.38,2.26v.08c0,.84.13,1.59.38,2.34.25.71.63,1.38,1.09,1.88.46.54,1.04.96,1.71,1.3.67.33,1.42.46,2.26.46,1.04,0,1.92-.21,2.67-.63s1.5-.96,2.21-1.67l3.34,3.34c-.5.58-1.04,1.09-1.59,1.55s-1.17.88-1.88,1.21-1.42.58-2.26.79-1.67.29-2.72.29h0Z"/>
    <path class="st0" d="M168.68,76.79c-1.59,0-3.09-.29-4.43-.84-1.38-.54-2.55-1.34-3.55-2.3s-1.8-2.09-2.34-3.43-.84-2.72-.84-4.22v-.08c0-1.5.29-2.92.84-4.22s1.34-2.46,2.38-3.43c1-.96,2.21-1.75,3.59-2.34,1.38-.58,2.88-.88,4.51-.88s3.09.29,4.43.84c1.38.54,2.55,1.34,3.55,2.3,1,.96,1.8,2.13,2.34,3.43s.84,2.72.84,4.18v.08c0,1.5-.29,2.92-.84,4.22s-1.34,2.46-2.38,3.47c-1,1-2.21,1.75-3.59,2.34-1.38.58-2.88.88-4.51.88h0ZM168.8,71.94c.84,0,1.63-.17,2.3-.46.71-.33,1.3-.75,1.75-1.3.5-.54.84-1.17,1.09-1.88s.38-1.46.38-2.26v-.08c0-.79-.13-1.55-.42-2.26-.29-.71-.67-1.34-1.17-1.88-.5-.54-1.09-1-1.8-1.3-.71-.33-1.46-.46-2.3-.46s-1.67.17-2.34.46c-.67.33-1.25.71-1.75,1.25s-.84,1.13-1.09,1.84c-.25.71-.38,1.46-.38,2.26v.08c0,.79.13,1.55.42,2.3.29.71.67,1.38,1.17,1.88.5.54,1.09.96,1.8,1.3.71.33,1.46.46,2.34.5h0Z"/>
  </g>
  <path class="st2" d="M20.97,62.98h-.89c.57-.02.89,0,.89,0Z"/>
</svg>