<?xml version="1.0" encoding="UTF-8"?>
<svg id="_Шар_1" data-name="Шар_1" xmlns="http://www.w3.org/2000/svg" version="1.1" viewBox="0 0 182 124">
  <!-- Generator: Adobe Illustrator 30.4.0, SVG Export Plug-In . SVG Version: 2.1.4 Build 226)  -->
  <defs>
    <style>
      .st0 {
        fill: #0a1156;
      }

      .st1 {
        fill: #4a72e5;
      }

      .st2 {
        fill: #2c4cbf;
      }

      .st3 {
        fill: #192d8e;
      }
    </style>
  </defs>
  <path class="st0" d="M98.88,74.15h-17.26v2.89h17.26v3.95h-21.81s0-8.81,0-11.77c0-2.3,1.72-4.16,3.88-4.92.92-.32,1.81-.49,2.82-.49,3.79,0,15.1,0,15.1,0v3.97h-14.52c-.51,0-.93.11-1.38.26-1.09.37-1.36,1.5-1.36,2.64h17.26v3.47Z"/>
  <path class="st0" d="M173.38,77.75h-12.64c-.27,0-.5.13-.59.36l-1,2.43c-.05.12-.22.46-.55.46h-4.48s6.02-14.29,6.02-14.29c.81-1.91,2.4-2.54,4.4-2.75,2.14-.23,5.15-.24,7.11.5,1.06.4,1.8,1.17,2.25,2.23l6.1,14.31s-3.36,0-4.49,0c-.24,0-.43-.14-.56-.34l-1.04-2.52c-.07-.18-.26-.39-.54-.39ZM172.06,73.76s-1.48-3.79-2.15-4.96c-.3-.53-.91-.71-1.51-.75,0,0-2.09-.04-2.79,0-.58.03-1.25.24-1.5.82l-2.13,4.9h10.08Z"/>
  <path class="st0" d="M33.77,70.68h14.58s0,3.47,0,3.47h-14.58v6.84h-4.55s0-11.56,0-11.56c0-3.09,2.43-5.61,5.51-5.61h16.28s0,3.97,0,3.97h-15.24c-.94,0-1.65.59-1.88,1.48-.11.44-.12,1.42-.12,1.42Z"/>
  <path class="st0" d="M23.7,80.79c-.53.12-1.15.2-1.76.2h-2.24c-3.3-.19-6.43-1.32-9.17-3.14-4.96-3.29-8.1-8.67-8.48-14.61-.05-.85-.08-1.65,0-2.5l.05-.57c.87-9.2,8.29-16.47,17.52-17.14.8-.06,1.62-.02,2.47-.03.56,0,1.07.07,1.65.19-3.84.35-7.43,1.92-10.31,4.52-4.05,3.67-6.21,8.26-6.36,13.76-.26,9.75,6.68,18.34,16.63,19.31Z"/>
  <path class="st0" d="M123.6,80.99h-4.92c-.23,0-.44-.06-.61-.22-1.65-1.59-6.05-6.89-6.05-6.89l-5.97,6.81c-.13.14-.26.31-.45.31h-5.16l7.5-8.57-7.5-8.61h4.85c.3,0,.54.13.75.34l5.97,6.85,5.87-6.74c.24-.3.55-.45.94-.45h4.77l-7.5,8.61,7.5,8.57Z"/>
  <path class="st0" d="M151.73,64.72c.32-.61.88-.9,1.5-.9,1,0,4.09,0,4.09,0l-7.64,14.51c-1.28,2.42-4.06,2.64-5.16,2.65-2.11,0-4.22-.88-5.17-2.68l-7.62-14.48h4.12c.67,0,1.17.37,1.5.93l5.98,11.27c.24.45.72.77,1.2.77.45,0,.94-.3,1.17-.74l6.02-11.34Z"/>
  <path class="st0" d="M75.23,77.04v3.95s-11.26,0-15.02,0c-3.48,0-6.77-1.51-6.77-5.2v-11.98h4.55v10.92c0,1.56.73,2.3,2.24,2.3,2.79,0,15,0,15,0Z"/>
  <path class="st3" d="M13.92,54.51c-3.95,4.84-4.17,10.63-2.29,16.52-.84-.93-1.39-1.96-1.95-3.04-1.35-2.77-1.8-5.82-1.26-8.87.37-2.1,1.07-4.06,2.1-5.91,1.58-2.85,3.97-5.07,6.95-6.42,2.07-.94,4.25-1.5,6.53-1.66,4.29-.31,8.8,1.24,11.59,4.66-1.9-.84-3.66-1.54-5.64-1.85-3.5-.64-7.01-.05-10.12,1.66-2.27,1.26-4.27,2.91-5.91,4.92Z"/>
  <path class="st2" d="M24.23,53.17c-4.95,2.07-8.95,5.84-10.68,10.97-.55,1.54-.79,3.04-1.05,4.75-.41-1.15-.6-2.33-.62-3.54-.14-6.63,3.87-12.56,10.03-14.98,5.27-2.07,11.35-1.21,15.77,2.52-1.72-.46-3.26-.88-4.97-1.03-2.92-.25-5.77.17-8.47,1.3Z"/>
  <rect class="st0" x="125.51" y="63.82" width="4.55" height="17.17"/>
  <g id="lFtGbR.tif">
    <path class="st1" d="M28.75,56.38c-3.97.59-7.59,2.34-10.49,5.03-1.65,1.54-2.87,3.33-3.97,5.34,0-1.65.56-3.06,1.21-4.45,1.84-3.63,5.04-6.31,8.9-7.59,4.43-1.47,8.55-1.64,12.57.96,1.08.76,2.1,1.54,2.93,2.66-1.65-.71-3.15-1.34-4.84-1.71-2.09-.46-4.14-.57-6.32-.24Z"/>
  </g>
</svg>