<?xml version="1.0" encoding="UTF-8"?>
<svg id="_Шар_1" data-name="Шар_1" xmlns="http://www.w3.org/2000/svg" version="1.1" viewBox="0 0 182 124">
  <!-- Generator: Adobe Illustrator 29.0.0, SVG Export Plug-In . SVG Version: 2.1.0 Build 186)  -->
  <defs>
    <style>
      .st0 {
        fill: #ec6d3a;
      }
    </style>
  </defs>
  <path d="M132.7,64.43c-2.78-2.06-7.45-4.07-6.88-8.13.71-5.05,6.69-5.55,10.53-3.42.21.14.36.23.36.23l.03,3.23s-2.75-2.03-4.95-2.03c-1.12,0-2.15.43-2.76,1.53-1.98,4.47,11.52,5.28,8.05,14.06-1.17,2.11-3.29,2.87-5.75,2.86-1.78,0-3.64-.71-5.16-1.67-.21-.14-.28-.23-.28-.23v-3.19s3.17,2.2,5.56,2.2c.92,0,2.24,0,2.92-1.48.61-1.32.06-2.7-1.67-3.98Z"/>
  <path d="M176.56,69.82c.5-.43.44-1.44.14-1.78-1.22-1.4-5.96-2.31-5.96-6.38,0-2.23,2.24-3.43,4.43-3.45,1.97-.02,4.08,1.2,4.08,1.2,0,0,0,2.71,0,2.71,0,0-2.3-1.17-4.12-1.17-.16,0-1.38-.08-1.38,1.09,0,1.44,3.59,2.75,4.7,3.85s1.55,1.5,1.55,3.27c0,2.37-2.61,3.93-4.8,3.87-2.5-.07-4.48-1.33-4.48-1.33v-2.93s2.32,1.39,4.16,1.48c.66.03,1.26-.08,1.67-.45h0Z"/>
  <path d="M56.68,58.2c-2.14,0-4.14,2.92-4.14,2.92v-2.2h-2.85v13.52h2.85v-7.92c.25-1.01.65-1.89,1.26-2.46.67-.6,1.29-.74,1.98-.74,1.43,0,2.87,1.28,2.87,1.28l1.11-2.7s-1.16-1.7-3.08-1.7Z"/>
  <path d="M163.14,58.2c-2.52,0-3.77,2.18-3.83,2.16v-1.44h-2.85v13.52h2.85v-8.84c0-2.18,1.71-2.7,3.27-2.66,1.21.03,2.38.6,2.42,2.01.01.49,0,9.49,0,9.49h2.85v-10.74s.13-3.5-4.72-3.5Z"/>
  <path d="M35.81,70.31l-1,.02s-.35.63-.73.63c-.21,0-.43-.14-.43-.36-.06-.46-.09-1-.1-1.58v-6.17s.25-4.66-5.18-4.66c-1.66,0-4.31,1.44-4.31,1.44v3.55s2.85-1.89,4.22-1.94c1.01-.03,2.43.01,2.43,1.56,0,1.38-.56,1.63-.91,1.77-1.78.64-6.36,1.65-6.36,4.44,0,2.54.91,4.02,3.15,4.02,1.09,0,2.48-.53,3.66-1.07.21-.07.43-.07.64.07.78.56,1.52,1.01,2.22,1.01,2.32,0,2.71-2.73,2.71-2.73ZM30.67,65.84s.02,0,.04,0v4.17c-1.28,1.31-4.06,1.03-4.06-.94s2.22-2.62,4.02-3.22Z"/>
  <polygon points="48.18 58.92 42.03 73.11 41.1 73.11 34.95 58.92 38.07 58.92 41.57 66.84 45.07 58.92 48.18 58.92"/>
  <polygon points="99.14 58.92 92.99 73.11 92.06 73.11 85.91 58.92 89.03 58.92 92.53 66.84 96.03 58.92 99.14 58.92"/>
  <polygon points="73.48 58.92 64.36 79.56 61.24 79.56 65.31 70.36 60.25 58.92 63.36 58.92 66.86 66.85 70.37 58.92 73.48 58.92"/>
  <path d="M14.11,62.28v2.85h3.96v3.48h0c0,1.12-3.58,1.51-5.14,1.41-4.47-.3-7.47-5.12-7.51-7.94-.04-2.38,1.51-7.58,7.68-7.58,2.54,0,7.4,1.79,7.4,1.79v-3.56c0-.26-4.06-1.57-7.2-1.56-5.86,0-11.31,3.64-11.31,10.91,0,6.16,4.92,11.08,11.09,11.08,4.57,0,7.79-2.1,7.81-2.27h.02v-8.61h-6.81Z"/>
  <rect x="81.41" y="58.92" width="2.85" height="13.52"/>
  <rect x="75.29" y="51.83" width="2.85" height="20.61"/>
  <circle cx="82.84" cy="54.72" r="1.78"/>
  <path d="M146.62,58.5c-4.02,0-7.27,3.26-7.27,7.27s3.26,7.26,7.27,7.26,7.26-3.25,7.26-7.26-3.25-7.27-7.26-7.27ZM146.62,70.41c-2.57,0-4.65-2.08-4.65-4.64s2.08-4.65,4.65-4.65,4.64,2.08,4.64,4.65-2.08,4.64-4.64,4.64Z"/>
  <path class="st0" d="M110.71,44.91c-.55-.12-1.16,1.51-1.45,2.67-.25,1-.32,2.16-.39,3.26,0,.21-.04.57-.54.57-.3,0-.45-.28-.45-.71-.07-2.48.64-4.81,2.12-7.08.07-.14.23-.5.19-.76-.1-.67-.4-1.18-.4-1.18-.09-.21-.15-.56.14-.66.21-.07.44.01.57.21,7.21,11.3-11.32,17.55-2.41,30.86.28.42.27.67-.07.85-.26.14-.66-.09-.8-.3-3.26-4.81-3.66-9.61-1.39-14.56,1.53-3.34,4.44-6.26,5.12-9.98.17-.93.27-3.08-.24-3.19Z"/>
  <path class="st0" d="M111.27,81.88c4.64-5.35,8.2-12.65,4.96-19.35-2.62-5.38-5.02-9.06-3.04-15.15.07-.21.28-.35.57-.35.42,0,.57.21.42.71-2.19,7.71,2.97,10.76,4.25,17.27,1.24,6.35-1.9,12.98-6.26,17.64-.13.13-.57.59-.96.2-.3-.3-.06-.82.07-.96Z"/>
  <path class="st0" d="M108.87,69.52c0,.28-.14.52-.49.53-.31,0-.45-.21-.5-.44-.64-3.19,0-6.09,2.05-8.56.28-.35.85-.42,1.27-.14.07.07.14.14.14.14,4.18,5.87,4.39,12.03.78,18.33-.14.28-.57.31-.86.17-.54-.27-.13-1.16,0-1.37,2.24-4.06,2.86-8.06,1.52-11.93-.44-1.28-1.47-3.75-2.21-3.77-.57-.02-1.11,1.34-1.59,3.37-.27,1.14-.11,2.36-.14,3.67Z"/>
</svg>