<?xml version="1.0" encoding="UTF-8"?>
<svg id="_Шар_1" data-name="Шар_1" xmlns="http://www.w3.org/2000/svg" version="1.1" viewBox="0 0 182 124">
  <!-- Generator: Adobe Illustrator 30.5.1, SVG Export Plug-In . SVG Version: 2.1.4 Build 3)  -->
  <defs>
    <style>
      .st0 {
        fill: #131b11;
      }

      .st1 {
        fill: #8cc63f;
      }
    </style>
  </defs>
  <g>
    <path class="st1" d="M117.59,33.95l-13.41,6.24,10.3,22.12,13.4-6.24-10.3-22.12ZM111.45,43.2l3.34-1.55,5.41,11.63-3.34,1.55-5.41-11.63Z"/>
    <path class="st0" d="M117.86,33.23l-14.39,6.7,10.76,23.1,14.4-6.7-10.76-23.1ZM104.18,40.2l13.41-6.24,10.3,22.12-13.4,6.24-10.3-22.12Z"/>
    <path class="st0" d="M114.79,41.65l-3.34,1.55,5.41,11.63,3.34-1.55-5.41-11.63ZM114.52,42.37l4.95,10.63-2.35,1.09-4.95-10.63,2.35-1.09Z"/>
  </g>
  <g>
    <path class="st1" d="M67.51,57.28l-13.4,6.24,10.3,22.11,8.16-3.8,1.49,3.21-8.16,3.8,2.44,5.25,13.4-6.24-14.23-30.57ZM66.78,78.14l-5.42-11.62,3.34-1.56,5.41,11.63-3.34,1.55Z"/>
    <path class="st0" d="M67.78,56.55l-14.39,6.71,10.76,23.1,8.16-3.8,1.03,2.22-8.16,3.8,2.91,6.24,14.39-6.71-14.69-31.56ZM65.9,88.84l8.16-3.8-1.49-3.21-8.16,3.8-10.3-22.11,13.4-6.24,14.23,30.57-13.4,6.24-2.44-5.25Z"/>
    <path class="st0" d="M64.71,64.96l-3.34,1.56,5.42,11.62,3.34-1.55-5.41-11.63ZM64.44,65.69l4.95,10.64-2.35,1.09-4.95-10.63,2.35-1.09Z"/>
  </g>
  <g>
    <path class="st1" d="M100.93,41.71l-8.15,3.8-5.33-11.45-5.25,2.44,15.62,33.56,13.4-6.24-10.3-22.11ZM95.22,50.76l3.34-1.55,5.41,11.63-3.34,1.55-5.42-11.63Z"/>
    <path class="st0" d="M101.2,40.99l-8.16,3.8-5.33-11.45-6.24,2.91,16.09,34.55,14.39-6.7-10.76-23.1ZM82.2,36.51l5.25-2.44,5.33,11.45,8.15-3.8,10.3,22.11-13.4,6.24-15.62-33.56Z"/>
    <path class="st0" d="M98.56,49.2l-3.34,1.55,5.42,11.63,3.34-1.55-5.41-11.63ZM98.29,49.93l4.95,10.63-2.35,1.09-4.95-10.63,2.35-1.09Z"/>
  </g>
  <g>
    <path class="st1" d="M122.48,29.57c-2.07.96-2.97,3.43-2,5.49s3.43,2.97,5.49,2c2.07-.96,2.97-3.43,2-5.49-.96-2.07-3.43-2.97-5.49-2ZM125.74,36.57c-1.79.84-3.93.06-4.77-1.74s-.06-3.93,1.74-4.77,3.93-.06,4.77,1.74.06,3.93-1.74,4.77Z"/>
    <path class="st1" d="M125.59,32.54c.07-.26.05-.54-.08-.81-.16-.34-.39-.54-.71-.63-.32-.08-.69-.03-1.11.17l-1.76.82,1.74,3.74.51-.24-.72-1.55,1.16-.54,1.69,1.1.58-.27-1.81-1.12c.26-.18.43-.4.5-.67ZM123.27,33.64l-.64-1.38,1.2-.56c.28-.13.52-.17.72-.13s.35.18.45.39.11.43.03.63c-.09.19-.27.35-.53.48l-1.22.57Z"/>
  </g>
  <g>
    <path class="st1" d="M92.13,66.34l-8.16,3.8-1.4-3,8.16-3.8-6.46-13.87-13.4,6.24,10.3,22.11,13.4-6.24-2.44-5.25ZM80.13,61.89l-1.57-3.38,3.34-1.55,1.57,3.38-3.34,1.55Z"/>
    <path class="st0" d="M92.4,65.61l-8.16,3.8-.94-2.01,8.16-3.8-6.92-14.86-14.4,6.71,10.76,23.1,14.39-6.7-2.91-6.24ZM70.87,55.71l13.4-6.24,6.46,13.87-8.16,3.8,1.4,3,8.16-3.8,2.44,5.25-13.4,6.24-10.3-22.11Z"/>
    <path class="st0" d="M81.9,56.96l-3.34,1.55,1.57,3.38,3.34-1.55-1.57-3.38ZM81.63,57.69l1.11,2.38-2.35,1.09-1.11-2.38,2.35-1.09Z"/>
  </g>
</svg>