<?xml version="1.0" encoding="UTF-8"?>
<svg id="_Шар_1" data-name="Шар_1" xmlns="http://www.w3.org/2000/svg" version="1.1" xmlns:xlink="http://www.w3.org/1999/xlink" viewBox="0 0 182 124">
  <!-- Generator: Adobe Illustrator 29.0.0, SVG Export Plug-In . SVG Version: 2.1.0 Build 186)  -->
  <defs>
    <style>
      .st0 {
        fill: #48676c;
      }

      .st1 {
        opacity: .36;
      }

      .st2 {
        fill: url(#_Градієнт_без_назви_29);
      }

      .st3 {
        fill: url(#_Градієнт_без_назви_34);
      }

      .st4 {
        fill: url(#_Градієнт_без_назви_39);
      }
    </style>
    <linearGradient id="_Градієнт_без_назви_39" data-name="Градієнт без назви 39" x1="114.12" y1="55.07" x2="129.1" y2="55.07" gradientUnits="userSpaceOnUse">
      <stop offset="0" stop-color="#ff6211"/>
      <stop offset="1" stop-color="#ff710f"/>
    </linearGradient>
    <linearGradient id="_Градієнт_без_назви_29" data-name="Градієнт без назви 29" x1="76.5" y1="55.05" x2="92.13" y2="55.05" gradientUnits="userSpaceOnUse">
      <stop offset="0" stop-color="#fc3418"/>
      <stop offset="1" stop-color="#fc4417"/>
    </linearGradient>
    <linearGradient id="_Градієнт_без_назви_34" data-name="Градієнт без назви 34" x1="95.7" y1="55.06" x2="112.59" y2="55.06" gradientUnits="userSpaceOnUse">
      <stop offset="0" stop-color="#fc4417"/>
      <stop offset="1" stop-color="#ff6211"/>
    </linearGradient>
  </defs>
  <path class="st1" d="M20.97,62.98h-.89c.57-.02.89,0,.89,0Z"/>
  <g>
    <path class="st0" d="M131.39,72c1.78-.16,2.11-1.11,2.55-2.64.72-2.51,1.07-6.77,3.32-8.28,3.32-2.23,7.91-.86,7.54,3.67-.24,2.94-1.53,6.05-1.99,8.97-.2,1.25-.03,2.06,1.31,2.41,2.88.75,3.39-1.6,3.85-3.77.42-1.99.59-4.04,1.01-6.03.92-4.4,2.47-5.37,4.63-6.1,2.33-.79,5.26.49,5.73,3.22.32,1.87-.88,5.67-1.29,7.68-.25,1.2-.75,2.83-.32,3.97.35.93,1.32,1.38,2.27,1.16,1.95-.47,2.59-4.41,2.91-6.09.7-3.57.53-8.14,4.48-9.72.61-.25,1.36-.45,2.11-.45,1.44,0,2.88.49,3.66,1.61,1.96,2.83-1.25,7.1.34,9.38.38.55.97,1.02,2.27,1.02h4.24v2.6h-5.39c-2.42,0-3.65-2.4-3.94-4.02-.23-1.32.18-3.3.4-4.65.16-1.03.74-2.42-.46-3.05s-3.15-.14-3.88,1.6c-.25.59-.47,1.47-.61,2.1-.56,2.52-.82,5.26-1.5,7.73-.94,3.4-3.8,5.44-7.31,4.03-2.15-.87-2.78-2.52-2.39-4.73.34-1.93.91-3.87,1.29-5.81.22-1.11.62-3,.38-4.11-.06-.27-.27-1.06-1.47-1.06-2.7,0-2.95,1.82-3.32,3.13-.8,2.79-.88,5.86-1.64,8.63-.59,2.17-2.13,4.15-4.53,4.36-3.67.31-5.96-1.91-5.32-5.61.5-2.9,1.49-5.74,2.04-8.63.19-1.02-.49-1.88-1.64-1.88-1,0-1.54,0-2.3.71-.55.51-.72,1.47-.92,2.19-.46,1.66-.77,3.43-1.28,5.06-.67,2.12-1.7,3.34-4.03,3.59H2v-2.19h129.39Z"/>
    <path class="st0" d="M56.51,64.19l-5.69-17.92c-.14-.44-.55-.74-1.01-.74h-3.63c-.46,0-.87.3-1.01.74l-5.69,17.92c-.07.21.09.41.3.41h3.52c.14,0,.26-.09.3-.22l1.14-3.59h6.5l1.14,3.59c.04.13.16.22.3.22h3.52c.22,0,.37-.21.3-.41ZM45.86,57.29l2.14-6.73,2.14,6.73h-4.27Z"/>
    <path class="st4" d="M128.78,45.53h-14.35c-.18,0-.32.14-.32.32v2.86c0,.18.14.32.32.32h5.1v15.26c0,.18.14.32.32.32h3.52c.18,0,.32-.14.32-.32v-15.26h5.1c.18,0,.32-.14.32-.32v-2.86c0-.18-.14-.32-.32-.32Z"/>
    <path class="st0" d="M19.36,55.61v6.46c0,.38-.11.76-.36,1.05-.41.48-1.21,1.09-3.09,1.45-.99.19-2.29.32-3.99.32-4.66,0-8.44-2.45-8.44-9.84,0-6.5,3.78-9.84,8.44-9.84,4.08,0,5.37.85,6.13,1.34.13.08.18.25.12.39l-1.18,2.72c-.07.16-.25.24-.41.17-.64-.26-2.21-.91-4.27-.91-2.29,0-4.43,2.1-4.43,6.17,0,4.92,2,6.05,4.24,6.05s3.12-.35,3.42-.45v-4.06c-.54.01-1.55.09-2.11.18-.68.1-1.72.46-2.23.65-.17.06-.35-.03-.41-.2l-.86-2.54c-.05-.16.02-.33.17-.39.48-.21,1.56-.65,2.65-.85,1.02-.18,1.86-.24,2.45-.27h1.77c1.32,0,2.38,1.07,2.38,2.38Z"/>
    <path class="st0" d="M72.27,46l-6.08,11.65v6.62c0,.18-.14.32-.32.32h-3.52c-.18,0-.32-.14-.32-.32v-6.62l-6.08-11.65c-.11-.21.04-.47.28-.47h3.55c.12,0,.23.07.28.17l4.04,7.74,4.03-7.74c.05-.11.16-.17.28-.17h3.55c.24,0,.39.25.28.47Z"/>
    <path class="st2" d="M91.81,45.52h-3.52c-.18,0-.32.14-.32.32v7.04h-7.32v-7.04c0-.18-.14-.32-.32-.32h-3.52c-.18,0-.32.14-.32.32v18.43c0,.18.14.32.32.32h3.52c.18,0,.32-.14.32-.32v-7.89h7.32v7.89c0,.18.14.32.32.32h3.52c.18,0,.32-.14.32-.32v-18.43c0-.18-.14-.32-.32-.32Z"/>
    <path class="st0" d="M36.5,57.28c-.14-.44-.46-.93-1.2-1.42-.12-.08-.27-.19-.46-.3.36-.22.71-.47,1-.78.94-.94,1.53-2.23,1.58-3.65.1-3.08-2.59-5.6-5.67-5.6h-4.66s0-.02,0-.02h-3.09c-.59,0-1.06.48-1.06,1.06v17.68c0,.18.14.32.32.32h3.52c.18,0,.32-.14.32-.32v-7.45h2.91s.69-.03,1.43.36c.74.39.92.76,1.05,1.12.45,1.33,1.31,5.07,1.54,6.06.03.14.16.24.31.24h3.63c.21,0,.36-.19.31-.39-.3-1.29-1.28-5.42-1.77-6.93ZM30.95,49.02c1.24,0,2.26,1.01,2.26,2.26,0,.63-.25,1.19-.67,1.6s-.96.65-1.57.66h-3.87v-4.52h3.85Z"/>
    <path class="st3" d="M104.14,45.21c-4.66,0-8.44,3.35-8.44,9.84,0,7.39,3.78,9.84,8.44,9.84s8.45-2.53,8.45-9.84-3.79-9.84-8.45-9.84ZM104.14,61.2c-2.29,0-4.15-1.53-4.15-6.14,0-4.06,1.86-6.14,4.15-6.14s4.15,1.68,4.15,6.14-1.86,6.14-4.15,6.14Z"/>
  </g>
</svg>