<?xml version="1.0" encoding="UTF-8"?>
<svg id="_Шар_1" data-name="Шар_1" xmlns="http://www.w3.org/2000/svg" version="1.1" viewBox="0 0 182 124">
  <!-- Generator: Adobe Illustrator 30.5.1, SVG Export Plug-In . SVG Version: 2.1.4 Build 3)  -->
  <defs>
    <style>
      .st0 {
        fill: #fff;
      }
    </style>
  </defs>
  <rect class="st0" x="46.42" y="29.02" width="89.16" height="65.88"/>
  <g>
    <path d="M120.86,33.68c-16.23,0-32.46,0-48.69,0-6.82,0-21.12,0-21.12,0v36.59c4.52-17.86,20.7-31.08,39.96-31.08s35.39,13.17,39.95,30.99v-36.5s-6.92.01-10.1.01ZM126.69,42.19c-2-.03-3.72-1.72-3.7-3.63.01-1.61,1.49-3.71,3.78-3.64,1.97.06,3.54,1.7,3.52,3.69-.01,1.95-1.69,3.61-3.6,3.58Z"/>
    <path d="M105.85,75.69c.72,0,24.06,0,24.51,0,.26,0,.58-.04.59.36.01.41-.29.4-.59.4-2.56,0-24.96-.02-24.96-.02l-.87,1.43h-30.58l-.69-1.41h-1s.48,1.04.66,1.41c-.3,0-.54,0-.87,0-.27,0-.56,0-.82,0-1.03,0-1-.11-1.34-1.02-.09-.27-.12-.38-.12-.38,0,0-12.25-.02-18.22,0-.33,0-.52-.07-.51-.41,0-.3.19-.35.48-.35,2.66.01,17.97,0,17.97,0,0,0-2.76-7.63-2.89-8.03-.1-.31.03-.45.32-.45,1.18-.01.92-.25,1.38.77,1.11,2.46,3.62,7.71,3.62,7.71,0,0,.8,0,.99,0-.08-.16-4.19-8.6-4.19-8.6,0,0-.1-.46-.07-.69.04-.41-.16-.54-.52-.53-.4,0-.8,0-1.2,0-.3,0-.46-.12-.45-.45.02-.73.02-1.46.01-2.19,0-.41.18-.6.59-.63.38-.02.67.04.72.48.01.12.06.23.06.34,0,.47.26.59.68.58.47-.01.58-.26.58-.68-.02-4.29-.02-8.59-.03-12.88,0-.68.15-.81.8-.62,1.01.3,2.22,1.35,1.94,2.79-.24,1.22.2,2.32,1.16,3.12,1.27,1.06.77,1.96-.17,2.99-.06.07-.39,0-.51-.11-.27-.24-.48-.55-.72-.82-.25-.28-.5-.26-.77,0-.68.64-1.14,1.35-1.01,2.36.08.57.02,1.16.02,1.74,0,.35-.02.69.42.85.11.04.18.36.17.55-.01.62.07.73.63.74.55,0,.81-.22.71-.77-.1-.53.18-.61.56-.65.53-.05.67.08.69.64.03.67.16.78.82.72.41-.03.52-.24.51-.63,0-.67.17-.81.8-.74.39.04.56.2.47.63-.04.18.05.53.17.57.29.11.64.15.95.1.1-.02.24-.41.2-.59-.09-.47.1-.65.52-.71.65-.08.8.05.8.71,0,.67,0,1.33.01,2,.01.41-.15.59-.56.54-.16-.02-.36-.03-.48.05-.11.07-.25.29-.21.39.26.67.61,1.27,1.26,1.67,1.99,1.22,4.2,1.71,6.47,1.99,1.83.22,3.68.32,5.51.5.44.04.6-.08.59-.53-.02-1.06-.02-2.13,0-3.19,0-.35-.14-.38-.43-.32-1.77.38-3.54.75-5.31,1.12-.61.13-1.22.23-1.97.37.18-.31.28-.5.41-.68,1.08-1.6,1.77-3.34,1.97-5.26.16-1.63-.1-3.21-.67-4.75-.87-2.33-2.25-4.36-3.81-6.27-.75-.91-1.51-1.82-2.26-2.73-.09-.11-.15-.24-.28-.44.34,0,.57,0,.8,0,3.71,0,7.42-.02,11.14-.02.35,0,.46-.15.45-.49-.04-1.4-.06-2.79-.07-4.19,0-.18.08-.41.2-.51.08-.07,1.87,1.02,2.97,2.12.25.25.55.28.84,0,.36-.36.73-.73,1.1-1.08.38-.35.87-.64,1.35-.38.39.21.72.62.98,1,.29.42.47.91.68,1.38.05.11,0,.27,0,.41-.15-.05-.35-.05-.43-.15-.28-.35-.49-.75-.77-1.1-.44-.57-.53-.58-1.03-.1-.36.34-.67.73-1,1.11-.65.75-1.21.77-1.87.05-.66-.71-.94-.71-1.65-.04-.39.36-.71.72-.67,1.31.04.57.13.71.71.7,1.08-.01,6.44-.07,8.03-.04.26,0,.62.17.74.38,1.07,1.83,2.14,3.66,3.11,5.54.98,1.9,1.64,3.93,1.87,6.06,0,5.54-4.08,8.11-4.08,8.11,0,0-2.84-1.4-3.96-1.63-1.98-.4-3.97-.28-5.96-.03-.3.04-.45.17-.44.48.01,1.08,0,2.16.02,3.24,0,.6.07.66.66.63,2.33-.11,4.67-.1,6.97-.39,1.78-.22,3.54-.74,5.26-1.28,1.24-.38,4.05-1.98,4.04-2.03h-.99c-1.18,0-1.07-1.06-1.07-1.06,0,0,0-.5.01-.75.03-.35.24-.55.6-.53.35.02.39.27.37.57-.04.75-.03.76.7.78.48.01.97-.03,1.45,0,.89.06,1.38-.57,1.8-1.14,1.07-1.46,2.06-2.97,3.09-4.46.15-.21.29-.6.62-.37.11.08.09.54-.03.74-.88,1.52-1.84,3-2.75,4.51-.08.14-.21.29-.22.44,0,.12.05.28.29.28.66,0,.97,0,.99-.81,0-.29.02-.6.44-.57.35.02.54.19.52.57,0,.52,0,.87,0,1.3,0,.39-.13.49-.49.49-.66,0-1.31,0-1.98,0-.36,0-.61.04-.79.33-1.3,2.13-4.69,7.73-5.2,8.53Z"/>
    <path d="M105.09,87.53s.3,1.02,1.3,1.02c.75.07,1.52.08,2.27.03.39-.02.76-.07.76-.73,0-.44-.33-.63-.67-.69-1.24-.23-2.49-.38-3.73-.6-.99-.18-2.01-.31-2.95-.64-1.66-.59-2.08-1.6-2.08-3.36,0-1.38,1.42-2.62,2.69-3.01,1.83-.56,2.92-.51,4.85-.51s3.33.14,4.49.73c2.69,1.38,2.49,3.1,2.49,3.1h-5.1c-.05-.16-.51-1.06-1.26-1.06-.56,0-1.97,0-2.59,0-.44.04-.49.37-.49.7,0,.42.25.56.41.6.85.21,5.37.74,6.74,1.1,1.68.43,2.27,1.75,2.27,3.32,0,1.22-.35,2.11-1.25,3-1.15.72-1.67,1.22-5.53,1.22-8.26,0-7.75-4.22-7.75-4.22h5.1Z"/>
    <path d="M126.85,35.45c-1.85-.1-3.1,1.27-3.22,3.08-.03,1.61,1.26,3,2.81,3.04,2.01.06,3.23-1.4,3.31-2.72.13-1.96-1.26-3.3-2.91-3.39ZM126.1,37.78h-.67v1.93h-.42v-1.93h-.67v-.39h1.76v.39ZM128.84,39.71h-.42v-1.88l-.59,1.88h-.41l-.59-1.88v1.88h-.42v-2.33h.66l.57,1.85.55-1.85h.65v2.33Z"/>
    <path d="M135.58,31.07v-2.05H46.42v65.88h89.16v-2.05h0V31.07h0ZM133.52,92.85H48.47V31.07h85.05v61.78Z"/>
    <polygon points="60.97 79.37 60.97 83.53 55.72 83.53 55.72 79.37 51.04 79.37 51.04 91.37 55.72 91.37 55.72 86.53 60.97 86.53 60.97 91.37 65.65 91.37 65.65 79.37 60.97 79.37"/>
    <polygon points="98.01 79.37 93.33 79.37 93.33 86.38 88.08 79.37 83.4 79.37 83.4 91.37 88.09 91.37 88.09 84.38 93.33 91.37 98.01 91.37 98.01 79.37"/>
    <path d="M77.42,79.38h-5.79l-5.18,11.99h4.69l.51-1.16h0s5.75,0,5.75,0h0s.51,1.17.51,1.17h4.69l-5.18-11.99ZM72.95,87.2h0s1.58-3.66,1.58-3.66l1.58,3.66h0s-3.16,0-3.16,0Z"/>
    <path d="M125.78,79.38h-5.79l-5.18,11.99h4.69l.51-1.16h0s5.75,0,5.75,0h0s.51,1.17.51,1.17h4.69l-5.18-11.99ZM121.3,87.2h0s1.58-3.66,1.58-3.66l1.58,3.66h0s-3.16,0-3.16,0Z"/>
  </g>
</svg>