<?xml version="1.0" encoding="UTF-8"?>
<svg id="_Шар_1" data-name="Шар_1" xmlns="http://www.w3.org/2000/svg" version="1.1" viewBox="0 0 182 124">
  <!-- Generator: Adobe Illustrator 30.4.0, SVG Export Plug-In . SVG Version: 2.1.4 Build 226)  -->
  <defs>
    <style>
      .st0 {
        fill: #df1f1c;
      }

      .st1 {
        fill: #030305;
      }
    </style>
  </defs>
  <path class="st1" d="M154.98,71.92s9.73-.04,12.49-.01c1.67.01,2.8-.49,2.8-.49v9.83h-33.83v-6.27l14.91-22.69h-12.57c-2.47.02-4.7,2.22-4.7,4.52v22.68c0,.71.19,1.24.39,1.75h-15.34c.38-1.17.43-2.3.43-3.27-4.76,3.06-17.41,4.17-26.03,2.3-6.06-1.31-10-5.67-11.61-11.48v10.99c0,1.04.3,1.2.57,1.44h-15.37c.11-.29.28-.71.28-1.44v-15.65h-9.91s-.02,15.65-.02,15.65c0,.96.2,1.2.28,1.44h-15.37c.24-.3.57-.63.57-1.59v-35.36c0-.88-.28-1.15-.57-1.52h15.37s-.28.56-.28,1.52v12.02h9.93v-12.02c0-.9-.14-1.18-.28-1.52h15.37s-.57.49-.57,1.52c0,2.76-.02,11.68-.02,11.68,3.38-11.01,13.95-14.97,24.72-12.47,9.14,2.12,12.74,10.93,11.99,19.98h-21.96c-.78,1.92-.35,4.25.22,6.35,1.16,4.31,4.81,6.74,9.3,6.21,6.52-.76,11.52-5.56,13.33-12l.05-18.71c0-.69-.24-1.56-.47-2.53h15.3s-.38.27-.54.82c-.08.29-.11,1.37-.11,1.37,1.77-1.38,3.06-2.15,5.3-2.15l31.23-.04v6.19l-15.28,22.96ZM103.67,56.81c-.19-3.78-.78-8.7-3.3-8.7-2.92,0-3.96,4.87-3.95,8.69h7.25Z"/>
  <path class="st1" d="M2,42.77h38.45s0,38.47,0,38.47H2v-38.47ZM37.18,46.04H5.27v31.94h31.91v-31.94Z"/>
  <path class="st0" d="M34.24,51.7c-3.31-3.28-8.81-3.19-12.01.6l-1,1.25-1-1.25c-3.2-3.79-8.7-3.88-12.01-.6-1.51,1.62-2.42,2.99-2.42,6.39,0,2.33,1.17,3.73,3.03,5.58l12.4,12.29,12.4-12.29c1.86-1.85,3.03-3.25,3.03-5.58,0-3.4-.91-4.77-2.42-6.39ZM32.19,60.35l-10.97,11.06-10.97-11.06c-1.63-1.65-1.25-4.62.11-6.1,1.48-1.62,4.3-2.53,6.15-.77l4.71,4.61,4.71-4.61c1.85-1.76,4.67-.85,6.15.77,1.36,1.48,1.74,4.45.11,6.1Z"/>
  <g>
    <path class="st1" d="M175.83,42.89c-2.3,0-4.17,1.87-4.17,4.17s1.87,4.17,4.17,4.17,4.17-1.87,4.17-4.17-1.87-4.17-4.17-4.17ZM175.83,50.67c-1.99,0-3.62-1.62-3.62-3.62s1.62-3.62,3.62-3.62,3.62,1.62,3.62,3.62-1.62,3.62-3.62,3.62Z"/>
    <path class="st1" d="M177.41,46.93c.18-.21.27-.47.27-.78,0-.37-.13-.66-.38-.87-.25-.21-.62-.31-1.08-.31h-1.95v4.15h.56v-1.73h1.29l1.08,1.73h.65l-1.18-1.79c.32-.05.56-.19.74-.4ZM174.82,46.95v-1.53h1.33c.31,0,.55.06.71.19s.25.31.25.55-.08.44-.24.58c-.16.14-.39.21-.69.21h-1.36Z"/>
  </g>
</svg>