<?xml version="1.0" encoding="UTF-8"?>
<svg id="_Шар_1" data-name="Шар_1" xmlns="http://www.w3.org/2000/svg" version="1.1" viewBox="0 0 182 124">
  <!-- Generator: Adobe Illustrator 30.4.0, SVG Export Plug-In . SVG Version: 2.1.4 Build 226)  -->
  <defs>
    <style>
      .st0 {
        fill: #485157;
      }

      .st1 {
        fill: #df091a;
      }
    </style>
  </defs>
  <path class="st0" d="M146.85,70.72h17.45s0-10.02,0-10.02h-17.45s-.25-.88.14-4.51c.33-3.14.75-3.82.75-3.82h32.26c-.46-3.45-1.25-6.76-2.19-10.06h-37.79c-1.63,5.57-3.09,14.44-3.09,23.46,0,8.45,1.46,17.85,3.09,23.46h37.78c.98-3.41,1.65-6.63,2.18-10.02h-32.24s-.55-2.04-.78-4.19c-.18-1.69-.16-3.41-.11-4.29Z"/>
  <path class="st0" d="M102.78,42.3v8.85h17.77l-22.67,38.07h37.78c-.82-3.27-1.42-6.12-1.87-9.23l-19.6-.02,22.33-37.67-33.73-.02Z"/>
  <polygon class="st0" points="99.79 51.16 99.79 42.31 66.21 42.31 66.21 51.16 78.06 51.16 78.06 89.23 87.95 89.23 87.95 51.16 99.79 51.16"/>
  <rect class="st0" x="53.32" y="42.31" width="9.9" height="46.92"/>
  <g>
    <path class="st1" d="M16.99,47.17c.78.75.99,1.68,1.22,2.62.18.74.49,1.45.74,2.17.08-.02.25-1.08.4-1.55.44-1.39.9-2.78,1.47-4.12.81-1.92,1.52-3.84,1.35-5.97-.02-.28-.04-.55-.07-.94.28.19,2.33,1.84,3.35,3.25,1.1,1.44,1.09,3.07.26,4.65-.54,1.02-1.22,1.97-1.86,2.94-.65.98-1.37,1.93-1.99,2.93-1.22,1.98-1.86,4.12-1.37,6.62-1.58-1.15-2.8-2.42-3.6-4.06-1.08-2.21-1.05-5.42.1-8.54Z"/>
    <path class="st1" d="M30.56,40.68c.89,1.5,1.52,2.98,1.82,4.58.59,3.11-.37,5.79-2.41,8.09-1.62,1.82-3.4,3.5-5.07,5.28-1.18,1.25-2.19,2.61-2.38,4.59-.47-.93-.63-1.75-.71-2.59-.2-2.16.43-4.14,1.56-5.93,1.31-2.08,2.76-4.07,4.14-6.11,1.23-1.81,2.32-3.69,2.76-5.87.13-.62.18-1.26.29-2.04Z"/>
    <path class="st1" d="M34.44,49.66c.24,1.42.31,2.99-.05,4.56-.53,2.36-2.09,3.85-4.17,4.89-.63.31-1.26.62-1.89.92-1.05.5-2.1.98-2.92,2.1.02-.95.36-1.61.85-2.13,1.19-1.27,2.46-2.46,3.66-3.72,1.01-1.07,2.07-2.14,2.9-3.34.7-1.01,1.12-2.23,1.62-3.27Z"/>
    <path class="st1" d="M27.47,43.5c-.4-1.74-1.53-2.88-2.37-4.21-.89-1.41-1.05-2.92-.67-4.52.93,1.36,1.87,2.68,2.75,4.03.93,1.43,1.12,2.95.29,4.69Z"/>
  </g>
  <path class="st0" d="M45.79,42.31h-9.91c1.66,5.55,3.15,13.88,3.16,23.28H11.95c.03-11.82,1.35-17.03,3.06-23.28H5.08c-2.18,7.71-3.08,14.88-3.08,23.28s.77,15.96,3.15,23.64h9.88c-1.4-4.69-2.17-9.12-2.67-13.77h26.17c-.5,4.69-1.32,9.17-2.66,13.77h9.89c1.83-6.12,2.95-13.77,3.12-19.68.37-13.06-1.5-21.88-3.08-27.24Z"/>
</svg>