<?xml version="1.0" encoding="UTF-8"?>
<svg id="_Шар_1" data-name="Шар_1" xmlns="http://www.w3.org/2000/svg" version="1.1" viewBox="0 0 182 124">
  <!-- Generator: Adobe Illustrator 30.5.1, SVG Export Plug-In . SVG Version: 2.1.4 Build 3)  -->
  <defs>
    <style>
      .st0 {
        fill: #e50a3a;
      }
    </style>
  </defs>
  <g id="gm63lR.tif">
    <g>
      <path d="M4.88,84.89v-29.91c0-.22.18-.39.39-.39h2.91c.19,0,.33.18.34.38v13.76s4,0,4,0v-13.76c.01-.21.15-.37.37-.37h10.35c.21,0,.39.18.39.37v2.08c.01.22-.15.4-.39.4h-7.1s0,11.29,0,11.29h5.56c.21,0,.37.15.39.34v2.15c-.02.2-.18.35-.39.34h-5.56s0,13.3,0,13.3c0,.26-.2.41-.42.41h-2.83c-.19,0-.34-.13-.37-.34v-13.37s-4,0-4,0v13.37c-.04.19-.17.3-.35.34h-2.9c-.22,0-.39-.17-.39-.39Z"/>
      <path class="st0" d="M155.59,94.94c1.04-4.29,1.7-8.48,1.76-12.85.03-1.97-.26-3.93-.84-5.81-.75-2.4-1.64-4.69-2.65-6.99l-3.51-8.79c-1.22-3.46-2.53-7.85-2.76-11.46-.13-2.13.01-4.21.38-6.31.92-5.28,3.56-9.78,7.29-13.56l.09-.09s.09-.02.08,0l-.04.15c-.99,3.93-1.6,7.92-1.71,11.99-.07,2.43.26,4.72,1,7.02s1.54,4.29,2.47,6.41l3.41,8.49c1.26,3.52,2.61,7.97,2.86,11.66.15,2.14,0,4.23-.35,6.35-.53,3.13-1.68,6.05-3.37,8.74-1.17,1.8-2.46,3.47-4.1,5.06Z"/>
      <path class="st0" d="M171.41,86.53l-.12-.04c.73-2.93,1.18-5.85,1.27-8.87.05-1.74-.18-3.48-.69-5.14-.53-1.72-1.19-3.35-1.92-5.02l-2.67-6.69c-.46-1.31-.87-2.6-1.21-3.92-.49-1.88-.92-5.01-.8-6.95.29-4.94,2.33-8.96,5.77-12.49,0-.03.04.05.06.1-.73,2.9-1.18,5.82-1.28,8.81-.06,1.86.16,3.59.72,5.35s1.23,3.4,1.97,5.09l2.55,6.4c.66,1.87,1.22,3.7,1.63,5.64l.43,2.95v2.02c-.2,5.03-2.22,9.19-5.71,12.75Z"/>
      <path class="st0" d="M142.14,94.53c.76-3.22,1.26-6.33,1.29-9.6.01-1.47-.21-2.94-.64-4.35-.58-1.86-1.27-3.59-2.05-5.38l-2.71-6.84c-.62-1.78-1.12-3.52-1.51-5.35-1.04-4.81-.18-10.02,2.53-14.14.85-1.3,1.79-2.48,2.94-3.58-.74,3.04-1.21,5.99-1.3,9.05-.05,1.82.17,3.5.71,5.23.59,1.85,1.3,3.59,2.08,5.37l2.57,6.51c.65,1.87,1.18,3.7,1.58,5.63.38,1.82.46,3.58.31,5.43-.27,3.23-1.32,6.27-3.18,8.93-.77,1.09-1.54,2.12-2.62,3.1Z"/>
      <path d="M83.49,65.25h-4.22c-.27,0-.49-.23-.49-.5v-1.7c0-.29.24-.53.53-.53h7.26c.29,0,.52.24.52.51v2.08c0,3.61-3.09,6.4-6.48,7.08-2.1.42-4.28.33-6.31-.32-2.83-.9-4.9-3.16-5.54-6.05-.36-1.61-.37-3.23-.06-4.86.66-3.4,3.13-5.81,6.5-6.56,1.77-.39,3.57-.42,5.35-.1,1.82.33,3.42,1.18,4.67,2.52.85.91,1.43,1.99,1.61,3.23.05.34-.21.61-.53.61h-2.42c-.42,0-.65-.29-.78-.65-.48-1.29-1.46-2.39-2.78-2.85s-2.67-.45-3.99-.11c-1.77.46-3.2,1.85-3.74,3.59-.47,1.54-.51,3.18-.13,4.74.4,1.65,1.45,3.11,3.01,3.78,2.26.97,5.19.67,6.88-1.22.71-.71,1.16-1.62,1.13-2.7Z"/>
      <path d="M104.57,65.25h-4.19c-.28,0-.51-.24-.51-.51v-1.7c0-.27.21-.52.52-.52h7.26c.33,0,.54.26.54.56v2c-.02,1.31-.38,2.62-1.15,3.67-1.34,1.83-3.24,3.04-5.47,3.45-2.55.47-5.18.22-7.56-.88-1.87-.86-3.28-2.53-3.89-4.49-.66-2.14-.74-4.38-.17-6.52.81-3.06,3.21-5.21,6.28-5.9,1.82-.41,3.68-.44,5.51-.1s3.46,1.25,4.7,2.64c.79.88,1.32,1.92,1.49,3.09.05.35-.23.61-.55.61h-2.42c-.39,0-.62-.28-.75-.61-.49-1.31-1.46-2.44-2.82-2.89-1.76-.59-3.72-.43-5.37.45-1.12.59-1.91,1.67-2.29,2.88-.54,1.69-.57,3.48-.11,5.17.56,2.03,2.13,3.51,4.19,3.9,2.19.42,4.28-.07,5.77-1.73.63-.72,1.03-1.55,1-2.58Z"/>
      <path d="M124.15,64.5h-8.91s0,4.58,0,4.58h11.57c.34,0,.59.23.59.56v1.82c0,.26-.23.45-.49.48h-14.72c-.32,0-.5-.19-.55-.49v-16.32c0-.32.21-.5.52-.53h14.71c.31,0,.52.26.52.53v1.81c0,.29-.22.49-.52.52h-11.63s0,4.21,0,4.21h8.88c.33.02.55.24.55.56v1.75c0,.29-.18.52-.52.54Z"/>
      <path d="M46.41,71.93h-2.6c-.29-.03-.5-.2-.5-.51v-6.67s-9.68,0-9.68,0v6.67c0,.31-.22.49-.5.52h-2.57c-.27,0-.52-.2-.52-.52v-16.32c0-.29.24-.5.5-.5h2.56c.32,0,.54.23.54.56v6.74s9.68,0,9.68,0v-6.74c0-.34.21-.55.54-.56h2.49c.32,0,.56.23.56.57v16.28c0,.27-.22.49-.49.49Z"/>
      <path d="M67.67,55.23l-7.43,11.26v4.96c0,.26-.21.47-.47.47h-2.63c-.26-.03-.49-.22-.49-.51v-4.94s-7.45-11.27-7.45-11.27c-.07-.11-.04-.35.01-.44s.24-.17.36-.17h2.56c.49-.02.9.2,1.17.62l5.15,7.89,5.21-7.98c.27-.34.63-.52,1.06-.52h2.64c.1,0,.29.11.34.19.06.1.07.32-.01.45Z"/>
      <path d="M75.05,85.02l-.02-5.65-2.84,5.65c-.06.13-.28.26-.4.26h-1.09c-.16,0-.3-.09-.37-.23l-2.85-5.68-.02,5.58c0,.2-.14.33-.32.34h-1.22c-.11,0-.27-.14-.27-.27v-8.13c0-.13.15-.27.26-.27h1.77c.15,0,.3.12.36.24l3.21,6.42,3.18-6.36c.06-.12.26-.3.37-.3h1.77c.14,0,.29.11.29.27v8.13c0,.13-.19.27-.28.27h-1.24c-.09,0-.27-.14-.28-.26Z"/>
      <path d="M53.19,83.41h-4.63s-.7,1.58-.7,1.58c-.08.18-.25.29-.44.29h-1.25c-.17,0-.29-.19-.21-.34l3.67-7.94c.09-.25.3-.4.54-.4h1.43c.18,0,.37.11.47.28l3.73,8.07s.06.12,0,.23c-.06.09-.17.09-.17.09h-1.34c-.16-.03-.27-.06-.36-.19l-.72-1.68ZM52.5,81.98l-1.63-3.68-1.64,3.68h3.26Z"/>
      <path d="M36.58,80.85v.95c0,.1-.15.25-.27.25h-4.49s0,2.9,0,2.9c0,.16-.14.31-.28.32h-1.24c-.1,0-.28-.14-.28-.27v-8.16c0-.13.11-.24.24-.24h7.06c.16,0,.33.12.33.26v.88c0,.14-.16.29-.33.29h-5.5s0,2.59,0,2.59h4.49c.1,0,.27.13.27.22Z"/>
      <path d="M127.44,76.86l-3.75,5.69v2.48c0,.15-.07.25-.28.25h-1.24c-.18,0-.28-.09-.28-.25v-2.48s-3.74-5.67-3.74-5.67c0,0-.05-.12.03-.2.05-.06.12-.07.17-.07h1.29c.22,0,.45.1.58.29l2.58,3.95,2.58-3.95c.12-.19.36-.29.57-.3h1.31c.19,0,.27.09.19.26Z"/>
      <path d="M92.62,85c0,.11-.1.27-.26.27h-4.97c-.11,0-.28-.07-.28-.24v-.88s0-.15.06-.21c.07-.08.23-.08.23-.08l1.57-.03v-5.79s-1.61,0-1.61,0c0,0-.11,0-.17-.07-.07-.07-.07-.2-.07-.2v-.94c0-.15.11-.22.28-.22h4.97c.16,0,.26.1.26.26v.89c0,.14-.15.29-.3.29h-1.56s0,5.79,0,5.79h1.63c.17.01.24.2.24.29v.88Z"/>
      <path d="M110.25,84.09v.92c0,.15-.18.27-.32.27h-6.8c-.15,0-.27-.12-.27-.27v-8.13c0-.13.15-.27.25-.27h1.24c.14-.01.31.11.31.28v6.95s5.26,0,5.26,0c.14,0,.31.09.31.25Z"/>
    </g>
  </g>
</svg>