<?xml version="1.0" encoding="UTF-8"?>
<svg id="_Шар_1" data-name="Шар_1" xmlns="http://www.w3.org/2000/svg" version="1.1" viewBox="0 0 182 124">
  <!-- Generator: Adobe Illustrator 30.5.1, SVG Export Plug-In . SVG Version: 2.1.4 Build 3)  -->
  <defs>
    <style>
      .st0 {
        fill: #ed1c24;
      }
    </style>
  </defs>
  <path class="st0" d="M89.69,29.21c-1.71,1.7-2.54,4.05-2.43,6.54.12,1.77.58,3.39,1.22,5.04.83,2.14,1.24,4.28,1.12,6.58,2.9-1.41,4.83-3.86,5.81-6.77.76-2.36.85-4.73.5-7.31,5.7,1.42,10.71,4.53,12.81,10.04.87,2.3,1.36,4.62,1.53,7.09,3.53-1.67,4.48-5.35,4.28-8.96,4.6,3.01,7.55,8.13,7.44,13.5-.1,4.83-3.42,8.46-7.92,10.12,1.2-2.55,1.42-5.37.51-7.94-.52.87-1.01,1.53-1.61,2.23-3.11,3.13-7.36,4.78-11.67,5.73,2.13-4.14,2.25-8.92.14-12.99-.26,1.61-.84,3-1.88,4.2l-3.55,4.09c-2.05,2.23-3.18,5.06-2.95,8.17-5.71-2.45-9.4-7.54-10.91-13.54-1.87,3.1-1.71,7.17-.79,10.68l-3.24-1.62-4.73-2.17c-2.06-.95-4.32-2.59-5.01-4.78-.9,2.65-.75,5.37.32,7.95-1.81-.66-3.29-1.61-4.62-2.86-4.4-4.14-4.04-10.19-1.21-15.24,1.33-2.22,3.05-4.1,5.33-5.59-.04,3.82,1.18,7.35,4.75,9.03-.05-3.59.43-7.12,1.94-10.39,2.67-5.76,8.17-9.76,14.32-10.81l.48-.02Z"/>
  <path d="M137.77,89.88v4.41s-12.81,0-12.81,0c-.29,0-.59-.23-.59-.55v-19.64c0-.3.32-.53.58-.53h4.83c.4,0,.7.21.7.68v15.63h7.3Z"/>
  <path d="M80.82,88.99c-2.08,4.47-6.49,6.27-11.35,5.68-1.72-.21-3.28-.86-4.63-1.86l-1.24,1.42c-.64.66-3.31.65-2.64-.06l2.33-2.71c-2.98-3.01-3.24-8.09-1.8-11.92,1.2-3.19,3.81-5.47,7.13-6.2,3.05-.68,6.49-.32,9.1,1.52l1.13-1.26c.52-.67,3.04-.44,2.62.07l-2.24,2.56c1.71,1.81,2.61,4.1,2.7,6.59.08,2.17-.22,4.22-1.12,6.17ZM67.04,87.14l7.8-9c-.71-1.84-2.66-2.64-4.5-1.96-1.4.52-2.39,1.65-3,3.03-.99,2.25-1.1,5.57-.3,7.93ZM75.75,80.26l-7.81,8.95c.6,1.39,1.91,2.2,3.39,2.09,4.47-.33,5.46-6.86,4.43-11.03Z"/>
  <path d="M119.73,73.57c.34,0,.63.21.63.55l-.02,14.75c0,5.54-7.01,6.57-11.83,5.59-2.89-.59-5.32-2.38-5.33-5.47l-.02-14.9c0-.23.26-.52.47-.52h5.07c.3,0,.57.19.57.54l.02,14.1c0,1.45,1.04,2.43,2.38,2.55,1.04.1,2.1.12,2.96-.56.67-.53.95-1.45.95-2.36v-13.79c.01-.27.25-.5.49-.5h3.67Z"/>
  <path d="M94.39,94.28h-4.82c-.33,0-.61-.27-.61-.63v-15.79s-4.67,0-4.67,0c-.29,0-.56-.29-.57-.56v-3.13c0-.29.23-.59.57-.59h15.38c.24,0,.53.27.53.47v3.26c.01.27-.26.56-.56.56h-4.68s0,15.78,0,15.78c0,.33-.27.64-.58.64Z"/>
  <path d="M44.93,93.88c-.24-.12-.73-.47-.73-.7l-.02-3.08c0-.11.05-.27.15-.39.22-.24.56-.06.56-.06,1.52,1.09,3.33,1.45,5.1.92,1.31-.43,1.59-1.73,1.59-3.19v-13.3c0-.25.29-.5.51-.5h4.96c.34,0,.63.22.63.63v14.03c0,1.28-.13,2.49-.83,3.53-1.51,2.28-4.74,2.94-7.46,3.01-1.56.04-3.02-.2-4.46-.9Z"/>
  <g>
    <path d="M135.33,73.51c-1.38,0-2.5,1.12-2.5,2.5s1.12,2.5,2.5,2.5,2.5-1.12,2.5-2.5-1.12-2.5-2.5-2.5ZM135.33,78.17c-1.19,0-2.17-.97-2.17-2.17s.97-2.17,2.17-2.17,2.17.97,2.17,2.17-.97,2.17-2.17,2.17Z"/>
    <path d="M136.27,75.93c.11-.13.16-.28.16-.47,0-.22-.08-.4-.23-.52-.15-.13-.37-.19-.65-.19h-1.17v2.49h.34v-1.03h.78l.65,1.03h.39l-.71-1.07c.19-.03.34-.11.45-.24ZM134.72,75.94v-.92h.8c.18,0,.33.04.43.11s.15.19.15.33-.05.27-.15.35c-.1.08-.24.12-.41.12h-.81Z"/>
  </g>
</svg>