<?xml version="1.0" encoding="UTF-8"?>
<svg id="_Шар_1" data-name="Шар_1" xmlns="http://www.w3.org/2000/svg" version="1.1" viewBox="0 0 182 124">
  <!-- Generator: Adobe Illustrator 29.0.0, SVG Export Plug-In . SVG Version: 2.1.0 Build 186)  -->
  <defs>
    <style>
      .st0 {
        fill: #1f1d1d;
      }
    </style>
  </defs>
  <path class="st0" d="M85.15,29.88c-.73.06-39.38.63-79.58,22.12l-3.57,1.92v40.29h12.89v-14.57l10.52,14.57h14.35l-17.64-26.49s8.59-7.49,15.79-11.56c10.86-6.14,25.44-10.79,40.83-12.96,9.16-1.31,16.33-1.78,27.21-1.78,11.61,0,20.83.58,33.05,2.13,15.41,1.94,39.29,7.59,39.29,7.59,0,0-11.56-5.75-14.64-7.05-17.77-7.52-35.64-11.98-55.12-13.78-3.81-.35-20.6-.65-23.36-.42Z"/>
  <path class="st0" d="M119.72,56.37v37.84h12.89v-16.53l8.72,10.99,8.72-11.58v17.12h12.89v-37.84h-12.89l-8.72,13.38-8.72-13.38h-12.89Z"/>
  <rect class="st0" x="167.11" y="56.37" width="12.89" height="37.84"/>
  <path class="st0" d="M106.66,77.43l.86-.58c3.71-2.45,6.98-6.61,7.89-10.07.42-1.59.42-5.09-.02-7.17-1.85-8.76-9.39-12.08-26.86-11.84-.17,0-13.43,0-13.43,0v46.42h12.89v-16.12l5.68.02,10.28,16.09h12.95s-10.24-16.77-10.24-16.77ZM97.51,68.18c-1.89.4-9.51.22-9.51.22v-10.35s5.35-.06,7.41.18c4.11.47,6.66,1.94,7.26,4.16.72,2.78-1.19,4.93-5.16,5.79Z"/>
  <polygon class="st0" points="70.9 64.54 70.9 56.37 54.09 56.37 50.47 56.37 40.77 56.37 40.77 94.2 50.47 94.2 54.09 94.2 70.9 94.2 70.9 86.5 54.09 86.5 54.09 79.63 70.9 79.63 70.9 71.55 54.09 71.55 54.09 64.54 70.9 64.54"/>
</svg>