<?xml version="1.0" encoding="UTF-8"?>
<svg id="_Шар_1" data-name="Шар_1" xmlns="http://www.w3.org/2000/svg" version="1.1" viewBox="0 0 182 124">
  <!-- Generator: Adobe Illustrator 30.5.1, SVG Export Plug-In . SVG Version: 2.1.4 Build 3)  -->
  <defs>
    <style>
      .st0 {
        fill: #c40e1d;
      }
    </style>
  </defs>
  <rect class="st0" x="22.6" y="29.06" width="136.54" height="4.91"/>
  <rect class="st0" x="22.6" y="75.5" width="136.54" height="4.91"/>
  <path d="M63.94,94.94s-3.02,0-4.07,0c-.71,0-1.25-.36-1.24-1.23v-5.78c0-.75.56-1.23,1.24-1.23h4.07c.87,0,1.24.5,1.24,1.23v5.78c0,.6-.52,1.23-1.24,1.23ZM63.94,93.71v-5.78h-4.07v5.78h4.07Z"/>
  <path d="M92.98,94.94s-3.02,0-4.07,0c-.71,0-1.25-.36-1.24-1.23v-5.78c0-.75.56-1.23,1.24-1.23h4.07c.87,0,1.24.5,1.24,1.23v5.78c0,.6-.52,1.23-1.24,1.23ZM92.98,93.71v-5.78h-4.07v5.78h4.07Z"/>
  <path d="M110.27,94.94s-3.02,0-4.07,0c-.71,0-1.25-.36-1.24-1.23v-5.78c0-.75.56-1.23,1.24-1.23h4.07c.87,0,1.24.5,1.24,1.23v5.78c0,.6-.52,1.23-1.24,1.23ZM110.27,93.71v-5.78h-4.07v5.78h4.07Z"/>
  <path d="M132.53,94.93s-3.02,0-4.07,0c-.71,0-1.25-.36-1.24-1.23v-5.78c0-.75.56-1.23,1.24-1.23h4.07c.87,0,1.24.5,1.24,1.23v5.78c0,.6-.52,1.23-1.24,1.23ZM132.53,93.7v-5.78h-4.07v5.78h4.07Z"/>
  <path d="M126.33,87.92v-1.21c-.07-.02-4.31-.03-4.31-.03-.69,0-1.24.48-1.25,1.23v5.78c0,.87.54,1.22,1.25,1.23,1.05,0,4.24,0,4.31-.03v-1.21h-4.31v-5.78h4.31Z"/>
  <polygon points="101.61 94.94 100.37 94.94 96.4 89.11 96.4 94.94 95.16 94.94 95.16 86.7 96.4 86.7 100.37 92.51 100.37 86.7 101.61 86.7 101.61 94.94"/>
  <polygon points="35.15 94.94 33.9 94.94 33.9 91.17 30.42 91.17 30.42 94.93 29.18 94.94 29.18 86.7 30.42 86.7 30.42 89.95 33.9 89.95 33.9 86.7 35.15 86.7 35.15 94.94"/>
  <polygon points="41.17 94.94 36.15 94.94 36.15 86.7 41.17 86.7 41.17 87.93 37.4 87.92 37.39 89.94 41.17 89.95 41.17 91.17 37.4 91.17 37.4 93.71 41.17 93.71 41.17 94.94"/>
  <polygon points="49.44 94.94 44.42 94.94 44.42 86.7 49.44 86.7 49.44 87.93 45.67 87.92 45.66 89.94 49.44 89.95 49.44 91.17 45.67 91.17 45.67 93.71 49.44 93.71 49.44 94.94"/>
  <polygon points="152.74 94.93 147.73 94.93 147.73 86.69 152.74 86.69 152.74 87.92 148.97 87.91 148.97 89.94 152.74 89.94 152.74 91.17 148.97 91.17 148.97 93.7 152.74 93.7 152.74 94.93"/>
  <path d="M140.3,87.93v2.02c0,.6-.52,1.23-1.24,1.23h-2.65v-1.23h2.65v-2.02h-3.11v7.01h-1.24v-8.24h4.34c.86,0,1.25.5,1.25,1.23Z"/>
  <path d="M146.79,87.93v2.02c0,.6-.52,1.23-1.24,1.23h-2.65v-1.23h2.65v-2.02h-3.11v7.01h-1.24v-8.24h4.34c.86,0,1.25.5,1.25,1.23Z"/>
  <path d="M159.45,94.93h-1.57l-2.64-3.76v-1.22h2.65v-2.02h-3.11v7.01h-1.24v-8.24h4.34c.86,0,1.25.49,1.25,1.22v2.02c0,.6-.52,1.22-1.24,1.22h-1.01,0s2.56,3.76,2.56,3.76Z"/>
  <path d="M140.3,88.71c0,.08,0,.17,0,.27v-.6c0,.1,0,.21,0,.32Z"/>
  <polygon points="54.6 94.94 53.35 94.94 50.27 86.7 51.64 86.7 53.98 92.95 56.31 86.7 57.68 86.7 54.6 94.94"/>
  <polygon points="113.69 94.94 112.45 94.94 112.45 86.7 117.46 86.7 117.46 87.93 113.69 87.93 113.69 89.95 117.46 89.95 117.46 91.17 113.69 91.17 113.69 94.94"/>
  <polygon points="82.52 94.94 81.28 94.94 81.28 87.93 78.95 87.93 78.95 86.7 84.85 86.7 84.85 87.93 82.52 87.93 82.52 94.94"/>
  <polygon points="26.16 94.94 24.91 94.94 24.91 87.93 22.55 87.93 22.55 86.7 28.52 86.7 28.52 87.93 26.16 87.93 26.16 94.94"/>
  <polygon points="70.97 94.94 66.06 94.94 66.06 86.7 67.3 86.7 67.3 93.71 70.97 93.71 70.97 94.94"/>
  <rect x="85.51" y="86.7" width="1.24" height="8.24"/>
  <polygon class="st0" points="108.24 72.48 108.24 47.5 100.59 72.45 90.06 72.48 82.39 47.5 82.39 72.48 69.91 72.47 69.9 37.22 89.48 37.2 95.31 57.67 101.12 37.21 120.73 37.21 120.73 72.45 108.24 72.48"/>
  <polygon class="st0" points="52.11 50.81 69.19 72.46 50.7 72.48 41.05 58.92 36.51 62.91 36.52 72.48 22.6 72.48 22.6 37.21 36.52 37.21 36.53 49.55 43.31 43.04 49.27 37.21 67.78 37.21 52.11 50.81"/>
  <polygon class="st0" points="159.14 59.11 138.68 59.11 138.68 63.82 159.14 63.82 159.13 72.47 124.75 72.49 124.75 37.22 159.13 37.21 159.14 45.87 138.68 45.87 138.67 50.5 159.13 50.5 159.14 59.11"/>
  <path d="M77.04,86.7v7.01h-4.07v-7.01h-1.24v7.01c0,.87.53,1.22,1.24,1.22,1.06,0,4.07,0,4.07,0,.72,0,1.24-.62,1.24-1.22v-7.01h-1.24Z"/>
</svg>