<?xml version="1.0" encoding="UTF-8"?>
<svg id="_Шар_1" data-name="Шар_1" xmlns="http://www.w3.org/2000/svg" version="1.1" viewBox="0 0 182 124">
  <!-- Generator: Adobe Illustrator 30.4.0, SVG Export Plug-In . SVG Version: 2.1.4 Build 226)  -->
  <defs>
    <style>
      .st0 {
        fill: #0061ad;
        fill-rule: evenodd;
      }
    </style>
  </defs>
  <path class="st0" d="M41.59,59.87c2.19,0,4.03-1.75,4.03-3.94v-5.52h-1.58v5.61c0,1.31-1.05,2.37-2.45,2.37h-2.37v-7.88h-1.58v9.55h3.94v-.18Z"/>
  <path class="st0" d="M41.59,63.03c3.07,0,5.61,2.54,5.61,5.61v7.1h1.58v-7.1c0-2.72-1.58-5.17-3.85-6.31,2.28-1.23,3.85-3.59,3.85-6.39v-5.61h-1.58v5.61c0,3.07-2.54,5.61-5.61,5.61h-5.43v-11.21h-1.58v25.4h1.58v-12.7h5.43"/>
  <g>
    <path class="st0" d="M31.35,75.73h1.58v-25.32h-1.58v25.32Z"/>
    <path class="st0" d="M41.59,64.69c2.19,0,4.03,1.75,4.03,3.94v7.1h-1.58v-7.1c0-1.31-1.05-2.37-2.45-2.37h-2.37v9.46h-1.58v-11.04h3.94Z"/>
    <path class="st0" d="M47.55,62.24c.44-.35.7-.7,1.05-1.14,1.14-1.49,1.66-3.24,1.66-5.17v-5.52h1.66v5.61c0,2.45-.79,4.64-2.19,6.39,1.4,1.66,2.19,3.94,2.19,6.31v7.1h-1.58v-7.1c0-2.63-1.05-4.91-2.8-6.48"/>
    <path class="st0" d="M54.65,63.03c0,6.48,5.26,11.65,11.65,11.65s11.65-5.17,11.65-11.65-5.26-11.65-11.65-11.65-11.65,5.26-11.65,11.65M53.07,63.03c0,7.27,5.87,13.14,13.14,13.14s13.14-5.87,13.14-13.14-5.87-13.14-13.14-13.14-13.14,5.96-13.14,13.14"/>
    <path class="st0" d="M57.71,63.03c0,4.64,3.85,8.58,8.58,8.58s8.5-3.85,8.5-8.58-3.77-8.5-8.5-8.5-8.58,3.85-8.58,8.5M56.14,63.03c0,5.61,4.56,10.07,10.07,10.07s10.07-4.56,10.07-10.07-4.56-9.99-10.07-9.99c-5.52,0-10.07,4.47-10.07,9.99"/>
    <path class="st0" d="M60.87,63.03c0,2.98,2.45,5.52,5.43,5.52s5.43-2.54,5.43-5.52-2.54-5.43-5.52-5.43-5.34,2.45-5.34,5.43M59.2,63.03c0,3.85,3.15,7.01,7.01,7.01s6.92-3.15,6.92-7.01-3.15-6.92-6.92-6.92c-3.85,0-7.01,3.15-7.01,6.92"/>
    <path class="st0" d="M99.94,65.48c1.14-1.58,1.75-3.59,1.75-5.61,0-5.26-4.29-9.55-9.55-9.55h-11.04v25.32h1.58v-23.65h9.55c4.38,0,7.88,3.59,7.88,7.88,0,1.58-.53,3.07-1.31,4.38-.26.44-.53.79-.96,1.23,1.49,1.49,2.28,3.5,2.28,5.61v4.64h1.58v-4.64c.09-2.1-.61-4.03-1.75-5.61"/>
    <path class="st0" d="M92.23,63.03c1.75,0,3.15-1.4,3.15-3.15s-1.4-3.15-3.15-3.15h-4.73v18.92h1.58v-17.34h3.15c.88,0,1.58.7,1.58,1.58s-.7,1.58-1.58,1.58h-1.58v1.58h1.58Z"/>
    <path class="st0" d="M95.38,71c0-1.75-1.4-3.24-3.15-3.24h-1.58v1.58h1.58c.88,0,1.58.7,1.58,1.58v4.64h1.58s0-4.56,0-4.56Z"/>
    <path class="st0" d="M95.29,65.48c1.93,1.05,3.24,3.15,3.24,5.61v4.64h-1.58v-4.64c0-2.63-2.19-4.73-4.73-4.73h-1.58v-1.58h1.58c2.54,0,4.73-2.1,4.73-4.73s-2.19-4.73-4.73-4.73h-6.39v20.59h-1.49v-22.34h7.88c3.5,0,6.31,2.8,6.31,6.31,0,2.45-1.31,4.47-3.24,5.61"/>
    <path class="st0" d="M125.16,60.66c0-5.61-4.64-10.34-10.25-10.34s-10.34,4.64-10.34,10.34v14.98h1.58v-14.98c0-4.82,3.85-8.67,8.67-8.67s8.67,3.85,8.67,8.67v14.98h1.58v-14.98h.09Z"/>
    <path class="st0" d="M109.31,60.66c0-3.07,2.54-5.61,5.61-5.61s5.61,2.54,5.61,5.61v5.61h-11.12v-5.61h-.09ZM122.01,60.66c0-3.94-3.24-7.1-7.1-7.1s-7.18,3.15-7.18,7.1v14.98h1.58v-7.88h11.12v7.88h1.58v-14.98Z"/>
    <path class="st0" d="M112.46,60.66c0-1.31,1.14-2.45,2.45-2.45s2.37,1.14,2.37,2.45v2.37h-4.73v-2.37h-.09ZM118.86,60.66c0-2.19-1.75-3.94-3.94-3.94s-3.94,1.75-3.94,3.94v3.94h7.88v-3.94Z"/>
    <path class="st0" d="M110.97,75.73v-6.31h7.88v6.31h-1.58v-4.64h-4.73v4.64h-1.58Z"/>
    <path class="st0" d="M137.6,51.99c6.04,0,11.04,4.99,11.04,11.04s-4.99,11.13-11.04,11.13v1.58c6.92,0,12.7-5.61,12.7-12.7s-5.69-12.7-12.7-12.7h-9.55v25.32h1.58v-23.65h7.97Z"/>
    <path class="st0" d="M137.6,55.14c4.38,0,7.88,3.59,7.88,7.88s-3.59,7.97-7.88,7.97v1.58c5.26,0,9.46-4.29,9.46-9.55s-4.2-9.46-9.46-9.46h-6.39v22.07h1.58v-20.5h4.82Z"/>
    <path class="st0" d="M137.6,58.3c2.54,0,4.73,2.19,4.73,4.73s-2.19,4.73-4.73,4.73v1.58c3.5,0,6.31-2.8,6.31-6.39s-2.8-6.31-6.31-6.31h-3.24v18.92h1.58v-17.26h1.66Z"/>
    <path class="st0" d="M177.55,48.83c1.31,0,2.45,1.14,2.45,2.45s-1.14,2.45-2.45,2.45-2.45-1.14-2.45-2.45,1.14-2.45,2.45-2.45M177.55,49.36c1.05,0,1.93.88,1.93,1.93s-.88,1.93-1.93,1.93-1.93-.88-1.93-1.93c-.09-1.05.88-1.93,1.93-1.93"/>
    <path class="st0" d="M177.55,50.24c.26,0,.53.26.53.53s-.26.44-.53.44h-.61v-.96h.61ZM177.72,49.89c.44,0,.7.44.7.79,0,.44-.26.7-.61.7,0,0,.7,1.14.61,1.14h-.35l-.7-1.14h-.44v1.14h-.53l.09-2.63s1.23,0,1.23,0Z"/>
    <path class="st0" d="M2,63.55h6.31v-13.14H2v13.14Z"/>
    <path class="st0" d="M2,65.22h6.31v-1.05H2v1.05Z"/>
    <path class="st0" d="M2,66.88h6.31v-1.05H2v1.05Z"/>
    <path class="st0" d="M2,75.64h6.31v-8.06H2v8.06Z"/>
    <path class="st0" d="M21.97,75.64s-1.58-8.06-10.25-8.06h-2.72v8.06s12.96,0,12.96,0Z"/>
    <path class="st0" d="M11.55,63.55c13.23,0,12.18-13.14,12.18-13.14h-14.72v13.14h2.54Z"/>
    <path class="st0" d="M11.72,66.88c9.64,0,10.95,8.67,10.95,8.67h.96s-1.4-9.72-11.91-9.72h-2.72v1.05h2.72Z"/>
    <path class="st0" d="M11.64,65.22c12,0,12.79,10.42,12.79,10.42h2.89v-25.23h-2.89s1.49,13.84-12.79,13.84h-2.63v1.05h2.63v-.09Z"/>
    <path class="st0" d="M152.93,63.03c0,6.48,5.17,11.65,11.56,11.65s11.65-5.17,11.65-11.65-5.17-11.65-11.65-11.65c-6.39,0-11.56,5.26-11.56,11.65M151.27,63.03c0,7.27,5.96,13.14,13.14,13.14s13.23-5.87,13.23-13.14-5.96-13.14-13.23-13.14c-7.18,0-13.14,5.96-13.14,13.14"/>
    <path class="st0" d="M156,63.03c0,4.64,3.77,8.58,8.5,8.58s8.58-3.85,8.58-8.58-3.77-8.5-8.58-8.5c-4.73,0-8.5,3.85-8.5,8.5M154.42,63.03c0,5.61,4.56,10.07,9.99,10.07s10.07-4.56,10.07-10.07-4.56-9.99-10.07-9.99c-5.43,0-9.99,4.47-9.99,9.99"/>
    <path class="st0" d="M159.06,63.03c0,2.98,2.45,5.52,5.43,5.52s5.52-2.54,5.52-5.52-2.54-5.43-5.52-5.43c-3.07,0-5.43,2.45-5.43,5.43M157.49,63.03c0,3.85,3.15,7.01,6.92,7.01s7.01-3.15,7.01-7.01-3.15-6.92-7.01-6.92c-3.77,0-6.92,3.15-6.92,6.92"/>
  </g>
</svg>