<?xml version="1.0" encoding="UTF-8"?>
<svg id="_Шар_1" data-name="Шар_1" xmlns="http://www.w3.org/2000/svg" version="1.1" viewBox="0 0 182 124">
  <!-- Generator: Adobe Illustrator 30.4.0, SVG Export Plug-In . SVG Version: 2.1.4 Build 226)  -->
  <defs>
    <style>
      .st0 {
        fill: #115191;
      }
    </style>
  </defs>
  <polygon class="st0" points="25.59 75.91 72.43 75.91 72.43 79.43 14.59 79.43 2 62.79 4.81 60.66 16.35 75.91 21.17 75.91 11.23 62.78 14.05 60.66 25.59 75.91"/>
  <path class="st0" d="M100.16,79.43h-15.5v-2.17h2.65c1.13-.02,2.06-1.11,2.06-2.28v-27.25s-4.14,0-4.14,0c-2.33,0-4.76.9-5.15,3.25-.11.64-.28,2.57-.28,2.57h-2.14l.49-8.98h28.56l.49,8.98h-2.14s-.16-1.86-.26-2.47c-.37-2.41-2.79-3.36-5.16-3.36h-4.2v27.22c0,1.2.79,2.3,1.99,2.32h2.73v2.17Z"/>
  <polygon class="st0" points="160.83 48.08 170.77 61.21 167.95 63.33 156.41 48.08 112.7 48.09 112.7 44.57 167.41 44.57 180 61.2 177.19 63.34 165.65 48.09 160.83 48.08"/>
  <path class="st0" d="M50.89,66.47v1.75h-11.72v-1.75s1.36.06,1.75-.33c.25-.25-.01-.81-.28-1.07l-6.9-6.88v6.49c0,.98.61,1.72,1.61,1.8h1.64s0,1.75,0,1.75h-10.82v-1.75h1.7c.68-.02,1.27-.78,1.27-1.52v-17.03c0-.82-.75-1.49-1.47-1.49h-1.5v-1.75h10.82v1.75h-1.5c-.74,0-1.76.67-1.76,1.49v6.64s6.81-6.52,6.81-6.52c.3-.3.55-.65.65-1.07.05-.2,0-.53-.68-.53h-1.35v-1.75h9.21v1.75s-.62,0-.98,0c-1.29,0-2.73,1.03-3.65,1.94l-7.02,7.01,8.91,8.9c1.42,1.42,3.21,2.22,5.24,2.19Z"/>
  <path class="st0" d="M145.17,76.37c0,.73.47,1.31,1.21,1.33.5,0,1.98.04,1.98.04v1.69s-10.64,0-10.64,0v-1.69s1.42-.03,1.89-.04c.45-.01,1.21-.42,1.21-.98v-17.96c0-.69-.73-1.18-1.32-1.19-.44,0-1.77,0-1.77,0v-1.74h10.35c2.13,0,4.17.56,5.86,1.76,2.8,1.98,3.25,5.75.97,8.31-1.05,1.17-2.36,2.02-3.88,2.47l5.36,7.24c1.11,1.5,2.98,2.06,4.81,2.16v1.68s-6.91,0-6.91,0l-7.83-10.6h-1.28s0,7.55,0,7.55ZM151.01,64.49c.41-.86.56-1.75.53-2.68.02-1.35-.71-2.49-1.94-3.05-1.41-.63-2.98-.67-4.43-.35v8.47c2.21-.08,4.69-.35,5.84-2.39Z"/>
  <path class="st0" d="M70.32,64.67c-4.33,4.73-11.51,4.71-15.82.03s-4.27-11.8-.15-16.44c4.23-4.78,11.4-4.94,15.81-.32s4.48,12.03.16,16.74ZM66.65,64.15c2.25-2.75,2.42-7.7,1.79-11.18s-2.62-6.25-6.28-6.11c-3.31.12-5.11,2.67-5.74,5.76-.72,3.53-.57,8.45,1.62,11.34s6.46,2.83,8.61.2Z"/>
  <path class="st0" d="M125.39,72.08h-7.81s-1.31,3.06-1.75,4.08c-.18.43.06.88.39,1.11.67.33,1.33.45,2.09.46v1.69h-8.12v-1.68c1.5-.08,2.67-.99,3.25-2.35l8.42-19.58h1.15l8.39,19.68c.6,1.41,1.84,2.26,3.43,2.23v1.7h-9.93v-1.68s1.11,0,1.48-.09c.73-.17.94-.85.72-1.56l-1.71-4.02ZM124.4,69.76l-2.92-6.8-2.91,6.79h5.84Z"/>
</svg>