<?xml version="1.0" encoding="UTF-8"?>
<svg id="_Шар_1" data-name="Шар_1" xmlns="http://www.w3.org/2000/svg" version="1.1" viewBox="0 0 182 124">
  <!-- Generator: Adobe Illustrator 29.0.0, SVG Export Plug-In . SVG Version: 2.1.0 Build 186)  -->
  <polygon points="83.48 50.4 78.45 50.4 69.43 61.07 69.43 50.4 65.19 50.4 65.19 73.6 69.43 73.6 69.43 61.97 78.81 73.6 84.11 73.6 73.9 61.27 83.48 50.4"/>
  <path d="M101.6,61.44c.67-1.08,1.01-2.53,1.01-4.34,0-4.46-2.71-6.7-8.12-6.7h-7.76v23.2h4.24v-9.21h3.12l5.37,9.21h4.67l-5.8-9.78c1.5-.51,2.59-1.3,3.26-2.39ZM97.27,59.99c-.62.52-1.56.78-2.82.78h-3.55v-6.6h3.25c1.44,0,2.47.27,3.1.8s.94,1.34.94,2.42c0,1.22-.31,2.08-.93,2.6Z"/>
  <path d="M111.42,68.07h9.35l1.82,5.54h4.34l-8.15-23.2h-5.14l-8.29,23.2h4.21l1.86-5.54ZM116.13,54.05l3.41,10.31h-6.89l3.48-10.31Z"/>
  <polygon points="141.92 68.83 136.28 50.4 129.69 50.4 129.69 73.6 133.83 73.6 133.83 54.77 139.76 73.6 143.87 73.6 149.77 54.81 149.77 73.6 153.92 73.6 153.92 50.4 147.45 50.4 141.92 68.83"/>
  <path d="M177.22,53.17c-1.86-2.09-4.61-3.13-8.25-3.13-3.38,0-6.04,1.04-7.97,3.12-1.93,2.08-2.9,5.03-2.9,8.85s.94,6.86,2.83,8.9c1.89,2.04,4.6,3.07,8.14,3.07s6.1-.99,8.04-2.98c1.93-1.99,2.9-4.98,2.9-8.98s-.93-6.75-2.78-8.83ZM173.98,68.2c-1.03,1.33-2.59,1.99-4.69,1.99-4.46,0-6.7-2.73-6.7-8.19s2.12-8.19,6.36-8.19c2.23,0,3.88.65,4.96,1.96,1.07,1.3,1.61,3.38,1.61,6.23s-.51,4.87-1.54,6.2Z"/>
  <polygon points="109.01 80.68 112.17 80.68 112.17 90.6 113.54 90.6 113.54 80.68 116.69 80.68 116.69 79.33 109.01 79.33 109.01 80.68"/>
  <path d="M122.24,79.16c-1.48,0-2.65.51-3.5,1.52-.85,1.02-1.28,2.44-1.28,4.28s.42,3.3,1.26,4.3c.84,1,2.03,1.5,3.57,1.5s2.68-.49,3.54-1.47c.86-.98,1.29-2.42,1.29-4.33s-.41-3.25-1.23-4.27c-.82-1.02-2.04-1.53-3.64-1.53ZM124.84,88.33c-.54.72-1.35,1.08-2.42,1.08-2.34,0-3.5-1.48-3.5-4.45,0-1.53.29-2.65.88-3.37.58-.72,1.4-1.08,2.45-1.08,1.15,0,2,.35,2.57,1.05.56.7.85,1.83.85,3.4s-.27,2.65-.81,3.37Z"/>
  <path d="M132.53,79.33h-3.14v11.28h1.37v-4.16h1.65c2.51,0,3.76-1.2,3.76-3.61,0-1.21-.3-2.1-.9-2.67-.6-.56-1.51-.85-2.74-.85ZM134.19,84.55c-.35.36-.94.54-1.77.54h-1.65v-4.41h1.65c.83,0,1.42.17,1.77.51.35.34.53.9.53,1.68s-.18,1.32-.53,1.68Z"/>
  <path d="M53.97,66.67c.14-.19.27-.39.37-.6.21-.43.23-.87.03-1.3-.29-.64-.34-1.32-.29-2.01.04-.55.03-1.11-.1-1.65-.06-.25-.15-.5-.25-.74-.16-.39-.26-.77-.18-1.19.06-.3.18-.57.32-.83.11-.2.22-.4.32-.61.2-.42.21-.84.02-1.27-.08-.2-.18-.39-.27-.58-.24-.5-.37-1.02-.3-1.57.08-.67,0-1.31-.25-1.93-.04-.11-.07-.24-.07-.36,0-.62,0-1.25,0-1.87,0-.58,0-1.15,0-1.73,0-.16-.01-.32-.05-.47-.09-.37-.32-.64-.65-.82-.78-.45-1.56-.9-2.34-1.35-.14-.08-.21-.17-.21-.34,0-.35-.09-.67-.32-.94-.2-.24-.41-.47-.63-.69-.25-.26-.54-.42-.89-.5-.78-.19-1.55-.4-2.3-.7-.4-.16-.79-.34-1.13-.6-.2-.15-.34-.34-.44-.57-.1-.21-.21-.43-.34-.62-.25-.36-.59-.58-1.03-.63-.61-.06-1.15-.28-1.67-.6-.15-.09-.3-.2-.46-.28-.35-.19-.7-.39-1.07-.55-.3-.14-.63-.21-.96-.23-.63-.05-1.14-.31-1.51-.83-.09-.12-.16-.26-.24-.39-.11-.18-.22-.36-.34-.52-.26-.36-.61-.58-1.06-.63-.23-.03-.45-.06-.68-.07-.57-.04-1.08-.22-1.54-.56-.55-.4-1.15-.66-1.84-.71-.3-.02-.56-.12-.81-.28-.6-.36-1.22-.69-1.82-1.06-.51-.3-1-.31-1.51,0-.68.4-1.37.79-2.05,1.19-.13.07-.25.13-.41.13-.14,0-.27.03-.41.05-.61.1-1.15.36-1.64.72-.43.31-.91.46-1.43.51-.25.02-.51.04-.76.08-.38.05-.7.22-.94.52-.11.14-.21.29-.31.44-.11.16-.19.34-.3.5-.33.49-.78.8-1.38.87-.22.03-.44.05-.65.1-.57.13-1.08.41-1.58.72-.29.18-.59.36-.9.52-.33.18-.69.29-1.07.32-.62.05-1.06.38-1.35.91-.06.11-.12.22-.16.34-.1.27-.28.47-.51.64-.3.22-.63.38-.97.52-.78.32-1.6.55-2.42.75-.35.09-.64.25-.89.51-.2.2-.39.41-.58.63-.25.28-.37.62-.36.99,0,.15-.05.23-.18.31-.79.45-1.57.91-2.36,1.36-.51.29-.75.71-.75,1.29,0,1.24,0,2.48,0,3.72,0,.12-.03.25-.07.36-.18.49-.26,1-.23,1.53.01.22.05.44.04.66-.02.47-.16.91-.37,1.33-.09.18-.18.38-.25.57-.1.26-.14.54-.06.81.05.17.11.34.19.5.1.21.23.41.34.62.32.6.36,1.22.06,1.84-.24.52-.35,1.06-.35,1.63,0,.41,0,.82,0,1.23.01.56-.08,1.1-.31,1.62-.16.36-.17.73-.02,1.09.1.24.22.48.38.69.22.29.31.61.33.96.02.52-.04,1.02-.15,1.52-.15.67-.32,1.33-.49,1.99-.05.18-.07.36-.04.55.06.43.21.83.35,1.23.1.27.27.49.51.64.12.08.16.17.16.31,0,.64,0,1.29,0,1.93,0,.36.13.68.4.93.11.1.24.19.37.27.73.43,1.46.84,2.2,1.27.09.05.18.12.23.2.42.62.98,1.08,1.67,1.36.6.25,1.05.65,1.42,1.18.14.2.3.4.47.58.22.23.5.36.81.38.34.03.68.04,1.02.03.68,0,1.23.26,1.63.81.34.46.76.81,1.24,1.08.36.2.74.39,1.1.58.49.26.94.59,1.28,1.05.24.33.59.51.99.56.25.03.5.03.75,0,.3-.04.58-.02.85.1.36.15.69.36,1,.59.66.49,1.27,1.06,1.85,1.64.23.23.5.39.82.47.3.07.61.13.92.18.12.02.25.04.37.02.16-.03.29,0,.43.08.87.51,1.74,1.01,2.61,1.51.22.13.46.19.71.18.25,0,.47-.08.69-.21.86-.5,1.73-1,2.59-1.5.13-.08.26-.1.41-.08.1.02.21.01.31,0,.2-.03.4-.07.59-.1.53-.08.98-.28,1.36-.68.51-.53,1.06-1.02,1.65-1.46.34-.26.7-.5,1.1-.66.23-.09.46-.13.71-.1.21.02.43.04.64.04.5,0,.92-.2,1.22-.6.3-.39.67-.7,1.1-.93.28-.15.57-.29.85-.44.66-.34,1.25-.76,1.7-1.37.37-.5.89-.74,1.51-.75.26,0,.51,0,.77,0,.55,0,1.01-.2,1.35-.65.11-.14.21-.29.32-.44.34-.48.77-.84,1.32-1.07.67-.27,1.23-.7,1.64-1.3.11-.15.23-.26.39-.36.71-.41,1.42-.82,2.13-1.22.34-.19.57-.47.65-.85.04-.15.04-.32.04-.47,0-.58,0-1.16,0-1.75,0-.14.04-.23.16-.31.28-.17.47-.43.57-.74.09-.28.18-.57.27-.85.09-.32.08-.64,0-.96-.16-.59-.32-1.19-.44-1.79-.13-.61-.24-1.22-.15-1.85.03-.24.1-.45.25-.65ZM50.49,74.01c0,.13,0,.27-.02.39-.07.4-.3.69-.65.89-1.43.83-2.87,1.66-4.3,2.49-3.58,2.06-7.15,4.13-10.73,6.19-1.99,1.15-3.98,2.3-5.98,3.45-.47.27-.93.25-1.4-.02-2.45-1.42-4.91-2.83-7.36-4.25-4.52-2.61-9.04-5.22-13.56-7.82-.33-.19-.59-.44-.68-.82-.03-.11-.04-.23-.04-.35,0-.82,0-1.64,0-2.45v-9.72c0-4.02,0-8.03,0-12.05,0-.14,0-.29.03-.43.09-.37.32-.64.65-.82.94-.54,1.87-1.08,2.81-1.62,4.44-2.56,8.88-5.13,13.32-7.69,1.61-.93,3.23-1.86,4.84-2.8.45-.26.9-.29,1.36-.02,5.1,2.95,10.2,5.89,15.3,8.83,1.87,1.08,3.75,2.16,5.62,3.24.15.09.31.19.43.32.23.22.34.5.35.82,0,.07,0,.14,0,.21,0,8.01,0,16.02,0,24.03Z"/>
  <path d="M43.77,69.4s-.04-.05-.09-.09c0,.08-.01.12-.01.17-.01.55,0,1.11-.04,1.66-.02.3-.09.6-.17.89-.08.3-.27.53-.54.69-.5.29-1.36.2-1.51-.66-.08-.44-.05-.88.03-1.32.11-.61.32-1.19.53-1.77.28-.77.58-1.54.83-2.33.25-.78.36-1.58.25-2.4-.09-.69-.36-1.3-.81-1.84-.28-.33-.62-.59-.98-.83-.84-.54-1.48-1.25-1.85-2.18-.26-.65-.36-1.33-.39-2.03-.01-.37,0-.74,0-1.1,0-.07,0-.13-.01-.2-.04,0-.07,0-.08,0-.11.05-.22.09-.32.14-.61.3-1.16.68-1.58,1.22-.54.69-.76,1.48-.78,2.34,0,.24,0,.49,0,.75-.22-.17-.4-.37-.55-.6-.58-.83-.84-1.77-.87-2.77-.01-.47.06-.94.18-1.4.16-.62.42-1.2.73-1.76.52-.95.77-1.97.77-3.05,0-.57-.08-1.15-.22-1.71-.44-1.83-1.28-3.47-2.41-4.98-.03-.03-.06-.06-.12-.12,0,.12,0,.2,0,.28.03.4.1.8.1,1.2.01.56,0,1.12-.03,1.68-.05.76-.28,1.46-.66,2.12-.03.05-.06.09-.11.16-.02-.08-.03-.12-.03-.17-.03-.67-.13-1.32-.28-1.97-.32-1.47-.89-2.85-1.63-4.16-.77-1.36-2.84-3.94-2.85-3.94-.06.17-.62,2.31-.63,3.85,0,.75-.05,1.5-.04,2.25.01.7.07,1.4.11,2.1.03.48.06.95.1,1.43.04.54.1,1.08.15,1.61.05.57.09,1.15.14,1.72.06.73.12,1.46.11,2.2,0,.39-.02.79-.04,1.18-.02.39-.06.79-.09,1.18-.05.47-.1.94-.16,1.4-.03.26-.06.53-.1.79-.03-.03-.04-.06-.04-.09-.03-.37-.07-.74-.09-1.12-.04-.65-.1-1.3-.11-1.95-.01-.83.03-1.66.03-2.5,0-.91,0-1.83-.05-2.74-.05-.84-.18-1.67-.25-2.5-.05-.63-.09-1.27-.11-1.91-.04-1.17.12-2.34.21-3.5.04-.56.08-1.12.11-1.68.02-.39.06-1.29.05-1.36-.42.13-.5.22-.54.62,0,.02-.11.98-.16,1.44-.05.43-.25,2.13-.29,2.56-.04.54-.07,1.09-.11,1.67-.12-1.84-.24-3.64-.37-5.49-.12.06-.19.11-.26.14-.15.06-.2.16-.19.32.04.48.28,3.86.31,4.35.03.48.07.97.11,1.45.04.55.07,1.11.1,1.66.03.53.08,1.05.11,1.58.04.63.07,1.26.1,1.89.04.79.08,1.58.11,2.37.02.73.03,1.47.02,2.21,0,1.32-.03,2.65-.05,3.97,0,.54-.03,1.08-.05,1.62-.02.54-.06,1.08-.08,1.62,0,.25.03.5.04.75.05,1.27-.08,2.52-.3,3.76-.27,1.51-.56,3.01-.84,4.51-.21,1.12-.4,2.24-.51,3.37-.08.87-.13,1.74-.17,2.61-.03.79-.04,1.58-.05,2.37,0,.46,0,.92,0,1.37,0,.07,0,.16.04.19.12.1.25.19.42.22,0-.07.02-.12.02-.16,0-.3.02-.6.02-.89.02-.78.02-1.57.05-2.35.03-.93.07-1.87.13-2.8.04-.63.11-1.27.21-1.9.18-1.15.4-2.29.61-3.43.25-1.36.55-2.71.73-4.09.11-.85.18-1.7.15-2.55-.01-.36-.07-.72-.07-1.08,0-.52.05-1.04.08-1.56.05-.84.11-1.67.15-2.51.03-.71.03-1.41.04-2.12,0-.05,0-.1,0-.14.04.3.06.59.09.89.03.36.07.72.1,1.08.04.39.07.77.1,1.16.04.44.08.88.11,1.33.03.44.04.89.06,1.33.05.85.02,1.71-.03,2.56-.04.7-.13,1.39-.2,2.09-.09.78-.19,1.57-.28,2.35-.1.92-.26,1.84-.49,2.74-.34,1.32-.48,2.67-.44,4.03.04,1.11.06,2.22.09,3.33.02.72.03,1.44.04,2.16,0,.37,0,.75.01,1.12,0,.07,0,.18.05.21.13.11.28.2.47.26,0-.11,0-.18,0-.26-.01-.35-.03-.71-.03-1.06-.03-1.19-.06-2.38-.08-3.58-.01-.6,0-1.21-.02-1.81-.05-1.4.05-2.8.34-4.17.16-.77.3-1.53.45-2.3.11-.61.22-1.22.33-1.84,0,.69,0,1.38.01,2.08.03.85-.08,1.69-.15,2.53-.05.61-.04,1.22.04,1.83.06.44.11.88.11,1.32,0,1.22,0,2.44,0,3.66,0,.66,0,1.31.11,1.97.12.74.39,2.36.4,2.35.05-.02.1-.04.14-.06,1.04-.55,1.9-1.29,2.55-2.27.3-.45.51-.94.6-1.47.07-.39.12-.78.17-1.17.09-.63.04-1.26-.06-1.88-.19-1.25-.64-2.4-1.23-3.51-.02-.04-.06-.08-.09-.12-.01,0-.03,0-.04,0,0,.08-.01.16-.01.24,0,.54,0,1.08,0,1.62,0,.43-.11.84-.27,1.23-.08.19-.2.35-.36.48-.25.19-.53.29-.86.25,0-.11-.02-.21-.02-.3,0-1.51,0-3.02,0-4.54,0-.18.03-.34.09-.51.09-.22.17-.45.25-.68.27-.81.47-1.64.43-2.5-.03-.6-.17-1.18-.48-1.7-.2-.33-.29-.68-.29-1.07,0-.55,0-1.1,0-1.64,0-.73-.01-1.47.1-2.2.1-.69.15-1.39.22-2.09.01-.1.06-.18.15-.23.29-.15.57-.31.86-.47.03-.02.07-.02.13-.03-.01.07-.02.11-.03.16-.12.46-.25.92-.37,1.38-.25.91-.34,1.83-.23,2.78.1.93.43,1.77.96,2.54.34.49.75.9,1.21,1.28.26.21.55.27.85.12.22-.11.45-.23.64-.37.4-.3.69-.7.94-1.12.26-.44.46-.9.63-1.38.03-.08.03-.17.13-.24.04.09.08.16.11.24.11.36.23.73.31,1.1.1.48.16.97.23,1.45.07.55.07,1.1-.08,1.65-.21.78-.65,1.4-1.24,1.93-1.46,1.28-1.91,2.91-1.67,4.78,0,.04.03.07.05.11.02-.03.04-.04.05-.06.02-.04.03-.09.05-.14.14-.47.29-.92.52-1.35.24-.45.55-.82.97-1.12.52-.37,1.07-.67,1.66-.9.42-.16.76-.42,1.06-.75.23-.25.43-.53.57-.84.15-.34.28-.69.42-1.04.02-.06.02-.13.1-.18.03.05.05.08.06.12.29.63.5,1.29.64,1.97.08.4.14.81.11,1.22-.03.47-.11.95-.2,1.42-.16.83-.45,1.62-.95,2.31-.28.38-.6.73-.9,1.09-.05.06-.1.12-.15.18.08.03.14.03.2.02.56-.13,1.12-.26,1.67-.4,1.11-.29,2.21-.63,3.26-1.12.89-.41,1.7-.94,2.36-1.67.59-.65.91-1.4.89-2.28,0-.4-.09-.8-.21-1.18-.26-.82-.66-1.57-1.09-2.31ZM27.03,54.6c-.09-1.68-.2-3.64-.31-5.6.32,1.95.43,3.91.31,5.6Z"/>
  <path d="M22.69,69.11c.26-1.14.47-2.29.7-3.44.29-1.4.6-2.79,1.03-4.15.2-.63.29-1.27.29-1.92,0-.73-.12-1.45-.31-2.15-.26-.95-.54-1.89-.77-2.85-.43-1.81-1.05-3.54-1.84-5.22-.75-1.57-1.31-3.2-1.55-4.93-.02-.16-.04-.32-.07-.52-.14.07-.25.13-.35.19-.09.05-.11.11-.09.21.07.41.13.82.21,1.23.18.88.49,1.72.83,2.54.02.05.04.1.05.15-.22-.39-.41-.79-.63-1.17-.43-.74-.75-1.53-.96-2.36-.02-.06-.04-.12-.07-.21-.12.07-.22.11-.31.18-.04.03-.05.09-.06.14,0,.05.02.09.03.14.26.95.61,1.85,1.09,2.71.34.62.63,1.26.88,1.92.74,1.94,1.28,3.94,1.87,5.92.2.66.32,1.33.37,2.02.06.84-.03,1.68-.09,2.51-.04.52-.1,1.05-.15,1.57-.06.54-.11,1.08-.17,1.62,0-.29.02-.58.03-.87.02-.55.03-1.09.05-1.64.04-1,.06-2,0-2.99-.05-.72-.16-1.43-.32-2.13-.2-.87-.53-1.7-.91-2.51-.49-1.04-.87-2.11-1.08-3.24-.19-1.01-.63-1.88-1.37-2.61-.51-.5-.85-1.11-1.03-1.8-.02-.06-.04-.12-.07-.21-.11.06-.21.11-.29.16-.18.1-.18.1-.12.29.15.53.4,1.02.75,1.45.18.22.37.43.56.64.55.64.92,1.36,1.08,2.19.2,1.08.54,2.11,1.02,3.11.25.52.47,1.07.66,1.61.44,1.27.66,2.57.64,3.92-.01,1.05-.05,2.11-.08,3.16-.02.65,0,1.3-.05,1.95-.03.5-.1.99-.19,1.48-.3,1.55-.88,3-1.6,4.4-.64,1.23-1.51,2.27-2.64,3.08-.43.31-.86.61-1.29.92-.47.34-.89.73-1.23,1.21-.41.57-.66,1.2-.78,1.88,0,.05,0,.14.04.17.12.08.24.18.41.21.02-.14.05-.26.07-.39.21-1.1.78-1.95,1.7-2.58.53-.36,1.04-.73,1.56-1.11.74-.55,1.37-1.21,1.89-1.97.39-.57.71-1.17,1.01-1.79.45-.91.86-1.85,1.14-2.83.02-.05.03-.1.05-.16.02.05.02.09.01.13-.11.63-.19,1.26-.34,1.88-.34,1.44-1,2.72-2.07,3.75-1.27,1.23-2.48,2.52-3.7,3.8-.33.34-.6.71-.77,1.15-.04.1-.07.2-.1.29-.02.06-.02.12.05.16.11.06.21.12.31.17.03-.03.05-.03.05-.05.01-.03.03-.06.04-.1.16-.48.43-.9.78-1.27.22-.23.42-.46.64-.69.85-.92,1.71-1.82,2.62-2.67,1.01-.94,1.79-2.06,2.31-3.34.02-.04.04-.07.05-.11,0,.06,0,.11-.02.17-.34,1.25-.89,2.4-1.74,3.39-.5.59-.99,1.2-1.48,1.8-.68.85-1.16,1.79-1.34,2.87-.05.29-.08.59-.11.89,0,.05.01.14.05.16.1.07.21.15.35.18.02-.05.03-.09.04-.13.04-.32.08-.63.13-.95.1-.6.28-1.17.6-1.69.46-.75.98-1.45,1.56-2.1,1.25-1.39,2.12-2.99,2.53-4.82ZM22.86,65.43c.07-.54.13-1.07.2-1.61.07-.54.14-1.07.2-1.61.06-.56.11-1.12.18-1.67.08-.69.13-1.38.12-2.07-.01-1.18-.18-2.34-.53-3.48-.48-1.54-.95-3.08-1.43-4.62-.14-.44-.45-1.28-.51-1.42,0-.02.07.09.1.15,1.09,2.38,1.87,4.87,2.47,7.41.16.69.33,1.39.48,2.08.17.81.15,1.6-.09,2.4-.47,1.59-.84,3.2-1.18,4.82-.01.05-.03.11-.06.16.02-.18.04-.36.06-.54Z"/>
  <path d="M13.05,51.54c-.18.89-.35,1.79-.54,2.68-.28,1.29-.71,2.53-1.29,3.72-.76,1.55-1.36,3.17-1.73,4.86-.2.93-.36,1.88-.35,2.92-.02.39.03.86.11,1.32.16,1.01.56,1.94,1.03,2.84.33.63.74,1.22,1.23,1.75.46.49.97.93,1.59,1.23.62.3,1.26.4,1.94.28.65-.11,1.22-.41,1.73-.81.75-.58,1.33-1.31,1.82-2.12.87-1.44,1.5-2.98,1.94-4.6.25-.9.44-1.82.57-2.74.08-.51.13-1.03.18-1.55.04-.43.08-.87.11-1.3.02-.44.07-.89.03-1.33-.05-.61-.14-1.22-.24-1.83-.2-1.19-.51-2.35-.85-3.51-.34-1.11-.62-2.24-.92-3.36-.15-.55-.29-1.11-.54-1.64-.3-.64-.71-1.17-1.31-1.55-.74-.46-1.53-.44-2.23.08-.18.14-.35.3-.5.47-.32.34-.56.74-.77,1.16-.49.96-.78,1.98-.99,3.03ZM15.32,47.53c.13-.14.29-.26.46-.36.49-.29.99-.28,1.48,0,.41.23.7.58.92.99.34.63.59,1.3.72,2,.29,1.58.67,3.14,1.11,4.68.18.62.37,1.23.55,1.85.28.9.4,1.82.38,2.75,0,.84-.09,1.65-.2,2.46-.14,1.06-.33,2.1-.59,3.14-.42,1.65-1.01,3.24-1.88,4.71-.4.67-.87,1.29-1.43,1.83-.41.39-.85.73-1.39.93-.81.3-1.59.23-2.34-.18-.31-.17-.58-.38-.83-.62-1.15-1.11-1.98-2.4-2.4-3.95-.18-.67-.25-1.34-.24-2.03.04-2.14.54-4.18,1.4-6.13.3-.69.6-1.37.9-2.06.52-1.21.85-2.47,1.13-3.75.24-1.11.48-2.22.75-3.32.2-.8.5-1.56.96-2.25.16-.24.34-.47.54-.69Z"/>
  <path d="M23.75,71.33c.43-1.18.86-2.37,1.16-3.59.16-.65.27-1.32.42-1.97.18-.8.39-1.59.58-2.38.17-.69.29-1.38.34-2.09.05-.65.04-1.3,0-1.95-.02-.35-.06-.69-.1-1.03-.06-.48-.12-.96-.18-1.44-.08-.62-.15-1.24-.22-1.86-.07-.6-.15-1.19-.23-1.79-.09-.66-.18-1.32-.28-1.97-.1-.64-.21-1.27-.31-1.91-.11-.68-.22-1.37-.32-2.05-.08-.58-.15-1.15-.22-1.73-.06-.48-.1-.96-.14-1.45-.04-.52-.08-1.04-.11-1.55-.02-.28-.03-.55-.05-.86-.09.04-.15.07-.21.09-.18.07-.25.19-.23.38.03.39.03.79.05,1.18.02.42.05.84.09,1.26.04.46.09.92.15,1.38.07.56.15,1.11.23,1.66.11.7.23,1.41.35,2.11.12.73.24,1.46.35,2.19.11.7.22,1.41.31,2.12.1.73.18,1.47.26,2.21.07.66.14,1.32.19,1.98.05.62.07,1.24.11,1.87.05.92-.02,1.83-.25,2.72-.36,1.44-.68,2.88-.98,4.33-.26,1.24-.63,2.45-1.13,3.62-.59,1.37-.87,2.81-.9,4.3-.02.79.05,1.56.14,2.34.09.83.15,1.66.16,2.49,0,.51,0,1.03,0,1.54,0,.06.01.15.05.19.11.09.24.15.41.24.01-.12.02-.18.02-.24,0-.58.02-1.16,0-1.75-.03-.84-.08-1.67-.14-2.51-.04-.63-.1-1.26-.13-1.89-.03-.8.02-1.59.17-2.38.12-.63.35-1.23.56-1.83Z"/>
  <path d="M23.65,68.54c.31-1.77.75-3.5,1.33-5.2.28-.82.5-1.65.58-2.52.08-.84.04-1.66-.16-2.48-.22-.88-.45-1.75-.68-2.63-.62-2.41-1.24-4.82-1.87-7.23-.24-.91-.46-1.83-.61-2.76-.11-.75-.18-1.5-.27-2.25-.02-.16-.03-.33-.05-.52-.12.06-.22.11-.31.16-.11.05-.14.13-.13.25.04.38.05.76.1,1.14.08.61.16,1.22.28,1.82.16.77.36,1.52.55,2.28.75,2.93,1.51,5.86,2.27,8.78.19.74.34,1.48.38,2.25.06,1.15-.1,2.26-.48,3.35-.72,2.09-1.28,4.22-1.56,6.42-.07.58-.22,1.15-.48,1.67-.46.92-.93,1.83-1.5,2.68-.19.29-.37.59-.53.89-.48.9-.76,1.86-.84,2.87-.06.8,0,1.59.16,2.38,0,.05.05.11.09.13.13.08.26.15.43.25,0-.08.01-.12,0-.16-.03-.28-.06-.56-.1-.85-.09-.66-.14-1.32-.08-1.99.07-.79.29-1.53.69-2.22.52-.88,1.04-1.75,1.55-2.63.44-.77.81-1.57.99-2.43.1-.48.16-.97.24-1.45Z"/>
  <path d="M43.67,51.19c-1.16,0-2.19.93-2.19,2.2,0,1.23.98,2.19,2.2,2.19,1.24,0,2.19-1,2.19-2.2,0-1.21-.99-2.19-2.2-2.19Z"/>
  <path d="M11.74,51.96c-.57,2.05-1.25,4.06-1.96,6.07-.44,1.25-.89,2.5-1.25,3.79-.05.16-.07.34-.07.51,0,.51,0,1.03,0,1.54,0,.07,0,.15,0,.22.2.04.21.03.23-.13.05-.4.08-.8.15-1.2.12-.78.34-1.54.59-2.29.52-1.5,1.05-2.99,1.56-4.49.61-1.76,1.18-3.53,1.62-5.34.29-1.2.8-2.28,1.65-3.19.04-.04.06-.08.09-.13-.01-.01-.02-.02-.03-.04-.06.03-.12.06-.18.09-.22.13-.44.26-.67.38-.13.07-.22.16-.3.28-.41.61-.73,1.26-.93,1.96-.18.65-.34,1.31-.52,1.97Z"/>
  <path d="M8.54,59.4c-.03.09-.07.18-.07.28,0,.35,0,.69,0,1.04,0,.03.01.06.02.09.02,0,.03,0,.05,0,.03-.07.06-.14.09-.2.54-1.39,1.08-2.77,1.61-4.16.37-.97.71-1.95.91-2.97.17-.83.36-1.65.62-2.45.3-.94.67-1.85,1.12-2.73.03-.06.09-.12.05-.23-.22.12-.42.25-.64.36-.11.06-.19.14-.23.25-.18.46-.4.9-.54,1.37-.27.91-.51,1.82-.75,2.74-.34,1.28-.67,2.57-1.13,3.82-.35.93-.73,1.86-1.09,2.79Z"/>
  <path d="M12.9,73.94c-.4-.17-.8-.35-1.21-.49-.83-.3-1.39-.86-1.7-1.68-.16-.41-.33-.82-.48-1.24-.35-.9-.79-1.77-.94-2.74,0-.04-.04-.07-.06-.11-.03.08-.04.15-.04.21,0,.28.01.56,0,.83-.02.38.06.72.2,1.07.29.72.56,1.44.86,2.16.1.24.21.47.34.69.28.47.66.83,1.16,1.07.32.15.64.3.95.46.16.08.31.15.46.24.37.23.54.56.54.99,0,.16-.02.32-.04.48,0,.07,0,.14.07.18.15.08.3.17.46.27.03-.06.05-.08.06-.1.07-.24.13-.48.22-.71.17-.45.06-.84-.26-1.18-.17-.17-.36-.3-.58-.39Z"/>
  <path d="M8.47,56.32c.06-.02.08-.04.09-.07.61-2.27,1.31-4.51,2.02-6.76-.02-.01-.03-.03-.05-.04-.14.08-.29.17-.43.24-.11.05-.17.14-.2.25-.09.32-.19.64-.29.95-.33,1.05-.66,2.1-.99,3.15-.11.35-.18.71-.16,1.08.02.33,0,.67,0,1,0,.07,0,.13,0,.2Z"/>
  <path d="M9.65,73.25c-.43-.58-.79-1.2-1.12-1.84-.02,0-.03,0-.05.01,0,.02-.02.05-.02.07,0,.26,0,.51,0,.77,0,.07.03.15.07.21.34.59.72,1.15,1.18,1.66.05.06.1.11.17.15.35.21.71.41,1.06.61.14.08.16.07.23-.13-.58-.42-1.08-.93-1.52-1.51Z"/>
  <path d="M43.91,50.51c.19-.06.28-.17.3-.37.01-.2-.03-.38-.11-.56-.11-.25-.23-.5-.42-.75-.24.36-.38.71-.34,1.1.01.14.05.29.11.41.09.18.27.23.46.17Z"/>
  <path d="M45.98,55.28c-.17-.1-.33-.06-.47.08-.17.17-.18.38-.01.6.26.34.63.55,1.03.75.02-.07.03-.1.03-.13,0-.35-.05-.69-.26-.98-.08-.12-.2-.23-.33-.31Z"/>
  <path d="M41.04,55.5c-.17.24-.31.49-.46.74-.03.05-.04.11-.08.22.53-.03.99-.13,1.32-.53.03-.03.05-.07.06-.11.08-.18.06-.34-.08-.47-.14-.13-.31-.17-.48-.08-.11.06-.22.14-.29.23Z"/>
  <path d="M44.11,57.11c.04-.17.05-.35.04-.53,0-.16-.1-.29-.26-.34-.16-.05-.32-.03-.44.09-.1.1-.14.23-.14.36,0,.15.01.3.04.45.05.25.12.51.26.78.25-.26.43-.5.51-.81Z"/>
  <path d="M41.32,51.45c.19.11.38.07.52-.1.14-.16.15-.34,0-.53-.26-.37-.64-.57-1.08-.78-.03.5.06.91.36,1.26.05.06.12.11.19.15Z"/>
  <path d="M40.81,53.67c.21-.06.32-.22.3-.41-.02-.22-.16-.37-.38-.4-.11-.01-.24-.02-.35.01-.27.08-.54.18-.8.27-.05.02-.1.06-.18.11.3.25.61.43.98.46.14.01.29,0,.43-.04Z"/>
  <path d="M46.77,52.86c-.26.01-.4.18-.39.44,0,.24.17.39.45.41.39.03.77-.06,1.14-.18.02,0,.04-.03.08-.07-.24-.26-.5-.47-.83-.56-.14-.04-.3-.05-.45-.05Z"/>
  <path d="M45.63,51.49c.19.11.4.07.58-.12.28-.32.42-.71.55-1.13-.07,0-.11-.01-.14,0-.35.06-.67.17-.92.43-.09.1-.18.21-.23.34-.09.2-.01.39.17.5Z"/>
  <path d="M10.66,64.13c-.17.8-.21,1.61-.1,2.42.14.95.51,1.81,1.08,2.58.37.5.79.97,1.31,1.32.36.25.76.43,1.2.48.84.1,1.59-.16,2.24-.69.36-.29.64-.65.87-1.05.48-.8.85-1.65,1.13-2.54.45-1.42.61-2.88.62-4.36,0-1.14-.01-2.27-.02-3.41-.01,0-.02,0-.03,0,.02-1.21.04-2.43.05-3.64,0-.58-.04-1.16-.2-1.73-.13-.48-.3-.95-.62-1.35-.49-.61-1.11-.88-1.89-.72-.37.07-.7.24-1.01.47-.37.28-.67.62-.93,1-.35.51-.6,1.06-.82,1.63-1.21,3.12-2.21,6.31-2.89,9.59ZM11.71,63.98c.12-.85.26-1.7.49-2.52.12-.45.26-.9.4-1.35.01,0,.03,0,.04,0l-.31,1.27c-.23.93-.4,1.87-.52,2.82-.08.65.03,1.27.24,1.88.12.35.32.64.6.89.6.52,1.41.61,2.15.22.62-.33,1.12-.79,1.51-1.37.33-.49.43-1.05.42-1.62,0-.34-.05-.68-.09-1.01-.1-.8-.18-1.6-.14-2.4.03-.54.12-1.07.18-1.61.07-.63.02-1.25-.22-1.84-.06-.15-.15-.3-.25-.43-.3-.37-.76-.48-1.2-.31-.25.09-.46.25-.65.43-.33.31-.61.66-.86,1.04.3-.64.6-1.28,1.09-1.81.2-.21.4-.42.62-.62.15-.14.32-.23.52-.29.29-.07.53.01.74.21.14.14.24.3.31.49.16.43.22.87.19,1.34-.04.65-.01,1.3.01,1.95.02.46.08.92.13,1.38.04.36.08.73.14,1.09.2,1.25.02,2.44-.54,3.57-.42.85-.94,1.65-1.54,2.39-.15.18-.34.35-.53.49-.4.27-.82.27-1.24.03-.18-.11-.36-.25-.5-.4-.69-.73-1.1-1.6-1.2-2.61-.04-.43-.02-.86.04-1.29ZM16.12,62.78c.03.4.09.8.09,1.2,0,1.03-.42,1.85-1.24,2.47-.22.17-.47.29-.74.35-.46.1-.85-.03-1.18-.35-.39-.37-.61-.83-.71-1.36-.03-.18-.04-.37-.06-.56,0-.4.1-.78.18-1.17.3-1.39.61-2.77.99-4.14.22-.8.68-1.45,1.32-1.98.11-.09.23-.16.35-.22.3-.13.55-.06.75.2.17.22.26.48.31.74.08.42.08.83.03,1.26-.08.68-.23,1.35-.19,2.04.03.5.07.99.11,1.49ZM14.45,53.79c.24-.57.59-1.07,1.09-1.45.27-.21.57-.37.91-.43.4-.07.74.03,1.05.26.21.16.36.36.49.58.32.55.49,1.15.51,1.78.02.89.03,1.77.03,2.66,0,.82-.02,1.64-.01,2.45,0,.99.04,1.98.02,2.97-.04,1.75-.32,3.46-1.03,5.07-.21.48-.46.95-.75,1.39-.21.33-.46.62-.77.87-.79.65-2.07.73-2.92,0-1.04-.89-1.74-1.98-1.99-3.34-.15-.78-.1-1.56.06-2.33,0-.03.02-.07.05-.1,0,.12-.02.23-.02.35-.05.6-.05,1.19.1,1.78.24.96.77,1.73,1.53,2.34.29.23.62.39.99.45.34.05.65-.01.95-.16.28-.13.51-.33.71-.56.32-.36.57-.76.82-1.17.44-.72.85-1.46,1.12-2.27.33-.96.46-1.95.39-2.97-.03-.37-.09-.74-.13-1.11-.03-.38-.06-.76-.07-1.14-.02-.62-.01-1.25-.02-1.87,0-.4-.01-.79-.03-1.18-.01-.31-.07-.62-.21-.9-.48-.96-1.63-1.22-2.45-.54-.3.25-.56.54-.8.84-.22.28-.42.59-.59.9-.31.6-.58,1.21-.87,1.82-.01.02-.02.05-.03.07-.02,0-.03-.01-.05-.02.29-.81.57-1.62.88-2.42.34-.89.7-1.76,1.06-2.64Z"/>
  <path d="M15.69,60.41c-.01-.24-.05-.48-.17-.7-.15-.28-.43-.46-.71-.4-.37.07-.71.23-.89.58-.4.76-.77,1.53-1.02,2.36-.27.9-.36,1.8-.14,2.73.09.36.19.72.41,1.04.36.51.96.66,1.5.36.18-.1.34-.24.48-.39.26-.28.43-.63.55-.99.14-.42.15-.84.14-1.27-.02-.31-.04-.62-.05-.93-.03-.79-.06-1.58-.09-2.37ZM15.25,64.82c-.07.17-.15.35-.26.49-.43.54-1.24.54-1.6-.14-.12-.23-.18-.46-.19-.72,0-.11,0-.22,0-.33,0-.98.23-1.91.59-2.8.16-.38.35-.75.52-1.13.07-.15.18-.28.32-.37.17-.11.32-.07.43.09.09.13.14.29.14.45.01.37.02.73.04,1.1.04.66.08,1.33.12,1.99.02.46.05.93-.12,1.38Z"/>
  <path d="M14.89,61.69c-.2-.29-.54-.32-.79-.08-.06.06-.12.13-.17.21-.54.79-.76,1.65-.62,2.6.07.48.47.84.98.85.45.01.8-.22.91-.76.06-.3.08-.62.11-.92,0-.56-.1-1.09-.29-1.61-.03-.1-.08-.19-.14-.28ZM14.79,64.37c-.06.3-.24.44-.5.42-.26-.01-.51-.23-.54-.49-.02-.23-.04-.45.03-.68.14-.45.27-.9.41-1.35.03-.09.1-.18.17-.25.1-.09.16-.08.24.03.06.08.1.16.14.25.13.35.18.72.19,1.22-.03.2-.07.53-.14.84Z"/>
</svg>