<?xml version="1.0" encoding="UTF-8"?>
<svg id="_Шар_1" data-name="Шар_1" xmlns="http://www.w3.org/2000/svg" version="1.1" viewBox="0 0 182 124">
  <!-- Generator: Adobe Illustrator 29.0.0, SVG Export Plug-In . SVG Version: 2.1.0 Build 186)  -->
  <defs>
    <style>
      .st0 {
        fill: #cd1719;
      }
    </style>
  </defs>
  <path class="st0" d="M40.82,43.12h-1.51v10.68h-13.5v-7.99l8.5-8.4-4.91-4.96c-8.25,8.15-16.5,16.3-24.74,24.45-4.24,4.02-2.98,7.29.76,11.15l24.27,23.51,4.91-4.97c-2.97-2.86-5.88-5.73-8.78-8.59v-8.27h13.5v10.77h1.51v-10.77h10.87v-1.41h-10.87v-13.12h10.87v-1.41h-10.87v-10.68h0ZM24.3,76.5c-2.28-2.26-4.56-4.52-6.86-6.78h6.86v6.78ZM24.3,55.2v13.12h-8.29c-1.45-1.42-2.92-2.85-4.4-4.27-.65-.64-1.05-1.3-1.11-1.98-.06-.68.22-1.37.92-2.04l4.88-4.82h8ZM24.3,53.8h-6.57l6.57-6.5v6.5ZM39.31,68.32h-13.5v-13.12h13.5v13.12Z"/>
  <path class="st0" d="M11.43,60.03c-.7.67-.98,1.36-.92,2.04-.06-.68.22-1.37.92-2.04h0Z"/>
  <path class="st0" d="M82.44,57.98h-9.55l-5.79,3.81v-8.18h-7.93v15.84h7.93v-2.98l2.93-1.62,4.1,4.6h8.74l-7.68-7.45,7.26-4.02Z"/>
  <path class="st0" d="M94.7,58.18c-.74.31-1.46.87-2.16,1.68v-1.88h-7.26v11.47h7.8v-3.85c0-1.84.4-3.09,1.2-3.76.56-.47,1.35-.71,2.36-.71.54,0,1.26.11,2.17.32l2.4-3.13c-1.36-.4-2.61-.61-3.76-.61s-2.01.16-2.76.46Z"/>
  <path class="st0" d="M124.59,67.02v-5.07c0-.54-.19-1.1-.57-1.7s-.9-1.06-1.57-1.38c-.94-.47-2.12-.78-3.52-.93-1.41-.15-3.28-.22-5.61-.22-1.44,0-2.8.06-4.04.19-1.24.12-2.22.29-2.93.52-.99.31-1.75.67-2.28,1.1-.53.42-.93,1-1.21,1.73l7.42.44c.3-.5.7-.83,1.2-1.02.64-.23,1.59-.35,2.86-.35.99,0,1.68.11,2.08.33.39.21.59.59.59,1.13-.97.21-1.88.39-2.75.52-.86.13-2.75.37-5.66.7-2.43.28-4.1.69-4.99,1.25-.9.56-1.36,1.28-1.36,2.15,0,.93.62,1.71,1.88,2.34,1.25.63,3.09.95,5.5.95,1.82,0,3.41-.16,4.79-.47,1-.24,2.02-.63,3.03-1.19.09.33.18.57.27.73.09.15.28.38.57.67h7.28c-.41-.47-.67-.87-.79-1.18-.12-.31-.18-.73-.18-1.27h0ZM117,64.71c0,.55-.16.99-.47,1.34-.31.34-.84.63-1.58.87-.75.24-1.55.36-2.42.36s-1.45-.11-1.88-.33c-.43-.22-.64-.5-.64-.85,0-.31.21-.57.65-.81.42-.23,1.41-.47,2.99-.7,1.15-.16,2.27-.35,3.34-.57v.7h0Z"/>
  <path class="st0" d="M110.68,65.29c.42-.23,1.41-.47,2.99-.7-1.58.24-2.58.47-2.99.7Z"/>
  <path class="st0" d="M139.52,66.6c-.64,0-1.08-.12-1.33-.36-.17-.16-.25-.48-.25-.97v-4.06h4.27v-3.22h-4.27v-4.37l-7.78,2.25v2.11h-2.86v3.22h2.86v4.03c0,1.28.22,2.21.66,2.78.44.57,1.12,1,2.03,1.28.92.28,2.34.42,4.27.42,1.66,0,3.46-.12,5.38-.36l-.57-3.03c-1.03.19-1.83.28-2.41.28h0Z"/>
  <path class="st0" d="M169.18,57.98h-9.55l-5.79,3.81v-8.18h-7.93v15.84h7.93v-2.98l2.92-1.62,4.1,4.6h8.74l-7.68-7.45,7.26-4.02Z"/>
  <path class="st0" d="M180,53.62h-7.76v2.99h7.76v-2.99Z"/>
  <path class="st0" d="M180,57.98h-7.76v11.47h7.76v-11.47Z"/>
</svg>