<?xml version="1.0" encoding="UTF-8"?>
<svg id="_Шар_1" data-name="Шар_1" xmlns="http://www.w3.org/2000/svg" xmlns:xlink="http://www.w3.org/1999/xlink" version="1.1" viewBox="0 0 182 124">
  <!-- Generator: Adobe Illustrator 30.5.1, SVG Export Plug-In . SVG Version: 2.1.4 Build 3)  -->
  <defs>
    <style>
      .st0 {
        fill: #fff;
      }

      .st0, .st1, .st2, .st3 {
        fill-rule: evenodd;
      }

      .st1 {
        fill: #e55310;
      }

      .st2 {
        fill: url(#_Градієнт_без_назви_3);
      }

      .st3 {
        fill: url(#_Градієнт_без_назви_2);
      }
    </style>
    <linearGradient id="_Градієнт_без_назви_3" data-name="Градієнт без назви 3" x1="67.69" y1="-3610.05" x2="85.35" y2="-3610.05" gradientTransform="translate(10.1575 -3743.6468) scale(1.0464 -1.0464)" gradientUnits="userSpaceOnUse">
      <stop offset="0" stop-color="#1f1d1d"/>
      <stop offset="1" stop-color="#9e9999"/>
    </linearGradient>
    <linearGradient id="_Градієнт_без_назви_2" data-name="Градієнт без назви 2" x1="35.6" y1="71.94" x2="146.4" y2="71.94" gradientUnits="userSpaceOnUse">
      <stop offset="0" stop-color="#000"/>
      <stop offset=".44" stop-color="#adadad"/>
      <stop offset="1" stop-color="#474747"/>
    </linearGradient>
  </defs>
  <path class="st1" d="M130.75,61.8c-4.35-2.01-9.23-3.68-13.43-6.02-1.48-.81-1.2-.81-2.06-2.1-.15-.24-.29-.53-.38-.67-.67-1-1.43-1.72-2.15-2.58-.1-.09-.33-.29-.14-.38l-.67-1.1c-.29-.29-.53-1.1-.96-1.58-.19-.24-.77-.62-.81-.72-.1-.14-.19-1.24-.38-1.72-.62-1.63-1.53-1.86-2.53-2.87-.29-.24-.62-1.24-.96-1.67-.43-.62-1-.91-1.34-1.39-.38-.58-.48-1.53-.96-2.25-.53-.81-1.82-1.58-2.06-1.96-.38-.57-.1-1.43-.86-2.39-3.54-4.44-16.01-4.06-20.46-1.15-1.53,1-1.63,1.63-2.06,3.25-.24.91-1.58,1.53-2.1,2.58-.29.57-.29,1.24-.52,1.77-.29.52-1.05.96-1.43,1.48-.33.43-.43.96-.72,1.34-.48.72-1.43,1.2-2.01,2.01-.76,1.1-.67,2.1-1.2,3.06-.14.34-.86.77-1.15,1.05-.33.43-.53,1-.91,1.34l-.43,1.2c-.81,1.05-1.58,2.15-2.34,3.2-.1.14-.24.43-.38.62-.72.91-1.39,1.77-2.39,2.39-4.02,1.96-8.27,3.44-12.33,5.35-3.3,1.58-6.79,3.78-2.01,6.6,3.35,1.96,7.74,3.39,10.85,5.78.62.48,1.24,1.34,1.86,1.82,3.73,2.77,8.84,4.64,13.34,5.88,1.24.38,2.58.53,3.82.96,4.11,1.39,6.41,3.06,11.14,3.25,5.69.24,8.65-2.34,13.72-3.54,10.8-2.58,17.02-7.79,18.07-8.51,3.54-2.34,8.6-3.68,12.19-6.21,4.01-2.77-.19-4.92-2.87-6.12ZM114.98,59.65c.19-1.1.38-2.2.53-3.3l.48,1.29c.09.53.38,2.87.05,3.15-.48.38.14-.96-.24-1.05-.14.34-.24,1.05-.67,1.1l.53-2.01c-.38.1-.57,1.39-.67,1.43-.43-.19-.05-.33,0-.62ZM112.2,53.34l.48-.48c.24,1.29.05,2.49-.62,3.63l.19-1-.48.29c.33-.48.57-1.1.48-1.72l-.86,1.58-.43.14c.43-.81,1-1.53,1.24-2.44ZM109.96,48.61v1.82s-.19-.05-.24,0c-.1.14-.1,1.1-.48,1.29l.34-2.06-.29.76-.19-.29-.43.48.91-1.82.38-.19ZM106.52,45.21c.19-.43.19-.91.53-1.29.48,0,.34,2.39.19,2.77-.1.24-.14.38-.38.33l.19-.91c-.38.29-.29,1.05-.72,1.1l.53-2.1-1.1,1.39c-.1-.38.53-.86.76-1.29ZM104.13,39.76c.19.05.29.53.29.67.19.72.34,1.63.1,2.34l-.14-.91-.24.14c-.05-.48.19-1.15-.43-1.2,0-.24.33,0,.29-.24-.72-.05.19-.33.14-.81ZM101.26,35.51c.19.1.29.67.33.86.1.43.19.81.19,1.2-.43-.24-.53-.96-.53-1.39l-.38.1.38-.77ZM81.33,33.02c1.05-1.72,5.21-2.49,7.07-2.68,2.77-.19,8.6.1,10.52,2.39,1.91,2.29-1.58,3.87-3.35,4.44-3.39,1-8.08.86-11.42-.33-1.53-.53-4.06-1.82-2.82-3.82ZM99.44,40.34c0,.1-.48.34-.57.34-.15.05-.77-2.49-.72-2.63,0-.1.53-.24.62-.19.14.1.72,2.29.67,2.49ZM92.22,41.63h1.05c.24,0,.57-.19.57-.14.24.19-.14.29-.24.29-.33.14-.81.19-1.15.24l1,.24c-1.72.34-3.73.38-5.5.29-2.15-.15-4.3-.72-6.26-1.58-.05-.24.29-.14.43-.14.67.14,1.39.53,2.15.38l-2.2-1c-.05-.29.19-.09.33-.05.43.14.86.33,1.34.33l-1.67-.96c.81.19,1.67.53,2.58.53l-2.72-1.19c-.05-.19.29-.1.43-.1.67.19,1.43.57,2.15.53l-2.1-.96-.33-.48c3.78,1.53,7.89,1.77,11.9,1.67,0,.19-.43.29-.62.34-.81.29-1.77.53-2.63.57.1.29.19.19.38.19,1,0,1.96-.34,3.01-.34-.67.72-1.77,1-2.72,1.05.05.24.62.24.81.29ZM78.98,35.37l.48,1.39c-.24.91.05,1.72,0,2.63-.29.05-.43-.29-.57-.48-.67-1.24-.33-2.29.1-3.54ZM77.69,36.56l.14,1.53c.81,4.49,10.23,5.26,13.77,5.07,2.72-.14,9.13-1.39,10.61-3.92.67-1.1.14-2.29.1-3.49.19.05.24.38.38.53.05.05.09.09.09.14,1.43,1.1,1.29,2.82.14,4.06-.33.38-.67.48-1,.72-.05.05-.1.09-.14.14-.43.29-.77.43-1.2.67-.57.29-.91.43-1.53.62-.77.34-1.63.67-2.44.86-4.88,1.24-11.47.72-16.11-1.2-2.58-1.05-4.64-2.77-2.82-5.74ZM101.4,45.55c-.05.38-.72.67-1.05.72-.29-1.05-.38-2.01-1.05-2.92l1.05-.43c.1.62,1.05,2.1,1.05,2.63ZM94.9,46.5c.05.38-.05.24-.29.33-.48.14-1.1.33-1.67.33-.19.15.05.24.19.24.43.05.86,0,1.24,0-.1.24-.62.48-.86.53-.62.14-2.01.24-2.68.29-3.44.14-7.07-.43-10.18-1.82-.05-.24.29-.14.43-.14.34.05.67.19,1,.24l-1-.62c1.05.14,2.1.53,3.15.62.14,0,.57.14.57-.1-1.72-.43-3.25-1.15-4.69-2.1-.05-.24.24-.05.38,0,1.15.34,2.25.86,3.49,1,.14.05.57.19.53-.1-1.24-.29-2.68-.91-3.82-1.53-.19-.1-.58-.34-.72-.53.86.1,1.67.48,2.49.67,4.35,1,8.8,1,13.19.86-.05.29-.24.24-.43.29-1.05.24-2.25.29-3.3.38l.96.29h2.34s.72-.33.33.1c-.05.05-.76.14-.91.38l-1.72.38h1.96ZM76.21,40.24c.09-.19.14-.38.43-.34-.05.72.48,1.43.62,2.01.05.1-.19.05-.19.1-.05.05-.14.67-.19.72-.05.43.05.91,0,1.34l-.62-1.15c-.33-.81-.43-1.82-.05-2.68ZM75.45,40.43c-.67,3.15,1.63,5.16,4.21,6.36,6.17,2.87,16.16,2.63,22.27-.34,2.77-1.34,4.3-3.54,3.11-6.69.91,1.05,1.1,4.4,1,4.54-1.77,3.87-9.75,5.4-13.67,5.59-4.54.24-11.28-.57-15.15-3.15-2.15-1.43-3.87-4.01-1.77-6.31ZM101.78,48.7c0-.1.67-.48.81-.48s.86,1.91.86,2.15-.96.77-1.05.67c.1-.57-.72-1.96-.62-2.34ZM78.55,49.9c0-.24.33-.14.43-.09,1.1.24,2.2.67,3.35.72l-3.68-1.67-.19-.19c-.05-.09.1-.05.19-.05.76.05,2.49.77,3.44.96,4.25,1,8.46,1.1,12.81,1.1,0,.19-.48.29-.62.33-1.29.34-2.72.53-4.01.58-.05.24.29.14.43.14,1.43.05,2.82-.1,4.21-.14-.62.72-2.01.57-2.72,1.19.72-.05,1.43,0,2.15,0,.1-.05.77-.38.86,0-3.25,1.1-6.84.86-10.18.34-2.44-.38-4.64-1-6.84-2.15,0-.24.29-.14.43-.1,1.24.14,2.34.67,3.58.72l-3.63-1.67ZM95.09,51.57v-.14c.1.05.1.09,0,.14ZM73.77,43.3l.86,2.15c-.24,1-.62,1.82-.48,2.87l-.67-1.2c-.48-1.24-.19-2.63.29-3.82ZM72.58,44.11s.05-.33.14-.1c-1.48,5.31,4.83,7.98,8.99,9.04,6.41,1.67,13.62,1.48,19.88-.81,2.15-.81,5.36-2.44,6.36-4.69.67-1.63.19-2.96-.33-4.54,4.25,3.97.14,8.13-3.92,9.75-8.7,3.44-20.6,3.73-28.78-1.34-2.39-1.48-4.83-4.78-2.34-7.31ZM105.03,55.68c-.05.19-.53.57-.72.57s-.67-2.34-.86-2.68c0-.05.72-.24.77-.19.09.1.81,2.15.81,2.29ZM96.57,57.26l-1.82.14c.05.24.29.24.48.29.67.05,1.63-.33,2.39-.14-.05.19-.57.29-.76.34-.43.1-.86.14-1.29.19-.05.19.29.1.43.1.43,0,.72-.05,1.05-.1.14,0,.48-.09.43.1-.96.29-1.91.53-2.92.62-3.92.57-8.51.29-12.38-.52-2.15-.43-3.97-1.15-5.93-2.1,0-.24,1.96.53,2.15.57.86.24,1.72.43,2.63.53l-2.68-1.24-1.15-.81c2.06.72,4.11,1.2,6.26,1.43l-3.15-1.05-2.68-1.05c0-.19.34-.09.48-.09.62.09,1.19.53,1.86.38l-1.48-.91c1.05.33,2.1.72,3.16.96,5.02,1.24,10.23,1.15,15.3,1,.05.19-.19.19-.34.19-.91.24-1.96.19-2.87.38,1.2.53,2.68-.14,4.01.05l-1.05.33-1.29.19,1.15.24ZM70.91,48.27c.05-.15.1-.38.29-.19,0,0,.05.34.1.48.14.29.91,1.53.91,1.67.05.29-.29.62-.33.91-.14.86-.14,1.43.1,2.25-1.29-1.15-1.63-3.54-1.05-5.11ZM70.14,48.22c.1.19-.09.48-.09.57v2.2c0,1.39,1.72,3.49,2.82,4.26,8.17,5.88,27.58,6.07,35.37-.48,1.24-1.05,2.58-2.58,2.63-4.3,0-.38-.48-2.2-.38-2.25,0-.05.29-.05.38.05.1.14.53,1.1.62,1.34.43,1.29.38,2.39-.14,3.63-.72,1.91-2.68,3.35-4.49,4.16-1.67.96-3.49,1.67-5.31,2.2-7.98,2.1-18.69,1.86-26.24-1.58-3.78-1.72-8.56-5.4-5.16-9.8ZM107.38,61.23s-.91.57-1,.57c-.14,0-.96-2.49-.96-2.63,0-.33.96-.62,1-.57.14.05.96,2.49.96,2.63ZM75.78,61.85l-1.43-.96c1.43.33,2.72,1.15,4.21,1.2l-2.39-1.15-1.63-1.05,4.16,1.15-4.78-2.44c.57,0,1.05.43,1.53.57.86.24,1.86.53,2.72.77,6.41,1.77,12.86,1.91,19.45,1.34-.48.48-1.43.33-2.06.53l.77.29-3.11.52h5.07c-.14.19-.67.34-.91.43-.81.24-1.63.38-2.39.62-.14.05-.38.05-.33.24h4.01c0,.19-.24.14-.38.19-6.12,1.96-15.82,1.15-21.84-1.15-.19-.05-2.92-1.2-2.68-1.39l2.34.62-.33-.33ZM68.18,52.38c.05-.1.05-.38.29-.14.05,0,.14.76.24,1,.19.43,1,1.67,1.05,1.91.14.81-.67,2.2-.67,3.01-1.34-1.39-1.67-4.01-.91-5.78ZM66.65,53.82l.67-1.05c-.96,3.59,1,6.26,3.82,8.27,7.98,5.55,22.61,5.74,31.64,3.01,4.11-1.24,10.42-3.92,10.8-8.84v-1.29l-.53-1.77c.1-.19.29,0,.38.1.34.24.62.76.77,1.15,2.49,5.59-3.82,9.61-8.22,11.28-9.27,3.54-21.99,3.39-31.21-.15-4.06-1.58-10.52-5.4-8.13-10.71ZM110.05,67.58s-.96.57-1.1.72l-1.48-3.49,1.43-.53c0,.72,1.2,2.77,1.15,3.3ZM98.53,71.41c-1.34.19-2.72.53-4.06.62-5.88.53-13.14-.09-18.74-2.01-1.34-.48-2.58-1.15-3.87-1.58-.05-.29.24-.14.38-.1.48.15,1,.43,1.53.48l-1.91-1.05.05-.14c1.63.57,3.25,1.24,4.97,1.43l-5.55-2.58c-.05-.24.24-.1.33-.05,1.39.38,2.77,1.24,4.3,1.2.1-.38-.1-.19-.29-.29-1.29-.57-2.58-1.15-3.82-1.91-.05-.24.19-.05.33,0,1.34.43,2.63.96,4.06,1.2.05-.38-.1-.24-.29-.34-.48-.14-1-.24-1.43-.52l-2.01-1.24c4.06,1.58,8.51,2.68,12.86,3.11,4.44.43,8.94.24,13.38,0,.05.19-.24.19-.38.19-1.58.38-3.25.62-4.92.72,0,.24.33.14.48.14,1.39.05,2.77-.05,4.21-.14,0,.19-.33.19-.48.24-1.05.19-2.01.33-3.06.43-.19.05-.81.09-.86.24,1.82.05,3.63-.1,5.45-.24l-1.15.53c-.38.14-1.2.09-1.53.24-.14.1,0,.34-.05.38-.1.1-1-.1-1.05.29,1.2.1,2.68-.19,3.82,0,.05,0,.38.1.34.24l-1.29.24.24.29ZM64.5,58.17c.19-.72.62-1.34.86-2.06l.53,2.25c.67,1.15,1.34,2.34,2.25,3.3.09.1.33.19.48.34-.38.19-.67-.57-1.05-.72-.05.48.29.76.53,1.1l-.38-.05.19.53-1.24-1.05c.14.72.62,1.43,1.05,2.01-.33-.19-.62,0-.86-.05-.14,0,0-.43-.19-.19.19.43.43,1,.67,1.39.14.24,1.39,1.53,1.29,1.67-2.96-1.72-5.21-4.92-4.11-8.46ZM62.97,59.22c0-.19.62-2.2.81-1.96-1.2,4.4,1.1,7.89,4.68,10.18,8.56,5.45,22.04,6.5,31.79,4.44,7.27-1.53,20.41-5.93,15.63-15.82.24.09.57.48.72.72.19.19.34.53.48.76,1.24,2.15,1.34,4.06.38,6.36-1.48,3.35-5.5,5.64-8.8,6.98-11.62,4.68-28.58,4.54-39.63-1.67-3.78-2.1-7.07-5.26-6.07-9.99ZM118.99,61.94c.29.86.48,1.67.43,2.58-.1.77-.38,1.39-.86,1.96l.33-1.96-.67,1.1-.53.33c.43-1,.96-2.15,1.2-3.25.05-.19-.14-.72.1-.76ZM112.68,73.65c-.05.34-.86.57-1.2.57l-1.43-3.16c.29-.09,1.24-.57,1.39-.52.19,0,1.24,2.92,1.24,3.11ZM64.26,66.58c.24.38.24.52.43.86.14.29.72.72.91,1-.48-.24-1-.67-1.43-1-.29-.29-.76-.67-.91-1.1l.05.57,1.15,1.77s-.62-.43-.72-.53c-.09-.05-1.05-1.24-.86-.57.14.43.67,1.29.91,1.67-.29.29-.24-.43-.62-.14,1.72,3.01,4.78,4.68,7.89,5.83.72.29,1.63.62,2.34.81.14.05.53.19.53-.1l-1.63-.72-3.11-2.01c2.39,1,5.12,2.29,7.7,2.72.14,0,.52.14.52-.1l-4.64-1.82-3.54-1.96c2.44.86,4.78,2.01,7.36,2.44.15,0,.57.14.57-.1-2.63-.62-4.92-1.91-7.27-3.2-.24-.19-.29-.19.05-.19,2.1,1,4.4,1.72,6.64,2.29,3.78,1,7.74,1.58,11.62,1.72,3.35.14,6.64-.19,9.94,0l-.67.34-3.35.86c1.63,0,3.25-.29,4.88-.53.38,0,.09.14-.05.24-1.67.77-4.16.86-5.93.91-.19,0-.48-.1-.48.14,1.63.24,3.3.29,4.92.29-.05.24-.24.19-.43.24-.67.14-1.43.14-2.06.29-.1.05-.38.05-.33.24l6.74-.38c-1.24.33-2.49.81-3.73,1.1-7.98,1.96-20.7.33-28.06-3.39-4.54-2.29-9.46-5.64-8.36-11.47l.86-2.58c-.09,2.1,1.05,3.87,2.15,5.55ZM120.9,71.55c-6.31,7.55-22.85,9.99-32.17,9.7-8.36-.24-21.8-2.63-27.96-8.7-4.21-4.06-3.59-9.56.76-13.19.14-.14.19-.34.43-.29-7.46,15.01,13.62,19.98,24.19,20.74,7.5.53,16.16-.57,23.18-3.25,5.35-2.06,11.71-5.26,11.09-12.05-.14-.67-.29-1.29-.48-1.91-.48-1.43-1.15-2.63-1.43-4.01,3.87,3.25,5.98,8.56,2.39,12.95Z"/>
  <path class="st0" d="M105.03,55.68c-.05.19-.53.57-.72.57s-.67-2.34-.86-2.68c0-.05.72-.24.77-.19.09.1.81,2.15.81,2.29Z"/>
  <path class="st0" d="M107.38,61.23s-.91.57-1,.57c-.14,0-.96-2.49-.96-2.63,0-.33.96-.62,1-.57.14.05.96,2.49.96,2.63Z"/>
  <path class="st0" d="M112.06,56.49l.19-1-.48.29c.33-.48.57-1.1.48-1.72l-.86,1.58-.43.14c.43-.81,1-1.53,1.24-2.44l.48-.48c.24,1.29.05,2.49-.62,3.63Z"/>
  <path class="st0" d="M116.03,60.8c-.48.38.14-.96-.24-1.05-.14.34-.24,1.05-.67,1.1l.53-2.01c-.38.1-.57,1.39-.67,1.43-.43-.19-.05-.33,0-.62.19-1.1.38-2.2.53-3.3l.48,1.29c.09.53.38,2.87.05,3.15Z"/>
  <path class="st0" d="M119.42,64.52c-.1.77-.38,1.39-.86,1.96l.33-1.96-.67,1.1-.53.33c.43-1,.96-2.15,1.2-3.25.05-.19-.14-.72.1-.76.29.86.48,1.67.43,2.58Z"/>
  <path class="st0" d="M110.05,67.58s-.96.57-1.1.72l-1.48-3.49,1.43-.53c0,.72,1.2,2.77,1.15,3.3Z"/>
  <path class="st0" d="M112.68,73.65c-.05.34-.86.57-1.2.57l-1.43-3.16c.29-.09,1.24-.57,1.39-.52.19,0,1.24,2.92,1.24,3.11Z"/>
  <path class="st0" d="M120.9,71.55c-6.31,7.55-22.85,9.99-32.17,9.7-8.36-.24-21.8-2.63-27.96-8.7-4.21-4.06-3.59-9.56.76-13.19.14-.14.19-.34.43-.29-7.46,15.01,13.62,19.98,24.19,20.74,7.5.53,16.16-.57,23.18-3.25,5.35-2.06,11.71-5.26,11.09-12.05-.14-.67-.29-1.29-.48-1.91-.48-1.43-1.15-2.63-1.43-4.01,3.87,3.25,5.98,8.56,2.39,12.95Z"/>
  <path class="st0" d="M117.46,63.9c-1.48,3.35-5.5,5.64-8.8,6.98-11.62,4.68-28.58,4.54-39.63-1.67-3.78-2.1-7.07-5.26-6.07-9.99,0-.19.62-2.2.81-1.96-1.2,4.4,1.1,7.89,4.68,10.18,8.56,5.45,22.04,6.5,31.79,4.44,7.27-1.53,20.41-5.93,15.63-15.82.24.09.57.48.72.72.19.19.34.53.48.76,1.24,2.15,1.34,4.06.38,6.36Z"/>
  <path class="st0" d="M101.4,77.38c-1.24.33-2.49.81-3.73,1.1-7.98,1.96-20.7.33-28.06-3.39-4.54-2.29-9.46-5.64-8.36-11.47l.86-2.58c-.09,2.1,1.05,3.87,2.15,5.55.24.38.24.52.43.86.14.29.72.72.91,1-.48-.24-1-.67-1.43-1-.29-.29-.76-.67-.91-1.1l.05.57,1.15,1.77s-.62-.43-.72-.53c-.09-.05-1.05-1.24-.86-.57.14.43.67,1.29.91,1.67-.29.29-.24-.43-.62-.14,1.72,3.01,4.78,4.68,7.89,5.83.72.29,1.63.62,2.34.81.14.05.53.19.53-.1l-1.63-.72-3.11-2.01c2.39,1,5.12,2.29,7.7,2.72.14,0,.52.14.52-.1l-4.64-1.82-3.54-1.96c2.44.86,4.78,2.01,7.36,2.44.15,0,.57.14.57-.1-2.63-.62-4.92-1.91-7.27-3.2-.24-.19-.29-.19.05-.19,2.1,1,4.4,1.72,6.64,2.29,3.78,1,7.74,1.58,11.62,1.72,3.35.14,6.64-.19,9.94,0l-.67.34-3.35.86c1.63,0,3.25-.29,4.88-.53.38,0,.09.14-.05.24-1.67.77-4.16.86-5.93.91-.19,0-.48-.1-.48.14,1.63.24,3.3.29,4.92.29-.05.24-.24.19-.43.24-.67.14-1.43.14-2.06.29-.1.05-.38.05-.33.24l6.74-.38Z"/>
  <path class="st0" d="M99.59,70.88l-1.29.24.24.29c-1.34.19-2.72.53-4.06.62-5.88.53-13.14-.09-18.74-2.01-1.34-.48-2.58-1.15-3.87-1.58-.05-.29.24-.14.38-.1.48.15,1,.43,1.53.48l-1.91-1.05.05-.14c1.63.57,3.25,1.24,4.97,1.43l-5.55-2.58c-.05-.24.24-.1.33-.05,1.39.38,2.77,1.24,4.3,1.2.1-.38-.1-.19-.29-.29-1.29-.57-2.58-1.15-3.82-1.91-.05-.24.19-.05.33,0,1.34.43,2.63.96,4.06,1.2.05-.38-.1-.24-.29-.34-.48-.14-1-.24-1.43-.52l-2.01-1.24c4.06,1.58,8.51,2.68,12.86,3.11,4.44.43,8.94.24,13.38,0,.05.19-.24.19-.38.19-1.58.38-3.25.62-4.92.72,0,.24.33.14.48.14,1.39.05,2.77-.05,4.21-.14,0,.19-.33.19-.48.24-1.05.19-2.01.33-3.06.43-.19.05-.81.09-.86.24,1.82.05,3.63-.1,5.45-.24l-1.15.53c-.38.14-1.2.09-1.53.24-.14.1,0,.34-.05.38-.1.1-1-.1-1.05.29,1.2.1,2.68-.19,3.82,0,.05,0,.38.1.34.24Z"/>
  <path class="st0" d="M98.68,63.9c0,.19-.24.14-.38.19-6.12,1.96-15.82,1.15-21.84-1.15-.19-.05-2.92-1.2-2.68-1.39l2.34.62-.33-.33-1.43-.96c1.43.33,2.72,1.15,4.21,1.2l-2.39-1.15-1.63-1.05,4.16,1.15-4.78-2.44c.57,0,1.05.43,1.53.57.86.24,1.86.53,2.72.77,6.41,1.77,12.86,1.91,19.45,1.34-.48.48-1.43.33-2.06.53l.77.29-3.11.52h5.07c-.14.19-.67.34-.91.43-.81.24-1.63.38-2.39.62-.14.05-.38.05-.33.24h4.01Z"/>
  <path class="st0" d="M97.62,57.55c-.05.19-.57.29-.76.34-.43.1-.86.14-1.29.19-.05.19.29.1.43.1.43,0,.72-.05,1.05-.1.14,0,.48-.09.43.1-.96.29-1.91.53-2.92.62-3.92.57-8.51.29-12.38-.52-2.15-.43-3.97-1.15-5.93-2.1,0-.24,1.96.53,2.15.57.86.24,1.72.43,2.63.53l-2.68-1.24-1.15-.81c2.06.72,4.11,1.2,6.26,1.43l-3.15-1.05-2.68-1.05c0-.19.34-.09.48-.09.62.09,1.19.53,1.86.38l-1.48-.91c1.05.33,2.1.72,3.16.96,5.02,1.24,10.23,1.15,15.3,1,.05.19-.19.19-.34.19-.91.24-1.96.19-2.87.38,1.2.53,2.68-.14,4.01.05l-1.05.33-1.29.19,1.15.24-1.82.14c.05.24.29.24.48.29.67.05,1.63-.33,2.39-.14Z"/>
  <path class="st0" d="M68.61,66.63c-2.96-1.72-5.21-4.92-4.11-8.46.19-.72.62-1.34.86-2.06l.53,2.25c.67,1.15,1.34,2.34,2.25,3.3.09.1.33.19.48.34-.38.19-.67-.57-1.05-.72-.05.48.29.76.53,1.1l-.38-.05.19.53-1.24-1.05c.14.72.62,1.43,1.05,2.01-.33-.19-.62,0-.86-.05-.14,0,0-.43-.19-.19.19.43.43,1,.67,1.39.14.24,1.39,1.53,1.29,1.67Z"/>
  <path class="st0" d="M105.99,64.67c-9.27,3.54-21.99,3.39-31.21-.15-4.06-1.58-10.52-5.4-8.13-10.71l.67-1.05c-.96,3.59,1,6.26,3.82,8.27,7.98,5.55,22.61,5.74,31.64,3.01,4.11-1.24,10.42-3.92,10.8-8.84v-1.29l-.53-1.77c.1-.19.29,0,.38.1.34.24.62.76.77,1.15,2.49,5.59-3.82,9.61-8.22,11.28Z"/>
  <path class="st0" d="M69.09,58.17c-1.34-1.39-1.67-4.01-.91-5.78.05-.1.05-.38.29-.14.05,0,.14.76.24,1,.19.43,1,1.67,1.05,1.91.14.81-.67,2.2-.67,3.01Z"/>
  <path class="st0" d="M111.34,53.24c-.72,1.91-2.68,3.35-4.49,4.16-1.67.96-3.49,1.67-5.31,2.2-7.98,2.1-18.69,1.86-26.24-1.58-3.78-1.72-8.56-5.4-5.16-9.8.1.19-.09.48-.09.57v2.2c0,1.39,1.72,3.49,2.82,4.26,8.17,5.88,27.58,6.07,35.37-.48,1.24-1.05,2.58-2.58,2.63-4.3,0-.38-.48-2.2-.38-2.25,0-.05.29-.05.38.05.1.14.53,1.1.62,1.34.43,1.29.38,2.39-.14,3.63Z"/>
  <path class="st0" d="M71.96,53.39c-1.29-1.15-1.63-3.54-1.05-5.11.05-.15.1-.38.29-.19,0,0,.05.34.1.48.14.29.91,1.53.91,1.67.05.29-.29.62-.33.91-.14.86-.14,1.43.1,2.25Z"/>
  <path class="st0" d="M74.16,48.32l-.67-1.2c-.48-1.24-.19-2.63.29-3.82l.86,2.15c-.24,1-.62,1.82-.48,2.87Z"/>
  <path class="st0" d="M77.07,42.01s-.14.67-.19.72c-.05.43.05.91,0,1.34l-.62-1.15c-.33-.81-.43-1.82-.05-2.68.09-.19.14-.38.43-.34-.05.72.48,1.43.62,2.01.05.1-.19.05-.19.1Z"/>
  <path class="st0" d="M79.46,39.38c-.29.05-.43-.29-.57-.48-.67-1.24-.33-2.29.1-3.54l.48,1.39c-.24.91.05,1.72,0,2.63Z"/>
  <path class="st0" d="M95.19,52.77c-3.25,1.1-6.84.86-10.18.34-2.44-.38-4.64-1-6.84-2.15,0-.24.29-.14.43-.1,1.24.14,2.34.67,3.58.72l-3.63-1.67c0-.24.33-.14.43-.09,1.1.24,2.2.67,3.35.72l-3.68-1.67-.19-.19c-.05-.09.1-.05.19-.05.76.05,2.49.77,3.44.96,4.25,1,8.46,1.1,12.81,1.1,0,.19-.48.29-.62.33-1.29.34-2.72.53-4.01.58-.05.24.29.14.43.14,1.43.05,2.82-.1,4.21-.14-.62.72-2.01.57-2.72,1.19.72-.05,1.43,0,2.15,0,.1-.05.77-.38.86,0Z"/>
  <path class="st0" d="M103.46,50.38c0,.24-.96.77-1.05.67.1-.57-.72-1.96-.62-2.34,0-.1.67-.48.81-.48s.86,1.91.86,2.15Z"/>
  <path class="st0" d="M109.96,48.61v1.82s-.19-.05-.24,0c-.1.14-.1,1.1-.48,1.29l.34-2.06-.29.76-.19-.29-.43.48.91-1.82.38-.19Z"/>
  <path class="st0" d="M103.7,52.77c-8.7,3.44-20.6,3.73-28.78-1.34-2.39-1.48-4.83-4.78-2.34-7.31.05-.05.05-.33.14-.1-1.48,5.31,4.83,7.98,8.99,9.04,6.41,1.67,13.62,1.48,19.88-.81,2.15-.81,5.36-2.44,6.36-4.69.67-1.63.19-2.96-.33-4.54,4.25,3.97.14,8.13-3.92,9.75Z"/>
  <path class="st0" d="M107.23,46.7c-.1.24-.14.38-.38.33l.19-.91c-.38.29-.29,1.05-.72,1.1l.53-2.1-1.1,1.39c-.1-.38.53-.86.76-1.29.19-.43.19-.91.53-1.29.48,0,.34,2.39.19,2.77Z"/>
  <path class="st0" d="M106.04,44.3c-1.77,3.87-9.75,5.4-13.67,5.59-4.54.24-11.28-.57-15.15-3.15-2.15-1.43-3.87-4.01-1.77-6.31-.67,3.15,1.63,5.16,4.21,6.36,6.17,2.87,16.16,2.63,22.27-.34,2.77-1.34,4.3-3.54,3.11-6.69.91,1.05,1.1,4.4,1,4.54Z"/>
  <path class="st0" d="M101.4,45.55c-.05.38-.72.67-1.05.72-.29-1.05-.38-2.01-1.05-2.92l1.05-.43c.1.62,1.05,2.1,1.05,2.63Z"/>
  <path class="st0" d="M104.51,42.78l-.14-.91-.24.14c-.05-.48.19-1.15-.43-1.2,0-.24.33,0,.29-.24-.72-.05.19-.33.14-.81.19.05.29.53.29.67.19.72.34,1.63.1,2.34Z"/>
  <path class="st0" d="M102.93,40.48c-.33.38-.67.48-1,.72-.05.05-.1.09-.14.14-.43.29-.77.43-1.2.67-.57.29-.91.43-1.53.62-.77.34-1.63.67-2.44.86-4.88,1.24-11.47.72-16.11-1.2-2.58-1.05-4.64-2.77-2.82-5.74l.14,1.53c.81,4.49,10.23,5.26,13.77,5.07,2.72-.14,9.13-1.39,10.61-3.92.67-1.1.14-2.29.1-3.49.19.05.24.38.38.53.05.05.09.09.09.14,1.43,1.1,1.29,2.82.14,4.06Z"/>
  <path class="st0" d="M101.78,37.57c-.43-.24-.53-.96-.53-1.39l-.38.1.38-.77c.19.1.29.67.33.86.1.43.19.81.19,1.2Z"/>
  <path class="st0" d="M99.44,40.34c0,.1-.48.34-.57.34-.15.05-.77-2.49-.72-2.63,0-.1.53-.24.62-.19.14.1.72,2.29.67,2.49Z"/>
  <path class="st0" d="M94.66,46.12l-1.72.38h1.96c.05.38-.05.24-.29.33-.48.14-1.1.33-1.67.33-.19.15.05.24.19.24.43.05.86,0,1.24,0-.1.24-.62.48-.86.53-.62.14-2.01.24-2.68.29-3.44.14-7.07-.43-10.18-1.82-.05-.24.29-.14.43-.14.34.05.67.19,1,.24l-1-.62c1.05.14,2.1.53,3.15.62.14,0,.57.14.57-.1-1.72-.43-3.25-1.15-4.69-2.1-.05-.24.24-.05.38,0,1.15.34,2.25.86,3.49,1,.14.05.57.19.53-.1-1.24-.29-2.68-.91-3.82-1.53-.19-.1-.58-.34-.72-.53.86.1,1.67.48,2.49.67,4.35,1,8.8,1,13.19.86-.05.29-.24.24-.43.29-1.05.24-2.25.29-3.3.38l.96.29h2.34s.72-.33.33.1c-.05.05-.76.14-.91.38Z"/>
  <path class="st0" d="M93.61,41.77c-.33.14-.81.19-1.15.24l1,.24c-1.72.34-3.73.38-5.5.29-2.15-.15-4.3-.72-6.26-1.58-.05-.24.29-.14.43-.14.67.14,1.39.53,2.15.38l-2.2-1c-.05-.29.19-.09.33-.05.43.14.86.33,1.34.33l-1.67-.96c.81.19,1.67.53,2.58.53l-2.72-1.19c-.05-.19.29-.1.43-.1.67.19,1.43.57,2.15.53l-2.1-.96-.33-.48c3.78,1.53,7.89,1.77,11.9,1.67,0,.19-.43.29-.62.34-.81.29-1.77.53-2.63.57.1.29.19.19.38.19,1,0,1.96-.34,3.01-.34-.67.72-1.77,1-2.72,1.05.05.24.62.24.81.29h1.05c.24,0,.57-.19.57-.14.24.19-.14.29-.24.29Z"/>
  <path class="st1" d="M95.09,51.43c.1.05.1.1,0,.14v-.14Z"/>
  <path class="st1" d="M59,67.63c-.1-.72-.19-1.34-.14-2.15.05-.38.1-1.24.38-1.48.1.24-.1.53-.1.62v1.86l.24-1.05.14,2.25h-.14l-.14-.53.14,1.15c-.05-.19-.33-.43-.24-.76l-.14.14v-.05Z"/>
  <path class="st1" d="M59.39,68.3c.33.86.53,1.77,1.2,2.53-.24.24-.24,0-.33-.1-.72-.86-1.1-2.01-1.24-3.11l.14-.1c-.1.29.19.53.24.76Z"/>
  <path class="st1" d="M69.81,61.13l1.53,1.05c-.38-.14-.91-.43-1.2-.62-.14-.1-1.1-.91-1.15-1-.05-.05-.05-.19.05-.19l.76.76h0Z"/>
  <path class="st1" d="M68.28,59.6c.19.24.48.48.53.76-.19-.19-.48-.48-.53-.76Z"/>
  <path class="st2" d="M88.4,30.35c2.77-.19,8.6.05,10.52,2.39,1.91,2.29-1.58,3.87-3.35,4.45-3.39,1-8.08.86-11.42-.33-1.53-.53-4.06-1.82-2.82-3.82,1.05-1.72,5.21-2.49,7.07-2.68h0Z"/>
  <path class="st0" d="M141.31,69.54c-4.97,2.63-10.42,4.97-15.49,7.46-7.41,3.63-14.72,7.5-22.18,10.99-9.18,4.25-13.67,5.59-23.33,1.2-10.28-4.68-20.27-10.13-30.35-15.15-3.11-1.58-6.5-2.96-9.56-4.59-1.86-1-5.4-2.96-3.01-5.4,2.15-2.15,10.71-4.97,13.91-6.36,3.97-1.67,7.89-3.44,11.81-5.16,1.29-.62,3.39-1.86,4.68-2.2.1-.05.24-.1.29,0-.81,1.05-1.58,2.15-2.34,3.2-.1.14-.24.43-.38.62-.72.91-1.39,1.77-2.39,2.39-4.02,1.96-8.27,3.44-12.33,5.35-3.3,1.58-6.79,3.78-2.01,6.6,3.35,1.96,7.74,3.39,10.85,5.78.62.48,1.24,1.34,1.86,1.82,3.73,2.77,8.84,4.64,13.34,5.88,1.24.38,2.58.53,3.82.96,4.11,1.39,6.41,3.06,11.14,3.25,5.69.24,8.65-2.34,13.72-3.54,10.8-2.58,17.02-7.79,18.07-8.51,3.54-2.34,8.6-3.68,12.19-6.21,4.01-2.77-.19-4.92-2.87-6.12-4.35-2.01-9.23-3.68-13.43-6.02-1.48-.81-1.2-.81-2.06-2.1-.15-.24-.29-.53-.38-.67-.67-1-1.43-1.72-2.15-2.58-.1-.09-.33-.29-.14-.38,1.77.77,3.54,1.58,5.31,2.34,8.65,3.68,17.54,6.98,26,11.04,3.39,2.87-.1,4.78-2.58,6.12Z"/>
  <path class="st3" d="M141.7,72.65c-13.1,6.12-25.81,13.1-38.96,19.07-7.36,3.35-13.24,4.54-21.03,1.34l-30.31-15.15c-3.73-1.86-7.79-3.58-11.42-5.59-3.63-2.01-6.26-5.4-2.68-9.08,6.17-3.3,12.91-5.69,19.31-8.51,2.92-1.29,5.93-2.58,8.8-3.97.76-.34,2.49-1.1,3.06-1.58,0,0,0-.05.05-.05l-.43,1.2c-.05-.1-.19-.05-.29,0-1.29.33-3.39,1.58-4.68,2.2-3.92,1.72-7.84,3.49-11.81,5.16-3.2,1.39-11.76,4.21-13.91,6.36-2.39,2.44,1.15,4.4,3.01,5.4,3.06,1.62,6.45,3.01,9.56,4.59,10.08,5.02,20.08,10.47,30.35,15.15,9.65,4.4,14.15,3.06,23.33-1.2,7.46-3.49,14.77-7.36,22.18-10.99,5.07-2.49,10.52-4.83,15.49-7.46,2.49-1.34,5.98-3.25,2.58-6.12-8.46-4.06-17.35-7.36-26-11.04-1.77-.77-3.54-1.58-5.31-2.34l-.67-1.1c.33.34,3.92,1.86,4.64,2.2,7.65,3.35,15.49,6.31,23.18,9.56,2.49,1.05,6.36,2.29,6.64,5.45.29,3.25-2.06,5.16-4.68,6.5Z"/>
</svg>