<?xml version="1.0" encoding="UTF-8"?>
<svg id="_Шар_1" data-name="Шар_1" xmlns="http://www.w3.org/2000/svg" version="1.1" viewBox="0 0 182 124">
  <!-- Generator: Adobe Illustrator 29.0.0, SVG Export Plug-In . SVG Version: 2.1.0 Build 186)  -->
  <defs>
    <style>
      .st0 {
        fill: #307fc1;
      }
    </style>
  </defs>
  <path class="st0" d="M48.26,68.99s13.9-3.55,13.9-17.73c0-9.62-6.5-17.33-15.88-18.68H2s0,58.83,0,58.83h60.17v-22.42h-13.91ZM58.17,87.2H6.22v-50.4h38.99c3.96,0,12.42,4.79,12.39,13.52-.04,11.56-13.4,18.81-23.31,9.58-1.43-1.34-3.65-4.66-3.65-7.04v-11.03c0-.67-.64-1.71-2.08-1.71s-2.14,1.06-2.14,1.68v31.42h31.75v13.99ZM40.85,68.99h-10.21v-5.55c4.39,4.55,10.21,5.55,10.21,5.55Z"/>
  <polygon class="st0" points="127.46 77.43 121.78 77.43 117.56 81.87 113.34 77.43 107.66 77.43 114.01 84.09 106.8 91.42 112.67 91.42 117.56 86.32 122.45 91.42 128.33 91.42 121.11 84.09 127.46 77.43"/>
  <path class="st0" d="M99.7,86.02c0,1.18-1.18,1.85-1.69,1.85h-5.98c-.77,0-1.89-.67-1.89-1.85v-8.59h-4.22v10.43c0,1.91,2.6,3.55,4.22,3.55h9.56c2.24.03,4.2-2,4.2-3.55v-10.43h-4.21v8.59Z"/>
  <polygon class="st0" points="72.18 77.43 67.97 77.43 67.97 91.42 82.15 91.42 82.15 87.86 72.18 87.86 72.18 77.43"/>
  <path class="st0" d="M146.69,76.98h-11.96c-1.97,0-3.57,1.6-3.57,3.58v7.29c0,1.97,1.59,3.57,3.57,3.57h11.96c1.97,0,3.57-1.59,3.57-3.57v-7.29c0-1.97-1.59-3.58-3.57-3.58ZM146.04,85.96c0,.69-.56,1.24-1.24,1.24h-8.18c-.69,0-1.24-.55-1.24-1.24v-4.09c0-.68.55-1.23,1.24-1.23h8.18c.68,0,1.24.55,1.24,1.23v4.09Z"/>
  <path class="st0" d="M170.71,79.07c-.4-.94-1.49-1.86-3.12-1.86h-13.95v13.77h4.22v-3.49s0,0,0,0v-.04h7.65c.4,0,.76.2.97.5.04.06.09.13.12.2.04.07.07.15.09.24.02.08.03.17.03.27v2.32h4.22v-3.29c0-.58-.32-1.02-.7-1.36-.44-.39-1.13-.7-1.29-.77,1.29-.56,1.89-1.03,2.1-2.56.02-.11.03-.23.04-.35.03-.38.05-.81.05-1.3v-.55c0-.61-.16-1.19-.43-1.7h-.01ZM166.73,82.65c0,.67-.55,1.22-1.22,1.22h-7.64v-3.24h7.64c.67,0,1.22.54,1.22,1.21v.8Z"/>
  <path class="st0" d="M176.22,70.45c-2.08,0-3.78,1.7-3.78,3.78s1.7,3.78,3.78,3.78,3.78-1.7,3.78-3.78-1.7-3.78-3.78-3.78ZM176.22,77.51c-1.81,0-3.28-1.47-3.28-3.28s1.47-3.28,3.28-3.28,3.28,1.47,3.28,3.28-1.47,3.28-3.28,3.28Z"/>
  <path class="st0" d="M177.65,74.11c.16-.19.24-.43.24-.71,0-.34-.12-.6-.35-.79-.23-.19-.56-.29-.98-.29h-1.77v3.77h.51v-1.56h1.17l.98,1.56h.59l-1.07-1.62c.29-.05.51-.17.67-.36ZM175.3,74.13v-1.39h1.21c.28,0,.49.06.64.17s.22.28.22.5-.07.4-.22.53c-.15.13-.36.19-.62.19h-1.23Z"/>
</svg>