<?xml version="1.0" encoding="UTF-8"?>
<svg id="_Шар_1" data-name="Шар_1" xmlns="http://www.w3.org/2000/svg" xmlns:xlink="http://www.w3.org/1999/xlink" version="1.1" viewBox="0 0 182 124">
  <!-- Generator: Adobe Illustrator 30.5.1, SVG Export Plug-In . SVG Version: 2.1.4 Build 3)  -->
  <defs>
    <style>
      .st0 {
        fill: url(#_Градієнт_без_назви_62);
      }

      .st1 {
        fill: url(#_Градієнт_без_назви_61);
      }

      .st2 {
        fill: url(#_Градієнт_без_назви_6);
      }
    </style>
    <linearGradient id="_Градієнт_без_назви_6" data-name="Градієнт без назви 6" x1="143.81" y1="94.62" x2="143.81" y2="29.06" gradientUnits="userSpaceOnUse">
      <stop offset="0" stop-color="#e21e24"/>
      <stop offset="1" stop-color="#fbc417"/>
    </linearGradient>
    <linearGradient id="_Градієнт_без_назви_61" data-name="Градієнт без назви 6" x1="136.04" x2="136.04" xlink:href="#_Градієнт_без_назви_6"/>
    <linearGradient id="_Градієнт_без_назви_62" data-name="Градієнт без назви 6" x1="128.27" x2="128.27" xlink:href="#_Градієнт_без_назви_6"/>
  </defs>
  <path d="M154.74,30.14c-1.47.24-2.7,1.28-3.16,2.65-.52,1.57-.04,3.29,1.2,4.31,1.09.9,2.5,1.17,3.83.73,1.37-.45,2.4-1.66,2.65-3.09.06-.32.05-1.07-.01-1.4-.32-1.61-1.53-2.83-3.13-3.17-.33-.07-1.05-.09-1.38-.03ZM156.08,30.97c.6.16,1.11.44,1.52.85.98.98,1.21,2.42.6,3.66-.78,1.57-2.69,2.22-4.26,1.44-1.13-.56-1.83-1.77-1.76-3.03.08-1.39,1.07-2.58,2.42-2.91.35-.09.41-.09.86-.08.26,0,.47.03.62.07Z"/>
  <path d="M153.62,34.07v2.19h.88v-1.82h.24c.33,0,.44.04.63.22.09.09.37.48.64.88l.48.72h1.05l-.15-.25c-.7-1.11-.85-1.32-1.13-1.53l-.2-.15.2-.05c.58-.16.89-.52.92-1.09.02-.41-.1-.75-.36-.98-.31-.28-.43-.3-1.93-.31l-1.25-.02v2.19ZM156.01,32.7c.18.1.25.23.25.47,0,.14-.02.21-.07.29-.16.23-.32.27-1.15.27h-.54v-1.13h.69c.67.02.69.02.82.1Z"/>
  <path d="M92.03,55.45c-.75.08-1.49.48-1.92,1.04-.71.93-.78,2.35-.17,3.36.27.46.76.89,1.23,1.08,1.02.42,2.26.28,3.1-.36.35-.26.65-.67.83-1.13.26-.66.26-1.66-.02-2.33-.39-.95-1.23-1.55-2.34-1.66-.34-.03-.36-.03-.71,0Z"/>
  <path d="M85.03,63.43c-1.76.25-3.33,1.45-4.21,3.23-.1.22-.22.47-.25.56-.05.14-.06.16-.13.15h-.08s-.11-1.77-.11-1.77c-.06-.97-.11-1.76-.11-1.77,0-.02-4.58,0-4.6.02,0,.02,0,.53.03,1.15.09,2.4.1,4.11.1,11.53v7.61h5.37v-5.61c.02-5.13.03-5.64.07-5.96.19-1.27.56-2.12,1.21-2.81.57-.6,1.32-1,2.17-1.15.52-.09,1.39-.09,2.1,0l.13.02v-2.56s-.02-2.56-.02-2.56l-.21-.04c-.27-.05-1.22-.07-1.47-.04Z"/>
  <path d="M107.71,63.42c-.36.02-1.01.11-1.44.19-2.34.47-4.32,1.77-5.6,3.69-.98,1.46-1.55,3.13-1.78,5.24-.07.66-.07,2.37,0,3.05.31,2.85,1.32,5.06,3.05,6.65,1.87,1.72,4.57,2.53,7.41,2.22,1.82-.2,3.49-.89,4.84-2,.39-.32,1.03-.98,1.33-1.38,1.15-1.5,1.83-3.34,2.08-5.62.08-.7.08-2.51,0-3.18-.31-2.68-1.24-4.8-2.8-6.37-1.77-1.79-4.24-2.65-7.09-2.48ZM109.15,67.48c.53.16.93.41,1.35.82.92.93,1.52,2.55,1.69,4.59.05.55.02,2.11-.05,2.57-.11.83-.24,1.42-.46,2.06-.55,1.6-1.48,2.64-2.64,2.94-.51.13-1.18.11-1.7-.05-1.66-.53-2.78-2.53-3.02-5.39-.04-.49-.04-1.62,0-2.1.21-2.5,1.04-4.31,2.34-5.1.54-.33,1.02-.44,1.74-.43.42,0,.53.02.75.09Z"/>
  <path d="M32.96,63.45c-.44.04-.78.09-1.08.15-1,.21-2,.69-2.77,1.33-.48.4-.98.95-1.31,1.42-.1.14-.16.21-.21.21-.06,0-.06-.05-.18-1.22-.06-.67-.12-1.27-.13-1.34l-.02-.11h-4.58l.02.29c.03.47.08,1.95.11,3.33.02.7.03,4.73.03,8.95v7.67h2.64s2.63-.02,2.63-.02l.02-6.47.02-6.47.07-.33c.19-.9.54-1.59,1.09-2.14.68-.68,1.58-1.01,2.46-.89.57.08,1,.29,1.4.68.52.52.81,1.2,1,2.31.05.28.05.82.07,6.8l.02,6.5h2.64s2.63.02,2.63.02v-6.28c0-4.15.01-6.4.03-6.63.04-.4.15-.95.26-1.26.39-1.07,1.16-1.81,2.18-2.09.35-.09,1.07-.09,1.42,0,1.33.36,2.04,1.61,2.2,3.88.02.26.03,2.8.03,6.4v5.97h2.64s2.63-.02,2.63-.02v-6.59c0-6.93,0-6.9-.14-7.88-.24-1.75-.82-3.21-1.68-4.24-1.29-1.55-3.27-2.22-5.54-1.89-1.19.17-2.23.63-3.18,1.39-.43.35-1.07,1.02-1.42,1.51-.17.23-.32.41-.33.41-.02,0-.11-.16-.2-.35-.76-1.62-2.23-2.69-4.08-2.97-.32-.05-1.13-.09-1.39-.06Z"/>
  <path d="M61.94,63.46c-2.05.12-4.06.63-5.6,1.41-.24.12-.46.24-.48.25-.03.02.08.42.46,1.75.28.95.51,1.73.52,1.74s.07-.02.14-.07c.95-.56,2.3-1.02,3.46-1.19,2.08-.3,3.62.04,4.36.97.41.52.64,1.25.66,2.13v.33s-.72.02-.72.02c-4.45.12-7.74,1.49-9.28,3.87-.5.77-.83,1.65-.97,2.59-.29,2.01.18,3.81,1.36,5.23,1.17,1.4,3.1,2.15,5.13,2,1.54-.11,2.79-.57,3.86-1.42.28-.22.7-.65.88-.89.09-.12.16-.18.2-.19.06,0,.07.06.23,1.05l.17,1.06h2.41c1.6,0,2.41,0,2.41-.03-.03-.19-.14-1.12-.16-1.43-.09-1.14-.1-1.66-.12-6.71-.02-4.63-.03-5.33-.07-5.67-.16-1.3-.42-2.24-.85-3.13-.34-.7-.76-1.28-1.3-1.79-1.09-1.04-2.55-1.65-4.44-1.85-.55-.06-1.66-.08-2.25-.05ZM65.61,75.94c0,1.83,0,1.9-.18,2.46-.39,1.21-1.51,2.09-2.89,2.25-1.19.14-2.25-.45-2.64-1.48-.16-.41-.2-.68-.2-1.29,0-.49.01-.58.08-.85.35-1.32,1.44-2.16,3.29-2.54.69-.14,1.81-.25,2.4-.23h.14v1.69Z"/>
  <path d="M89.75,63.86s-.01,4.59,0,10.15v10.11h5.38v-20.28h-2.68c-2.13-.02-2.68,0-2.69.02Z"/>
  <path d="M37.73,90.76v2.52h.27v-5.04h-.27v2.52Z"/>
  <path d="M64.51,90.76v2.52h.27v-5.04h-.27v2.52Z"/>
  <path d="M70.66,90.02c-.01,1.99,0,1.94-.22,2.36-.5.95-1.92.96-2.53.02-.3-.46-.34-1.04-.1-1.54.18-.39.47-.63.88-.75.25-.07.7-.07.95,0,.2.05.5.23.65.37l.08.08v-.17c0-.16,0-.17-.13-.26-.36-.26-.75-.36-1.22-.33-.49.03-.85.19-1.14.48-.32.32-.48.75-.48,1.25s.17.94.52,1.29c.35.36.76.52,1.3.52s.88-.14,1.21-.47c.22-.22.36-.47.45-.8.06-.23.07-.3.08-2.04v-1.8s-.13,0-.13,0h-.14v1.78Z"/>
  <path d="M99.2,90.05c-.01,1.99,0,1.92-.2,2.3-.1.2-.36.47-.55.57-.42.23-.97.23-1.43,0-.36-.18-.7-.64-.79-1.06-.05-.24-.02-.65.05-.87.14-.38.45-.72.79-.84.09-.03.27-.07.41-.09.47-.06.86.04,1.25.34l.18.14v-.14c.02-.13.01-.15-.1-.24-.17-.15-.45-.28-.71-.33-.29-.06-.75-.04-1.04.05-.4.12-.76.43-.95.81-.16.32-.19.47-.19.88,0,.31.01.39.08.57.12.31.26.53.49.74.35.33.73.47,1.26.47s.91-.16,1.23-.51c.19-.21.3-.4.39-.7.07-.22.07-.26.08-2.06v-1.83s-.13,0-.13,0h-.14v1.81Z"/>
  <path d="M32.69,88.69c-.13.05-.15.24-.05.35.06.06.23.06.29,0s.07-.22.02-.29c-.05-.06-.17-.09-.26-.05Z"/>
  <path d="M79.09,88.74c-.06.06-.07.09-.06.17.02.12.09.17.22.17s.2-.08.2-.2c0-.11-.02-.14-.11-.19-.1-.05-.15-.04-.24.05Z"/>
  <path d="M100.44,88.72c-.06.05-.08.09-.08.16,0,.13.08.2.22.2.19,0,.27-.21.13-.35-.09-.09-.16-.09-.27-.01Z"/>
  <path d="M26.51,88.95s-.01.84,0,1.81c0,1.57.02,1.79.06,1.93.08.24.2.39.41.49.16.08.21.09.59.1h.42s0-.11,0-.11v-.12h-.29c-.52,0-.72-.09-.85-.36-.06-.13-.06-.19-.07-1.35v-1.21s.6,0,.6,0h.61v-.27h-1.21v-.94h-.12c-.08,0-.13.02-.14.04Z"/>
  <path d="M54.34,90.63c0,1.07.01,1.79.03,1.9.05.26.16.47.34.59.19.12.37.16.78.16h.33v-.23l-.39-.02c-.42-.02-.48-.03-.64-.19-.18-.17-.19-.26-.19-1.56v-1.16h1.21v-.27h-1.21v-.94h-.27v1.72Z"/>
  <path d="M105.91,88.92s-.02,3.31,0,3.54c.04.26.11.43.25.56.18.18.32.22.8.24h.42s0-.11,0-.11v-.12h-.29c-.52,0-.72-.09-.85-.36-.06-.13-.06-.19-.07-1.35v-1.21s.6,0,.6,0h.61v-.27h-1.21v-.94h-.12c-.06,0-.13,0-.14.02Z"/>
  <path d="M29.56,89.83c-.44.09-.83.36-1.09.76-.23.35-.29.56-.29,1.02s.05.63.23.91c.17.26.4.47.68.6.32.16.55.21.9.21.41,0,.75-.11,1.04-.34.1-.08.11-.1.11-.24v-.15l-.23.16c-.3.22-.51.29-.85.31-.46.03-.84-.11-1.17-.41-.31-.29-.46-.62-.46-1.06,0-.69.43-1.3,1.07-1.51.39-.12.9-.07,1.22.12.18.11.41.36.51.56.18.37.19.46.21,1.51l.02.97h.27l-.02-.98c-.02-1.08-.04-1.24-.24-1.63-.12-.24-.44-.56-.66-.68-.36-.19-.83-.24-1.25-.15Z"/>
  <path d="M34.88,89.83c-.46.13-.77.42-.92.87-.06.19-.07.26-.08,1.39v1.19s.13,0,.13,0h.14v-1.09c0-1.38.03-1.55.34-1.85.17-.16.33-.24.58-.29.53-.09,1.05.2,1.21.69.06.19.07.27.08,1.36v1.16h.28v-.98c0-1.08-.03-1.45-.12-1.69-.13-.34-.39-.59-.76-.73-.22-.09-.65-.11-.88-.04Z"/>
  <path d="M40.28,89.83c-.95.2-1.53,1.15-1.32,2.15.13.63.64,1.15,1.28,1.31.23.06.71.06.94,0,.62-.16,1.11-.7,1.25-1.34q.07-.31-.09-.31c-.13,0-.13,0-.15.11-.03.21-.14.51-.23.65-.6.94-2,.92-2.56-.05-.34-.58-.23-1.41.25-1.89.52-.52,1.39-.56,1.96-.11.26.2.33.12-.89.96-.6.41-1.09.76-1.09.77,0,.01.03.06.07.11l.07.09,1.17-.8c.64-.43,1.18-.81,1.21-.83.1-.09-.27-.47-.64-.66-.36-.19-.79-.24-1.21-.15Z"/>
  <path d="M57.34,89.83c-.62.13-1.13.63-1.29,1.26-.06.24-.07.68-.02.91.15.63.64,1.13,1.28,1.29.28.07.83.05,1.08-.04.4-.15.76-.47.95-.87.1-.2.19-.5.19-.65,0-.09,0-.09-.13-.09h-.13l-.03.2c-.08.46-.41.91-.8,1.1-.77.36-1.65.08-2.01-.66-.42-.85,0-1.88.87-2.16.27-.09.67-.09.93,0,.3.1.68.38.63.45,0,.02-.5.36-1.09.77l-1.08.74.06.09c.04.05.07.1.07.11,0,0,.56-.36,1.22-.82l1.21-.83-.05-.09c-.08-.13-.43-.45-.6-.55-.35-.19-.83-.25-1.25-.15Z"/>
  <path d="M61.52,89.8c-.27.06-.36.09-.53.18-.27.12-.62.48-.75.75-.34.71-.22,1.58.31,2.1.21.21.52.39.82.46.23.06.71.06.94,0,.66-.17,1.17-.78,1.27-1.53l.02-.13h-.15q-.15,0-.15.1c0,.28-.18.66-.44.92-.29.29-.64.44-1.05.44-.67,0-1.27-.46-1.45-1.11-.05-.2-.05-.63,0-.83.15-.58.63-1.01,1.22-1.1.45-.07.94.09,1.24.39l.11.12-1.08.74c-.6.41-1.09.76-1.09.77s.02.07.06.11l.07.09,1.18-.81c.65-.45,1.2-.82,1.21-.83.04-.04-.2-.34-.39-.48-.32-.24-.6-.34-1.01-.36-.17,0-.33,0-.36,0Z"/>
  <path d="M72.98,89.83c-.63.13-1.13.62-1.29,1.26-.06.24-.07.68-.02.91.15.62.64,1.13,1.27,1.29.3.08.75.06,1.04-.03.44-.14.79-.45,1-.89.1-.19.19-.5.19-.66,0-.08,0-.08-.13-.08h-.13l-.04.22c-.13.73-.74,1.24-1.5,1.24-.91,0-1.6-.83-1.45-1.75.16-1.03,1.19-1.59,2.12-1.15.23.11.49.32.46.37-.01.02-.5.36-1.1.77-1.14.78-1.1.74-.98.89.04.05.12,0,1.26-.77l1.21-.83-.05-.09s-.14-.17-.26-.28c-.42-.4-1-.55-1.6-.42Z"/>
  <path d="M81.54,89.83c-.62.13-1.1.59-1.32,1.26-.09.26-.08.8.01,1.07.15.42.46.78.87.98.34.16.55.21.96.19.4-.02.57-.07.87-.27l.19-.13v-.32l-.12.11c-.56.48-1.37.51-1.99.07-.36-.26-.55-.62-.58-1.08-.04-.68.35-1.33.92-1.55.75-.28,1.54,0,1.86.64.19.4.2.47.2,1.7,0,1.06,0,1.12-.07,1.32-.19.59-.62.87-1.36.87-.22,0-.38-.02-.55-.07-.39-.1-.37-.1-.39-.02,0,.04-.03.1-.04.12-.04.11.71.26,1.12.22.84-.06,1.3-.41,1.5-1.14.05-.17.05-.33.05-1.31,0-1.05,0-1.12-.07-1.38-.04-.15-.12-.36-.18-.48-.34-.64-1.1-.97-1.89-.8Z"/>
  <path d="M85.59,89.83c-.51.12-.9.52-.99,1.02-.02.09-.03.66-.03,1.3v1.14h.27v-1.15c0-1.23.01-1.34.16-1.6.28-.48.96-.63,1.49-.34.21.12.37.31.46.55.05.14.06.28.07,1.35v1.19h.28v-1.12c0-1.44-.04-1.62-.38-1.97-.34-.34-.86-.48-1.34-.36Z"/>
  <path d="M93.11,89.83c-.63.13-1.16.64-1.35,1.3-.04.12-.05.28-.05.47,0,.76.43,1.37,1.17,1.64.2.07.26.08.64.08.49,0,.63-.04.97-.27.19-.13.19-.13.2-.29v-.16s-.08.06-.08.06c-.37.29-.63.4-1.01.42-1.13.06-1.92-.97-1.54-2.01.15-.41.42-.71.79-.89.7-.33,1.55-.08,1.89.56.19.36.22.54.22,1.58v.94h.28v-1.04c-.02-1.04-.02-1.04-.1-1.29-.29-.86-1.11-1.31-2.03-1.11Z"/>
  <path d="M102.88,89.83c-.65.14-1.19.67-1.35,1.35-.07.27-.05.77.04,1.02.15.41.45.74.87.94.34.16.56.21.96.19.36-.02.56-.08.85-.28q.19-.13.2-.29v-.16s-.22.16-.22.16c-.3.22-.51.29-.85.31-.32.02-.57-.03-.86-.18-.21-.11-.51-.4-.61-.59-.43-.85,0-1.92.9-2.2.4-.13.91-.07,1.24.14.17.11.41.38.5.56.17.36.18.46.2,1.49l.02.97h.27l-.02-.98c-.02-1.08-.04-1.24-.24-1.63-.12-.23-.43-.55-.66-.67-.35-.19-.83-.25-1.25-.15Z"/>
  <path d="M109,89.81c-.53.11-.97.44-1.21.91-.14.27-.2.52-.2.84,0,.51.16.9.52,1.25.37.37.72.52,1.23.52s.87-.15,1.22-.5c.37-.37.55-.83.52-1.35-.04-.76-.52-1.39-1.21-1.61-.22-.07-.67-.1-.87-.06ZM109.56,90.06c.72.12,1.24.74,1.24,1.49,0,.46-.13.79-.44,1.11-.58.59-1.52.58-2.09-.02-.29-.3-.43-.67-.42-1.11.01-.74.52-1.35,1.24-1.47.22-.04.25-.04.47,0Z"/>
  <path d="M23.91,89.88c-.33.04-.55.2-.67.48-.09.19-.06.52.05.71.15.25.38.38.93.5,1.03.24,1.29.42,1.29.87,0,.21-.05.31-.23.43-.18.13-.29.14-1.21.15l-.89.02v.24h.84c.93,0,1.14-.03,1.39-.18.48-.3.5-1.05.04-1.36-.19-.13-.32-.18-.95-.34-.7-.18-.87-.26-.97-.44-.07-.12-.08-.16-.07-.32.02-.23.1-.37.28-.45.11-.05.21-.06.97-.06h.84v-.27h-.73c-.41,0-.81.02-.91.03Z"/>
  <path d="M32.66,91.56v1.72h.27v-3.43h-.27v1.72Z"/>
  <path d="M43.7,89.88c-.22.03-.38.12-.51.26-.14.16-.19.3-.19.53s.05.37.2.54c.15.16.39.27.96.41.62.15.8.22.96.37.15.14.2.26.2.48,0,.25-.11.39-.37.49-.16.06-.23.07-1.07.08h-.9v.26h.94c.88-.02.94-.03,1.1-.09.4-.16.57-.39.57-.78,0-.16-.02-.25-.07-.37-.15-.32-.39-.46-1.23-.66-.61-.15-.83-.25-.94-.41-.17-.25-.11-.58.15-.77.08-.06.13-.06.98-.07h.89v-.28h-.75c-.42,0-.83.02-.93.03Z"/>
  <path d="M46.89,89.88c-.33.04-.55.2-.67.48-.09.19-.06.52.05.71.15.27.33.35,1.1.55.82.21,1.03.34,1.11.68.09.38-.12.63-.58.71-.11.02-.54.03-.96.03h-.77v.24h.84c.93,0,1.14-.03,1.39-.18.48-.3.5-1.05.04-1.36-.19-.13-.32-.18-.95-.34-.91-.23-1.06-.35-1.04-.76.01-.24.09-.37.28-.46.11-.05.21-.06.97-.06h.84v-.27h-.73c-.41,0-.81.02-.91.03Z"/>
  <path d="M51.74,89.88c-.32.05-.51.18-.64.43-.15.29-.07.73.16.94.14.13.4.23.92.36.27.07.56.15.64.18.37.14.53.34.53.66,0,.22-.05.31-.22.43-.18.13-.29.14-1.21.15l-.89.02v.24h.92c1.02-.03,1.09-.04,1.36-.23.27-.2.38-.58.26-.95-.11-.34-.4-.5-1.25-.72-.64-.16-.83-.24-.94-.42-.19-.28-.06-.7.24-.81.05-.02.41-.03.94-.03h.85v-.27h-.75c-.42,0-.82.02-.9.03Z"/>
  <path d="M76.44,89.88c-.45.06-.72.36-.73.79,0,.15.02.23.08.36.15.3.33.4,1.12.6.82.21,1.03.34,1.11.68.09.38-.12.63-.58.71-.11.02-.54.03-.96.03h-.77v.24h.84c.93,0,1.14-.03,1.39-.18.48-.3.5-1.05.04-1.36-.19-.13-.32-.18-.95-.34-.32-.08-.65-.19-.74-.23-.21-.11-.3-.26-.3-.49,0-.2.07-.35.21-.46l.11-.08h.89s.89-.02.89-.02v-.27h-.73c-.41,0-.81.02-.91.03Z"/>
  <path d="M79.11,91.56v1.72h.27v-1.71s-.02-1.71-.02-1.71h-.13s-.13-.02-.13-.02v1.72Z"/>
  <path d="M89.88,89.87s-.02.78-.02,1.72v1.69h.27v-1c0-1.08.02-1.32.14-1.58.16-.37.46-.55.92-.57h.28v-.28h-.16c-.5,0-.91.2-1.11.55l-.06.11v-.65h-.12c-.06,0-.13,0-.14.02Z"/>
  <path d="M100.45,91.56v1.72h.24v-3.43h-.24v1.72Z"/>
  <path d="M111.96,91.56v1.72h.27v-1.07c0-.84.01-1.11.05-1.26.09-.36.24-.57.52-.71.17-.09.24-.1.48-.11h.29v-.28h-.16c-.51,0-.94.21-1.11.54l-.06.11v-.33s0-.32,0-.32h-.27v1.72Z"/>
  <path d="M114.55,89.88c-.25.04-.36.09-.49.21-.18.17-.24.31-.24.58,0,.26.06.4.22.56s.38.24.97.39c.77.19,1.01.32,1.1.61.05.15.02.41-.05.52-.16.22-.45.28-1.48.28h-.77v.24h.84c1.05,0,1.23-.03,1.51-.28.33-.29.34-.85.02-1.17-.18-.18-.4-.27-1.04-.43-.61-.15-.78-.22-.9-.34-.12-.12-.16-.23-.16-.41,0-.2.1-.37.27-.46.13-.06.16-.07.98-.07h.84v-.27h-.73c-.41,0-.81.02-.89.03Z"/>
  <g>
    <path class="st2" d="M149.55,79.86c-1.28,2.95-5.19,9.99-7.16,13.52-.65,1.16-2.11,1.58-3.28.94l-.04-.02c-1.18-.64-1.62-2.12-.98-3.3l5.85-10.78c1.31-2.53,2.04-3.82,2.04-6.09,0-2.83-1.53-5.17-2.08-6.13h0s-4.74-8.76-4.79-8.85c-1.48-2.51-2.33-5.44-2.33-8.57,0-2.92.96-6.29,1.96-8.12,1.41-2.58,4.8-8.83,6.59-12.14.64-1.18,2.12-1.62,3.3-.98h0c1.18.64,1.62,2.12.98,3.3l-.95,1.75s-5.2,9.57-5.2,9.58c-.57,1.03-1.82,3.79-1.82,6.51,0,2.32.79,4.39,1.72,6.34.08.16,5.44,9.96,5.44,9.96-.05-.02,2.04,3.21,2.04,7.32,0,2.28-.68,4.34-1.29,5.73Z"/>
    <path class="st1" d="M141.78,79.86c-1.28,2.95-5.19,9.99-7.16,13.52-.65,1.16-2.11,1.58-3.28.94l-.04-.02c-1.18-.64-1.62-2.12-.98-3.3l5.85-10.78c1.31-2.53,2.04-3.82,2.04-6.09,0-2.83-1.53-5.17-2.08-6.13h0s-4.74-8.76-4.79-8.85c-1.48-2.51-2.33-5.44-2.33-8.57,0-2.92.96-6.29,1.96-8.12,1.41-2.58,4.8-8.83,6.59-12.14.64-1.18,2.12-1.62,3.3-.98h0c1.18.64,1.62,2.12.98,3.3l-.95,1.75s-5.2,9.57-5.2,9.58c-.57,1.03-1.82,3.79-1.82,6.51,0,2.32.79,4.39,1.72,6.34.08.16,5.44,9.96,5.44,9.96-.05-.02,2.04,3.21,2.04,7.32,0,2.28-.68,4.34-1.29,5.73Z"/>
    <path class="st0" d="M134.01,79.86c-1.28,2.95-5.19,9.99-7.16,13.52-.65,1.16-2.11,1.58-3.28.94l-.04-.02c-1.18-.64-1.62-2.12-.98-3.3l5.85-10.78c1.31-2.53,2.04-3.82,2.04-6.09,0-2.83-1.53-5.17-2.08-6.13h0s-4.74-8.76-4.79-8.85c-1.48-2.51-2.33-5.44-2.33-8.57,0-2.92.96-6.29,1.96-8.12,1.41-2.58,4.8-8.83,6.59-12.14.64-1.18,2.12-1.62,3.3-.98h0c1.18.64,1.62,2.12.98,3.3l-.95,1.75s-5.2,9.57-5.2,9.58c-.57,1.03-1.82,3.79-1.82,6.51,0,2.32.79,4.39,1.72,6.34.08.16,5.44,9.96,5.44,9.96-.05-.02,2.04,3.21,2.04,7.32,0,2.28-.68,4.34-1.29,5.73Z"/>
  </g>
</svg>