<?xml version="1.0" encoding="UTF-8"?>
<svg id="_Шар_1" data-name="Шар_1" xmlns="http://www.w3.org/2000/svg" version="1.1" viewBox="0 0 182 124">
  <!-- Generator: Adobe Illustrator 30.5.1, SVG Export Plug-In . SVG Version: 2.1.4 Build 3)  -->
  <defs>
    <style>
      .st0 {
        fill: #a52529;
      }
    </style>
  </defs>
  <g id="NGDCeH.tif">
    <g>
      <path class="st0" d="M167.39,60.69c.02,5.08.02,21.11.02,21.11,0,7.27-6,13.14-13.27,13.14H28.54c-6.83,0-13.95-6.51-13.94-13.25v-20.79c0-7.06,6.92-13.22,14.03-13.46,1.09-.12,1.9.45,2,1.43.09.89-.46,1.76-1.64,1.78-5.76.11-11.04,4.55-11.22,10.61-.2,6.72-.21,13.11,0,19.92.17,5.43,5.05,10.48,10.66,10.48h124.96c5.6,0,10.52-5.04,10.67-10.47.19-6.89.23-13.35-.02-20.15-.22-5.95-5.57-10.29-11.19-10.39-1.2-.02-1.74-.89-1.64-1.77.11-1.04.85-1.49,2.02-1.44,7.44.26,14.13,5.77,14.15,13.25Z"/>
      <polygon class="st0" points="46.47 84.63 46.36 74.25 42.92 84.61 38.52 84.64 35.17 74.58 35.09 84.63 29.73 84.63 29.73 57.32 34.92 57.32 40.72 74.63 46.6 57.31 51.84 57.33 51.84 84.63 46.47 84.63"/>
      <polygon class="st0" points="153.39 84.61 148.6 84.63 141.45 70.44 141.33 84.63 135.96 84.63 135.95 57.36 140.85 57.32 148.02 71.67 148.04 57.34 153.39 57.31 153.39 84.61"/>
      <path class="st0" d="M96.9,84.57l-6.04.09-4.41-8c-.41-.05-1.04-.05-1.3.03v7.95s-5.55-.03-5.55-.03v-27.28s7.16,0,7.16,0c1.44,0,2.89.31,4.22.75,1.85.81,3.2,2.12,3.92,4.01,1.53,4.44,1.17,10.55-2.98,13.18l4.99,9.3ZM89.46,69.91c1.22-1.63,1.18-4.5-.05-6.04-1-1.26-2.94-1.12-4.26-1.05v8.19c1.33.14,3.26.3,4.31-1.1Z"/>
      <path class="st0" d="M69.26,79.98l-6.95-.02-1.24,4.68-5.62-.02,7.82-27.29h5.05s7.78,27.3,7.78,27.3h-5.6s-1.23-4.65-1.23-4.65ZM67.69,74.41c-.69-2.43-1.17-4.19-1.94-6.39l-1.94,6.41,3.88-.03Z"/>
      <polygon class="st0" points="130.09 74.04 123.14 74.06 123.11 79.22 131.69 79.22 131.68 84.63 117.7 84.63 117.7 57.32 131.46 57.32 131.46 62.75 123.12 62.75 123.11 68.52 130.04 68.51 130.09 74.04"/>
      <polygon class="st0" points="109.09 84.62 103.67 84.64 103.67 62.77 98.61 62.74 98.61 57.31 114.16 57.32 114.16 62.75 109.08 62.76 109.09 84.62"/>
      <g>
        <path class="st0" d="M104.73,29.06h.22l.25.84c2.25,3.45,1.18,7.79-2.1,10.25-2.45,1.59-3.7,4.05-3.52,6.99-2.8-3.82-1.83-8.7,1.86-11.31,2.29-1.62,3.62-4.06,3.29-6.78Z"/>
        <path class="st0" d="M82.05,47.05c-2.77-3.78-1.69-8.83,2.2-11.48,2.1-1.43,3-3.55,3.12-6.22,2.69,3.56,1.68,8.47-1.91,10.92-2.25,1.51-3.43,3.71-3.42,6.78Z"/>
        <path class="st0" d="M90.81,47.05c-2.85-3.75-1.7-8.82,2.21-11.49,2.1-1.44,3.13-3.76,3.01-6.33,2.71,3.48,1.91,8.36-1.69,10.94-2.3,1.54-3.6,3.74-3.53,6.89Z"/>
      </g>
    </g>
  </g>
</svg>