<?xml version="1.0" encoding="UTF-8"?>
<svg id="_Шар_1" data-name="Шар_1" xmlns="http://www.w3.org/2000/svg" version="1.1" viewBox="0 0 182 124">
  <!-- Generator: Adobe Illustrator 29.0.0, SVG Export Plug-In . SVG Version: 2.1.0 Build 186)  -->
  <path d="M120.65,68.4h-.61c-.7,0-1.35.31-1.8.84l-13.5,16.22-13.49-16.22c-.44-.53-1.1-.84-1.8-.84h-.61c-1.29,0-2.34,1.05-2.34,2.34v18.09c0,.65.52,1.17,1.17,1.17h1.71c.65,0,1.17-.52,1.17-1.17v-14.1l12.35,14.85c.22.27.55.42.9.42h1.9c.35,0,.68-.15.9-.42l12.35-14.85v14.1c0,.65.52,1.17,1.17,1.17h1.71c.65,0,1.17-.52,1.17-1.17v-18.09c0-1.29-1.05-2.34-2.34-2.34Z"/>
  <path d="M173.7,77.16s-.09-.01-.14-.01h-12.12c-1.95-.45-3.1-2.92-1.08-5.1.21-.23.52-.34.83-.34h5.82c.65,0,1.17-.52,1.17-1.17v-.96c0-.65-.52-1.17-1.17-1.17h-6.35c-3.19.15-5.73,2.79-5.73,6.03s2.54,5.87,5.73,6.01h0s.28.01.28.01h11.19c.09,0,.2-.01.29-.01h.02c2.64,0,4.49,3.26,1.83,5.93-.21.21-.51.32-.81.32h-17.03c-.65,0-1.17.52-1.17,1.17v.97c0,.65.52,1.17,1.17,1.17h17.12c.07,0,.15,0,.22-.01,3.45-.11,6.21-2.94,6.21-6.41s-2.8-6.35-6.3-6.42Z"/>
  <path d="M152.87,74.43c0-3.08-2.31-5.61-5.28-5.97v-.06h-17.55s-2.88,0-2.88,0c-.65,0-1.17.52-1.17,1.17v19.26c0,.65.52,1.17,1.17,1.17h19.7s0-.01,0-.01c3.34-.09,6.01-2.84,6.01-6.21,0-1.9-.84-3.59-2.19-4.72,1.33-1.1,2.19-2.76,2.19-4.63ZM145.89,86.7h-15.85v-5.86h15.85c1.63,0,2.94,1.31,2.94,2.94s-1.31,2.93-2.94,2.93ZM145.91,77.53h-15.87v-5.83h15.87c1.61,0,2.91,1.31,2.91,2.91s-1.3,2.91-2.91,2.91Z"/>
  <ellipse cx="18.37" cy="68.77" rx="17.75" ry="11.21" transform="translate(-31.93 18.4) rotate(-30)"/>
  <path d="M51.36,60.88c-4.54,4.2-3.34,12.89,2.68,19.4,6.02,6.51,14.59,8.38,19.13,4.17,4.54-4.21,3.34-12.89-2.68-19.4-6.02-6.51-14.59-8.38-19.13-4.17Z"/>
  <ellipse cx="27.44" cy="41.42" rx="13.75" ry="7.43"/>
  <path d="M58.89,51.53c4.83,3.03,9.96,3.57,11.45,1.2,1.49-2.37-1.22-6.75-6.06-9.79-4.83-3.03-9.96-3.57-11.45-1.2s1.22,6.75,6.06,9.79Z"/>
</svg>