<?xml version="1.0" encoding="UTF-8"?>
<svg id="_Шар_1" data-name="Шар_1" xmlns="http://www.w3.org/2000/svg" version="1.1" viewBox="0 0 182 124">
  <!-- Generator: Adobe Illustrator 30.5.1, SVG Export Plug-In . SVG Version: 2.1.4 Build 3)  -->
  <defs>
    <style>
      .st0 {
        fill: #fff;
      }

      .st1 {
        fill: #ee7214;
      }
    </style>
  </defs>
  <rect class="st1" x="37.53" y="29.06" width="106.94" height="65.88" rx="4.51" ry="4.51"/>
  <path class="st0" d="M106.4,83.82h-3.42v-13.85c0-1.51-1.64-4.84-5.29-4.84-3.2,0-5.4,2.74-5.4,4.84v13.85h-3.42v-13.85c0-1.98-2.08-4.84-5.29-4.84-3.89,0-5.4,3.82-5.4,4.87v13.83h-3.42v-20.88h3.42s0,1.82,0,1.82c0,0,2.07-2.68,5.96-2.68,3.38,0,5.47,1.71,6.7,3.39,1.72-2.26,3.88-3.46,7.01-3.46,5.53,0,8.56,4.47,8.56,7.96v13.85Z"/>
  <path class="st0" d="M49.93,62.86h3.42s0,1.82,0,1.82c0,0,2.15-2.68,5.94-2.68,1.56,0,3.1.22,4.75,1.41,2.39,1.71,3.42,4.44,3.42,5.65v14.76h-3.42v-13.85c0-1.52-1.52-4.84-5.35-4.84-3.41,0-5.35,3.31-5.35,4.84v13.85h-3.42v-20.96Z"/>
  <path class="st0" d="M128.64,69.96s-.15-4.84-5.6-4.84c-8.14,0-7.82,15.57,0,15.57,5.33,0,5.58-4.82,5.58-4.82l3.44-.03s-1.22,7.96-9.02,7.96c-5.86,0-9.27-4.59-9.27-11.1,0-5.91,3.42-10.72,9.27-10.72,7.99,0,9.02,7.96,9.02,7.96h-3.42Z"/>
</svg>