<?xml version="1.0" encoding="UTF-8"?>
<svg id="_Шар_1" data-name="Шар_1" xmlns="http://www.w3.org/2000/svg" version="1.1" viewBox="0 0 182 124">
  <!-- Generator: Adobe Illustrator 29.0.0, SVG Export Plug-In . SVG Version: 2.1.0 Build 186)  -->
  <defs>
    <style>
      .st0 {
        fill: #e32a24;
      }

      .st1 {
        fill: #4d5056;
      }
    </style>
  </defs>
  <path class="st1" d="M69.33,74.86h-14.08c-.21-7.64-3.18-18.34-11.89-19.98-7.81-1.48-12.7,4.57-16.4,10.36-.56.88-1.15,1.8-1.56,2.76-.27-.32-.37-.73-.64-1.08-.75-.99-1.98-1.71-3.05-2.31,1.39-1.52,3.78-4.1,3.76-6.27-.02-2.02-2.21-3.52-3.85-4.28,2.07-2.26,3.98-4.66,6.24-6.74,7.76-7.14,17.15-9.47,26.84-4.28,11.3,6.04,14.97,19.82,14.61,31.83Z"/>
  <path class="st0" d="M49.37,74.86h-21.04c1.78-3.39,3.58-6.83,5.88-9.9,2.06-2.75,5.32-5.26,8.98-4.06,5.02,1.65,6.26,9.42,6.18,13.96Z"/>
  <path class="st1" d="M153.41,74.86h-5.11v-15.32h-1.59s0,11.35,0,11.35c0,1.63-.17,2.28-.96,3.06-1.2,1.16-4.26.81-5.83.92v-3.26c1.64.09,1.6-.7,1.68-2.05v-13.77s11.82,0,11.82,0v19.09Z"/>
  <polygon class="st1" points="79.39 55.77 79.39 62.55 80.98 62.55 80.98 55.77 86.09 55.77 86.09 74.86 80.98 74.86 80.98 66.82 79.39 66.82 79.39 74.86 74.27 74.86 74.27 55.77 79.39 55.77"/>
  <path class="st1" d="M100.85,55.77h4.47s2.38.03,3.19.1c2.66.2,3.75,1.76,3.91,4.38.08,1.28.13,3.21-1.24,3.79l-1.36.53c.96.22,2.05.61,2.53,1.54.69,1.34.65,5.71.03,7.09-.74,1.63-2.88,1.68-4.44,1.68-2.35,0-7.09,0-7.09,0v-19.09ZM105.96,58.95v4.27c.56-.02,1.35.02,1.58-.64.19-.54.22-2.64-.03-3.13-.29-.58-.97-.46-1.54-.5ZM105.96,71.59c.6-.03,1.33,0,1.58-.65.19-.5.15-2.93.11-3.59-.08-1.16-.65-1.13-1.68-1.13v5.36Z"/>
  <path class="st1" d="M167.99,55.77h4.47s2.38.03,3.19.1c2.66.2,3.75,1.76,3.91,4.38.08,1.28.13,3.21-1.24,3.79l-1.36.53c.96.22,2.05.61,2.53,1.54.69,1.34.65,5.71.03,7.09-.74,1.63-2.88,1.68-4.44,1.68-2.35,0-7.09,0-7.09,0v-19.09ZM173.11,58.95v4.27c.56-.02,1.35.02,1.58-.64.19-.54.22-2.64-.03-3.13-.29-.58-.97-.46-1.54-.5ZM173.11,71.59c.6-.03,1.33,0,1.58-.65.19-.5.15-2.93.11-3.59-.08-1.16-.65-1.13-1.68-1.13v5.36Z"/>
  <path class="st1" d="M92.36,55.38c3.44-.35,6.66.9,6.97,4.71.22,2.64.18,5.95.09,8.63-.11,3.18-.63,5.66-4.19,6.36-4.17.82-7.48-.8-7.71-5.28-.14-2.7-.13-6.17,0-8.88.15-3.15,1.53-5.2,4.85-5.54ZM93.46,58.49c-.52,0-.92.39-.92,1.16v11.14c0,.22-.02,1.3.88,1.3.75,0,.97-.72.97-1.1v-11.38c0-.51-.35-1.12-.93-1.12Z"/>
  <path class="st1" d="M113.51,74.86l2.6-19.09h7.34s3.06,19.09,3.06,19.09h-5.2l-.25-3.43h-1.93l-.26,3.43h-5.36ZM119.17,68.08h1.59s-.98-7.95-.98-7.95l-.61,7.95Z"/>
  <path class="st1" d="M154,74.86l2.6-19.09h7.34s3.06,19.09,3.06,19.09h-5.2l-.25-3.43h-1.93l-.26,3.43h-5.36ZM159.66,68.08h1.59s-.98-7.95-.98-7.95l-.61,7.95Z"/>
  <path class="st1" d="M139.5,64.06h-5.11c0-1.16.01-3.29,0-4.43,0-.56-.32-1.13-.99-1.13-.77,0-.97.55-.97,1.38v10.88c0,.64.18,1.35,1,1.35s.96-.71.96-1.31c0-.82,0-2.7,0-3.56h5.11l-.08,2.89c-.03,3.63-3.04,5.19-6.15,5.15-.75,0-1.5-.12-2.21-.31-2.75-.7-3.68-2.5-3.71-5.17-.03-2.85-.03-6.63,0-9.47.02-1.82.76-3.24,2.38-4.15,2.78-1.57,8.46-1.09,9.42,2.51.45,1.68.32,3.65.36,5.37Z"/>
  <path class="st0" d="M3.82,51.43c.49.24.95.51,1.47.68,5.28,1.79,14.02.33,18.13,3.91,2.01,1.75,1.37,3.38.06,5.33-.27.4-2.31,2.99-2.56,2.95-1.66-1.93-4.27-2.61-6.68-3.13-3.29-.72-9.96-1.29-11.77-4.48-1.07-1.88.01-3.85,1.35-5.25Z"/>
  <path class="st0" d="M3.82,61.97c.48.27.95.51,1.47.68,5.19,1.74,13.44.44,17.66,3.54,2.77,2.03,1.82,4.05.04,6.39-.23.3-1.9,2.29-2.08,2.26-1.76-2.02-4.56-2.68-7.09-3.22-3.18-.68-9.63-1.29-11.36-4.4-1.06-1.92,0-3.83,1.35-5.26Z"/>
  <path class="st0" d="M3.81,40.79c.24.27.61.43.94.56,5.23,2.17,15.58.3,19.22,4.66,2.11,2.52-1.41,5.94-3.06,7.74-1.46-1.71-3.69-2.45-5.83-2.97-3.45-.84-10.47-1.32-12.53-4.48-1.29-1.99-.13-3.97,1.25-5.52Z"/>
  <path class="st1" d="M19.87,74.86H7.29v-3.85c2.85.88,5.93,1.06,8.78,1.9,1.3.38,2.85.96,3.79,1.95Z"/>
  <path class="st1" d="M20.79,40.28v2.85c-4.38-1.23-9.04-.94-13.49-1.85v-1s13.49,0,13.49,0Z"/>
  <polygon class="st0" points="8.72 79.29 10.31 82.56 11.86 79.29 13.24 79.29 13.24 83.65 12.24 83.65 12.24 80.55 10.64 83.65 9.8 83.65 8.3 80.55 8.3 83.65 7.29 83.65 7.29 79.29 8.72 79.29"/>
  <polygon class="st0" points="161.75 79.29 163.34 82.56 164.9 79.29 166.28 79.29 166.28 83.65 165.27 83.65 165.27 80.55 163.68 83.65 162.84 83.65 161.33 80.55 161.33 83.65 160.33 83.65 160.33 79.29 161.75 79.29"/>
  <path class="st1" d="M7.29,49.91c3.97,1.18,8.4,1.07,11.99,3.31l-11.99-1.38v-1.93Z"/>
  <path class="st1" d="M7.29,60.46c2.84.87,5.88,1.05,8.72,1.88,1.14.33,2.43.79,3.35,1.55l-12.07-1.51v-1.93Z"/>
  <path class="st0" d="M75.78,83.65h-1.01v-4.35h1.01v1.72h.94c.17-1.32,1.28-1.91,2.37-1.88,1.27.03,2.31.87,2.31,2.39s-.94,2.26-2.29,2.27c-1.24,0-2.24-.67-2.4-2.02h-.93v1.89ZM78.78,79.9c-1.47.26-1.44,3.63.72,3.14,1.22-.28,1.31-3.51-.72-3.14Z"/>
  <path class="st0" d="M41.83,79.29s1.69,0,2.25,0c1.53,0,1.86.29,1.86,1.05,0,.84-.73,1.04-.73,1.04.53.11.88.42.88,1.15,0,1-.83,1.12-1.28,1.12h-2.98v-4.35ZM42.84,81.13h1.3c.14,0,.81,0,.81-.61,0-.53-.48-.56-.81-.56h-1.3v1.17ZM42.84,82.98h1.72c.71,0,.71-1.17,0-1.17h-1.72v1.17Z"/>
  <path class="st0" d="M82.28,79.29s1.69,0,2.25,0c1.53,0,1.86.29,1.86,1.05,0,.84-.73,1.04-.73,1.04.53.11.88.42.88,1.15,0,1-.83,1.12-1.28,1.12h-2.98v-4.35ZM83.29,81.13h1.3c.14,0,.81,0,.81-.61,0-.53-.48-.56-.81-.56h-1.3v1.17ZM83.29,82.98h1.72c.71,0,.71-1.17,0-1.17h-1.72v1.17Z"/>
  <path class="st0" d="M19.19,81.72h-3.94c-.07.54.42,1.15.94,1.28.66.17,1.73.09,1.88-.7h1.04c-.5,2.03-4.22,1.86-4.82,0-1.2-3.71,5.13-4.3,4.9-.59ZM18.1,81.05c-.25-1.54-2.62-1.58-2.85,0h2.85Z"/>
  <path class="st0" d="M40.88,81.72h-3.94c-.07.54.42,1.15.94,1.28.66.17,1.73.09,1.88-.7h1.04c-.5,2.03-4.22,1.86-4.82,0-1.2-3.71,5.13-4.3,4.9-.59ZM39.79,81.05c-.25-1.54-2.62-1.58-2.85,0h2.85Z"/>
  <path class="st0" d="M125.36,81.72h-3.94c-.07.54.42,1.15.94,1.28.66.17,1.73.09,1.88-.7h1.04c-.5,2.03-4.22,1.86-4.82,0-1.2-3.71,5.13-4.3,4.9-.59ZM124.27,81.05c-.25-1.54-2.62-1.58-2.85,0h2.85Z"/>
  <path class="st0" d="M29.09,83.65h-1.05s0-.34,0-.34c-.81.43-1.98.63-2.83.23-.5-.23-.75-.64-.75-1.05,0-1.01,1.46-1.52,2.23-1.52h1.38c.16-1.02-.72-1.18-1.54-1.08-.57.07-.76.25-1.03.73h-.87c-.14-1.91,4.44-1.82,4.44-.2v3.22ZM28.08,81.55c-.63.03-2.6-.06-2.6.88s2.14.72,2.59.07v-.95Z"/>
  <path class="st0" d="M67.75,83.65h-1.05s0-.34,0-.34c-.81.43-1.98.63-2.83.23-.5-.23-.75-.64-.75-1.05,0-1.01,1.46-1.52,2.23-1.52h1.38c.16-1.02-.72-1.18-1.54-1.08-.57.07-.76.25-1.03.73h-.87c-.14-1.91,4.44-1.82,4.44-.2v3.22ZM66.75,81.55c-.63.03-2.6-.06-2.6.88s2.14.72,2.59.07v-.95Z"/>
  <path class="st0" d="M92.05,83.65h-1.05s0-.34,0-.34c-.81.43-1.98.63-2.83.23-.5-.23-.75-.64-.75-1.05,0-1.01,1.46-1.52,2.23-1.52h1.38c.16-1.02-.72-1.18-1.54-1.08-.57.07-.76.25-1.03.73h-.87c-.14-1.91,4.44-1.82,4.44-.2v3.22ZM91.04,81.55c-.63.03-2.6-.06-2.6.88s2.14.72,2.59.07v-.95Z"/>
  <polygon class="st0" points="176.47 79.29 176.47 82.39 178.82 79.29 179.82 79.29 179.82 83.65 178.82 83.65 178.82 80.55 176.47 83.65 175.46 83.65 175.46 79.29 176.47 79.29"/>
  <path class="st0" d="M53.97,79.23c1.47-.15,2.85.59,2.88,2.19.03,1.71-1.34,2.43-2.9,2.31-2.8-.23-2.94-4.19.03-4.5ZM54.05,79.9c-1.05.14-1.37,1.27-1.13,2.18.38,1.42,2.65,1.31,2.83-.15.15-1.22-.34-2.21-1.7-2.03Z"/>
  <path class="st0" d="M34.87,79.29v4.35h-1.01v-3.68h-2.1v2.89c0,.27-.04.8-.8.8h-1.22v-.75c.25,0,1.01.07,1.01-.39v-3.22h4.11Z"/>
  <path class="st0" d="M73.52,79.29v4.35h-1.01v-3.68h-2.1v2.89c0,.27-.04.8-.8.8h-1.22v-.75c.25,0,1.01.07,1.01-.39v-3.22h4.11Z"/>
  <path class="st0" d="M97.83,79.29v4.35h-1.01v-3.68h-2.1v2.89c0,.27-.04.8-.8.8h-1.22v-.75c.25,0,1.01.07,1.01-.39v-3.22h4.11Z"/>
  <polygon class="st0" points="62.12 79.29 62.12 83.65 61.11 83.65 61.11 79.96 58.76 79.96 58.76 83.65 57.76 83.65 57.76 79.29 62.12 79.29"/>
  <polygon class="st0" points="119.38 79.29 119.38 83.65 118.37 83.65 118.37 79.96 116.02 79.96 116.02 83.65 115.02 83.65 115.02 79.29 119.38 79.29"/>
  <polygon class="st0" points="105.46 81.05 107.72 81.05 107.72 79.29 108.73 79.29 108.73 83.65 107.72 83.65 107.72 81.72 105.46 81.72 105.46 83.65 104.45 83.65 104.45 79.29 105.46 79.29 105.46 81.05"/>
  <polygon class="st0" points="170.9 81.05 173.16 81.05 173.16 79.29 174.17 79.29 174.17 83.65 173.16 83.65 173.16 81.72 170.9 81.72 170.9 83.65 169.9 83.65 169.9 79.29 170.9 79.29 170.9 81.05"/>
  <polygon class="st0" points="150.65 79.29 150.65 81.05 152.62 79.29 153.83 79.29 151.89 81.05 154.08 83.65 152.87 83.65 151.28 81.58 150.65 82.1 150.65 83.65 149.64 83.65 149.64 79.29 150.65 79.29"/>
  <path class="st0" d="M100.09,79.29v1.67h1.63c.18,0,1.74,0,1.74,1.31s-1.33,1.37-1.58,1.37h-2.81v-4.35h1.01ZM101.64,81.64h-1.55v1.34h1.59c.2,0,.78-.12.78-.67,0-.43-.43-.67-.82-.67Z"/>
  <path class="st0" d="M127.09,79.29v1.63c0,.46.59.53.77.55.49.06,1.08-.07,1.5-.17v-2.01h1.01v4.35h-1.01v-1.67c-.47.1-1.15.21-1.76.16-.46-.04-1.51-.23-1.51-1.04v-1.8h1.01Z"/>
  <polygon class="st0" points="23.97 79.29 23.97 79.96 22.3 79.96 22.3 83.65 21.29 83.65 21.29 79.96 19.61 79.96 19.61 79.29 23.97 79.29"/>
  <path class="st0" d="M145.62,83.65h-1.05s0-.34,0-.34c-.81.43-1.98.63-2.83.23-.5-.23-.75-.64-.75-1.05,0-1.01,1.46-1.52,2.23-1.52h1.38c.16-1.02-.72-1.18-1.54-1.08-.57.07-.76.25-1.03.73h-.87c-.14-1.91,4.44-1.82,4.44-.2v3.22ZM144.61,81.55c-.63.03-2.6-.06-2.6.88s2.14.72,2.59.07v-.95Z"/>
  <path class="st0" d="M159.02,83.65h-1.05s0-.34,0-.34c-.81.43-1.98.63-2.83.23-.5-.23-.75-.64-.75-1.05,0-1.01,1.46-1.52,2.23-1.52h1.38c.16-1.02-.72-1.18-1.54-1.08-.57.07-.76.25-1.03.73h-.87c-.14-1.91,4.44-1.82,4.44-.2v3.22ZM158.02,81.55c-.63.03-2.6-.06-2.6.88s2.14.72,2.59.07v-.95Z"/>
  <polygon class="st0" points="140.5 79.29 140.5 79.96 138.83 79.96 138.83 83.65 137.82 83.65 137.82 79.96 136.14 79.96 136.14 79.29 140.5 79.29"/>
  <g>
    <rect class="st0" x="47.2" y="79.29" width="1.01" height="4.35"/>
    <rect class="st0" x="47.2" y="77.7" width="1.01" height=".88"/>
  </g>
  <g>
    <rect class="st0" x="110.07" y="79.29" width="1.01" height="4.35"/>
    <rect class="st0" x="110.07" y="77.7" width="1.01" height=".88"/>
  </g>
  <g>
    <rect class="st0" x="131.7" y="79.29" width="1.01" height="4.35"/>
    <rect class="st0" x="131.7" y="77.7" width="1.01" height=".88"/>
  </g>
  <g>
    <rect class="st0" x="167.58" y="79.29" width="1.01" height="4.35"/>
    <rect class="st0" x="167.58" y="77.7" width="1.01" height=".88"/>
  </g>
</svg>