<?xml version="1.0" encoding="UTF-8"?>
<svg id="_Шар_1" data-name="Шар_1" xmlns="http://www.w3.org/2000/svg" version="1.1" viewBox="0 0 182 124">
  <!-- Generator: Adobe Illustrator 30.5.1, SVG Export Plug-In . SVG Version: 2.1.4 Build 3)  -->
  <defs>
    <style>
      .st0 {
        fill: #ee7e00;
      }

      .st1 {
        fill: #fff;
      }
    </style>
  </defs>
  <path class="st0" d="M131,36.48l-37.22-7.12c-1.73-.37-3.29-.4-5.38-.03l-37.6,7.19c-1.89.77-3.08,2.24-3.36,4.29v41.81c0,2.39,1.31,4.29,3.56,5.04l35.48,6.77c2.58.55,4.85.69,7.61.26l36.91-7.03c2.23-.75,3.51-2.66,3.56-5.04v-41.58c-.21-2.2-1.49-3.83-3.56-4.55ZM132.4,82.84c-.05,1.66-1.13,2.77-2.77,2.9l-36.13,6.89c-1.9.54-3.31.36-5.08,0l-36.25-6.94c-1.56-.19-2.51-1.27-2.58-2.86v-41.58c.06-1.3.66-2.28,1.86-2.71l37.15-7.09c1.87-.33,3.12-.28,4.77,0l37.16,7.09c1.19.46,1.81,1.41,1.86,2.71v41.58Z"/>
  <path class="st0" d="M131.57,41.1c-.34-1.05-.79-1.64-1.85-1.8l-36.2-6.91-2.51-.17-2.32.14-36.42,6.95c-1.16.19-1.86.99-1.8,2.19v41.13c-.1,1.22.62,2.03,1.8,2.2l36.63,7.01c1.65.22,2.8.18,4.52-.08l36.5-6.96c1.1-.25,1.66-1.02,1.66-2.17v-41.52ZM64.54,69.19c-.11.38-.25.53-.75.75l-.1-1.43c.66-.04.8.1.85.68ZM68.03,75.07l-5.53.03-.62-.75h5.63s2.67-2.65,2.67-2.65v-17.22l.79-.02v17.69s-2.94,2.91-2.94,2.91ZM86.12,72.14l-2.91,2.96h-5.28l-.88-.76,5.63.02,2.69-2.63v-15.7s.77.69.77.69v15.42ZM89.71,73.59v-20.77s10.07,0,10.07,0l.02,3.25h-6.62s0,5.13,0,5.13l4.99.03-.03,3.04h-4.96s0,6.22,0,6.22h6.61l-.03,3.08-10.04.02ZM98.8,64.99v-2.21s.81,0,.81,0v3.01l-4.99.06-.02,3.99-.76.02v-4.85s4.96-.03,4.96-.03ZM91.13,75.06v-.72s9.37,0,9.37,0v-2.31s.83,0,.83,0v3.04s-10.21-.03-10.21-.03ZM94.63,57.5v2.96h-.82v-3.65h6.69v-2.33s.82-.03.82-.03l.04,3.04h-6.73ZM103.69,56.32v-3.43s3.56,0,3.56,0l-.02,3.49-1.29,2.17-1.71.02,1.18-2.2-1.73-.03ZM108.75,57.2l-1.85,2.73h-1.07l2.12-3.17.02-2.39.77.03v2.79ZM111.2,71.34v-3.97s3.39-.03,3.39-.03v2.93s3.47,0,3.47,0v-3.89l-6.86-4.42v-6.83s2.27-2.25,2.27-2.25h5.74l2.27,2.27v3.51h-3.43v-2.11l-.67-.42-2.09-.03-.7.44v3.42l6.89,4.4v6.64l-2.48,2.57h-5.94s-1.86-2.23-1.86-2.23ZM115.46,69.73l.02-1.21h.79s0,1.22,0,1.22h-.8ZM117.32,56.8v.68h-1.23v2.52l-.77-.44v-2.75h2ZM123.08,72.21l-3.21,2.98h-4.83l-1.09-.83h5.45s2.81-2.64,2.81-2.64v-7.02l.87.67v6.83ZM123.08,60.16h-3.56v-.76h2.7v-3.43l.87.75v3.44Z"/>
  <path class="st0" d="M81.14,56.4c-1.12-.6-2.47-.63-3.33.23l.03,12.21c-.05.56.06,1.05.26,1.47l1.48.26c.94-.05,1.53-.42,1.59-1.27l-.03-12.9ZM79.57,57.52l-.29.8.04,11.4-.78-.05-.22-.83v-11.2l.37-.81.96-.12.79.13.02.66-.9.03Z"/>
  <g>
    <path class="st1" d="M65.3,48.95c-1.27.56-3.67.28-4.27-1.49-.48-1.42-.6-3.32,1.82-4.26,1.43-.55,3.42-.29,4.2,1.7,1.04,2.67-1.29,3.85-1.75,4.06ZM62.81,46.49c.67,1.76,1.34,1.9,2.05,1.63.43-.17.96-1.06.43-2.44-.35-.91-.95-1.99-2.02-1.58-.45.17-1.11.66-.45,2.39Z"/>
    <path class="st1" d="M101.46,47.37c-1.39.06-3.53-1.06-3.44-2.94.07-1.5.64-3.31,3.24-3.31,1.53,0,3.3.96,3.3,3.1,0,2.86-2.6,3.13-3.1,3.15ZM100.04,44.17c-.02,1.88.57,2.26,1.32,2.26.46,0,1.28-.64,1.28-2.12,0-.97-.17-2.2-1.32-2.2-.48,0-1.27.22-1.29,2.06Z"/>
    <path class="st1" d="M74,46.66c.13.16.24.29.33.38.09.09.16.17.23.22s.13.09.18.11c.06.02.14.04.23.06l.03.28-2.34.25-.03-.29c.1-.02.16-.06.19-.09.03-.04.04-.08.04-.14,0-.05-.02-.09-.03-.13-.02-.04-.06-.11-.11-.19s-.17-.23-.35-.44l-.77-.95c-.09-.11-.17-.2-.24-.27-.07-.06-.13-.11-.19-.13s-.26,0-.26,0l.18,1.71c.01.1.02.19.04.28s.03.16.06.21c.02.05.05.1.09.13.04.03.09.06.15.08.06.02.06.02.14.03l.03.29-2.27.24-.03-.29c.1-.04.18-.08.24-.12s.1-.09.12-.15.04-.14.03-.23c0-.09,0-.21-.02-.34l-.39-3.72c-.01-.14-.03-.25-.05-.34-.02-.09-.04-.16-.08-.22-.04-.05-.09-.1-.15-.13-.07-.03-.15-.05-.27-.07l-.03-.28,2.27-.24.03.28c-.12.04-.13.1-.18.15-.05.04-.09.09-.11.15-.02.05-.03.12-.04.2,0,.08,0,.2.02.37l.16,1.54s.25-.06.32-.1.15-.1.22-.18c.07-.08.21-.28.42-.57.21-.3.35-.53.44-.69s.15-.29.18-.39c.03-.1.04-.2.03-.29-.01-.1-.05-.18-.13-.23s-.17-.07-.3-.06l-.03-.28,2.21-.23.03.29c-.11.03-.2.07-.27.12-.07.05-.16.12-.25.22-.09.1-.21.25-.34.44l-1.14,1.59,1.75,2.16Z"/>
    <path class="st1" d="M79.08,41.48v.29c-.09.03-.17.07-.23.1-.06.04-.1.08-.13.14-.03.06-.05.13-.06.23s0,.21,0,.35l.18,3.95.84-.03c.17,0,.3-.04.4-.09.36-.2.51-.64.53-.81l.59-.02-.02,1.76-4.13.17v-.29c.09-.03.18-.07.24-.11s.1-.09.13-.15c.03-.06.04-.14.05-.23,0-.09,0-.21,0-.35l-.15-3.74c0-.14-.01-.25-.02-.34-.01-.09-.03-.17-.07-.22-.03-.06-.08-.1-.14-.14-.06-.03-.15-.06-.26-.09v-.29s2.27-.09,2.27-.09Z"/>
    <path class="st1" d="M95.6,45.88c0,.22,0,.38.03.46.02.08.06.15.11.21.06.06.16.1.32.14v.29h-2.27v-.29c.17-.04.28-.09.33-.13.05-.04.08-.11.1-.18s.03-.24.03-.49v-1.74h-1.96v1.74c0,.1,0,.2,0,.28s.02.16.03.21c.02.06.04.1.08.14.03.04.08.07.14.1.06.03.13.05.21.07v.29h-2.28v-.29c.11-.03.19-.06.25-.09s.11-.08.14-.14.05-.13.06-.23c0-.09.01-.21.01-.35v-3.74c0-.14,0-.25-.01-.34,0-.09-.03-.17-.06-.23-.03-.06-.08-.1-.14-.14-.06-.04-.15-.07-.26-.1v-.29h2.28v.29c-.15.04-.26.09-.32.14s-.1.12-.12.21c-.02.09-.03.24-.03.46v1.45h1.96v-1.45c0-.22,0-.37-.03-.46-.02-.09-.06-.15-.11-.21-.06-.05-.16-.1-.32-.15v-.29h2.27v.29c-.13.03-.22.07-.28.11-.06.04-.1.09-.12.15-.02.06-.04.13-.05.2,0,.08-.01.19-.01.35v3.74Z"/>
    <path class="st1" d="M113.76,42.64c-.16.03-.26.07-.32.12-.06.05-.1.11-.13.19-.03.08-.05.23-.07.45l-.3,3.74c-.01.18-.02.32,0,.42,0,.1.04.18.09.24.05.06.15.11.32.17l-.02.29-2.22-.18.02-.29c.13-.02.22-.05.27-.07s.09-.05.12-.09c.03-.04.06-.1.08-.19.02-.08.04-.22.05-.42l.17-2.12c.02-.23.05-.51.08-.83s.06-.54.08-.67h-.09c-.04.11-.09.22-.14.32-.05.11-.14.3-.27.58l-1.41,3.03-.76-.06-.94-3.61c-.06-.21-.1-.41-.14-.61h-.08c0,.47-.04,1.04-.09,1.69l-.16,1.99c-.02.21-.02.36,0,.45s.05.16.1.22c.06.06.16.11.31.16l-.02.29-1.64-.13.02-.29c.11-.02.2-.04.26-.07.06-.03.12-.07.15-.13.04-.06.06-.13.08-.22.01-.09.03-.2.04-.34l.3-3.74c.02-.22.02-.37,0-.45-.01-.08-.04-.15-.09-.21s-.15-.11-.31-.17l.02-.29,2.15.17.91,3.65,1.58-3.45,2.03.16-.02.29Z"/>
    <path class="st1" d="M88.32,46.63c-.12-.02-.22-.06-.29-.12-.07-.05-.13-.13-.17-.22-.04-.09-.1-.24-.17-.46l-1.53-4.83h-.52s-1.34.02-1.34.02v.29c.11.03.2.06.25.1.07.04.11.08.14.14.03.05.08.12.06.2-.22.85-1.46,4.14-1.46,4.14-.07.21-.14.37-.2.48-.06.11-.14.2-.22.26-.08.07-.17.1-.28.12v.29s1.86-.04,1.86-.04v-.29c-.31-.01-.46-.16-.47-.45,0-.12,0-.24.03-.35.02-.11.06-.22.09-.34l.14-.42,1.85-.04.13.42c.05.17.09.3.11.41.02.11.03.21.04.3,0,.12-.03.22-.1.28-.07.07-.18.11-.33.13v.29s2.4-.05,2.4-.05v-.29ZM84.39,44.64l.82-2.46.74,2.43-1.56.03Z"/>
    <path class="st1" d="M121.28,49.07c-.12-.04-.21-.09-.27-.16-.06-.06-.11-.14-.14-.24-.03-.1-.07-.26-.1-.48l-.84-5-.52-.06-1.33-.18-.04.28c.11.05.19.09.24.13.06.05.1.1.12.16.02.05.06.13.03.2-.33.81-2.02,3.89-2.02,3.89-.1.19-.19.34-.27.44-.08.1-.16.18-.25.23-.09.05-.19.08-.29.08l-.03.28,1.84.22.03-.28c-.3-.06-.43-.22-.39-.51.01-.12.04-.23.08-.34.04-.1.09-.21.14-.32l.19-.39,1.84.22.07.44c.03.17.04.31.05.43,0,.11,0,.21,0,.3-.01.12-.06.21-.14.27-.08.06-.2.09-.35.08l-.03.28,2.38.29.03-.28ZM117.66,46.56l1.15-2.32.4,2.51-1.55-.19Z"/>
  </g>
  <g>
    <path class="st1" d="M73.97,82.38c0,.35-.13.62-.39.8-.26.19-.64.28-1.14.28-.9,0-1.43-.33-1.58-.98l.72-.12c.05.19.14.33.29.41s.34.13.59.13.46-.04.59-.12c.13-.08.19-.2.19-.36,0-.1-.03-.19-.09-.25-.06-.07-.14-.12-.25-.16-.05-.02-.13-.05-.24-.07-.11-.03-.24-.06-.39-.09-.18-.04-.32-.08-.42-.11s-.18-.06-.24-.09c-.06-.03-.12-.06-.18-.09-.13-.08-.23-.18-.3-.3-.07-.13-.11-.28-.11-.47,0-.32.12-.57.36-.74.24-.17.6-.26,1.06-.26s.78.07,1,.21c.22.14.37.37.43.69l-.73.1c-.04-.15-.11-.27-.23-.35-.11-.08-.28-.12-.49-.12-.23,0-.4.04-.51.11-.11.07-.17.18-.17.32,0,.09.02.17.07.23.05.06.12.11.21.15.09.04.28.09.58.15.17.04.32.07.44.11.12.03.22.06.3.09.07.03.14.07.2.1s.11.07.15.11c.09.08.15.18.2.29.05.11.07.25.07.39Z"/>
    <path class="st1" d="M77.52,81.24v2.16h-.79v-3.57h1.19l.76,2c.03.11.07.22.11.34.04.11.07.22.11.34.02-.06.04-.13.06-.19.02-.06.04-.13.06-.19.02-.06.04-.13.07-.19l.78-2.1h1.19v3.57h-.79v-2.16s0-.15,0-.3c0-.15.01-.31.02-.48-.07.23-.13.42-.19.58-.05.16-.1.28-.13.37l-.77,1.99h-.63l-.77-1.99-.32-.95c.01.2.02.36.03.49s0,.23,0,.29Z"/>
    <path class="st1" d="M87.63,81.61c0,.37-.08.7-.22.97-.15.28-.36.49-.63.65-.27.15-.59.23-.95.23s-.7-.07-.96-.22-.48-.36-.62-.64c-.14-.28-.22-.61-.22-.99s.07-.71.21-.98c.14-.27.35-.48.62-.62.27-.14.59-.22.97-.22s.7.07.97.22c.27.15.48.35.62.63.14.27.22.6.22.98ZM86.86,81.61c0-.39-.09-.69-.27-.91-.18-.22-.44-.33-.77-.33s-.59.11-.78.33c-.18.22-.27.52-.27.91,0,.26.04.49.13.67.08.19.2.34.36.44.16.1.34.15.56.15.33,0,.59-.11.77-.33.18-.22.27-.53.27-.94Z"/>
    <path class="st1" d="M91.24,82.11v1.3h-.81v-3.57h.81v1.62l1.75-1.62h.95l-1.66,1.51,1.79,2.06h-.96l-1.39-1.64-.48.34Z"/>
    <path class="st1" d="M99.59,82.83v.58h-3.27v-3.57h3.16v.58h-2.32v.9h2.14v.58h-2.14v.94h2.43Z"/>
    <path class="st1" d="M102.83,82.05v1.36h-.83v-3.57h1.98c.47,0,.84.09,1.1.27.26.18.39.45.39.79,0,.25-.08.47-.24.65-.16.18-.37.3-.64.36l1.07,1.5h-.93l-.92-1.36h-.97ZM104.63,80.93c0-.17-.06-.3-.18-.39-.12-.09-.3-.13-.55-.13h-1.06v1.05h1.09c.23,0,.41-.05.53-.14.12-.09.18-.23.18-.4Z"/>
    <path class="st1" d="M111.18,82.38c0,.35-.13.62-.39.8-.26.19-.64.28-1.14.28-.9,0-1.43-.33-1.58-.98l.72-.12c.05.19.14.33.29.41s.34.13.59.13.46-.04.59-.12c.13-.08.19-.2.19-.36,0-.1-.03-.19-.09-.25-.06-.07-.14-.12-.25-.16-.05-.02-.13-.05-.24-.07-.11-.03-.24-.06-.39-.09-.18-.04-.32-.08-.42-.11s-.18-.06-.24-.09c-.06-.03-.12-.06-.18-.09-.13-.08-.23-.18-.3-.3-.07-.13-.11-.28-.11-.47,0-.32.12-.57.36-.74.24-.17.6-.26,1.06-.26s.78.07,1,.21c.22.14.37.37.43.69l-.73.1c-.04-.15-.11-.27-.23-.35-.11-.08-.28-.12-.49-.12-.23,0-.4.04-.51.11-.11.07-.17.18-.17.32,0,.09.02.17.07.23.05.06.12.11.21.15.09.04.28.09.58.15.17.04.32.07.44.11.12.03.22.06.3.09.07.03.14.07.2.1s.11.07.15.11c.09.08.15.18.2.29.05.11.07.25.07.39Z"/>
  </g>
  <g>
    <path class="st1" d="M124.06,52.79c-.71,0-1.28.57-1.28,1.28s.57,1.28,1.28,1.28,1.28-.57,1.28-1.28-.57-1.28-1.28-1.28ZM124.06,55.18c-.61,0-1.11-.5-1.11-1.11s.5-1.11,1.11-1.11,1.11.5,1.11,1.11-.5,1.11-1.11,1.11Z"/>
    <path class="st1" d="M124.54,54.03c.06-.06.08-.14.08-.24,0-.11-.04-.2-.12-.27-.08-.06-.19-.1-.33-.1h-.6v1.28h.17v-.53h.4l.33.53h.2l-.36-.55c.1-.02.17-.06.23-.12ZM123.75,54.03v-.47h.41c.09,0,.17.02.22.06s.08.1.08.17-.02.14-.07.18c-.05.04-.12.06-.21.06h-.42Z"/>
  </g>
  <path class="st1" d="M82.31,52.82h-5.68l-2.3,2.3.02,16.45,2.07,1.99,6,.02,2.19-2.14v-16.31s-2.31-2.31-2.31-2.31ZM81.17,69.87l-.72.69h-1.94s-.68-.65-.68-.65v-13.12s.74-.75.74-.75h1.85l.75.75v13.07Z"/>
  <polygon class="st1" points="69.43 52.82 66.01 52.82 66.02 69.98 65.41 70.58 63.27 70.58 62.69 70 62.7 67.36 59.25 67.36 59.26 71.55 61.37 73.59 67.35 73.57 69.44 71.43 69.43 52.82"/>
  <rect class="st1" x="63.69" y="68.51" width=".85" height="1.43"/>
  <polygon class="st1" points="80.37 57.33 79.14 57.37 79.14 69.86 78.4 69.86 78.4 57.07 78.91 56.57 80.37 56.55 80.37 57.33"/>
</svg>