<?xml version="1.0" encoding="UTF-8"?>
<svg id="_Шар_1" data-name="Шар_1" xmlns="http://www.w3.org/2000/svg" version="1.1" viewBox="0 0 182 124">
  <!-- Generator: Adobe Illustrator 29.0.0, SVG Export Plug-In . SVG Version: 2.1.0 Build 186)  -->
  <defs>
    <style>
      .st0 {
        fill: #e1332f;
      }

      .st1 {
        opacity: .71;
      }
    </style>
  </defs>
  <polygon class="st0" points="15.29 44.3 28.58 62 15.29 79.7 2 62 15.29 44.3"/>
  <path class="st1" d="M58.38,66.88s.59.02,1.51,0h-1.51ZM69.58,64.66s.07-.06.1-.08c.03-.04.06-.08.08-.12-.06.07-.11.13-.18.2Z"/>
  <polygon class="st0" points="29.63 79.7 42.92 62 29.63 44.3 33.82 44.3 47.11 62 33.82 79.7 29.63 79.7"/>
  <polygon class="st0" points="20.37 79.7 33.66 62.01 20.37 44.3 24.55 44.3 37.84 62 24.55 79.7 20.37 79.7"/>
  <g>
    <path d="M79.07,49.44l-9.82,26.17h7.18l1.59-4.64h9.14l1.59,4.64h7.18s-9.82-26.17-9.82-26.17h-7.05ZM79.78,65.85l2.82-8.2,2.82,8.2h-5.63Z"/>
    <path d="M69.76,64.45c1.27-1.35,2.04-3.16,2.04-5.15v-2.29c0-4.12-3.28-7.48-7.39-7.57-.04-.01-.09-.01-.12-.01h-12.56v26.18h6.67v-8.73h5.83c2.09,0,4-.85,5.36-2.23.07-.07.12-.13.18-.2ZM63.94,60.69c-.66.66-1.55,1.06-2.55,1.06h-3v-7.2h3c1.99,0,3.61,1.61,3.61,3.59,0,.99-.4,1.9-1.06,2.55Z"/>
    <path d="M115.24,64.66c.07-.07.12-.13.18-.2,1.27-1.35,2.04-3.16,2.04-5.15v-2.29c0-4.12-3.28-7.48-7.39-7.57-.04-.01-.09-.01-.12-.01h-12.56v26.18h6.67v-8.73h.92l5.75,8.73h8.21l-6.92-9.04c1.24-.36,2.35-1.02,3.23-1.91ZM108.66,60.7c-.66.66-1.56,1.06-2.56,1.06h-2.06v-7.2h2.5c1.78.21,3.17,1.75,3.17,3.58,0,1-.41,1.9-1.06,2.56Z"/>
    <path d="M163.75,55.09c2.18,0,4.14.96,5.46,2.48v-7.75c-1.68-.67-3.53-1.03-5.46-1.03-7.91,0-14.35,6.17-14.35,13.77s6.43,13.76,14.35,13.76c1.94,0,3.78-.37,5.46-1.04v-7.72c-1.34,1.51-3.28,2.47-5.46,2.47-4.06,0-7.37-3.34-7.37-7.47s3.31-7.47,7.37-7.47Z"/>
    <path d="M132.94,48.79c-7.92,0-14.35,6.17-14.35,13.77s6.42,13.76,14.35,13.76,14.35-6.15,14.35-13.76-6.43-13.77-14.35-13.77ZM132.93,70.02c-4.06,0-7.37-3.34-7.37-7.47s3.31-7.47,7.37-7.47,7.37,3.35,7.37,7.47-3.29,7.47-7.37,7.47Z"/>
  </g>
  <g>
    <path d="M176.94,44.33c-1.69,0-3.06,1.37-3.06,3.06s1.37,3.06,3.06,3.06,3.06-1.37,3.06-3.06-1.37-3.06-3.06-3.06ZM176.94,50.05c-1.46,0-2.66-1.19-2.66-2.66s1.19-2.66,2.66-2.66,2.66,1.19,2.66,2.66-1.19,2.66-2.66,2.66Z"/>
    <path d="M178.1,47.3c.13-.15.2-.35.2-.57,0-.27-.09-.49-.28-.64-.19-.15-.45-.23-.8-.23h-1.44v3.05h.41v-1.27h.95l.79,1.27h.48l-.87-1.31c.23-.04.41-.14.55-.29ZM176.2,47.31v-1.13h.98c.23,0,.4.05.52.14s.18.23.18.41-.06.33-.18.43c-.12.1-.29.15-.51.15h-1Z"/>
  </g>
</svg>