<?xml version="1.0" encoding="UTF-8"?>
<svg id="_Шар_1" data-name="Шар_1" xmlns="http://www.w3.org/2000/svg" version="1.1" viewBox="0 0 182 124">
  <!-- Generator: Adobe Illustrator 30.4.0, SVG Export Plug-In . SVG Version: 2.1.4 Build 226)  -->
  <defs>
    <style>
      .st0 {
        fill: #003398;
      }

      .st1 {
        fill: #f8de01;
      }

      .st2 {
        fill: #d5101a;
      }

      .st3 {
        fill: #0099a1;
      }

      .st4 {
        fill: #232220;
      }
    </style>
  </defs>
  <path class="st3" d="M2,77.64v-31.43h30.7c3.46,0,6.83.67,9.7,2.17,2.07,1.08,3.43,2.57,4.07,4.72,1.11,3.74.05,7.5-3.15,9.85-4.39,3.2-9.68,4.23-15.03,4.23h-14.3v10.46s-11.99,0-11.99,0ZM35.37,56.75c0-4.15-6.8-4.55-9.34-4.56h-12.04s0,9.28,0,9.28h12.7c4.34-.01,8.68-.91,8.68-4.72Z"/>
  <path class="st3" d="M120.71,77.64c-3.12-.09-4.22-2.38-4.22-4.66,0-1.56,1.01-4.22,3.93-4.27,1.76-.03,2.61.95,2.61.95v-.95h2.68v8.93h-2.68v-.95s-1.02.99-2.32.95ZM123.03,72.9c0-1.31-.59-2.18-1.85-2.18s-2.01.89-2.01,2.21c0,1.57.61,2.71,1.93,2.7,1.47,0,1.93-1.17,1.93-2.73Z"/>
  <path class="st3" d="M180,75.1c0,1.66-1.09,2.54-3.63,2.54-2.29,0-2.86-.98-3.44-1.71l1.82-.92c.61.55,1.17.76,1.64.76.83,0,1.16-.27,1.16-.63,0-1.26-4.16-1.14-4.21-3.89-.02-1.25.82-2.56,3.49-2.55,1.25,0,2.19.37,3.02,1.64l-1.69.75c-.64-.46-1.01-.57-1.57-.58s-.94.32-.93.64c0,.91,1.69.98,2.99,1.75.51.3,1.36.75,1.36,2.2Z"/>
  <path class="st3" d="M88.05,53.48c-6.33-1.89-12.98-1.19-19.39-1.28v19.73h9.14v5.7h-21.13v-31.43h29.12c7.51,0,10.4,1.64,13.38,3.47,3.83,2.35,5.66,5.67,5.66,13.09h-11.53c0-5.34-1.02-8.03-5.25-9.29Z"/>
  <path class="st3" d="M107.01,77.64h-2.68v-6.92h-.89v-2.01h.89v-2.29c0-1.1.91-2.33,2.48-2.33.46,0,2.25,0,2.25,0v2.01h-1.29c-.46,0-.78.43-.76.8.03.67,0,1.81,0,1.81h1.5v2.01h-1.5v6.92Z"/>
  <path class="st3" d="M138.56,77.64h-2.68v-6.92h-1.16v-2.01s.68-.01,1.16,0v-2.61h2.68v2.61c.49.03,1.16,0,1.16,0v2.01h-1.16v6.92Z"/>
  <path class="st3" d="M112.63,77.64h-2.68v-8.93h2.68v2.01c0-1.28,1.47-2.01,3.27-2.01v2.41c-1.36,0-3.24.07-3.27,1.15v5.36Z"/>
  <path class="st3" d="M154.34,77.64h-2.68v-8.93h2.68v2.01c0-1.28,1.47-2.01,3.27-2.01v2.41c-1.36,0-3.24.07-3.27,1.15v5.36Z"/>
  <rect class="st3" x="158.81" y="68.71" width="2.68" height="8.93"/>
  <path class="st3" d="M89.53,71.73l-.02-.02c.82-.07,1.55-.43,2.1-.98.61-.62,1-1.48,1-2.42,0-1.89-1.53-3.42-3.43-3.42h-4.98l-.02,12.74h2.67v-5.9l3.76,5.9h2.69l-3.76-5.9ZM88.37,70h-1.53v-3.1h1.53c.85,0,1.54.69,1.54,1.54s-.69,1.55-1.54,1.55Z"/>
  <path class="st3" d="M145.25,68.57c-2.54,0-4.61,2.06-4.61,4.61s2.06,4.62,4.61,4.62,4.62-2.06,4.62-4.62-2.06-4.61-4.62-4.61ZM145.28,75.63c-1.23,0-2.22-1.1-2.22-2.45s.99-2.46,2.22-2.46,2.22,1.1,2.22,2.46-1,2.45-2.22,2.45Z"/>
  <path class="st3" d="M129.63,73.17c0,1.36,1,2.46,2.22,2.46,1.08,0,1.64-.55,2.17-1.58v3.12c-.64.39-1.38.61-2.17.61-2.42,0-4.38-2.06-4.38-4.62s1.96-4.61,4.38-4.61c.8,0,1.53.22,2.17.61v2.83c-.48-.89-1.1-1.28-2.17-1.28-1.22,0-2.22,1.1-2.22,2.45Z"/>
  <path class="st3" d="M102.55,73.77v-.6c0-.4-.04-.8-.14-1.16-.49-1.99-2.21-3.44-4.24-3.44-2.43,0-4.38,2.06-4.38,4.61s1.95,4.62,4.38,4.62c1.63,0,3.05-.93,3.8-2.33l-2.04-1.02c-.42.67-.93,1.23-1.76,1.23-1.12,0-1.73-.81-1.99-1.9h6.37ZM96.36,72.01c.39-.8.89-1.34,1.82-1.34s1.42.54,1.8,1.34h-3.62Z"/>
  <path class="st3" d="M172.1,73.77v-.6c0-.4-.04-.8-.14-1.16-.49-1.99-2.21-3.44-4.24-3.44-2.43,0-4.38,2.06-4.38,4.61s1.95,4.62,4.38,4.62c1.63,0,3.05-.93,3.8-2.33l-2.04-1.02c-.42.67-.93,1.23-1.76,1.23-1.12,0-1.73-.81-1.99-1.9h6.37ZM165.91,72.01c.39-.8.89-1.34,1.82-1.34s1.42.54,1.8,1.34h-3.62Z"/>
  <circle class="st3" cx="160.15" cy="65.49" r="1.41"/>
  <path class="st0" d="M180,46.21v15.56h-15.78l.84-1.92h-.93l1.09-2.55-1.88-.81,1.2-1.66h-2.26c-.47-.83-1.62-2.17-1.62-2.17l.9-1.69h-.99l.49-1.44h-3.2l.88-1.78-.83-.27.9-1.27h21.2Z"/>
  <g>
    <polygon class="st1" points="168.85 59.18 168.23 59.62 168.46 58.9 167.86 58.45 168.61 58.45 168.85 57.73 169.09 58.45 169.83 58.45 169.23 58.9 169.46 59.62 168.85 59.18"/>
    <polygon class="st1" points="174.44 59.18 173.83 59.62 174.06 58.9 173.45 58.45 174.2 58.45 174.44 57.73 174.68 58.45 175.43 58.45 174.82 58.9 175.05 59.62 174.44 59.18"/>
    <polygon class="st1" points="166.81 51.55 166.19 51.98 166.41 51.27 165.81 50.82 166.56 50.82 166.8 50.1 167.04 50.82 167.79 50.82 167.19 51.26 167.41 51.98 166.81 51.55"/>
    <polygon class="st1" points="166.81 57.14 166.19 57.57 166.41 56.86 165.81 56.41 166.56 56.41 166.8 55.69 167.04 56.41 167.79 56.41 167.19 56.85 167.41 57.57 166.81 57.14"/>
    <polygon class="st1" points="176.49 51.55 175.87 51.98 176.1 51.26 175.5 50.82 176.24 50.82 176.49 50.1 176.72 50.82 177.47 50.83 176.87 51.26 177.1 51.98 176.49 51.55"/>
    <polygon class="st1" points="176.49 57.14 175.87 57.57 176.1 56.85 175.5 56.41 176.24 56.41 176.49 55.69 176.72 56.41 177.47 56.42 176.87 56.85 177.1 57.57 176.49 57.14"/>
    <polygon class="st1" points="171.65 48.75 171.03 49.19 171.26 48.47 170.66 48.03 171.4 48.02 171.64 47.31 171.88 48.02 172.63 48.03 172.03 48.47 172.25 49.18 171.65 48.75"/>
    <path class="st1" d="M169.41,49.91l-.56-.41-.61.43.22-.72-.6-.44h.75s.24-.72.24-.72l.24.72h.75s-.6.45-.6.45l.21.66s0,.02.01.02c.02.01.01.03,0,.03l-.03-.03Z"/>
    <path class="st1" d="M175,49.91l-.56-.41-.61.43.22-.72-.6-.44h.75s.24-.72.24-.72l.24.72h.75s-.6.45-.6.45l.21.66s0,.02.01.02c.02.01.01.03,0,.03l-.03-.03Z"/>
    <polygon class="st1" points="166.06 54.34 165.44 54.78 165.66 54.06 165.06 53.62 165.81 53.61 166.05 52.9 166.29 53.61 167.04 53.62 166.43 54.06 166.66 54.77 166.06 54.34"/>
    <polygon class="st1" points="177.24 54.34 176.62 54.78 176.85 54.06 176.25 53.62 176.99 53.61 177.24 52.9 177.48 53.61 178.22 53.62 177.62 54.06 177.85 54.77 177.24 54.34"/>
    <polygon class="st1" points="171.65 59.93 171.03 60.37 171.26 59.65 170.66 59.21 171.4 59.2 171.64 58.49 171.88 59.2 172.63 59.21 172.03 59.65 172.25 60.36 171.65 59.93"/>
  </g>
  <path class="st4" d="M159.06,50.49s-2.23-.21-4.76.29c-.47.09-.93.2-1.4.34-2.94.89-8.38,2.96-8.79,3.12h-.02s0-8.03,0-8.03h14.71l-.9,1.27.83.27-.88,1.78h.67l.53.98Z"/>
  <path class="st2" d="M162.48,55.25s-5.09.97-8.18,1.86c-.28.08-.54.16-.78.23-2.91.95-7.85,2.98-9.43,4.42v-7.51h.02c.41-.17,5.85-2.24,8.79-3.13.47-.14.93-.26,1.4-.34,2.53-.5,4.76-.29,4.76-.29l-.53-.98h2.53l-.49,1.44h.99l-.9,1.69s1.15,1.34,1.62,2.17h.01c.1.18.17.32.19.43Z"/>
  <path class="st1" d="M164.13,59.85h.93l-.84,1.92h-20.13c1.59-1.43,6.52-3.46,9.43-4.42.23-.08.5-.16.78-.23,3.08-.9,8.18-1.86,8.18-1.86-.02-.11-.09-.26-.19-.43h2.25l-1.2,1.66,1.88.81-1.09,2.55Z"/>
</svg>