<?xml version="1.0" encoding="UTF-8"?>
<svg id="_Шар_1" data-name="Шар_1" xmlns="http://www.w3.org/2000/svg" version="1.1" viewBox="0 0 182 124">
  <!-- Generator: Adobe Illustrator 30.5.1, SVG Export Plug-In . SVG Version: 2.1.4 Build 3)  -->
  <defs>
    <style>
      .st0 {
        fill: #d8e4db;
      }

      .st1 {
        fill: #bec0bf;
      }

      .st2 {
        fill: #cbd6d2;
      }

      .st3 {
        fill: #382f27;
      }
    </style>
  </defs>
  <path class="st2" d="M138.48,65.85c.05.85-.12,1.73-.18,2.55-.12.46-.62,1.7-.62,1.7-.55,2.05-1.35,4.08-2.47,5.86s-2.09,3.5-3.58,4.94l-2.06,1.98-4.96,3.55-3.88,2.09-2.81,1.22-7.14,2.26-7.42,1.1-2.77.21c-2.12.16-4.25.1-6.37-.26l-6.71-1.17-7.12-2.26c-3.48-1.1-6.55-3.04-9.5-5.17-1.12-.81-1.92-1.87-2.85-2.94l-23.72-27.43,52.94-24.27c.57-.26.75-.25,1.26.05l28.65,17c.85.51,1.82,1.12,2.5,1.83,1.64,1.72,3.72,3.67,5.15,6.15l1.89,3.41.79,2.4.49,2.48s.4,2.22.49,2.72h0Z"/>
  <path class="st3" d="M135.55,76.96c.09.35-1.84,3.43-2.15,3.82l-.95,1.17c-.43.53-4.79,4.36-4.79,4.36-1.12.84-7.15,4.11-7.15,4.11l-3.31,1.36-3.88,1.25-3.23.79-4.05.65-2.03.28-2.16.2h-5.5l-2.15-.21c-1.13-.1-2.22-.3-3.32-.5l-3.4-.63-4.24-1.25c-.69-.2-1.37-.44-2.03-.74-2.18-.96-4.37-1.75-6.42-2.96-1.94-1.14-3.62-2.09-5.3-3.66-1.12-1.04-1.99-2.01-3-3.16,0,0-19.96-23.16-22.81-26.37-.26-.29-.16-.87-.08-1.14,1.09.81,20.37,23.56,22.88,26.53.18.21.37.42.57.61l3.32,3.31,2.93,1.97c2.86,1.93,5.99,3.26,9.28,4.33l1.6.52,2.96.89,2.89.53c.63.12,1.17.22,1.82.32l2.35.36c.74.12,1.43.19,2.16.19h5.5s2.15-.21,2.15-.21l5.12-.78c2.5-.38,4.6-1,6.95-1.8l2.08-.71c2.46-1.06,4.95-1.97,7.15-3.48l3.13-2.16c1.17-.81,2.25-1.76,3.19-2.82l1.31-1.48c.27-.3,2.42-3.27,2.65-3.5h-.01Z"/>
  <path class="st0" d="M44.31,54.09l23.72,27.43c.93,1.07,1.73,2.13,2.85,2.94,2.94,2.14,6.02,4.07,9.5,5.17l7.12,2.26,6.71,1.17c2.11.37,4.24.43,6.37.26l2.77-.21,7.42-1.1,7.14-2.26,2.81-1.22,3.88-2.09,4.96-3.55,2.06-1.98c1.5-1.44,2.49-3.2,3.58-4.94,1.16-1.84,3.03-7.63,3.09-7.57l-.03.42c-.02.24-.05.47-.1.7l-.58,2.62c-.31,1.43-1.25,3.54-2.03,4.81l-1.84,2.59c-.23.22-.54.6-.81.9l-1.31,1.48c-.94,1.07-2.01,2.01-3.19,2.82l-3.13,2.16c-2.2,1.52-4.69,2.42-7.15,3.48l-2.08.71c-2.35.8-4.45,1.42-6.95,1.8l-5.12.78-2.15.2h-5.5c-.73.01-1.42-.07-2.16-.18l-2.35-.36c-.64-.1-1.19-.21-1.82-.32l-2.89-.53-2.96-.89-1.6-.52c-3.29-1.07-6.42-2.4-9.28-4.33l-2.93-1.97-3.62-3.61s-19.85-23.5-23.13-26.85c.01-.03,0-.1,0-.13.18-.33.55-.03.74-.11h0Z"/>
  <path class="st1" d="M138.48,65.85c-.13-.51-.49-2.72-.49-2.72l-.49-2.48-.79-2.4-1.89-3.41c-.75-1.36-3.28-4.06-4.92-5.75-.93-.96-1.98-1.78-3.12-2.46l-28.25-16.76c-.51-.3-.69-.31-1.26-.05l-52.94,24.28c-.18.08-.55-.23-.74.11-.37-.83,53.56-24.96,53.57-24.96.5-.23.8-.25,1.28.04l21.6,12.67,7.11,4.17s2.78,1.48,5.34,4.67c0,0,4.75,6.08,5.41,9.92,0,0,.51,2.57.58,3.44.04.42,0,1.71,0,1.71h0Z"/>
</svg>