<?xml version="1.0" encoding="UTF-8"?>
<svg id="_Шар_1" data-name="Шар_1" xmlns="http://www.w3.org/2000/svg" version="1.1" viewBox="0 0 182 124">
  <!-- Generator: Adobe Illustrator 30.4.0, SVG Export Plug-In . SVG Version: 2.1.4 Build 226)  -->
  <defs>
    <style>
      .st0 {
        fill: #145c7a;
      }

      .st1 {
        fill: #d61522;
      }
    </style>
  </defs>
  <path class="st1" d="M21.03,60.71c0,.99.07,1.98-.01,2.95-.15,1.79-.81,3.44-1.52,5.08-.72,1.65-1.46,3.3-2.09,4.99-.48,1.3-.61,2.69-.47,4.09.02.16,0,.32,0,.53-.17.01-.33.03-.5.03-3.59,0-7.18,0-10.78,0-2.24,0-3.67-1.44-3.67-3.68,0-7.23,0-14.47,0-21.7,0-2.26,1.43-3.68,3.71-3.69,2.36,0,4.73,0,7.09,0,.19,0,.38,0,.69,0,.06-1.41.11-2.78.17-4.2.42.45.89.9,1.3,1.4.68.84,1.3,1.73,1.97,2.57.11.14.37.21.56.21,3.78.01,7.57.01,11.35,0,1.36,0,2.49.46,3.17,1.67.29.52.49,1.16.49,1.75.03,7.41.03,14.82.01,22.23,0,1.89-1.39,3.34-3.3,3.39-2.54.07-5.08.02-7.61.01-.03,0-.06-.02-.15-.05.13-.4.26-.79.38-1.19.61-1.98,1.3-3.95,1.8-5.96.96-3.81-.05-7.22-2.33-10.32-.04-.06-.09-.12-.14-.17-.04.01-.09.02-.13.03ZM17.99,51.29c.07.2.11.32.16.44.86,2.32,1.21,4.7.88,7.16-.33,2.47-1.15,4.81-2,7.13-1,2.74-2.03,5.48-2.33,8.41-.05.53-.07,1.06-.1,1.6h.87c.03-.2.07-.37.08-.54.11-1.61.4-3.19.97-4.69.63-1.64,1.37-3.24,2.04-4.86.77-1.86,1.35-3.76,1.41-5.79.03-.88,0-1.77,0-2.63,0,0,.06.03.1.09,1.02,1.38,2.1,2.72,3.05,4.15,1.33,1.99,2.15,4.18,2.14,6.61,0,1.57-.32,3.09-.81,4.58-.33,1.02-.71,2.02-1.08,3.1.86,0,1.68-.05,2.5.01,1.36.1,2.46-1,2.45-2.42-.04-6.63-.04-13.26,0-19.88,0-1.43-.96-2.51-2.5-2.48-2.43.04-4.85.01-7.28.01-.16,0-.31,0-.55,0ZM13.15,51.32c-1.92,0-3.69-.06-5.45.02-1.2.06-1.95,1-1.95,2.23,0,6.74,0,13.48,0,20.21,0,1.35.92,2.26,2.28,2.27,1.58,0,3.16,0,4.74,0,.13,0,.26-.02.39-.04-.85-1.29-1.71-2.5-2.48-3.78-1.39-2.31-2.18-4.77-1.86-7.53.22-1.87.81-3.61,1.48-5.34.76-1.96,1.56-3.91,2.29-5.89.25-.67.36-1.4.55-2.17ZM13.82,73.91c0-.17.01-.35,0-.52-.17-2.03.17-3.99.82-5.9.52-1.53,1.14-3.02,1.73-4.52.98-2.47,1.58-4.98,1.2-7.67-.32-2.24-1.16-4.24-2.53-6.03-.07-.1-.11-.22-.16-.33-.05.04-.1.08-.15.12,0,.07-.02.15-.03.22-.2,1.41-.24,2.87-.63,4.22-.58,2.03-1.37,4.01-2.12,5.99-.64,1.69-1.23,3.4-1.4,5.21-.33,3.54,1.17,6.47,3.27,9.2Z"/>
  <g>
    <path class="st0" d="M100.18,57.54h6.2c.11.87.22,1.74.32,2.61.04.04.08.08.13.11,1.54-2.1,3.61-3.19,6.16-3.2,2.57-.02,4.67.9,5.8,3.32.57-.53,1.08-1.08,1.66-1.54,2.36-1.87,5.01-2.28,7.82-1.26,1.99.72,3.09,2.32,3.73,4.27.41,1.26.58,2.57.59,3.9,0,4.06,0,8.13,0,12.19,0,.14-.02.28-.03.44h-7.29c0-.2-.03-.4-.03-.6,0-3.51.01-7.01-.01-10.52,0-.72-.09-1.47-.28-2.17-.35-1.33-1.12-1.95-2.26-1.94-1.2,0-2.11.76-2.44,2.03-.08.3-.12.63-.12.94-.01,3.89,0,7.78-.01,11.66,0,.19,0,.37,0,.59h-7.41v-.58c0-3.7.01-7.39-.01-11.09,0-.56-.1-1.14-.25-1.69-.35-1.27-1.21-1.93-2.33-1.86-1.22.07-2.26,1.01-2.45,2.23-.07.44-.1.89-.1,1.33,0,3.7,0,7.39,0,11.09v.56h-7.39v-20.82Z"/>
    <path class="st0" d="M41.26,78.4v-28.22c.8-.1,1.6-.27,2.4-.3,2.76-.12,5.51-.27,8.27-.28,2.17,0,4.31.35,6.31,1.31,2.67,1.28,4.26,3.39,4.7,6.3.39,2.58,0,5.04-1.52,7.24-1.27,1.84-3.12,2.88-5.2,3.51-2.16.66-4.39.91-6.65.7-.16-.01-.32-.02-.48-.02-.06,0-.12.02-.23.04-.01.24-.03.47-.04.71,0,2.8-.01,5.61,0,8.41,0,.48-.13.61-.62.61-2.14-.03-4.28-.01-6.42-.01-.16,0-.32,0-.52,0ZM48.84,62.83c.29.03.54.07.79.09,1.47.08,2.91.02,4.19-.82,1.38-.9,1.85-2.24,1.65-3.8-.2-1.57-1.16-2.49-2.78-2.87-1.1-.25-2.21-.19-3.33-.09-.44.04-.57.19-.56.62.02,2.12,0,4.24,0,6.36,0,.17.02.34.04.52Z"/>
    <path class="st0" d="M179.99,78.38h-7.6c-.01-.21-.04-.41-.04-.61,0-3.54.02-7.07-.02-10.61-.01-.83-.17-1.68-.4-2.47-.29-.98-1.07-1.46-2.09-1.53-1-.06-1.8.28-2.39,1.11-.55.75-.63,1.61-.63,2.5,0,3.63,0,7.27,0,10.9,0,.22,0,.44,0,.7h-7.68v-20.81h6.44c.12.85.23,1.73.37,2.72.18-.16.31-.25.41-.37,1.64-1.97,3.77-2.91,6.31-2.84,3.96.11,6.31,2.31,7.02,6.17.23,1.23.28,2.5.29,3.75.04,3.6.01,7.2.01,10.8v.6Z"/>
    <path class="st0" d="M96.24,78.37h-6.8c-.14-.58-.28-1.18-.44-1.86-.17.13-.28.19-.36.27-1.35,1.4-3.06,1.97-4.94,2.09-2.04.12-3.94-.31-5.49-1.74-1.62-1.5-2.27-3.38-2.06-5.55.35-3.6,2.66-5.46,5.86-6.5,1.88-.62,3.83-.78,5.79-.86.55-.02.61-.08.46-.61-.13-.47-.45-.79-.9-.99-1.04-.46-2.13-.49-3.24-.42-1.82.13-3.52.65-5.22,1.47-.22-.8-.43-1.56-.65-2.33-.19-.69-.36-1.38-.57-2.06-.09-.27.01-.38.22-.48,1.77-.82,3.63-1.38,5.58-1.54,1.46-.12,2.93-.2,4.39-.09,2.95.23,5.48,1.29,6.98,4.04.62,1.13.97,2.37,1.01,3.64.08,3.15.05,6.3.12,9.46.03,1.28.18,2.57.27,3.85,0,.06,0,.13-.01.22ZM88.55,68.75c-.92.12-1.76.18-2.58.35-.72.14-1.4.44-1.89,1.03-.73.88-.63,2.46.2,3.07,1.47,1.08,4.01.07,4.26-1.74.11-.84.02-1.71.02-2.71Z"/>
    <path class="st0" d="M142.37,70.64c.12.79.58,1.27,1.18,1.64,1.14.71,2.42.95,3.73,1,2.09.08,4.16-.14,6.22-.77.21,1.09.42,2.14.62,3.19.08.44.15.88.26,1.31.09.37.02.57-.38.71-2.61.88-5.3,1.18-8.05,1.09-1.85-.06-3.64-.37-5.32-1.16-2.87-1.34-4.56-3.6-5.21-6.65-.61-2.88-.31-5.67,1.04-8.3,1.58-3.08,4.08-4.93,7.53-5.48,2.1-.34,4.17-.22,6.14.62,2.91,1.24,4.44,3.6,5.13,6.58.43,1.86.46,3.75.2,5.64-.05.39-.19.56-.63.55-3.93-.02-7.85-.01-11.78,0-.22,0-.43.02-.68.04ZM148.58,65.47c.28-1.76-1.04-3.34-2.86-3.47-1.75-.13-3.4,1.54-3.4,3.47h6.26Z"/>
    <path class="st0" d="M65.22,48.23c.18-.01.33-.03.47-.03,2.2,0,4.4,0,6.61,0,.38,0,.52.09.52.5-.01,9.75,0,19.49,0,29.24v.42h-7.59v-30.13Z"/>
  </g>
</svg>