<?xml version="1.0" encoding="UTF-8"?>
<svg id="_Шар_1" data-name="Шар_1" xmlns="http://www.w3.org/2000/svg" version="1.1" xmlns:xlink="http://www.w3.org/1999/xlink" viewBox="0 0 182 124">
  <!-- Generator: Adobe Illustrator 29.0.0, SVG Export Plug-In . SVG Version: 2.1.0 Build 186)  -->
  <defs>
    <style>
      .st0 {
        fill: #00aeef;
      }

      .st1 {
        fill: #ec1e27;
      }

      .st2 {
        fill: #fff;
      }

      .st3 {
        mask: url(#mask);
      }

      .st4 {
        fill: none;
      }

      .st5 {
        fill: #5ac235;
        fill-rule: evenodd;
      }

      .st6 {
        clip-path: url(#clippath);
      }
    </style>
    <clipPath id="clippath">
      <rect class="st4" x="2" y="29.41" width="178" height="65.18"/>
    </clipPath>
    <mask id="mask" x="2" y="32.82" width="178.01" height="58.36" maskUnits="userSpaceOnUse">
      <g id="mask0_2462_922">
        <path class="st2" d="M2,32.82h178v58.36H2v-58.36Z"/>
      </g>
    </mask>
  </defs>
  <g class="st6">
    <g class="st3">
      <g>
        <path class="st0" d="M30.89,38.51c-13.2.19-23.96,10.91-24.19,24.3-.03,2.47.28,4.87.93,7.14l-5.62,3.13,12.14,3.49,1.73-6.11,1.73-6.09-5,2.79c-.28-1.4-.41-2.83-.39-4.26.17-10.06,8.02-18.18,17.83-18.79l-2.37-2.47,3.21-3.13Z"/>
        <path class="st1" d="M14.44,77.1l-4.27-1.23c1.54,2.6,3.55,4.9,5.93,6.77.92-.39,1.81-.83,2.69-1.32.93-.52,1.82-1.09,2.66-1.7-2.43-1.48-4.49-3.48-6.05-5.85l-.94,3.32ZM37.25,39.26l.1-6.44-4.54,4.41-4.53,4.42,8.78,9.12.09-5.76c2.85.95,5.4,2.54,7.46,4.6,1.26-1.36,2.61-2.62,4.04-3.79-3.12-3.2-7.07-5.47-11.4-6.56Z"/>
        <path class="st5" d="M55.82,42.62c-7.04,15.74-1.35,23.53-6.17,35.92-4.34,11.16-19.03,13.88-30.9,12.16,5.15-3.42,9.64-6.8,12.33-11,1.83-1.92,3.6-3.77,8.65-2.85-3.22-.87-5.35-.59-6.99.13,1.13-2.02,2.21-4.07,3.22-6.15,1.59-1.68,3.16-3.26,7.55-2.47-3.05-.82-4.99-.48-6.5.29,1.32-2.79,2.6-5.55,4-8.25,1.46-1.48,3.11-2.71,7.09-1.99-2.79-.75-4.64-.53-6.08.09,3.23-5.87,7.23-11.36,13.81-15.9Z"/>
        <path class="st5" d="M58.27,40.91c-21.55,8.56-22.79,31.78-39.35,41.04-1.9,1.07-4.03,1.97-6.4,2.61-6.16,1.69-2.11,7.69,3.7,4.33,1.31-.77,2.55-1.55,3.7-2.37,19.87-14,17.2-34.81,38.35-45.61Z"/>
        <path class="st0" d="M65.07,62.68c0,1.91.56,3.54,1.72,4.84,1.16,1.31,2.7,1.95,4.59,1.94,1.76,0,3.24-.66,4.44-2.02,1.18-1.3,1.82-3,1.8-4.76,0-1.87-.62-3.45-1.78-4.76-1.16-1.29-2.69-1.94-4.54-1.94-3.71.01-6.25,2.91-6.23,6.69ZM84.15,62.81c.01,3.4-1.04,6.34-3.17,8.82-2.22,2.62-4.99,3.93-8.33,3.95-2.96,0-5.42-1.05-7.42-3.15l.04,12.78-6.9.02-.11-34.6,6.58-.02v2.89c1.86-2.43,4.4-3.65,7.59-3.66,3.57-.01,6.44,1.28,8.63,3.84,2.04,2.42,3.07,5.45,3.08,9.13ZM86.28,50.54l6.53-.02v2.75c.93-1.73,2.87-3.28,4.68-3.28,1.25,0,2.22.18,2.96.5l.02,6.2c-.93-.3-1.9-.45-2.88-.46-1.62,0-2.77.85-3.55,2.48-.55,1.22-.82,2.75-.82,4.57l.03,11.46-6.91.02-.08-24.24ZM119.88,62.65c0-1.91-.61-3.54-1.82-4.85-1.21-1.34-2.78-1.99-4.69-1.99-1.8,0-3.28.66-4.44,2.02-1.15,1.31-1.71,2.9-1.7,4.72-.02,1.76.63,3.46,1.83,4.75,1.21,1.34,2.69,2.04,4.45,2.04,1.76,0,3.23-.66,4.48-1.98,1.26-1.35,1.9-2.89,1.89-4.71ZM126.63,74.65l-6.85.02v-2.74c-1.49,2.2-4.4,3.47-7.19,3.48-3.52,0-6.4-1.24-8.67-3.8-2.18-2.41-3.26-5.44-3.27-9.03-.01-3.59,1.09-6.62,3.26-9.1,2.21-2.47,5.08-3.74,8.65-3.75,3.2-.01,5.56,1.05,7.1,3.2v-2.47s6.89-.02,6.89-.02l.08,24.24ZM151.91,74.57l-6.89.02-.04-13.85c-.01-3.3-1.32-4.93-3.87-4.92-2.82,0-4.2,1.92-4.19,5.7l.04,13.1-6.95.02-.08-24.24,6.63-.02v2.7c1.44-2.29,3.56-3.42,6.38-3.43,5.75-.02,8.91,3.43,8.93,9.26l.05,15.66ZM173.21,62.48c0-1.91-.61-3.54-1.81-4.84-1.21-1.35-2.78-2-4.69-1.99-1.8,0-3.28.66-4.44,2.02-1.15,1.31-1.71,2.9-1.7,4.72-.02,1.76.64,3.46,1.83,4.75,1.21,1.34,2.69,2.04,4.44,2.04,1.77,0,3.25-.66,4.49-1.97,1.25-1.35,1.88-2.89,1.88-4.71ZM179.97,74.48l-6.86.02v-2.74c-1.47,2.2-4.39,3.47-7.17,3.47-3.52.01-6.4-1.24-8.68-3.8-2.19-2.42-3.26-5.44-3.27-9.03-.01-3.59,1.1-6.62,3.26-9.1,2.22-2.48,5.09-3.75,8.66-3.76,3.2,0,5.56,1.05,7.1,3.2v-2.47s6.89-.02,6.89-.02l.08,24.24ZM86.28,79.32h1.07v1.2c.32-.47.66-.83,1.01-1.06.35-.23.73-.35,1.11-.35.29,0,.6.09.93.28l-.55.89c-.17-.08-.36-.13-.55-.14-.35,0-.69.15-1.01.44-.32.29-.57.74-.74,1.35-.13.47-.2,1.42-.2,2.85v2.79h-1.07v-8.24ZM98.14,82.6c-.14-.56-.34-1.02-.61-1.36-.29-.35-.65-.63-1.06-.82-.43-.21-.91-.31-1.39-.31-.8,0-1.49.26-2.06.78-.42.38-.74.95-.95,1.7h6.08ZM98.14,84.82l.88.47c-.25.52-.59.99-1.01,1.39-.38.35-.81.62-1.28.81-.47.18-1.01.28-1.61.28-1.33,0-2.37-.44-3.12-1.32-.75-.88-1.12-1.88-1.12-2.99,0-1.05.32-1.98.95-2.8.8-1.04,1.88-1.56,3.23-1.56s2.5.53,3.33,1.6c.59.75.89,1.69.9,2.82h-7.34c.02.96.32,1.74.91,2.35.58.61,1.31.92,2.17.92.41,0,.82-.07,1.21-.22.39-.15.73-.34,1-.58.28-.24.58-.63.9-1.17ZM109.17,81.03l-.83.52c-.72-.96-1.7-1.44-2.94-1.44-.99,0-1.82.32-2.47.97-.66.64-.98,1.43-.98,2.35,0,.6.15,1.17.45,1.7.3.53.72.94,1.24,1.23.53.29,1.12.44,1.77.44,1.2,0,2.18-.48,2.93-1.44l.83.55c-.39.59-.93,1.07-1.57,1.38-.66.33-1.4.49-2.24.49-1.29,0-2.36-.41-3.21-1.24-.41-.39-.74-.86-.96-1.38-.22-.52-.33-1.08-.32-1.65,0-.8.2-1.54.6-2.22.4-.69.94-1.22,1.64-1.6.71-.39,1.52-.59,2.33-.57.54,0,1.06.08,1.56.25.5.17.93.38,1.28.65.35.27.65.61.89,1.02ZM111.05,79.32h1.05v3.85c0,.94.05,1.59.15,1.94.15.5.44.9.86,1.2.42.29.93.44,1.51.44s1.08-.14,1.49-.43c.4-.27.69-.67.84-1.12.11-.32.16-.99.16-2.02v-3.85h1.07v4.04c0,1.14-.13,1.99-.39,2.57-.26.57-.66,1.03-1.18,1.35-.53.33-1.18.49-1.98.49s-1.46-.16-1.99-.49c-.53-.32-.94-.8-1.19-1.36-.26-.58-.39-1.46-.39-2.63v-3.97ZM124.72,80.13c-.91,0-1.67.32-2.29.96-.62.64-.93,1.44-.93,2.39,0,.62.14,1.19.41,1.69.28.5.67.89,1.19,1.19.52.29,1.06.44,1.63.44s1.09-.15,1.59-.44c.49-.29.89-.71,1.18-1.24.29-.51.44-1.08.44-1.66,0-.58-.15-1.16-.44-1.66-.27-.5-.68-.92-1.17-1.21-.49-.29-1.05-.45-1.62-.44ZM120.52,79.32h1.05v1.51c.41-.57.89-1.01,1.43-1.29.56-.29,1.18-.44,1.8-.43,1.16,0,2.15.42,2.97,1.26.4.4.72.87.93,1.4.21.52.32,1.08.31,1.65,0,1.21-.41,2.24-1.22,3.09-.82.85-1.8,1.27-2.95,1.27-.65,0-1.24-.14-1.79-.41-.57-.3-1.08-.71-1.47-1.22v4.43h-1.05v-11.25ZM137.83,82.6c-.14-.56-.34-1.02-.61-1.36-.28-.35-.65-.63-1.06-.82-.43-.21-.91-.31-1.39-.31-.8,0-1.49.26-2.06.78-.42.38-.74.95-.95,1.7h6.07ZM137.83,84.82l.88.47c-.25.52-.59.99-1.01,1.39-.38.35-.81.62-1.28.81-.48.18-1.01.28-1.61.28-1.33,0-2.37-.44-3.12-1.32-.75-.88-1.12-1.88-1.12-2.99,0-1.05.32-1.98.95-2.8.8-1.04,1.88-1.56,3.23-1.56s2.5.53,3.33,1.6c.59.75.89,1.69.9,2.82h-7.33c.02.96.32,1.74.91,2.35.58.61,1.31.92,2.17.92.81,0,1.59-.28,2.21-.8.28-.24.57-.63.89-1.17ZM140.55,79.32h1.07v1.2c.32-.47.66-.83,1.01-1.06.35-.23.72-.35,1.11-.35.29,0,.6.09.93.28l-.55.89c-.17-.08-.36-.13-.55-.14-.35,0-.69.15-1.01.44-.33.29-.57.74-.74,1.35-.13.47-.2,1.42-.2,2.85v2.79h-1.07v-8.24ZM149.49,80.13c-.58,0-1.12.15-1.62.43-.5.29-.9.71-1.18,1.22-.29.51-.44,1.08-.44,1.66,0,.58.15,1.16.44,1.66.29.53.69.94,1.18,1.24.5.3,1.03.44,1.6.44s1.12-.15,1.63-.44c.51-.29.91-.69,1.18-1.19.28-.52.43-1.1.42-1.69,0-.95-.31-1.75-.93-2.39-.29-.31-.65-.56-1.05-.72-.39-.17-.82-.25-1.25-.24ZM153.68,79.32v8.24h-1.03v-1.42c-.44.54-.93.95-1.48,1.22-.55.27-1.15.41-1.79.41-1.15,0-2.14-.42-2.96-1.27-.82-.84-1.22-1.87-1.22-3.08s.41-2.2,1.24-3.05c.82-.84,1.82-1.26,2.97-1.26.67,0,1.27.14,1.82.43.54.29,1.02.72,1.43,1.29v-1.51h1.03ZM156.95,76.26h1.05v3.06h1.66v.92h-1.66v7.32h-1.05v-7.32h-1.43v-.92h1.43v-3.06ZM165.09,80.14c-.87,0-1.62.33-2.25.98-.63.65-.94,1.44-.94,2.36,0,.6.14,1.15.43,1.66.29.52.67.91,1.16,1.19.49.28,1.02.42,1.6.42s1.12-.14,1.6-.42c.49-.28.89-.7,1.16-1.19.29-.51.43-1.07.43-1.67,0-.92-.31-1.71-.94-2.36-.63-.65-1.38-.98-2.25-.98ZM165.1,79.1c1.26,0,2.3.46,3.12,1.38.75.84,1.13,1.83,1.13,2.98s-.4,2.16-1.19,3.02c-.79.86-1.81,1.29-3.06,1.29s-2.27-.43-3.07-1.29c-.77-.81-1.2-1.9-1.19-3.02,0-1.14.37-2.13,1.13-2.97.82-.92,1.87-1.39,3.13-1.39ZM170.89,79.32h1.07v1.2c.32-.47.66-.83,1.01-1.06.35-.23.72-.35,1.11-.35.33.01.65.11.93.28l-.55.89c-.17-.08-.36-.13-.56-.14-.35,0-.69.15-1.01.44-.33.29-.57.74-.74,1.35-.13.47-.2,1.42-.2,2.85v2.79h-1.07v-8.24ZM180,80.22l-.67.7c-.56-.55-1.11-.83-1.65-.83-.32,0-.64.12-.87.34-.11.1-.21.22-.27.36-.06.14-.1.29-.1.44,0,.28.11.55.3.77.2.25.62.54,1.26.87.78.41,1.31.8,1.59,1.18.28.38.42.81.42,1.29,0,.68-.24,1.25-.71,1.72-.47.47-1.06.7-1.76.7-.47,0-.93-.1-1.35-.31-.42-.2-.78-.49-1.06-.86l.66-.76c.53.61,1.1.92,1.7.92.42,0,.78-.14,1.07-.41.25-.22.41-.52.44-.86.03-.33-.07-.66-.29-.92-.2-.23-.64-.53-1.32-.88-.73-.38-1.24-.76-1.5-1.14-.26-.37-.4-.82-.4-1.28,0-.63.21-1.15.63-1.56.42-.41.96-.62,1.6-.62.75,0,1.51.37,2.27,1.11Z"/>
      </g>
    </g>
  </g>
</svg>