<?xml version="1.0" encoding="UTF-8"?>
<svg id="_Шар_1" data-name="Шар_1" xmlns="http://www.w3.org/2000/svg" version="1.1" viewBox="0 0 182 124">
  <!-- Generator: Adobe Illustrator 30.4.0, SVG Export Plug-In . SVG Version: 2.1.4 Build 226)  -->
  <defs>
    <style>
      .st0 {
        fill: #ed1c24;
      }
    </style>
  </defs>
  <path class="st0" d="M69.48,75.6c-6.45-1.79-11.53-7.43-16.43-12.44l-2.53,8.11c-.19.6-.64,1.39-1.13,1.94-.17.19-.41.28-.67.28-3.36-.08-8.81-1.03-9.02-2.29-.34-2.11,5.38-12.95,7.41-17.11-1.59-.71-3.14-1.6-3.88-3.33-.16-.36.07-.78.46-.84,9.52-1.38,22.47-2.22,29.92,2.69,1.08.71,2.36,1.95,2.06,3.34-.74,3.37-9.19,5.73-13.26,6.88,4.19,4.67,8.73,8.17,14.14,10.92.47.24.51.92.05,1.17-1.66.87-5.55,1.11-7.12.67ZM62.47,57.52c1.2-.54,3.73-1.29,4.15-3.21.27-1.22-5.51-2.14-9.29-1.2-1.17,2.33-2.02,4.21-2.97,6.56,3.04-.67,5.47-.94,8.1-2.14Z"/>
  <path class="st0" d="M179.81,51.46l-3.11,2.97-8.81,7.06c-4.64,3.72-5.37,6.4-6.35,12.01-.14.78-.83,1.44-1.66,1.35l-6.56-.71c-.4-.04-1.17-.46-1.4-.78s-.22-1.24-.06-1.63l3.09-7.81c-4.19-3.06-6.55-8.03-8.82-12.7-.22-.45-.27-1.29-.11-1.94.12-.5.58-.85,1.09-.88,2.95-.22,5.7.34,8.44,1.31.43.15.74.54.79.99l.32,2.51c.34,2.68,1.9,5.07,3.34,7.2,4.17-3.11,7.17-6.61,10.12-10.57,2.11-2.84,7.56-.39,9.54.63.37.19.43.69.13.97Z"/>
  <path class="st0" d="M15.07,62.53c-2.25,4.56-1.25,11.43-5,10.96l-6.65-.84c-.42-.05-1.19-.57-1.35-.91s-.02-1.2.16-1.62l7.02-16.18c-1.69-.65-3.16-1.49-3.88-3.12-.13-.29.02-.64.31-.77,2.92-1.34,6.03-1.34,9.12-1.62,6.03-.55,14.18.2,19.45,2.95,1.2.63,2.58,1.52,2.98,2.9.89,3.12-9.02,9.42-15.74,10.56-2.31.39-4.2-1.09-6.43-2.3ZM28.97,54.31c-.77-1.87-6.25-1.52-9.76-1.24-2.24.73-2.7,4.69-3.61,7.66,4.47-.5,14.27-4.24,13.37-6.42Z"/>
  <path class="st0" d="M121.38,72.11c-.36,2.32-4.69,1.09-8.24-.02-.37-.12-1.06-.63-1.18-.98-.75-2.2,4.16-13.44,6.12-18.17l-8.18.23c-1.79.05-3.43-.86-4.18-2.5-.14-.3.03-.67.35-.78.83-.31,1.75-.58,2.59-.64,6.21-.49,22.15-1.09,24.13-.87,2.48.27,4.87,1.02,6.29,2.44.3.3.2.82-.19.99-.57.25-1.12.42-1.65.44l-8.91.36c-3.45,6.22-5.87,12.53-6.94,19.5Z"/>
  <path class="st0" d="M92.85,71.69c-.54,4-6.17,2.41-10.43.56-.64-.28-1.05-.9-1.04-1.6,0-.32.05-.63.13-.85,2.49-6.76,5.16-13.24,8.53-19.56.73-1.37,2.35-2.44,3.86-1.9l5.25,1.87c.88.31,1.22,1.35.73,2.14-3.66,5.93-6.09,12.33-7.04,19.34Z"/>
</svg>