<?xml version="1.0" encoding="UTF-8"?>
<svg id="_Шар_1" data-name="Шар_1" xmlns="http://www.w3.org/2000/svg" version="1.1" viewBox="0 0 182 124">
  <!-- Generator: Adobe Illustrator 30.5.1, SVG Export Plug-In . SVG Version: 2.1.4 Build 3)  -->
  <defs>
    <style>
      .st0 {
        fill: #85bb3f;
      }

      .st1 {
        fill: #1b1b19;
      }

      .st2 {
        fill: #fff;
      }

      .st3 {
        fill: #fbfbfb;
      }
    </style>
  </defs>
  <rect class="st0" x="13.72" y="29.06" width="154.57" height="65.88" rx="7.08" ry="7.08"/>
  <path class="st2" d="M135.73,86.51l-111.37.02c-2.67,0-5.45-1.76-5.45-4.7l-.03-39.85c0-2.61,2.11-4.51,4.58-4.88h112.07c2.53.15,4.5,1.92,4.92,4.42l-.06,40.48c0,2.43-2.31,4.29-4.65,4.51ZM72.31,57.5l4.22-.03-.03-4.77-4.17-.02v-2.95c0-1.04.74-1.84,1.79-1.85l2.87-.02v-5.01s-4.41.02-4.41.02c-3.33.01-5.63,2.74-5.7,5.98l-.09,3.82-3.44.05v4.75s3.48.06,3.48.06v20.39s5.46,0,5.46,0v-20.42ZM79.85,42.82v35.11s5.46,0,5.46,0v-35.11s-5.46,0-5.46,0ZM35.32,60.93c0-1.77,1.43-2.92,2.96-3.03,1.17-.09,2.19-.05,3.37-.02v-5.16c-1.9.01-3.71-.11-5.55.11-4.43.54-6.32,4.09-6.32,8.42v16.68s5.45,0,5.45,0l.08-16.99ZM52.72,72.99c-2.62-.03-4.24-2.87-3.74-5.57h13.3s-.05-6.33-.05-6.33c-.02-2.14-.83-4.08-2.13-5.73-2.33-2.66-6.09-2.99-9.54-2.51-4.7.66-7.11,4.69-7.07,9.29l.05,7.25c.03,4.65,3.65,8.41,8.17,8.45l9.35.09v-4.85s-8.34-.1-8.34-.1ZM106.57,73.07l-8.13-.04c-1.96-.2-3.48-1.41-3.83-3.34-.13-.74-.16-1.48-.04-2.27h13.3s-.03-5.5-.03-5.5c0-1.59-.31-3.08-.94-4.54-1.08-2.5-3.32-4.18-6.04-4.55-1.64-.22-3.28-.22-4.91.03-4.55.71-6.91,4.65-6.91,9.11v6.38c-.01,5.45,2.8,9.03,8.31,9.53l9.24.03-.02-4.85ZM129.33,77.91v-4.85c-.11-3.03-.92-5.82-3.39-7.8,1.99-1.59,3.01-3.89,3.24-6.46l.09-6.04-5.49-.02v5.46c-.04.84-.18,1.66-.54,2.38-.57,1.38-1.86,1.97-3.31,1.93-1.05-.03-2.08-.06-2.86-.86-.76-.78-1.18-1.9-1.19-3.03l-.05-5.87h-5.46s0,5.46,0,5.46c.07,1.03.23,2.01.52,2.97.48,1.66,1.39,3.03,2.85,4.2-1.29,1.15-2.23,2.45-2.73,4.07-.36,1.09-.48,2.2-.56,3.36l.02,5.12,5.48-.02.02-5.29c0-.87.16-1.77.53-2.51.61-1.48,1.96-1.97,3.44-1.96,1.58,0,2.93.66,3.49,2.23.24.69.42,1.47.42,2.26l.02,5.29h5.47Z"/>
  <path class="st3" d="M102.41,63.32h-7.86c-.12-1.13-.07-2.32.2-3.4.47-1.89,1.95-2.72,3.79-2.71,1.81.01,3.27.94,3.64,2.84.2,1.02.26,2.13.23,3.28Z"/>
  <path class="st3" d="M56.8,63.33h-7.86c-.07-1.22-.02-2.45.29-3.57.52-1.84,2-2.56,3.78-2.54s3.03.76,3.52,2.5c.31,1.09.34,2.26.26,3.61Z"/>
  <path class="st1" d="M106.57,73.07l.02,4.85-9.24-.03c-5.5-.5-8.32-4.08-8.31-9.53v-6.38c.01-4.46,2.37-8.4,6.92-9.11,1.63-.25,3.27-.25,4.91-.03,2.72.36,4.96,2.05,6.04,4.55.63,1.46.93,2.95.94,4.54l.03,5.48h-13.3c-.12.8-.09,1.54.04,2.28.35,1.93,1.87,3.14,3.83,3.34l8.13.04ZM102.41,63.32c.03-1.14-.02-2.26-.23-3.28-.38-1.9-1.83-2.83-3.64-2.84-1.84-.01-3.33.82-3.79,2.71-.27,1.09-.32,2.28-.2,3.41h7.86Z"/>
  <path class="st1" d="M52.72,72.99l8.34.1v4.85s-9.35-.09-9.35-.09c-4.52-.04-8.14-3.8-8.17-8.45l-.05-7.25c-.03-4.6,2.37-8.64,7.07-9.29,3.44-.48,7.2-.16,9.54,2.51,1.31,1.65,2.12,3.58,2.13,5.73l.05,6.32h-13.3c-.5,2.72,1.12,5.55,3.74,5.58ZM56.8,63.33c.08-1.35.05-2.52-.26-3.61-.5-1.74-1.83-2.48-3.52-2.5-1.78-.02-3.27.71-3.78,2.54-.32,1.12-.36,2.35-.29,3.57h7.86Z"/>
  <path class="st1" d="M129.33,77.91h-5.47s-.02-5.28-.02-5.28c0-.78-.18-1.57-.42-2.26-.56-1.58-1.91-2.23-3.49-2.23-1.49,0-2.83.49-3.44,1.96-.38.74-.53,1.63-.53,2.51l-.02,5.29-5.48.02-.02-5.12c.08-1.15.21-2.26.56-3.36.5-1.63,1.44-2.92,2.73-4.07-1.46-1.18-2.37-2.54-2.85-4.2-.29-.97-.44-1.95-.52-2.97v-5.46s5.46,0,5.46,0l.05,5.87c.01,1.13.43,2.24,1.19,3.03.77.8,1.81.83,2.86.86,1.45.04,2.74-.55,3.31-1.93.35-.72.5-1.54.53-2.38v-5.46s5.5.02,5.5.02l-.09,6.04c-.23,2.57-1.25,4.87-3.24,6.46,2.47,1.99,3.28,4.78,3.38,7.8v4.85Z"/>
  <path class="st1" d="M72.31,57.5v20.42s-5.47,0-5.47,0v-20.39s-3.48-.06-3.48-.06v-4.75s3.44-.05,3.44-.05l.09-3.82c.07-3.25,2.37-5.97,5.7-5.98l4.41-.02v5.01s-2.87.02-2.87.02c-1.05,0-1.8.81-1.8,1.85v2.95s4.17.02,4.17.02l.03,4.77-4.22.03Z"/>
  <rect class="st1" x="65.03" y="57.64" width="35.11" height="5.46" transform="translate(22.21 142.95) rotate(-90)"/>
  <path class="st1" d="M35.32,60.93l-.08,16.99h-5.45s0-16.67,0-16.67c0-4.34,1.89-7.88,6.32-8.42,1.84-.22,3.65-.1,5.55-.11v5.16c-1.18-.02-2.2-.06-3.37.02-1.53.11-2.95,1.26-2.96,3.03Z"/>
</svg>