<?xml version="1.0" encoding="UTF-8"?>
<svg id="_Шар_1" data-name="Шар_1" xmlns="http://www.w3.org/2000/svg" version="1.1" viewBox="0 0 182 124">
  <!-- Generator: Adobe Illustrator 30.4.0, SVG Export Plug-In . SVG Version: 2.1.4 Build 226)  -->
  <defs>
    <style>
      .st0 {
        fill: #1b3e76;
      }

      .st1 {
        fill: #e20512;
      }
    </style>
  </defs>
  <path class="st1" d="M76.43,66.8c0-1.24-1.26-4.42-6.19-4.42-3.71,0-6.21.3-9.22,2.57-3.01,2.27-4.78,6.69-3.53,10.24.95,2.72,3.97,4.03,7.48,4.05,3.3.01,6.8-.95,9.87-2.65l-1.95-3.04c-4.14,1.23-8.13,2.68-9.2-.69,5.93,0,12.74-1.65,12.74-6.07ZM64.46,69.87c.21-2.02,4.02-5.37,5.45-3.77,1.85,2.06-2.92,3.77-5.45,3.77Z"/>
  <path class="st1" d="M50.47,62.38c-3.71,0-6.21.3-9.22,2.57-3.01,2.27-4.78,6.69-3.53,10.24.95,2.72,3.97,4.03,7.48,4.05,3.3.01,6.8-.95,9.87-2.65l-1.95-3.04c-4.14,1.23-8.13,2.68-9.2-.69,5.93,0,12.74-1.65,12.74-6.07,0-1.24-1.26-4.42-6.19-4.42ZM44.7,69.87c.21-2.02,4.02-5.37,5.45-3.77,1.85,2.06-2.92,3.77-5.45,3.77Z"/>
  <polygon class="st1" points="134.91 78.7 152.33 78.7 152.33 75.01 140.48 75.01 140.48 72.32 151.25 72.32 151.25 68.64 140.48 68.64 140.48 66.62 152.33 66.62 152.33 62.93 134.91 62.93 134.91 78.7"/>
  <path class="st1" d="M14.34,66.54c1.67-.53,3.16-.29,5.31.07l2.15-3.34c-2.11-.54-3.94-.89-6.74-.89-5.47,0-9.72,2.4-9.75,5.89-.02,3.15,3.87,3.52,6.05,4.85.81.49.61,1.73-.32,1.93-2.27.49-3.94.11-6.36-.53l-2.68,4.18s4.59.55,6.83.55c3.86,0,11.29-1.48,11.29-5.69,0-3.3-3.35-3.8-5.92-5.07-.84-.42-.75-1.66.14-1.94Z"/>
  <polygon class="st1" points="76.43 78.7 83.81 78.7 89.85 56.19 82.47 56.18 76.43 78.7"/>
  <path class="st1" d="M110.96,67.27c-.45-2.47-2.63-4.34-5.23-4.34h-12.58v15.77h5.59v-5.15h7c1.46,0,2.8-.59,3.75-1.55.98-.96,1.57-2.29,1.57-3.75v-.12c0-.14-.01-.28-.03-.44-.01-.14-.04-.28-.06-.42ZM103.82,69.87h-5.12v-3.25h5.17c.98,0,1.76.85,1.61,1.88-.11.8-.86,1.37-1.67,1.37Z"/>
  <path class="st1" d="M131.42,68.25v-.12c0-.14-.01-.28-.03-.44-.01-.14-.04-.28-.06-.42-.45-2.47-2.63-4.34-5.23-4.34h-12.58v15.77h5.59v-5.15h6.57c.77,1.27,1.22,2.76,1.22,4.37,0,.27-.01.53-.04.78h5.26c.06-.42.1-.86.1-1.31,0-2.17-.77-4.16-2.07-5.71.78-.92,1.26-2.12,1.26-3.43ZM124.24,69.87h-5.17v-3.25h5.17c.9,0,1.63.72,1.63,1.63,0,.19-.04.37-.1.54-.22.63-.82,1.08-1.53,1.08Z"/>
  <path class="st1" d="M161.98,66.03c.57-.22,1.13-.35,1.86-.35,1.84,0,3.36.83,3.56,1.88h5.58s0-.27,0-.36c-.02-.23-.06-.48-.13-.69-.01-.08-.04-.15-.06-.23-.87-2.23-4.55-3.89-8.92-3.89s-8.1,1.68-8.95,3.93c-.04.12-.08.22-.11.35-.03.14-.06.31-.07.46-.01.1-.01.19-.01.28.04,1.35,1.1,2.55,2.79,3.41.91.49,2.02.86,3.22,1.09.67.14,3.47.87,5.35,1.52.91.31.88,1.59-.03,1.89-.68.22-1.47.35-2.19.35-1.96,0-3.56-.95-3.56-2.11h-5.57s.01.69.01.69c0,.32.05.64.14.95.22.48,1.62,3.25,5.86,3.74.99.11,2.03.31,3.13.31.12,0,.22,0,.33-.01,2.76-.04,5.21-.76,6.81-1.85.87-.58,1.49-1.26,1.78-2.02.04-.12.08-.24.1-.36.02-.09.1-.87.1-.94,0-1.23-.53-2.36-1.43-3.25-.17-.17-.36-.33-.55-.48-.96-.76-3.52-1.39-5.2-1.45-1.48-.05-2.79-.4-3.95-1.08-.71-.41-.62-1.48.15-1.78Z"/>
  <path class="st1" d="M31.23,74.56c-.36.09-.69-.24-.58-.6l2.13-7.35h5.02l.99-3.68h-5.02l1.17-4.37h-7.38l-1.17,4.37h-3.11l-.99,3.68h3.01l-2.24,8.41c-.4,1.78.17,2.54.55,2.93,1.21,1.21,3.42,1.39,5.87,1,2.05-.32,4.73-1.21,6.7-2.04l-2-3.12-2.95.76Z"/>
  <path class="st1" d="M177.69,62.44c-2.02-.39-3.76,1.36-3.38,3.38.21,1.12,1.13,2.04,2.25,2.25,2.02.39,3.76-1.36,3.38-3.38-.21-1.12-1.13-2.04-2.25-2.25ZM177.75,67.67c-1.85.45-3.48-1.18-3.03-3.03.21-.87.93-1.58,1.8-1.79,1.85-.45,3.48,1.18,3.03,3.03-.21.87-.92,1.58-1.79,1.79Z"/>
  <path class="st1" d="M178.22,65.16c.12-.14.19-.32.19-.54,0-.26-.09-.46-.26-.6-.18-.14-.42-.22-.75-.22h-1.35v2.86h.39v-1.19h.89l.74,1.19h.45l-.81-1.23c.22-.04.39-.13.51-.27ZM176.43,65.18v-1.06h.92c.21,0,.38.04.49.13s.17.21.17.38-.06.31-.17.4c-.11.1-.27.14-.47.14h-.94Z"/>
  <path class="st0" d="M164.88,54.98c.44-2.88-2-5.32-4.88-4.88-1.79.27-3.26,1.74-3.53,3.53-.44,2.88,2,5.32,4.88,4.88,1.79-.27,3.26-1.74,3.53-3.53Z"/>
  <path class="st1" d="M160.68,44.75c-2.03,0-3.81.98-4.93,2.48-.17.24-3.09,4.99-4.78,7.75-.74,1.22-2.06,1.95-3.49,1.95h-55.58v3.17h57.34c1.43,0,2.75-.74,3.49-1.96,1.84-3.04,5.2-8.57,5.58-9.07.54-.71,1.4-1.17,2.36-1.17.91,0,1.71.43,2.29,1.07.64.71,6.83,11.13,6.83,11.13h3.71s-7.63-12.54-7.96-12.97c-1.12-1.45-2.88-2.39-4.87-2.39Z"/>
</svg>