<?xml version="1.0" encoding="UTF-8"?>
<svg id="_Шар_1" data-name="Шар_1" xmlns="http://www.w3.org/2000/svg" version="1.1" viewBox="0 0 182 124">
  <!-- Generator: Adobe Illustrator 29.0.0, SVG Export Plug-In . SVG Version: 2.1.0 Build 186)  -->
  <defs>
    <style>
      .st0 {
        fill: #f16136;
      }
    </style>
  </defs>
  <g id="Layer_x5F_1">
    <path class="st0" d="M12.46,69.05c.87-.98,1.45-2.1,1.59-3.17.16-1.24-.27-2.32-1.27-3.23-1.47-1.32-2.28-2.67-2.71-3.89-1.11,1.16-2.12,3.17-1.6,5.69.45,2.21,1.92,3.79,3.99,4.59ZM20.07,59.86c-1.5-2.27-4.82-2.71-5.56-4.86-.36-1.04-.1-2.16.4-3.23-1.71,1.13-2.67,2.59-2.88,3.8-.22,1.21.03,3.27,2.32,5.33,1.58,1.41,2.3,3.29,2.04,5.28-.14,1.1-.59,2.2-1.26,3.23,2.26-.17,3.62-1.34,4.64-2.58,1.3-1.57,1.76-4.77.3-6.98ZM27.31,60.37c0,6.99-5.66,12.65-12.65,12.65s-12.65-5.67-12.65-12.65,5.66-12.65,12.65-12.65,12.65,5.66,12.65,12.65ZM132.46,67.5c-.8-.12-1.29-.68-1.29-1.83v-7h4.26v-4.6h-4.26v-4.65l-4.83.71v3.94h-2.8v4.6h2.8v7c0,3.81,1.45,6.5,5.25,6.5,1.84.03,3.33-.62,4.13-1.14l-.94-3.97c-.5.29-1.5.61-2.32.44ZM39.49,54.51h4.73c2.23,0,3.88,1.27,3.88,3.54s-1.65,3.58-3.88,3.58h-4.73v-7.13ZM39.49,71.38v-4.76h3.91l4.25,4.76h6.63l-5.23-5.95c2.89-1.47,4.45-4.18,4.45-7.31v-.06c0-4.73-3.16-8.56-9.66-8.56h-9.54v21.88h5.19ZM177.17,52.19c.22,0,.39-.21.39-.46,0-.2-.17-.41-.39-.41h-.68v.87h.68ZM177.77,52.72l.74,1.23h-.82l-.64-1.09h-.56v1.09h-.71v-3.35h1.4c.68,0,1.16.47,1.16,1.13,0,.46-.21.81-.56.99h0ZM179.2,52.33c0-1.26-.88-2.23-2.21-2.23s-2.19.98-2.19,2.23.88,2.23,2.19,2.23,2.21-.98,2.21-2.23ZM180,52.33c0,1.66-1.26,2.93-3,2.93s-2.97-1.27-2.97-2.93,1.24-2.93,2.97-2.93,3,1.27,3,2.93ZM161.48,62.75c0,2.78,1.78,4.83,4.53,4.83s4.49-2.02,4.49-4.83-1.79-4.83-4.49-4.83-4.53,2.05-4.53,4.83ZM175.52,62.75c0,5.67-3.46,9.36-8.52,9.36-2.21,0-4.3-.95-5.52-2.36v6.53h-4.79v-22.21h3.84l.84,1.87c1.29-1.64,3.42-2.55,5.71-2.55,5.02-.04,8.45,3.65,8.45,9.36ZM141.39,62.82c0,2.78,1.6,4.91,4.34,4.91s4.3-2.13,4.3-4.91-1.64-4.87-4.3-4.87-4.34,2.09-4.34,4.87ZM155.01,62.82c0,5.44-3.84,9.4-9.29,9.4s-9.36-3.92-9.36-9.4,3.92-9.32,9.36-9.32,9.29,3.84,9.29,9.32ZM109.5,62.82c0,2.78,1.6,4.91,4.34,4.91s4.3-2.13,4.3-4.91-1.63-4.87-4.3-4.87-4.34,2.09-4.34,4.87ZM123.12,62.82c0,5.44-3.84,9.4-9.28,9.4s-9.36-3.92-9.36-9.4,3.92-9.32,9.36-9.32,9.28,3.84,9.28,9.32ZM102.7,61.19v10.16h-4.79v-9.13c0-2.4-.72-4.15-3.23-4.15s-3.23,1.67-3.23,4.18v9.09h-4.83v-9.09c0-2.4-.68-4.18-3.23-4.18s-3.27,1.75-3.27,4.15v9.17h-4.79v-17.31h3.84l.95,1.56c1.26-1.45,2.7-2.17,4.64-2.17,2.66,0,4.41,1.33,5.55,3.42,1.71-2.74,3.69-3.42,5.78-3.42,4.37,0,6.62,3.08,6.62,7.72ZM59.68,62.82c0,2.78,1.6,4.91,4.34,4.91s4.3-2.13,4.3-4.91-1.63-4.87-4.3-4.87-4.34,2.09-4.34,4.87ZM73.31,62.82c0,5.44-3.84,9.4-9.28,9.4s-9.36-3.92-9.36-9.4,3.92-9.32,9.36-9.32,9.28,3.84,9.28,9.32Z"/>
  </g>
</svg>