<?xml version="1.0" encoding="UTF-8"?>
<svg id="_Шар_1" data-name="Шар_1" xmlns="http://www.w3.org/2000/svg" version="1.1" viewBox="0 0 182 124">
  <!-- Generator: Adobe Illustrator 30.5.1, SVG Export Plug-In . SVG Version: 2.1.4 Build 3)  -->
  <path d="M46.8,29.06v65.88h88.4V29.06H46.8ZM67.07,69.13l-3.18-.04s3.09-5.36,3.09-5.36c0,0,1.84-.28,1.84-.28,0,0-1.43,3.27-1.75,5.68ZM75.85,69.11c.15-.98.22-2.02-.02-2.56l-1.64-3.75,2.6-.23c.93,2.35,2.22,4.57,3.53,6.5l-4.46.04ZM63.37,63.94c.49.62.9,1.66.76,2.2-1.41,5.41-8.54,6.05-13.64,3.35-.49-.7-.97-2.34-.92-3.23,3.54,2.49,7.04,3.86,10.54,1.62.52-.34,1.28-1.51,1.38-2.1.13-.68-.87-1.77-1.65-2.13l-6.75-3.04c-1.92-.86-2.95-2.66-2.85-4.55.26-4.85,6.43-4.94,12.12-4.26l-.03,3.34c-2.85-1.81-5.65-2.48-8.24-.96-.49.28-1.2,1.33-1.21,1.85h0c0,.08.02.15.03.23.02.09.05.16.09.25.2.44.6.96.96,1.22,0,0,0,0,0,0,.07.05.14.09.2.12l4.68,1.98c1.79.75,3.04,1.51,4.61,2.91l3.83-.97,2.6-5.95c.13-.29,0-1.27-.05-1.84l3.69.15,2.54,6.16,7.16-.42c.18-1.91-.03-3.66-.67-5.84,4.5.14,9.74-.83,11.32,2.31.43.86,0,2.27-.82,3.47l6.07.26c.1-2.13,0-3.91-.64-6.19l11.55-.02c.23.53.28,1.89.13,2.38-2.94-.49-5.02-.74-8.05-.66l-.08,6.19-20.41.09c-6.2.03-12.21,1.07-18.29,2.08ZM108.9,59.99l-.15,2.13-6.16-.34-.02-1.69,6.32-.09ZM90.83,68.92c-2.44.28-5.32.2-8.12.24.45-2.15.6-4.18.73-6.77l2.74.03.12,4.92c1.47,0,3.14.02,4.3-.33,1.69-.5,2.37-2.29,1.28-4.74h3.34c.89,3.1-1.19,6.29-4.38,6.66ZM110.54,69.13h-11.77c.32-2.24.38-4.44.46-6.87h2.76l.14,5.03c3.31.14,6.09-.12,9.4-1.12l-.98,2.96ZM117.8,60.42c2.6-.78,5.39-1.11,5.5-3.57.03-.64-.6-1.91-1.4-2.39-1.61-.96-3.54-.8-5.18-.47l.02,12.16c0,.73.6,2,1.02,2.95l-4.7.04c.26-.76.75-1.84.75-2.38l.05-11.36c0-.97-.37-1.99-.83-3.29,5.93-.03,13.7-.78,13.41,4.77-.12,2.25-1.87,3.74-4.67,4.16,3.05,4.27,7.11,7.03,11.31,10.81-6.17-.26-11.6-5.96-15.26-11.43Z"/>
  <path d="M90.44,59.17c-1.49.58-2.64.63-4.17.69l.02-4.2c1.3-.2,2.73-.09,4.02.48.82.37,1.02,2.68.14,3.03Z"/>
  <polygon points="73.47 60.66 69.81 61.29 71.72 56.85 73.47 60.66"/>
</svg>