<?xml version="1.0" encoding="UTF-8"?>
<svg id="_Шар_1" data-name="Шар_1" xmlns="http://www.w3.org/2000/svg" version="1.1" viewBox="0 0 182 124">
  <!-- Generator: Adobe Illustrator 29.0.0, SVG Export Plug-In . SVG Version: 2.1.0 Build 186)  -->
  <defs>
    <style>
      .st0 {
        fill: #1d2b5b;
      }
    </style>
  </defs>
  <path class="st0" d="M3.77,55.21c-3.64,8.67,11.56,11.66,11.56,11.66-.01,0-9.42-4.94-6.79-11.37,1.22-2.99,5.76-5.53,11.17-6.48,2.63-.46,12.34-.6,12.34-.6,0,0-3.51-1.15-7.48-1.43-6.16-.51-17.51,1.26-20.79,8.23Z"/>
  <path class="st0" d="M47.92,47.77c-2.48,0-3.1,1.94-3.01,5.84.11,4.83,2.58,4.75,2.58,4.75l13.35.11v4.1h-16.72v3.4h17.63c1.78-.04,2.46-1.24,2.71-2.37.24-1.39.23-5.74-.05-6.7-.25-1.13-1.04-1.56-2.06-1.85-.47-.13-3.05-.2-7.2-.2l-6.43.02v-3.91h15.69v-3.21h-16.5Z"/>
  <path class="st0" d="M156.53,47.87c-2.48,0-3.1,1.94-3.01,5.84.11,4.83,2.58,4.75,2.58,4.75l13.35.11v4.1h-16.72v3.4h17.63c1.78-.04,2.46-1.24,2.71-2.37.24-1.39.23-5.74-.05-6.7-.25-1.13-1.04-1.56-2.06-1.85-.47-.13-3.05-.2-7.2-.2l-6.43.02v-3.91h15.69v-3.21h-16.5Z"/>
  <path class="st0" d="M69.15,65.98h4.39l8-14.21,7.79,14.21h4.75l-10.25-18.21h-4.64l-10.04,18.21Z"/>
  <path class="st0" d="M99.89,65.98h18.09v-3.4s-13.79,0-13.79,0v-14.8s-4.3,0-4.3,0v18.21Z"/>
  <path class="st0" d="M123.34,61.1c0,2.1.13,2.68.48,3.34.21.45.63.86,1.07,1.07.68.36.97.47,8.85.47s8.19-.11,8.83-.43c.43-.21.82-.61,1.07-1.07.39-.72.5-.86.5-8.71v-7.99h-4.31v14.8h-12.18v-14.8h-4.32v13.33Z"/>
  <path class="st0" d="M26.53,54.83s7.36,4.13,6.4,9.31c-.9,4.8-7.06,8.5-16.16,9.84-6.33.91-14.77-.39-14.77-.39,0,0,4.75,1.84,7.12,2.34,2.71.57,8.33.79,11.18.45,14.74-1.86,17.45-8.81,17.45-11.33,0-2.68-1.06-5.35-7.92-8.85-1.72-.88-3.29-1.37-3.29-1.37Z"/>
  <path class="st0" d="M44.18,74.31c0,1.95,1.44,2.78,2.68,2.78,1.32,0,1.71-.1,1.71-.1v-.9s-.67.18-1.64.18c-.8,0-1.76-.6-1.76-1.99,0-.94.44-2.13,2.11-2.13.55,0,1.3.28,1.3.28v-.88s-.41-.2-1.37-.2c-1.26,0-3.03.66-3.03,2.94Z"/>
  <path class="st0" d="M171.28,71.38c-1.46,0-1.85.92-1.85,1.51,0,.79.25,1.07,1.45,1.6,1.14.46,1.34,1.01.87,1.6-.11.14-.55.3-.93.3-.65,0-1.27-.38-1.27-.38l-.29.65s.65.42,1.5.43c.88,0,1.18-.17,1.56-.53.32-.3.48-.68.49-1.05,0-.43-.18-.86-.58-1.19-.34-.28-1.98-.72-1.96-1.47.01-.54.58-.83,1.37-.72.27.04.87.26.87.26v-.84s-.66-.18-1.24-.18Z"/>
  <path class="st0" d="M80.96,76.92h.72v-4.21l2.86,4.21h.72v-5.37h-.72v4.15l-2.86-4.15h-.72v5.37Z"/>
  <path class="st0" d="M64.52,71.41c-1.47,0-2.67,1.27-2.67,2.82s1.2,2.82,2.67,2.82,2.67-1.27,2.67-2.82-1.2-2.82-2.67-2.82ZM64.52,76.37c-1,0-1.8-.96-1.8-2.14s.8-2.14,1.8-2.14,1.8.96,1.8,2.14-.81,2.14-1.8,2.14Z"/>
  <path class="st0" d="M136.42,71.41c-1.47,0-2.67,1.27-2.67,2.82s1.2,2.82,2.67,2.82,2.67-1.27,2.67-2.82-1.2-2.82-2.67-2.82ZM136.42,76.37c-1,0-1.8-.96-1.8-2.14s.8-2.14,1.8-2.14,1.8.96,1.8,2.14-.81,2.14-1.8,2.14Z"/>
  <polygon class="st0" points="103.01 71.55 101.25 71.55 100.54 71.55 98.78 71.55 98.78 72.27 100.54 72.27 100.54 76.92 101.25 76.92 101.25 72.27 103.01 72.27 103.01 71.55"/>
  <polygon class="st0" points="153.45 76.2 153.45 71.55 152.74 71.55 152.74 76.92 153 76.92 153.45 76.92 155.88 76.92 155.88 76.2 153.45 76.2"/>
  <path class="st0" d="M119.32,74.32c.39-.27.64-.72.64-1.23,0-.63-.39-1.19-.94-1.41-.19-.08-.38-.12-.59-.12h-1.89v5.36h.72v-2.17h1.44l.74,2.17h.77l-.9-2.6ZM118.37,74.04h-1.11v-1.77h1.11c.49,0,.89.39.89.88s-.4.89-.89.89Z"/>
  <g>
    <path class="st0" d="M178.04,47.36c-1.08,0-1.96.88-1.96,1.96s.88,1.96,1.96,1.96,1.96-.88,1.96-1.96-.88-1.96-1.96-1.96ZM178.04,51.03c-.94,0-1.7-.76-1.7-1.7s.76-1.7,1.7-1.7,1.7.76,1.7,1.7-.76,1.7-1.7,1.7Z"/>
    <path class="st0" d="M178.78,49.26c.08-.1.13-.22.13-.37,0-.18-.06-.31-.18-.41-.12-.1-.29-.15-.51-.15h-.92v1.96h.27v-.81h.61l.51.81h.31l-.55-.84c.15-.03.27-.09.35-.19ZM177.56,49.27v-.72h.63c.15,0,.26.03.33.09s.12.15.12.26-.04.21-.11.27c-.08.06-.18.1-.32.1h-.64Z"/>
  </g>
</svg>