<?xml version="1.0" encoding="UTF-8"?>
<svg id="_Шар_1" data-name="Шар_1" xmlns="http://www.w3.org/2000/svg" version="1.1" viewBox="0 0 182 124">
  <!-- Generator: Adobe Illustrator 30.5.1, SVG Export Plug-In . SVG Version: 2.1.4 Build 3)  -->
  <defs>
    <style>
      .st0 {
        fill: #1a171b;
      }

      .st1 {
        fill: #fdc300;
      }
    </style>
  </defs>
  <path class="st0" d="M59.98,36.28c-.47-.61-1.05-.8-1.76-.59-1,.31-1.75,1.4-2.33,2.24-.83,1.23-9,12.71-9.85,13.9-.45.63-.82,1.04-1.1,1.22-1.45.94-2.85-.36-3.76-1.51-.61-.78-1.39-1.57-1.87-2.43.38.41.88,1.01,1.48,1.8,1.14,1.49,3.05,2.82,4.52.75.95-1.33,10.16-14.38,11.19-15.69,1.1-1.41,2.65-1.35,3.46.29Z"/>
  <path class="st0" d="M87.57,59.13c.19-.81,1.04-1.34,1.83-1.34,1.71,0,3.42,0,5.15,0,.03,0,.05.02.05.05,0,0,0,0,0,.01l-1.21,5.73c-.01.06-.06.1-.12.1h-6.69s-.06-.03-.06-.06c0,0,0,0,0-.01.35-1.49.7-2.98,1.04-4.48ZM92.49,62.79s.04.02.05.01c.05-.02.09-.08.11-.14l.81-3.87s0-.06-.05-.06c-1.31,0-2.62,0-3.93,0-.55,0-.89.19-1.03.72-.27,1.07-.52,2.15-.74,3.24,0,.05.01.07.06.07h4.66s.05,0,.07.02Z"/>
  <path class="st0" d="M38.64,58.92c3.93.96,6.05,3.9,5.79,7.93,0,.05-.04.08-.09.08h-7.6c-.05,0-.08-.03-.08-.08.02-.73-.01-1.2-.09-1.39-.45-1.12-1.27-1.75-2.45-1.88-1.5-.18-3.87.33-3.58,2.37.19,1.38,3.36,1.93,4.53,2.16,3.19.63,6.85,2.05,7.4,5.75.29,1.96-.09,3.76-1.14,5.39-2.35,3.62-6.85,4.83-10.9,4.86-4.17.03-9.49-.73-10.88-5.53-.36-1.24-.5-2.49-.42-3.75,0-.05.04-.08.09-.08h8.2c.06,0,.1.05.1.1,0,0,0,0,0,.01-.26,1.9.3,3.42,2.32,3.8,1.31.25,2.47.08,3.47-.51.72-.42,1.6-1.67,1.19-2.57-.57-1.24-3.31-1.61-4.5-1.83-3.66-.69-6.96-2.87-7.11-6.96-.13-3.49,2.62-6.09,5.67-7.29,3.16-1.25,6.78-1.37,10.07-.57ZM26.57,76.09c0-.12-.02-.23-.04-.35,0-.05-.03-.07-.08-.07l-6.28.02s-.05.02-.05.05c-.11,3.42,1.75,5.96,5.01,6.83,2.35.63,5.07.75,7.51.47,3.87-.44,8.07-2.53,8.9-6.74.44-2.26-.23-4.5-2.29-5.72-2.06-1.22-4.23-1.52-6.44-2.06-1.86-.46-3.95-1.52-3-3.92.35-.89,1.04-1.47,2.08-1.74,2.49-.65,4.96,0,5.67,2.75,0,.04.01.08,0,.11-.03.18.05.27.24.27,1.52.02,3.4.02,5.64,0,.05,0,.07-.02.07-.07,0-6.86-8.71-7.34-13.39-6.02-3.07.87-6.31,3.22-6.27,6.78.04,3.56,3.07,5.52,6.23,6.11,2.11.39,6.85,1.15,5.1,4.61-.62,1.23-1.72,1.87-3.08,2.15-2.55.51-5.34-.45-5.53-3.47Z"/>
  <path class="st1" d="M92.42,62.77h-4.66s-.07-.02-.06-.07c.22-1.09.47-2.17.74-3.24.14-.53.48-.72,1.03-.72,1.31,0,2.62,0,3.93,0,.04,0,.06.02.05.06l-.81,3.87c-.01.06-.05.11-.11.14-.01,0-.03,0-.05-.01-.02-.02-.04-.02-.07-.02Z"/>
  <path class="st1" d="M26.57,76.09c.18,3.02,2.98,3.98,5.53,3.47,1.37-.28,2.46-.92,3.08-2.15,1.74-3.47-2.99-4.22-5.1-4.61-3.16-.59-6.2-2.54-6.23-6.11-.04-3.56,3.2-5.91,6.27-6.78,4.69-1.33,13.39-.84,13.39,6.02,0,.05-.02.07-.07.07-2.25.02-4.13.02-5.64,0-.19,0-.28-.09-.24-.27,0-.04,0-.08,0-.11-.7-2.76-3.18-3.4-5.67-2.75-1.04.27-1.73.85-2.08,1.74-.95,2.39,1.14,3.46,3,3.92,2.21.54,4.38.84,6.44,2.06,2.05,1.22,2.73,3.46,2.29,5.72-.83,4.21-5.03,6.3-8.9,6.74-2.44.28-5.16.17-7.51-.47-3.26-.88-5.12-3.41-5.01-6.83,0-.03.02-.05.05-.05l6.28-.02s.07.02.08.07c.02.12.03.24.04.35Z"/>
  <path class="st0" d="M55.16,69.16c-3.75-.33-5.27,4.85-5.31,7.64-.02,1.48.75,2.67,2.38,2.57,1.59-.1,2.64-.96,3.14-2.57.01-.04.04-.06.09-.06h6.79s.07.03.06.08c-.71,4.53-4.94,6.79-9.11,7.19-2.43.23-5.24.16-7.35-1.25-3.96-2.65-3.16-8.41-1.25-12.07,2.62-5.04,7.84-6.93,13.28-6.19,3.62.49,6.59,3.09,5.37,7.07-.02.05-.07.09-.12.09h-6.27c-.06,0-.08-.03-.09-.08-.02-.39.07-.82-.02-1.16-.21-.76-.74-1.17-1.6-1.25ZM50.31,83.14c4.24.26,9.24-.96,10.87-5.4.01-.03,0-.07-.04-.08,0,0-.01,0-.02,0h-4.99s-.07.02-.08.06c-.78,1.62-2.01,2.48-3.68,2.58-1.65.09-2.87-.68-3.26-2.3-.11-.48-.17-.88-.16-1.21.08-3.34,1.93-8.95,6.29-8.51,1.47.15,2.31.94,2.52,2.38,0,.04.03.07.08.07h4.65s.05-.02.05-.04c.22-1.23-.02-2.29-.71-3.21-1.58-2.08-4.66-2.27-7.02-2.15-3.87.19-7.35,2.11-9.21,5.56-2.05,3.8-3.03,10.31,2.45,11.91.69.2,1.45.33,2.26.38Z"/>
  <path class="st0" d="M69.78,76.61l-1.64,6.81s-.04.07-.09.07h-6.63s-.04-.02-.04-.04c0,0,0,0,0-.01,1.31-5.43,2.63-10.87,3.94-16.31.38-1.59.81-2.11,2.44-2.1,1.59,0,3.18.02,4.77.04.04,0,.05.02.04.06l-1.51,6.5s0,.05.03.06c0,0,0,0,.01,0h4.85s.07-.03.08-.06c.38-1.63.76-3.28,1.16-4.95.31-1.3,1.05-1.63,2.32-1.64,1.59,0,3.17,0,4.76,0,.04,0,.06.02.05.06l-4.27,18.34c-.01.05-.06.09-.11.09h-6.69s-.08-.04-.08-.08c0,0,0-.01,0-.02l1.72-6.83s0-.06-.04-.06c0,0,0,0-.01,0h-4.99s-.08.03-.09.07ZM76.08,75.69l-1.7,6.79s.01.09.06.1c0,0,.01,0,.02,0h4.76c.05,0,.1-.05.11-.1l3.84-16.48s0-.06-.05-.06c-1.24,0-2.49,0-3.74,0-.59,0-1.09.13-1.23.72-.46,1.96-.92,3.92-1.38,5.89-.01.05-.04.07-.09.07h-6.72s-.06-.02-.06-.05c0,0,0,0,0-.01l1.5-6.42c.03-.12-.02-.18-.14-.18-1.46-.02-2.81-.02-4.05-.01-.49,0-.76.44-.87.9-1.26,5.22-2.52,10.44-3.78,15.66,0,.02,0,.05.03.06,0,0,0,0,.01,0h4.73s.06-.03.07-.06l1.64-6.84s.03-.06.08-.06h6.9s.07.02.06.07Z"/>
  <path class="st0" d="M85.75,66.52c.28-1.17,1.14-1.48,2.22-1.48,1.61,0,3.22,0,4.82,0,.03,0,.05.02.05.05,0,0,0,0,0,.01l-4.27,18.33c-.01.06-.06.1-.12.1h-6.69s-.06-.03-.06-.06c0,0,0,0,0-.01,1.35-5.64,2.7-11.28,4.05-16.93ZM87.63,65.95c-.55,0-.89.36-1.02.88-1.25,5.24-2.49,10.48-3.74,15.71,0,.03,0,.05.04.06,0,0,0,0,.01,0h4.82s.08-.03.09-.07l3.84-16.48c.02-.07-.01-.1-.08-.1-1.3,0-2.62,0-3.96,0Z"/>
  <path class="st0" d="M98.13,78.9l9.17-.02s.06.03.06.06c0,0,0,0,0,.01l-1.02,4.47c-.01.05-.06.09-.11.09h-15.87s-.05-.02-.05-.05c0,0,0,0,0-.01,1.3-5.63,2.61-11.26,3.92-16.89.3-1.28,1.18-1.54,2.43-1.54,4.56,0,9.12,0,13.67,0,.03,0,.06.02.06.05,0,0,0,0,0,.01l-1.01,4.39c-.01.06-.07.1-.13.1h-9.01s-.06.02-.07.06l-.45,2.11s.01.06.04.06c0,0,0,0,.01,0h8.5c.05,0,.07.02.06.07l-1.08,4.57c-.01.05-.04.08-.1.08h-8.46s-.08.02-.09.07l-.55,2.2s.02.08.06.09c0,0,.01,0,.02,0ZM99.47,68.66h9.06c.05,0,.08-.02.1-.07l.6-2.6s0-.04-.03-.05c0,0,0,0,0,0-4.33,0-8.66,0-12.99,0-.66,0-.96.3-1.11.95-1.21,5.2-2.42,10.41-3.62,15.63-.01.05,0,.08.06.08h13.97s.08-.02.09-.07l.61-2.65c.01-.07-.01-.1-.08-.1h-9.18s-.06-.02-.06-.06c0,0,0,0,0-.01l1-3.99c.02-.07.06-.1.13-.1h8.41s.08-.02.09-.07l.65-2.75s-.01-.06-.04-.07c0,0,0,0-.01,0h-8.46c-.06,0-.08-.03-.07-.08l.84-3.95s.02-.04.05-.04Z"/>
  <path class="st0" d="M128.23,67.05c1.99,1.66,2.39,4.38,1.86,6.86-1.03,4.8-4.55,8.66-9.46,9.46-.57.09-1.44.14-2.62.14-3.46,0-6.92,0-10.38,0-.04,0-.06-.03-.06-.06,0,0,0,0,0-.01,1.25-5.41,2.5-10.83,3.75-16.25.28-1.22.67-2.16,2.01-2.16,2.59,0,5.18,0,7.77,0,2.45,0,5.2.42,7.12,2.02ZM127.25,78.18c2.58-3.62,3.74-10.13-2.05-11.71-1.38-.38-2.6-.5-4.16-.51-2.47-.02-4.95-.03-7.42,0-.59,0-1.09.12-1.23.72-1.23,5.29-2.44,10.57-3.66,15.86,0,.03.01.06.04.07,0,0,0,0,.01,0h8.9c1.2,0,2.07-.04,2.62-.12,2.88-.42,5.2-1.85,6.94-4.3Z"/>
  <path class="st0" d="M138.31,71.82h8.5s.06.02.05.06l-1.08,4.59s-.04.07-.09.07h-8.48s-.06.02-.07.05l-.56,2.22s.01.08.05.09c0,0,.01,0,.02,0h9.11c.09,0,.13.04.11.14l-1.01,4.41s-.05.07-.09.07h-15.87s-.06-.03-.06-.06c0,0,0,0,0-.01,1.25-5.4,2.5-10.81,3.76-16.22.39-1.68.81-2.19,2.53-2.19h13.74s.05.02.05.05c0,0,0,0,0,.01l-1.02,4.42s-.04.07-.09.07h-9.03s-.07.02-.08.07l-.44,2.09c-.01.05,0,.08.06.08ZM135.41,79.72l1.02-4.03s.05-.07.09-.07h8.46s.06-.02.07-.06l.65-2.74s-.02-.08-.06-.09c0,0-.01,0-.02,0h-8.45s-.06-.02-.05-.06l.83-3.95s.04-.06.07-.06h9.02c.06,0,.11-.04.13-.1l.59-2.55s-.01-.06-.04-.07c0,0,0,0-.01,0-4.26,0-8.52,0-12.79,0-.67,0-1.1.15-1.26.82-1.22,5.26-2.44,10.51-3.66,15.77-.01.04,0,.07.05.07h13.97c.06,0,.1-.03.11-.09l.61-2.66s-.01-.06-.05-.07c0,0,0,0-.01,0l-9.22.02c-.05,0-.07-.02-.06-.07Z"/>
  <path class="st0" d="M154.38,78.77h8.44s.05.02.05.05c0,0,0,0,0,.01l-1.07,4.57c-.02.07-.08.12-.14.12h-15.15c-.07,0-.1-.04-.09-.11,1.21-5.38,2.43-10.77,3.65-16.18.28-1.26.66-2.21,2.04-2.21h5.15s.06.02.06.05c0,0,0,0,0,.01l-3,13.6s.01.06.04.07c0,0,0,0,.01,0ZM153.18,79.62l3-13.58c.01-.05,0-.08-.06-.08-1.26-.03-2.53-.03-3.79,0-1.03.02-1.1.46-1.31,1.37-1.15,5.07-2.3,10.14-3.44,15.21-.01.05,0,.07.06.07h13.34s.07-.02.08-.07l.64-2.73c.01-.06-.01-.1-.08-.1l-8.38-.02s-.07-.02-.06-.07Z"/>
  <path class="st1" d="M50.31,83.14c-.81-.05-1.57-.17-2.26-.38-5.49-1.6-4.51-8.1-2.45-11.91,1.86-3.45,5.33-5.37,9.21-5.56,2.36-.11,5.44.07,7.02,2.15.69.91.93,1.98.71,3.21,0,.03-.03.05-.05.05h-4.65s-.07-.02-.08-.07c-.2-1.44-1.04-2.24-2.52-2.38-4.36-.43-6.21,5.17-6.29,8.51,0,.33.05.73.16,1.21.39,1.63,1.61,2.4,3.26,2.3,1.67-.1,2.9-.95,3.68-2.58.02-.03.04-.05.08-.05h4.99s.07.03.07.06c0,0,0,.02,0,.02-1.63,4.44-6.62,5.65-10.87,5.4Z"/>
  <path class="st1" d="M76.03,75.62h-6.9s-.07.02-.08.06l-1.64,6.84s-.04.06-.07.06h-4.73s-.05-.02-.05-.04c0,0,0,0,0-.01,1.26-5.21,2.52-10.43,3.78-15.66.11-.47.38-.9.87-.9,1.23-.01,2.58,0,4.05.01.12,0,.17.06.14.18l-1.5,6.42s.01.06.04.07c0,0,0,0,.01,0h6.72c.05,0,.08-.02.09-.07.46-1.97.92-3.94,1.38-5.89.14-.6.64-.72,1.23-.72,1.26,0,2.5,0,3.74,0,.04,0,.06.02.05.06l-3.84,16.48c-.01.05-.06.09-.11.09h-4.76s-.08-.03-.08-.07c0,0,0-.01,0-.02l1.7-6.79s0-.07-.06-.07Z"/>
  <path class="st1" d="M86.61,66.83c.12-.53.46-.88,1.02-.88,1.34,0,2.65,0,3.96,0,.07,0,.09.03.08.1l-3.84,16.48s-.05.07-.09.07h-4.82s-.05-.02-.05-.05c0,0,0,0,0-.01,1.25-5.23,2.5-10.47,3.74-15.71Z"/>
  <path class="st1" d="M99.47,68.66s-.04.01-.05.04l-.84,3.95c-.01.06.01.09.07.09h8.46s.06.02.06.05c0,0,0,0,0,.01l-.65,2.75s-.04.07-.09.07h-8.41c-.07,0-.11.03-.13.1l-1,3.99s.01.07.04.07c0,0,0,0,.01,0h9.18c.07,0,.1.03.08.1l-.61,2.65s-.04.07-.09.07h-13.97c-.05,0-.07-.03-.06-.08,1.21-5.22,2.41-10.42,3.62-15.63.15-.65.45-.95,1.11-.95,4.33,0,8.66,0,12.99,0,.02,0,.04.02.04.04,0,0,0,0,0,0l-.6,2.6c-.01.05-.04.08-.1.08h-9.06Z"/>
  <path class="st1" d="M125.2,66.47c5.78,1.58,4.63,8.09,2.05,11.71-1.74,2.44-4.06,3.88-6.94,4.3-.55.08-1.42.12-2.62.12h-8.9s-.06-.03-.06-.06c0,0,0,0,0-.01,1.21-5.28,2.43-10.57,3.66-15.86.14-.6.64-.72,1.23-.72,2.47-.02,4.95-.01,7.42,0,1.56.01,2.78.14,4.16.51ZM124.33,72.89c.16-3.07-2.02-3.95-4.63-4.02-.93-.02-1.85-.03-2.77,0-.05,0-.1.04-.11.09l-2.53,10.62s0,.04.03.04c0,0,0,0,0,0,1.57-.02,3.52.15,4.9-.18,3.03-.71,4.95-3.5,5.11-6.56Z"/>
  <path class="st1" d="M135.47,79.8l9.22-.02s.06.03.06.06c0,0,0,0,0,.01l-.61,2.66c-.01.06-.05.09-.11.09h-13.97s-.06-.02-.05-.06c1.21-5.26,2.43-10.52,3.66-15.77.16-.67.59-.82,1.26-.82,4.26,0,8.53,0,12.79,0,.03,0,.06.03.06.06,0,0,0,0,0,.01l-.59,2.55c-.01.06-.07.1-.13.1h-9.02s-.06.02-.07.06l-.83,3.95s0,.07.05.07h8.45s.07.03.07.07c0,0,0,.01,0,.02l-.65,2.74s-.03.06-.07.06h-8.46s-.08.03-.09.07l-1.02,4.03s0,.07.06.07Z"/>
  <path class="st1" d="M153.24,79.69l8.38.02c.07,0,.09.03.08.1l-.64,2.73s-.04.07-.08.07h-13.34s-.07-.02-.06-.07c1.14-5.07,2.28-10.14,3.44-15.21.21-.92.28-1.35,1.31-1.37,1.27-.03,2.53-.02,3.79,0,.05,0,.07.03.06.08l-3,13.58s0,.07.06.07Z"/>
  <path class="st0" d="M119.7,68.88c2.61.07,4.79.94,4.63,4.02-.16,3.05-2.08,5.85-5.11,6.56-1.38.32-3.33.16-4.9.18-.02,0-.04-.02-.04-.04,0,0,0,0,0,0l2.53-10.62c.01-.05.06-.09.11-.09.91-.02,1.84-.02,2.77,0ZM123.36,73.26c.2-2.23-.57-3.16-2.81-3.38-.92-.09-1.88-.12-2.89-.1-.06,0-.1.03-.12.09l-2.07,8.72s0,.07.06.07c1.71.07,3.24.16,4.65-.55,1.85-.93,3-2.82,3.18-4.87Z"/>
  <path class="st0" d="M109.57,90.77h-.56c-.05,0-.1-.04-.1-.1,0,0,0,0,0,0v-.7c0-.06.03-.09.09-.09h.6s.06-.03.06-.06c0,0,0,0,0,0-.11-1.43.66-3.08,2.38-2.46.03.01.06.04.06.08v.79c0,.06-.03.09-.09.07-1.2-.41-1.43.68-1.38,1.54,0,.04.02.06.07.06h.73c.06,0,.08.03.08.08v.7c0,.07-.03.1-.1.1h-.71c-.06,0-.08.03-.08.08v3.85c0,.05-.04.1-.09.1h-.77c-.07.01-.12-.04-.12-.1,0,0,0,0,0,0v-3.85s-.01-.07-.06-.07Z"/>
  <path class="st0" d="M62.53,90.57h4.06s.05-.02.05-.05h0v-3.14s.02-.05.05-.05h.97s.05.02.05.05h0v7.36s-.02.05-.05.05l-.98.02s-.05-.02-.06-.05c0,0,0,0,0,0v-3.15s-.02-.05-.05-.05h-4.06s-.05.02-.05.05h0v3.14s-.02.05-.05.05h-.98s-.05-.01-.05-.04h0s0-7.38,0-7.38c0-.03.02-.05.05-.05h.98s.05.02.05.05h0v3.14s.02.05.05.05h0Z"/>
  <path class="st0" d="M98.58,94.72v-7.31s.04-.08.08-.08h.92s.08.04.08.08h0v6.33s.03.08.08.08h3.21s.08.04.08.08h0v.82s-.04.08-.09.08h-4.29s-.08-.04-.08-.08h0Z"/>
  <path class="st0" d="M134.45,93.82h3.24s.07.03.07.07h0v.85s-.03.07-.07.07h-4.32s-.07-.03-.07-.07h0v-7.34s.03-.07.07-.07h.95s.07.03.07.07h0v6.36s.03.07.07.07h0Z"/>
  <path class="st0" d="M145.01,90.18c3.04-1.83,4.65,2.85,2.26,4.32-.69.42-1.43.54-2.22.34-.29-.07-.59-.14-.91-.21-.1-.02-.18-.11-.18-.22v-7.02s.02-.07.07-.07h.87s.05.02.05.05h0s0,2.77,0,2.77c0,.05.02.07.07.04ZM144.99,93.84c3.99,1.02,2.41-4.87.01-2.7-.03.03-.05.07-.05.12v2.53s.02.05.04.05Z"/>
  <circle class="st0" cx="104.91" cy="88.01" r=".51"/>
  <circle class="st0" cx="106.97" cy="88.01" r=".51"/>
  <circle class="st0" cx="75.25" cy="88.39" r=".58"/>
  <path class="st0" d="M113.87,90.83c-.02,1.34-.02,2.18,0,2.53.04.93,1.14.66,1.7.33.03-.02.07,0,.09.02,0,.01,0,.02,0,.03v.72s-.02.07-.05.1c-.78.53-1.95.54-2.49-.3-.14-.22-.22-.56-.24-1.01-.03-.78-.04-1.6-.02-2.44,0-.03-.02-.05-.05-.05,0,0,0,0,0,0h-.74s-.07-.03-.07-.07c0-.02,0-.04.02-.05l1.77-1.72s.06-.02.08,0c0,.01.02.02.02.04l-.02.83c0,.06.03.09.08.09h1.38c.06,0,.08.03.08.08v.7c0,.07-.03.1-.1.1h-1.37s-.06.02-.06.06Z"/>
  <path class="st0" d="M70.12,92.52c.22,1.81,2.18,1.69,3.29.87.02-.02.06-.01.07.01,0,0,.01.02.01.03v.81s-.02.08-.05.1c-.63.41-1.31.61-2.04.59-1.47-.04-2.36-1.47-2.28-2.79.19-3.21,4.55-3.16,4.44.21,0,.05-.04.09-.09.09h-3.28c-.05,0-.07.03-.07.08ZM70.19,91.86h2.39s.02-.02.02-.03h0c0-.66-.55-1.18-1.21-1.18h-.01c-.67,0-1.21.53-1.2,1.18,0,0,0,0,0,0h0s0,.03.02.03Z"/>
  <path class="st0" d="M82.52,92.5c.18,1.82,2.12,1.7,3.27.9.06-.04.09-.03.09.05v.78s-.02.08-.06.11c-.9.6-1.98.8-2.98.31-1.75-.84-1.81-3.93.02-4.69,1.78-.74,3.16.61,3.09,2.4,0,.04-.03.07-.07.07h-3.31s-.06.02-.06.06ZM82.58,91.85h2.4s.02,0,.02-.02h0c0-.66-.54-1.19-1.21-1.19h-.03c-.67,0-1.21.52-1.21,1.18h0s.01.03.02.03h0Z"/>
  <path class="st0" d="M90.31,91.8c0-1.44-1.42-1.54-2.12-.52-.02.04-.04.08-.04.12v3.34s-.03.07-.07.07h-.88s-.07-.03-.07-.07v-4.79s.02-.07.07-.07h.88c.06,0,.09.03.08.09l-.04.4s.02.07.06.07c.02,0,.04,0,.06-.02,1.17-1.23,3.03-.6,3.05,1.15.02,1.46.02,2.51.02,3.14,0,.04-.04.08-.08.08h-.84s-.06-.02-.07-.06c0,0,0,0,0,0,0-.99,0-1.98-.01-2.95Z"/>
  <path class="st0" d="M117.22,92.53c.26,1.8,2.16,1.66,3.3.87.02-.02.06,0,.07.01,0,0,0,.02,0,.03v.84s-.02.05-.03.06c-.52.34-1.07.54-1.65.58-3.34.24-3.61-4.99-.51-5.13,1.51-.07,2.36,1.16,2.27,2.56,0,.06-.03.08-.09.08h-3.28s-.08.04-.08.08c0,0,0,0,0,.01ZM117.3,91.86l2.38-.02s.02,0,.02-.02h0c0-.66-.55-1.18-1.21-1.18,0,0,0,0,0,0h-.02c-.66,0-1.2.54-1.19,1.18h0s0,.03.02.03h0Z"/>
  <path class="st0" d="M122.87,90.34c0,.14.04.16.13.05,1.16-1.27,2.98-.49,3.01,1.22.02,1.04.02,2.07,0,3.09,0,.06-.05.1-.11.1h-.79c-.05,0-.1-.04-.1-.1,0,0,0,0,0,0,.03-1.07.03-2.14-.02-3.21-.05-1.23-1.58-1.01-2.1-.23-.02.03-.03.07-.03.11v3.33c0,.06-.03.09-.1.1l-.84.02s-.08-.03-.08-.08c0,0,0,0,0,0v-4.78s.02-.07.07-.07h.87c.06,0,.09.03.08.09l-.02.38Z"/>
  <path class="st0" d="M139.34,92.51c.25,1.78,2.15,1.71,3.28.89.06-.05.09-.03.09.05v.79s-.02.09-.06.12c-.48.31-1,.5-1.54.56-3.45.35-3.74-5.15-.43-5.12,1.46.01,2.18,1.29,2.11,2.61,0,.02-.02.04-.04.04h-3.34s-.07.02-.06.07ZM139.41,91.85h2.4s.02-.01.02-.02h0c0-.66-.54-1.19-1.21-1.19h-.03c-.67,0-1.21.53-1.21,1.18h0s.01.03.02.03Z"/>
  <path class="st0" d="M150.32,92.51c.25,1.95,2.19,1.55,3.37.87,0,0,.02,0,.02,0,0,0,0,0,0,0l-.02.87s-.02.07-.06.1c-1.38.85-3.14.85-3.99-.74-.37-.7-.43-1.43-.18-2.2.87-2.63,4.51-1.97,4.3.96,0,.04-.02.06-.07.06h-3.31s-.07.02-.06.07ZM150.4,91.87l2.4-.03s.02,0,.02-.02h0c0-.66-.56-1.18-1.23-1.17h-.03c-.67,0-1.2.54-1.19,1.19,0,0,0,0,0,0h0s0,.03.02.03c0,0,0,0,0,0Z"/>
  <path class="st0" d="M155.96,90.41s.02.05.04.05c.01,0,.03,0,.04-.02.82-.92,2.4-.91,2.9.32.11.26.16.71.16,1.37,0,.86,0,1.72.01,2.58,0,.06-.04.1-.1.1,0,0,0,0,0,0h-.78c-.06,0-.12-.05-.12-.11h0c0-.99,0-1.99,0-3-.01-1.64-2.14-1.16-2.13-.17.01,1.07.01,2.15,0,3.22,0,.04-.02.06-.06.06l-.88.02s-.08-.03-.08-.07c0,0,0,0,0,0v-4.77c0-.05.03-.08.08-.08h.84c.05,0,.1.04.1.1,0,0,0,0,0,.01l-.04.42Z"/>
  <path class="st0" d="M80.94,93.93v.83s-.02.04-.04.04h-4.21s-.04-.01-.04-.04c0,0,0-.02,0-.02l2.51-3.88s0-.05-.01-.06c0,0-.02,0-.02,0h-2.38s-.04,0-.04-.03h0v-.84s.02-.04.04-.04h4.13s.04.01.04.04c0,0,0,.02,0,.02l-2.53,3.87s0,.05.01.06c0,0,.01,0,.02,0h2.48s.04.02.04.04h0Z"/>
  <path class="st0" d="M74.77,94.77v-4.84s.02-.05.05-.05h.86s.05.02.05.05h0v4.82s-.02.05-.04.05l-.86.02s-.05-.02-.05-.04c0,0,0,0,0,0Z"/>
  <path class="st0" d="M107.05,94.31c.01-.11-.02-.13-.1-.05-.39.35-.97.73-1.52.67-.9-.11-1.46-.74-1.51-1.64-.07-1.11-.08-2.22-.04-3.32,0-.05.04-.08.09-.08h.84s.05.02.05.05h0c0,1-.01,1.95,0,2.83,0,.55.12,1.22.83,1.29.56.05,1.01-.17,1.33-.66.02-.03.03-.07.03-.11v-3.33s.02-.07.07-.07h.83s.05.03.05.06h0s0,4.73,0,4.73c0,.07-.06.13-.13.13h-.7c-.09.02-.16-.05-.16-.14,0,0,0-.01,0-.02l.04-.32Z"/>
  <circle class="st0" cx="93.3" cy="94.27" r=".66"/>
  <circle class="st0" cx="128.02" cy="94.27" r=".66"/>
  <circle class="st0" cx="161.12" cy="94.27" r=".66"/>
  <path class="st0" d="M119.77,35.7c.62.39.41,1.01-.12,1.35-.4.25-.78.39-1.28.46-4.26.55-8.67.48-12.78,1.96-5.64,2.03-21.55,11.43-24.15,12.94-1.07.62-1.85,1.02-2.33,1.19-1.84.67-3.89.82-5.74.07-.71-.29-1.14-.67-1.65-1.32-1.63-2.05-4.85-6.45-3.55-4.72,1.12,1.48,2.26,2.94,3.42,4.38,1.52,1.89,4.82,1.7,6.81,1.05.55-.18,1.33-.56,2.35-1.14,2.87-1.65,19.12-11.23,24.79-13.23,2.33-.82,5.36-1.19,7.59-1.35,2.11-.15,3.8-.31,5.07-.5.54-.08,1.43-.5,1.55-1.14Z"/>
  <path class="st0" d="M36.81,45.55c-.87-.96-1.72-1.85-2.54-2.88-.37-.46-.91-.27-1.29.1-.5.49-.99,1.08-1.44,1.53-1.5,1.49-3,2.97-4.51,4.46-.74.73-1.29,1.55-1.91,2.38-.35.48-.82.73-1.41.77-1.09.07-2.55.03-2.94-1.15.77.55,1.84.62,2.82.49.43-.06.89-.39,1.14-.74.78-1.13,1.38-1.9,1.82-2.32,2.02-1.93,4-3.9,5.94-5.92.59-.62,1.03-.67,1.57,0,.56.69,1.22,1.44,2,2.23.26.27.52.62.76,1.05Z"/>
  <path class="st1" d="M119.77,35.7c-.12.64-1.01,1.06-1.55,1.14-1.27.19-2.96.35-5.07.5-2.24.16-5.26.53-7.59,1.35-5.68,2-21.93,11.58-24.79,13.23-1.02.58-1.8.97-2.35,1.14-1.99.64-5.29.83-6.81-1.05-1.16-1.44-2.3-2.9-3.42-4.38-1.31-1.72-6.94-9.64-8.19-11.35-.82-1.65-2.36-1.7-3.46-.29-1.03,1.32-10.25,14.37-11.19,15.69-1.47,2.06-3.39.74-4.52-.75-.6-.79-1.1-1.39-1.48-1.8l-2.52-3.58c-.24-.43-.49-.78-.76-1.05-.78-.8-1.44-1.54-2-2.23-.54-.68-.98-.62-1.57,0-1.94,2.02-3.91,3.99-5.94,5.92-.44.42-1.05,1.19-1.82,2.32-.24.35-.7.69-1.14.74-.97.13-2.05.06-2.82-.49-.73-.67-.25-1.29.25-1.9,2.82-3.39,6.1-6.35,9.09-9.59.79-.86,1.66-1.82,2.7-2.27,1.18-.52,1.85-.05,2.76.8,2.28,2.13,4.25,4.07,5.91,6.46.45.65.82.99,1.41,1.47.91.73,1.72-.26,2.22-.97.98-1.4,8.71-12.31,10.33-14.01.46-.48.86-.83,1.2-1.05.51-.33,1.02-.53,1.53-.61,1.68-.26,3.74,1.87,4.54,3.15,1.37,2.19,2.73,4.39,4.08,6.6,1.5,2.44,3.32,4.74,5.02,7.05,1.19,1.63,3.48,2.07,5.31,1.61.93-.24,1.94-.68,2.95-1.16,5.91-2.77,10.61-5.19,15.87-7.88,5.85-2.99,12.49-4.31,19.03-4.21.99.01,4.67.1,4.8,1.46Z"/>
</svg>