<?xml version="1.0" encoding="UTF-8"?>
<svg id="_Шар_1" data-name="Шар_1" xmlns="http://www.w3.org/2000/svg" version="1.1" viewBox="0 0 182 124">
  <!-- Generator: Adobe Illustrator 29.0.0, SVG Export Plug-In . SVG Version: 2.1.0 Build 186)  -->
  <defs>
    <style>
      .st0 {
        fill: #343539;
      }

      .st1 {
        fill: #0775bc;
      }
    </style>
  </defs>
  <path class="st1" d="M2.28,38.02c0,7.62,8.09,8.97,9.91,9.74,3.47,1.48,9.7,3.46,8.79,7.03-1.07,4.2-5.42,4.94-7.98,4.84-3.61-.13-8.76-3.33-8.76-3.33,0,0-2.24,3.02-2.24,3.02,0,0,5.53,3.97,11.14,4.02,6.74.06,13.1-3.79,13.1-9.65,0-4.78-2.84-7.37-10.62-10.17-4.93-1.74-8.17-2.79-8.17-5.4,0-3.13,2.66-4.85,7.29-4.77,4.09.07,8.27,2.7,8.27,2.7,0,0,1.91-3.12,1.91-3.12,0,0-2.9-3.42-10.44-3.63-1.77-.05-12.22.9-12.22,8.71Z"/>
  <path class="st1" d="M27.84,45.5c-.66,13.53,10.22,17.85,17.21,17.85,6.15,0,10.79-3.21,10.79-3.21l-1.93-2.86s-3.07,2.46-8.92,2.46c-2.39,0-11.52-1.86-11.52-14.27,0-5.83,3.69-12.24,11.86-12.19,4.99.03,8.82,2.84,8.82,2.84l2.1-3.1s-4.43-3.32-10.58-3.32c-8.48,0-17.3,5.22-17.82,15.81Z"/>
  <path class="st1" d="M94.09,32.77c-3.78,3.32-8.95,15.62,2.83,21.72l1.88,1.04s-10.09-8.6-2.46-17.82c4.19-5.07,12.18-5.49,17.02-1.06.54.49,2.16,2.21,2.16,2.21l-1.01-2.53c-6.63-11.29-18.38-5.35-20.41-3.56Z"/>
  <path class="st1" d="M114.53,31.79c6.59,7.28,4.58,14.98,3.35,17.58-1.69,3.57-5.1,6.82-8.92,8.61-12.8,4.37-20.05-6.67-20.05-6.67,0,0-.11,1.37,1.87,4.22,11.26,14.28,27.8,6.05,30.87-2.69,3.88-11.05-.91-18.66-7.55-22.99-.69-.45-3.36-.9-3.36-.9,0,0,2.72,1.64,3.79,2.83Z"/>
  <path class="st1" d="M144.97,33.71h7.6v28.92h5.25v-28.92h7.6v-3.38h-20.45v3.38Z"/>
  <path class="st1" d="M121.96,33.71h7.6v28.92h5.25v-28.92h7.6v-3.38h-20.45v3.38Z"/>
  <path class="st0" d="M4.42,94.25h3.86v-9.66h2.39c1.66,0,6.3,10.45,6.3,10.45l4.05-1.57s-.29-.28-3.09-5.11l-2.85-4.93s3.88-2.05,3.88-6.96c0-2.9-2.54-6.62-6.74-6.62l-7.81-.05v24.44ZM14.33,77c0,4.96-6.05,4.35-6.05,4.35v-8.16s6.05-.89,6.05,3.8Z"/>
  <path class="st0" d="M86.05,75.89c0,4.32-6.28,3.86-6.28,3.86l.04-6.55s6.24-.05,6.24,2.69ZM75.91,69.81v24.43h7.26c8.02,0,8.75-5.23,8.75-7.09,0-4.54-4.9-6.29-4.9-6.29,0,0,3.36-.95,3.38-6.13,0-2.23-2.48-4.92-5.78-4.92h-8.71ZM87.2,86.93c0,4.51-7.43,3.99-7.43,3.99v-7.54s7.43-.88,7.43,3.55Z"/>
  <path class="st0" d="M114.71,69.81l-9.83,24.43h4.11l2.51-6.52,8.28-.03,2.45,6.55h4.77l-9.08-24.43h-3.21ZM118.51,84.1h-5.6l2.9-8.07,2.7,8.07Z"/>
  <path class="st0" d="M138.69,69.81l7.52,10.86-7.88,13.58h4.57l6-9.8,6.06,9.8h5.21l-8.81-13.64,6.82-10.8h-4.6l-4.68,7.94-5.02-7.94h-5.19Z"/>
  <path class="st0" d="M47.38,69.61c-6.74,0-12.2,5.66-12.2,12.64s5.46,12.65,12.2,12.65,12.19-5.66,12.19-12.65-5.46-12.64-12.19-12.64ZM47.38,91.65c-4.24,0-7.67-4.21-7.67-9.4s3.43-9.4,7.67-9.4,7.66,4.22,7.66,9.4-3.43,9.4-7.66,9.4Z"/>
  <g>
    <path class="st0" d="M174.03,67.51c-3.29,0-5.97,2.68-5.97,5.97s2.68,5.97,5.97,5.97,5.97-2.68,5.97-5.97-2.68-5.97-5.97-5.97ZM174.03,78.67c-2.86,0-5.18-2.32-5.18-5.18s2.32-5.18,5.18-5.18,5.18,2.32,5.18,5.18-2.32,5.18-5.18,5.18Z"/>
    <path class="st0" d="M176.29,73.3c.26-.3.39-.67.39-1.12,0-.53-.18-.95-.55-1.25-.36-.3-.88-.45-1.55-.45h-2.8v5.96h.81v-2.47h1.85l1.55,2.47h.93l-1.69-2.57c.45-.08.81-.27,1.07-.57ZM172.58,73.33v-2.2h1.91c.44,0,.78.09,1.02.27s.35.45.35.79-.12.64-.35.83c-.23.2-.56.3-.99.3h-1.95Z"/>
  </g>
  <polygon class="st1" points="79.66 30.34 79.66 43.44 64.25 43.44 64.25 30.34 59 30.34 59 62.63 64.25 62.63 64.25 46.84 79.66 46.84 79.66 62.63 84.91 62.63 84.91 30.34 79.66 30.34"/>
</svg>