<?xml version="1.0" encoding="UTF-8"?>
<svg id="_Шар_1" data-name="Шар_1" xmlns="http://www.w3.org/2000/svg" version="1.1" viewBox="0 0 182 124">
  <!-- Generator: Adobe Illustrator 29.0.0, SVG Export Plug-In . SVG Version: 2.1.0 Build 186)  -->
  <defs>
    <style>
      .st0 {
        fill: #575756;
      }

      .st1 {
        fill: #e30613;
      }

      .st2 {
        fill: #ffed00;
      }
    </style>
  </defs>
  <path class="st0" d="M4.66,74.26h-1.83v-.83h4.74v.83h-1.91v6.24h-1v-6.24ZM9.07,80.5h1.08v-3.33h2.83v3.33h1.08v-6.98h-1.08v2.91h-2.83v-2.91h-1.08s0,6.98,0,6.98ZM16.22,80.5h4.16v-.83h-3.08v-2.49h2.41v-.83h-2.41v-2.16h2.99v-.83h-3.99v7.15h-.08ZM24.86,80.5h1.08v-3.33h2.83v3.33h1.08v-6.98h-1.08v2.91h-2.83v-2.91h-1.08s0,6.98,0,6.98ZM31.6,80.5h2.66v-.5l-.83-.08v-5.82l.83-.08v-.5h-2.66v.5l.83.08v5.82l-.83.08v.5ZM40.24,80.5h.75v-3.74h-2.49v.83h1.5v1.75c-.42.33-.91.5-1.41.5-1.33,0-1.75-.91-1.75-2.91s.42-2.83,1.83-2.83c.58,0,1,.17,1.58.58l.5-.67c-.58-.5-1.25-.67-2.08-.67-2.08,0-2.99,1.41-2.99,3.66,0,2.41,1,3.66,2.74,3.66.67,0,1.25-.33,1.66-.67,0,0,.17.5.17.5ZM43.07,80.5h1.08v-3.33h2.74v3.33h1.08v-6.98h-1.08v2.91h-2.83v-2.91h-1.08v6.98h.08ZM54.13,80.5h1.08v-6.24h1.83v-.83h-4.74v.83h1.83s0,6.24,0,6.24ZM58.53,80.5h4.16v-.83h-3.08v-2.49h2.41v-.83h-2.41v-2.16h2.99v-.83h-4.07s0,7.15,0,7.15ZM64.52,80.5h1v-4.16c0-1-.08-1.91-.08-2.16.08.25.25,1.33.58,2.16l1.08,2.83h1l1.16-2.99c.33-.75.58-1.83.58-2.08,0,.25-.08,1-.08,2.16v4.16h1.08v-6.98h-1.5l-1.25,3.49c-.33.75-.42,1.25-.42,1.66,0-.33-.08-.91-.33-1.58l-1.33-3.57h-1.58v7.07h.08ZM74.08,76.92v-2.66h1.16c.91,0,1.33.33,1.33,1.33s-.42,1.33-1.33,1.33c0,0-1.16,0-1.16,0ZM73.08,80.5h1.08v-2.74h1.33c1.58,0,2.24-.83,2.24-2.16s-.83-2.08-2.41-2.08h-2.33v6.98h.08ZM79.4,80.5h4.16v-.83h-3.08v-2.49h2.41v-.83h-2.41v-2.16h2.99v-.83h-3.99v7.15h-.08ZM86.39,76.67v-2.41h1.08c1,0,1.33.33,1.33,1.16,0,.91-.33,1.25-1.33,1.25h-1.08ZM85.3,80.5h1.08v-2.99h.75c.5,0,.83.17,1.16,1l.75,2h1.16l-.83-2c-.25-.75-.58-1.08-1-1.16,1-.25,1.5-.83,1.5-1.83,0-1.33-.91-2-2.41-2h-2.16v6.98h0ZM93.37,76.42c.33-1.08.42-1.5.58-2,.08.58.17.91.58,2l.33,1.25h-1.91s.42-1.25.42-1.25ZM90.96,80.5h1.08l.67-2.08h2.41l.67,2.08h1.16l-2.33-7.07h-1.16s-2.49,7.07-2.49,7.07ZM99.19,80.5h1.08v-6.24h1.83v-.83h-4.74v.83h1.83v6.24ZM103.6,78.42c0,1.66,1.08,2.16,2.16,2.16.83,0,1.5-.42,1.91-.75l.17.67h.75v-6.98h-1.08v5.65c-.33.25-.91.67-1.75.67-1,0-1.16-.5-1.16-1.5v-4.82h-1.08v4.91M111.83,76.67v-2.41h1.08c1,0,1.33.33,1.33,1.16,0,.91-.33,1.25-1.33,1.25h-1.08ZM110.83,80.5h1.08v-2.99h.75c.5,0,.83.17,1.16,1l.75,2h1.16l-.83-2c-.25-.75-.58-1.08-1-1.16,1-.25,1.5-.83,1.5-1.83,0-1.33-.91-2-2.41-2h-2.16v6.98h0ZM117.23,80.5h4.16v-.83h-3.08v-2.49h2.41v-.83h-2.41v-2.16h2.99v-.83h-3.99v7.15h-.08ZM125.54,77.01c0,2.33.91,3.57,2.99,3.57.83,0,1.5-.25,2-.58l-.5-.67c-.42.25-.83.5-1.5.5-1.58,0-1.91-.91-1.91-2.83s.33-2.83,1.91-2.83c.58,0,1,.17,1.33.42l.5-.67c-.5-.33-1.08-.58-1.83-.58-2.16,0-2.99,1.41-2.99,3.66M136.35,77.01c0,1.91-.5,2.83-1.75,2.83-1.33,0-1.75-.91-1.75-2.91s.5-2.83,1.75-2.83,1.75.91,1.75,2.91M131.7,77.01c0,2.41,1,3.57,2.91,3.57s2.91-1.25,2.91-3.66-1-3.57-2.91-3.57-2.91,1.25-2.91,3.66M140.76,76.42c.33-1.08.42-1.5.58-2,.08.58.17.91.58,2l.33,1.25h-1.91l.42-1.25h0ZM138.43,80.5h1.08l.67-2.08h2.41l.67,2.08h1.16l-2.33-7.07h-1.25l-2.41,7.07h0ZM146.58,80.5h1.08v-6.24h1.83v-.83h-4.74v.83h1.83v6.24ZM150.74,80.5h2.66v-.5l-.83-.08v-5.82l.83-.08v-.5h-2.66v.5l.83.08v5.82l-.83.08v.5ZM155.14,80.5h1v-3.49c0-.83-.08-1.58-.08-2.08.17.5.33,1,.91,1.91l2,3.66h1.08v-6.98h-1v3.74c0,.75.08,1.5.08,2-.17-.5-.42-1.08-.75-1.75l-2.16-3.99h-1.08s0,6.98,0,6.98ZM166.45,80.5h.75v-3.74h-2.49v.83h1.5v1.75c-.42.33-.91.58-1.5.58-1.33,0-1.75-.91-1.75-2.91s.42-2.83,1.83-2.83c.58,0,1,.17,1.58.58l.5-.67c-.58-.5-1.25-.67-2.08-.67-2.08,0-2.99,1.41-2.99,3.66,0,2.41,1,3.66,2.74,3.66.67,0,1.25-.33,1.66-.67l.25.42h0ZM168.69,79.92c.58.42,1.41.75,2.33.75,1.83,0,2.41-1,2.41-2,0-1.41-.91-1.83-2.16-2.24-.91-.33-1.25-.5-1.25-1.25,0-.67.5-1,1.25-1,.58,0,.91.17,1.41.42l.42-.75c-.5-.33-1-.5-1.91-.5-1.33,0-2.16.58-2.16,1.83,0,1.16.58,1.66,1.91,2.08.91.33,1.5.58,1.5,1.41,0,.75-.42,1.16-1.41,1.16-.75,0-1.16-.17-1.83-.58l-.5.67M109.33,68.11v-11.81c0-3.82-2.08-6.65-6.07-6.65-1.58,0-3.16.67-4.41,1.91v-6.57h-4.57v23.11h4.57v-11.14c0-2.41,1.5-3.24,2.91-3.24s2.99.83,2.99,3.24v11.14h4.57,0ZM90.04,68.11v-3.82h-1.66c-1.08,0-1.58-.58-1.58-1.66v-8.73h3.24v-3.49h-3.24v-5.4h-4.57v5.4h-1.91v3.49h1.91v9.06c0,2.58,1.58,5.24,5.32,5.24h2.49v-.08ZM54.79,68.11v-11.64c0-2-.42-3.74-1.83-5.15-1-1-2.49-1.58-4.32-1.58-1.66,0-3.33.67-4.57,1.91v-1.75h-4.41v18.21h4.57v-10.97c0-2.49,1.58-3.33,3.08-3.33,1.41,0,2.99.83,2.99,3.33v11.06h4.49v-.08ZM35.84,60.46v-2c0-4.99-2.83-8.73-7.9-8.73-4.74,0-7.98,3.33-7.98,9.31,0,7.4,4.16,9.31,8.4,9.31,3.33,0,5.07-1,6.9-2.91l-2.74-2.66c-1.16,1.16-2.16,1.75-4.16,1.75-2.58,0-3.99-1.75-3.99-4.07h11.47ZM31.02,55.39c.25.67.42,1.16.42,2h-6.98c0-.83.17-1.33.42-2,.5-1.08,1.5-1.91,3.08-1.91,1.5,0,2.58.83,3.08,1.91M9.73,68.36c4.32,0,7.73-1.91,7.73-5.99,0-3.08-1.83-4.99-5.4-5.32l-2.83-.25c-1.58-.17-1.91-.91-1.91-1.58,0-.91.75-1.75,2.58-1.75,1.58,0,3.16.25,4.24,1.25l2.83-2.83c-1.75-1.66-4.16-2.16-6.98-2.16-3.74,0-7.07,2-7.07,5.82,0,3.33,2,4.82,5.32,5.15l2.91.25c1.41.17,1.91.75,1.91,1.66,0,1.33-1.66,1.91-3.24,1.91-1.41,0-3.33-.25-4.82-1.75l-2.99,2.91c2.33,2.33,4.91,2.66,7.73,2.66M128.2,60.46v-2c0-4.99-2.83-8.73-7.9-8.73-4.74,0-7.98,3.33-7.98,9.31,0,7.4,4.16,9.31,8.4,9.31,3.33,0,5.07-1,6.9-2.91l-2.74-2.66c-1.16,1.16-2.16,1.75-4.16,1.75-2.58,0-3.99-1.75-3.99-4.07h11.47ZM123.3,55.39c.25.67.42,1.16.42,2h-6.9c0-.83.17-1.33.42-2,.5-1.08,1.5-1.91,3.08-1.91,1.5,0,2.58.83,2.99,1.91M144.75,51.4c-1.25-1.25-2.49-1.75-4.32-1.75-2,0-3.74.91-4.57,2v-1.75h-4.41v18.21h4.57v-10.97c0-2.33,1.5-3.33,2.91-3.33,1.08,0,1.75.42,2.41,1.08,0,0,3.41-3.49,3.41-3.49ZM173.27,68.11v-11.64c0-2-.5-3.74-2-5.15-1-1-2.66-1.58-4.49-1.58-2.24,0-3.91.67-5.49,2.33-1.16-1.58-2.83-2.33-4.82-2.33-1.66,0-3.33.67-4.57,1.91v-1.75h-4.41v18.21h4.57v-10.97c0-2.49,1.58-3.33,3.08-3.33,1.41,0,2.99.83,2.99,3.33v11.06h4.57v-11.22c0-2.41,1.66-3.24,3.08-3.24s2.99.83,2.99,3.33v11.06s4.49,0,4.49,0ZM176.51,50.24c1.91,0,3.49-1.58,3.49-3.49s-1.58-3.49-3.49-3.49-3.49,1.58-3.49,3.49,1.58,3.49,3.49,3.49M176.51,44c1.5,0,2.66,1.16,2.66,2.74s-1.16,2.74-2.66,2.74-2.66-1.16-2.66-2.74,1.16-2.74,2.66-2.74M178.09,48.57l-.75-1.58c.33-.17.67-.5.67-1,0-.58-.5-1.16-1.25-1.16h-1.5v3.74h.83v-1.41h.42l.67,1.41h.91,0ZM176.59,45.58c.33,0,.5.25.5.5s-.17.5-.5.5h-.58v-1h.58"/>
  <path d="M68.26,49.57c-5.49,0-9.98,4.49-9.98,9.98,0,2.66,1.08,5.15,2.74,6.9v-.17c.08-.67.57-2.78,2.15-5.53.42-.75.64-1.15.73-1.82.17-.5.03-1.3-.14-2.05-.17-.42-.41-.58-.65-.91.75-.17,1.66,1.16,1.75,1.25l.58.58s.42.42.42-.75c.08-1.08.08-2.74,1.91-5.57-.17,1.16.25,2.91,1.25,4.49.33.5.67.91,1.08,1.33,2.33,2.91,5.32,5.15,5.74,8.15,0,.25.08.5.08.67.91-1,1.58-2.24,2-3.57.33-.91.42-1.91.42-2.99-.08-5.49-4.57-9.98-10.06-9.98"/>
  <path class="st2" d="M71.6,63.46c-2.99-2.91-2.99-6.24-2.99-6.24-.5.67-1.13,3.27-1.13,3.27-1.08,4.82-2.23-2.61-2.23-.7.08,1.41-.09,2.1-.75,3.59-1.83,2.58-1.19,4.45-1.02,4.95,1.41.75,3.05,1.36,4.8,1.36,2.08,0,3.99-.83,5.57-1.83.67-1.08-.33-2.49-2.24-4.41"/>
  <path class="st1" d="M70.1,57.3c-.33-.42-.75-.83-1.08-1.33-1-1.58-1.41-3.24-1.25-4.49-1.83,2.83-1.91,4.41-1.91,5.57-.08,1.16-.42.75-.42.75l-.58-.58c-.08-.08-1-1.41-1.75-1.25.25.33.42.67.58,1.16.25.67.25,1.41.08,1.91-.08.58-.33,1.16-.83,1.91-1.58,2.74-1.91,4.66-1.91,5.32v.17c.75.75,1.58,1.41,2.49,1.91-.17-.42-.75-2.41,1.08-4.99.67-1.5.75-2.16.67-3.57-.08-1.83,1.08,5.57,2.24.67,0,0,.58-2.58,1.08-3.24,0,0,0,3.24,2.91,6.15,1.91,1.91,2.91,3.49,2.33,4.49.75-.5,1.49-1.08,2.07-1.75,0-.13.14-1.58-1.16-3.45s-3.54-3.93-4.65-5.36"/>
</svg>