<?xml version="1.0" encoding="UTF-8"?>
<svg id="_Шар_1" data-name="Шар_1" xmlns="http://www.w3.org/2000/svg" version="1.1" viewBox="0 0 182 124">
  <!-- Generator: Adobe Illustrator 29.0.0, SVG Export Plug-In . SVG Version: 2.1.0 Build 186)  -->
  <defs>
    <style>
      .st0 {
        fill: #369e99;
      }
    </style>
  </defs>
  <polygon class="st0" points="101.77 67.03 110.62 67.03 110.62 45.9 96.59 45.9 93.13 58.19 89.88 45.9 75.64 45.9 75.64 67.03 84.35 67.03 84.35 52.53 88.38 67.01 97.82 67.03 101.91 52.39 101.77 67.03"/>
  <polygon class="st0" points="41.22 59.16 46.06 59.16 46.06 67.03 56.15 67.03 56.15 45.9 46.06 45.9 46.06 53.08 41.22 53.08 41.22 45.9 31.13 45.9 31.13 67.03 41.22 67.03 41.22 59.16"/>
  <path class="st0" d="M137.77,66.45c1.65-.22,3.28-.58,4.93-.81v-10.49h-13.69v4h3.59v2.35c-1.77.72-4.86,1.08-5.97-.87-.94-1.64-.99-6.53.11-8.09,1.15-1.64,4.69-2.08,5.76-.24.1.17.09.49.11.51h9.61s-.05-1.17-.11-1.41c-1.35-6.26-13.06-5.93-17.8-4.87-6.54,1.47-11.18,6.76-8.54,13.64,3.17,8.24,14.95,7.22,22,6.29Z"/>
  <path class="st0" d="M167.86,61.5h-10.37v-2.35h9.41s-.01-5.52-.01-5.52h-9.4v-2.21h10.37v-5.52h-20.6v21.12h20.6v-5.52Z"/>
  <path class="st0" d="M2.09,60.12c-.52,6.87,9.52,7.2,14.31,6.9,4.09-.26,10.77-2.34,10.3-7.52-.49-5.47-9-5.36-12.86-6.63-4.04-1.33.14-3.81,2.15-2.14.59.49.57,1.33.62,1.38h9.1s-.12-1.28-.17-1.53c-.56-2.43-2.97-3.54-5.19-4.07-4.91-1.17-18.77-1.27-17.97,6.49.49,4.76,8.57,5.16,12.14,6.1.8.21,1.89.32,2.25,1.21,1.02,2.57-5.56,2.93-4.85-.2H2.09Z"/>
  <rect class="st0" x="60.71" y="45.9" width="10.37" height="21.12"/>
  <path class="st0" d="M79.46,80c.33-1.61.69-1.73,2.13-1.24.11-.54.33-1.64.33-1.64,0,0-2.08-.62-3.22-.11-.8.36-1.11,1.28-1.46,2.99h-44.38l-.99,1.66h45.02l-1.24,6.21h2.21l1.27-6.21h1.43l.34-1.66h-1.44Z"/>
  <path class="st0" d="M126.61,81.65h1.45l.32-1.65h-1.42c.15-.76.55-2.76.55-2.76l-2.55,1.53-.24,1.23h-2.78c.15-.76.55-2.76.55-2.76l-2.55,1.53-.24,1.23h-1.03l-.34,1.65h1.01c0,.08-.27,1.38-.55,2.74-.41,1.99-.43,2.51-.16,2.96.41.62,1.5.85,3.09.63l.35-1.65s-.96.22-1.22-.07c-.2-.2-.05-.72.01-1.05.28-1.36.72-3.57.72-3.57h2.78c0,.08-.27,1.38-.55,2.74-.41,1.99-.43,2.51-.16,2.96.41.62,1.5.85,3.09.63l.35-1.65s-.96.22-1.22-.07c-.2-.2-.05-.72.01-1.05.28-1.36.72-3.57.72-3.57Z"/>
  <path class="st0" d="M103.59,80.53l.7-3.42h-2.24l-2.21,10.77h2.07s.17-.75.21-1.03c2.25,2.66,5.55.78,6.25-2.26.83-3.6-1.17-6.11-4.78-4.06ZM103.58,86.27c-1.62-.93-.61-4.51.92-4.86.26-.06.51-.05.77,0,2.42.49.66,6.2-1.68,4.86Z"/>
  <path class="st0" d="M84.18,79.9c-1.77.27-3.15,2.09-3.38,3.8-.74,5.4,6.39,5.76,7.91,1.55,1.26-3.48-.92-5.9-4.53-5.35ZM85.08,86.32c-3.16.65-2.36-4.35-.35-4.77,3.35-.7,2.18,4.39.35,4.77Z"/>
  <path class="st0" d="M113.45,79.86c-2.37.15-3.69,2.1-3.87,4.06-.2,2.2,1.05,4.42,4.29,4.09,2.01-.2,3.01-2.29,3.01-2.29l-2.03-.23s-.4.65-.77.83c-1.31.63-2.51-.24-2.49-1.62h5.46c.54-2.78-.43-5.04-3.6-4.84ZM111.87,83.32c.24-2.45,3.36-2.75,3.32,0h-3.32Z"/>
  <path class="st0" d="M164.3,79.86c-2.37.15-3.69,2.1-3.87,4.06-.2,2.2,1.05,4.42,4.29,4.09,2.01-.2,3.01-2.29,3.01-2.29l-2.03-.23s-.4.65-.77.83c-1.31.63-2.51-.24-2.49-1.62h5.46c.54-2.78-.43-5.04-3.6-4.84ZM162.71,83.32c.24-2.45,3.36-2.75,3.32,0h-3.32Z"/>
  <path class="st0" d="M132.06,79.86c-2.37.15-3.69,2.1-3.87,4.06-.2,2.2,1.05,4.42,4.29,4.09,2.01-.2,3.01-2.29,3.01-2.29l-2.03-.23s-.4.65-.77.83c-1.31.63-2.51-.24-2.49-1.62h5.46c.54-2.78-.43-5.04-3.6-4.84ZM130.47,83.32c.24-2.45,3.36-2.75,3.32,0h-3.32Z"/>
  <path class="st0" d="M159.12,80c.13-.71.19-1.27.58-1.45.62-.27,1.49.15,1.49.15l.56-1.54s-2.2-.76-3.45-.13c-1.07.54-1.42,2.97-1.42,2.97h-1.17l-.36,1.66h1.21l-1.27,6.21h2.22l1.26-6.21h1.44s.18-.87.33-1.67h-1.42Z"/>
  <polygon class="st0" points="148.76 77.1 146.56 87.87 148.76 87.87 150.97 77.1 148.76 77.1"/>
  <path class="st0" d="M93.22,81.14l.23-1.14h-2.24l-1.6,7.87h2.24s.39-1.89.77-3.56c.26-1.14.89-2.13,1.59-2.41.47-.19,1.38-.13,1.38-.13l.99-1.65s-.48-.21-.69-.24c-1.23-.15-1.91.36-2.66,1.26Z"/>
  <path class="st0" d="M139.87,81.14l.23-1.14h-2.24l-1.6,7.87h2.24s.39-1.89.77-3.56c.26-1.14.89-2.13,1.59-2.41.47-.19,1.38-.13,1.38-.13l.99-1.65s-.48-.21-.69-.24c-1.23-.15-1.91.36-2.66,1.26Z"/>
  <polygon class="st0" points="150.79 87.85 152.97 87.87 154.6 80 152.39 80 150.79 87.85"/>
  <polygon class="st0" points="23.64 81.66 27.89 81.66 28.88 80 24.63 80 23.64 81.66"/>
  <polygon class="st0" points="16.39 81.66 20.04 81.66 21.04 80 17.38 80 16.39 81.66"/>
  <polygon class="st0" points="10.53 81.66 13.54 81.66 14.53 80 11.52 80 10.53 81.66"/>
  <polygon class="st0" points="5.64 81.66 8.13 81.66 9.12 80 6.64 80 5.64 81.66"/>
  <polygon class="st0" points="2 81.66 3.92 81.66 4.91 80 2.99 80 2 81.66"/>
  <polygon class="st0" points="152.58 79.04 154.79 79.04 155.18 77.1 152.98 77.1 152.58 79.04"/>
  <path class="st0" d="M175.59,35.88c-2.43,0-4.41,1.98-4.41,4.41s1.98,4.41,4.41,4.41,4.41-1.98,4.41-4.41-1.98-4.41-4.41-4.41ZM175.59,44.12c-2.11,0-3.83-1.72-3.83-3.83s1.72-3.83,3.83-3.83,3.83,1.72,3.83,3.83-1.72,3.83-3.83,3.83Z"/>
  <path class="st0" d="M177.26,40.16c.19-.22.29-.5.29-.82,0-.39-.13-.7-.4-.92-.27-.22-.65-.33-1.15-.33h-2.07v4.4h.6v-1.83h1.37l1.14,1.83h.69l-1.25-1.9c.33-.06.6-.2.79-.42ZM174.52,40.18v-1.62h1.41c.33,0,.58.07.75.2.17.13.26.33.26.59s-.09.47-.26.62c-.17.15-.42.22-.73.22h-1.44Z"/>
</svg>