<?xml version="1.0" encoding="UTF-8"?>
<svg id="_Шар_1" data-name="Шар_1" xmlns="http://www.w3.org/2000/svg" version="1.1" viewBox="0 0 182 124">
  <!-- Generator: Adobe Illustrator 30.5.1, SVG Export Plug-In . SVG Version: 2.1.4 Build 3)  -->
  <defs>
    <style>
      .st0, .st1 {
        fill: #58595b;
      }

      .st2 {
        fill: #f47920;
      }

      .st2, .st3, .st1 {
        fill-rule: evenodd;
      }
    </style>
  </defs>
  <path class="st3" d="M7.64,29.14l.04,2.31,18.13,22.64-13.14,15.11,159.02.04,2.67-8.75c-1.29.63-1.92,3.1-4.98,4.16-2.51.86-5.49.78-9.06.78H19.34l11.89-13.97-15.81-19.81.08-.04h14.32c2.04,0,5.02,0,6.63.35,2.82.63,2.35,1.49,3.92,2.31l-.04-5.22-32.68.08Z"/>
  <path class="st1" d="M67.99,47.7c0-5.41,2.35-12.56,8.91-12.56,3.26,0,5.38,3.14,5.61,6.12.55-.12.67-.24,1.06-.31-.08-1.1-.24-1.53-.31-2.43-.12-1.18-.24-2.39-.24-3.57-2.24-1.06-4.63-1.57-7.1-1.57-7.93,0-11.03,7.77-11.03,15.93,0,6.55,4,13.07,10.52,13.07h.86c1.37,0,6.67-1.53,6.67-1.88,0-1.18-.27-2.31-.24-3.49,0-1.57-.51-5.26,1.96-5.26v-1.49c-.82.08-2.31.39-3.3.31l-4.63-.27v1.45c2.75.24,3.37.12,3.37,3.18v1.8c0,2.39-.82,3.81-3.3,3.81h-1.69c-4.24,0-7.1-6.24-7.1-10.95v-1.88h-.04ZM86.63,60.33v1.49c.98-.12,1.96-.2,2.98-.16l3.49.12v-1.49c-2.28,0-2.55-1.69-2.55-3.81l-.04-3.81.12-13.18c.35.39,3.49,9.81,4,11.18.98,2.79,2.04,5.61,2.98,8.44.2.55.55,1.53.78,2.16.16.35.2.27.43.27l7.81-22.29c0,3.92-.08,7.93,0,11.81.04,1.8.12,3.85.12,5.81,0,2.2-.39,3.34-2.55,3.37v1.49c.94-.24,2-.12,2.98-.12l4.79.12v-1.49h-.43c-2.2,0-2.2-1.88-2.24-4-.04-1.92-.12-4.12-.12-6.2,0-4.12-.12-8.2-.12-12.44v-.51c0-1.49.82-2.12,2.31-2.12h.43v-1.29l-5.02.04-7.49,21.85-7.69-21.78h-.16c-1.77.16-3.14,0-4.9-.16q.2,1.14.27,1.49c.31-.04,1.02-.39,1.88.39.82.71.71,1.84.71,3.3.04,5.22-.35,10.2-.43,15.69-.08,3.57.39,5.81-2.35,5.81ZM119.31,50.64h6.59c.71,2.67,1.8,5.89,1.8,8.63,0,.67-.67,1.06-1.37,1.06h-.55v1.49l3.3-.12,3.92.16v-1.49c-2.71-.24-2.9-3.22-3.45-5.61-1.18-4.87-2.55-9.69-3.57-14.6-.24-1.1-1.41-6.47-1.77-7.18-.9.47-1.33.71-1.69.94-.16.35-.24.71-.51,1.73-.35,1.29-.67,2.47-1.02,3.85-.67,2.51-1.45,5.02-2.12,7.45-.71,2.51-1.22,5.02-2,7.49-.67,2.08-1.26,5.96-3.88,5.96v1.49l2.67-.12,3.73.12v-1.37c-.98,0-1.92-.35-1.92-1.37-.08-2.94,1.14-5.77,1.84-8.51ZM122.8,37.85l2.51,10.67h-5.41l2.9-10.67Z"/>
  <path class="st2" d="M44.96,39.46c0-2.31,1.53-4.63,3.81-4.63h.2c2.04,0,3.45,2.75,3.61,4.63l1.06-.24-.67-5.14c-.59-.08-1.49-.63-2.71-.75-2.63-.27-4.39.24-6.12,2.55-.94,1.26-1.41,2.9-1.41,5.02,0,2.94.98,4.28,2.47,5.77,1.37,1.37,2.71,2.75,4.08,4.04,1.37,1.33,2.35,3.26,2.04,5.85-.24,1.88-1.96,4.12-4,4.12h-.43c-2.31,0-3.85-3.69-4.04-5.89l-1.18.2.63,5.69c.9.67,2.94,1.49,4.59,1.49,4.04,0,6.91-3.26,6.91-7.18v-1.26c0-7.14-8.83-8.32-8.83-14.28M60.89,44.09c-.12-.27-.2-.31-.35-.55-.47.27-1.45.98-1.57,1.06-.51.31-1.65,1.1-2.31,1.18v1.18c1.88,0,1.69,1.84,1.69,3.69,0,1.73.12,3.41.12,5.26v1.69c0,1.69-.08,2.75-1.8,2.75h-.31v1.49c.94-.04,2.35-.16,3.22-.12l3.06.16v-1.41h-.43c-1.1,0-1.49-1.41-1.49-2.51,0-3.69-.39-7.49-.04-11.06l.24-2.79ZM57.9,37.14c-.12.86.08,2,1.29,2.12.98.08,1.49-.75,1.61-1.69.08-.78-.08-2.2-1.18-2.2-1.06-.04-1.57.75-1.73,1.77Z"/>
  <path class="st3" d="M146.73,47.54c0-2.47.04-4.9.08-7.38,0-2.28-.43-5.02,2.2-5.02h.43v-1.37c-2.71.12-4.36.12-7.73-.12l-.08,1.41c.63.24,2.35-.35,2.47,1.88.16,1.14.2,2.98.2,4.2l.04,13.14c0,3.06.51,6.04-2.55,6.04v1.49c4.75-.39,9.46-.12,13.89.04l1.26-5.92-1.06-.31c-.08.98-1.02,2.79-1.57,3.41-.86.98-2.08,1.14-3.85,1.14h-1.37c-2.9,0-2.35-2.35-2.35-5.18v-7.45M133.63,54.02h6.79v-2.86h-6.79v2.86ZM158.11,46.01v.94h.31c1.06,0,1.49,1.22,1.49,2.31v9.38c0,1.41-.78,1.69-2,1.69,0,.51-.04.94,0,1.49,2.31-.12,3.61-.04,6.24-.04v-1.37l-.86-.12c-1.06,0-1.06-1.41-1.06-2.51l-.04-10.99.24-2.94-.51-.31c-.55.35-1.18.86-1.84,1.29-.27.24-1.61.94-1.96,1.18ZM159.49,37.65c0,.98.51,1.61,1.49,1.57,1.22,0,1.26-1.02,1.33-2.08,0-1.02-.51-1.8-1.41-1.8-1.26,0-1.41,1.45-1.41,2.31Z"/>
  <g>
    <path class="st0" d="M27.58,74.73c.59.47.86,1.14.86,1.96s-.27,1.49-.86,1.96-1.33.71-2.35.71h-1.88v2.31h-1.1v-7.69h2.98c1.02.04,1.8.27,2.35.75ZM26.79,77.95c.35-.31.55-.71.55-1.29,0-.55-.2-.98-.55-1.29s-.9-.43-1.61-.43h-1.84v3.45h1.84c.71.04,1.26-.12,1.61-.43Z"/>
    <path class="st0" d="M31.54,81.24c-.63-.35-1.1-.82-1.45-1.41-.35-.59-.55-1.26-.55-2s.2-1.41.55-2,.82-1.06,1.45-1.41c.63-.35,1.33-.51,2.08-.51.78,0,1.45.16,2.08.51.63.35,1.1.82,1.45,1.41.35.59.51,1.26.51,2s-.16,1.41-.51,2-.82,1.06-1.45,1.41c-.63.35-1.33.51-2.08.51s-1.45-.16-2.08-.51ZM35.15,80.42c.43-.27.78-.63,1.06-1.06.27-.43.39-.94.39-1.49s-.12-1.06-.39-1.49-.63-.78-1.06-1.06-.94-.39-1.53-.39c-.55,0-1.06.12-1.53.39-.47.27-.82.63-1.06,1.06s-.39.94-.39,1.49.12,1.06.39,1.49.63.78,1.06,1.06c.47.27.98.39,1.53.39.59,0,1.1-.16,1.53-.39Z"/>
    <path class="st0" d="M39.39,74.03h1.1v6.71h4.16v.94h-5.26v-7.65Z"/>
    <path class="st0" d="M45.9,74.03h1.1v7.65h-1.1v-7.65Z"/>
    <path class="st0" d="M49.86,81.52c-.55-.2-.94-.39-1.26-.71l.39-.86c.27.27.67.47,1.14.63.47.16.94.24,1.41.24.63,0,1.1-.12,1.41-.31s.47-.51.47-.86c0-.27-.08-.47-.27-.63s-.39-.27-.63-.39c-.24-.08-.63-.2-1.06-.31-.59-.16-1.06-.27-1.41-.43-.35-.16-.67-.35-.9-.63-.24-.27-.39-.67-.39-1.18,0-.39.12-.78.31-1.1s.55-.59.98-.78c.43-.2.98-.31,1.65-.31.47,0,.9.04,1.33.16s.82.27,1.14.51l-.35.86c-.31-.2-.67-.35-1.02-.47-.35-.12-.71-.16-1.06-.16-.63,0-1.1.12-1.41.35-.31.24-.47.51-.47.86,0,.27.08.47.27.63s.39.27.67.39c.27.08.63.2,1.06.27.59.16,1.06.27,1.37.43s.67.35.9.63.39.67.39,1.14c0,.39-.12.78-.31,1.1-.24.31-.55.59-.98.78s-.98.27-1.65.27c-.63.12-1.22.04-1.73-.12Z"/>
    <path class="st0" d="M62.69,74.03v7.65h-1.1v-3.41h-4.39v3.41h-1.1v-7.69h1.1v3.3h4.39v-3.3h1.1v.04Z"/>
    <path class="st0" d="M75.05,81.68v-5.61l-2.79,4.67h-.51l-2.79-4.63v5.57h-1.06v-7.69h.9l3.22,5.38,3.14-5.38h.9v7.69h-1.02Z"/>
    <path class="st0" d="M83.29,79.75h-4.08l-.86,1.92h-1.14l3.49-7.69h1.1l3.49,7.69h-1.14l-.86-1.92ZM82.94,78.89l-1.65-3.77-1.65,3.77h3.3Z"/>
    <path class="st0" d="M93.02,74.03v7.65h-.9l-4.59-5.73v5.73h-1.1v-7.69h.9l4.59,5.73v-5.73h1.1v.04Z"/>
    <path class="st0" d="M96.12,80.89c-.59-.59-.86-1.41-.86-2.51v-4.36h1.1v4.32c0,1.65.71,2.47,2.16,2.47.71,0,1.26-.2,1.61-.59.39-.39.55-1.02.55-1.84v-4.32h1.06v4.36c0,1.1-.27,1.96-.86,2.51-.59.59-1.37.86-2.39.86s-1.77-.31-2.35-.9Z"/>
    <path class="st0" d="M105.11,74.97v2.67h3.85v.94h-3.85v3.1h-1.1v-7.69h5.41v.94h-4.32v.04Z"/>
    <path class="st0" d="M115.5,79.75h-4.08l-.86,1.92h-1.1l3.49-7.69h1.1l3.49,7.69h-1.14l-.9-1.92ZM115.11,78.89l-1.65-3.77-1.65,3.77h3.3Z"/>
    <path class="st0" d="M119.9,81.24c-.63-.35-1.1-.82-1.45-1.41-.35-.59-.51-1.26-.51-2s.16-1.41.51-2,.82-1.06,1.45-1.41c.63-.35,1.33-.51,2.08-.51.59,0,1.14.12,1.65.31.51.2.9.51,1.26.9l-.71.71c-.59-.59-1.29-.9-2.16-.9-.59,0-1.1.12-1.53.39-.47.27-.82.63-1.1,1.06-.27.43-.39.94-.39,1.49s.12,1.06.39,1.49.63.78,1.1,1.06c.47.27.98.39,1.53.39.86,0,1.57-.31,2.16-.9l.71.71c-.35.39-.78.71-1.29.9s-1.06.31-1.65.31c-.75-.08-1.41-.24-2.04-.59Z"/>
    <path class="st0" d="M127.9,74.97h-2.63v-.94h6.36v.94h-2.63v6.71h-1.1v-6.71Z"/>
    <path class="st0" d="M133.47,80.89c-.59-.59-.86-1.41-.86-2.51v-4.36h1.1v4.32c0,1.65.71,2.47,2.16,2.47.71,0,1.26-.2,1.61-.59s.55-1.02.55-1.84v-4.32h1.06v4.36c0,1.1-.27,1.96-.86,2.51-.59.59-1.37.86-2.39.86-1.02-.04-1.8-.31-2.35-.9Z"/>
    <path class="st0" d="M146.46,81.68l-1.65-2.35c-.2,0-.35.04-.47.04h-1.92v2.35h-1.1v-7.69h2.98c.98,0,1.77.24,2.35.71s.86,1.14.86,1.96c0,.59-.16,1.1-.43,1.53-.27.43-.71.71-1.26.9l1.8,2.59h-1.18v-.04ZM145.87,77.99c.35-.31.55-.75.55-1.29s-.2-.98-.55-1.29-.9-.43-1.61-.43h-1.84v3.45h1.88c.71,0,1.22-.16,1.57-.43Z"/>
    <path class="st0" d="M154.89,80.73v.94h-5.57v-7.69h5.41v.94h-4.32v2.35h3.85v.94h-3.85v2.47h4.47v.04Z"/>
    <path class="st0" d="M161.8,81.68l-1.65-2.35c-.2,0-.35.04-.47.04h-1.88v2.35h-1.1v-7.69h2.98c.98,0,1.77.24,2.35.71s.86,1.14.86,1.96c0,.59-.16,1.1-.43,1.53-.27.43-.71.71-1.26.9l1.8,2.59h-1.22v-.04ZM161.21,77.99c.35-.31.55-.75.55-1.29s-.2-.98-.55-1.29-.9-.43-1.61-.43h-1.88v3.45h1.88c.71,0,1.22-.16,1.61-.43Z"/>
    <path class="st0" d="M18.71,94.43c-.63-.35-1.1-.82-1.45-1.41s-.55-1.26-.55-2,.2-1.41.55-2,.82-1.06,1.45-1.41c.63-.35,1.33-.51,2.08-.51.78,0,1.45.16,2.08.51.63.35,1.1.82,1.45,1.41s.51,1.26.51,2-.16,1.41-.51,2c-.35.59-.82,1.06-1.45,1.41-.63.35-1.33.51-2.08.51s-1.45-.2-2.08-.51ZM22.36,93.56c.43-.27.78-.63,1.06-1.06.27-.43.39-.94.39-1.49s-.12-1.06-.39-1.49-.63-.78-1.06-1.06c-.43-.27-.94-.39-1.53-.39-.55,0-1.06.12-1.53.39s-.82.63-1.06,1.06-.39.94-.39,1.49.12,1.06.39,1.49.63.78,1.06,1.06c.47.27.98.39,1.53.39s1.06-.12,1.53-.39Z"/>
    <path class="st0" d="M27.65,88.11v2.67h3.85v.94h-3.85v3.1h-1.1v-7.65h5.41v.94h-4.32Z"/>
    <path class="st0" d="M36.48,87.17h1.1v7.69h-1.1v-7.69Z"/>
    <path class="st0" d="M46.49,87.17v7.69h-.9l-4.63-5.73v5.73h-1.1v-7.69h.9l4.59,5.73v-5.73h1.14Z"/>
    <path class="st0" d="M49.35,94.66c-.55-.2-.94-.39-1.26-.71l.39-.86c.27.27.67.47,1.14.63.47.16.94.24,1.41.24.63,0,1.1-.12,1.41-.31s.47-.51.47-.86c0-.27-.08-.47-.27-.63s-.39-.27-.63-.39c-.24-.08-.63-.2-1.06-.31-.59-.16-1.06-.27-1.41-.43-.35-.16-.67-.35-.9-.63-.24-.27-.39-.67-.39-1.18,0-.39.12-.78.31-1.1s.55-.59.98-.78.98-.31,1.65-.31c.47,0,.9.04,1.33.16s.82.27,1.14.51l-.35.86c-.31-.2-.67-.35-1.02-.47-.35-.12-.71-.16-1.06-.16-.63,0-1.1.12-1.41.35-.31.24-.47.51-.47.86,0,.27.08.47.27.63s.39.27.67.39c.27.08.63.2,1.06.27.59.16,1.06.27,1.37.43s.67.35.9.63.39.67.39,1.14c0,.39-.12.78-.31,1.1-.24.31-.55.59-.98.78s-.98.27-1.65.27c-.63.16-1.22.04-1.73-.12Z"/>
    <path class="st0" d="M57,88.11h-2.63v-.94h6.36v.94h-2.63v6.71h-1.1v-6.71Z"/>
    <path class="st0" d="M66.42,92.94h-4.08l-.86,1.92h-1.14l3.49-7.69h1.1l3.49,7.69h-1.14l-.86-1.92ZM66.03,92.03l-1.65-3.77-1.65,3.77h3.3Z"/>
    <path class="st0" d="M69.56,87.17h1.1v6.71h4.16v.94h-5.26v-7.65h0Z"/>
    <path class="st0" d="M76.07,87.17h1.1v6.71h4.16v.94h-5.26v-7.65h0Z"/>
    <path class="st0" d="M87.49,92.94h-4.08l-.86,1.92h-1.14l3.49-7.69h1.1l3.49,7.69h-1.14l-.86-1.92ZM87.1,92.03l-1.65-3.77-1.65,3.77h3.3Z"/>
    <path class="st0" d="M91.77,88.11h-2.63v-.94h6.36v.94h-2.63v6.71h-1.1v-6.71Z"/>
    <path class="st0" d="M96.67,87.17h1.1v7.69h-1.1v-7.69Z"/>
    <path class="st0" d="M101.46,94.43c-.63-.35-1.1-.82-1.45-1.41-.35-.59-.55-1.26-.55-2s.2-1.41.55-2c.35-.59.82-1.06,1.45-1.41.63-.35,1.33-.51,2.08-.51.78,0,1.45.16,2.08.51.63.35,1.1.82,1.45,1.41.35.59.51,1.26.51,2s-.16,1.41-.51,2-.82,1.06-1.45,1.41c-.63.35-1.33.51-2.08.51-.78,0-1.45-.2-2.08-.51ZM105.07,93.56c.43-.27.78-.63,1.06-1.06.27-.43.39-.94.39-1.49s-.12-1.06-.39-1.49-.63-.78-1.06-1.06-.94-.39-1.53-.39c-.55,0-1.06.12-1.53.39-.47.27-.82.63-1.06,1.06-.27.43-.39.94-.39,1.49s.12,1.06.39,1.49.63.78,1.06,1.06c.47.27.98.39,1.53.39.59,0,1.06-.12,1.53-.39Z"/>
    <path class="st0" d="M115.89,87.17v7.69h-.9l-4.59-5.73v5.73h-1.1v-7.69h.9l4.59,5.73v-5.73h1.1Z"/>
    <path class="st0" d="M121.7,94.66c-.55-.2-.94-.39-1.26-.71l.39-.86c.27.27.67.47,1.14.63s.94.24,1.41.24c.63,0,1.1-.12,1.41-.31.31-.2.47-.51.47-.86,0-.27-.08-.47-.27-.63s-.39-.27-.63-.39-.63-.2-1.06-.31c-.59-.16-1.06-.27-1.41-.43-.35-.16-.67-.35-.9-.63-.24-.27-.39-.67-.39-1.18,0-.39.12-.78.31-1.1.24-.31.55-.59.98-.78s.98-.31,1.65-.31c.47,0,.9.04,1.33.16.43.12.82.27,1.14.51l-.35.86c-.31-.2-.67-.35-1.02-.47s-.71-.16-1.06-.16c-.63,0-1.1.12-1.41.35-.31.24-.47.51-.47.86,0,.27.08.47.27.63s.39.27.67.39c.27.08.63.2,1.06.27.59.16,1.06.27,1.37.43s.67.35.9.63.39.67.39,1.14c0,.39-.12.78-.31,1.1s-.55.59-.98.78-.98.27-1.65.27c-.63.16-1.18.04-1.73-.12Z"/>
    <path class="st0" d="M130.73,92.19v2.67h-1.1v-2.67l-3.06-4.98h1.18l2.47,4.04,2.47-4.04h1.1l-3.06,4.98Z"/>
    <path class="st0" d="M135.28,94.66c-.55-.2-.94-.39-1.26-.71l.39-.86c.27.27.67.47,1.14.63s.94.24,1.41.24c.63,0,1.1-.12,1.41-.31.31-.2.47-.51.47-.86,0-.27-.08-.47-.27-.63s-.39-.27-.63-.39-.63-.2-1.06-.31c-.59-.16-1.06-.27-1.41-.43-.35-.16-.67-.35-.9-.63-.24-.27-.39-.67-.39-1.18,0-.39.12-.78.31-1.1s.55-.59.98-.78.98-.31,1.65-.31c.47,0,.9.04,1.33.16s.82.27,1.14.51l-.35.86c-.31-.2-.67-.35-1.02-.47s-.71-.16-1.06-.16c-.63,0-1.1.12-1.41.35-.31.24-.47.51-.47.86,0,.27.08.47.27.63s.39.27.67.39c.27.08.63.2,1.06.27.59.16,1.06.27,1.37.43s.67.35.9.63.39.67.39,1.14c0,.39-.12.78-.31,1.1s-.55.59-.98.78-.98.27-1.65.27c-.63.16-1.18.04-1.73-.12Z"/>
    <path class="st0" d="M142.93,88.11h-2.63v-.94h6.36v.94h-2.63v6.71h-1.1v-6.71Z"/>
    <path class="st0" d="M153.4,93.88v.94h-5.57v-7.65h5.41v.94h-4.32v2.35h3.85v.94h-3.85v2.47h4.47Z"/>
    <path class="st0" d="M162.31,94.86v-5.61l-2.79,4.67h-.51l-2.79-4.63v5.57h-1.06v-7.69h.9l3.22,5.38,3.14-5.38h.9v7.69h-1.02Z"/>
    <path class="st0" d="M166.23,94.66c-.55-.2-.94-.39-1.26-.71l.39-.86c.27.27.67.47,1.14.63s.94.24,1.41.24c.63,0,1.1-.12,1.41-.31.31-.2.47-.51.47-.86,0-.27-.08-.47-.27-.63s-.39-.27-.63-.39-.63-.2-1.06-.31c-.59-.16-1.06-.27-1.41-.43-.35-.16-.67-.35-.9-.63-.24-.27-.39-.67-.39-1.18,0-.39.12-.78.31-1.1s.55-.59.98-.78.98-.31,1.65-.31c.47,0,.9.04,1.33.16s.82.27,1.14.51l-.35.86c-.31-.2-.67-.35-1.02-.47s-.71-.16-1.06-.16c-.63,0-1.1.12-1.41.35-.31.24-.47.51-.47.86,0,.27.08.47.27.63s.39.27.67.39c.27.08.63.2,1.06.27.59.16,1.06.27,1.37.43s.67.35.9.63.39.67.39,1.14c0,.39-.12.78-.31,1.1s-.55.59-.98.78-.98.27-1.65.27c-.63.16-1.22.04-1.73-.12Z"/>
  </g>
</svg>