<?xml version="1.0" encoding="UTF-8"?>
<svg id="_Шар_1" data-name="Шар_1" xmlns="http://www.w3.org/2000/svg" version="1.1" viewBox="0 0 182 124">
  <!-- Generator: Adobe Illustrator 30.5.1, SVG Export Plug-In . SVG Version: 2.1.4 Build 3)  -->
  <defs>
    <style>
      .st0 {
        fill: #de2a1b;
      }
    </style>
  </defs>
  <path d="M118.83,58.1c.23-1.15,1.55-2.15,2.78-2.15h18.87s.26-3.98.26-3.98h-21.85s.03-9.6.03-9.6l28.72.16c1.07,0,1.93.87,1.93,1.94l.07,34.1-28.77-.23c-1.06,0-1.92-.87-1.93-1.93l-.12-18.3ZM140.75,65.02h-11.84s0,3.89,0,3.89h11.84s0-3.89,0-3.89Z"/>
  <path d="M61.17,78.37l-28.7.23-.07-9.71,21.08-.02.04-3.86-18.37.08c-.92,0-2.8-1.19-2.8-2.08l.19-18.62c.01-1.05.87-1.9,1.92-1.91l28.69-.08v9.55s-21.27,0-21.27,0l.05,4.01h19.14c.83,0,2.13,1.44,2.13,2.22l-.13,18.28c0,1.05-.86,1.9-1.91,1.91Z"/>
  <path d="M102.19,68.8l12.89.12.02,9.59-18.9.09c-1.64,0-3.13-1.09-3.12-2.77l.16-30.83c0-1.37,1.11-2.48,2.48-2.49l19.39-.13v9.59s-12.89-.01-12.89-.01l-.03,16.84Z"/>
  <rect x="80.07" y="29.06" width="9.24" height="49.58"/>
  <rect x="53.46" y="55.88" width="36.23" height="9.26" transform="translate(11.04 132.07) rotate(-89.98)"/>
  <rect class="st0" x="66.96" y="29.07" width="9.26" height="9.47"/>
  <g>
    <path d="M33.22,88.06v3.75h-.86v-7.47h.82v1.54h.01c.31-1.09.92-1.64,1.82-1.64.22,0,.46.03.72.1v.82c-.18-.08-.41-.12-.69-.12-1.21,0-1.82,1-1.82,3.02Z"/>
    <path d="M41.24,90.66v.79c-.41.3-1,.45-1.77.45-2.1,0-3.15-1.29-3.15-3.88,0-1.25.24-2.19.73-2.83.49-.64,1.16-.96,2.01-.96,1.76,0,2.64,1.18,2.64,3.54v.47h-4.49c.08,1.91.86,2.87,2.36,2.87.67,0,1.23-.15,1.68-.45ZM37.21,87.51h3.59c0-1.66-.57-2.49-1.71-2.49s-1.77.83-1.87,2.49Z"/>
    <path d="M46.23,84.34v.79h-1.71v6.68h-.86v-6.68h-1.22v-.79h1.22v-1.27c0-.84.15-1.44.44-1.8.29-.36.75-.54,1.38-.54.21,0,.47.03.78.09v.79c-.18-.06-.38-.09-.62-.09-.43,0-.72.12-.88.37s-.23.69-.23,1.32v1.13h1.71Z"/>
    <path d="M48.12,88.06v3.75h-.86v-7.47h.82v1.54h.01c.31-1.09.92-1.64,1.82-1.64.22,0,.46.03.72.1v.82c-.18-.08-.41-.12-.69-.12-1.21,0-1.82,1-1.82,3.02Z"/>
    <path d="M55.99,86.86v4.95h-.79v-1.14h-.01c-.16.36-.41.66-.75.89-.35.23-.77.35-1.27.35-.65,0-1.16-.19-1.52-.56s-.53-.93-.53-1.68.22-1.32.66-1.68c.44-.36,1.13-.54,2.06-.54.13,0,.56.02,1.29.07v-.81c0-.61-.13-1.04-.38-1.3-.25-.26-.67-.39-1.26-.39-.62,0-1.22.14-1.82.41v-.79c.62-.27,1.26-.41,1.93-.41.89,0,1.51.2,1.86.61s.53,1.08.53,2.01ZM55.12,89.07v-.85c-.24-.05-.64-.07-1.19-.07-.7,0-1.2.12-1.49.36-.29.24-.44.61-.44,1.11,0,1.01.47,1.51,1.41,1.51.54,0,.96-.18,1.26-.55.3-.37.45-.87.45-1.5Z"/>
    <path d="M62.15,90.84v.78c-.35.2-.88.29-1.58.29-2.08,0-3.12-1.3-3.12-3.9,0-1.27.26-2.22.79-2.84.53-.63,1.28-.94,2.27-.94.59,0,1.1.08,1.54.25v.79c-.48-.17-.95-.25-1.42-.25-1.51,0-2.27.97-2.27,2.9,0,1.11.21,1.92.61,2.43.41.51,1.01.76,1.8.76.51,0,.97-.09,1.38-.28Z"/>
    <path d="M66.67,84.34v.79h-1.79v4.61c0,.51.08.86.24,1.07s.43.31.81.31c.29,0,.55-.06.76-.19v.78c-.24.14-.56.21-.94.21-.58,0-1.01-.16-1.3-.47-.29-.31-.43-.81-.43-1.51v-4.8h-1.22v-.79h1.22v-1.58l.85-.31v1.89h1.79Z"/>
    <path d="M70.45,91.91c-1.91,0-2.87-1.28-2.87-3.85s.96-3.82,2.87-3.82c.96,0,1.68.31,2.16.92.48.61.72,1.58.72,2.9s-.25,2.25-.76,2.89c-.51.64-1.22.96-2.12.96ZM70.45,91.12c.64,0,1.13-.24,1.47-.72.34-.48.51-1.26.51-2.34s-.16-1.83-.48-2.31c-.32-.48-.82-.72-1.5-.72-1.31,0-1.96,1.01-1.96,3.03s.65,3.06,1.96,3.06Z"/>
    <path d="M75.72,88.06v3.75h-.86v-7.47h.82v1.54h.01c.31-1.09.92-1.64,1.82-1.64.22,0,.46.03.72.1v.82c-.18-.08-.41-.12-.69-.12-1.21,0-1.82,1-1.82,3.02Z"/>
    <path d="M79.38,94.84l.04-.81c.21.08.38.12.51.12.36,0,.65-.12.86-.37s.39-.67.55-1.27l.15-.54-2.61-7.63h.92l2.14,6.43,1.73-6.43h.86l-2.31,8.14c-.23.84-.51,1.46-.82,1.86s-.76.6-1.35.6c-.2,0-.42-.03-.67-.1Z"/>
    <path d="M88.2,91.54v-.83c.46.27.99.41,1.6.41.94,0,1.41-.42,1.41-1.27,0-.34-.1-.63-.31-.86s-.47-.42-.77-.57c-.3-.15-.61-.3-.91-.45-.31-.16-.57-.39-.78-.69s-.31-.68-.31-1.13c0-.57.19-1.04.56-1.38s.92-.52,1.65-.52c.57,0,1.05.08,1.45.25v.82c-.46-.19-.94-.28-1.43-.28-.42,0-.74.1-.97.29-.23.2-.34.45-.34.78s.1.61.31.83c.21.22.47.4.77.54.3.14.61.29.91.45.31.16.57.4.78.72.21.32.31.72.31,1.2,0,.69-.2,1.21-.61,1.55s-.97.51-1.67.51c-.62,0-1.17-.12-1.63-.37Z"/>
    <path d="M96.1,91.91c-1.91,0-2.87-1.28-2.87-3.85s.96-3.82,2.87-3.82c.96,0,1.68.31,2.16.92.48.61.72,1.58.72,2.9s-.25,2.25-.76,2.89c-.51.64-1.22.96-2.12.96ZM96.1,91.12c.64,0,1.13-.24,1.47-.72.34-.48.51-1.26.51-2.34s-.16-1.83-.48-2.31c-.32-.48-.82-.72-1.5-.72-1.31,0-1.96,1.01-1.96,3.03s.65,3.06,1.96,3.06Z"/>
    <path d="M101.39,80.82v10.98h-.85v-10.98h.85Z"/>
    <path d="M103.22,89.04v-4.7h.86v4.36c0,.91.12,1.54.37,1.89.24.35.66.53,1.26.53s1.06-.24,1.38-.72c.31-.48.47-1.16.47-2.04v-4.01h.85v7.47h-.85v-1.29h-.03c-.39.93-1.07,1.39-2.03,1.39-.78,0-1.35-.22-1.72-.67s-.55-1.18-.55-2.2Z"/>
    <path d="M113.38,84.34v.79h-1.79v4.61c0,.51.08.86.24,1.07s.43.31.81.31c.29,0,.55-.06.76-.19v.78c-.24.14-.56.21-.94.21-.58,0-1.01-.16-1.3-.47s-.43-.81-.43-1.51v-4.8h-1.21v-.79h1.21v-1.58l.85-.31v1.89h1.79Z"/>
    <path d="M115.53,81.46c.11.11.16.26.16.45s-.05.33-.16.45-.25.17-.42.17-.31-.06-.42-.17-.15-.26-.15-.45.05-.33.15-.45.24-.17.42-.17.32.06.42.17ZM115.55,84.34v7.47h-.86v-7.47h.86Z"/>
    <path d="M119.97,91.91c-1.91,0-2.87-1.28-2.87-3.85s.96-3.82,2.87-3.82c.96,0,1.68.31,2.16.92.48.61.72,1.58.72,2.9s-.25,2.25-.76,2.89c-.51.64-1.22.96-2.12.96ZM119.97,91.12c.64,0,1.13-.24,1.47-.72.34-.48.51-1.26.51-2.34s-.16-1.83-.48-2.31c-.32-.48-.82-.72-1.5-.72-1.31,0-1.96,1.01-1.96,3.03s.65,3.06,1.96,3.06Z"/>
    <path d="M129.62,86.91v4.89h-.86v-4.44c0-.89-.12-1.5-.37-1.84-.24-.34-.67-.5-1.29-.5s-1.08.23-1.39.69c-.31.46-.47,1.12-.47,1.98v4.11h-.86v-7.47h.86v1.29h.03c.38-.93,1.07-1.39,2.06-1.39.78,0,1.36.21,1.73.63s.56,1.1.56,2.05Z"/>
    <path d="M131.13,91.54v-.83c.46.27.99.41,1.6.41.94,0,1.41-.42,1.41-1.27,0-.34-.1-.63-.31-.86s-.47-.42-.77-.57-.61-.3-.92-.45-.57-.39-.78-.69-.31-.68-.31-1.13c0-.57.19-1.04.56-1.38.37-.35.92-.52,1.65-.52.57,0,1.05.08,1.45.25v.82c-.46-.19-.94-.28-1.43-.28-.42,0-.74.1-.97.29s-.34.45-.34.78.1.61.31.83.47.4.77.54.61.29.92.45c.31.16.57.4.78.72s.31.72.31,1.2c0,.69-.21,1.21-.62,1.55-.41.34-.97.51-1.67.51-.63,0-1.17-.12-1.62-.37Z"/>
  </g>
</svg>