<?xml version="1.0" encoding="UTF-8"?>
<svg id="_Шар_1" data-name="Шар_1" xmlns="http://www.w3.org/2000/svg" version="1.1" viewBox="0 0 182 124">
  <!-- Generator: Adobe Illustrator 30.5.1, SVG Export Plug-In . SVG Version: 2.1.4 Build 3)  -->
  <defs>
    <style>
      .st0 {
        fill: #bf2f38;
      }

      .st1 {
        fill: #bd2e35;
      }
    </style>
  </defs>
  <path d="M121.23,29.73c-.02-.32-.17-.39-.48-.34-.96.17-1.93.27-2.89.45-.92.17-1.78.13-2.58-.44-.5-.35-1.05-.39-1.67-.28-1.84.34-3.69.66-5.54.92-.52.07-.74.27-.94.73-.19.44-.24.96-.81,1.21-1.99.88-3.96,1.83-5.96,2.72-.07.04-.41.19-.95.43-.88.4-2.27,1.03-3.76,1.7-2.66,1.21-5.68,2.58-6.83,3.12-1.62.77-3.37,1.29-4.82,2.36-3.67,2.7-6.38,6.12-7.76,10.49-.58,1.81-.16,3.6.5,5.34,1.02,2.7,2.05,5.39,3.2,8.03,0,0,.04.09.09.23.25.58.86,2.07,1.14,2.75.07.18.12.29.13.33.42,1.06.88,2.11,1.32,3.15.17.41.38.65.91.64,4.08-.03,8.15-.02,12.23,0,.46,0,.67-.13.84-.59.11-.31.57-1.64,1.23-3.53.29-.82.61-1.75.96-2.75,1.94-5.5,4.65-13.09,6.07-16.43.67-1.57,1.69-2.83,3.08-3.8.09-.06.51-.39,1.15-.89.56-.44,1.3-1.03,2.12-1.68,2.92-2.32,6.99-5.58,8.72-6.95.95-.75,1.39-1.71,1.55-2.86.18-1.38-.15-2.72-.25-4.07ZM117.64,35.14c-2.79,2.08-5.5,4.28-8.27,6.39-.72.55-1.45,1.1-2.19,1.64-.09.07-.18.13-.27.2-2.92,2.13-4.5,4.97-5.64,8.26-1.71,4.94-3.51,9.86-5.29,14.78-.33.91-.66,1.83-.99,2.75-.08.22-.16.46-.25.68-.13.37-.32.53-.74.53-1.47-.03-2.94-.01-4.4-.01h0c-1.42,0-2.84,0-4.26.01-.41,0-.62-.12-.79-.53-.1-.22-.2-.45-.29-.67-.4-.91-.79-1.83-1.18-2.75-1.22-2.88-2.4-5.77-3.43-8.72-.55-1.6-.96-3.27-.4-4.94.46-1.39,1.41-2.54,2.18-3.78,1.84-2.96,4.59-4.73,7.67-6.18,3.43-1.62,12.52-5.72,13.61-6.2,1.76-.77,3.53-1.55,5.3-2.31.63-.27,1.1-.62,1.24-1.29.09-.44.33-.58.74-.65,1.3-.21,2.59-.46,3.88-.68.46-.08.91-.05,1.35.19.74.41,1.53.39,2.33.16.25-.07.53-.07.79-.11.32-.04.43.1.45.41.06,1.12-.18,2.08-1.17,2.82Z"/>
  <g>
    <path class="st0" d="M45.3,89.37h3.33c-.05.87.35,1.71,1.05,2.23.71.47,1.56.7,2.41.66.68.02,1.35-.1,1.97-.36.65-.25,1.08-.88,1.07-1.58,0-.89-.8-1.56-2.41-2.01-2.77-.79-4.27-1.25-4.5-1.36-1.6-.77-2.41-1.99-2.41-3.65-.04-1.43.67-2.78,1.86-3.57,1.18-.8,2.58-1.21,4-1.17,1.79,0,3.25.39,4.36,1.16,1.27.89,1.9,2.18,1.9,3.87h-3.33c-.09-1.58-1.12-2.36-3.1-2.36-.55-.01-1.1.12-1.58.39-.49.28-.78.81-.77,1.38,0,.55.33,1.06.85,1.25,1.25.45,2.52.82,3.81,1.12.96.2,1.89.56,2.74,1.05,1.22.73,1.95,2.08,1.9,3.5.05,1.39-.57,2.73-1.66,3.6-1.17.95-2.78,1.42-4.84,1.42-1.88,0-3.43-.45-4.64-1.34-1.34-.98-2.1-2.57-2.01-4.23Z"/>
    <path class="st0" d="M59.53,94.42v-21.38h4.25v11.47l5.36-5.57h5.03l-5.84,5.69,6.49,9.79h-5.14l-4.27-6.91-1.65,1.59v5.33h-4.23Z"/>
    <path class="st0" d="M78.75,83.7h-4.25c.03-1.69.95-3.24,2.42-4.07,1.49-.8,3.16-1.18,4.85-1.11,4.53,0,6.8,1.47,6.8,4.4v8.07c0,1.72.18,2.86.54,3.44h-4.31c-.16-.48-.27-.99-.3-1.5-1.22,1.26-2.95,1.9-5.21,1.9-1.34.07-2.66-.33-3.74-1.14-1.03-.86-1.6-2.15-1.53-3.49,0-1.58.55-2.75,1.65-3.53,1.11-.64,2.34-1.04,3.62-1.17,2.29-.33,3.46-.5,3.49-.5,1.02-.26,1.53-.77,1.53-1.53.07-.69-.25-1.36-.84-1.74-.6-.28-1.26-.4-1.92-.36-1.73-.01-2.66.76-2.8,2.31ZM84.31,88.43v-1.59c-.33.3-1.07.53-2.22.69-.88.1-1.74.29-2.57.57-.78.3-1.29,1.06-1.26,1.9,0,1.33.87,2,2.6,2,2.29,0,3.44-1.19,3.44-3.56Z"/>
    <path class="st0" d="M90.35,94.42v-15.47h3.99v2.07h.06c1.04-1.6,2.83-2.54,4.73-2.49,2.24,0,3.74.86,4.52,2.57.98-1.63,2.76-2.61,4.66-2.57,3.77,0,5.66,1.85,5.66,5.54v10.36h-4.25v-8.77c.06-.91-.07-1.81-.39-2.66-.38-.74-1.12-1.11-2.22-1.11-1.9,0-2.84,1.31-2.84,3.92v8.62h-4.24v-8.68c.05-.88-.04-1.76-.27-2.6-.36-.84-1.13-1.26-2.3-1.26-.64-.01-1.26.22-1.74.64-.76.62-1.14,1.59-1.14,2.9v8.98l-4.23.02Z"/>
    <path class="st0" d="M115.21,86.7c0-2.47.73-4.46,2.19-5.94,1.46-1.49,3.39-2.23,5.81-2.23s4.38.74,5.84,2.23c1.46,1.49,2.19,3.47,2.19,5.94,0,2.45-.73,4.43-2.19,5.91-1.46,1.49-3.4,2.23-5.84,2.23s-4.35-.74-5.81-2.23c-1.46-1.49-2.19-3.46-2.19-5.91ZM119.46,86.7c-.05,1.18.23,2.36.83,3.38.61,1.02,1.74,1.62,2.93,1.56,2.51,0,3.77-1.65,3.77-4.94s-1.26-4.96-3.77-4.99c-2.51.01-3.76,1.68-3.76,4.99h0Z"/>
    <path class="st0" d="M132.45,94.42v-21.38h4.25v21.38h-4.25Z"/>
  </g>
  <path class="st1" d="M116.72,56.26c-.71-4.74-2.66-9.08-5.52-12.66-.82.65-1.56,1.24-2.12,1.68,2.49,3.12,4.23,6.88,4.91,10.98.22,1.29.33,2.62.33,3.97,0,1.94-.23,3.83-.67,5.64-.08.31-.36.53-.68.53h-14.18c-.35,1-.67,1.92-.96,2.75h17.17c.3,0,.57-.19.66-.47.25-.74.47-1.5.65-2.27.47-1.98.72-4.05.72-6.17,0-1.35-.1-2.68-.29-3.97ZM90.33,33.54c-13.39,0-24.47,9.86-26.39,22.72-.2,1.3-.29,2.63-.29,3.97,0,2.12.25,4.19.72,6.17.18.77.4,1.53.65,2.27.09.28.36.47.66.47h15.5c-.28-.67-.89-2.17-1.14-2.75h-12.35c-.32,0-.6-.22-.68-.53-.44-1.81-.67-3.7-.67-5.64,0-1.36.11-2.68.33-3.97,1.89-11.36,11.77-20.02,23.67-20.02,1.83,0,3.61.2,5.32.59,1.5-.67,2.89-1.3,3.76-1.7-2.84-1.03-5.89-1.59-9.09-1.59Z"/>
</svg>