<?xml version="1.0" encoding="UTF-8"?>
<svg id="_Шар_1" data-name="Шар_1" xmlns="http://www.w3.org/2000/svg" version="1.1" viewBox="0 0 182 124">
  <!-- Generator: Adobe Illustrator 29.0.0, SVG Export Plug-In . SVG Version: 2.1.0 Build 186)  -->
  <defs>
    <style>
      .st0 {
        fill: #223a8e;
      }
    </style>
  </defs>
  <path class="st0" d="M43.94,69.93c1.8,4.9,8.69,6.38,12.68,3.24.47-.37,1.68-1.97,1.98-1.97l8,3.85c-2.79,4.36-7.33,7.45-12.51,8.19-14.01,1.98-25.25-11.01-19.3-24.34,7.31-16.38,34.19-11.36,33.64,7.54-.03,1.03-.25,2.61-.64,3.5h-23.85ZM57.61,62.19c-2.08-6.2-11.27-5.96-13.5,0h13.5Z"/>
  <path class="st0" d="M138.97,82.7h-10.08v-3.06c-.82.35-1.39,1.16-2.18,1.69-6.29,4.24-17.63,2.05-18.34-6.65-.62-7.59,4.98-10.79,11.63-11.76,1.86-.27,7.23-.18,8.35-1.37.92-.98.54-2.41-.37-3.23-1.74-1.56-5.39-1.52-7.1.08-.87.82-1.1,1.86-1.64,2.86l-9.93-2.23c1.7-11.22,20-12.98,26.6-5.77,1.44,1.57,3.06,5.08,3.06,7.2v22.23ZM128.89,69.03c-2.45.78-5.1.63-7.6,1.13-4.06.82-3.52,4.95-.03,5.33s7.63-2.77,7.63-6.46Z"/>
  <path class="st0" d="M105.49,82.7h-10.26v-18.45c0-.98-.7-1.96-.93-2.31-1.19-1.79-3.28-2.68-5.39-2.7s-4.17.89-5.46,2.59c-.41.54-1,1.1-1,2.24v18.63h-10.26v-21.69l10.17-10.17c11.07-4.85,22.49-.02,23.13,12.86.31,6.24-.25,12.73,0,19Z"/>
  <polygon class="st0" points="36.56 39.69 36.56 48.87 24.86 48.87 24.86 82.7 13.7 82.7 13.7 48.87 2 48.87 2 39.69 36.56 39.69"/>
  <polygon class="st0" points="150.06 47.8 180 77.58 173.34 84.25 161.71 73 150.19 84.31 143.29 77.58 154.8 66.06 143.29 54.54 150.06 47.8"/>
  <polygon class="st0" points="171.48 47.8 180 56.16 171.63 64.52 163.28 56.13 171.48 47.8"/>
</svg>