<?xml version="1.0" encoding="UTF-8"?>
<svg id="_Шар_1" data-name="Шар_1" xmlns="http://www.w3.org/2000/svg" version="1.1" viewBox="0 0 182 124">
  <!-- Generator: Adobe Illustrator 30.5.1, SVG Export Plug-In . SVG Version: 2.1.4 Build 3)  -->
  <defs>
    <style>
      .st0 {
        fill: #373435;
      }

      .st1 {
        fill: #ed3237;
      }

      .st2 {
        fill: #fff;
      }
    </style>
  </defs>
  <path class="st1" d="M136.09,75.07c-2.84,4.41-7.08,8.32-12.35,11.48H58.26c-5.26-3.16-9.51-7.07-12.35-11.48h90.18Z"/>
  <path class="st1" d="M120.72,88.22c-8.25,4.21-18.55,6.72-29.72,6.72s-21.47-2.5-29.72-6.72h59.44Z"/>
  <path class="st1" d="M140.11,62c0,4-1.07,7.85-3.02,11.39H44.91c-1.96-3.55-3.02-7.39-3.02-11.39,0-18.19,21.99-32.94,49.11-32.94s49.11,14.75,49.11,32.94Z"/>
  <path class="st0" d="M72.68,50.84v18.31h-3.42v-18.31h-7.4v-3.15h18.24v3.15h-7.43Z"/>
  <path class="st0" d="M112.85,50.84v18.31h-3.42v-18.31h-7.4v-3.15h18.24v3.15h-7.43Z"/>
  <path class="st0" d="M90.39,69.91c-3.55,0-6.67-.72-9.26-2.13v-5.41c.9.53,2.05,1.02,3.44,1.46,1.64.51,3.36.77,5.12.77,4.22,0,6.35-1.75,6.35-5.2,0-1.71-.45-2.97-1.33-3.74-.85-.74-2.51-1.59-4.93-2.53l-1.18-.47c-2.74-1.03-4.74-2.35-5.93-3.94-1.19-1.58-1.8-3.76-1.8-6.48,0-3.01,1.02-5.37,3.04-7.03,2.03-1.68,4.91-2.53,8.54-2.53,3.25,0,5.89.49,7.87,1.47v5.31c-2.15-.94-4.76-1.41-7.78-1.41-3.79,0-5.71,1.47-5.71,4.36,0,1.4.49,2.53,1.46,3.35.93.79,2.7,1.67,5.39,2.66l1.28.52c2.8,1.09,4.74,2.46,5.78,4.08,1.04,1.62,1.56,3.72,1.56,6.24,0,3.35-1.08,5.99-3.22,7.85-2.14,1.86-5.08,2.81-8.71,2.81Z"/>
  <path class="st0" d="M58.53,78.04v4.71h-.69v-4.71h-1.58v-.64h3.86v.64h-1.58Z"/>
  <path class="st0" d="M63.29,81.96v.6c-.24.17-.63.26-1.16.26-.68,0-1.18-.17-1.52-.52-.33-.35-.5-.85-.5-1.5,0-.61.16-1.09.47-1.45.31-.36.74-.54,1.29-.54.59,0,1.03.18,1.3.54.28.36.41.83.41,1.43v.21h-2.8c.04.43.16.75.39.96.22.21.56.31,1.01.31s.8-.09,1.1-.28ZM60.79,80.43h2.1c0-.31-.07-.56-.24-.76-.17-.2-.42-.29-.75-.29-.65,0-1.02.35-1.11,1.06Z"/>
  <path class="st0" d="M65.19,80.98v1.78h-.64v-3.9h.6v.63h.02c.2-.46.55-.7,1.04-.7.15,0,.3.02.45.05v.61c-.12-.05-.26-.07-.4-.07-.4,0-.67.13-.83.39-.16.26-.23.66-.23,1.2Z"/>
  <path class="st0" d="M72.59,80.25v2.5h-.64v-2.33c0-.35-.05-.62-.15-.79-.1-.18-.29-.26-.57-.26-.35,0-.59.13-.73.38-.13.25-.2.6-.2,1.04v1.97h-.64v-2.33c0-.34-.05-.6-.15-.78-.1-.18-.29-.28-.57-.28-.35,0-.6.12-.73.36-.13.24-.2.59-.2,1.06v1.97h-.64v-3.9h.6v.57h.02c.25-.42.62-.63,1.13-.63.55,0,.9.26,1.05.77.27-.51.68-.77,1.22-.77.43,0,.74.12.93.36.19.24.28.61.28,1.1Z"/>
  <path class="st0" d="M75.39,82.82c-.61,0-1.06-.17-1.37-.51s-.46-.84-.46-1.5.16-1.14.47-1.49c.32-.35.77-.52,1.36-.52,1.23,0,1.84.67,1.84,2.01,0,.63-.16,1.13-.48,1.48-.32.36-.77.53-1.36.53ZM75.39,82.24c.77,0,1.15-.48,1.15-1.43,0-.5-.09-.86-.27-1.09-.18-.23-.47-.34-.88-.34-.76,0-1.15.48-1.15,1.43,0,.48.1.84.3,1.08.2.24.48.36.84.36Z"/>
  <path class="st2" d="M78.11,82.49v-.68c.14.1.32.19.56.26s.48.11.74.11c.7,0,1.06-.29,1.06-.88,0-.29-.07-.5-.21-.64-.14-.14-.42-.28-.82-.43l-.18-.07c-.41-.16-.71-.35-.89-.56-.18-.21-.27-.52-.27-.91,0-.43.15-.77.46-1.01.3-.24.72-.36,1.26-.36.48,0,.85.07,1.09.22v.66c-.34-.16-.71-.24-1.13-.24-.62,0-.93.24-.93.73,0,.22.07.4.2.54.14.14.4.29.81.45l.2.08c.45.17.75.37.92.6.16.23.25.53.25.9,0,.5-.16.88-.47,1.16-.32.27-.73.41-1.26.41s-.96-.11-1.35-.34Z"/>
  <path class="st2" d="M82.81,77.29c.08.08.12.18.12.3s-.04.22-.12.3c-.08.08-.18.12-.3.12s-.22-.04-.3-.12-.12-.18-.12-.3.04-.22.12-.3c.08-.08.18-.12.3-.12s.22.04.3.12ZM82.83,78.85v3.9h-.64v-3.9h.64Z"/>
  <path class="st2" d="M83.87,82.6v-.63c.32.18.66.27,1.02.27.47,0,.7-.2.7-.6,0-.14-.06-.26-.18-.36-.12-.1-.27-.18-.44-.24-.17-.06-.34-.13-.52-.21-.17-.08-.32-.19-.44-.35-.12-.16-.18-.36-.18-.6,0-.33.12-.6.36-.8s.58-.3,1.02-.3c.34,0,.63.04.87.12v.61c-.25-.1-.54-.15-.87-.15-.46,0-.69.15-.69.46,0,.14.06.26.18.35.12.09.27.17.44.23.17.06.35.13.52.21.17.08.32.21.44.38.12.17.18.39.18.65,0,.39-.13.69-.38.88-.26.19-.6.29-1.03.29-.35,0-.68-.07-.99-.22Z"/>
  <path class="st2" d="M89.18,78.85v.58h-1.08v2.1c0,.25.05.43.14.54s.26.16.5.16c.18,0,.34-.04.46-.11v.57c-.16.08-.35.12-.57.12-.4,0-.69-.09-.88-.28-.19-.19-.28-.47-.28-.85v-2.25h-.77v-.58h.77v-.83l.64-.23v1.06h1.08Z"/>
  <path class="st2" d="M92.98,81.96v.6c-.24.17-.63.26-1.16.26-.68,0-1.18-.17-1.52-.52-.33-.35-.5-.85-.5-1.5,0-.61.16-1.09.47-1.45.31-.36.74-.54,1.29-.54.59,0,1.03.18,1.3.54.28.36.41.83.41,1.43v.21h-2.8c.04.43.16.75.39.96.22.21.56.31,1.01.31s.8-.09,1.1-.28ZM90.49,80.43h2.1c0-.31-.07-.56-.24-.76-.17-.2-.42-.29-.75-.29-.65,0-1.02.35-1.11,1.06Z"/>
  <path class="st2" d="M99.46,80.25v2.5h-.64v-2.33c0-.35-.05-.62-.15-.79-.1-.18-.29-.26-.57-.26-.35,0-.59.13-.73.38-.13.25-.2.6-.2,1.04v1.97h-.64v-2.33c0-.34-.05-.6-.15-.78-.1-.18-.29-.28-.57-.28-.35,0-.6.12-.73.36-.13.24-.2.59-.2,1.06v1.97h-.64v-3.9h.6v.57h.02c.25-.42.62-.63,1.13-.63.55,0,.9.26,1.05.77.27-.51.68-.77,1.22-.77.43,0,.74.12.93.36.19.24.28.61.28,1.1Z"/>
  <path class="st0" d="M101.92,78.04v4.71h-.69v-4.71h-1.58v-.64h3.86v.64h-1.58Z"/>
  <path class="st0" d="M106.68,81.96v.6c-.24.17-.63.26-1.16.26-.68,0-1.18-.17-1.52-.52-.33-.35-.5-.85-.5-1.5,0-.61.16-1.09.47-1.45.31-.36.74-.54,1.29-.54.59,0,1.03.18,1.3.54.28.36.41.83.41,1.43v.21h-2.8c.04.43.16.75.39.96.22.21.56.31,1.01.31s.8-.09,1.1-.28ZM104.19,80.43h2.1c0-.31-.07-.56-.24-.76-.17-.2-.42-.29-.75-.29-.65,0-1.02.35-1.11,1.06Z"/>
  <path class="st0" d="M111.31,80.44v2.32h-.64v-2.02c0-.52-.07-.87-.2-1.07-.14-.2-.39-.29-.75-.29-.75,0-1.13.53-1.13,1.58v1.81h-.64v-5.74h.64v2.4h.02c.29-.41.7-.62,1.26-.62.52,0,.89.13,1.12.39.23.26.34.68.34,1.26Z"/>
  <path class="st0" d="M115.87,80.44v2.32h-.64v-2.02c0-.52-.07-.88-.2-1.07-.14-.19-.39-.29-.75-.29-.75,0-1.13.53-1.13,1.58v1.81h-.64v-3.9h.64v.56h.02c.29-.41.7-.62,1.26-.62.51,0,.88.13,1.11.39.23.26.35.68.35,1.26Z"/>
  <path class="st0" d="M117.68,77.29c.08.08.12.18.12.3s-.04.22-.12.3c-.08.08-.18.12-.3.12s-.22-.04-.3-.12-.12-.18-.12-.3.04-.22.12-.3c.08-.08.18-.12.3-.12s.22.04.3.12ZM117.7,78.85v3.9h-.64v-3.9h.64Z"/>
  <path class="st0" d="M119.57,77.02v3.5l1.67-1.66h.81l-1.76,1.71,1.96,2.2h-.83l-1.85-2.1v2.1h-.64v-5.74h.64Z"/>
  <path class="st0" d="M125.75,80.38v2.37h-.57v-.56h-.02c-.27.41-.7.62-1.28.62-.4,0-.72-.11-.94-.32-.23-.21-.34-.51-.34-.88,0-.4.14-.7.42-.9.28-.19.72-.29,1.33-.29.12,0,.23,0,.33,0,.1,0,.19.01.27.02.08,0,.13.02.15.02v-.25c0-.3-.08-.52-.23-.65-.15-.13-.41-.2-.76-.2-.42,0-.81.09-1.16.26v-.59c.38-.17.79-.25,1.23-.25.59,0,1,.12,1.22.36.22.24.34.65.34,1.23ZM125.1,81.23v-.26c-.18-.03-.42-.05-.7-.05-.42,0-.71.06-.87.16-.16.11-.25.27-.25.47,0,.19.07.35.2.48s.32.19.57.19c.34,0,.6-.09.78-.27.18-.18.27-.42.27-.74Z"/>
</svg>