<?xml version="1.0" encoding="UTF-8"?>
<svg id="_Шар_1" data-name="Шар_1" xmlns="http://www.w3.org/2000/svg" version="1.1" viewBox="0 0 182 124">
  <!-- Generator: Adobe Illustrator 30.5.1, SVG Export Plug-In . SVG Version: 2.1.4 Build 3)  -->
  <defs>
    <style>
      .st0 {
        fill: #350d02;
      }

      .st1 {
        fill: #338504;
      }
    </style>
  </defs>
  <polygon class="st0" points="35.14 94 27.37 94 27.38 57.2 9.93 57.2 9.93 50.74 157.97 50.74 157.98 57.2 35.14 57.2 35.14 94"/>
  <polygon class="st0" points="66.53 80.18 50.44 80.18 50.44 87.64 69.14 87.64 69.14 94 42.68 94 42.68 61.11 68.65 61.11 68.65 67.51 50.44 67.51 50.44 74.17 66.53 74.17 66.53 80.18"/>
  <path class="st0" d="M92.94,93.97c-4.25,1.26-8.73,1.27-12.9.12-5-1.38-8.14-5.57-8.08-10.79h7.83c-.02,2.36,1.3,4.23,3.56,4.84,2.71.74,7.32.59,8.45-1.25,1.1-1.79.33-3.94-1.46-4.94-5.34-2.98-16.74-1.26-17.33-11.18-.24-4.15,1.74-7.85,5.8-9.36,4.13-1.54,8.86-1.75,13.12-.51,4.27,1.23,7.11,4.9,7.09,9.22h-7.29c-.17-1.44-1.01-2.5-2.38-3.02-2.82-.99-7.6-.69-8.28,1.74-.62,2.24,1.25,3.78,3.65,4.29l4.46.96c5.78,1.25,10.95,3.17,11.08,9.69.09,4.74-2.57,8.78-7.31,10.19Z"/>
  <polygon class="st1" points="83.92 33.35 36.39 48.01 22.91 48.01 78.24 30.9 83.92 29.06 89.13 30.73 144.82 48.01 131.57 48.02 83.92 33.35"/>
  <polygon class="st1" points="120.91 48.01 46.91 48.01 83.92 36.65 120.91 48.01"/>
  <polygon class="st0" points="128.56 87.64 128.58 94 105.51 94 105.51 61.11 113.28 61.11 113.28 87.64 128.56 87.64"/>
  <rect class="st0" x="132.75" y="61.11" width="7.76" height="32.89"/>
  <g>
    <path class="st0" d="M167.76,45.07c-2.38,0-4.31,1.94-4.31,4.31s1.94,4.31,4.31,4.31,4.31-1.94,4.31-4.31-1.94-4.31-4.31-4.31ZM167.76,53.13c-2.06,0-3.74-1.68-3.74-3.74s1.68-3.74,3.74-3.74,3.74,1.68,3.74,3.74-1.68,3.74-3.74,3.74Z"/>
    <path class="st0" d="M169.39,49.25c.19-.22.28-.49.28-.81,0-.39-.13-.69-.4-.9-.26-.22-.64-.33-1.12-.33h-2.02v4.3h.58v-1.79h1.34l1.12,1.79h.67l-1.22-1.85c.33-.06.58-.19.77-.41ZM166.71,49.27v-1.59h1.38c.32,0,.56.06.73.2s.25.32.25.57-.08.46-.25.6c-.17.14-.41.22-.71.22h-1.41Z"/>
  </g>
</svg>