<?xml version="1.0" encoding="UTF-8"?>
<svg id="_Шар_1" data-name="Шар_1" xmlns="http://www.w3.org/2000/svg" version="1.1" viewBox="0 0 182 124">
  <!-- Generator: Adobe Illustrator 30.4.0, SVG Export Plug-In . SVG Version: 2.1.4 Build 226)  -->
  <defs>
    <style>
      .st0, .st1 {
        fill: #1a3458;
      }

      .st1, .st2 {
        fill-rule: evenodd;
      }

      .st2 {
        fill: #0058a2;
      }

      .st3 {
        fill: #a1abb1;
      }
    </style>
  </defs>
  <path class="st0" d="M48.21,67.67v-7.79h-5.84v7.79c0,.72-.22,1.28-.72,1.78s-1.39.72-2.56.78c-1.17,0-2.06-.28-2.5-.78-.5-.5-.72-1.06-.72-1.78v-7.79h-5.9v7.96c0,1.17.45,2.17,1.22,2.89.78.72,1.89,1.28,3.23,1.61,1.34.33,2.89.5,4.62.5s3.28-.17,4.62-.56c1.39-.39,2.5-.95,3.34-1.72.78-.78,1.22-1.72,1.22-2.89h0Z"/>
  <path class="st3" d="M65.79,50.15c-2.23-5.34-18.25-3.78-35.77,3.5C12.44,60.94.03,71.12,2.26,76.46s18.14,3.78,35.66-3.45c-.95-.06-1.84-.17-2.67-.33-11.91,4.39-22.53,4.56-24.37.17-2-4.67,6.9-12.8,19.8-18.14,12.91-5.34,24.92-5.84,26.87-1.17,1.34,3.23-2.45,8.12-9.18,12.57v1.95c11.79-6.45,19.19-13.74,17.41-17.91Z"/>
  <g>
    <path class="st2" d="M43.7,72.46c-.28.06-.61.17-.95.22h3.67v-.56l-1.45-.17c-.39.22-.83.39-1.28.5Z"/>
    <path class="st2" d="M52.27,72.68h7.4l-22.7-28.32-22.81,28.32h20.97c-.28-.06-.5-.11-.78-.17-1.39-.33-2.5-.95-3.28-1.67-.06-.06-.11-.11-.22-.22l-11.79-1.17,20.86-19.14,5.56,9.35h2.89v4.84l4.51,7.51h-.61s0,.67,0,.67Z"/>
  </g>
  <polygon class="st0" points="71.63 72.68 71.63 59.94 66.51 59.94 66.51 69.84 60.73 59.94 52.05 59.94 52.05 72.68 57.17 72.68 57.17 62.83 62.95 72.68 71.63 72.68"/>
  <polygon class="st0" points="81.59 72.68 81.59 59.94 75.75 59.94 75.75 72.68 81.59 72.68"/>
  <path class="st1" d="M104.79,66.34c0-2.11-.89-3.73-2.67-4.78-1.72-1.06-4.23-1.61-7.51-1.61h-8.9v12.74h8.57c3.23,0,5.79-.56,7.68-1.61,1.84-1.06,2.78-2.61,2.84-4.73h0ZM98.61,66.34c0,1.17-.45,2.11-1.28,2.84-.89.72-2.28,1.06-4.12,1.06h-1.67v-7.84h2c1.22,0,2.17.17,2.95.56.72.33,1.28.83,1.61,1.45.33.56.5,1.22.5,1.95h0Z"/>
  <polygon class="st0" points="123.03 72.68 123.03 70.23 113.63 70.23 113.63 67.45 122.48 67.45 122.48 65 113.63 65 113.63 62.39 122.81 62.39 122.81 59.94 107.9 59.94 107.9 72.68 123.03 72.68"/>
  <polygon class="st0" points="141.17 72.68 141.17 69.73 132.21 69.73 132.21 59.94 126.37 59.94 126.37 72.68 141.17 72.68"/>
  <polygon class="st0" points="158.3 62.89 158.3 59.94 139.44 59.94 139.44 62.89 145.9 62.89 145.9 72.68 151.79 72.68 151.79 62.89 158.3 62.89"/>
  <path class="st1" d="M180,72.68l-7.4-12.74h-7.9l-7.29,12.74h5.79l1.56-3h7.57l1.56,3h6.12ZM171.21,67.23h-5.4l2.73-5.12,2.67,5.12h0Z"/>
</svg>