<?xml version="1.0" encoding="UTF-8"?>
<svg id="_Шар_1" data-name="Шар_1" xmlns="http://www.w3.org/2000/svg" version="1.1" viewBox="0 0 182 124">
  <!-- Generator: Adobe Illustrator 30.5.1, SVG Export Plug-In . SVG Version: 2.1.4 Build 3)  -->
  <defs>
    <style>
      .st0 {
        fill: #062c8e;
      }
    </style>
  </defs>
  <path class="st0" d="M108.41,86.75c0,4.18,2.8,8.19,8.58,8.19,1.59,0,3.2-.36,4.69-.97v-9.17h-5.67v3.91h5.49c-.17.57-1.62,2.67-4.51,2.67-2.58,0-4.45-1.45-4.45-4.63,0-2.72,1.87-4.18,4.45-4.18h4.69v-3.9h-4.69c-5.78,0-8.58,3.9-8.58,8.08Z"/>
  <path class="st0" d="M82.53,58.73c-3.5,2.84-5.17,5.01-5.17,8.35,0,7.36,10.75,12.4,18.97,5.1,0,0,1.49.92,3.57,1.94,1.52.75,3.88,1.67,3.88,1.67v-5.98s-1.75-.86-2.32-1.17c-.81-.44-1.76-1.02-1.76-1.02,1.35-2.81,1.3-5.72,1.3-9.01h-4.97s.14,1.19-.1,3.4c-.21,1.91-.61,2.57-.61,2.57,0,0-1.98-1.53-2.89-2.48-.75-.78-2.27-2.26-2.27-2.26.84-.7,4.94-4.06,4.94-10.07,0-3.46-3.03-7.03-7.77-7.03s-7.99,3.13-7.99,6.45c0,6.13,1.61,6.65,3.18,9.53ZM87.09,47.9c4.39,0,2.29,5.7-.42,7.56-1.14-1.4-1.85-2.97-1.85-4.36,0-1.79.57-3.19,2.27-3.19ZM85.58,62.98s1.76,2.05,3.06,3.3c1.21,1.16,3.22,2.81,3.22,2.81-4.16,2.48-9.42,1.87-9.42-2.02,0-1.38.79-2.53,3.14-4.09Z"/>
  <polygon class="st0" points="140.08 87.03 134.51 78.67 130.61 78.67 130.61 94.83 134.51 94.83 134.51 86.47 140.08 94.83 143.98 94.83 143.98 78.67 140.08 78.67 140.08 87.03"/>
  <path class="st0" d="M98.94,78.34c-5.17,0-7.85,4.23-7.85,8.4s2.68,7.91,7.85,7.91c5.56,0,7.85-3.73,7.85-8.19,0-3.9-2.32-8.13-7.85-8.13ZM98.94,91.2c-2.5,0-3.72-2.78-3.72-4.73s1.33-4.18,3.72-4.18c2.4,0,3.72,2.23,3.72,4.18s-1.07,4.73-3.72,4.73Z"/>
  <polygon class="st0" points="61.23 78.67 57.29 88.7 53.35 78.67 48.99 78.67 55.34 94.83 59.24 94.83 65.59 78.67 61.23 78.67"/>
  <path class="st0" d="M130.48,40.3h13.51v-11.22s-6.61,0-13.51,0c-16.62,0-24.67,11.22-24.67,23.24,0,12.02,8.05,23.56,24.67,23.56,4.57,0,9.21-1.05,13.51-2.79v-26.39h-16.3v11.24h15.78c-.48,1.65-4.67,7.69-12.99,7.69-7.42,0-12.79-4.17-12.79-13.31,0-7.82,5.38-12.02,12.79-12.02Z"/>
  <polygon class="st0" points="65.59 75.56 80.46 29.08 67.93 29.06 59.24 57.94 50.55 29.08 38.02 29.08 53.35 75.56 65.59 75.56"/>
  <polygon class="st0" points="84.36 78.67 80.46 78.67 80.46 94.83 91.05 94.83 91.05 91.48 84.36 91.48 84.36 78.67"/>
  <rect class="st0" x="124.48" y="78.67" width="3.9" height="16.16"/>
  <path class="st0" d="M69.66,78.67l-6.35,16.16h4.36l1.31-3.35h5.25l1.31,3.35h4.36s-6.35-16.16-6.35-16.16h-3.9ZM70.29,88.14l1.31-3.34,1.31,3.34h-2.63Z"/>
</svg>