<?xml version="1.0" encoding="UTF-8"?>
<svg id="_Шар_1" data-name="Шар_1" xmlns="http://www.w3.org/2000/svg" version="1.1" viewBox="0 0 182 124">
  <!-- Generator: Adobe Illustrator 29.0.0, SVG Export Plug-In . SVG Version: 2.1.0 Build 186)  -->
  <defs>
    <style>
      .st0 {
        fill: #fe1101;
      }

      .st1 {
        fill: #009647;
      }

      .st2 {
        fill: #ff600f;
      }

      .st3 {
        fill: #ffd600;
      }
    </style>
  </defs>
  <path class="st2" d="M51.88,39.5h1.36c5.6.1,11.14.74,16.61,1.91h0s0,0,0,0c-1.15-.15-2.32-.29-3.51-.4-6.64-.64-13.35-.45-19.88.7-5.78,1.01-11.14,2.92-16.08,5.75-6.3,3.61-14.24,10.3-11.93,18.64.65,2.33,2.04,4.48,3.69,6.27,2.06,2.24,4.44,4.12,7.13,5.66,3.37,1.92,7.07,3.34,10.81,4.37,0,0,0,0,0,.02h0s0,.02-.02.02c-5.1-.66-10.13-2.16-14.6-4.47-1.51-.78-2.95-1.67-4.32-2.68-5.95-4.37-10.38-11.32-7-18.82.97-2.15,2.55-4.13,4.34-5.77,2.72-2.51,5.96-4.44,9.4-6.06,6.87-3.25,14.59-4.87,22.27-5.09.56-.02,1.13-.04,1.7-.06Z"/>
  <path class="st0" d="M44.57,84.5h-2.57c-1.09-.03-2.18-.08-3.26-.13-5.5-.29-11-1.19-16.19-2.87-4.04-1.31-7.83-3.1-11.19-5.43-2.91-2.03-5.63-4.6-7.41-7.68-.34-.59-.62-1.16-.83-1.71-1.69-4.31-1.02-8.73,1.61-12.5,1.59-2.27,3.76-4.15,6.13-5.71,4.16-2.73,9.06-4.62,14.01-6.03,2.87-.82,5.79-1.52,8.73-2.08t.02,0h0s0,0,0,.02c-3.77.82-7.36,2.02-10.73,3.6-4.6,2.15-9.07,5.29-12.05,9.47-1.02,1.42-1.86,3.01-2.33,4.68-1.86,6.42,1.88,12.07,6.72,16,6.19,5.03,14.03,7.7,21.9,8.87,5.99.89,12.13,1.05,18.19.68,0,0,.02,0,.02,0h0s0,.02,0,.02c-3.56.45-7.13.71-10.72.78Z"/>
  <path class="st3" d="M29.93,55.92c-3.62,3.03-6.33,7.17-5.93,12.03.21,2.65,1.33,5.17,2.87,7.4.04.06.04.07-.02.02-1.86-1.51-3.55-3.38-4.69-5.49-1.5-2.77-1.86-5.62-1.07-8.58,1.16-4.4,4.71-8.04,8.35-10.6,3.34-2.34,6.98-4.02,10.93-5.36,9.1-3.11,19.07-4.17,28.65-3.19,11.02,1.12,21.68,5.03,29.77,12.64t0,.02h0s-.02,0-.03,0c-2.78-2.03-5.87-3.6-9.08-4.82-5.02-1.92-10.42-3.07-15.77-3.63-7.68-.8-15.26-.56-22.76.74-4.22.74-8.15,1.84-11.81,3.33-3.38,1.37-6.63,3.16-9.41,5.49Z"/>
  <path class="st1" d="M63.9,50.01h0s0,.02-.02.02c-.92,0-1.84,0-2.77.04-5.88.15-11.8,1.1-17.36,2.95-1.91.64-3.73,1.38-5.48,2.25-2.66,1.32-5.19,2.96-7.23,5.02-.91.92-1.65,1.86-2.23,2.81-1.93,3.2-2.17,6.52-.73,9.95.03.08.02.08-.03.02-.7-.85-1.25-1.79-1.66-2.83-1.8-4.58.56-9.06,3.97-12.11,1.23-1.1,2.62-2.09,4.17-2.97,3.47-1.96,7.31-3.25,11.27-4.08,4.93-1.03,10.04-1.37,15.06-1.22,1.02.04,2.01.08,3.02.15,0,0,0,0,0,0Z"/>
  <path d="M52.15,59.24h2.77s.03.02.03.03v.02l-6.71,12.21s-.02.02-.03.02h-1.94s-.02,0-.03-.02l-7.04-12.21s0-.04,0-.05h3.19s.02,0,.03.02l4.93,8.81s.03.02.05,0c0,0,0,0,0,0l4.69-8.81s.02-.02.03-.02Z"/>
  <path d="M137.87,69.21h9.14s.03,0,.03.03h0v2.24s0,.03-.03.03h-11.98s-.03,0-.03-.03v-12.21s0-.03.03-.03h2.8s.03,0,.03.03h0v9.91s0,.03.02.03Z"/>
  <path d="M60.02,67.19v2.41s.02.03.03.03h8.37s.03.02.03.03h0v1.81s-.02.03-.03.03h-10.83s-.03-.02-.03-.03h0v-10s.02-.03.03-.03h10.71s.03.02.03.03h0v1.72s-.02.03-.03.03h-8.25s-.03.02-.03.03v2.12s.02.03.03.03h4.77s.03.02.03.03h0v1.67s-.02.03-.03.03h-4.77s-.03.04-.03.06Z"/>
  <path d="M80.22,67.71c-.06,0-.06.02-.02.05l4.68,3.72s0,.02,0,.03c0,0,0,0-.02,0h-3.41s-.07,0-.09-.04l-4.13-3.74s-.05-.03-.09-.03h-2.24s-.03,0-.03.03h0v3.72s-.02.06-.06.06h-2.26s-.06-.02-.06-.06v-9.96s.02-.05.05-.05h9.03c1.22,0,2.26.35,2.28,1.77.02.84.02,1.73,0,2.68-.02,1.27-.85,1.78-2.02,1.8-.53,0-1.07,0-1.63,0ZM74.89,63.22v2.71s0,.04.03.04h0l5.82.02c.47,0,.85-.31.85-.7v-1.39c0-.39-.38-.71-.85-.71l-5.82-.02s-.03.02-.03.05h0Z"/>
  <path d="M89.65,69.64h7.3s.04-.02.04-.04v-2.23s-.02-.04-.04-.04h-6.61c-.59,0-1.09-.08-1.53-.24-.73-.27-.93-1.06-.96-1.78-.03-.8-.07-1.68.09-2.48.15-.72.58-1.14,1.32-1.27.45-.08.84-.12,1.18-.12,2.14,0,4.25,0,6.31,0,.53,0,1.02.1,1.45.27.79.33.85,1.34.87,2.09,0,.04-.02.06-.05.06l-1.99.44s-.06,0-.06-.05v-.96s-.02-.05-.05-.05h-6.82s-.06.02-.06.06v2.01s.02.06.06.06c2.25-.02,4.48-.02,6.72,0,.42,0,.82.06,1.21.16,1.03.27,1.15,1.27,1.16,2.17,0,.59,0,1.15,0,1.7-.02.87-.26,1.7-1.24,1.95-.37.09-.75.14-1.12.14-2.44,0-4.79,0-7.06,0-1.07,0-2.09-.24-2.28-1.46-.07-.4-.09-.78-.08-1.14,0-.04.02-.06.06-.07l2.06-.38s.06,0,.06.05v1.07s.04.06.08.06Z"/>
  <path d="M104,61.45h2.37s.03,0,.03.03v10.02s0,.03-.03.03h-2.37s-.03,0-.03-.03v-10.03s0-.02.03-.02Z"/>
  <path d="M112.09,71.51h-2.36s-.03-.02-.03-.04v-.02l5.92-10s.02-.02.03-.02h2.3s.02,0,.03.02l6.02,10s0,.04,0,.05h-2.69s-.02,0-.03-.02l-1.24-2.17s-.02-.02-.03-.02h-6.62s-.02,0-.03.02l-1.24,2.18s-.02.02-.03.02ZM114.44,67.42s0,.03,0,.04h4.52s.03,0,.03-.03h0s-2.3-4.11-2.3-4.11c0-.02-.03-.02-.04,0,0,0,0,0,0,0l-2.21,4.1Z"/>
  <path d="M160.05,69.64s.02,0,.02,0h0v-8.12s.02-.06.06-.06h2.35s.06.02.06.05h0v7.85c0,.34-.05.68-.15,1.02-.18.6-.59.9-1.2,1.03-.34.07-.65.11-.95.11-2.59,0-5,0-7.23,0-.36,0-.72-.05-1.08-.14-1.1-.27-1.25-1.22-1.25-2.19v-7.69s.02-.06.06-.06h2.31s.06.02.06.06v8.07s.02.06.06.06h6.89v.02Z"/>
  <path d="M176.01,61.45h2.72s.03,0,.03.03c0,0,0,.02,0,.02l-4.5,4.54s0,.04,0,.05l5.57,5.36s0,.03,0,.05t-.02,0h-3.25s-.02,0-.02,0l-3.81-3.73s-.03,0-.05,0h0l-3.51,3.73s-.02,0-.02,0h-2.79s-.03,0-.03-.03c0,0,0-.02,0-.02l4.88-5.08s0-.04,0-.05l-4.98-4.83s0-.03,0-.05t.02,0h3.17s.02,0,.02,0l3.35,3.24s.03,0,.05,0l3.16-3.24s.02,0,.03,0Z"/>
  <path d="M124.91,63.95h5.47s.03.02.03.03v2.38s-.02.03-.03.03h-5.47s-.03-.02-.03-.03v-2.37s0-.04.03-.04Z"/>
</svg>