<?xml version="1.0" encoding="UTF-8"?>
<svg id="_Шар_1" data-name="Шар_1" xmlns="http://www.w3.org/2000/svg" version="1.1" viewBox="0 0 182 124">
  <!-- Generator: Adobe Illustrator 30.5.1, SVG Export Plug-In . SVG Version: 2.1.4 Build 3)  -->
  <path d="M14.19,32.9h11.98c1.09,0,2.1.57,2.67,1.5,0,0,31.56,51.75,32.91,54.1.58,1.01-.18,2.51-1.47,2.61l-12.66-.04c-.62,0-1.19-.32-1.51-.85L12.67,35.62c-.73-1.19.13-2.71,1.52-2.71Z"/>
  <path d="M54.64,32.9c1.08,0,2.09.56,2.65,1.49l32.96,54.04c.63,1.16-.15,2.51-1.43,2.66h-12.81c-.62.01-1.2-.31-1.52-.84l-33.36-54.65c-.72-1.19.13-2.71,1.52-2.71h12Z"/>
  <path d="M166.01,39.25l-8.9,9.39c-.63.63-1.79.63-2.42,0l-8.9-9.39v19.13c0,1.22-.97,1.72-1.72,1.72-.89,0-1.78-.62-1.86-1.67v-23.87c.18-1.47,1.75-2.18,2.96-1.25l10.71,11.31s7.53-8.02,10.82-11.35c1.23-.89,2.82-.11,2.91,1.38v23.87c0,1.06-.96,1.58-1.81,1.59-.54,0-1.78-.28-1.78-1.52v-19.32Z"/>
  <path d="M120.82,49.27l12.66,7.69c1.52,1.48-.11,3.85-2.04,2.93l-17.18-10.91c-1.49-1.02-.9-3.47.79-3.47h12.81c1.35,0,2.49-1.21,2.62-2.55.1-.96.1-3.7-.2-4.54-.41-1.15-1.42-1.81-2.62-1.95l-12.87-.02c-2.04,0-1.87-3.55.24-3.56,4.46,0,8.73,0,13.07,0,3.02,0,5.7,2.85,5.95,5.86.21,2.52.26,5.88-1.36,7.94-1.35,1.73-3.04,2.56-4.99,2.56h-6.9Z"/>
  <path d="M96.74,45.51l-4.43-7.33-12.88,20.93c-1.26,2.05-4.21.55-3.2-1.68l14.78-24.04c.88-.8,2.22-.62,2.83.39l14.43,23.59c.94,1.95-1.27,3.6-2.85,2.19l-6.59-10.59h-5.44c-1.57,0-1.63-3.47.17-3.47h3.18Z"/>
  <path d="M142.21,85.21v-19.62c0-1.29,1.17-1.7,1.73-1.71.83-.02,1.85.38,1.85,1.45v24.14c0,1.66-2.15,2.14-3.26.93-4.33-4.15-9.24-7.89-13.56-12.02-.78-.74-1.35-1.44-.79-2.58.61-1.23,1.96-1.12,2.94-.37,3.68,2.83,10.96,9.74,11.1,9.79Z"/>
  <path d="M123.13,63.86c.97-.05,1.9.75,1.9,1.72v23.88c0,2.14-3.59,2.14-3.59,0v-24.06c0-.87.87-1.5,1.69-1.54Z"/>
  <path d="M115.07,63.86c.97-.05,1.9.75,1.9,1.72v23.88c0,2.14-3.59,2.14-3.59,0v-24.06c0-.87.87-1.5,1.69-1.54Z"/>
  <path d="M82.67,32.93c1.59-.27,2.67,1.25,1.95,2.66l-10.03,15.9c-1.37,1.85-4.22.14-3.1-1.84l10.14-16.06c.22-.3.67-.6,1.04-.66Z"/>
  <path d="M95.47,63.86c1.32-.05,1.91.95,1.91,2.16,0,5.54,0,11.55,0,16.99,0,2.7-3.67,2.77-3.67.09v-17.44c0-1.04.77-1.77,1.77-1.81Z"/>
  <path d="M151.76,63.86l16.07-.02c2.37,0,2.24,3.66,0,3.66h-16.1c-2.37,0-2.26-3.64.02-3.64Z"/>
  <path d="M151.76,87.47l15.9-.02c2.62,0,2.41,3.66.18,3.66h-16.1c-2.35,0-2.28-3.64.02-3.64Z"/>
  <path d="M151.49,74.86h16.53c2.02-.01,2.13,3.56.1,3.56h-16.64c-1.97-.01-1.94-3.56.01-3.56Z"/>
  <path d="M95.44,87.32h11.26c2.3,0,2.44,3.78,0,3.79-3.61,0-7.74,0-11.36,0-2.28.02-2.18-3.78.09-3.78Z"/>
</svg>