<?xml version="1.0" encoding="UTF-8"?>
<svg id="_Шар_1" data-name="Шар_1" xmlns="http://www.w3.org/2000/svg" version="1.1" viewBox="0 0 182 124">
  <!-- Generator: Adobe Illustrator 29.0.0, SVG Export Plug-In . SVG Version: 2.1.0 Build 186)  -->
  <defs>
    <style>
      .st0 {
        fill: #37384d;
      }
    </style>
  </defs>
  <path class="st0" d="M45.71,56.74h2.22l-1.28,8.41-4.74-13.85h-5.29c-1.34,4.06-4.74,13.85-4.74,13.85l-1.28-8.41h2.22v-5.45h-11.05v5.45h2.21l4.38,15.95h7.38l3.53-10.19,3.53,10.19,7.37-.02,4.39-15.93h2.21v-5.45h-11.05v5.45Z"/>
  <path class="st0" d="M157.16,57.73c.03-1.55-1.61-3.76-2.01-4.24-3.12-3.67-8.77-3.56-12.43-.71v-1.49h-8.79v5.45h2.59v10.5h-2.59v5.45h12.31v-5.45h-2.59v-7.85c0-.67.22-1.33.64-1.86.24-.3.38-.5.66-.68,1.42-.91,3.21-.72,4.44.2.73.54,1.11,1.43,1.11,2.34v13.3s9.72,0,9.72,0v-5.45l-3.06.02s-.03-7.98,0-9.53Z"/>
  <polygon class="st0" points="116.27 56.73 118.86 56.74 118.86 67.24 116.27 67.24 116.27 72.68 128.59 72.68 128.59 67.24 126 67.24 126 56.73 128.59 56.74 128.59 51.29 116.27 51.29 116.27 56.73"/>
  <path class="st0" d="M77.38,52.72c-1.9-1.4-4.25-2.23-6.79-2.23s-4.95.85-6.86,2.29c-.15.1-.3.22-.44.34-2.56,2.11-4.19,5.3-4.19,8.86,0,6.34,5.15,11.5,11.49,11.5.39,0,.77-.02,1.15-.06.17-.01.34-.04.51-.06,1.9-.28,3.65-1.02,5.13-2.11v1.43h8.16v-5.44h-2.58v-10.5h2.58v-5.45h-8.16v1.43ZM71.03,67.7c-.59,0-1.15-.09-1.68-.25-.53-.17-1.03-.41-1.48-.72-.28-.19-.54-.41-.8-.66-.27-.26-.52-.55-.73-.87-.11-.15-.2-.31-.29-.48-.05-.1-.11-.2-.16-.31-.34-.72-.52-1.52-.52-2.37,0-3.12,2.54-5.66,5.66-5.66s5.66,2.54,5.66,5.66-2.54,5.66-5.66,5.66Z"/>
  <polygon class="st0" points="102.66 56.74 103.94 56.74 101.1 65.14 98.27 56.74 99.55 56.74 99.55 51.29 89.43 51.29 89.43 56.74 91.64 56.74 97.66 72.68 104.54 72.68 110.56 56.74 112.77 56.74 112.77 51.29 102.66 51.29 102.66 56.74"/>
  <path class="st0" d="M179.12,55.76c-.04-.16-.09-.33-.15-.49-2.83-8.6-10.93-14.81-20.46-14.83h-.08l-132.87.07c-.67-.07-1.34-.1-2.03-.1s-1.38.03-2.06.1c-8.4.8-15.41,6.43-18.21,14.07-.07.19-.14.39-.2.59-.09.27-.18.55-.25.83-.56,1.9-.86,3.91-.86,5.99,0,1.69.2,3.35.58,4.93.05.23.11.46.17.69,2.38,8.84,10.26,15.44,19.72,15.92.37.02.74.03,1.11.03s.74-.01,1.11-.03c20.66,0,111.19.01,132.44.01.46.04.92.05,1.39.05s.92-.01,1.38-.05c9.06-.57,16.62-6.76,19.23-15.12.04-.13.08-.26.11-.39.56-1.91.86-3.93.86-6.02s-.32-4.27-.93-6.25ZM174.32,65.39c-.05.22-.1.43-.15.65-.06.23-.12.46-.19.68-.06.2-.12.39-.19.59-2.1,6.02-7.65,10.42-14.29,10.82l-137.01-.04c-8.39-.56-15.04-7.57-15.04-16.1s6.36-15.24,14.49-16.07h137.83c.8.06,1.59.18,2.35.36.21.04.42.09.62.15.08.02.16.04.24.07.23.09.9.29,1.02.33.21.06,1.06.44,1.33.55.25.1.49.23.73.36.27.13.54.29.8.45h.01c.26.16.51.32.76.5.25.16.49.33.72.52.04.03.5.39.74.6.89.78,1.71,1.65,2.42,2.6,0,0,1.53,2.52,1.7,2.9,1.4,3.15,1.78,6.72,1.11,10.08Z"/>
</svg>