<?xml version="1.0" encoding="UTF-8"?>
<svg id="_Шар_1" data-name="Шар_1" xmlns="http://www.w3.org/2000/svg" version="1.1" viewBox="0 0 182 124">
  <!-- Generator: Adobe Illustrator 30.4.0, SVG Export Plug-In . SVG Version: 2.1.4 Build 226)  -->
  <g id="MjysYh">
    <g>
      <path d="M41.32,71.66l8.12-25.07h8.06s-11.05,30.85-11.05,30.85h-9.64l-7.03-20.51-7.08,20.5h-9.6S2,46.59,2,46.59h8.06s7.03,21.19,8.08,25.07l7.78-25.07h7.65l7.73,25.07Z"/>
      <path d="M175.35,68.13c-.04,5.49-4.95,9.24-10.25,9.26l-22.7.06v-6.5s22.87-.01,22.87-.01c1.64,0,2.68-1.23,2.76-2.63s-1.06-2.82-2.73-2.83l-13.83-.09c-6.07-.04-10.9-4.84-10.03-10.78.44-3.05,2.54-5.79,5.57-7.03,1.83-.75,3.68-1,5.71-1h19.92s0,6.47,0,6.47l-21.46.03c-1.6,0-2.77,1.26-2.81,2.62s1.04,2.78,2.61,2.78l13.37.07c5.84.03,11.04,3.84,11,9.57Z"/>
      <path d="M86.82,76.68c-5.8,2.75-12.67,2.65-18.31-.16-6.12-3.05-9.78-9.45-9.03-16.25.67-6.05,4.68-11.1,10.3-13.38,5.26-2.13,11.3-2.1,16.51.14,6.03,2.6,10.05,8.41,10.02,15-.03,6.31-3.7,11.91-9.49,14.65ZM88.28,65.4c1.66-5.66-.84-11.8-6.71-13.45-5.45-1.53-11.72.27-13.85,5.69s-.08,12.12,5.72,14.09,12.98-.02,14.83-6.34Z"/>
      <polygon points="119.47 63 137.34 77.45 127.8 77.44 113.97 66.19 108.28 66.19 108.28 77.44 101.32 77.44 101.32 46.59 108.28 46.59 108.28 59.81 113.98 59.81 127.97 46.59 137.26 46.59 119.47 63"/>
    </g>
  </g>
  <g>
    <path d="M176.76,46.59c-1.79,0-3.24,1.46-3.24,3.24s1.46,3.24,3.24,3.24,3.24-1.46,3.24-3.24-1.46-3.24-3.24-3.24ZM176.76,52.65c-1.55,0-2.81-1.26-2.81-2.81s1.26-2.81,2.81-2.81,2.81,1.26,2.81,2.81-1.26,2.81-2.81,2.81Z"/>
    <path d="M177.98,49.73c.14-.16.21-.37.21-.61,0-.29-.1-.52-.3-.68-.2-.16-.48-.25-.84-.25h-1.52v3.23h.44v-1.34h1.01l.84,1.34h.5l-.92-1.39c.25-.04.44-.15.58-.31ZM175.97,49.75v-1.19h1.04c.24,0,.42.05.55.15s.19.24.19.43-.06.34-.19.45c-.13.11-.31.16-.54.16h-1.06Z"/>
  </g>
</svg>