<?xml version="1.0" encoding="UTF-8"?>
<!DOCTYPE svg PUBLIC "-//W3C//DTD SVG 1.1//EN" "http://www.w3.org/Graphics/SVG/1.1/DTD/svg11.dtd">
<!-- Creator: CorelDRAW X7 -->
<svg xmlns="http://www.w3.org/2000/svg" xml:space="preserve" width="400px" height="400px" version="1.1" style="shape-rendering:geometricPrecision; text-rendering:geometricPrecision; image-rendering:optimizeQuality; fill-rule:evenodd; clip-rule:evenodd"
viewBox="0 0 400 400"
 xmlns:xlink="http://www.w3.org/1999/xlink"
 enable-background="new 0 0 64 64">
 <defs>
  <style type="text/css">
   <![CDATA[
    .str1 {stroke:white;stroke-width:0.999215}
    .str0 {stroke:gray;stroke-width:2.36221}
    .fil3 {fill:none}
    .fil4 {fill:#5377C0}
    .fil5 {fill:#F96332}
    .fil6 {fill:white}
    .fil2 {fill:white;fill-rule:nonzero}
    .fil1 {fill:url(#id0)}
    .fil0 {fill:url(#id1)}
   ]]>
  </style>
  <linearGradient id="id0" gradientUnits="userSpaceOnUse" x1="367" y1="76.5002" x2="39.0001" y2="76.5002">
   <stop offset="0" style="stop-opacity:1; stop-color:black"/>
   <stop offset="1" style="stop-opacity:1; stop-color:#5478C1"/>
  </linearGradient>
  <linearGradient id="id1" gradientUnits="userSpaceOnUse" x1="-0" y1="200.001" x2="368" y2="603.001">
   <stop offset="0" style="stop-opacity:1; stop-color:#252525"/>
   <stop offset="1" style="stop-opacity:1; stop-color:#6699FF"/>
  </linearGradient>
 </defs>
 <g id="Слой_x0020_1">
  <metadata id="CorelCorpID_0Corel-Layer"/>
  <rect class="fil0" width="400" height="400"/>
  <rect class="fil1 str0" x="39" y="34" width="328" height="85.0006" rx="8" ry="8"/>
  <path class="fil2" d="M118 89l0 -18 6 0c2,0 3,0 4,0 1,0 2,1 2,2 1,1 1,2 1,3 0,2 0,2 0,3 0,1 -1,1 -2,2 0,0 -1,1 -1,1 -1,0 -3,0 -4,0l-2 0 0 7 -4 0zm4 -15l0 5 1 0c2,0 3,0 3,0 1,0 1,-1 1,-1 1,-1 1,-1 1,-2 0,0 0,-1 -1,-1 0,-1 -1,-1 -1,-1 -1,0 -1,0 -3,0l-1 0z"/>
  <path id="1" class="fil2" d="M133 82c0,-1 0,-2 1,-3 0,-1 1,-2 2,-3 1,0 2,0 4,0 2,0 3,0 4,1 2,2 2,3 2,5 0,2 0,4 -2,5 -1,1 -2,2 -4,2 -2,0 -3,0 -4,-1 -1,0 -2,-1 -2,-2 -1,-1 -1,-2 -1,-4zm3 0c0,2 1,3 1,3 1,1 2,1 3,1 1,0 1,0 2,-1 0,0 1,-1 1,-3 0,-1 -1,-2 -1,-3 -1,0 -1,-1 -2,-1 -1,0 -2,1 -3,1 0,1 -1,2 -1,3z"/>
  <path id="2" class="fil2" d="M152 83l0 -2c1,0 1,0 1,0 1,0 1,0 1,0 0,-1 0,-1 0,-1 0,-1 0,-1 0,-2 0,0 -1,0 -1,0 -1,0 -1,0 -2,0 0,0 0,1 0,2l-3 -1c0,-1 1,-2 2,-3 0,0 2,0 3,0 1,0 2,0 3,1 1,0 2,1 2,2 0,1 -1,2 -1,2 0,0 -1,1 -2,1 1,0 2,1 2,1 1,1 1,2 1,2 0,1 0,2 -1,3 -1,1 -3,1 -4,1 -3,0 -5,-1 -6,-4l3 0c1,1 2,2 3,2 0,0 1,0 1,-1 1,0 1,0 1,-1 0,0 0,-1 -1,-1 0,0 -1,-1 -1,-1l-1 0z"/>
  <path id="3" class="fil2" d="M161 76l3 0 0 2c0,-1 1,-1 2,-2 0,0 1,0 2,0 1,0 3,0 4,1 1,1 1,3 1,5 0,2 0,4 -1,5 -1,1 -3,2 -4,2 -1,0 -1,0 -2,0 -1,-1 -1,-1 -2,-2l0 7 -3 0 0 -18zm3 6c0,2 0,3 1,3 1,1 1,1 2,1 1,0 2,0 2,-1 1,0 1,-1 1,-3 0,-1 0,-2 -1,-3 0,0 -1,-1 -2,-1 -1,0 -1,1 -2,1 -1,1 -1,2 -1,3z"/>
  <path id="4" class="fil2" d="M179 80l-3 -1c0,-1 0,-2 1,-3 1,0 2,0 4,0 2,0 3,0 3,0 1,0 2,1 2,1 0,1 0,2 0,4l0 3c0,2 0,2 1,3 0,1 0,1 0,2l-3 0c0,-1 0,-1 0,-1 -1,0 -1,-1 -1,-1 0,1 -1,1 -1,2 -1,0 -2,0 -3,0 -1,0 -2,0 -3,-1 0,-1 -1,-2 -1,-3 0,-1 0,-1 1,-2 0,0 1,-1 1,-1 1,0 2,-1 3,-1 1,0 3,0 3,-1l0 0c0,-1 0,-1 0,-1 -1,-1 -1,-1 -2,-1 -1,0 -1,0 -2,1 0,0 0,0 0,1zm4 3c0,0 -1,0 -2,0 -1,0 -1,0 -2,1 0,0 0,0 0,1 0,0 0,1 0,1 0,0 1,1 1,1 1,0 2,-1 2,-1 1,0 1,-1 1,-1 0,0 0,-1 0,-2l0 0z"/>
  <polygon id="5" class="fil2" points="188,89 193,82 188,76 193,76 195,79 197,76 201,76 197,82 202,89 197,89 195,85 192,89 "/>
  <path id="6" class="fil2" d="M202 76l4 0 3 9 3 -9 4 0 -5 12 -1 2c0,1 0,2 -1,2 0,1 0,1 -1,1 0,0 0,1 -1,1 0,0 -1,0 -2,0 0,0 -1,0 -2,0l0 -3c1,0 1,0 2,0 0,0 1,0 1,0 1,-1 1,-2 1,-2l-5 -13z"/>
  <polygon id="7" class="fil2" points="218,76 221,76 221,81 226,81 226,76 229,76 229,89 226,89 226,83 221,83 221,89 218,89 "/>
  <path id="8" class="fil2" d="M233 76l3 0 0 5c0,0 1,0 1,0 0,-1 1,-1 1,-2 0,-2 1,-2 1,-3 1,0 2,0 2,0 1,0 1,0 2,0l0 2c-1,0 -2,0 -2,0 0,0 0,1 -1,2 0,1 -1,2 -1,2 1,0 2,1 2,3 0,0 0,0 0,0l2 4 -3 0 -2 -4c0,-1 -1,-1 -1,-1 0,-1 -1,-1 -1,-1l0 6 -3 0 0 -13z"/>
  <polygon id="9" class="fil2" points="245,76 248,76 248,84 253,76 257,76 257,89 254,89 254,81 248,89 245,89 "/>
  <rect class="fil3 str1" x="38" y="150" width="158" height="140" rx="15" ry="8"/>
  <rect class="fil3 str1" x="205" y="150" width="163" height="140" rx="16" ry="8"/>
  <path class="fil2" d="M92 276l0 -9 3 0c0,0 1,0 1,0 1,0 1,0 1,0 1,1 1,1 1,1 0,1 0,1 0,1 0,1 0,2 0,2 -1,1 -2,1 -3,1l-2 0 0 4 -1 0zm1 -5l2 0c1,0 1,0 2,0 0,-1 0,-1 0,-2 0,0 0,0 0,0 0,-1 -1,-1 -1,-1 0,0 0,0 -1,0l-2 0 0 3z"/>
  <path id="1" class="fil2" d="M99 273c0,-2 0,-3 1,-3 0,-1 1,-1 2,-1 1,0 1,0 2,1 1,1 1,1 1,2 0,1 0,2 -1,2 0,1 0,1 -1,2 0,0 -1,0 -1,0 -1,0 -2,0 -2,-1 -1,-1 -1,-1 -1,-2zm1 0c0,0 0,1 0,1 1,1 1,1 2,1 0,0 1,0 1,-1 1,0 1,-1 1,-1 0,-1 0,-2 -1,-2 0,-1 -1,-1 -1,-1 -1,0 -1,0 -2,1 0,0 0,1 0,2z"/>
  <path id="2" class="fil2" d="M107 273l0 -1c1,0 1,0 1,0 1,0 1,0 1,0 0,-1 0,-1 0,-1 0,0 0,0 0,-1 0,0 -1,0 -1,0 -1,0 -1,0 -1,1l-1 0c0,-1 1,-2 2,-2 1,0 1,0 2,1 0,0 0,1 0,1 0,1 0,1 -1,1 1,1 1,1 1,1 0,0 0,1 0,1 0,1 0,1 0,1 -1,1 -1,1 -2,1 -1,0 -2,-1 -3,-2l1 0c1,0 1,0 1,1 0,0 1,0 1,0 0,0 1,0 1,0 0,0 0,-1 0,-1 0,0 0,-1 0,-1 0,0 0,0 0,0 -1,0 -1,0 -1,0 0,0 0,0 -1,0z"/>
  <path id="3" class="fil2" d="M112 278l0 -9 1 0 0 1c0,0 0,0 1,-1 0,0 0,0 1,0 0,0 1,0 1,1 0,0 1,0 1,1 0,0 0,1 0,2 0,0 0,1 0,1 0,1 -1,1 -1,2 -1,0 -1,0 -1,0 -1,0 -1,0 -1,0 -1,0 -1,-1 -1,-1l0 3 -1 0zm1 -5c0,0 0,1 0,1 1,1 1,1 1,1 1,0 1,0 2,-1 0,0 0,-1 0,-1 0,-1 0,-2 0,-2 -1,-1 -1,-1 -2,-1 0,0 0,0 -1,1 0,0 0,1 0,2z"/>
  <path id="4" class="fil2" d="M123 275c-1,0 -1,1 -1,1 -1,0 -1,0 -2,0 0,0 -1,0 -1,-1 -1,0 -1,0 -1,-1 0,0 0,-1 0,-1 1,0 1,0 1,0 0,-1 1,-1 1,-1 0,0 0,0 1,0 1,0 1,0 2,0 0,0 0,-1 0,-1 0,0 0,0 -1,-1 0,0 0,0 -1,0 0,0 -1,0 -1,0 0,1 0,1 0,1l-2 0c1,0 1,-1 1,-1 0,0 1,0 1,-1 0,0 1,0 1,0 1,0 1,0 2,0 0,1 0,1 1,1 0,0 0,0 0,1 0,0 0,0 0,1l0 1c0,1 0,2 0,2 0,0 0,1 0,1l-1 0c0,0 0,-1 0,-1zm0 -2c-1,0 -1,0 -2,0 0,0 -1,0 -1,0 0,0 0,0 0,1 0,0 -1,0 -1,0 0,0 1,1 1,1 0,0 0,0 1,0 0,0 1,0 1,0 0,0 0,-1 1,-1 0,0 0,-1 0,-1l0 0z"/>
  <path id="5" class="fil2" d="M125 276l2 -4 -2 -3 1 0 1 2c1,0 1,0 1,1 0,-1 0,-1 0,-1l1 -2 2 0 -2 3 2 4 -1 0 -2 -2 0 -1 -2 3 -1 0z"/>
  <path id="6" class="fil2" d="M132 278l0 -1c0,0 0,0 0,0 1,0 1,0 1,0 0,0 0,0 0,0 0,0 0,0 1,-1 0,0 0,0 0,0l-3 -7 1 0 2 4c0,1 0,1 0,2 0,-1 1,-1 1,-2l1 -4 1 0 -2 7c-1,1 -1,1 -1,1 0,1 0,1 -1,1 0,0 0,0 0,0 -1,0 -1,0 -1,0z"/>
  <polygon id="7" class="fil2" points="138,269 139,269 139,272 142,272 142,269 143,269 143,276 142,276 142,273 139,273 139,276 138,276 "/>
  <path id="8" class="fil2" d="M145 273c0,-2 0,-3 1,-3 0,-1 1,-1 2,-1 1,0 1,0 2,1 0,1 1,1 1,2 0,1 0,2 -1,2 0,1 0,1 -1,2 0,0 -1,0 -1,0 -1,0 -2,0 -3,-1 0,-1 0,-1 0,-2zm1 0c0,0 0,1 0,1 1,1 1,1 2,1 0,0 1,0 1,-1 0,0 1,-1 1,-1 0,-1 -1,-2 -1,-2 0,-1 -1,-1 -1,-1 -1,0 -1,0 -2,1 0,0 0,1 0,2z"/>
  <path id="9" class="fil2" d="M152 269l1 0 0 3c0,0 1,0 1,0 0,0 0,-1 0,-1 1,-1 1,-1 1,-1 0,0 0,-1 0,-1 1,0 1,0 1,0l0 0 0 1 0 0c0,0 0,0 0,0 0,0 -1,1 -1,1 0,1 0,1 0,1 0,0 -1,0 -1,0 1,1 1,1 2,2l1 2 -1 0 -2 -2c0,-1 0,-1 0,-1 0,0 -1,0 -1,0l0 3 -1 0 0 -7z"/>
  <path class="fil2" d="M250 267l1 0 0 4c1,0 1,0 1,-1 1,0 1,0 1,-1 1,-1 1,-1 1,-1 0,-1 0,-1 1,-1 0,0 0,0 1,0 0,0 0,0 0,0l0 1c0,0 0,0 0,0 0,0 0,0 0,0 -1,0 -1,0 -1,0 0,0 0,1 -1,1 0,1 0,2 0,2 -1,0 -1,0 -1,0 0,0 1,1 2,2l1 3 -1 0 -2 -3c0,0 0,-1 -1,-1 0,0 0,0 -1,0l0 4 -1 0 0 -9z"/>
  <path id="1" class="fil2" d="M257 273c0,-2 0,-3 1,-3 0,-1 1,-1 2,-1 1,0 2,0 2,1 1,1 1,1 1,2 0,1 0,2 0,2 -1,1 -1,1 -2,2 0,0 -1,0 -1,0 -1,0 -2,0 -2,-1 -1,-1 -1,-1 -1,-2zm1 0c0,0 0,1 1,1 0,1 0,1 1,1 0,0 1,0 1,-1 1,0 1,-1 1,-1 0,-1 0,-2 -1,-2 0,-1 -1,-1 -1,-1 -1,0 -1,0 -1,1 -1,0 -1,1 -1,2z"/>
  <polygon id="2" class="fil2" points="264,269 265,269 265,272 268,272 268,269 269,269 269,276 268,276 268,273 265,273 265,276 264,276 "/>
  <path id="3" class="fil2" d="M275 273l1 1c0,0 0,1 0,1 -1,1 -2,1 -2,1 -1,0 -2,0 -2,-1 -1,-1 -1,-1 -1,-2 0,-1 0,-2 0,-2 0,-1 1,-1 1,-1 1,-1 1,-1 2,-1 0,0 1,0 1,1 1,0 1,1 1,1l-1 0c0,0 0,0 0,-1 -1,0 -1,0 -1,0 -1,0 -1,0 -2,1 0,0 0,1 0,2 0,0 0,1 0,1 1,1 1,1 2,1 0,0 1,0 1,0 0,-1 0,-1 0,-2z"/>
  <path id="4" class="fil2" d="M277 278l0 -1c0,0 1,0 1,0 0,0 0,0 0,0 1,0 1,0 1,0 0,0 0,0 0,-1 0,0 0,0 0,0l-2 -7 1 0 1 4c0,1 1,1 1,2 0,-1 0,-1 0,-2l2 -4 1 0 -3 7c0,1 0,1 0,1 -1,1 -1,1 -1,1 0,0 -1,0 -1,0 0,0 0,0 -1,0z"/>
  <path id="5" class="fil2" d="M284 269l5 0 0 7 -1 0 0 -6 -3 0 0 3c0,1 0,2 0,2 0,0 0,0 0,1 -1,0 -1,0 -1,0 -1,0 -1,0 -1,0l0 -1 0 0c0,0 1,0 1,0 0,0 0,0 0,0 0,-1 0,-1 0,-1l0 -5z"/>
  <path id="6" class="fil2" d="M291 269l1 0 0 3 1 0c1,0 2,0 2,0 1,1 1,1 1,2 0,0 0,1 -1,1 0,1 -1,1 -2,1l-2 0 0 -7zm1 6l1 0c1,0 1,0 1,0 1,-1 1,-1 1,-1 0,0 0,-1 -1,-1 0,0 0,0 -1,0l-1 0 0 2z"/>
  <polygon id="7" class="fil2" points="296,269 301,269 301,270 299,270 299,276 298,276 298,270 296,270 "/>
  <path id="8" class="fil2" d="M306 275c0,0 -1,1 -1,1 -1,0 -1,0 -1,0 -1,0 -2,0 -2,-1 0,0 -1,0 -1,-1 0,0 0,-1 1,-1 0,0 0,0 0,0 0,-1 1,-1 1,-1 0,0 1,0 1,0 1,0 1,0 2,0 0,0 0,-1 0,-1 0,0 0,0 0,-1 -1,0 -1,0 -2,0 0,0 -1,0 -1,0 0,1 0,1 0,1l-1 0c0,0 0,-1 0,-1 0,0 1,0 1,-1 0,0 1,0 2,0 0,0 1,0 1,0 0,1 0,1 1,1 0,0 0,0 0,1 0,0 0,0 0,1l0 1c0,1 0,2 0,2 0,0 0,1 0,1l-1 0c0,0 0,-1 0,-1zm0 -2c0,0 -1,0 -2,0 0,0 -1,0 -1,0 0,0 0,0 0,1 0,0 0,0 0,0 0,0 0,1 0,1 0,0 0,0 1,0 0,0 1,0 1,0 0,0 1,-1 1,-1 0,0 0,-1 0,-1l0 0z"/>
  <polygon id="9" class="fil2" points="309,269 310,269 310,275 313,275 313,269 314,269 314,275 315,275 315,278 314,278 314,276 309,276 "/>
  <path id="10" class="fil2" d="M316 268l0 -1 1 0 0 1 -1 0zm0 8l0 -7 1 0 0 7 -1 0z"/>
  <path id="11" class="fil2" d="M324 269l0 7 -1 0 0 -3 -1 0c0,0 -1,0 -1,0 0,1 0,1 -1,1l-1 2 -1 0 1 -2c1,0 1,-1 1,-1 0,0 -1,0 -1,-1 0,0 -1,0 -1,-1 0,0 1,-1 1,-1 0,-1 1,-1 2,-1l3 0zm-1 1l-2 0c-1,0 -1,0 -1,1 0,0 0,0 0,0 0,1 0,1 0,1 0,0 1,0 1,0l2 0 0 -2z"/>
  <path class="fil4 str1" d="M0 320l58 0c4,0 7,3 7,8l0 35c0,4 -3,7 -7,7l-58 0 0 -50z"/>
  <g id="_1740435099456">
   <g>
    <path class="fil5" d="M250 357l0 -24c0,-1 0,-2 -1,-2l-21 -12c0,0 -1,0 -1,0l-21 12c-1,0 -1,1 -1,2l0 24c0,0 0,1 1,1l21 12c0,0 1,0 1,0l21 -12c1,0 1,-1 1,-1z"/>
    <path class="fil5" d="M367 345l-6 12c0,0 -1,1 -1,1 0,0 0,0 -1,0 0,0 0,0 0,0l-104 0c-1,0 -2,-1 -2,-2l0 -23c0,-1 1,-2 2,-2l104 0c0,0 0,0 1,0 0,0 0,0 0,0 0,1 1,1 1,1l6 12c1,0 1,1 0,1z"/>
    <g>
     <g>
      <path class="fil6" d="M242 332l-2 2c0,0 0,0 0,0l-27 0c0,0 0,0 0,0l0 -2c0,0 0,-1 0,-1l29 0c0,0 0,0 0,1 0,0 0,0 0,0z"/>
     </g>
     <g>
      <path class="fil6" d="M242 357c0,1 0,1 0,1l-29 0c0,0 0,0 0,-1l0 -2c0,0 0,0 0,0l27 0c0,0 0,0 0,0l2 2c0,0 0,0 0,0z"/>
     </g>
     <g>
      <path class="fil6" d="M230 353c0,0 0,0 -1,0l-3 0c0,0 0,0 0,0l-6 -7 0 6c0,1 0,1 0,1l-3 0c0,0 0,0 0,-1l0 -15c0,0 0,-1 0,-1l3 0c0,0 0,1 0,1l0 6 6 -7c0,0 0,0 0,0l3 0c0,0 1,0 1,1 0,0 0,0 0,0l-8 7 8 8c0,0 0,0 0,1z"/>
     </g>
     <g>
      <path class="fil6" d="M237 353c0,0 0,0 0,0l-3 0c0,0 0,0 0,0l-8 -9c0,0 0,0 0,0l8 -8c0,0 0,0 0,0l3 0c0,0 0,0 0,1 0,0 0,0 0,0l-7 7 7 8c0,0 0,0 0,1z"/>
     </g>
    </g>
    <g>
     <path class="fil6" d="M269 339c0,0 0,0 0,-1l0 0 0 -1 0 0c0,-1 0,-1 0,-1l0 0 -11 0 0 0c-1,0 -1,0 -1,1l0 0 0 1 0 0c0,1 0,1 1,1l0 0 4 0c0,0 0,0 0,0l0 13 0 1c0,0 0,0 0,0l0 0 2 0 0 0c1,0 1,0 1,0l0 -1 0 -13c0,0 0,0 0,0l4 0 0 0z"/>
     <g>
      <path class="fil6" d="M273 341c-1,0 -2,1 -3,2 -1,1 -2,2 -2,4 0,2 1,3 2,4 1,1 2,2 4,2 2,0 3,0 3,-1 0,0 1,0 1,0 0,0 0,0 0,0l0 -2 0 0c0,0 -1,0 -1,0l0 0c-1,0 -2,1 -3,1 -1,0 -2,-1 -2,-1 -1,-1 -1,-1 -1,-2 0,0 0,0 0,0l7 0 0 0c0,0 0,0 0,-1l0 0 0 0c0,-2 0,-3 -1,-4 -1,-1 -2,-2 -4,-2l0 0zm-2 5c0,0 0,0 0,-1 0,-1 1,-2 3,-2 0,0 1,1 1,1 1,1 1,1 1,1 0,1 0,1 0,1l-5 0z"/>
     </g>
     <g>
      <path class="fil6" d="M286 341c-1,0 -2,1 -3,1 0,0 0,0 0,0l0 0 0 0c0,-1 0,-1 -1,-1l0 0 -1 0 0 0c-1,0 -1,0 -1,1l0 0 0 14 0 0c0,0 0,0 1,0l0 0 2 0 0 0c0,0 0,0 0,0l0 0 0 -4c0,0 0,0 0,0 1,1 2,1 3,1 2,0 3,-1 4,-2 1,-1 1,-2 1,-4 0,-2 0,-3 -1,-4 -1,-1 -2,-2 -4,-2l0 0zm0 2c1,0 1,1 2,1 0,1 0,2 0,3 0,2 0,4 -2,4 -1,0 -2,-1 -2,-1 -1,-1 -1,-2 -1,-3 0,-1 0,-2 1,-3 0,0 1,-1 2,-1z"/>
     </g>
     <path class="fil6" d="M293 336l0 0c0,0 0,0 0,1l0 0 0 15 0 1c0,0 0,0 0,0l1 0 1 0 0 0c1,0 1,0 1,0l0 -1 0 -15 0 0c0,-1 0,-1 -1,-1l0 0 -2 0 0 0z"/>
     <g>
      <path class="fil6" d="M307 343c-1,-1 -2,-2 -4,-2 -2,0 -3,1 -4,2 -1,1 -1,2 -1,4 0,2 0,3 1,4 1,1 2,2 4,2 2,0 3,-1 4,-2 1,-1 1,-2 1,-4 0,-2 0,-3 -1,-4l0 0zm-4 8c-1,0 -2,-1 -2,-1 -1,-1 -1,-2 -1,-3 0,-2 1,-4 3,-4 1,0 2,1 2,1 1,1 1,2 1,3 0,2 -1,4 -3,4z"/>
     </g>
     <path class="fil6" d="M316 345c-1,0 -1,0 0,-1l7 -7 0 0c0,0 0,-1 0,-1l0 0 -3 0c0,0 0,0 0,1l-6 6c-1,0 -1,0 -1,0l0 -6 0 0c0,-1 0,-1 0,-1l0 0 -2 0 0 0c0,0 0,0 0,1l0 0 0 15 0 0c0,1 0,1 0,1l0 0 2 0 0 0c0,0 0,0 0,-1l0 0 0 -6c0,0 0,0 1,0l5 7c0,0 1,0 1,0l2 0 0 0c1,0 1,-1 0,-1l0 0 -6 -7z"/>
     <path class="fil6" d="M328 341c0,0 -1,0 -2,1 0,0 0,0 0,0l0 0c0,-1 0,-1 0,-1l0 0 -2 0 0 0c0,0 0,0 0,1l0 0 0 10 0 0c0,1 0,1 0,1l0 0 2 0 0 0c0,0 0,0 0,-1l0 0 0 -4c0,-2 0,-3 1,-4 0,0 1,0 2,0 0,0 0,0 1,0l0 0c0,0 0,0 0,-1l0 0 0 -1 0 0c0,0 0,-1 0,-1l0 0c-1,0 -1,0 -2,0z"/>
     <g>
      <path class="fil6" d="M335 341c-1,0 -2,0 -3,1l0 0c-1,0 -1,0 -1,0l0 0 0 2 0 0c0,0 1,0 1,0l0 0c1,0 2,-1 3,-1 1,0 1,1 2,1 0,0 0,1 0,1 0,0 0,1 0,1 0,0 0,0 -1,0 0,0 0,0 0,0 -2,0 -3,0 -4,1 -1,0 -2,1 -2,2 0,1 1,2 1,3 1,1 2,1 3,1 1,0 2,0 3,-1 0,0 0,0 0,0l0 0 0 1c0,0 1,0 1,0l0 0 1 0 0 0c1,0 1,0 1,0l0 -1 0 -6c0,-2 -1,-3 -1,-4 -1,0 -2,-1 -4,-1l0 0zm0 10c-1,0 -1,0 -2,-1 0,0 0,0 0,-1 0,0 0,-1 0,-1 1,0 1,0 3,0 0,0 1,0 1,0 0,0 0,0 0,0l0 0c0,1 0,2 0,2 -1,0 -1,1 -2,1z"/>
     </g>
     <path class="fil6" d="M357 336l-3 0 0 0c0,0 0,0 0,1l0 0 -4 10c0,1 0,1 0,0l-4 -10 0 -1c0,0 0,0 0,0l0 0 -3 0 0 0c0,0 -1,0 -1,1l0 0 0 15 0 0c0,1 1,1 1,1l0 0 2 0 0 0c0,0 0,0 0,-1l0 0 0 -10c0,0 0,0 1,0l3 10 0 0c0,0 0,0 0,0l0 0 2 0 0 0c0,0 0,0 0,0l0 0 3 -10c0,0 1,0 1,0l0 11 0 0c0,0 0,0 0,0l0 0 2 0 0 0c0,0 0,0 0,0l0 0 0 -16 0 0c0,-1 0,-1 0,-1l0 0z"/>
    </g>
   </g>
  </g>
  <g>
   <g>
    <path class="fil6" d="M303 166l-23 0c-2,-2 -4,-3 -7,-3 -4,0 -8,4 -8,8l0 4 0 0c0,0 0,0 0,0 0,2 1,3 3,3 1,1 1,2 2,3l0 0 -5 2c-2,0 -3,2 -3,4l0 5 13 0 0 21 37 0 0 -38 -9 -9zm1 3l5 5 -5 0 0 -5zm-25 7l0 -2c0,0 1,1 1,1 0,1 -1,1 -1,2 0,-1 0,-1 0,-1zm-6 -11c4,0 7,3 7,6l0 2c-1,-1 -1,-1 -2,-1 -1,0 -3,0 -4,-1l-1 -1 -1 1c-1,1 -2,1 -4,1 0,0 -1,0 -1,1l0 -2c0,-3 3,-6 6,-6zm-6 10c0,0 0,-1 1,-1l0 2c0,0 0,0 0,1 -1,-1 -1,-1 -1,-2zm2 1l0 -2c2,0 3,-1 4,-2 1,1 3,2 4,2l0 2c0,2 -2,4 -4,4 -2,0 -4,-2 -4,-4zm4 8l-1 -2c0,0 1,0 1,0 1,0 1,0 2,0l-2 2zm3 -1l2 0 -2 4 -2 -2 2 -2zm-5 0l1 2 -1 2 -2 -4 2 0zm-7 4c0,-2 0,-2 1,-3l2 0 4 6 2 -4 3 4 3 -6 2 0c1,1 2,1 2,3l0 4 -3 0 0 -4 -2 0 0 4 -10 0 0 -4 -1 0 0 4 -3 0 0 -4zm12 25l0 -20 9 0 0 -5c0,-2 -2,-4 -3,-4l-6 -2 0 0c1,-1 2,-2 2,-3 2,0 3,-1 3,-3l0 -4c0,-1 0,-2 0,-3l21 0 0 8 8 0 0 36 -34 0z"/>
    <path class="fil6" d="M300 196l1 -1 -1 -1 -1 1c-1,-1 -3,-2 -5,-2 -2,0 -3,1 -5,2l-1 -1 -1 1 1 1c-1,1 -2,3 -2,5 0,2 1,4 2,5l-1 1 1 1 1 -1c2,1 3,2 5,2 2,0 4,-1 5,-2l1 1 1 -1 -1 -1c2,-1 2,-3 2,-5 0,-2 0,-4 -2,-5zm-6 -1c2,0 3,0 4,1l-4 4 -4 -4c1,-1 3,-1 4,-1zm-6 6c0,-1 0,-3 1,-4l4 4 -4 4c-1,-1 -1,-2 -1,-4zm6 7c-1,0 -3,-1 -4,-2l4 -4 4 4c-1,1 -2,2 -4,2zm1 -7l4 -4c1,1 2,3 2,4 0,2 -1,3 -2,4l-4 -4z"/>
    <path class="fil6" d="M302 178l-1 -1 -1 1c-1,-2 -3,-3 -6,-3 -4,0 -8,4 -8,8 0,5 4,8 8,8 5,0 8,-3 8,-8 0,-1 0,-3 -1,-4l1 -1zm-1 5c0,4 -3,7 -7,7 -3,0 -6,-3 -6,-7 0,-3 3,-6 6,-6 2,0 4,1 5,2l-6 6 -2 -3 -1 1 3 4 7 -7c0,1 1,2 1,3z"/>
    <path class="fil6" d="M306 190c-1,0 -2,1 -2,2 0,2 1,3 2,3 2,0 3,-1 3,-3 0,-1 -1,-2 -3,-2zm0 3c0,0 0,0 0,-1 0,0 0,-1 0,-1 1,0 1,1 1,1 0,1 0,1 -1,1z"/>
    <rect class="fil6" x="306" y="187" width="1.6129" height="1.6129"/>
    <rect class="fil6" x="306" y="183" width="1.6129" height="1.6129"/>
    <rect class="fil6" x="306" y="180" width="1.6129" height="1.6129"/>
    <rect class="fil6" x="306" y="203" width="1.6129" height="1.6129"/>
    <rect class="fil6" x="306" y="199" width="1.6129" height="1.6129"/>
    <rect class="fil6" x="306" y="196" width="1.6129" height="1.6129"/>
   </g>
  </g>
  <g>
   <g>
    <path class="fil6" d="M107 69l0 -6 -3 0c0,-1 -1,-2 -1,-3l2 -2 -5 -5 -2 2c-1,0 -2,-1 -3,-1l0 -3 -7 0 0 3c-1,0 -2,1 -2,1l-3 -2 -1 1 -12 0 0 -1c0,-1 -1,-2 -3,-2l-3 0c-1,0 -2,1 -2,2l0 1 -5 0 0 47 37 0 0 -19 1 0 0 -3c1,-1 2,-1 3,-1l2 1 5 -4 -2 -3c0,0 1,-1 1,-2l3 -1zm-39 6l-1 0 0 -13 1 0 0 13zm-5 -13l2 0 0 13 -2 0 0 -13zm4 15l-1 2 -2 -2 3 0zm1 -16l-5 0 0 -2 5 0 0 2zm-2 21l2 -4 2 0 0 7 -8 0 0 -7 1 0 3 4zm-2 -29l3 0c1,0 1,0 1,0l0 4 -5 0 0 -4c0,0 1,0 1,0zm28 46l-34 0 0 -43 4 0 0 20 0 1 -2 0 0 10 11 0 0 -10 -2 0 1 -1 0 -20 10 0 -1 2 1 2c0,1 -1,2 -1,3l-3 0 0 6 3 1c0,1 1,2 1,2l-1 3 4 4 3 -1c0,0 1,0 2,1l0 3 4 0 0 17zm11 -30l-1 0c0,1 0,2 -1,3l0 0 2 3 -3 2 -2 -1 -1 0c-1,1 -2,1 -3,1l0 0 -1 3 -3 0 -1 -3 0 0c-1,0 -2,0 -3,-1l0 0 -3 1 -2 -2 1 -3 0 0c-1,-1 -1,-2 -1,-3l0 0 -3 -1 0 -3 3 -1 0 -1c0,-1 0,-1 1,-2l0 -1 -1 -2 2 -3 3 2 0 0c1,-1 2,-1 3,-2l0 0 1 -2 3 0 1 2 0 0c1,1 2,1 3,2l1 0 2 -2 3 3 -2 2 0 1c1,1 1,1 1,2l1 1 2 1 0 3 -2 1z"/>
    <path class="fil6" d="M92 57c-6,0 -10,4 -10,9 0,6 4,10 10,10 5,0 9,-4 9,-10 0,-5 -4,-9 -9,-9zm0 17c-5,0 -9,-3 -9,-8 0,-4 4,-8 9,-8 4,0 8,4 8,8 0,5 -4,8 -8,8z"/>
    <path class="fil6" d="M92 60c-4,0 -7,3 -7,6 0,4 3,7 7,7 3,0 6,-3 6,-7 0,-3 -3,-6 -6,-6zm0 11c-3,0 -5,-2 -5,-5 0,-2 2,-4 5,-4 2,0 4,2 4,4 0,3 -2,5 -4,5z"/>
    <path class="fil6" d="M72 87l-2 1 -10 0 0 10 11 0 0 -9 2 -1 -1 -1zm-2 9l-8 0 0 -6 7 0 -4 3 -1 -1 -1 2 2 2 5 -5 0 5z"/>
    <rect class="fil6" x="89" y="96" width="1.6129" height="1.6129"/>
    <rect class="fil6" x="73" y="96" width="14.5161" height="1.6129"/>
    <rect class="fil6" x="73" y="93" width="17.7418" height="1.6129"/>
    <rect class="fil6" x="73" y="90" width="17.7418" height="1.6129"/>
    <rect class="fil6" x="73" y="85" width="14.5161" height="1.6129"/>
    <rect class="fil6" x="73" y="82" width="14.5161" height="1.6129"/>
    <rect class="fil6" x="73" y="78" width="6.45157" height="1.6129"/>
   </g>
  </g>
  <g>
   <g>
    <path class="fil6" d="M52 350l-5 -2 0 -1c1,-1 2,-3 2,-4l1 0c1,0 3,-2 3,-3 0,-1 -1,-2 -2,-3l0 -2c0,-5 -3,-9 -8,-9 -5,0 -8,4 -8,9l0 2c-1,1 -2,2 -2,3 0,1 1,1 2,2l0 1c0,1 0,2 1,2l2 0c0,1 0,1 1,2l0 1 -5 2c-2,0 -3,2 -3,4l0 1c0,-1 -1,-2 -2,-2l0 -16c2,-1 3,-3 3,-6 0,-1 0,-3 -1,-4l-1 -1 -3 0 0 6 -4 0 0 -6 -3 0 -1 1c-1,1 -1,3 -1,4 0,3 1,5 3,6l0 16c-2,1 -3,3 -3,6 0,1 0,3 1,4l1 1 3 0 0 -6 4 0 0 6 3 0 1 -1c0,0 0,0 0,0l0 1 24 0 0 -10c0,-2 -1,-4 -3,-4zm-4 0l-2 4 -2 -2 3 -3 1 1zm-6 6l2 0 1 6 -4 0 1 -6zm2 -1l-2 0 0 -1 1 -1 1 1 0 1zm6 -14l-1 0 0 -3 1 0c1,0 1,1 1,2 0,1 0,1 -1,1zm-14 -6c0,-4 3,-7 7,-7 4,0 7,3 7,7l0 2c0,0 0,0 0,0l-1 0 -1 0c-1,0 -3,-1 -4,-2l-1 -1 -1 1c-1,1 -3,2 -4,2l-1 0 -1 0c0,0 0,0 0,0l0 -2zm0 3l1 0 0 3 -1 0c-1,0 -1,0 -1,-1 0,-1 0,-2 1,-2zm0 6c0,0 0,0 0,-1l0 0c0,0 0,0 0,0l1 0c0,0 0,0 0,1l-1 0zm4 1c0,1 1,1 2,1l2 0c1,0 2,-1 2,-2 0,-1 -1,-1 -2,-1l-2 0c-1,0 -2,0 -2,1l-2 0c0,-1 0,-1 0,-1l0 -5c2,0 4,-1 5,-2 1,1 3,2 5,2l0 5c0,2 -2,4 -5,4 -2,0 -3,-1 -4,-2l1 0zm1 -1c0,0 0,0 1,0l2 0c1,0 1,0 1,0 0,1 0,1 -1,1l-2 0c-1,0 -1,0 -1,-1zm2 5c1,0 2,-1 3,-1l0 0 -3 3 -3 -3 0 0c1,0 2,1 3,1zm-4 0l3 3 -2 2 -2 -4 1 -1zm-9 13l-2 0 0 -4c0,0 -1,-1 -1,-1l-4 0c0,0 -1,1 -1,1l0 4 -2 0c-1,-1 -1,-2 -1,-3 0,-2 1,-4 3,-5l0 0 0 -18 0 0c-2,-1 -3,-3 -3,-5 0,-1 0,-2 1,-3l2 0 0 4c0,0 1,1 1,1l4 0c0,0 1,-1 1,-1l0 -4 2 0c1,1 1,2 1,3 0,2 -1,4 -3,5l0 0 0 18 0 0c2,1 3,3 3,5 0,1 0,2 -1,3zm2 -8c0,-2 1,-3 2,-3l3 -1 2 5 2 0 0 0 -1 7 -3 0 0 -7 -1 0 0 7 -4 0 0 -8zm22 8l-4 0 0 -7 -1 0 0 7 -3 0 -1 -7 0 0 2 0 2 -5 3 1c1,0 2,1 2,3l0 8z"/>
    <circle class="fil6" cx="40" cy="339" r="1"/>
    <circle class="fil6" cx="46" cy="339" r="1"/>
    <rect class="fil6" x="26" y="343" width="1.20054" height="1.20054"/>
    <path class="fil6" d="M25 337c-1,0 -2,0 -2,1l0 4 1 0 0 -4c0,0 1,0 1,0 0,0 1,0 1,0l0 4 1 0 0 -4c0,-1 -1,-1 -2,-1z"/>
    <rect class="fil6" x="23" y="343" width="1.20054" height="1.20054"/>
    <rect class="fil6" x="23" y="346" width="1.20054" height="1.20054"/>
    <path class="fil6" d="M26 352c0,0 -1,0 -1,0 0,0 -1,0 -1,0l0 -4 -1 0 0 4c0,1 1,1 2,1 1,0 2,0 2,-1l0 -4 -1 0 0 4z"/>
    <rect class="fil6" x="26" y="346" width="1.20054" height="1.20054"/>
   </g>
  </g>
  <g>
   <g>
    <g>
     <g>
      <path class="fil6" d="M149 188c0,0 0,0 0,-1l-6 -5c0,-1 0,-1 -1,-1l0 -6c0,0 0,-1 0,-1 0,0 0,0 0,0 0,0 0,0 0,0l-6 -6c0,0 0,0 0,0 0,0 0,0 0,0 0,0 0,0 0,0l-26 0c-1,0 -1,0 -1,1l0 48c0,1 0,1 1,1l9 0 23 0c0,0 0,0 0,-1l0 -22 7 -6c0,-1 0,-1 0,-1zm-31 11l0 -12 14 0 0 5 -3 3 -2 1 0 -1c0,-1 0,-1 0,-1l-5 0c0,0 0,0 0,1l0 4 -4 0zm0 -18l0 -3 2 0 0 2 -2 1zm14 4l-15 0 0 0 8 -8 8 8 -1 0zm-9 10l3 0 0 3 -1 0 0 1 -2 0 0 -4zm17 -21l-3 0 0 -3 3 3zm-29 -4l24 0 0 5c0,0 0,0 1,0l5 0 0 8 -8 7 0 -3 2 0c0,0 1,0 1,0 0,-1 0,-1 0,-1l-10 -10c-1,-1 -1,-1 -2,0l-2 2 0 -1c0,0 -1,-1 -1,-1l-4 0c0,0 0,1 0,1l0 6c0,0 0,0 0,0l-3 3c0,0 0,0 0,1 0,0 1,0 1,0l2 0 0 13c0,0 0,0 0,0l5 0 1 0 -5 5c0,0 0,0 0,0 0,0 0,0 0,0l-2 3c-1,0 -1,0 -1,0 0,0 0,0 0,0l-2 3c-1,0 -1,1 0,1l4 4 -6 0 0 -46zm30 27l0 19 -20 0 3 -3 17 -16zm-22 19l-5 -5 2 -1 2 2c0,0 0,0 0,0 0,0 1,0 1,0 0,-1 0,-1 0,-2l-2 -1 2 -2 3 3c0,0 0,0 0,0 1,0 1,0 1,0 0,-1 0,-1 0,-1l-3 -3 2 -2 2 2c0,0 0,0 0,0 0,0 1,0 1,0 0,-1 0,-1 0,-1l-2 -2 2 -2 3 3c0,0 0,0 0,0 0,0 1,0 1,0 0,0 0,-1 0,-1l-3 -3 2 -2 1 2c1,0 1,0 1,0 0,0 0,0 1,0 0,-1 0,-1 0,-1l-2 -2 2 -2 3 3c0,0 0,0 0,0 0,0 1,0 1,0 0,0 0,-1 0,-1l-3 -3 1 -1c0,0 0,0 0,-1l1 0 1 2c1,0 1,0 1,0 0,0 0,0 1,0 0,0 0,-1 0,-1l-2 -2 1 -2 3 3c1,0 1,0 1,0 0,0 0,0 1,0 0,0 0,-1 0,-1l-3 -3 1 -2 2 2c0,0 1,0 1,0 0,0 0,0 0,0 1,0 1,-1 0,-1l-1 -2 1 -2 5 5 -28 28z"/>
      <path class="fil6" d="M102 168c-1,0 -3,1 -3,3l0 2 0 3 0 32 0 2c0,1 0,1 0,1l3 6c0,1 0,1 0,1 1,0 1,0 1,-1l3 -6c0,0 0,0 0,-1l0 -2 0 -32 0 -3 0 -2c0,-2 -2,-3 -4,-3zm-1 9l3 0 0 30 -3 0 0 -30zm0 -3l3 0 0 1 -3 0 0 -1zm1 -4c1,0 2,0 2,1l0 1 -3 0 0 -1c0,-1 1,-1 1,-1zm2 40l-2 5 -1 -5 0 -1 3 0 0 1 0 0z"/>
     </g>
    </g>
   </g>
  </g>
 </g>
</svg>
