<?xml version="1.0" encoding="UTF-8"?>
<!DOCTYPE svg PUBLIC "-//W3C//DTD SVG 1.1//EN" "http://www.w3.org/Graphics/SVG/1.1/DTD/svg11.dtd">
<!-- Creator: CorelDRAW X7 -->
<svg xmlns="http://www.w3.org/2000/svg" xml:space="preserve" width="100px" height="100px" version="1.1" style="shape-rendering:geometricPrecision; text-rendering:geometricPrecision; image-rendering:optimizeQuality; fill-rule:evenodd; clip-rule:evenodd"
viewBox="0 0 100 100"
 xmlns:xlink="http://www.w3.org/1999/xlink"
 xmlns:serif="http://www.serif.com/">
 <defs>
  <style type="text/css">
   <![CDATA[
    .fil0 {fill:black}
   ]]>
  </style>
 </defs>
 <g id="Слой_x0020_1">
  <metadata id="CorelCorpID_0Corel-Layer"/>
  <path class="fil0" d="M59 25l-44 0c-4,0 -7,3 -7,6l0 54c0,4 3,7 7,7l54 0c3,0 6,-3 6,-7l0 -43 8 0 0 46c0,6 -5,12 -12,12l-59 0c-6,0 -12,-6 -12,-12l0 -59c0,-7 6,-12 12,-12l47 0 0 8 0 0z"/>
  <polygon class="fil0" points="100,36 92,36 92,14 34,72 28,66 86,8 64,8 64,0 100,0 100,0 "/>
 </g>
</svg>
