<?xml version="1.0" encoding="UTF-8"?>
<!DOCTYPE svg PUBLIC "-//W3C//DTD SVG 1.1//EN" "http://www.w3.org/Graphics/SVG/1.1/DTD/svg11.dtd">
<!-- Creator: CorelDRAW X7 -->
<svg xmlns="http://www.w3.org/2000/svg" xml:space="preserve" width="400px" height="400px" version="1.1" style="shape-rendering:geometricPrecision; text-rendering:geometricPrecision; image-rendering:optimizeQuality; fill-rule:evenodd; clip-rule:evenodd"
viewBox="0 0 400 400"
 xmlns:xlink="http://www.w3.org/1999/xlink"
 enable-background="new 0 0 64 64"
 baseProfile="tiny">
 <defs>
  <style type="text/css">
   <![CDATA[
    .str1 {stroke:white;stroke-width:0.999215}
    .str0 {stroke:gray;stroke-width:2.36221}
    .str2 {stroke:white;stroke-width:1.61339}
    .fil3 {fill:none}
    .fil4 {fill:#512616}
    .fil5 {fill:#F96332}
    .fil6 {fill:white}
    .fil2 {fill:white;fill-rule:nonzero}
    .fil1 {fill:url(#id0)}
    .fil0 {fill:url(#id1)}
   ]]>
  </style>
  <linearGradient id="id0" gradientUnits="userSpaceOnUse" x1="367" y1="76.5002" x2="39.0001" y2="76.5002">
   <stop offset="0" style="stop-opacity:1; stop-color:black"/>
   <stop offset="1" style="stop-opacity:1; stop-color:#43832F"/>
  </linearGradient>
  <linearGradient id="id1" gradientUnits="userSpaceOnUse" x1="-0" y1="200.001" x2="368" y2="603.001">
   <stop offset="0" style="stop-opacity:1; stop-color:#252525"/>
   <stop offset="1" style="stop-opacity:1; stop-color:#277A08"/>
  </linearGradient>
 </defs>
 <g id="Слой_x0020_1">
  <metadata id="CorelCorpID_0Corel-Layer"/>
  <rect class="fil0" width="400" height="400"/>
  <rect class="fil1 str0" x="39" y="34" width="328" height="85.0006" rx="8" ry="8"/>
  <path class="fil2" d="M118 71l7 0c1,0 2,0 3,0 1,0 1,0 2,1 1,0 1,1 1,1 1,1 1,2 1,2 0,1 0,2 -1,3 0,0 -1,1 -2,1 2,1 2,1 3,2 0,1 1,2 1,3 0,0 0,1 -1,2 0,1 -1,1 -1,2 -1,0 -2,0 -3,1 0,0 -2,0 -4,0l-6 0 0 -18zm4 3l0 4 2 0c1,0 2,0 2,0 1,0 2,0 2,-1 0,0 0,-1 0,-1 0,-1 0,-1 0,-1 0,-1 -1,-1 -1,-1 -1,0 -2,0 -3,0l-2 0zm0 7l0 5 3 0c1,0 2,0 2,0 1,-1 1,-1 2,-1 0,0 0,-1 0,-2 0,0 0,-1 0,-1 -1,0 -1,-1 -1,-1 -1,0 -2,0 -4,0l-2 0z"/>
  <polygon id="1" class="fil2" points="136,76 139,76 139,84 144,76 148,76 148,89 144,89 144,81 139,89 136,89 "/>
  <path id="2" class="fil2" d="M151 89l0 -13 3 0 0 13 -3 0zm-2 -15l0 -3 3 0 0 3 -3 0zm5 0l0 -3 3 0 0 3 -3 0z"/>
  <path id="3" class="fil2" d="M161 83l0 -2c1,0 1,0 2,0 0,0 0,0 0,0 1,-1 1,-1 1,-1 0,-1 0,-1 -1,-2 0,0 0,0 -1,0 0,0 -1,0 -1,0 -1,0 -1,1 -1,2l-3 -1c0,-1 1,-2 2,-3 1,0 2,0 3,0 2,0 3,0 4,1 1,0 1,1 1,2 0,1 0,2 -1,2 0,0 0,1 -1,1 1,0 1,1 2,1 0,1 1,2 1,2 0,1 -1,2 -2,3 -1,1 -2,1 -4,1 -3,0 -5,-1 -6,-4l4 0c0,1 1,2 2,2 1,0 1,0 2,-1 0,0 0,0 0,-1 0,0 0,-1 0,-1 -1,0 -1,-1 -2,-1l-1 0z"/>
  <path id="4" class="fil2" d="M181 89l-10 0 0 3 -3 0 0 -6 2 0c0,-1 1,-2 1,-3 1,-1 1,-4 1,-7l10 0 0 10 2 0 0 6 -3 0 0 -3zm-2 -3l0 -7 -4 0c0,3 -1,6 -2,7l6 0z"/>
  <polygon id="5" class="fil2" points="193,76 197,76 200,85 204,76 208,76 208,89 205,89 205,80 202,89 199,89 196,80 196,89 193,89 "/>
  <path id="6" class="fil2" d="M213 80l-3 -1c1,-1 1,-2 2,-3 1,0 2,0 4,0 1,0 3,0 3,0 1,0 2,1 2,1 0,1 0,2 0,4l0 3c0,2 0,2 0,3 1,1 1,1 1,2l-3 0c0,-1 -1,-1 -1,-1 0,0 0,-1 0,-1 0,1 -1,1 -2,2 0,0 -1,0 -2,0 -1,0 -2,0 -3,-1 -1,-1 -1,-2 -1,-3 0,-1 0,-1 1,-2 0,0 0,-1 1,-1 1,0 2,-1 3,-1 1,0 2,0 3,-1l0 0c0,-1 0,-1 0,-1 -1,-1 -1,-1 -2,-1 -1,0 -1,0 -2,1 0,0 0,0 -1,1zm5 3c0,0 -1,0 -2,0 -1,0 -2,0 -2,1 0,0 -1,0 -1,1 0,0 1,1 1,1 0,0 1,1 1,1 1,0 1,-1 2,-1 0,0 1,-1 1,-1 0,0 0,-1 0,-2l0 0z"/>
  <path id="7" class="fil2" d="M225 76l3 0 0 8 5 -8 3 0 0 13 -3 0 0 -8 -5 8 -3 0 0 -13zm8 -5l1 0c0,1 0,2 -1,2 0,1 -1,1 -2,1 -1,0 -2,0 -3,-1 -1,0 -1,-1 -1,-2l1 0c1,0 1,1 1,1 0,0 1,0 2,0 0,0 1,0 1,0 0,0 1,-1 1,-1z"/>
  <path id="8" class="fil2" d="M251 80l-3 0c0,0 -1,-1 -1,-1 0,-1 -1,-1 -2,-1 0,0 -1,1 -2,1 0,1 0,2 0,3 0,2 0,3 0,3 1,1 2,1 2,1 1,0 2,0 2,0 0,-1 1,-1 1,-2l3 0c0,2 -1,3 -2,4 -1,1 -2,1 -4,1 -2,0 -3,-1 -4,-2 -1,-1 -2,-3 -2,-5 0,-2 1,-3 2,-5 1,-1 2,-1 4,-1 2,0 3,0 4,1 1,0 2,1 2,3z"/>
  <polygon id="9" class="fil2" points="252,76 264,76 264,79 260,79 260,89 256,89 256,79 252,79 "/>
  <path id="10" class="fil2" d="M266 76l3 0 0 2c0,-1 1,-1 2,-2 0,0 1,0 2,0 1,0 3,0 4,1 1,1 1,3 1,5 0,2 0,4 -1,5 -1,1 -3,2 -4,2 -1,0 -1,0 -2,0 -1,-1 -1,-1 -2,-2l0 7 -3 0 0 -18zm3 6c0,2 0,3 1,3 1,1 1,1 2,1 1,0 1,0 2,-1 1,0 1,-1 1,-3 0,-1 0,-2 -1,-3 -1,0 -1,-1 -2,-1 -1,0 -2,1 -2,1 -1,1 -1,2 -1,3z"/>
  <path id="11" class="fil2" d="M283 80l-3 -1c1,-1 1,-2 2,-3 1,0 2,0 4,0 2,0 3,0 3,0 1,0 2,1 2,1 0,1 0,2 0,4l0 3c0,2 0,2 1,3 0,1 0,1 0,2l-3 0c0,-1 0,-1 -1,-1 0,0 0,-1 0,-1 0,1 -1,1 -2,2 0,0 -1,0 -2,0 -1,0 -2,0 -3,-1 -1,-1 -1,-2 -1,-3 0,-1 0,-1 1,-2 0,0 0,-1 1,-1 1,0 2,-1 3,-1 1,0 2,0 3,-1l0 0c0,-1 0,-1 0,-1 -1,-1 -1,-1 -2,-1 -1,0 -1,0 -2,1 0,0 0,0 -1,1zm5 3c0,0 -1,0 -2,0 -1,0 -2,0 -2,1 0,0 -1,0 -1,1 0,0 1,1 1,1 0,0 1,1 1,1 1,0 2,-1 2,-1 1,0 1,-1 1,-1 0,0 0,-1 0,-2l0 0z"/>
  <rect class="fil3 str1" x="38" y="150" width="100" height="140" rx="10" ry="8"/>
  <rect class="fil3 str1" x="153" y="150" width="100" height="140" rx="10" ry="8"/>
  <rect class="fil3 str1" x="268" y="150" width="100" height="140" rx="10" ry="8"/>
  <path class="fil2" d="M69 273l1 -1c0,1 0,1 1,2 0,0 0,0 1,0 1,0 1,0 2,0 0,-1 0,-1 0,-1 0,-1 0,-1 0,-2 -1,0 -1,0 -2,0l-1 0 0 -1c1,0 1,0 2,0 0,0 0,0 0,-1 1,0 1,0 1,0 0,-1 0,-1 -1,-1 0,-1 0,-1 -1,-1 0,0 -1,0 -1,0 0,1 -1,1 -1,1 0,1 0,1 0,1l-1 0c0,-2 1,-3 3,-3 1,0 2,0 2,1 1,0 1,1 1,1 0,1 0,2 -1,2 0,1 1,1 1,1 0,1 0,1 0,2 0,0 0,1 -1,2 0,0 -1,0 -2,0 -2,0 -3,-1 -3,-2z"/>
  <path id="1" class="fil2" d="M81 274c0,1 -1,1 -1,1 -1,0 -1,0 -1,0 -1,0 -2,0 -2,0 -1,-1 -1,-1 -1,-2 0,0 0,0 1,0 0,-1 0,-1 0,-1 0,0 1,0 1,0 0,0 0,-1 1,-1 1,0 1,0 2,0 0,0 0,0 0,0 0,-1 0,-1 0,-1 -1,0 -1,-1 -2,-1 0,0 -1,1 -1,1 0,0 0,0 0,1l-2 0c1,-1 1,-1 1,-2 0,0 1,0 1,0 0,0 1,0 1,0 1,0 1,0 2,0 0,0 0,0 1,0 0,0 0,1 0,1 0,0 0,0 0,1l0 1c0,1 0,2 0,2 0,1 0,1 0,1l-1 0c0,0 0,0 0,-1zm0 -2c-1,0 -1,0 -2,0 0,0 -1,0 -1,1 0,0 0,0 0,0 0,0 -1,0 -1,0 0,1 1,1 1,1 0,0 0,0 1,0 0,0 1,0 1,0 0,0 0,0 1,-1 0,0 0,0 0,-1l0 0z"/>
  <polygon id="2" class="fil2" points="84,269 85,269 87,274 89,269 91,269 91,275 89,275 89,270 88,275 87,275 85,270 85,275 84,275 "/>
  <path id="3" class="fil2" d="M92 267l0 -1 1 0 0 1 -1 0zm0 8l0 -6 1 0 0 6 -1 0z"/>
  <path id="4" class="fil2" d="M95 278l0 -9 1 0 0 1c0,-1 0,-1 1,-1 0,0 0,0 1,0 0,0 1,0 1,0 1,0 1,1 1,1 1,1 1,1 1,2 0,1 0,1 -1,2 0,0 0,1 -1,1 0,0 -1,0 -1,0 -1,0 -1,0 -1,0 0,0 -1,0 -1,-1l0 4 -1 0zm1 -6c0,1 0,1 0,2 1,0 1,0 2,0 0,0 1,0 1,0 0,-1 0,-1 0,-2 0,-1 0,-2 0,-2 0,0 -1,-1 -1,-1 -1,0 -1,1 -1,1 -1,0 -1,1 -1,2z"/>
  <polygon id="5" class="fil2" points="102,269 103,269 103,274 106,269 107,269 107,275 106,275 106,270 103,275 102,275 "/>
  <path class="fil2" d="M188 276l0 -9 3 0c1,0 1,0 2,0 0,0 1,1 1,1 0,0 0,1 0,1 0,1 0,1 0,1 0,1 -1,1 -1,1 0,0 1,0 1,1 0,0 1,1 1,1 0,1 0,1 -1,1 0,1 0,1 0,1 -1,0 -1,1 -1,1 -1,0 -1,0 -2,0l-3 0zm1 -5l2 0c1,0 1,0 1,0 0,-1 1,-1 1,-1 0,0 0,0 0,-1 0,0 0,0 0,-1 0,0 -1,0 -1,0 0,0 -1,0 -1,0l-2 0 0 3zm0 4l2 0c1,0 1,0 1,0 0,0 1,0 1,-1 0,0 0,0 0,0 0,0 0,-1 0,-1 0,0 0,0 0,-1 0,0 0,0 -1,0 0,0 0,0 -1,0l-2 0 0 3z"/>
  <polygon id="1" class="fil2" points="196,269 197,269 197,274 200,269 201,269 201,276 200,276 200,271 197,276 196,276 "/>
  <path id="2" class="fil2" d="M203 276l0 -7 2 0 0 7 -2 0zm-1 -7l0 -2 1 0 0 2 -1 0zm3 0l0 -2 1 0 0 2 -1 0z"/>
  <path id="3" class="fil2" d="M208 273l0 -1c0,0 1,0 1,0 0,0 0,0 0,0 1,-1 1,-1 1,-1 0,0 0,0 -1,-1 0,0 0,0 0,0 -1,0 -1,0 -2,1l-1 0c1,-1 1,-2 3,-2 0,0 1,0 1,1 1,0 1,1 1,1 0,1 0,1 -1,1 0,1 1,1 1,1 0,0 0,1 0,1 0,1 0,1 -1,1 0,1 -1,1 -1,1 -2,0 -3,-1 -3,-2l1 0c0,0 0,0 1,1 0,0 0,0 1,0 0,0 0,0 1,0 0,0 0,-1 0,-1 0,0 0,-1 0,-1 0,0 -1,0 -1,0 0,0 0,0 -1,0 0,0 0,0 0,0z"/>
  <path id="4" class="fil2" d="M213 269l4 0 0 6 1 0 0 3 -1 0 0 -2 -5 0 0 2 -1 0 0 -3 1 0c1,-1 1,-3 1,-6zm1 1c0,2 -1,4 -1,5l3 0 0 -5 -2 0z"/>
  <path class="fil2" d="M284 267l1 0 0 4c1,0 1,0 1,-1 1,0 1,0 1,-1 0,-1 1,-1 1,-1 0,-1 0,-1 0,-1 1,0 1,0 1,0 1,0 1,0 1,0l0 1c0,0 0,0 0,0 0,0 0,0 0,0 -1,0 -1,0 -1,0 0,0 -1,1 -1,1 0,1 0,2 -1,2 0,0 0,0 0,0 0,0 1,1 1,2l2 3 -1 0 -2 -3c0,0 0,-1 -1,-1 0,0 0,0 -1,0l0 4 -1 0 0 -9z"/>
  <path id="1" class="fil2" d="M291 273c0,-2 0,-3 1,-3 0,-1 1,-1 2,-1 1,0 1,0 2,1 0,1 1,1 1,2 0,1 0,2 -1,2 0,1 0,1 -1,2 0,0 -1,0 -1,0 -1,0 -2,0 -2,-1 -1,0 -1,-1 -1,-2zm1 0c0,0 0,1 0,1 1,1 1,1 2,1 0,0 1,0 1,-1 0,0 1,-1 1,-1 0,-1 -1,-2 -1,-2 0,-1 -1,-1 -1,-1 -1,0 -1,0 -2,1 0,0 0,1 0,2z"/>
  <polygon id="2" class="fil2" points="298,269 299,269 299,272 302,272 302,269 303,269 303,276 302,276 302,273 299,273 299,276 298,276 "/>
  <path id="3" class="fil2" d="M309 273l1 1c0,0 0,1 -1,1 0,1 -1,1 -1,1 -1,0 -2,0 -3,-1 0,0 0,-1 0,-2 0,-1 0,-2 0,-2 0,-1 1,-1 1,-1 1,-1 1,-1 2,-1 0,0 1,0 1,1 1,0 1,1 1,1l-1 0c0,0 0,0 0,-1 -1,0 -1,0 -1,0 -1,0 -1,0 -2,1 0,0 0,1 0,2 0,0 0,1 0,1 1,1 1,1 2,1 0,0 0,0 1,0 0,-1 0,-1 0,-2z"/>
  <path id="4" class="fil2" d="M311 278l0 -1c0,0 0,0 1,0 0,0 0,0 0,0 0,0 1,0 1,0 0,0 0,0 0,-1 0,0 0,0 0,0l-2 -7 1 0 1 4c0,1 0,1 1,2 0,-1 0,-1 0,-2l1 -4 2 0 -3 7c0,1 0,1 -1,1 0,1 0,1 0,1 0,0 -1,0 -1,0 0,0 -1,0 -1,0z"/>
  <path id="5" class="fil2" d="M318 269l5 0 0 7 -1 0 0 -6 -3 0 0 3c0,1 0,2 0,2 0,0 0,0 -1,1 0,0 0,0 -1,0 0,0 0,0 0,0l0 -1 0 0c0,0 0,0 0,0 1,0 1,0 1,0 0,-1 0,-1 0,-1l0 -5z"/>
  <path id="6" class="fil2" d="M324 269l2 0 0 3 1 0c1,0 2,0 2,0 1,1 1,1 1,2 0,0 0,1 -1,1 0,1 -1,1 -2,1l-3 0 0 -7zm2 6l1 0c0,0 1,0 1,0 1,-1 1,-1 1,-1 0,0 0,-1 -1,-1 0,0 0,0 -1,0l-1 0 0 2z"/>
  <polygon id="7" class="fil2" points="329,269 335,269 335,270 333,270 333,276 332,276 332,270 329,270 "/>
  <path id="8" class="fil2" d="M340 275c-1,0 -1,1 -1,1 -1,0 -1,0 -2,0 0,0 -1,0 -1,-1 -1,0 -1,0 -1,-1 0,0 0,-1 0,-1 1,0 1,0 1,0 0,-1 1,-1 1,-1 0,0 0,0 1,0 1,0 1,0 2,0 0,0 0,-1 0,-1 0,0 0,0 -1,-1 0,0 0,0 -1,0 0,0 -1,0 -1,0 0,1 0,1 -1,1l-1 0c1,0 1,-1 1,-1 0,0 0,0 1,-1 0,0 1,0 1,0 1,0 1,0 2,0 0,1 0,1 0,1 1,0 1,0 1,1 0,0 0,0 0,1l0 1c0,1 0,2 0,2 0,0 0,1 0,1l-1 0c0,0 0,-1 0,-1zm0 -2c-1,0 -1,0 -2,0 -1,0 -1,0 -1,0 0,0 0,0 0,1 -1,0 -1,0 -1,0 0,0 1,1 1,1 0,0 0,0 1,0 0,0 1,0 1,0 0,0 0,-1 1,-1 0,0 0,-1 0,-1l0 0z"/>
  <polygon id="9" class="fil2" points="343,269 344,269 344,275 347,275 347,269 348,269 348,275 349,275 349,278 348,278 348,276 343,276 "/>
  <path id="10" class="fil2" d="M350 268l0 -1 1 0 0 1 -1 0zm0 8l0 -7 1 0 0 7 -1 0z"/>
  <path id="11" class="fil2" d="M358 269l0 7 -2 0 0 -3 0 0c-1,0 -1,0 -1,0 0,1 0,1 -1,1l-1 2 -1 0 1 -2c0,0 1,-1 1,-1 -1,0 -1,0 -1,-1 -1,0 -1,0 -1,-1 0,0 0,-1 1,-1 0,0 1,-1 2,-1l3 0zm-2 1l-1 0c-1,0 -1,0 -1,1 -1,0 -1,0 -1,0 0,1 1,1 1,1 0,0 1,0 1,0l1 0 0 -2z"/>
  <path class="fil4 str1" d="M0 320l58 0c4,0 7,3 7,8l0 35c0,4 -3,7 -7,7l-58 0 0 -50z"/>
  <g id="_1739857258624">
   <g>
    <path class="fil5" d="M250 357l0 -24c0,-1 0,-2 -1,-2l-21 -12c0,0 -1,0 -1,0l-21 12c-1,0 -1,1 -1,2l0 24c0,0 0,1 1,1l21 12c0,0 1,0 1,0l21 -12c1,0 1,-1 1,-1z"/>
    <path class="fil5" d="M367 345l-6 12c0,0 -1,1 -1,1 0,0 0,0 -1,0 0,0 0,0 0,0l-104 0c-1,0 -2,-1 -2,-2l0 -23c0,-1 1,-2 2,-2l104 0c0,0 0,0 1,0 0,0 0,0 0,0 0,1 1,1 1,1l6 12c1,0 1,1 0,1z"/>
    <g>
     <g>
      <path class="fil6" d="M242 332l-2 2c0,0 0,0 0,0l-27 0c0,0 0,0 0,0l0 -2c0,0 0,-1 0,-1l29 0c0,0 0,0 0,1 0,0 0,0 0,0z"/>
     </g>
     <g>
      <path class="fil6" d="M242 357c0,1 0,1 0,1l-29 0c0,0 0,0 0,-1l0 -2c0,0 0,0 0,0l27 0c0,0 0,0 0,0l2 2c0,0 0,0 0,0z"/>
     </g>
     <g>
      <path class="fil6" d="M230 353c0,0 0,0 -1,0l-3 0c0,0 0,0 0,0l-6 -7 0 6c0,1 0,1 0,1l-3 0c0,0 0,0 0,-1l0 -15c0,0 0,-1 0,-1l3 0c0,0 0,1 0,1l0 6 6 -7c0,0 0,0 0,0l3 0c0,0 1,0 1,1 0,0 0,0 0,0l-8 7 8 8c0,0 0,0 0,1z"/>
     </g>
     <g>
      <path class="fil6" d="M237 353c0,0 0,0 0,0l-3 0c0,0 0,0 0,0l-8 -9c0,0 0,0 0,0l8 -8c0,0 0,0 0,0l3 0c0,0 0,0 0,1 0,0 0,0 0,0l-7 7 7 8c0,0 0,0 0,1z"/>
     </g>
    </g>
    <g>
     <path class="fil6" d="M269 339c0,0 0,0 0,-1l0 0 0 -1 0 0c0,-1 0,-1 0,-1l0 0 -11 0 0 0c-1,0 -1,0 -1,1l0 0 0 1 0 0c0,1 0,1 1,1l0 0 4 0c0,0 0,0 0,0l0 13 0 1c0,0 0,0 0,0l0 0 2 0 0 0c1,0 1,0 1,0l0 -1 0 -13c0,0 0,0 0,0l4 0 0 0z"/>
     <g>
      <path class="fil6" d="M273 341c-1,0 -2,1 -3,2 -1,1 -2,2 -2,4 0,2 1,3 2,4 1,1 2,2 4,2 2,0 3,0 3,-1 0,0 1,0 1,0 0,0 0,0 0,0l0 -2 0 0c0,0 -1,0 -1,0l0 0c-1,0 -2,1 -3,1 -1,0 -2,-1 -2,-1 -1,-1 -1,-1 -1,-2 0,0 0,0 0,0l7 0 0 0c0,0 0,0 0,-1l0 0 0 0c0,-2 0,-3 -1,-4 -1,-1 -2,-2 -4,-2l0 0zm-2 5c0,0 0,0 0,-1 0,-1 1,-2 3,-2 0,0 1,1 1,1 1,1 1,1 1,1 0,1 0,1 0,1l-5 0z"/>
     </g>
     <g>
      <path class="fil6" d="M286 341c-1,0 -2,1 -3,1 0,0 0,0 0,0l0 0 0 0c0,-1 0,-1 -1,-1l0 0 -1 0 0 0c-1,0 -1,0 -1,1l0 0 0 14 0 0c0,0 0,0 1,0l0 0 2 0 0 0c0,0 0,0 0,0l0 0 0 -4c0,0 0,0 0,0 1,1 2,1 3,1 2,0 3,-1 4,-2 1,-1 1,-2 1,-4 0,-2 0,-3 -1,-4 -1,-1 -2,-2 -4,-2l0 0zm0 2c1,0 1,1 2,1 0,1 0,2 0,3 0,2 0,4 -2,4 -1,0 -2,-1 -2,-1 -1,-1 -1,-2 -1,-3 0,-1 0,-2 1,-3 0,0 1,-1 2,-1z"/>
     </g>
     <path class="fil6" d="M293 336l0 0c0,0 0,0 0,1l0 0 0 15 0 1c0,0 0,0 0,0l1 0 1 0 0 0c1,0 1,0 1,0l0 -1 0 -15 0 0c0,-1 0,-1 -1,-1l0 0 -2 0 0 0z"/>
     <g>
      <path class="fil6" d="M307 343c-1,-1 -2,-2 -4,-2 -2,0 -3,1 -4,2 -1,1 -1,2 -1,4 0,2 0,3 1,4 1,1 2,2 4,2 2,0 3,-1 4,-2 1,-1 1,-2 1,-4 0,-2 0,-3 -1,-4l0 0zm-4 8c-1,0 -2,-1 -2,-1 -1,-1 -1,-2 -1,-3 0,-2 1,-4 3,-4 1,0 2,1 2,1 1,1 1,2 1,3 0,2 -1,4 -3,4z"/>
     </g>
     <path class="fil6" d="M316 345c-1,0 -1,0 0,-1l7 -7 0 0c0,0 0,-1 0,-1l0 0 -3 0c0,0 0,0 0,1l-6 6c-1,0 -1,0 -1,0l0 -6 0 0c0,-1 0,-1 0,-1l0 0 -2 0 0 0c0,0 0,0 0,1l0 0 0 15 0 0c0,1 0,1 0,1l0 0 2 0 0 0c0,0 0,0 0,-1l0 0 0 -6c0,0 0,0 1,0l5 7c0,0 1,0 1,0l2 0 0 0c1,0 1,-1 0,-1l0 0 -6 -7z"/>
     <path class="fil6" d="M328 341c0,0 -1,0 -2,1 0,0 0,0 0,0l0 0c0,-1 0,-1 0,-1l0 0 -2 0 0 0c0,0 0,0 0,1l0 0 0 10 0 0c0,1 0,1 0,1l0 0 2 0 0 0c0,0 0,0 0,-1l0 0 0 -4c0,-2 0,-3 1,-4 0,0 1,0 2,0 0,0 0,0 1,0l0 0c0,0 0,0 0,-1l0 0 0 -1 0 0c0,0 0,-1 0,-1l0 0c-1,0 -1,0 -2,0z"/>
     <g>
      <path class="fil6" d="M335 341c-1,0 -2,0 -3,1l0 0c-1,0 -1,0 -1,0l0 0 0 2 0 0c0,0 1,0 1,0l0 0c1,0 2,-1 3,-1 1,0 1,1 2,1 0,0 0,1 0,1 0,0 0,1 0,1 0,0 0,0 -1,0 0,0 0,0 0,0 -2,0 -3,0 -4,1 -1,0 -2,1 -2,2 0,1 1,2 1,3 1,1 2,1 3,1 1,0 2,0 3,-1 0,0 0,0 0,0l0 0 0 1c0,0 1,0 1,0l0 0 1 0 0 0c1,0 1,0 1,0l0 -1 0 -6c0,-2 -1,-3 -1,-4 -1,0 -2,-1 -4,-1l0 0zm0 10c-1,0 -1,0 -2,-1 0,0 0,0 0,-1 0,0 0,-1 0,-1 1,0 1,0 3,0 0,0 1,0 1,0 0,0 0,0 0,0l0 0c0,1 0,2 0,2 -1,0 -1,1 -2,1z"/>
     </g>
     <path class="fil6" d="M357 336l-3 0 0 0c0,0 0,0 0,1l0 0 -4 10c0,1 0,1 0,0l-4 -10 0 -1c0,0 0,0 0,0l0 0 -3 0 0 0c0,0 -1,0 -1,1l0 0 0 15 0 0c0,1 1,1 1,1l0 0 2 0 0 0c0,0 0,0 0,-1l0 0 0 -10c0,0 0,0 1,0l3 10 0 0c0,0 0,0 0,0l0 0 2 0 0 0c0,0 0,0 0,0l0 0 3 -10c0,0 1,0 1,0l0 11 0 0c0,0 0,0 0,0l0 0 2 0 0 0c0,0 0,0 0,0l0 0 0 -16 0 0c0,-1 0,-1 0,-1l0 0z"/>
    </g>
   </g>
  </g>
  <g>
   <polygon class="fil3 str2" points="67,218 67,169 116,218 "/>
   <polygon class="fil3 str2" points="78,211 78,191 97,211 "/>
   <line class="fil3 str2" x1="73" y1="185" x2="68" y2= "185" />
   <line class="fil3 str2" x1="71" y1="191" x2="68" y2= "191" />
   <line class="fil3 str2" x1="73" y1="198" x2="68" y2= "198" />
   <line class="fil3 str2" x1="71" y1="204" x2="68" y2= "204" />
   <line class="fil3 str2" x1="73" y1="211" x2="68" y2= "211" />
   <polygon class="fil3 str2" points="87,168 82,173 111,202 117,203 116,197 "/>
   <line class="fil3 str2" x1="87" y1="177" x2="91" y2= "173" />
  </g>
  <g>
   <path class="fil6" d="M185 201c-4,0 -8,4 -8,8 0,4 4,7 8,7 4,0 7,-3 7,-7 0,-4 -3,-8 -7,-8zm0 11c-2,0 -3,-2 -3,-3 0,-2 1,-3 3,-3 1,0 3,1 3,3 0,1 -2,3 -3,3zm46 -11c-4,0 -7,3 -7,7 0,5 3,8 7,8 4,0 8,-3 8,-8 0,-4 -4,-7 -8,-7zm0 10c-1,0 -3,-1 -3,-3 0,-1 2,-2 3,-2 2,0 3,1 3,2 0,2 -1,3 -3,3zm-66 -7c0,2 1,3 2,3l7 0c1,0 1,0 1,0 1,-5 5,-8 10,-8 5,0 9,3 9,8 0,0 1,0 1,0l1 0 10 0 0 -41 -41 0 0 38zm7 -23c0,-2 2,-3 4,-3 2,0 4,1 5,3 0,0 0,-1 0,-1l15 0c1,0 2,1 2,3l0 0c0,1 -1,2 -2,2l-15 0c0,0 0,0 0,0 -1,1 -3,2 -5,2 -2,0 -4,-1 -4,-3l4 0 0 -3 -4 0zm73 21l-2 0 0 -7c0,-3 -2,-4 -4,-4l-8 0c0,0 0,-1 0,-1l-12 -11c-1,-1 -1,-1 -2,-1l-9 0 0 29 13 0c0,0 1,0 1,0 0,-5 4,-9 9,-9 5,0 9,4 10,9 0,0 0,0 1,0l1 0c1,0 2,-1 2,-3l0 -2c0,0 0,0 0,0zm-20 -11l-13 0c0,0 -1,-1 -1,-1l0 -8c0,-1 1,-1 1,-1l4 0c1,0 1,0 1,0l9 9c0,0 0,1 -1,1z"/>
  </g>
  <g>
   <g>
    <path class="fil6" d="M332 167l-23 0c-2,-2 -4,-3 -7,-3 -4,0 -8,4 -8,8l0 4 0 0c0,0 0,0 0,0 0,2 2,3 3,3 1,1 1,2 2,3l0 0 -5 2c-2,0 -3,2 -3,3l0 6 13 0 0 21 37 0 0 -38 -9 -9zm1 3l5 5 -5 0 0 -5zm-25 7l0 -2c0,0 1,1 1,1 0,1 -1,1 -1,2 0,-1 0,-1 0,-1zm-6 -11c4,0 7,3 7,6l0 1c-1,0 -1,0 -2,0 -1,0 -3,-1 -4,-1l-1 -1 -1 1c-1,0 -2,1 -4,1 0,0 -1,0 -1,0l0 -1c0,-3 3,-6 6,-6zm-6 10c0,0 0,-1 1,-1l0 2c0,0 0,0 0,1 -1,-1 -1,-1 -1,-2zm2 1l0 -3c2,0 3,0 4,-1 2,1 3,1 4,1l0 3c0,2 -1,4 -4,4 -2,0 -4,-2 -4,-4zm4 7l-1 -2c0,0 1,1 1,1 1,0 1,-1 2,-1l-2 2zm3 -1l2 1 -2 4 -2 -2 2 -3zm-5 0l1 3 -1 2 -2 -4 2 -1zm-7 4c0,-1 0,-2 1,-2l2 -1 4 6 2 -3 3 3 3 -6 2 1c1,0 2,1 2,2l0 4 -3 0 0 -3 -2 0 0 3 -10 0 0 -3 -1 0 0 3 -3 0 0 -4zm13 25l0 -19 8 0 0 -6c0,-1 -2,-3 -3,-3l-5 -2 0 0c0,-1 1,-2 1,-3 2,0 3,-1 3,-3l0 -4c0,-1 0,-2 0,-3l21 0 0 8 8 0 0 35 -33 0z"/>
    <path class="fil6" d="M329 197l1 -1 -1 -1 -1 1c-1,-1 -3,-2 -5,-2 -2,0 -3,1 -5,2l-1 -1 -1 1 1 1c-1,1 -2,3 -2,5 0,2 1,4 2,5l-1 1 1 1 1 -1c2,1 3,2 5,2 2,0 4,-1 5,-2l1 1 1 -1 -1 -1c2,-1 2,-3 2,-5 0,-2 0,-4 -2,-5zm-6 -2c2,0 3,1 4,2l-4 4 -4 -4c1,-1 3,-2 4,-2zm-6 7c0,-2 0,-3 1,-4l4 4 -4 4c-1,-1 -1,-3 -1,-4zm6 6c-1,0 -3,0 -4,-1l4 -4 4 4c-1,1 -2,1 -4,1zm1 -6l4 -4c1,1 2,2 2,4 0,1 -1,3 -2,4l-4 -4z"/>
    <path class="fil6" d="M331 179l-1 -1 -1 1c-1,-2 -3,-3 -6,-3 -4,0 -8,4 -8,8 0,5 4,8 8,8 5,0 8,-3 8,-8 0,-1 0,-3 -1,-4l1 -1zm-1 5c0,4 -3,7 -7,7 -3,0 -6,-3 -6,-7 0,-3 3,-6 6,-6 2,0 4,1 5,2l-6 5 -2 -2 -1 1 3 4 7 -7c0,1 1,2 1,3z"/>
    <path class="fil6" d="M335 191c-1,0 -2,1 -2,2 0,1 1,2 2,2 2,0 3,-1 3,-2 0,-1 -1,-2 -3,-2zm0 3c0,0 0,-1 0,-1 0,0 0,-1 0,-1 1,0 1,1 1,1 0,0 0,1 -1,1z"/>
    <rect class="fil6" x="335" y="187" width="1.6129" height="1.6129"/>
    <rect class="fil6" x="335" y="184" width="1.6129" height="1.6129"/>
    <rect class="fil6" x="335" y="181" width="1.6129" height="1.6129"/>
    <rect class="fil6" x="335" y="204" width="1.6129" height="1.6129"/>
    <rect class="fil6" x="335" y="200" width="1.6129" height="1.6129"/>
    <rect class="fil6" x="335" y="197" width="1.6129" height="1.6129"/>
   </g>
  </g>
  <g>
   <g>
    <path class="fil6" d="M107 69l0 -6 -3 0c0,-1 -1,-2 -1,-3l2 -2 -5 -5 -2 2c-1,0 -2,-1 -3,-1l0 -3 -7 0 0 3c-1,0 -2,1 -2,1l-3 -2 -1 1 -12 0 0 -1c0,-1 -1,-2 -3,-2l-3 0c-1,0 -2,1 -2,2l0 1 -5 0 0 47 37 0 0 -19 1 0 0 -3c1,-1 2,-1 3,-1l2 1 5 -4 -2 -3c0,0 1,-1 1,-2l3 -1zm-39 6l-1 0 0 -13 1 0 0 13zm-5 -13l2 0 0 13 -2 0 0 -13zm4 15l-1 2 -2 -2 3 0zm1 -16l-5 0 0 -2 5 0 0 2zm-2 21l2 -4 2 0 0 7 -8 0 0 -7 1 0 3 4zm-2 -29l3 0c1,0 1,0 1,0l0 4 -5 0 0 -4c0,0 1,0 1,0zm28 46l-34 0 0 -43 4 0 0 20 0 1 -2 0 0 10 11 0 0 -10 -2 0 1 -1 0 -20 10 0 -1 2 1 2c0,1 -1,2 -1,3l-3 0 0 6 3 1c0,1 1,2 1,2l-1 3 4 4 3 -1c0,0 1,0 2,1l0 3 4 0 0 17zm11 -30l-1 0c0,1 0,2 -1,3l0 0 2 3 -3 2 -2 -1 -1 0c-1,1 -2,1 -3,1l0 0 -1 3 -3 0 -1 -3 0 0c-1,0 -2,0 -3,-1l0 0 -3 1 -2 -2 1 -3 0 0c-1,-1 -1,-2 -1,-3l0 0 -3 -1 0 -3 3 -1 0 -1c0,-1 0,-1 1,-2l0 -1 -1 -2 2 -3 3 2 0 0c1,-1 2,-1 3,-2l0 0 1 -2 3 0 1 2 0 0c1,1 2,1 3,2l1 0 2 -2 3 3 -2 2 0 1c1,1 1,1 1,2l1 1 2 1 0 3 -2 1z"/>
    <path class="fil6" d="M92 57c-6,0 -10,4 -10,9 0,6 4,10 10,10 5,0 9,-4 9,-10 0,-5 -4,-9 -9,-9zm0 17c-5,0 -9,-3 -9,-8 0,-4 4,-8 9,-8 4,0 8,4 8,8 0,5 -4,8 -8,8z"/>
    <path class="fil6" d="M92 60c-4,0 -7,3 -7,6 0,4 3,7 7,7 3,0 6,-3 6,-7 0,-3 -3,-6 -6,-6zm0 11c-3,0 -5,-2 -5,-5 0,-2 2,-4 5,-4 2,0 4,2 4,4 0,3 -2,5 -4,5z"/>
    <path class="fil6" d="M72 87l-2 1 -10 0 0 10 11 0 0 -9 2 -1 -1 -1zm-2 9l-8 0 0 -6 7 0 -4 3 -1 -1 -1 2 2 2 5 -5 0 5z"/>
    <rect class="fil6" x="89" y="96" width="1.6129" height="1.6129"/>
    <rect class="fil6" x="73" y="96" width="14.5161" height="1.6129"/>
    <rect class="fil6" x="73" y="93" width="17.7418" height="1.6129"/>
    <rect class="fil6" x="73" y="90" width="17.7418" height="1.6129"/>
    <rect class="fil6" x="73" y="85" width="14.5161" height="1.6129"/>
    <rect class="fil6" x="73" y="82" width="14.5161" height="1.6129"/>
    <rect class="fil6" x="73" y="78" width="6.45157" height="1.6129"/>
   </g>
  </g>
  <g>
   <g>
    <path class="fil6" d="M52 350l-5 -2 0 -1c1,-1 2,-3 2,-4l1 0c1,0 3,-2 3,-3 0,-1 -1,-2 -2,-3l0 -2c0,-5 -3,-9 -8,-9 -5,0 -8,4 -8,9l0 2c-1,1 -2,2 -2,3 0,1 1,1 2,2l0 1c0,1 0,2 1,2l2 0c0,1 0,1 1,2l0 1 -5 2c-2,0 -3,2 -3,4l0 1c0,-1 -1,-2 -2,-2l0 -16c2,-1 3,-3 3,-6 0,-1 0,-3 -1,-4l-1 -1 -3 0 0 6 -4 0 0 -6 -3 0 -1 1c-1,1 -1,3 -1,4 0,3 1,5 3,6l0 16c-2,1 -3,3 -3,6 0,1 0,3 1,4l1 1 3 0 0 -6 4 0 0 6 3 0 1 -1c0,0 0,0 0,0l0 1 24 0 0 -10c0,-2 -1,-4 -3,-4zm-4 0l-2 4 -2 -2 3 -3 1 1zm-6 6l2 0 1 6 -4 0 1 -6zm2 -1l-2 0 0 -1 1 -1 1 1 0 1zm6 -14l-1 0 0 -3 1 0c1,0 1,1 1,2 0,1 0,1 -1,1zm-14 -6c0,-4 3,-7 7,-7 4,0 7,3 7,7l0 2c0,0 0,0 0,0l-1 0 -1 0c-1,0 -3,-1 -4,-2l-1 -1 -1 1c-1,1 -3,2 -4,2l-1 0 -1 0c0,0 0,0 0,0l0 -2zm0 3l1 0 0 3 -1 0c-1,0 -1,0 -1,-1 0,-1 0,-2 1,-2zm0 6c0,0 0,0 0,-1l0 0c0,0 0,0 0,0l1 0c0,0 0,0 0,1l-1 0zm4 1c0,1 1,1 2,1l2 0c1,0 2,-1 2,-2 0,-1 -1,-1 -2,-1l-2 0c-1,0 -2,0 -2,1l-2 0c0,-1 0,-1 0,-1l0 -5c2,0 4,-1 5,-2 1,1 3,2 5,2l0 5c0,2 -2,4 -5,4 -2,0 -3,-1 -4,-2l1 0zm1 -1c0,0 0,0 1,0l2 0c1,0 1,0 1,0 0,1 0,1 -1,1l-2 0c-1,0 -1,0 -1,-1zm2 5c1,0 2,-1 3,-1l0 0 -3 3 -3 -3 0 0c1,0 2,1 3,1zm-4 0l3 3 -2 2 -2 -4 1 -1zm-9 13l-2 0 0 -4c0,0 -1,-1 -1,-1l-4 0c0,0 -1,1 -1,1l0 4 -2 0c-1,-1 -1,-2 -1,-3 0,-2 1,-4 3,-5l0 0 0 -18 0 0c-2,-1 -3,-3 -3,-5 0,-1 0,-2 1,-3l2 0 0 4c0,0 1,1 1,1l4 0c0,0 1,-1 1,-1l0 -4 2 0c1,1 1,2 1,3 0,2 -1,4 -3,5l0 0 0 18 0 0c2,1 3,3 3,5 0,1 0,2 -1,3zm2 -8c0,-2 1,-3 2,-3l3 -1 2 5 2 0 0 0 -1 7 -3 0 0 -7 -1 0 0 7 -4 0 0 -8zm22 8l-4 0 0 -7 -1 0 0 7 -3 0 -1 -7 0 0 2 0 2 -5 3 1c1,0 2,1 2,3l0 8z"/>
    <circle class="fil6" cx="40" cy="339" r="1"/>
    <circle class="fil6" cx="46" cy="339" r="1"/>
    <rect class="fil6" x="26" y="343" width="1.20054" height="1.20054"/>
    <path class="fil6" d="M25 337c-1,0 -2,0 -2,1l0 4 1 0 0 -4c0,0 1,0 1,0 0,0 1,0 1,0l0 4 1 0 0 -4c0,-1 -1,-1 -2,-1z"/>
    <rect class="fil6" x="23" y="343" width="1.20054" height="1.20054"/>
    <rect class="fil6" x="23" y="346" width="1.20054" height="1.20054"/>
    <path class="fil6" d="M26 352c0,0 -1,0 -1,0 0,0 -1,0 -1,0l0 -4 -1 0 0 4c0,1 1,1 2,1 1,0 2,0 2,-1l0 -4 -1 0 0 4z"/>
    <rect class="fil6" x="26" y="346" width="1.20054" height="1.20054"/>
   </g>
  </g>
 </g>
</svg>
