<?xml version="1.0" encoding="UTF-8"?>
<!DOCTYPE svg PUBLIC "-//W3C//DTD SVG 1.1//EN" "http://www.w3.org/Graphics/SVG/1.1/DTD/svg11.dtd">
<!-- Creator: CorelDRAW X7 -->
<svg xmlns="http://www.w3.org/2000/svg" xml:space="preserve" width="400px" height="400px" version="1.1" style="shape-rendering:geometricPrecision; text-rendering:geometricPrecision; image-rendering:optimizeQuality; fill-rule:evenodd; clip-rule:evenodd"
viewBox="0 0 400 400"
 xmlns:xlink="http://www.w3.org/1999/xlink"
 enable-background="new 0 0 42 32">
 <defs>
  <style type="text/css">
   <![CDATA[
    .str1 {stroke:white;stroke-width:0.999215}
    .str0 {stroke:gray;stroke-width:2.36221}
    .str2 {stroke:white;stroke-width:2.36221}
    .fil3 {fill:none}
    .fil5 {fill:#512616}
    .fil6 {fill:#F96332}
    .fil4 {fill:white}
    .fil2 {fill:white;fill-rule:nonzero}
    .fil1 {fill:url(#id0)}
    .fil0 {fill:url(#id1)}
   ]]>
  </style>
  <linearGradient id="id0" gradientUnits="userSpaceOnUse" x1="367" y1="76.5002" x2="39.0001" y2="76.5002">
   <stop offset="0" style="stop-opacity:1; stop-color:black"/>
   <stop offset="1" style="stop-opacity:1; stop-color:#F56330"/>
  </linearGradient>
  <linearGradient id="id1" gradientUnits="userSpaceOnUse" x1="-0" y1="200.001" x2="368" y2="603.001">
   <stop offset="0" style="stop-opacity:1; stop-color:#252525"/>
   <stop offset="1" style="stop-opacity:1; stop-color:#DB582C"/>
  </linearGradient>
 </defs>
 <g id="Слой_x0020_1">
  <metadata id="CorelCorpID_0Corel-Layer"/>
  <rect class="fil0" width="400" height="400"/>
  <rect class="fil1 str0" x="39" y="34" width="328" height="85.0006" rx="8" ry="8"/>
  <polygon class="fil2" points="72,83 72,78 67,78 67,75 72,75 72,70 75,70 75,75 80,75 80,78 75,78 75,83 "/>
  <path id="1" class="fil2" d="M90 85l-3 0 0 -13c-1,2 -3,2 -4,3l0 -3c0,0 1,-1 2,-2 2,-1 2,-2 3,-3l2 0 0 18z"/>
  <path id="2" class="fil2" d="M103 72l3 0 0 2c1,0 1,-1 2,-1 1,-1 1,-1 2,-1 2,0 3,1 4,2 1,1 2,3 2,5 0,2 -1,4 -2,5 -1,1 -2,2 -4,2 -1,0 -1,-1 -2,-1 0,0 -1,-1 -2,-1l0 6 -3 0 0 -18zm3 7c0,1 1,2 1,3 1,0 1,1 2,1 1,0 2,0 2,-1 1,-1 1,-2 1,-3 0,-2 0,-3 -1,-3 0,-1 -1,-1 -2,-1 -1,0 -1,0 -2,1 0,0 -1,1 -1,3z"/>
  <path id="3" class="fil2" d="M118 71l0 -4 4 0 0 4 -4 0zm0 14l0 -13 4 0 0 13 -4 0z"/>
  <path id="4" class="fil2" d="M125 72l3 0 0 6c1,0 1,-1 2,-1 0,0 0,-1 0,-2 1,-1 1,-2 2,-2 0,-1 1,-1 2,-1 0,0 1,0 1,0l0 3c-1,0 -1,0 -2,0 0,0 0,1 0,1 -1,2 -1,2 -2,3 1,0 2,1 3,2 0,0 0,1 0,1l2 3 -4 0 -2 -4c0,0 0,-1 -1,-1 0,0 0,0 -1,0l0 5 -3 0 0 -13z"/>
  <rect class="fil3 str1" x="38" y="150" width="100" height="140" rx="10" ry="8"/>
  <rect class="fil3 str1" x="153" y="150" width="100" height="140" rx="10" ry="8"/>
  <rect class="fil3 str1" x="268" y="150" width="100" height="140" rx="10" ry="8"/>
  <g id="_1739905031360">
   <g>
    <path class="fil4" d="M59 200c1,0 1,1 1,1l1 1c0,1 0,1 0,1l-3 4c0,1 0,2 1,3l2 1c0,1 1,1 2,1l4 -3c0,0 0,0 1,0l1 1c0,0 1,0 1,1l1 4c0,1 1,1 2,1 0,0 0,0 1,0 1,0 1,0 1,0 1,0 2,0 2,-1l1 -4c0,-1 1,-1 1,-1l1 -1c0,0 1,0 1,0l4 3c0,0 0,0 1,0 0,0 1,0 1,-1l2 -2c1,0 1,-1 0,-2l-2 -4c0,0 0,0 0,-1l1 -1c0,0 0,-1 0,-1l5 -1c0,0 1,-1 1,-2 0,0 0,0 0,-1 0,-1 0,-1 0,-1 0,-1 -1,-2 -1,-2l-5 -1c0,0 0,-1 0,-1l-1 -1c0,0 0,-1 0,-1l2 -4c1,0 1,-2 0,-2l-2 -2c0,-1 -2,-1 -2,0l-4 2c0,0 -1,0 -1,0l-1 -1c0,0 -1,0 -1,0l-1 -4c0,-1 -1,-2 -2,-2 0,0 0,0 -1,0 -1,0 -1,0 -1,0 -1,0 -2,1 -2,2l-1 4c0,0 -1,0 -1,0l-1 1c-1,0 -1,0 -1,0l-4 -2c-1,-1 -2,-1 -2,0l-2 2c-1,0 -1,2 -1,2l3 4c0,0 0,1 0,1l-1 1c0,0 0,1 -1,1l-4 1c-1,0 -1,1 -1,2 0,0 0,0 0,1 0,1 0,1 0,1 0,1 0,2 1,2l4 1zm-4 -4c0,-1 0,-1 0,-1 0,0 1,-1 1,-1l4 -1c1,0 1,0 2,-1l0 -1c0,-1 0,-2 0,-3l-2 -3c0,-1 0,-1 0,-1l2 -2c0,0 0,0 0,0l4 2c1,1 2,1 2,0l2 0c0,0 1,-1 1,-2l1 -4c0,0 0,-1 1,-1 0,0 0,0 1,0 1,0 1,0 1,0 0,0 1,1 1,1l1 4c0,1 1,2 1,2l2 0c0,1 1,1 2,0l4 -2c0,0 0,0 0,0l2 2c0,0 0,0 0,1l-2 3c-1,1 -1,2 0,3l0 1c0,1 1,1 2,1l4 1c0,0 1,1 1,1 0,0 0,0 0,1 0,1 0,1 0,1 0,1 -1,1 -1,1l-4 1c-1,0 -2,1 -2,2l0 1c-1,0 -1,2 0,2l2 4c0,0 0,0 0,0l-2 2c0,0 0,0 0,0 0,0 0,0 0,0l-4 -2c-1,0 -2,0 -2,0l-2 0c0,1 -1,2 -1,2l-1 4c0,1 -1,1 -1,1 0,0 0,0 -1,0 -1,0 -1,0 -1,0 -1,0 -1,0 -1,-1l-1 -4c0,0 -1,-1 -1,-2l-2 0c0,0 0,0 -1,0 0,0 -1,0 -1,0l-4 2c0,0 0,0 0,0l-2 -2c0,0 0,0 0,0l2 -4c0,0 0,-2 0,-2l0 -1c-1,-1 -1,-2 -2,-2l-4 -1c-1,0 -1,0 -1,-1 0,0 0,0 0,-1z"/>
    <path class="fil4" d="M74 205c5,0 9,-4 9,-9 0,-5 -4,-8 -9,-8 -5,0 -9,3 -9,8 0,5 4,9 9,9zm0 -16c4,0 7,3 7,7 0,4 -3,7 -7,7 -4,0 -7,-3 -7,-7 0,-4 3,-7 7,-7z"/>
    <path class="fil4" d="M97 175c-1,0 -1,0 -1,0l-3 0c-1,0 -1,0 -1,1 0,0 -1,1 -1,1 0,1 0,1 0,1 0,1 0,1 1,2l3 1c0,0 0,0 0,1l0 1c0,0 0,0 0,0l-2 2c-1,1 -1,1 -1,2l1 2c1,0 2,1 2,0l3 -1c0,0 0,0 1,1l0 0c0,0 1,0 1,1l0 2c0,1 0,2 1,2 0,0 0,0 1,0 0,1 1,1 1,1 0,0 0,0 0,0 0,0 1,-1 1,-1l2 -3c0,0 0,0 0,0l1 0c0,0 1,0 1,0l2 2c0,0 1,1 2,0l1 -1c1,0 1,-1 1,-2l-1 -2c0,-1 0,-1 0,-1l1 -1c0,0 0,0 0,0l3 0c1,0 1,0 2,-1 0,0 0,0 0,-1 0,-1 0,-1 0,-1 0,-1 0,-1 -1,-2l-2 -1c0,0 -1,0 -1,0l0 -1c0,-1 0,-1 0,-1l2 -2c1,0 1,-1 1,-2l-1 -2c-1,0 -1,0 -2,0l-3 1c0,0 0,0 0,0l-1 -1c0,0 0,0 0,0l0 -3c0,-1 -1,-2 -1,-2 0,0 -1,0 -1,0 -1,0 -1,0 -1,0 0,0 -1,-1 -1,-1 0,0 -1,1 -1,1l-1 3c-1,0 -1,0 -1,0l-1 0c0,0 0,0 0,0l-2 -2c-1,0 -2,0 -2,0l-2 1c-1,0 -1,1 -1,2l1 3c0,0 0,0 0,0l0 1zm1 1l0 -1c1,-1 1,-1 1,-2l-1 -3c0,0 0,0 0,0l1 -1 1 0 2 2c0,1 0,1 1,1 0,0 0,0 0,0l1 0c1,0 2,-1 2,-1l1 -3c0,0 0,0 0,0 0,0 1,0 1,0 1,0 1,0 1,0 0,0 0,1 0,1l0 3c0,0 0,1 1,1l1 1c0,0 1,0 2,0l2 -1c0,0 1,0 1,0l0 2c0,0 0,0 0,0l-2 2c0,0 0,1 0,2l0 1c0,0 0,1 1,1l3 2c0,0 0,0 0,0 0,0 0,0 -1,1 0,0 0,0 0,0 0,0 0,1 0,1l-3 0c-1,0 -1,0 -2,0l0 1c0,1 -1,1 0,2l0 3c0,0 0,0 0,0l-1 1 0 0 -2 -2c-1,-1 -1,-1 -2,-1 0,0 0,0 0,0l-1 0c-1,0 -1,1 -2,1l-1 3c0,0 0,0 0,0l0 0c0,0 -1,0 -1,0 0,0 -1,0 -1,0 0,0 0,0 0,-1l0 -2c0,-1 0,-2 -1,-2l0 -1c-1,0 -1,0 -2,0 0,0 0,0 0,0l-3 1c0,0 0,0 0,0l-1 -2c0,0 0,0 0,0l2 -2c0,0 1,-1 0,-2l0 -1c0,0 0,-1 -1,-1l-2 -2c0,0 0,0 0,0 0,0 0,0 0,-1 0,0 0,0 0,0 0,0 0,0 0,0l3 0c1,0 1,-1 2,-1z"/>
    <path class="fil4" d="M105 185c3,0 5,-2 5,-4 0,-3 -2,-5 -5,-5 -2,0 -5,2 -5,5 0,2 3,4 5,4zm0 -8c2,0 3,2 3,4 0,1 -1,3 -3,3 -2,0 -3,-2 -3,-3 0,-2 1,-4 3,-4z"/>
   </g>
  </g>
  <path class="fil2" d="M67 273l0 -9 4 0c0,0 1,0 1,1 0,0 1,0 1,0 0,0 1,0 1,1 0,0 0,1 0,1 0,1 0,1 -1,2 0,0 -1,1 -2,1l-3 0 0 3 -1 0zm1 -4l3 0c0,0 1,0 1,-1 1,0 1,0 1,-1 0,0 0,-1 -1,-1 0,0 0,0 0,0 0,0 -1,-1 -1,-1l-3 0 0 4z"/>
  <path id="1" class="fil2" d="M79 271l1 0c0,1 0,2 -1,2 0,0 -1,1 -1,1 -1,0 -2,-1 -3,-1 0,-1 -1,-2 -1,-3 0,-1 1,-2 1,-2 1,-1 2,-1 2,-1 1,0 2,0 3,1 0,0 0,1 0,2 0,0 0,0 0,0l-4 0c0,1 0,2 0,2 1,0 1,1 2,1 0,0 0,0 1,-1 0,0 0,0 0,-1zm-3 -1l3 0c0,-1 0,-1 0,-2 -1,0 -1,0 -2,0 0,0 0,0 -1,0 0,1 0,1 0,2z"/>
  <polygon id="2" class="fil2" points="82,267 83,267 85,272 87,267 89,267 89,273 88,273 88,268 86,273 85,273 83,268 83,273 82,273 "/>
  <path id="3" class="fil2" d="M90 270c0,-1 0,-2 1,-3 1,0 1,0 2,0 1,0 2,0 2,1 1,0 1,1 1,2 0,1 0,2 0,2 -1,0 -1,1 -1,1 -1,0 -1,1 -2,1 -1,0 -2,-1 -2,-1 -1,-1 -1,-2 -1,-3zm1 0c0,1 0,2 1,2 0,0 0,1 1,1 1,0 1,-1 1,-1 1,0 1,-1 1,-2 0,-1 0,-1 -1,-2 0,0 0,0 -1,0 -1,0 -1,0 -1,0 -1,1 -1,1 -1,2z"/>
  <polygon id="4" class="fil2" points="97,267 98,267 98,270 101,270 101,267 103,267 103,273 101,273 101,271 98,271 98,273 97,273 "/>
  <polygon id="5" class="fil2" points="104,267 109,267 109,268 107,268 107,273 106,273 106,268 104,268 "/>
  <g id="_1739905030336">
   <g>
    <g>
     <path class="fil4" d="M228 179l-10 -13c0,0 0,0 -1,0l-26 0c0,0 0,0 -1,0l-9 13c-1,0 -1,0 -1,0l0 35c0,1 1,2 2,2l45 0c1,0 1,-1 1,-2l0 -35c0,0 0,0 0,0zm-3 -1l-19 0 0 -10 11 0 8 10zm-33 -10l11 0 0 10 -19 0 8 -10zm-9 45l0 -32 43 0 0 32 -43 0 0 0z"/>
     <path class="fil4" d="M210 191l-8 9 -4 -4c0,0 -1,0 -2,0 0,1 0,1 0,2l5 4c0,1 0,1 1,1 0,0 0,0 1,-1l9 -9c1,-1 1,-1 0,-2 0,0 -1,0 -2,0z"/>
    </g>
   </g>
  </g>
  <path class="fil2" d="M177 243c0,-2 1,-3 2,-4 0,0 1,-1 3,-1 1,0 1,0 2,1 1,0 1,1 1,1 1,1 1,2 1,3 0,1 0,1 -1,2 0,1 0,1 -1,2 -1,0 -2,0 -2,0 -1,0 -2,0 -3,0 0,-1 -1,-1 -1,-2 0,-1 -1,-1 -1,-2zm2 0c0,1 0,2 0,2 1,1 2,1 3,1 1,0 1,0 2,-1 0,0 1,-1 1,-2 0,-1 0,-2 -1,-2 0,-1 0,-1 -1,-1 0,-1 -1,-1 -1,-1 -1,0 -2,0 -2,1 -1,1 -1,2 -1,3z"/>
  <path id="1" class="fil2" d="M192 238l1 0c0,1 0,1 0,1 0,0 -1,0 -1,0 0,0 -1,0 -1,0 -1,0 -2,0 -2,1 0,0 -1,0 -1,0 0,1 0,1 0,2 0,0 1,-1 1,-1 0,0 1,0 1,0 1,0 2,0 2,1 1,0 1,1 1,2 0,1 0,1 0,2 -1,0 -1,1 -1,1 -1,0 -1,0 -2,0 -1,0 -1,0 -2,0 0,-1 0,-1 -1,-2 0,0 0,-1 0,-2 0,-2 0,-3 1,-4 1,0 1,-1 3,-1 0,0 1,0 1,0 0,0 0,0 0,0zm0 6c0,-1 0,-1 0,-2 -1,0 -1,0 -2,0 0,0 -1,0 -1,0 -1,1 -1,1 -1,2 0,1 0,1 1,2 0,0 1,0 1,0 1,0 1,0 2,0 0,-1 0,-1 0,-2z"/>
  <polygon id="2" class="fil2" points="194,241 196,241 198,246 200,241 201,241 201,247 200,247 200,242 198,247 197,247 195,242 195,247 194,247 "/>
  <path id="3" class="fil2" d="M203 240l0 -2 1 0 0 2 -1 0zm0 7l0 -6 1 0 0 6 -1 0z"/>
  <polygon id="4" class="fil2" points="206,241 207,241 207,243 210,243 210,241 211,241 211,247 210,247 210,244 207,244 207,247 206,247 "/>
  <polygon id="5" class="fil2" points="216,241 221,241 221,247 220,247 220,242 217,242 217,247 216,247 "/>
  <path id="6" class="fil2" d="M222 244c0,-1 1,-2 1,-3 1,0 2,0 2,0 1,0 2,0 3,0 0,1 0,2 0,3 0,1 0,1 0,2 0,0 -1,1 -1,1 -1,0 -1,0 -2,0 -1,0 -1,0 -2,-1 0,0 -1,-1 -1,-2zm1 0c0,1 1,1 1,2 0,0 1,0 1,0 1,0 1,0 2,0 0,-1 0,-1 0,-2 0,-1 0,-1 0,-2 -1,0 -1,0 -2,0 0,0 -1,0 -1,0 0,1 -1,1 -1,2z"/>
  <path id="7" class="fil2" d="M173 255l2 0c1,0 1,0 2,0 0,0 0,0 0,0 1,1 1,1 1,1 0,1 0,1 0,1 -1,0 -1,1 -1,1 0,0 0,0 1,0 0,1 0,1 0,1 0,1 0,1 -1,2 0,0 -1,0 -1,0l-3 0 0 -6zm1 2l1 0c0,0 1,0 1,0 0,0 0,0 0,0 1,0 1,0 1,0 0,-1 -1,-1 -1,-1 0,0 0,0 -1,0l-1 0 0 1zm0 3l1 0c1,0 1,0 2,0 0,0 0,0 0,-1 0,0 0,0 0,0 0,0 -1,-1 -1,-1 0,0 0,0 -1,0l-1 0 0 2z"/>
  <path id="8" class="fil2" d="M183 260c0,1 0,1 -1,1 0,0 -1,0 -1,0 -1,0 -1,0 -2,0 0,-1 0,-1 0,-2 0,0 0,0 0,0 0,-1 0,-1 1,-1 0,0 0,0 0,0 1,0 1,0 1,-1 1,0 2,0 2,0 0,0 0,0 0,0 0,-1 0,-1 0,-1 0,0 -1,-1 -1,-1 -1,0 -1,1 -1,1 -1,0 -1,0 -1,1l-1 0c0,-1 0,-1 0,-2 1,0 1,0 1,0 1,0 1,0 2,0 0,0 1,0 1,0 1,0 1,0 1,0 0,0 0,1 0,1 0,0 0,1 0,1l0 1c0,1 0,2 1,2 0,1 0,1 0,1l-1 0c0,0 -1,0 -1,-1zm0 -2c0,0 -1,0 -1,0 -1,0 -1,0 -1,1 -1,0 -1,0 -1,0 0,0 0,0 0,0 0,1 0,1 0,1 1,0 1,0 1,0 1,0 1,0 1,0 1,0 1,0 1,-1 0,0 0,0 0,-1l0 0z"/>
  <path id="9" class="fil2" d="M186 264l0 -9 1 0 0 1c0,-1 1,-1 1,-1 0,0 1,0 1,0 1,0 1,0 1,0 1,0 1,1 1,1 1,1 1,1 1,2 0,1 0,1 -1,2 0,0 0,1 -1,1 0,0 -1,0 -1,0 0,0 -1,0 -1,0 0,0 -1,0 -1,0l0 3 -1 0zm1 -6c0,1 0,1 1,2 0,0 0,0 1,0 0,0 1,0 1,0 0,-1 1,-1 1,-2 0,-1 -1,-2 -1,-2 0,0 -1,-1 -1,-1 -1,0 -1,1 -1,1 -1,1 -1,1 -1,2z"/>
  <polygon id="10" class="fil2" points="192,255 197,255 197,256 195,256 195,261 194,261 194,256 192,256 "/>
  <path id="11" class="fil2" d="M198 258c0,-1 0,-2 1,-3 1,0 1,0 2,0 1,0 2,0 2,0 1,1 1,2 1,3 0,1 0,1 0,2 -1,0 -1,1 -1,1 -1,0 -1,0 -2,0 -1,0 -2,0 -2,-1 -1,0 -1,-1 -1,-2zm1 0c0,1 0,1 1,2 0,0 0,0 1,0 1,0 1,0 1,0 1,-1 1,-1 1,-2 0,-1 0,-1 -1,-2 0,0 0,-1 -1,-1 -1,0 -1,1 -1,1 -1,1 -1,1 -1,2z"/>
  <path id="12" class="fil2" d="M210 259l1 0c0,1 -1,1 -1,2 -1,0 -1,0 -2,0 -1,0 -2,0 -2,-1 -1,0 -1,-1 -1,-2 0,-1 0,-1 0,-2 1,0 1,-1 1,-1 1,0 1,0 2,0 1,0 1,0 2,0 0,0 0,1 1,2l-2 0c0,-1 0,-1 0,-1 0,0 -1,-1 -1,-1 -1,0 -1,1 -1,1 -1,0 -1,1 -1,2 0,1 0,1 1,2 0,0 0,0 1,0 0,0 1,0 1,0 0,0 1,-1 1,-1z"/>
  <polygon id="13" class="fil2" points="211,255 216,255 216,256 214,256 214,261 213,261 213,256 211,256 "/>
  <polygon id="14" class="fil2" points="221,255 222,255 222,257 225,257 225,255 226,255 226,261 225,261 225,258 222,258 222,261 221,261 "/>
  <path id="15" class="fil2" d="M232 260c0,1 -1,1 -1,1 -1,0 -1,0 -1,0 -1,0 -2,0 -2,0 0,-1 -1,-1 -1,-2 0,0 0,0 1,0 0,-1 0,-1 0,-1 0,0 1,0 1,0 0,0 0,0 1,-1 1,0 1,0 2,0 0,0 0,0 0,0 0,-1 0,-1 0,-1 -1,0 -1,-1 -2,-1 0,0 -1,1 -1,1 0,0 0,0 0,1l-1 0c0,-1 0,-1 0,-2 0,0 1,0 1,0 0,0 1,0 1,0 1,0 1,0 2,0 0,0 0,0 1,0 0,0 0,1 0,1 0,0 0,1 0,1l0 1c0,1 0,2 0,2 0,1 0,1 0,1l-1 0c0,0 0,0 0,-1zm0 -2c-1,0 -1,0 -2,0 0,0 -1,0 -1,1 0,0 0,0 0,0 0,0 -1,0 -1,0 0,1 1,1 1,1 0,0 0,0 1,0 0,0 1,0 1,0 0,0 1,0 1,-1 0,0 0,0 0,-1l0 0z"/>
  <path id="16" class="fil2" d="M169 267l0 -1 1 0 0 1 -1 0zm0 8l0 -6 1 0 0 6 -1 0z"/>
  <polygon id="17" class="fil2" points="171,269 172,269 172,271 176,271 176,269 177,269 177,275 176,275 176,272 172,272 172,275 171,275 "/>
  <polygon id="18" class="fil2" points="178,269 179,269 179,274 182,274 182,269 183,269 183,274 186,274 186,269 187,269 187,275 178,275 "/>
  <polygon id="19" class="fil2" points="188,269 189,269 189,274 192,269 194,269 194,275 193,275 193,270 190,275 188,275 "/>
  <path id="20" class="fil2" d="M195 269l1 0 0 5 3 -5 2 0 0 6 -1 0 0 -5 -4 5 -1 0 0 -6zm4 -3l1 0c0,1 0,1 -1,1 0,1 0,1 -1,1 0,0 -1,0 -1,-1 -1,0 -1,0 -1,-1l1 0c0,1 0,1 0,1 1,0 1,0 1,0 0,0 1,0 1,0 0,0 0,0 0,-1z"/>
  <polygon id="21" class="fil2" points="205,269 210,269 210,270 208,270 208,275 207,275 207,270 205,270 "/>
  <path id="22" class="fil2" d="M211 272c0,-1 0,-2 1,-3 0,0 1,0 2,0 1,0 2,0 2,0 1,1 1,2 1,3 0,1 0,1 0,2 -1,0 -1,1 -1,1 -1,0 -1,0 -2,0 -1,0 -2,0 -2,-1 -1,0 -1,-1 -1,-2zm1 0c0,1 0,1 1,2 0,0 0,0 1,0 1,0 1,0 1,0 1,-1 1,-1 1,-2 0,-1 0,-2 -1,-2 0,0 0,-1 -1,-1 -1,0 -1,1 -1,1 -1,0 -1,1 -1,2z"/>
  <path id="23" class="fil2" d="M218 269l3 0c0,0 1,0 1,0 1,0 1,0 1,0 0,1 0,1 0,1 0,1 0,1 0,1 0,0 0,1 0,1 0,0 0,0 0,0 1,1 1,1 1,1 0,1 -1,1 -1,2 0,0 -1,0 -2,0l-3 0 0 -6zm1 2l2 0c0,0 0,0 1,0 0,0 0,0 0,0 0,0 0,0 0,-1 0,0 0,0 0,0 0,0 -1,0 -1,0l-2 0 0 1zm0 3l2 0c0,0 1,0 1,0 0,0 0,0 0,-1 0,0 0,0 0,0 0,0 0,-1 0,-1 0,0 -1,0 -1,0l-2 0 0 2z"/>
  <path id="24" class="fil2" d="M229 274c0,1 -1,1 -1,1 -1,0 -1,0 -1,0 -1,0 -2,0 -2,0 0,-1 -1,-1 -1,-2 0,0 1,0 1,0 0,-1 0,-1 0,-1 0,0 1,0 1,0 0,0 1,-1 1,-1 1,0 2,0 2,0 0,0 0,0 0,0 0,-1 0,-1 0,-1 -1,0 -1,-1 -2,-1 0,0 -1,1 -1,1 0,0 0,0 0,1l-1 0c0,-1 0,-1 0,-2 0,0 1,0 1,0 0,0 1,0 2,0 0,0 1,0 1,0 0,0 1,0 1,0 0,0 0,1 0,1 0,0 0,0 0,1l0 1c0,1 0,2 0,2 0,1 0,1 0,1l-1 0c0,0 0,0 0,-1zm0 -2c0,0 -1,0 -2,0 0,0 -1,0 -1,1 0,0 0,0 0,0 0,0 0,0 0,0 0,1 0,1 0,1 0,0 0,0 1,0 0,0 1,0 1,0 0,0 1,0 1,-1 0,0 0,0 0,-1l0 0z"/>
  <path id="25" class="fil2" d="M232 278l0 -9 1 0 0 1c0,-1 0,-1 1,-1 0,0 0,0 1,0 0,0 1,0 1,0 1,0 1,1 1,1 0,1 0,1 0,2 0,1 0,1 0,2 0,0 -1,1 -1,1 0,0 -1,0 -1,0 -1,0 -1,0 -1,0 -1,0 -1,0 -1,-1l0 4 -1 0zm1 -6c0,1 0,1 0,2 1,0 1,0 1,0 1,0 1,0 2,0 0,-1 0,-1 0,-2 0,-1 0,-2 0,-2 -1,0 -1,-1 -1,-1 -1,0 -1,1 -2,1 0,0 0,1 0,2z"/>
  <g id="_1739905026400">
   <g>
    <path class="fil4" d="M347 188l-2 0 0 -8c0,-4 -2,-7 -6,-7l-1 0 0 -3c0,-2 -2,-4 -4,-4l-37 0c-3,0 -5,2 -5,5 0,0 0,0 0,0l0 41c0,2 2,4 4,4l43 0c4,0 6,-3 6,-6l0 -8 2 0c1,0 3,-2 3,-4l0 -7c0,-2 -2,-3 -3,-3zm-50 -19l37 0c0,0 1,1 1,1l0 3 -38 0c-1,0 -2,-1 -2,-2 0,-1 1,-2 2,-2zm45 41c0,2 -1,3 -3,3l-43 0c-1,0 -1,0 -1,-1l0 -36c0,0 1,0 2,0l42 0c2,0 3,2 3,4l0 8 -9 0c-2,0 -4,1 -4,3l0 7c0,2 2,4 4,4l9 0 0 8zm5 -12c0,1 0,1 0,1l-14 0c-1,0 -1,0 -1,-1l0 -7c0,0 0,0 1,0l14 0c0,0 0,0 0,0l0 7 0 0z"/>
   </g>
  </g>
  <polygon class="fil2" points="283,238 290,238 290,247 289,247 289,239 285,239 285,247 283,247 "/>
  <path id="1" class="fil2" d="M292 244c0,-1 0,-2 1,-3 0,0 1,0 2,0 1,0 1,0 2,0 1,1 1,2 1,3 0,1 0,1 0,2 -1,0 -1,1 -2,1 0,0 -1,0 -1,0 -1,0 -2,0 -2,-1 -1,0 -1,-1 -1,-2zm1 0c0,1 0,1 0,2 1,0 1,0 2,0 0,0 1,0 1,0 1,-1 1,-1 1,-2 0,-1 0,-1 -1,-2 0,0 -1,0 -1,0 -1,0 -1,0 -2,0 0,1 0,1 0,2z"/>
  <path id="2" class="fil2" d="M299 241l3 0c0,0 1,0 1,0 0,0 1,0 1,0 0,1 0,1 0,1 0,1 0,1 0,1 0,1 0,1 -1,1 1,0 1,0 1,0 0,1 0,1 0,1 0,1 0,1 0,2 -1,0 -1,0 -2,0l-3 0 0 -6zm1 2l1 0c1,0 1,0 1,0 1,0 1,0 1,0 0,0 0,0 0,0 0,-1 0,-1 0,-1 -1,0 -1,0 -2,0l-1 0 0 1zm0 3l2 0c0,0 1,0 1,0 0,0 0,0 0,-1 0,0 0,0 0,0 0,0 0,-1 0,-1 -1,0 -1,0 -1,0l-2 0 0 2z"/>
  <path id="3" class="fil2" d="M310 245l1 0c0,1 0,1 -1,2 0,0 -1,0 -2,0 -1,0 -1,0 -2,-1 0,0 -1,-1 -1,-2 0,-1 1,-2 1,-2 1,-1 1,-1 2,-1 1,0 2,0 2,0 1,1 1,2 1,3 0,0 0,0 0,0l-5 0c0,1 1,2 1,2 0,0 1,0 1,0 1,0 1,0 1,0 1,0 1,0 1,-1zm-3 -2l3 0c0,0 0,-1 0,-1 -1,0 -1,0 -2,0 0,0 -1,0 -1,0 0,0 0,1 0,1z"/>
  <path id="4" class="fil2" d="M313 250l0 -9 1 0 0 1c0,-1 0,-1 0,-1 1,0 1,0 2,0 0,0 1,0 1,0 0,0 1,1 1,1 0,1 0,1 0,2 0,1 0,1 0,2 0,0 -1,1 -1,1 -1,0 -1,0 -2,0 0,0 0,0 -1,0 0,0 0,0 0,0l0 3 -1 0zm1 -6c0,1 0,1 0,2 0,0 1,0 1,0 1,0 1,0 2,0 0,-1 0,-1 0,-2 0,-1 0,-2 0,-2 -1,0 -1,-1 -2,-1 0,0 0,1 -1,1 0,1 0,1 0,2z"/>
  <polygon id="5" class="fil2" points="320,241 321,241 321,243 324,243 324,241 325,241 325,247 324,247 324,244 321,244 321,247 320,247 "/>
  <path id="6" class="fil2" d="M331 245l1 0c0,1 0,1 -1,2 0,0 -1,0 -2,0 -1,0 -1,0 -2,-1 -1,0 -1,-1 -1,-2 0,-1 0,-2 1,-2 1,-1 1,-1 2,-1 1,0 2,0 2,0 1,1 1,2 1,3 0,0 0,0 0,0l-5 0c0,1 1,2 1,2 0,0 1,0 1,0 1,0 1,0 1,0 1,0 1,0 1,-1zm-4 -2l4 0c0,0 0,-1 0,-1 -1,0 -1,0 -2,0 0,0 -1,0 -1,0 0,0 -1,1 -1,1z"/>
  <polygon id="7" class="fil2" points="333,241 335,241 335,243 338,243 338,241 339,241 339,247 338,247 338,244 335,244 335,247 333,247 "/>
  <polygon id="8" class="fil2" points="340,241 341,241 341,243 344,243 344,241 346,241 346,247 344,247 344,244 341,244 341,247 340,247 "/>
  <path id="9" class="fil2" d="M352 241l0 6 -1 0 0 -2 0 0c-1,0 -1,0 -1,0 0,0 -1,0 -1,1l-1 1 -1 0 1 -2c0,0 1,0 1,0 -1,-1 -1,-1 -2,-1 0,0 0,-1 0,-1 0,-1 0,-1 1,-2 0,0 1,0 1,0l3 0zm-1 1l-1 0c-1,0 -1,0 -2,0 0,0 0,0 0,1 0,0 0,0 1,1 0,0 0,0 1,0l1 0 0 -2z"/>
  <path id="10" class="fil2" d="M295 255l2 0c1,0 2,0 2,0 0,0 0,0 1,0 0,1 0,1 0,1 0,1 0,1 0,1 0,0 -1,1 -1,1 0,0 1,0 1,0 0,1 0,1 0,1 0,1 0,1 0,2 -1,0 -1,0 -2,0l-3 0 0 -6zm1 2l1 0c1,0 1,0 1,0 0,0 0,0 1,0 0,0 0,0 0,0 0,-1 0,-1 -1,-1 0,0 0,0 -1,0l-1 0 0 1zm0 3l1 0c1,0 2,0 2,0 0,0 0,0 0,-1 0,0 0,0 0,0 0,0 0,-1 -1,-1 0,0 0,0 -1,0l-1 0 0 2z"/>
  <path id="11" class="fil2" d="M306 260c-1,1 -1,1 -2,1 0,0 0,0 -1,0 0,0 -1,0 -1,0 -1,-1 -1,-1 -1,-2 0,0 0,0 0,0 0,-1 1,-1 1,-1 0,0 0,0 1,0 0,0 0,0 1,-1 0,0 1,0 2,0 0,0 0,0 0,0 0,-1 -1,-1 -1,-1 0,0 0,-1 -1,-1 -1,0 -1,1 -1,1 0,0 -1,0 -1,1l-1 0c0,-1 0,-1 1,-2 0,0 0,0 1,0 0,0 1,0 1,0 1,0 1,0 2,0 0,0 0,0 0,0 0,0 1,1 1,1 0,0 0,1 0,1l0 1c0,1 0,2 0,2 0,1 0,1 0,1l-1 0c0,0 0,0 0,-1zm0 -2c-1,0 -1,0 -2,0 -1,0 -1,0 -1,1 0,0 -1,0 -1,0 0,0 0,0 0,0 0,1 0,1 1,1 0,0 0,0 1,0 0,0 0,0 1,0 0,0 0,0 0,-1 1,0 1,0 1,-1l0 0z"/>
  <path id="12" class="fil2" d="M308 264l0 -9 1 0 0 1c1,-1 1,-1 1,-1 0,0 1,0 1,0 1,0 1,0 2,0 0,0 0,1 1,1 0,1 0,1 0,2 0,1 0,1 0,2 -1,0 -1,1 -1,1 -1,0 -1,0 -2,0 0,0 -1,0 -1,0 0,0 0,0 -1,0l0 3 -1 0zm1 -6c0,1 1,1 1,2 0,0 1,0 1,0 1,0 1,0 1,0 1,-1 1,-1 1,-2 0,-1 0,-2 -1,-2 0,0 0,-1 -1,-1 0,0 -1,1 -1,1 0,1 -1,1 -1,2z"/>
  <polygon id="13" class="fil2" points="314,255 320,255 320,256 318,256 318,261 317,261 317,256 314,256 "/>
  <path id="14" class="fil2" d="M320 258c0,-1 1,-2 1,-3 1,0 1,0 2,0 1,0 2,0 2,0 1,1 1,2 1,3 0,1 0,1 0,2 0,0 -1,1 -1,1 -1,0 -1,0 -2,0 -1,0 -1,0 -2,-1 0,0 -1,-1 -1,-2zm1 0c0,1 1,1 1,2 0,0 1,0 1,0 1,0 1,0 2,0 0,-1 0,-1 0,-2 0,-1 0,-1 0,-2 -1,0 -1,-1 -2,-1 0,0 -1,1 -1,1 0,1 -1,1 -1,2z"/>
  <path id="15" class="fil2" d="M332 259l1 0c0,1 -1,1 -1,2 0,0 -1,0 -2,0 -1,0 -1,0 -2,-1 0,0 -1,-1 -1,-2 0,-1 0,-1 1,-2 0,0 0,-1 1,-1 0,0 1,0 1,0 1,0 2,0 2,0 0,0 1,1 1,2l-1 0c0,-1 -1,-1 -1,-1 0,0 0,-1 -1,-1 0,0 -1,1 -1,1 0,0 -1,1 -1,2 0,1 1,1 1,2 0,0 1,0 1,0 1,0 1,0 1,0 1,0 1,-1 1,-1z"/>
  <polygon id="16" class="fil2" points="333,255 339,255 339,256 336,256 336,261 335,261 335,256 333,256 "/>
  <path id="17" class="fil2" d="M340 253l0 -1 1 0 0 1 -1 0zm0 8l0 -6 1 0 0 6 -1 0z"/>
  <path id="18" class="fil2" d="M302 273l1 0c0,1 -1,1 -1,2 0,0 -1,0 -2,0 -1,0 -1,0 -2,-1 0,0 -1,-1 -1,-2 0,-1 0,-1 1,-2 0,0 0,-1 1,-1 0,0 1,0 1,0 1,0 2,0 2,0 0,0 1,1 1,2l-1 0c0,-1 -1,-1 -1,-1 0,0 0,-1 -1,-1 0,0 -1,1 -1,1 0,0 -1,1 -1,2 0,1 1,1 1,2 0,0 1,0 1,0 1,0 1,0 1,0 1,0 1,-1 1,-1z"/>
  <path id="19" class="fil2" d="M308 273l1 0c0,1 0,1 -1,2 0,0 -1,0 -1,0 -1,0 -2,0 -3,-1 0,0 -1,-1 -1,-2 0,-1 1,-2 1,-3 1,0 2,0 3,0 0,0 1,0 2,0 0,1 0,2 0,3 0,0 0,0 0,0l-4 0c0,1 0,1 0,2 1,0 1,0 2,0 0,0 0,0 1,0 0,0 0,0 0,-1zm-3 -2l3 0c0,0 0,-1 0,-1 0,0 -1,-1 -1,-1 -1,0 -1,1 -2,1 0,0 0,1 0,1z"/>
  <path id="20" class="fil2" d="M311 278l0 -9 1 0 0 1c0,-1 0,-1 1,-1 0,0 0,0 1,0 0,0 1,0 1,0 1,0 1,1 1,1 0,1 0,1 0,2 0,1 0,1 0,2 0,0 -1,1 -1,1 0,0 -1,0 -1,0 -1,0 -1,0 -1,0 -1,0 -1,0 -1,-1l0 4 -1 0zm1 -6c0,1 0,1 0,2 1,0 1,0 2,0 0,0 0,0 1,0 0,-1 0,-1 0,-2 0,-1 0,-2 0,-2 -1,0 -1,-1 -1,-1 -1,0 -1,1 -2,1 0,0 0,1 0,2z"/>
  <path id="21" class="fil2" d="M318 269l2 0c1,0 1,0 2,0 0,0 0,0 0,0 1,1 1,1 1,1 0,1 0,1 0,1 -1,0 -1,1 -1,1 0,0 1,0 1,0 0,1 0,1 0,1 0,1 0,1 -1,2 0,0 -1,0 -1,0l-3 0 0 -6zm1 2l1 0c0,0 1,0 1,0 0,0 0,0 0,0 1,0 1,0 1,-1 0,0 0,0 -1,0 0,0 0,0 -1,0l-1 0 0 1zm0 3l1 0c1,0 1,0 2,0 0,0 0,0 0,-1 0,0 0,0 0,0 0,0 -1,-1 -1,-1 0,0 0,0 -1,0l-1 0 0 2z"/>
  <path id="22" class="fil2" d="M324 267l0 -1 1 0 0 1 -1 0zm0 8l0 -6 1 0 0 6 -1 0z"/>
  <path id="23" class="fil2" d="M331 273l1 0c0,1 0,1 0,2 -1,0 -2,0 -2,0 -1,0 -2,0 -2,-1 -1,0 -1,-1 -1,-2 0,-1 0,-1 0,-2 0,0 1,-1 1,-1 1,0 1,0 2,0 1,0 1,0 2,0 0,0 0,1 0,2l-1 0c0,-1 0,-1 0,-1 0,0 -1,-1 -1,-1 -1,0 -1,1 -2,1 0,0 0,1 0,2 0,1 0,1 0,2 1,0 1,0 2,0 0,0 1,0 1,0 0,0 0,-1 0,-1z"/>
  <path id="24" class="fil2" d="M333 278l0 -1c0,0 1,0 1,0 0,0 0,0 0,0 1,0 1,-1 1,-1 0,0 0,0 0,-1 0,0 0,0 0,0l-2 -6 1 0 1 3c1,1 1,1 1,2 0,-1 0,-1 0,-2l2 -3 1 0 -3 6c0,1 0,1 0,2 -1,0 -1,0 -1,1 0,0 -1,0 -1,0 0,0 0,0 -1,0z"/>
  <polygon class="fil2" points="233,68 245,68 245,71 237,71 237,85 233,85 "/>
  <path id="1" class="fil2" d="M262 85l-4 0 -2 -4 -7 0 -1 4 -4 0 7 -17 4 0 7 17zm-7 -7l-2 -6 -3 6 5 0z"/>
  <path id="2" class="fil2" d="M264 85l0 -17 5 0c3,0 4,0 5,0 1,0 1,1 2,2 1,1 1,2 1,3 0,1 0,2 0,3 -1,1 -1,1 -2,2 -1,0 -1,0 -2,0 -1,1 -2,1 -3,1l-3 0 0 6 -3 0zm3 -14l0 5 2 0c2,0 2,0 3,-1 0,0 1,0 1,0 0,-1 0,-1 0,-2 0,-1 0,-1 0,-1 0,-1 -1,-1 -2,-1 0,0 -1,0 -2,0l-2 0z"/>
  <path id="3" class="fil2" d="M294 85l-4 0 -1 -4 -8 0 -1 4 -4 0 7 -17 4 0 7 17zm-7 -7l-2 -6 -3 6 5 0z"/>
  <polygon id="4" class="fil2" points="296,85 296,68 299,68 299,75 306,75 306,68 310,68 310,85 306,85 306,78 299,78 299,85 "/>
  <polygon id="5" class="fil2" points="318,85 318,71 312,71 312,68 327,68 327,71 321,71 321,85 "/>
  <polygon id="6" class="fil2" points="329,85 329,68 332,68 332,85 "/>
  <path id="7" class="fil2" d="M346 85l0 -7 0 0c-2,0 -2,0 -3,0 0,1 -1,2 -2,3l-3 4 -4 0 2 -3c1,-1 2,-2 2,-3 1,-1 1,-1 2,-1 -2,-1 -3,-1 -3,-2 -1,-1 -2,-2 -2,-3 0,-1 1,-2 1,-3 1,-1 2,-2 2,-2 1,0 3,0 4,0l8 0 0 17 -4 0zm0 -14l-2 0c-2,0 -3,0 -3,0 -1,0 -1,0 -1,0 -1,1 -1,1 -1,2 0,0 0,1 1,1 0,1 0,1 1,1 0,0 1,0 3,0l2 0 0 -4z"/>
  <g id="_1739905025888">
   <path class="fil4" d="M224 69c0,-1 -1,-2 -2,-2 0,0 0,0 0,0 -1,0 -1,0 -2,0 -2,-1 -4,-2 -6,-3 0,-1 -1,-1 -1,-1 -1,0 -1,0 -1,1 -3,2 -6,3 -9,3 -1,0 -1,1 -1,2 0,1 0,1 0,2l0 0c0,2 0,4 0,6 0,1 0,1 0,2 0,2 1,4 3,5 2,2 4,4 7,5 0,0 1,0 1,0 0,0 0,0 1,0 0,0 0,0 0,-1l0 0c1,0 2,0 2,-1 3,-1 5,-2 6,-4 1,-2 2,-4 2,-5 0,-1 0,-1 0,-1l0 -4c0,0 0,0 0,0l0 -1c0,-1 0,-2 0,-3zm-1 4c0,0 0,0 0,0l0 4c0,0 0,0 0,1 0,1 -1,3 -2,4 -1,2 -3,3 -5,4 -1,1 -2,1 -2,1l0 0c-1,0 -1,0 -1,0 0,1 0,1 0,1 0,0 0,0 0,0 -3,-2 -5,-3 -7,-5 -2,-1 -2,-3 -3,-4 0,-1 0,-1 0,-2 0,-2 0,-4 0,-6l0 0c0,-1 0,-1 0,-2 0,0 0,-1 0,-1 0,0 0,0 1,0 2,0 5,-1 8,-3 1,0 1,0 1,0 0,0 0,0 0,0 3,1 5,2 7,3 0,0 1,0 2,0 0,0 0,0 0,0 1,0 1,0 1,1 0,1 0,2 0,3l0 1z"/>
   <polyline class="fil3 str2" points="208,75 213,80 217,73 "/>
  </g>
  <path class="fil5 str1" d="M0 320l110 0c4,0 7,3 7,8l0 35c0,4 -3,7 -7,7l-110 0 0 -50z"/>
  <g id="_1739905019328">
   <g>
    <path class="fil6" d="M250 357l0 -24c0,-1 0,-2 -1,-2l-21 -12c0,0 -1,0 -1,0l-21 12c-1,0 -1,1 -1,2l0 24c0,0 0,1 1,1l21 12c0,0 1,0 1,0l21 -12c1,0 1,-1 1,-1z"/>
    <path class="fil6" d="M367 345l-6 12c0,0 -1,1 -1,1 0,0 0,0 -1,0 0,0 0,0 0,0l-104 0c-1,0 -2,-1 -2,-2l0 -23c0,-1 1,-2 2,-2l104 0c0,0 0,0 1,0 0,0 0,0 0,0 0,1 1,1 1,1l6 12c1,0 1,1 0,1z"/>
    <g>
     <g>
      <path class="fil4" d="M242 332l-2 2c0,0 0,0 0,0l-27 0c0,0 0,0 0,0l0 -2c0,0 0,-1 0,-1l29 0c0,0 0,0 0,1 0,0 0,0 0,0z"/>
     </g>
     <g>
      <path class="fil4" d="M242 357c0,1 0,1 0,1l-29 0c0,0 0,0 0,-1l0 -2c0,0 0,0 0,0l27 0c0,0 0,0 0,0l2 2c0,0 0,0 0,0z"/>
     </g>
     <g>
      <path class="fil4" d="M230 353c0,0 0,0 -1,0l-3 0c0,0 0,0 0,0l-6 -7 0 6c0,1 0,1 0,1l-3 0c0,0 0,0 0,-1l0 -15c0,0 0,-1 0,-1l3 0c0,0 0,1 0,1l0 6 6 -7c0,0 0,0 0,0l3 0c0,0 1,0 1,1 0,0 0,0 0,0l-8 7 8 8c0,0 0,0 0,1z"/>
     </g>
     <g>
      <path class="fil4" d="M237 353c0,0 0,0 0,0l-3 0c0,0 0,0 0,0l-8 -9c0,0 0,0 0,0l8 -8c0,0 0,0 0,0l3 0c0,0 0,0 0,1 0,0 0,0 0,0l-7 7 7 8c0,0 0,0 0,1z"/>
     </g>
    </g>
    <g>
     <path class="fil4" d="M269 339c0,0 0,0 0,-1l0 0 0 -1 0 0c0,-1 0,-1 0,-1l0 0 -11 0 0 0c-1,0 -1,0 -1,1l0 0 0 1 0 0c0,1 0,1 1,1l0 0 4 0c0,0 0,0 0,0l0 13 0 1c0,0 0,0 0,0l0 0 2 0 0 0c1,0 1,0 1,0l0 -1 0 -13c0,0 0,0 0,0l4 0 0 0z"/>
     <g>
      <path class="fil4" d="M273 341c-1,0 -2,1 -3,2 -1,1 -2,2 -2,4 0,2 1,3 2,4 1,1 2,2 4,2 2,0 3,0 3,-1 0,0 1,0 1,0 0,0 0,0 0,0l0 -2 0 0c0,0 -1,0 -1,0l0 0c-1,0 -2,1 -3,1 -1,0 -2,-1 -2,-1 -1,-1 -1,-1 -1,-2 0,0 0,0 0,0l7 0 0 0c0,0 0,0 0,-1l0 0 0 0c0,-2 0,-3 -1,-4 -1,-1 -2,-2 -4,-2l0 0zm-2 5c0,0 0,0 0,-1 0,-1 1,-2 3,-2 0,0 1,1 1,1 1,1 1,1 1,1 0,1 0,1 0,1l-5 0z"/>
     </g>
     <g>
      <path class="fil4" d="M286 341c-1,0 -2,1 -3,1 0,0 0,0 0,0l0 0 0 0c0,-1 0,-1 -1,-1l0 0 -1 0 0 0c-1,0 -1,0 -1,1l0 0 0 14 0 0c0,0 0,0 1,0l0 0 2 0 0 0c0,0 0,0 0,0l0 0 0 -4c0,0 0,0 0,0 1,1 2,1 3,1 2,0 3,-1 4,-2 1,-1 1,-2 1,-4 0,-2 0,-3 -1,-4 -1,-1 -2,-2 -4,-2l0 0zm0 2c1,0 1,1 2,1 0,1 0,2 0,3 0,2 0,4 -2,4 -1,0 -2,-1 -2,-1 -1,-1 -1,-2 -1,-3 0,-1 0,-2 1,-3 0,0 1,-1 2,-1z"/>
     </g>
     <path class="fil4" d="M293 336l0 0c0,0 0,0 0,1l0 0 0 15 0 1c0,0 0,0 0,0l1 0 1 0 0 0c1,0 1,0 1,0l0 -1 0 -15 0 0c0,-1 0,-1 -1,-1l0 0 -2 0 0 0z"/>
     <g>
      <path class="fil4" d="M307 343c-1,-1 -2,-2 -4,-2 -2,0 -3,1 -4,2 -1,1 -1,2 -1,4 0,2 0,3 1,4 1,1 2,2 4,2 2,0 3,-1 4,-2 1,-1 1,-2 1,-4 0,-2 0,-3 -1,-4l0 0zm-4 8c-1,0 -2,-1 -2,-1 -1,-1 -1,-2 -1,-3 0,-2 1,-4 3,-4 1,0 2,1 2,1 1,1 1,2 1,3 0,2 -1,4 -3,4z"/>
     </g>
     <path class="fil4" d="M316 345c-1,0 -1,0 0,-1l7 -7 0 0c0,0 0,-1 0,-1l0 0 -3 0c0,0 0,0 0,1l-6 6c-1,0 -1,0 -1,0l0 -6 0 0c0,-1 0,-1 0,-1l0 0 -2 0 0 0c0,0 0,0 0,1l0 0 0 15 0 0c0,1 0,1 0,1l0 0 2 0 0 0c0,0 0,0 0,-1l0 0 0 -6c0,0 0,0 1,0l5 7c0,0 1,0 1,0l2 0 0 0c1,0 1,-1 0,-1l0 0 -6 -7z"/>
     <path class="fil4" d="M328 341c0,0 -1,0 -2,1 0,0 0,0 0,0l0 0c0,-1 0,-1 0,-1l0 0 -2 0 0 0c0,0 0,0 0,1l0 0 0 10 0 0c0,1 0,1 0,1l0 0 2 0 0 0c0,0 0,0 0,-1l0 0 0 -4c0,-2 0,-3 1,-4 0,0 1,0 2,0 0,0 0,0 1,0l0 0c0,0 0,0 0,-1l0 0 0 -1 0 0c0,0 0,-1 0,-1l0 0c-1,0 -1,0 -2,0z"/>
     <g>
      <path class="fil4" d="M335 341c-1,0 -2,0 -3,1l0 0c-1,0 -1,0 -1,0l0 0 0 2 0 0c0,0 1,0 1,0l0 0c1,0 2,-1 3,-1 1,0 1,1 2,1 0,0 0,1 0,1 0,0 0,1 0,1 0,0 0,0 -1,0 0,0 0,0 0,0 -2,0 -3,0 -4,1 -1,0 -2,1 -2,2 0,1 1,2 1,3 1,1 2,1 3,1 1,0 2,0 3,-1 0,0 0,0 0,0l0 0 0 1c0,0 1,0 1,0l0 0 1 0 0 0c1,0 1,0 1,0l0 -1 0 -6c0,-2 -1,-3 -1,-4 -1,0 -2,-1 -4,-1l0 0zm0 10c-1,0 -1,0 -2,-1 0,0 0,0 0,-1 0,0 0,-1 0,-1 1,0 1,0 3,0 0,0 1,0 1,0 0,0 0,0 0,0l0 0c0,1 0,2 0,2 -1,0 -1,1 -2,1z"/>
     </g>
     <path class="fil4" d="M357 336l-3 0 0 0c0,0 0,0 0,1l0 0 -4 10c0,1 0,1 0,0l-4 -10 0 -1c0,0 0,0 0,0l0 0 -3 0 0 0c0,0 -1,0 -1,1l0 0 0 15 0 0c0,1 1,1 1,1l0 0 2 0 0 0c0,0 0,0 0,-1l0 0 0 -10c0,0 0,0 1,0l3 10 0 0c0,0 0,0 0,0l0 0 2 0 0 0c0,0 0,0 0,0l0 0 3 -10c0,0 1,0 1,0l0 11 0 0c0,0 0,0 0,0l0 0 2 0 0 0c0,0 0,0 0,0l0 0 0 -16 0 0c0,-1 0,-1 0,-1l0 0z"/>
    </g>
   </g>
  </g>
  <path class="fil2" d="M37 353l-2 0 0 -15c-1,0 -2,1 -3,2 -1,0 -1,0 -2,1l0 -3c1,0 2,-1 3,-2 1,-1 2,-2 2,-2l2 0 0 19z"/>
  <path id="1" class="fil2" d="M51 358l0 -19 2 0 0 2c1,-1 1,-1 2,-2 0,0 1,0 2,0 1,0 2,0 3,1 1,0 2,1 2,2 1,1 1,2 1,4 0,1 0,2 -1,4 0,1 -1,2 -2,2 -1,1 -2,1 -3,1 -1,0 -2,0 -2,0 -1,-1 -1,-1 -2,-2l0 7 -2 0zm2 -12c0,2 1,3 1,4 1,1 2,1 3,1 1,0 2,0 2,-1 1,-1 2,-2 2,-4 0,-2 -1,-3 -1,-4 -1,-1 -2,-1 -3,-1 -1,0 -2,0 -3,1 0,1 -1,2 -1,4z"/>
  <path id="2" class="fil2" d="M66 336l0 -2 2 0 0 2 -2 0zm0 17l0 -14 2 0 0 14 -2 0z"/>
  <path id="3" class="fil2" d="M72 339l2 0 0 6c1,0 1,0 2,0 0,-1 0,-2 1,-3 0,-1 1,-2 1,-2 0,0 1,-1 1,-1 0,0 1,0 2,0l0 0 0 2 0 0c-1,0 -1,0 -2,0 0,0 0,1 0,2 -1,1 -1,1 -1,2 -1,0 -1,0 -2,1 1,0 2,1 3,3l3 4 -3 0 -2 -4c-1,-1 -1,-2 -2,-2 0,0 0,-1 -1,-1l0 7 -2 0 0 -14z"/>
 </g>
</svg>
