<?xml version="1.0" encoding="UTF-8"?>
<!DOCTYPE svg PUBLIC "-//W3C//DTD SVG 1.1//EN" "http://www.w3.org/Graphics/SVG/1.1/DTD/svg11.dtd">
<!-- Creator: CorelDRAW X7 -->
<svg xmlns="http://www.w3.org/2000/svg" xml:space="preserve" width="142px" height="150px" version="1.1" style="shape-rendering:geometricPrecision; text-rendering:geometricPrecision; image-rendering:optimizeQuality; fill-rule:evenodd; clip-rule:evenodd"
viewBox="0 0 120 126"
 xmlns:xlink="http://www.w3.org/1999/xlink">
 <defs>
  <style type="text/css">
   <![CDATA[
    .fil0 {fill:#F96332}
   ]]>
  </style>
 </defs>
 <g id="Слой_x0020_1">
  <metadata id="CorelCorpID_0Corel-Layer"/>
  <path class="fil0" d="M13 21l13 52 3 12c1,7 7,11 13,11l29 0 34 0c2,0 4,-2 4,-4 0,-3 -2,-5 -4,-5l-34 0 -29 0c-2,0 -4,-2 -4,-4l-2 -6 62 0c6,0 11,-4 13,-11l8 -33c1,-5 0,-9 -2,-13 -3,-3 -6,-6 -11,-6l-85 0 -3 -7c-1,-4 -4,-7 -8,-7 -3,0 -6,0 -6,0 -2,0 -4,2 -4,5 0,2 2,5 4,5l6 0 3 11zm31 83c6,0 11,5 11,11 0,6 -5,11 -11,11 -6,0 -11,-5 -11,-11 0,-6 5,-11 11,-11zm48 0c6,0 11,5 11,11 0,6 -5,11 -11,11 -6,0 -11,-5 -11,-11 0,-6 5,-11 11,-11z"/>
 </g>
</svg>
