<?xml version="1.0" encoding="UTF-8"?>
<!DOCTYPE svg PUBLIC "-//W3C//DTD SVG 1.1//EN" "http://www.w3.org/Graphics/SVG/1.1/DTD/svg11.dtd">
<!-- Creator: CorelDRAW X7 -->
<svg xmlns="http://www.w3.org/2000/svg" xml:space="preserve" width="142px" height="156px" version="1.1" style="shape-rendering:geometricPrecision; text-rendering:geometricPrecision; image-rendering:optimizeQuality; fill-rule:evenodd; clip-rule:evenodd"
viewBox="0 0 37 41"
 xmlns:xlink="http://www.w3.org/1999/xlink">
 <defs>
  <style type="text/css">
   <![CDATA[
    .fil0 {fill:#F96332}
   ]]>
  </style>
 </defs>
 <g id="Слой_x0020_1">
  <metadata id="CorelCorpID_0Corel-Layer"/>
  <path class="fil0" d="M22 3l0 -2c1,-1 1,-1 2,-1l6 2c0,1 1,2 1,2l-1 2 3 0c1,0 2,1 3,2 1,1 1,2 1,4l-3 10c0,2 -2,4 -4,4l-19 0 1 1c0,1 0,2 1,2l20 0c0,0 1,0 1,1 0,1 -1,2 -1,2l-20 0c-2,0 -4,-2 -4,-4l-1 -4 -5 -19 -2 0c0,0 -1,-1 -1,-2 0,-1 1,-1 1,-1 0,0 1,0 2,0 1,0 2,0 3,2l0 2 6 0 0 -4c0,-1 1,-2 2,-2l6 0c1,0 2,1 2,2l0 1zm-8 31c2,0 4,1 4,3 0,2 -2,4 -4,4 -2,0 -3,-2 -3,-4 0,-2 1,-3 3,-3zm15 0c2,0 3,1 3,3 0,2 -1,4 -3,4 -2,0 -4,-2 -4,-4 0,-2 2,-3 4,-3z"/>
 </g>
</svg>
