<?xml version="1.0" encoding="UTF-8"?>
<!DOCTYPE svg PUBLIC "-//W3C//DTD SVG 1.1//EN" "http://www.w3.org/Graphics/SVG/1.1/DTD/svg11.dtd">
<!-- Creator: CorelDRAW X7 -->
<svg xmlns="http://www.w3.org/2000/svg" xml:space="preserve" width="142px" height="156px" version="1.1" style="shape-rendering:geometricPrecision; text-rendering:geometricPrecision; image-rendering:optimizeQuality; fill-rule:evenodd; clip-rule:evenodd"
viewBox="0 0 39 42"
 xmlns:xlink="http://www.w3.org/1999/xlink">
 <defs>
  <style type="text/css">
   <![CDATA[
    .fil0 {fill:#F96332}
   ]]>
  </style>
 </defs>
 <g id="Слой_x0020_1">
  <metadata id="CorelCorpID_0Corel-Layer"/>
  <path class="fil0" d="M23 3l0 -2c1,-1 1,-1 2,-1l6 3c1,0 1,1 1,2l-1 1 3 0c2,0 3,1 4,2 1,1 1,3 0,4l-2 11c-1,2 -2,4 -4,4l-20 0 0 1c0,1 1,2 1,2l21 0c1,0 1,0 1,1 0,1 0,2 -1,2l-21 0c-1,0 -3,-2 -4,-4l-1 -4 -5 -20 -2 0c0,0 -1,-1 -1,-2 0,-1 1,-1 1,-1 0,0 1,0 2,0 1,0 2,1 3,2l1 2 6 0 0 -4c0,-1 0,-2 1,-2l7 0c1,0 2,1 2,2l0 1zm13 8l-3 11c0,1 -1,1 -1,1 0,0 -21,0 -21,0 0,0 -4,-14 -4,-14 0,0 27,0 27,0 1,0 1,1 1,1 1,0 1,1 1,1zm-16 -5l-5 0 0 -3 5 0 0 3zm4 0l1 -2 4 1 -1 1 -4 0zm-9 29c2,0 3,2 3,4 0,2 -1,3 -3,3 -2,0 -4,-1 -4,-3 0,-2 2,-4 4,-4zm15 0c2,0 4,2 4,4 0,2 -2,3 -4,3 -2,0 -4,-1 -4,-3 0,-2 2,-4 4,-4z"/>
 </g>
</svg>
