<?xml version="1.0" encoding="UTF-8"?>
<!DOCTYPE svg PUBLIC "-//W3C//DTD SVG 1.1//EN" "http://www.w3.org/Graphics/SVG/1.1/DTD/svg11.dtd">
<!-- Creator: CorelDRAW X7 -->
<svg xmlns="http://www.w3.org/2000/svg" xml:space="preserve" width="142px" height="156px" version="1.1" style="shape-rendering:geometricPrecision; text-rendering:geometricPrecision; image-rendering:optimizeQuality; fill-rule:evenodd; clip-rule:evenodd"
viewBox="0 0 119 131"
 xmlns:xlink="http://www.w3.org/1999/xlink">
 <defs>
  <style type="text/css">
   <![CDATA[
    .fil0 {fill:#F96332}
   ]]>
  </style>
 </defs>
 <g id="Слой_x0020_1">
  <metadata id="CorelCorpID_0Corel-Layer"/>
  <path class="fil0" d="M70 10l2 -7c1,-2 3,-4 6,-3l18 8c2,1 3,4 2,6l-2 6 10 0c4,0 8,2 11,5 2,4 3,9 2,13l-8 34c-2,6 -7,10 -13,10l-62 0 1 6c1,2 3,4 5,4l63 0c2,0 4,2 4,5 0,2 -2,5 -4,5l-63 0c-6,0 -12,-5 -13,-11l-3 -12 -16 -64 -6 0c-2,0 -4,-2 -4,-5 0,-3 2,-5 4,-5 0,0 3,0 6,0 4,0 7,3 8,7l3 8 18 0 0 -15c0,-3 2,-5 5,-5l21 0c3,0 5,2 5,5l0 5zm-9 10l-13 0 0 -10 13 0 0 10zm15 0l3 -9 10 4 -2 5 -11 0zm-31 89c6,0 11,5 11,11 0,6 -5,11 -11,11 -6,0 -11,-5 -11,-11 0,-6 5,-11 11,-11zm48 0c6,0 11,5 11,11 0,6 -5,11 -11,11 -6,0 -11,-5 -11,-11 0,-6 5,-11 11,-11z"/>
 </g>
</svg>
