<?xml version="1.0" encoding="UTF-8"?>
<!DOCTYPE svg PUBLIC "-//W3C//DTD SVG 1.1//EN" "http://www.w3.org/Graphics/SVG/1.1/DTD/svg11.dtd">
<!-- Creator: CorelDRAW X7 -->
<svg xmlns="http://www.w3.org/2000/svg" xml:space="preserve" width="26px" height="26px" version="1.1" style="shape-rendering:geometricPrecision; text-rendering:geometricPrecision; image-rendering:optimizeQuality; fill-rule:evenodd; clip-rule:evenodd"
viewBox="0 0 26 26"
 xmlns:xlink="http://www.w3.org/1999/xlink">
 <defs>
  <style type="text/css">
   <![CDATA[
    .str0 {stroke:#333333;stroke-width:0.999273}
    .fil1 {fill:none}
    .fil0 {fill:#333333;fill-rule:nonzero}
   ]]>
  </style>
 </defs>
 <g id="Слой_x0020_1">
  <metadata id="CorelCorpID_0Corel-Layer"/>
  <g>
   <path class="fil0" d="M25 6l-23 0 0 -1 23 0 0 0 0 1zm0 -1l0 0 0 0 0 0zm-1 15l0 -15 1 0 0 15 0 1 -1 -1zm1 0l0 1 0 0 0 -1zm-23 0l23 0 0 1 -23 0 -1 -1 1 0zm0 1l-1 0 0 -1 1 1zm0 -15l0 14 -1 0 0 -14 0 0 1 0zm0 -1l0 1 0 0 0 0 0 0 0 0 0 0 0 0 0 0 0 0 0 0 0 0 0 0 0 0 0 0 0 0 0 0 0 0 0 0 0 0 0 0 0 0 0 0 0 0 0 0 0 0 0 0 0 0 0 0 0 0 0 0 0 0 0 0 0 0 0 0 -1 0 0 0 0 0 0 -1 0 0 0 0 0 0 0 0 0 0 0 0 0 0 0 0 0 0 0 0 0 0 0 0 0 0 0 0 0 0 0 0 0 0 0 0 0 0 0 0 1 0 0 0 -1 0 1 0 0 0 0 0 0 0 0 0 0 0 0 0z"/>
  </g>
  <rect class="fil1 str0" x="4" y="4" width="1.167" height="0.999273"/>
  <rect class="fil1 str0" x="21" y="4" width="1.167" height="0.999273"/>
  <line class="fil1 str0" x1="4" y1="11" x2="7" y2= "11" />
  <line class="fil1 str0" x1="19" y1="10" x2="22" y2= "10" />
  <line class="fil1 str0" x1="2" y1="8" x2="25" y2= "8" />
  <line class="fil1 str0" x1="21" y1="9" x2="21" y2= "12" />
 </g>
</svg>
