<?xml version="1.0" encoding="UTF-8"?>
<!DOCTYPE svg PUBLIC "-//W3C//DTD SVG 1.1//EN" "http://www.w3.org/Graphics/SVG/1.1/DTD/svg11.dtd">
<!-- Creator: CorelDRAW X7 -->
<svg xmlns="http://www.w3.org/2000/svg" xml:space="preserve" width="26px" height="26px" version="1.1" style="shape-rendering:geometricPrecision; text-rendering:geometricPrecision; image-rendering:optimizeQuality; fill-rule:evenodd; clip-rule:evenodd"
viewBox="0 0 26 26"
 xmlns:xlink="http://www.w3.org/1999/xlink">
 <defs>
  <style type="text/css">
   <![CDATA[
    .str0 {stroke:#333333;stroke-width:0.900055}
    .fil0 {fill:none}
   ]]>
  </style>
 </defs>
 <g id="Слой_x0020_1">
  <metadata id="CorelCorpID_0Corel-Layer"/>
  <rect class="fil0 str0" x="1" y="4" width="23.0021" height="16.0015" rx="1" ry="1"/>
  <circle class="fil0 str0" cx="10" cy="12" r="6"/>
  <circle class="fil0 str0" cx="10" cy="12" r="1"/>
  <path class="fil0 str0" d="M10 11c0,-1 0,-1 0,-2 -1,-1 -2,-1 -3,-2"/>
  <path class="fil0 str0" d="M11 12c1,0 2,0 3,0 0,-1 0,-3 1,-4"/>
  <path class="fil0 str0" d="M10 13c-1,1 -2,1 -3,2 1,1 2,2 2,3"/>
  <path class="fil0 str0" d="M4 13c1,-1 2,-2 3,-2 1,0 2,1 3,1"/>
  <line class="fil0 str0" x1="18" y1="18" x2="23" y2= "18" />
  <path class="fil0 str0" d="M11 13c1,1 1,2 2,3 0,0 1,0 2,-1"/>
 </g>
</svg>
