<?xml version="1.0" encoding="UTF-8"?>
<!DOCTYPE svg PUBLIC "-//W3C//DTD SVG 1.1//EN" "http://www.w3.org/Graphics/SVG/1.1/DTD/svg11.dtd">
<!-- Creator: CorelDRAW X7 -->
<svg xmlns="http://www.w3.org/2000/svg" xml:space="preserve" width="26px" height="26px" version="1.1" style="shape-rendering:geometricPrecision; text-rendering:geometricPrecision; image-rendering:optimizeQuality; fill-rule:evenodd; clip-rule:evenodd"
viewBox="0 0 26 26"
 xmlns:xlink="http://www.w3.org/1999/xlink">
 <defs>
  <style type="text/css">
   <![CDATA[
    .str0 {stroke:#333333;stroke-width:0.900055}
    .fil0 {fill:none;fill-rule:nonzero}
   ]]>
  </style>
 </defs>
 <g id="Слой_x0020_1">
  <metadata id="CorelCorpID_0Corel-Layer"/>
  <g id="_1671340537616">
   <g>
    <path class="fil0 str0" d="M4 5c6,0 11,0 17,0 0,0 1,1 1,1 0,0 1,1 1,1 0,0 -1,1 -1,1 0,0 -1,1 -1,1 -5,0 -11,0 -16,0 0,0 -1,1 -1,1 0,0 -1,1 -1,1 0,0 1,1 1,1 0,0 1,1 1,1 5,0 11,0 16,0 0,0 1,1 1,1 0,0 1,1 1,1 0,0 -1,1 -1,1 0,0 -1,1 -1,1 -5,0 -11,0 -16,0 0,0 -1,1 -1,1 0,0 -1,1 -1,1 0,0 1,1 1,1 0,0 1,1 1,1 6,0 11,0 17,0"/>
   </g>
   <g>
    <path class="fil0 str0" d="M4 4c1,0 1,0 1,1 0,1 0,1 -1,1 -1,0 -1,0 -1,-1 0,-1 0,-1 1,-1z"/>
   </g>
   <g>
    <path class="fil0 str0" d="M22 20c1,0 1,0 1,1 0,1 0,1 -1,1 -1,0 -1,0 -1,-1 0,-1 0,-1 1,-1z"/>
   </g>
  </g>
 </g>
</svg>
