<?xml version="1.0" encoding="UTF-8"?>
<!DOCTYPE svg PUBLIC "-//W3C//DTD SVG 1.1//EN" "http://www.w3.org/Graphics/SVG/1.1/DTD/svg11.dtd">
<!-- Creator: CorelDRAW X7 -->
<svg xmlns="http://www.w3.org/2000/svg" xml:space="preserve" width="26px" height="26px" version="1.1" style="shape-rendering:geometricPrecision; text-rendering:geometricPrecision; image-rendering:optimizeQuality; fill-rule:evenodd; clip-rule:evenodd"
viewBox="0 0 26 26"
 xmlns:xlink="http://www.w3.org/1999/xlink">
 <defs>
  <style type="text/css">
   <![CDATA[
    .str0 {stroke:#333333;stroke-width:0.900055}
    .fil1 {fill:none;fill-rule:nonzero}
    .fil0 {fill:#333333;fill-rule:nonzero}
   ]]>
  </style>
 </defs>
 <g id="Слой_x0020_1">
  <metadata id="CorelCorpID_0Corel-Layer"/>
  <g>
   <path class="fil0" d="M22 6l-18 0 0 -1 18 0 0 0 0 1zm3 2l-1 0 0 0 0 -1 0 0 0 0 0 0 0 0 0 0 0 0 0 0 0 0 0 0 0 0 0 0 0 0 0 0 0 0 0 -1 0 0 -1 0 0 0 0 0 0 0 0 0 0 0 0 0 0 0 0 0 0 0 0 0 0 0 0 0 0 0 -1 0 0 -1 1 0 0 0 0 0 0 0 0 0 0 0 0 0 0 0 1 0 0 0 0 0 0 0 0 0 0 1 0 0 0 0 0 0 0 0 0 0 1 0 0 0 0 0 0 0 0 1 0 0 0 0 0 0 0 0 0 0 0 0 0 0 0 1 0 0zm-1 10l0 -10 1 0 0 10 0 0 -1 0zm-2 3l0 -1 0 0 1 0 0 0 0 0 0 0 0 0 0 0 0 0 0 0 0 0 0 0 0 0 0 0 0 0 0 0 1 0 0 0 0 -1 0 0 0 0 0 0 0 0 0 0 0 0 0 0 0 0 0 0 0 0 0 0 0 0 0 0 0 0 0 -1 1 0 0 1 0 0 0 0 0 0 0 0 0 0 0 0 0 0 0 1 0 0 0 0 0 0 -1 0 0 0 0 0 0 0 0 0 0 0 0 1 0 0 0 0 0 0 0 0 -1 0 0 0 0 0 0 0 0 0 0 0 0 0 0 0 -1 0 0 0zm-18 -1l18 0 0 1 -18 0 0 0 0 -1zm-3 -2l1 0 0 0 0 1 0 0 0 0 0 0 0 0 0 0 0 0 0 0 0 0 0 0 0 0 0 0 0 0 0 0 0 0 0 1 0 0 1 0 0 0 0 0 0 0 0 0 0 0 0 0 0 0 0 0 0 0 0 0 0 0 0 0 0 0 1 0 0 1 -1 0 0 0 0 0 0 0 0 0 0 0 0 0 0 0 -1 0 0 0 0 0 0 0 0 0 0 -1 0 0 0 0 0 0 0 0 0 0 -1 0 0 0 0 0 0 0 0 -1 0 0 0 0 0 0 0 0 0 0 0 0 0 0 0 -1 0 0zm1 -10l0 10 -1 0 0 -10 0 0 1 0zm2 -3l0 1 0 0 -1 0 0 0 0 0 0 0 0 0 0 0 0 0 0 0 0 0 0 0 0 0 0 0 0 0 0 0 -1 0 0 0 0 1 0 0 0 0 0 0 0 0 0 0 0 0 0 0 0 0 0 0 0 0 0 0 0 0 0 0 0 0 0 1 -1 0 0 -1 0 0 0 0 0 0 0 0 0 0 0 0 0 0 0 -1 0 0 0 0 0 0 1 0 0 0 0 0 0 0 0 0 0 0 0 -1 0 0 0 0 0 0 0 0 1 0 0 0 0 0 0 0 0 0 0 0 0 0 0 0 1 0 0 0z"/>
  </g>
  <g>
   <line class="fil1 str0" x1="4" y1="8" x2="4" y2= "18" />
  </g>
  <g>
   <polygon class="fil0" points="4,21 4,22 3,22 3,21 "/>
  </g>
  <g>
   <line class="fil1 str0" x1="6" y1="8" x2="6" y2= "18" />
  </g>
  <g>
   <line class="fil1 str0" x1="8" y1="8" x2="8" y2= "18" />
  </g>
  <g>
   <line class="fil1 str0" x1="10" y1="8" x2="10" y2= "18" />
  </g>
  <g>
   <line class="fil1 str0" x1="12" y1="8" x2="12" y2= "18" />
  </g>
  <g>
   <line class="fil1 str0" x1="14" y1="8" x2="14" y2= "18" />
  </g>
  <g>
   <line class="fil1 str0" x1="16" y1="8" x2="16" y2= "18" />
  </g>
  <g>
   <line class="fil1 str0" x1="18" y1="8" x2="18" y2= "18" />
  </g>
  <g>
   <line class="fil1 str0" x1="20" y1="8" x2="20" y2= "18" />
  </g>
  <g>
   <line class="fil1 str0" x1="22" y1="8" x2="22" y2= "18" />
  </g>
  <g>
   <polygon class="fil0" points="6,21 6,22 5,22 5,21 "/>
  </g>
 </g>
</svg>
